<?xml version="1.0" standalone="no"?>
 <!DOCTYPE svg PUBLIC "-//W3C//DTD SVG 1.1//EN" 
 "http://www.w3.org/Graphics/SVG/1.1/DTD/svg11.dtd"> 
<svg
  xmlns:svg="http://www.w3.org/2000/svg"
  xmlns="http://www.w3.org/2000/svg"
  xmlns:xlink="http://www.w3.org/1999/xlink"
  version="1.1"
  width="29.700220cm" height="21.000720cm" viewBox="0 0 116930 82680">
<title>SVG Picture created as InputBufferMCU-PeakDetectorMCU-InputBufferMCU3.svg date 2020/10/23 07:39:49 </title>
  <desc>Picture generated by Eeschema-SVG </desc>
<g style="fill:#000000; fill-opacity:1;stroke:#000000; stroke-opacity:1;
stroke-linecap:round; stroke-linejoin:round;"
 transform="translate(0 0) scale(1 1)">
</g>
<g style="fill:#000000; fill-opacity:0.0; 
stroke:#000000; stroke-width:-10; stroke-opacity:1; 
stroke-linecap:round; stroke-linejoin:round;">
</g>
<g style="fill:#840000; fill-opacity:0.0; 
stroke:#840000; stroke-width:-10; stroke-opacity:1; 
stroke-linecap:round; stroke-linejoin:round;">
</g>
<g style="fill:#840000; fill-opacity:0.0; 
stroke:#840000; stroke-width:100; stroke-opacity:1; 
stroke-linecap:round; stroke-linejoin:round;">
</g>
<g style="fill:#840000; fill-opacity:0.0; 
stroke:#840000; stroke-width:60; stroke-opacity:1; 
stroke-linecap:round; stroke-linejoin:round;">
<rect x="69690" y="65360" width="42520" height="12600" rx="0" />
</g>
<g style="fill:#840000; fill-opacity:0.0; 
stroke:#840000; stroke-width:100; stroke-opacity:1; 
stroke-linecap:round; stroke-linejoin:round;">
</g>
<g style="fill:#840000; fill-opacity:0.0; 
stroke:#840000; stroke-width:60; stroke-opacity:1; 
stroke-linecap:round; stroke-linejoin:round;">
<rect x="3940" y="3940" width="109050" height="74800" rx="0" />
</g>
<g style="fill:#840000; fill-opacity:0.0; 
stroke:#840000; stroke-width:100; stroke-opacity:1; 
stroke-linecap:round; stroke-linejoin:round;">
</g>
<g style="fill:#840000; fill-opacity:0.0; 
stroke:#840000; stroke-width:60; stroke-opacity:1; 
stroke-linecap:round; stroke-linejoin:round;">
<rect x="4720" y="4720" width="107490" height="73240" rx="0" />
</g>
<g style="fill:#840000; fill-opacity:0.0; 
stroke:#840000; stroke-width:100; stroke-opacity:1; 
stroke-linecap:round; stroke-linejoin:round;">
</g>
<g style="fill:#840000; fill-opacity:0.0; 
stroke:#840000; stroke-width:60; stroke-opacity:1; 
stroke-linecap:round; stroke-linejoin:round;">
<path d="M23620 4720
L23620 3940
" />
</g>
<g style="fill:#840000; fill-opacity:0.0; 
stroke:#840000; stroke-width:100; stroke-opacity:1; 
stroke-linecap:round; stroke-linejoin:round;">
</g>
<g style="fill:#840000; fill-opacity:0.0; 
stroke:#840000; stroke-width:60; stroke-opacity:1; 
stroke-linecap:round; stroke-linejoin:round;">
<path d="M43310 4720
L43310 3940
" />
</g>
<g style="fill:#840000; fill-opacity:0.0; 
stroke:#840000; stroke-width:100; stroke-opacity:1; 
stroke-linecap:round; stroke-linejoin:round;">
</g>
<g style="fill:#840000; fill-opacity:0.0; 
stroke:#840000; stroke-width:60; stroke-opacity:1; 
stroke-linecap:round; stroke-linejoin:round;">
<path d="M62990 4720
L62990 3940
" />
</g>
<g style="fill:#840000; fill-opacity:0.0; 
stroke:#840000; stroke-width:100; stroke-opacity:1; 
stroke-linecap:round; stroke-linejoin:round;">
</g>
<g style="fill:#840000; fill-opacity:0.0; 
stroke:#840000; stroke-width:60; stroke-opacity:1; 
stroke-linecap:round; stroke-linejoin:round;">
<path d="M82680 4720
L82680 3940
" />
</g>
<g style="fill:#840000; fill-opacity:0.0; 
stroke:#840000; stroke-width:100; stroke-opacity:1; 
stroke-linecap:round; stroke-linejoin:round;">
</g>
<g style="fill:#840000; fill-opacity:0.0; 
stroke:#840000; stroke-width:60; stroke-opacity:1; 
stroke-linecap:round; stroke-linejoin:round;">
<path d="M102360 4720
L102360 3940
" />
</g>
<g style="fill:#840000; fill-opacity:0.0; 
stroke:#840000; stroke-width:100; stroke-opacity:1; 
stroke-linecap:round; stroke-linejoin:round;">
</g>
<g style="fill:#840000; fill-opacity:0.0; 
stroke:#840000; stroke-width:60; stroke-opacity:1; 
stroke-linecap:round; stroke-linejoin:round;">
<text x="13780" y="4580"
textLength="550" font-size="680" lengthAdjust="spacingAndGlyphs"
text-anchor="start" opacity="0">1</text>
<path d="M14190 4560
L13900 4560
" />
<path d="M14050 4560
L14050 4050
L14000 4120
L13950 4170
L13900 4190
" />
</g>
<g style="fill:#840000; fill-opacity:0.0; 
stroke:#840000; stroke-width:100; stroke-opacity:1; 
stroke-linecap:round; stroke-linejoin:round;">
</g>
<g style="fill:#840000; fill-opacity:0.0; 
stroke:#840000; stroke-width:60; stroke-opacity:1; 
stroke-linecap:round; stroke-linejoin:round;">
<text x="33460" y="4580"
textLength="550" font-size="680" lengthAdjust="spacingAndGlyphs"
text-anchor="start" opacity="0">2</text>
<path d="M33580 4090
L33610 4070
L33660 4050
L33780 4050
L33830 4070
L33850 4090
L33870 4140
L33870 4190
L33850 4260
L33560 4560
L33870 4560
" />
</g>
<g style="fill:#840000; fill-opacity:0.0; 
stroke:#840000; stroke-width:100; stroke-opacity:1; 
stroke-linecap:round; stroke-linejoin:round;">
</g>
<g style="fill:#840000; fill-opacity:0.0; 
stroke:#840000; stroke-width:60; stroke-opacity:1; 
stroke-linecap:round; stroke-linejoin:round;">
<text x="53150" y="4580"
textLength="550" font-size="680" lengthAdjust="spacingAndGlyphs"
text-anchor="start" opacity="0">3</text>
<path d="M53250 4050
L53560 4050
L53390 4240
L53470 4240
L53520 4260
L53540 4290
L53560 4340
L53560 4460
L53540 4510
L53520 4530
L53470 4560
L53320 4560
L53270 4530
L53250 4510
" />
</g>
<g style="fill:#840000; fill-opacity:0.0; 
stroke:#840000; stroke-width:100; stroke-opacity:1; 
stroke-linecap:round; stroke-linejoin:round;">
</g>
<g style="fill:#840000; fill-opacity:0.0; 
stroke:#840000; stroke-width:60; stroke-opacity:1; 
stroke-linecap:round; stroke-linejoin:round;">
<text x="72830" y="4580"
textLength="550" font-size="680" lengthAdjust="spacingAndGlyphs"
text-anchor="start" opacity="0">4</text>
<path d="M73200 4220
L73200 4560
" />
<path d="M73070 4020
L72950 4390
L73270 4390
" />
</g>
<g style="fill:#840000; fill-opacity:0.0; 
stroke:#840000; stroke-width:100; stroke-opacity:1; 
stroke-linecap:round; stroke-linejoin:round;">
</g>
<g style="fill:#840000; fill-opacity:0.0; 
stroke:#840000; stroke-width:60; stroke-opacity:1; 
stroke-linecap:round; stroke-linejoin:round;">
<text x="92520" y="4580"
textLength="550" font-size="680" lengthAdjust="spacingAndGlyphs"
text-anchor="start" opacity="0">5</text>
<path d="M92910 4050
L92670 4050
L92640 4290
L92670 4260
L92720 4240
L92840 4240
L92890 4260
L92910 4290
L92930 4340
L92930 4460
L92910 4510
L92890 4530
L92840 4560
L92720 4560
L92670 4530
L92640 4510
" />
</g>
<g style="fill:#840000; fill-opacity:0.0; 
stroke:#840000; stroke-width:100; stroke-opacity:1; 
stroke-linecap:round; stroke-linejoin:round;">
</g>
<g style="fill:#840000; fill-opacity:0.0; 
stroke:#840000; stroke-width:60; stroke-opacity:1; 
stroke-linecap:round; stroke-linejoin:round;">
<text x="112200" y="4580"
textLength="550" font-size="680" lengthAdjust="spacingAndGlyphs"
text-anchor="start" opacity="0">6</text>
<path d="M112570 4050
L112470 4050
L112420 4070
L112400 4090
L112350 4170
L112320 4260
L112320 4460
L112350 4510
L112370 4530
L112420 4560
L112520 4560
L112570 4530
L112590 4510
L112610 4460
L112610 4340
L112590 4290
L112570 4260
L112520 4240
L112420 4240
L112370 4260
L112350 4290
L112320 4340
" />
</g>
<g style="fill:#840000; fill-opacity:0.0; 
stroke:#840000; stroke-width:100; stroke-opacity:1; 
stroke-linecap:round; stroke-linejoin:round;">
</g>
<g style="fill:#840000; fill-opacity:0.0; 
stroke:#840000; stroke-width:60; stroke-opacity:1; 
stroke-linecap:round; stroke-linejoin:round;">
<path d="M23620 77960
L23620 78740
" />
</g>
<g style="fill:#840000; fill-opacity:0.0; 
stroke:#840000; stroke-width:100; stroke-opacity:1; 
stroke-linecap:round; stroke-linejoin:round;">
</g>
<g style="fill:#840000; fill-opacity:0.0; 
stroke:#840000; stroke-width:60; stroke-opacity:1; 
stroke-linecap:round; stroke-linejoin:round;">
<path d="M43310 77960
L43310 78740
" />
</g>
<g style="fill:#840000; fill-opacity:0.0; 
stroke:#840000; stroke-width:100; stroke-opacity:1; 
stroke-linecap:round; stroke-linejoin:round;">
</g>
<g style="fill:#840000; fill-opacity:0.0; 
stroke:#840000; stroke-width:60; stroke-opacity:1; 
stroke-linecap:round; stroke-linejoin:round;">
<path d="M62990 77960
L62990 78740
" />
</g>
<g style="fill:#840000; fill-opacity:0.0; 
stroke:#840000; stroke-width:100; stroke-opacity:1; 
stroke-linecap:round; stroke-linejoin:round;">
</g>
<g style="fill:#840000; fill-opacity:0.0; 
stroke:#840000; stroke-width:60; stroke-opacity:1; 
stroke-linecap:round; stroke-linejoin:round;">
<path d="M82680 77960
L82680 78740
" />
</g>
<g style="fill:#840000; fill-opacity:0.0; 
stroke:#840000; stroke-width:100; stroke-opacity:1; 
stroke-linecap:round; stroke-linejoin:round;">
</g>
<g style="fill:#840000; fill-opacity:0.0; 
stroke:#840000; stroke-width:60; stroke-opacity:1; 
stroke-linecap:round; stroke-linejoin:round;">
<path d="M102360 77960
L102360 78740
" />
</g>
<g style="fill:#840000; fill-opacity:0.0; 
stroke:#840000; stroke-width:100; stroke-opacity:1; 
stroke-linecap:round; stroke-linejoin:round;">
</g>
<g style="fill:#840000; fill-opacity:0.0; 
stroke:#840000; stroke-width:60; stroke-opacity:1; 
stroke-linecap:round; stroke-linejoin:round;">
<text x="13780" y="78600"
textLength="550" font-size="680" lengthAdjust="spacingAndGlyphs"
text-anchor="start" opacity="0">1</text>
<path d="M14190 78580
L13900 78580
" />
<path d="M14050 78580
L14050 78070
L14000 78140
L13950 78190
L13900 78210
" />
</g>
<g style="fill:#840000; fill-opacity:0.0; 
stroke:#840000; stroke-width:100; stroke-opacity:1; 
stroke-linecap:round; stroke-linejoin:round;">
</g>
<g style="fill:#840000; fill-opacity:0.0; 
stroke:#840000; stroke-width:60; stroke-opacity:1; 
stroke-linecap:round; stroke-linejoin:round;">
<text x="33460" y="78600"
textLength="550" font-size="680" lengthAdjust="spacingAndGlyphs"
text-anchor="start" opacity="0">2</text>
<path d="M33580 78110
L33610 78090
L33660 78070
L33780 78070
L33830 78090
L33850 78110
L33870 78160
L33870 78210
L33850 78280
L33560 78580
L33870 78580
" />
</g>
<g style="fill:#840000; fill-opacity:0.0; 
stroke:#840000; stroke-width:100; stroke-opacity:1; 
stroke-linecap:round; stroke-linejoin:round;">
</g>
<g style="fill:#840000; fill-opacity:0.0; 
stroke:#840000; stroke-width:60; stroke-opacity:1; 
stroke-linecap:round; stroke-linejoin:round;">
<text x="53150" y="78600"
textLength="550" font-size="680" lengthAdjust="spacingAndGlyphs"
text-anchor="start" opacity="0">3</text>
<path d="M53250 78070
L53560 78070
L53390 78260
L53470 78260
L53520 78280
L53540 78310
L53560 78360
L53560 78480
L53540 78530
L53520 78550
L53470 78580
L53320 78580
L53270 78550
L53250 78530
" />
</g>
<g style="fill:#840000; fill-opacity:0.0; 
stroke:#840000; stroke-width:100; stroke-opacity:1; 
stroke-linecap:round; stroke-linejoin:round;">
</g>
<g style="fill:#840000; fill-opacity:0.0; 
stroke:#840000; stroke-width:60; stroke-opacity:1; 
stroke-linecap:round; stroke-linejoin:round;">
<text x="72830" y="78600"
textLength="550" font-size="680" lengthAdjust="spacingAndGlyphs"
text-anchor="start" opacity="0">4</text>
<path d="M73200 78240
L73200 78580
" />
<path d="M73070 78040
L72950 78410
L73270 78410
" />
</g>
<g style="fill:#840000; fill-opacity:0.0; 
stroke:#840000; stroke-width:100; stroke-opacity:1; 
stroke-linecap:round; stroke-linejoin:round;">
</g>
<g style="fill:#840000; fill-opacity:0.0; 
stroke:#840000; stroke-width:60; stroke-opacity:1; 
stroke-linecap:round; stroke-linejoin:round;">
<text x="92520" y="78600"
textLength="550" font-size="680" lengthAdjust="spacingAndGlyphs"
text-anchor="start" opacity="0">5</text>
<path d="M92910 78070
L92670 78070
L92640 78310
L92670 78280
L92720 78260
L92840 78260
L92890 78280
L92910 78310
L92930 78360
L92930 78480
L92910 78530
L92890 78550
L92840 78580
L92720 78580
L92670 78550
L92640 78530
" />
</g>
<g style="fill:#840000; fill-opacity:0.0; 
stroke:#840000; stroke-width:100; stroke-opacity:1; 
stroke-linecap:round; stroke-linejoin:round;">
</g>
<g style="fill:#840000; fill-opacity:0.0; 
stroke:#840000; stroke-width:60; stroke-opacity:1; 
stroke-linecap:round; stroke-linejoin:round;">
<text x="112200" y="78600"
textLength="550" font-size="680" lengthAdjust="spacingAndGlyphs"
text-anchor="start" opacity="0">6</text>
<path d="M112570 78070
L112470 78070
L112420 78090
L112400 78110
L112350 78190
L112320 78280
L112320 78480
L112350 78530
L112370 78550
L112420 78580
L112520 78580
L112570 78550
L112590 78530
L112610 78480
L112610 78360
L112590 78310
L112570 78280
L112520 78260
L112420 78260
L112370 78280
L112350 78310
L112320 78360
" />
</g>
<g style="fill:#840000; fill-opacity:0.0; 
stroke:#840000; stroke-width:100; stroke-opacity:1; 
stroke-linecap:round; stroke-linejoin:round;">
</g>
<g style="fill:#840000; fill-opacity:0.0; 
stroke:#840000; stroke-width:60; stroke-opacity:1; 
stroke-linecap:round; stroke-linejoin:round;">
<path d="M3940 23620
L4720 23620
" />
</g>
<g style="fill:#840000; fill-opacity:0.0; 
stroke:#840000; stroke-width:100; stroke-opacity:1; 
stroke-linecap:round; stroke-linejoin:round;">
</g>
<g style="fill:#840000; fill-opacity:0.0; 
stroke:#840000; stroke-width:60; stroke-opacity:1; 
stroke-linecap:round; stroke-linejoin:round;">
<path d="M3940 43310
L4720 43310
" />
</g>
<g style="fill:#840000; fill-opacity:0.0; 
stroke:#840000; stroke-width:100; stroke-opacity:1; 
stroke-linecap:round; stroke-linejoin:round;">
</g>
<g style="fill:#840000; fill-opacity:0.0; 
stroke:#840000; stroke-width:60; stroke-opacity:1; 
stroke-linecap:round; stroke-linejoin:round;">
<path d="M3940 62990
L4720 62990
" />
</g>
<g style="fill:#840000; fill-opacity:0.0; 
stroke:#840000; stroke-width:100; stroke-opacity:1; 
stroke-linecap:round; stroke-linejoin:round;">
</g>
<g style="fill:#840000; fill-opacity:0.0; 
stroke:#840000; stroke-width:60; stroke-opacity:1; 
stroke-linecap:round; stroke-linejoin:round;">
<text x="4330" y="14030"
textLength="500" font-size="680" lengthAdjust="spacingAndGlyphs"
text-anchor="middle" opacity="0">A</text>
<path d="M4200 13860
L4450 13860
" />
<path d="M4160 14010
L4330 13500
L4500 14010
" />
</g>
<g style="fill:#840000; fill-opacity:0.0; 
stroke:#840000; stroke-width:100; stroke-opacity:1; 
stroke-linecap:round; stroke-linejoin:round;">
</g>
<g style="fill:#840000; fill-opacity:0.0; 
stroke:#840000; stroke-width:60; stroke-opacity:1; 
stroke-linecap:round; stroke-linejoin:round;">
<text x="4330" y="33710"
textLength="570" font-size="680" lengthAdjust="spacingAndGlyphs"
text-anchor="middle" opacity="0">B</text>
<path d="M4360 33420
L4430 33440
L4460 33470
L4480 33520
L4480 33590
L4460 33640
L4430 33660
L4390 33690
L4190 33690
L4190 33180
L4360 33180
L4410 33200
L4430 33220
L4460 33270
L4460 33320
L4430 33370
L4410 33390
L4360 33420
L4190 33420
" />
</g>
<g style="fill:#840000; fill-opacity:0.0; 
stroke:#840000; stroke-width:100; stroke-opacity:1; 
stroke-linecap:round; stroke-linejoin:round;">
</g>
<g style="fill:#840000; fill-opacity:0.0; 
stroke:#840000; stroke-width:60; stroke-opacity:1; 
stroke-linecap:round; stroke-linejoin:round;">
<text x="4330" y="53400"
textLength="570" font-size="680" lengthAdjust="spacingAndGlyphs"
text-anchor="middle" opacity="0">C</text>
<path d="M4480 53330
L4460 53350
L4390 53380
L4340 53380
L4260 53350
L4220 53300
L4190 53250
L4170 53160
L4170 53080
L4190 52990
L4220 52940
L4260 52890
L4340 52870
L4390 52870
L4460 52890
L4480 52910
" />
</g>
<g style="fill:#840000; fill-opacity:0.0; 
stroke:#840000; stroke-width:100; stroke-opacity:1; 
stroke-linecap:round; stroke-linejoin:round;">
</g>
<g style="fill:#840000; fill-opacity:0.0; 
stroke:#840000; stroke-width:60; stroke-opacity:1; 
stroke-linecap:round; stroke-linejoin:round;">
<text x="4330" y="73080"
textLength="570" font-size="680" lengthAdjust="spacingAndGlyphs"
text-anchor="middle" opacity="0">D</text>
<path d="M4190 73060
L4190 72550
L4310 72550
L4390 72570
L4430 72620
L4460 72670
L4480 72760
L4480 72840
L4460 72930
L4430 72980
L4390 73030
L4310 73060
L4190 73060
" />
</g>
<g style="fill:#840000; fill-opacity:0.0; 
stroke:#840000; stroke-width:100; stroke-opacity:1; 
stroke-linecap:round; stroke-linejoin:round;">
</g>
<g style="fill:#840000; fill-opacity:0.0; 
stroke:#840000; stroke-width:60; stroke-opacity:1; 
stroke-linecap:round; stroke-linejoin:round;">
<path d="M112990 23620
L112210 23620
" />
</g>
<g style="fill:#840000; fill-opacity:0.0; 
stroke:#840000; stroke-width:100; stroke-opacity:1; 
stroke-linecap:round; stroke-linejoin:round;">
</g>
<g style="fill:#840000; fill-opacity:0.0; 
stroke:#840000; stroke-width:60; stroke-opacity:1; 
stroke-linecap:round; stroke-linejoin:round;">
<path d="M112990 43310
L112210 43310
" />
</g>
<g style="fill:#840000; fill-opacity:0.0; 
stroke:#840000; stroke-width:100; stroke-opacity:1; 
stroke-linecap:round; stroke-linejoin:round;">
</g>
<g style="fill:#840000; fill-opacity:0.0; 
stroke:#840000; stroke-width:60; stroke-opacity:1; 
stroke-linecap:round; stroke-linejoin:round;">
<path d="M112990 62990
L112210 62990
" />
</g>
<g style="fill:#840000; fill-opacity:0.0; 
stroke:#840000; stroke-width:100; stroke-opacity:1; 
stroke-linecap:round; stroke-linejoin:round;">
</g>
<g style="fill:#840000; fill-opacity:0.0; 
stroke:#840000; stroke-width:60; stroke-opacity:1; 
stroke-linecap:round; stroke-linejoin:round;">
<text x="112600" y="14030"
textLength="500" font-size="680" lengthAdjust="spacingAndGlyphs"
text-anchor="middle" opacity="0">A</text>
<path d="M112470 13860
L112720 13860
" />
<path d="M112430 14010
L112600 13500
L112770 14010
" />
</g>
<g style="fill:#840000; fill-opacity:0.0; 
stroke:#840000; stroke-width:100; stroke-opacity:1; 
stroke-linecap:round; stroke-linejoin:round;">
</g>
<g style="fill:#840000; fill-opacity:0.0; 
stroke:#840000; stroke-width:60; stroke-opacity:1; 
stroke-linecap:round; stroke-linejoin:round;">
<text x="112600" y="33710"
textLength="570" font-size="680" lengthAdjust="spacingAndGlyphs"
text-anchor="middle" opacity="0">B</text>
<path d="M112630 33420
L112700 33440
L112730 33470
L112750 33520
L112750 33590
L112730 33640
L112700 33660
L112660 33690
L112460 33690
L112460 33180
L112630 33180
L112680 33200
L112700 33220
L112730 33270
L112730 33320
L112700 33370
L112680 33390
L112630 33420
L112460 33420
" />
</g>
<g style="fill:#840000; fill-opacity:0.0; 
stroke:#840000; stroke-width:100; stroke-opacity:1; 
stroke-linecap:round; stroke-linejoin:round;">
</g>
<g style="fill:#840000; fill-opacity:0.0; 
stroke:#840000; stroke-width:60; stroke-opacity:1; 
stroke-linecap:round; stroke-linejoin:round;">
<text x="112600" y="53400"
textLength="570" font-size="680" lengthAdjust="spacingAndGlyphs"
text-anchor="middle" opacity="0">C</text>
<path d="M112750 53330
L112730 53350
L112660 53380
L112610 53380
L112530 53350
L112490 53300
L112460 53250
L112440 53160
L112440 53080
L112460 52990
L112490 52940
L112530 52890
L112610 52870
L112660 52870
L112730 52890
L112750 52910
" />
</g>
<g style="fill:#840000; fill-opacity:0.0; 
stroke:#840000; stroke-width:100; stroke-opacity:1; 
stroke-linecap:round; stroke-linejoin:round;">
</g>
<g style="fill:#840000; fill-opacity:0.0; 
stroke:#840000; stroke-width:60; stroke-opacity:1; 
stroke-linecap:round; stroke-linejoin:round;">
<text x="112600" y="73080"
textLength="570" font-size="680" lengthAdjust="spacingAndGlyphs"
text-anchor="middle" opacity="0">D</text>
<path d="M112460 73060
L112460 72550
L112580 72550
L112660 72570
L112700 72620
L112730 72670
L112750 72760
L112750 72840
L112730 72930
L112700 72980
L112660 73030
L112580 73060
L112460 73060
" />
</g>
<g style="fill:#840000; fill-opacity:0.0; 
stroke:#840000; stroke-width:100; stroke-opacity:1; 
stroke-linecap:round; stroke-linejoin:round;">
</g>
<g style="fill:#840000; fill-opacity:0.0; 
stroke:#840000; stroke-width:60; stroke-opacity:1; 
stroke-linecap:round; stroke-linejoin:round;">
<text x="78740" y="76320"
textLength="2760" font-size="780" lengthAdjust="spacingAndGlyphs"
text-anchor="start" opacity="0">Date: </text>
<path d="M78910 76290
L78910 75700
L79050 75700
L79130 75730
L79190 75790
L79210 75840
L79240 75950
L79240 76040
L79210 76150
L79190 76210
L79130 76260
L79050 76290
L78910 76290
" />
<path d="M79750 76290
L79750 75980
L79720 75930
L79660 75900
L79550 75900
L79500 75930
" />
<path d="M79750 76260
L79690 76290
L79550 76290
L79500 76260
L79470 76210
L79470 76150
L79500 76100
L79550 76070
L79690 76070
L79750 76040
" />
<path d="M79950 75900
L80170 75900
" />
<path d="M80030 75700
L80030 76210
L80060 76260
L80110 76290
L80170 76290
" />
<path d="M80590 76260
L80540 76290
L80420 76290
L80370 76260
L80340 76210
L80340 75980
L80370 75930
L80420 75900
L80540 75900
L80590 75930
L80620 75980
L80620 76040
L80340 76100
" />
<path d="M80870 76240
L80900 76260
L80870 76290
L80840 76260
L80870 76240
L80870 76290
" />
<path d="M80870 75930
L80900 75950
L80870 75980
L80840 75950
L80870 75930
L80870 75980
" />
</g>
<g style="fill:#840000; fill-opacity:0.0; 
stroke:#840000; stroke-width:100; stroke-opacity:1; 
stroke-linecap:round; stroke-linejoin:round;">
</g>
<g style="fill:#840000; fill-opacity:0.0; 
stroke:#840000; stroke-width:60; stroke-opacity:1; 
stroke-linecap:round; stroke-linejoin:round;">
<path d="M69690 76580
L112210 76580
" />
</g>
<g style="fill:#840000; fill-opacity:0.0; 
stroke:#840000; stroke-width:100; stroke-opacity:1; 
stroke-linecap:round; stroke-linejoin:round;">
</g>
<g style="fill:#840000; fill-opacity:0.0; 
stroke:#840000; stroke-width:60; stroke-opacity:1; 
stroke-linecap:round; stroke-linejoin:round;">
<text x="70080" y="77420"
textLength="23240" font-size="780" lengthAdjust="spacingAndGlyphs"
text-anchor="start" opacity="0">KiCad E.D.A.  kicad 5.1.6-c6e7f7d~87~ubuntu18.04.1</text>
<path d="M70250 77390
L70250 76800
" />
<path d="M70580 77390
L70330 77050
" />
<path d="M70580 76800
L70250 77140
" />
<path d="M70840 77390
L70840 77000
" />
<path d="M70840 76800
L70810 76830
L70840 76860
L70860 76830
L70840 76800
L70840 76860
" />
<path d="M71450 77340
L71430 77360
L71340 77390
L71290 77390
L71200 77360
L71140 77310
L71120 77250
L71090 77140
L71090 77050
L71120 76940
L71140 76890
L71200 76830
L71290 76800
L71340 76800
L71430 76830
L71450 76860
" />
<path d="M71960 77390
L71960 77080
L71930 77030
L71880 77000
L71760 77000
L71710 77030
" />
<path d="M71960 77360
L71900 77390
L71760 77390
L71710 77360
L71680 77310
L71680 77250
L71710 77200
L71760 77170
L71900 77170
L71960 77140
" />
<path d="M72490 77390
L72490 76800
" />
<path d="M72490 77360
L72440 77390
L72320 77390
L72270 77360
L72240 77340
L72210 77280
L72210 77110
L72240 77050
L72270 77030
L72320 77000
L72440 77000
L72490 77030
" />
<path d="M73220 77080
L73420 77080
" />
<path d="M73500 77390
L73220 77390
L73220 76800
L73500 76800
" />
<path d="M73760 77340
L73790 77360
L73760 77390
L73730 77360
L73760 77340
L73760 77390
" />
<path d="M74040 77390
L74040 76800
L74180 76800
L74260 76830
L74320 76890
L74350 76940
L74380 77050
L74380 77140
L74350 77250
L74320 77310
L74260 77360
L74180 77390
L74040 77390
" />
<path d="M74630 77340
L74660 77360
L74630 77390
L74600 77360
L74630 77340
L74630 77390
" />
<path d="M74880 77220
L75160 77220
" />
<path d="M74830 77390
L75020 76800
L75220 77390
" />
<path d="M75420 77340
L75440 77360
L75420 77390
L75390 77360
L75420 77340
L75420 77390
" />
<path d="M76600 77390
L76600 76800
" />
<path d="M76650 77170
L76820 77390
" />
<path d="M76820 77000
L76600 77220
" />
<path d="M77070 77390
L77070 77000
" />
<path d="M77070 76800
L77040 76830
L77070 76860
L77100 76830
L77070 76800
L77070 76860
" />
<path d="M77610 77360
L77550 77390
L77440 77390
L77380 77360
L77350 77340
L77330 77280
L77330 77110
L77350 77050
L77380 77030
L77440 77000
L77550 77000
L77610 77030
" />
<path d="M78110 77390
L78110 77080
L78080 77030
L78030 77000
L77920 77000
L77860 77030
" />
<path d="M78110 77360
L78060 77390
L77920 77390
L77860 77360
L77830 77310
L77830 77250
L77860 77200
L77920 77170
L78060 77170
L78110 77140
" />
<path d="M78650 77390
L78650 76800
" />
<path d="M78650 77360
L78590 77390
L78480 77390
L78420 77360
L78390 77340
L78370 77280
L78370 77110
L78390 77050
L78420 77030
L78480 77000
L78590 77000
L78650 77030
" />
<path d="M79660 76800
L79380 76800
L79350 77080
L79380 77050
L79430 77030
L79570 77030
L79630 77050
L79660 77080
L79690 77140
L79690 77280
L79660 77340
L79630 77360
L79570 77390
L79430 77390
L79380 77360
L79350 77340
" />
<path d="M79940 77340
L79970 77360
L79940 77390
L79910 77360
L79940 77340
L79940 77390
" />
<path d="M80530 77390
L80190 77390
" />
<path d="M80360 77390
L80360 76800
L80300 76890
L80250 76940
L80190 76970
" />
<path d="M80780 77340
L80810 77360
L80780 77390
L80750 77360
L80780 77340
L80780 77390
" />
<path d="M81320 76800
L81200 76800
L81150 76830
L81120 76860
L81060 76940
L81030 77050
L81030 77280
L81060 77340
L81090 77360
L81150 77390
L81260 77390
L81320 77360
L81340 77340
L81370 77280
L81370 77140
L81340 77080
L81320 77050
L81260 77030
L81150 77030
L81090 77050
L81060 77080
L81030 77140
" />
<path d="M81620 77170
L82070 77170
" />
<path d="M82610 77360
L82550 77390
L82440 77390
L82380 77360
L82350 77340
L82330 77280
L82330 77110
L82350 77050
L82380 77030
L82440 77000
L82550 77000
L82610 77030
" />
<path d="M83110 76800
L83000 76800
L82940 76830
L82920 76860
L82860 76940
L82830 77050
L82830 77280
L82860 77340
L82890 77360
L82940 77390
L83060 77390
L83110 77360
L83140 77340
L83170 77280
L83170 77140
L83140 77080
L83110 77050
L83060 77030
L82940 77030
L82890 77050
L82860 77080
L82830 77140
" />
<path d="M83650 77360
L83590 77390
L83480 77390
L83420 77360
L83390 77310
L83390 77080
L83420 77030
L83480 77000
L83590 77000
L83650 77030
L83680 77080
L83680 77140
L83390 77200
" />
<path d="M83870 76800
L84270 76800
L84010 77390
" />
<path d="M84410 77000
L84630 77000
" />
<path d="M84490 77390
L84490 76890
L84520 76830
L84570 76800
L84630 76800
" />
<path d="M84770 76800
L85160 76800
L84910 77390
" />
<path d="M85640 77390
L85640 76800
" />
<path d="M85640 77360
L85590 77390
L85470 77390
L85420 77360
L85390 77340
L85360 77280
L85360 77110
L85390 77050
L85420 77030
L85470 77000
L85590 77000
L85640 77030
" />
<path d="M85780 76640
L86340 76640
" />
<path d="M86010 77050
L85950 77030
L85920 77000
L85890 76940
L85890 76910
L85920 76860
L85950 76830
L86010 76800
L86120 76800
L86180 76830
L86200 76860
L86230 76910
L86230 76940
L86200 77000
L86180 77030
L86120 77050
L86010 77050
L85950 77080
L85920 77110
L85890 77170
L85890 77280
L85920 77340
L85950 77360
L86010 77390
L86120 77390
L86180 77360
L86200 77340
L86230 77280
L86230 77170
L86200 77110
L86180 77080
L86120 77050
" />
<path d="M86340 76640
L86910 76640
" />
<path d="M86430 76800
L86820 76800
L86570 77390
" />
<path d="M87300 77000
L87300 77390
" />
<path d="M87050 77000
L87050 77310
L87070 77360
L87130 77390
L87220 77390
L87270 77360
L87300 77340
" />
<path d="M87580 77390
L87580 76800
" />
<path d="M87580 77030
L87640 77000
L87750 77000
L87810 77030
L87830 77050
L87860 77110
L87860 77280
L87830 77340
L87810 77360
L87750 77390
L87640 77390
L87580 77360
" />
<path d="M88370 77000
L88370 77390
" />
<path d="M88110 77000
L88110 77310
L88140 77360
L88200 77390
L88280 77390
L88340 77360
L88370 77340
" />
<path d="M88650 77000
L88650 77390
" />
<path d="M88650 77050
L88680 77030
L88730 77000
L88820 77000
L88870 77030
L88900 77080
L88900 77390
" />
<path d="M89100 77000
L89320 77000
" />
<path d="M89180 76800
L89180 77310
L89210 77360
L89270 77390
L89320 77390
" />
<path d="M89770 77000
L89770 77390
" />
<path d="M89520 77000
L89520 77310
L89550 77360
L89600 77390
L89690 77390
L89740 77360
L89770 77340
" />
<path d="M90360 77390
L90020 77390
" />
<path d="M90190 77390
L90190 76800
L90140 76890
L90080 76940
L90020 76970
" />
<path d="M90700 77050
L90640 77030
L90610 77000
L90590 76940
L90590 76910
L90610 76860
L90640 76830
L90700 76800
L90810 76800
L90870 76830
L90900 76860
L90920 76910
L90920 76940
L90900 77000
L90870 77030
L90810 77050
L90700 77050
L90640 77080
L90610 77110
L90590 77170
L90590 77280
L90610 77340
L90640 77360
L90700 77390
L90810 77390
L90870 77360
L90900 77340
L90920 77280
L90920 77170
L90900 77110
L90870 77080
L90810 77050
" />
<path d="M91180 77340
L91200 77360
L91180 77390
L91150 77360
L91180 77340
L91180 77390
" />
<path d="M91570 76800
L91630 76800
L91680 76830
L91710 76860
L91740 76910
L91770 77030
L91770 77170
L91740 77280
L91710 77340
L91680 77360
L91630 77390
L91570 77390
L91510 77360
L91490 77340
L91460 77280
L91430 77170
L91430 77030
L91460 76910
L91490 76860
L91510 76830
L91570 76800
" />
<path d="M92270 77000
L92270 77390
" />
<path d="M92130 76770
L91990 77200
L92360 77200
" />
<path d="M92580 77340
L92610 77360
L92580 77390
L92550 77360
L92580 77340
L92580 77390
" />
<path d="M93170 77390
L92830 77390
" />
<path d="M93000 77390
L93000 76800
L92950 76890
L92890 76940
L92830 76970
" />
</g>
<g style="fill:#840000; fill-opacity:0.0; 
stroke:#840000; stroke-width:100; stroke-opacity:1; 
stroke-linecap:round; stroke-linejoin:round;">
</g>
<g style="fill:#840000; fill-opacity:0.0; 
stroke:#840000; stroke-width:60; stroke-opacity:1; 
stroke-linecap:round; stroke-linejoin:round;">
<path d="M69690 75400
L112210 75400
" />
</g>
<g style="fill:#840000; fill-opacity:0.0; 
stroke:#840000; stroke-width:100; stroke-opacity:1; 
stroke-linecap:round; stroke-linejoin:round;">
</g>
<g style="fill:#840000; fill-opacity:0.0; 
stroke:#840000; stroke-width:120; stroke-opacity:1; 
stroke-linecap:round; stroke-linejoin:round;">
<text x="103540" y="76320"
textLength="2840" font-size="780" lengthAdjust="spacingAndGlyphs"
text-anchor="start" opacity="0">Rev: A</text>
<path d="M104090 76290
L103890 76010
" />
<path d="M103750 76290
L103750 75700
L103980 75700
L104030 75730
L104060 75760
L104090 75810
L104090 75900
L104060 75950
L104030 75980
L103980 76010
L103750 76010
" />
<path d="M104570 76260
L104510 76290
L104400 76290
L104340 76260
L104320 76210
L104320 75980
L104340 75930
L104400 75900
L104510 75900
L104570 75930
L104600 75980
L104600 76040
L104320 76100
" />
<path d="M104790 75900
L104930 76290
L105070 75900
" />
<path d="M105300 76240
L105330 76260
L105300 76290
L105270 76260
L105300 76240
L105300 76290
" />
<path d="M105300 75930
L105330 75950
L105300 75980
L105270 75950
L105300 75930
L105300 75980
" />
<path d="M106000 76120
L106280 76120
" />
<path d="M105940 76290
L106140 75700
L106340 76290
" />
</g>
<g style="fill:#840000; fill-opacity:0.0; 
stroke:#840000; stroke-width:100; stroke-opacity:1; 
stroke-linecap:round; stroke-linejoin:round;">
</g>
<g style="fill:#840000; fill-opacity:0.0; 
stroke:#840000; stroke-width:60; stroke-opacity:1; 
stroke-linecap:round; stroke-linejoin:round;">
<text x="70080" y="76320"
textLength="3780" font-size="780" lengthAdjust="spacingAndGlyphs"
text-anchor="start" opacity="0">Size: A4</text>
<path d="M70220 76260
L70300 76290
L70440 76290
L70500 76260
L70530 76240
L70550 76180
L70550 76120
L70530 76070
L70500 76040
L70440 76010
L70330 75980
L70270 75950
L70250 75930
L70220 75870
L70220 75810
L70250 75760
L70270 75730
L70330 75700
L70470 75700
L70550 75730
" />
<path d="M70810 76290
L70810 75900
" />
<path d="M70810 75700
L70780 75730
L70810 75760
L70840 75730
L70810 75700
L70810 75760
" />
<path d="M71030 75900
L71340 75900
L71030 76290
L71340 76290
" />
<path d="M71790 76260
L71730 76290
L71620 76290
L71570 76260
L71540 76210
L71540 75980
L71570 75930
L71620 75900
L71730 75900
L71790 75930
L71820 75980
L71820 76040
L71540 76100
" />
<path d="M72070 76240
L72100 76260
L72070 76290
L72040 76260
L72070 76240
L72070 76290
" />
<path d="M72070 75930
L72100 75950
L72070 75980
L72040 75950
L72070 75930
L72070 75980
" />
<path d="M72770 76120
L73060 76120
" />
<path d="M72720 76290
L72910 75700
L73110 76290
" />
<path d="M73560 75900
L73560 76290
" />
<path d="M73420 75670
L73280 76100
L73650 76100
" />
</g>
<g style="fill:#840000; fill-opacity:0.0; 
stroke:#840000; stroke-width:100; stroke-opacity:1; 
stroke-linecap:round; stroke-linejoin:round;">
</g>
<g style="fill:#840000; fill-opacity:0.0; 
stroke:#840000; stroke-width:60; stroke-opacity:1; 
stroke-linecap:round; stroke-linejoin:round;">
<text x="103540" y="77420"
textLength="3910" font-size="780" lengthAdjust="spacingAndGlyphs"
text-anchor="start" opacity="0">Id: 9/15</text>
<path d="M103710 77390
L103710 76800
" />
<path d="M104240 77390
L104240 76800
" />
<path d="M104240 77360
L104180 77390
L104070 77390
L104010 77360
L103990 77340
L103960 77280
L103960 77110
L103990 77050
L104010 77030
L104070 77000
L104180 77000
L104240 77030
" />
<path d="M104520 77340
L104550 77360
L104520 77390
L104490 77360
L104520 77340
L104520 77390
" />
<path d="M104520 77030
L104550 77050
L104520 77080
L104490 77050
L104520 77030
L104520 77080
" />
<path d="M105280 77390
L105390 77390
L105450 77360
L105480 77340
L105530 77250
L105560 77140
L105560 76910
L105530 76860
L105500 76830
L105450 76800
L105340 76800
L105280 76830
L105250 76860
L105220 76910
L105220 77050
L105250 77110
L105280 77140
L105340 77170
L105450 77170
L105500 77140
L105530 77110
L105560 77050
" />
<path d="M106230 76770
L105730 77530
" />
<path d="M106740 77390
L106400 77390
" />
<path d="M106570 77390
L106570 76800
L106520 76890
L106460 76940
L106400 76970
" />
<path d="M107270 76800
L106990 76800
L106960 77080
L106990 77050
L107050 77030
L107190 77030
L107250 77050
L107270 77080
L107300 77140
L107300 77280
L107270 77340
L107250 77360
L107190 77390
L107050 77390
L106990 77360
L106960 77340
" />
</g>
<g style="fill:#840000; fill-opacity:0.0; 
stroke:#840000; stroke-width:100; stroke-opacity:1; 
stroke-linecap:round; stroke-linejoin:round;">
</g>
<g style="fill:#840000; fill-opacity:0.0; 
stroke:#840000; stroke-width:60; stroke-opacity:1; 
stroke-linecap:round; stroke-linejoin:round;">
<path d="M69690 73820
L112210 73820
" />
</g>
<g style="fill:#840000; fill-opacity:0.0; 
stroke:#840000; stroke-width:100; stroke-opacity:1; 
stroke-linecap:round; stroke-linejoin:round;">
</g>
<g style="fill:#840000; fill-opacity:0.0; 
stroke:#840000; stroke-width:160; stroke-opacity:1; 
stroke-linecap:round; stroke-linejoin:round;">
<text x="70080" y="74920"
textLength="3710" font-size="1050" lengthAdjust="spacingAndGlyphs"
text-anchor="start" opacity="0">Title: </text>
<path d="M70360 74090
L70810 74090
" />
<path d="M70480 74880
L70580 74090
" />
<path d="M70970 74880
L71040 74360
" />
<path d="M71070 74090
L71030 74130
L71060 74170
L71110 74130
L71070 74090
L71060 74170
" />
<path d="M71300 74360
L71600 74360
" />
<path d="M71450 74090
L71360 74770
L71390 74840
L71460 74880
L71540 74880
" />
<path d="M71910 74880
L71840 74840
L71820 74770
L71900 74090
" />
<path d="M72520 74840
L72440 74880
L72290 74880
L72220 74840
L72190 74770
L72230 74470
L72280 74390
L72360 74360
L72510 74360
L72580 74390
L72610 74470
L72600 74540
L72210 74620
" />
<path d="M72900 74810
L72930 74840
L72890 74880
L72860 74840
L72900 74810
L72890 74880
" />
<path d="M72950 74390
L72990 74430
L72940 74470
L72910 74430
L72950 74390
L72940 74470
" />
</g>
<g style="fill:#840000; fill-opacity:0.0; 
stroke:#840000; stroke-width:100; stroke-opacity:1; 
stroke-linecap:round; stroke-linejoin:round;">
</g>
<g style="fill:#840000; fill-opacity:0.0; 
stroke:#840000; stroke-width:60; stroke-opacity:1; 
stroke-linecap:round; stroke-linejoin:round;">
<text x="70080" y="73400"
textLength="11110" font-size="780" lengthAdjust="spacingAndGlyphs"
text-anchor="start" opacity="0">File: InputBufferMCU.sch</text>
<path d="M70440 73060
L70250 73060
" />
<path d="M70250 73370
L70250 72780
L70530 72780
" />
<path d="M70750 73370
L70750 72980
" />
<path d="M70750 72780
L70720 72810
L70750 72840
L70780 72810
L70750 72780
L70750 72840
" />
<path d="M71120 73370
L71060 73340
L71030 73290
L71030 72780
" />
<path d="M71570 73340
L71510 73370
L71400 73370
L71340 73340
L71310 73290
L71310 73060
L71340 73010
L71400 72980
L71510 72980
L71570 73010
L71590 73060
L71590 73120
L71310 73180
" />
<path d="M71850 73320
L71880 73340
L71850 73370
L71820 73340
L71850 73320
L71850 73370
" />
<path d="M71850 73010
L71880 73030
L71850 73060
L71820 73030
L71850 73010
L71850 73060
" />
<path d="M72580 73370
L72580 72780
" />
<path d="M72860 72980
L72860 73370
" />
<path d="M72860 73030
L72890 73010
L72940 72980
L73030 72980
L73080 73010
L73110 73060
L73110 73370
" />
<path d="M73390 72980
L73390 73570
" />
<path d="M73390 73010
L73450 72980
L73560 72980
L73620 73010
L73650 73030
L73670 73090
L73670 73260
L73650 73320
L73620 73340
L73560 73370
L73450 73370
L73390 73340
" />
<path d="M74180 72980
L74180 73370
" />
<path d="M73930 72980
L73930 73290
L73950 73340
L74010 73370
L74090 73370
L74150 73340
L74180 73320
" />
<path d="M74380 72980
L74600 72980
" />
<path d="M74460 72780
L74460 73290
L74490 73340
L74540 73370
L74600 73370
" />
<path d="M74990 73060
L75080 73090
L75110 73120
L75130 73180
L75130 73260
L75110 73320
L75080 73340
L75020 73370
L74800 73370
L74800 72780
L74990 72780
L75050 72810
L75080 72840
L75110 72890
L75110 72950
L75080 73010
L75050 73030
L74990 73060
L74800 73060
" />
<path d="M75640 72980
L75640 73370
" />
<path d="M75390 72980
L75390 73290
L75420 73340
L75470 73370
L75560 73370
L75610 73340
L75640 73320
" />
<path d="M75840 72980
L76060 72980
" />
<path d="M75920 73370
L75920 72870
L75950 72810
L76010 72780
L76060 72780
" />
<path d="M76170 72980
L76400 72980
" />
<path d="M76260 73370
L76260 72870
L76290 72810
L76340 72780
L76400 72780
" />
<path d="M76820 73340
L76760 73370
L76650 73370
L76600 73340
L76570 73290
L76570 73060
L76600 73010
L76650 72980
L76760 72980
L76820 73010
L76850 73060
L76850 73120
L76570 73180
" />
<path d="M77100 73370
L77100 72980
" />
<path d="M77100 73090
L77130 73030
L77160 73010
L77210 72980
L77270 72980
" />
<path d="M77470 73370
L77470 72780
L77660 73200
L77860 72780
L77860 73370
" />
<path d="M78480 73320
L78450 73340
L78370 73370
L78310 73370
L78220 73340
L78170 73290
L78140 73230
L78110 73120
L78110 73030
L78140 72920
L78170 72870
L78220 72810
L78310 72780
L78370 72780
L78450 72810
L78480 72840
" />
<path d="M78730 72780
L78730 73260
L78760 73320
L78790 73340
L78840 73370
L78960 73370
L79010 73340
L79040 73320
L79070 73260
L79070 72780
" />
<path d="M79350 73320
L79380 73340
L79350 73370
L79320 73340
L79350 73320
L79350 73370
" />
<path d="M79600 73340
L79660 73370
L79770 73370
L79830 73340
L79850 73290
L79850 73260
L79830 73200
L79770 73180
L79690 73180
L79630 73150
L79600 73090
L79600 73060
L79630 73010
L79690 72980
L79770 72980
L79830 73010
" />
<path d="M80360 73340
L80300 73370
L80190 73370
L80140 73340
L80110 73320
L80080 73260
L80080 73090
L80110 73030
L80140 73010
L80190 72980
L80300 72980
L80360 73010
" />
<path d="M80610 73370
L80610 72780
" />
<path d="M80870 73370
L80870 73060
L80840 73010
L80780 72980
L80700 72980
L80640 73010
L80610 73030
" />
</g>
<g style="fill:#840000; fill-opacity:0.0; 
stroke:#840000; stroke-width:100; stroke-opacity:1; 
stroke-linecap:round; stroke-linejoin:round;">
</g>
<g style="fill:#840000; fill-opacity:0.0; 
stroke:#840000; stroke-width:60; stroke-opacity:1; 
stroke-linecap:round; stroke-linejoin:round;">
<path d="M69690 71460
L112210 71460
" />
</g>
<g style="fill:#840000; fill-opacity:0.0; 
stroke:#840000; stroke-width:100; stroke-opacity:1; 
stroke-linecap:round; stroke-linejoin:round;">
</g>
<g style="fill:#840000; fill-opacity:0.0; 
stroke:#840000; stroke-width:60; stroke-opacity:1; 
stroke-linecap:round; stroke-linejoin:round;">
<text x="70080" y="72340"
textLength="20090" font-size="780" lengthAdjust="spacingAndGlyphs"
text-anchor="start" opacity="0">Sheet: /PeakDetectorMCU/InputBufferMCU3/</text>
<path d="M70220 72280
L70300 72310
L70440 72310
L70500 72280
L70530 72260
L70550 72200
L70550 72140
L70530 72090
L70500 72060
L70440 72030
L70330 72000
L70270 71970
L70250 71950
L70220 71890
L70220 71830
L70250 71780
L70270 71750
L70330 71720
L70470 71720
L70550 71750
" />
<path d="M70810 72310
L70810 71720
" />
<path d="M71060 72310
L71060 72000
L71030 71950
L70980 71920
L70890 71920
L70840 71950
L70810 71970
" />
<path d="M71570 72280
L71510 72310
L71400 72310
L71340 72280
L71310 72230
L71310 72000
L71340 71950
L71400 71920
L71510 71920
L71570 71950
L71590 72000
L71590 72060
L71310 72120
" />
<path d="M72070 72280
L72020 72310
L71900 72310
L71850 72280
L71820 72230
L71820 72000
L71850 71950
L71900 71920
L72020 71920
L72070 71950
L72100 72000
L72100 72060
L71820 72120
" />
<path d="M72270 71920
L72490 71920
" />
<path d="M72350 71720
L72350 72230
L72380 72280
L72440 72310
L72490 72310
" />
<path d="M72690 72260
L72720 72280
L72690 72310
L72660 72280
L72690 72260
L72690 72310
" />
<path d="M72690 71950
L72720 71970
L72690 72000
L72660 71970
L72690 71950
L72690 72000
" />
<path d="M73840 71690
L73340 72450
" />
<path d="M74040 72310
L74040 71720
L74260 71720
L74320 71750
L74350 71780
L74380 71830
L74380 71920
L74350 71970
L74320 72000
L74260 72030
L74040 72030
" />
<path d="M74850 72280
L74800 72310
L74680 72310
L74630 72280
L74600 72230
L74600 72000
L74630 71950
L74680 71920
L74800 71920
L74850 71950
L74880 72000
L74880 72060
L74600 72120
" />
<path d="M75390 72310
L75390 72000
L75360 71950
L75300 71920
L75190 71920
L75130 71950
" />
<path d="M75390 72280
L75330 72310
L75190 72310
L75130 72280
L75110 72230
L75110 72170
L75130 72120
L75190 72090
L75330 72090
L75390 72060
" />
<path d="M75670 72310
L75670 71720
" />
<path d="M75720 72090
L75890 72310
" />
<path d="M75890 71920
L75670 72140
" />
<path d="M76150 72310
L76150 71720
L76290 71720
L76370 71750
L76430 71810
L76450 71860
L76480 71970
L76480 72060
L76450 72170
L76430 72230
L76370 72280
L76290 72310
L76150 72310
" />
<path d="M76960 72280
L76900 72310
L76790 72310
L76740 72280
L76710 72230
L76710 72000
L76740 71950
L76790 71920
L76900 71920
L76960 71950
L76990 72000
L76990 72060
L76710 72120
" />
<path d="M77160 71920
L77380 71920
" />
<path d="M77240 71720
L77240 72230
L77270 72280
L77330 72310
L77380 72310
" />
<path d="M77800 72280
L77750 72310
L77630 72310
L77580 72280
L77550 72230
L77550 72000
L77580 71950
L77630 71920
L77750 71920
L77800 71950
L77830 72000
L77830 72060
L77550 72120
" />
<path d="M78340 72280
L78280 72310
L78170 72310
L78110 72280
L78080 72260
L78060 72200
L78060 72030
L78080 71970
L78110 71950
L78170 71920
L78280 71920
L78340 71950
" />
<path d="M78510 71920
L78730 71920
" />
<path d="M78590 71720
L78590 72230
L78620 72280
L78670 72310
L78730 72310
" />
<path d="M79010 72310
L78960 72280
L78930 72260
L78900 72200
L78900 72030
L78930 71970
L78960 71950
L79010 71920
L79100 71920
L79150 71950
L79180 71970
L79210 72030
L79210 72200
L79180 72260
L79150 72280
L79100 72310
L79010 72310
" />
<path d="M79460 72310
L79460 71920
" />
<path d="M79460 72030
L79490 71970
L79520 71950
L79570 71920
L79630 71920
" />
<path d="M79830 72310
L79830 71720
L80020 72140
L80220 71720
L80220 72310
" />
<path d="M80840 72260
L80810 72280
L80730 72310
L80670 72310
L80580 72280
L80530 72230
L80500 72170
L80470 72060
L80470 71970
L80500 71860
L80530 71810
L80580 71750
L80670 71720
L80730 71720
L80810 71750
L80840 71780
" />
<path d="M81090 71720
L81090 72200
L81120 72260
L81150 72280
L81200 72310
L81320 72310
L81370 72280
L81400 72260
L81430 72200
L81430 71720
" />
<path d="M82130 71690
L81620 72450
" />
<path d="M82330 72310
L82330 71720
" />
<path d="M82610 71920
L82610 72310
" />
<path d="M82610 71970
L82640 71950
L82690 71920
L82780 71920
L82830 71950
L82860 72000
L82860 72310
" />
<path d="M83140 71920
L83140 72510
" />
<path d="M83140 71950
L83200 71920
L83310 71920
L83370 71950
L83390 71970
L83420 72030
L83420 72200
L83390 72260
L83370 72280
L83310 72310
L83200 72310
L83140 72280
" />
<path d="M83930 71920
L83930 72310
" />
<path d="M83680 71920
L83680 72230
L83700 72280
L83760 72310
L83840 72310
L83900 72280
L83930 72260
" />
<path d="M84120 71920
L84350 71920
" />
<path d="M84210 71720
L84210 72230
L84240 72280
L84290 72310
L84350 72310
" />
<path d="M84740 72000
L84830 72030
L84860 72060
L84880 72120
L84880 72200
L84860 72260
L84830 72280
L84770 72310
L84550 72310
L84550 71720
L84740 71720
L84800 71750
L84830 71780
L84860 71830
L84860 71890
L84830 71950
L84800 71970
L84740 72000
L84550 72000
" />
<path d="M85390 71920
L85390 72310
" />
<path d="M85140 71920
L85140 72230
L85160 72280
L85220 72310
L85300 72310
L85360 72280
L85390 72260
" />
<path d="M85590 71920
L85810 71920
" />
<path d="M85670 72310
L85670 71810
L85700 71750
L85750 71720
L85810 71720
" />
<path d="M85920 71920
L86150 71920
" />
<path d="M86010 72310
L86010 71810
L86040 71750
L86090 71720
L86150 71720
" />
<path d="M86570 72280
L86510 72310
L86400 72310
L86340 72280
L86320 72230
L86320 72000
L86340 71950
L86400 71920
L86510 71920
L86570 71950
L86600 72000
L86600 72060
L86320 72120
" />
<path d="M86850 72310
L86850 71920
" />
<path d="M86850 72030
L86880 71970
L86910 71950
L86960 71920
L87020 71920
" />
<path d="M87220 72310
L87220 71720
L87410 72140
L87610 71720
L87610 72310
" />
<path d="M88230 72260
L88200 72280
L88110 72310
L88060 72310
L87970 72280
L87920 72230
L87890 72170
L87860 72060
L87860 71970
L87890 71860
L87920 71810
L87970 71750
L88060 71720
L88110 71720
L88200 71750
L88230 71780
" />
<path d="M88480 71720
L88480 72200
L88510 72260
L88540 72280
L88590 72310
L88700 72310
L88760 72280
L88790 72260
L88820 72200
L88820 71720
" />
<path d="M89040 71720
L89410 71720
L89210 71950
L89290 71950
L89350 71970
L89380 72000
L89410 72060
L89410 72200
L89380 72260
L89350 72280
L89290 72310
L89130 72310
L89070 72280
L89040 72260
" />
<path d="M90080 71690
L89580 72450
" />
</g>
<g style="fill:#840000; fill-opacity:0.0; 
stroke:#840000; stroke-width:100; stroke-opacity:1; 
stroke-linecap:round; stroke-linejoin:round;">
</g>
<g style="fill:#840000; fill-opacity:0.0; 
stroke:#840000; stroke-width:60; stroke-opacity:1; 
stroke-linecap:round; stroke-linejoin:round;">
<path d="M77560 75400
L77560 76580
" />
</g>
<g style="fill:#840000; fill-opacity:0.0; 
stroke:#840000; stroke-width:100; stroke-opacity:1; 
stroke-linecap:round; stroke-linejoin:round;">
</g>
<g style="fill:#840000; fill-opacity:0.0; 
stroke:#840000; stroke-width:60; stroke-opacity:1; 
stroke-linecap:round; stroke-linejoin:round;">
<path d="M102760 75400
L102760 77960
" />
</g>
<g style="fill:#840000; fill-opacity:0.0; 
stroke:#840000; stroke-width:0; stroke-opacity:1; 
stroke-linecap:round; stroke-linejoin:round;">
<g >
</g>
<g style="fill:#FFFFC2; fill-opacity:0.0; 
stroke:#FFFFC2; stroke-width:0; stroke-opacity:1; 
stroke-linecap:round; stroke-linejoin:round;">
</g>
<g style="fill:#FFFFC2; fill-opacity:0.6; 
stroke:#FFFFC2; stroke-width:0; stroke-opacity:1; 
stroke-linecap:round; stroke-linejoin:round;">
<path style="fill:#FFFFC2; fill-opacity:0.6; 
stroke:#FFFFC2; stroke-width:0; stroke-opacity:1; 
stroke-linecap:round; stroke-linejoin:round;fill-rule:evenodd;"
d="M 40500,31250
44500,33250
40500,35250
Z" /> 
</g>
<g style="fill:#840000; fill-opacity:0.6; 
stroke:#840000; stroke-width:0; stroke-opacity:1; 
stroke-linecap:round; stroke-linejoin:round;">
</g>
<g style="fill:#840000; fill-opacity:0.0; 
stroke:#840000; stroke-width:100; stroke-opacity:1; 
stroke-linecap:round; stroke-linejoin:round;">
<path style="fill:#840000; fill-opacity:0.0; 
stroke:#840000; stroke-width:100; stroke-opacity:1; 
stroke-linecap:round; stroke-linejoin:round;fill:none"
d="M 40500,31250
44500,33250
40500,35250
Z" /> 
<path style="fill:#840000; fill-opacity:0.0; 
stroke:#840000; stroke-width:100; stroke-opacity:1; 
stroke-linecap:round; stroke-linejoin:round;fill:none"
d="M 40500,31250
44500,33250
40500,35250
Z" /> 
</g>
<g style="fill:#840000; fill-opacity:0.0; 
stroke:#840000; stroke-width:60; stroke-opacity:1; 
stroke-linecap:round; stroke-linejoin:round;">
<path d="M41500 34750
L41500 36250
" />
</g>
<g style="fill:#008484; fill-opacity:0.0; 
stroke:#008484; stroke-width:60; stroke-opacity:1; 
stroke-linecap:round; stroke-linejoin:round;">
<g transform="rotate(-90 41500 34700)">
<text x="41500" y="34950"
textLength="1110" font-size="660" lengthAdjust="spacingAndGlyphs"
text-anchor="start" opacity="0">V-</text>
</g>
<path d="M41220 34620
L41720 34450
L41220 34280
" />
<path d="M41530 34120
L41530 33740
" />
</g>
<g style="fill:#840000; fill-opacity:0.0; 
stroke:#840000; stroke-width:60; stroke-opacity:1; 
stroke-linecap:round; stroke-linejoin:round;">
<g transform="rotate(-90 41400 35500)">
<text x="41400" y="35500"
textLength="540" font-size="660" lengthAdjust="spacingAndGlyphs"
text-anchor="middle" opacity="0">2</text>
</g>
<path d="M40920 35640
L40900 35610
L40870 35570
L40870 35450
L40900 35400
L40920 35380
L40970 35350
L41010 35350
L41090 35380
L41370 35660
L41370 35350
" />
<path d="M41500 31750
L41500 30250
" />
</g>
<g style="fill:#008484; fill-opacity:0.0; 
stroke:#008484; stroke-width:60; stroke-opacity:1; 
stroke-linecap:round; stroke-linejoin:round;">
<g transform="rotate(-90 41500 31800)">
<text x="41500" y="32050"
textLength="1110" font-size="660" lengthAdjust="spacingAndGlyphs"
text-anchor="end" opacity="0">V+</text>
</g>
<path d="M41220 32830
L41720 32660
L41220 32490
" />
<path d="M41530 32330
L41530 31940
" />
<path d="M41720 32130
L41340 32130
" />
</g>
<g style="fill:#840000; fill-opacity:0.0; 
stroke:#840000; stroke-width:60; stroke-opacity:1; 
stroke-linecap:round; stroke-linejoin:round;">
<g transform="rotate(-90 41400 31000)">
<text x="41400" y="31000"
textLength="540" font-size="660" lengthAdjust="spacingAndGlyphs"
text-anchor="middle" opacity="0">5</text>
</g>
<path d="M40870 30880
L40870 31110
L41110 31140
L41090 31110
L41060 31070
L41060 30950
L41090 30900
L41110 30880
L41160 30850
L41280 30850
L41320 30880
L41350 30900
L41370 30950
L41370 31070
L41350 31110
L41320 31140
" />
<path d="M44500 33250
L45500 33250
" />
<text x="45000" y="33150"
textLength="540" font-size="660" lengthAdjust="spacingAndGlyphs"
text-anchor="middle" opacity="0">1</text>
<path d="M45140 33120
L44850 33120
" />
<path d="M45000 33120
L45000 32620
L44950 32690
L44900 32740
L44850 32760
" />
<path d="M40500 32250
L39500 32250
" />
</g>
<g style="fill:#008484; fill-opacity:0.0; 
stroke:#008484; stroke-width:60; stroke-opacity:1; 
stroke-linecap:round; stroke-linejoin:round;">
<text x="40550" y="32500"
textLength="680" font-size="660" lengthAdjust="spacingAndGlyphs"
text-anchor="start" opacity="0">+</text>
<path d="M40690 32280
L41080 32280
" />
<path d="M40880 32470
L40880 32090
" />
</g>
<g style="fill:#840000; fill-opacity:0.0; 
stroke:#840000; stroke-width:60; stroke-opacity:1; 
stroke-linecap:round; stroke-linejoin:round;">
<text x="40000" y="32150"
textLength="540" font-size="660" lengthAdjust="spacingAndGlyphs"
text-anchor="middle" opacity="0">3</text>
<path d="M39830 31620
L40140 31620
L39970 31810
L40040 31810
L40090 31840
L40110 31860
L40140 31910
L40140 32030
L40110 32070
L40090 32100
L40040 32120
L39900 32120
L39850 32100
L39830 32070
" />
<path d="M40500 34250
L39500 34250
" />
</g>
<g style="fill:#008484; fill-opacity:0.0; 
stroke:#008484; stroke-width:60; stroke-opacity:1; 
stroke-linecap:round; stroke-linejoin:round;">
<text x="40550" y="34500"
textLength="680" font-size="660" lengthAdjust="spacingAndGlyphs"
text-anchor="start" opacity="0">-</text>
<path d="M40690 34280
L41080 34280
" />
</g>
<g style="fill:#840000; fill-opacity:0.0; 
stroke:#840000; stroke-width:60; stroke-opacity:1; 
stroke-linecap:round; stroke-linejoin:round;">
<text x="40000" y="34150"
textLength="540" font-size="660" lengthAdjust="spacingAndGlyphs"
text-anchor="middle" opacity="0">4</text>
<path d="M40090 33790
L40090 34120
" />
<path d="M39970 33600
L39850 33950
L40160 33950
" />
</g>
<g style="fill:#008484; fill-opacity:0.0; 
stroke:#008484; stroke-width:60; stroke-opacity:1; 
stroke-linecap:round; stroke-linejoin:round;">
<text x="45020" y="29520"
textLength="1540" font-size="660" lengthAdjust="spacingAndGlyphs"
text-anchor="middle" opacity="0">U16</text>
<path d="M44400 28990
L44400 29400
L44420 29440
L44440 29470
L44490 29490
L44590 29490
L44630 29470
L44660 29440
L44680 29400
L44680 28990
" />
<path d="M45180 29490
L44900 29490
" />
<path d="M45040 29490
L45040 28990
L44990 29060
L44940 29110
L44900 29130
" />
<path d="M45610 28990
L45520 28990
L45470 29020
L45440 29040
L45400 29110
L45370 29210
L45370 29400
L45400 29440
L45420 29470
L45470 29490
L45560 29490
L45610 29470
L45630 29440
L45660 29400
L45660 29280
L45630 29230
L45610 29210
L45560 29180
L45470 29180
L45420 29210
L45400 29230
L45370 29280
" />
<text x="45240" y="30520"
textLength="4990" font-size="660" lengthAdjust="spacingAndGlyphs"
text-anchor="middle" opacity="0">MCP601-xOT</text>
<path d="M42890 30490
L42890 29990
L43060 30350
L43220 29990
L43220 30490
" />
<path d="M43750 30440
L43720 30470
L43650 30490
L43600 30490
L43530 30470
L43490 30420
L43460 30370
L43440 30280
L43440 30210
L43460 30110
L43490 30060
L43530 30020
L43600 29990
L43650 29990
L43720 30020
L43750 30040
" />
<path d="M43960 30490
L43960 29990
L44150 29990
L44200 30020
L44220 30040
L44250 30090
L44250 30160
L44220 30210
L44200 30230
L44150 30250
L43960 30250
" />
<path d="M44680 29990
L44580 29990
L44530 30020
L44510 30040
L44460 30110
L44440 30210
L44440 30400
L44460 30440
L44490 30470
L44530 30490
L44630 30490
L44680 30470
L44700 30440
L44720 30400
L44720 30280
L44700 30230
L44680 30210
L44630 30180
L44530 30180
L44490 30210
L44460 30230
L44440 30280
" />
<path d="M45030 29990
L45080 29990
L45130 30020
L45150 30040
L45180 30090
L45200 30180
L45200 30300
L45180 30400
L45150 30440
L45130 30470
L45080 30490
L45030 30490
L44990 30470
L44960 30440
L44940 30400
L44910 30300
L44910 30180
L44940 30090
L44960 30040
L44990 30020
L45030 29990
" />
<path d="M45680 30490
L45390 30490
" />
<path d="M45530 30490
L45530 29990
L45490 30060
L45440 30110
L45390 30130
" />
<path d="M45890 30300
L46270 30300
" />
<path d="M46460 30490
L46720 30160
" />
<path d="M46460 30160
L46720 30490
" />
<path d="M47010 29990
L47100 29990
L47150 30020
L47200 30060
L47220 30160
L47220 30320
L47200 30420
L47150 30470
L47100 30490
L47010 30490
L46960 30470
L46910 30420
L46890 30320
L46890 30160
L46910 30060
L46960 30020
L47010 29990
" />
<path d="M47370 29990
L47650 29990
" />
<path d="M47510 30490
L47510 29990
" />
</g>
</g>
<g style="fill:#008484; fill-opacity:0.0; 
stroke:#008484; stroke-width:0; stroke-opacity:1; 
stroke-linecap:round; stroke-linejoin:round;">
<g >
</g>
<g style="fill:#840000; fill-opacity:0.0; 
stroke:#840000; stroke-width:0; stroke-opacity:1; 
stroke-linecap:round; stroke-linejoin:round;">
</g>
<g style="fill:#840000; fill-opacity:0.0; 
stroke:#840000; stroke-width:60; stroke-opacity:1; 
stroke-linecap:round; stroke-linejoin:round;">
<path style="fill:#840000; fill-opacity:0.0; 
stroke:#840000; stroke-width:60; stroke-opacity:1; 
stroke-linecap:round; stroke-linejoin:round;fill:none"
d="M 41200,27000
41500,26500
" /> 
<path style="fill:#840000; fill-opacity:0.0; 
stroke:#840000; stroke-width:60; stroke-opacity:1; 
stroke-linecap:round; stroke-linejoin:round;fill:none"
d="M 41500,27500
41500,26500
" /> 
<path style="fill:#840000; fill-opacity:0.0; 
stroke:#840000; stroke-width:60; stroke-opacity:1; 
stroke-linecap:round; stroke-linejoin:round;fill:none"
d="M 41500,26500
41800,27000
" /> 
</g>
<g style="fill:#008484; fill-opacity:0.0; 
stroke:#008484; stroke-width:60; stroke-opacity:1; 
stroke-linecap:round; stroke-linejoin:round;">
<text x="41650" y="26040"
textLength="2300" font-size="660" lengthAdjust="spacingAndGlyphs"
text-anchor="middle" opacity="0">+3.3V</text>
<path d="M40650 25820
L41030 25820
" />
<path d="M40840 26010
L40840 25630
" />
<path d="M41220 25510
L41530 25510
L41360 25700
L41430 25700
L41480 25730
L41500 25750
L41530 25800
L41530 25920
L41500 25960
L41480 25990
L41430 26010
L41290 26010
L41240 25990
L41220 25960
" />
<path d="M41740 25960
L41760 25990
L41740 26010
L41720 25990
L41740 25960
L41740 26010
" />
<path d="M41930 25510
L42240 25510
L42070 25700
L42150 25700
L42190 25730
L42220 25750
L42240 25800
L42240 25920
L42220 25960
L42190 25990
L42150 26010
L42000 26010
L41950 25990
L41930 25960
" />
<path d="M42380 25510
L42550 26010
L42720 25510
" />
</g>
</g>
<g style="fill:#008484; fill-opacity:0.0; 
stroke:#008484; stroke-width:0; stroke-opacity:1; 
stroke-linecap:round; stroke-linejoin:round;">
<g >
</g>
<g style="fill:#840000; fill-opacity:0.0; 
stroke:#840000; stroke-width:0; stroke-opacity:1; 
stroke-linecap:round; stroke-linejoin:round;">
</g>
<g style="fill:#840000; fill-opacity:0.0; 
stroke:#840000; stroke-width:200; stroke-opacity:1; 
stroke-linecap:round; stroke-linejoin:round;">
<path style="fill:#840000; fill-opacity:0.0; 
stroke:#840000; stroke-width:200; stroke-opacity:1; 
stroke-linecap:round; stroke-linejoin:round;fill:none"
d="M 70200,37550
71800,37550
" /> 
<path style="fill:#840000; fill-opacity:0.0; 
stroke:#840000; stroke-width:200; stroke-opacity:1; 
stroke-linecap:round; stroke-linejoin:round;fill:none"
d="M 70200,36950
71800,36950
" /> 
</g>
<g style="fill:#840000; fill-opacity:0.0; 
stroke:#840000; stroke-width:60; stroke-opacity:1; 
stroke-linecap:round; stroke-linejoin:round;">
<path d="M71000 36850
L71000 35750
" />
<path d="M71000 37650
L71000 38750
" />
</g>
<g style="fill:#008484; fill-opacity:0.0; 
stroke:#008484; stroke-width:60; stroke-opacity:1; 
stroke-linecap:round; stroke-linejoin:round;">
<text x="72900" y="37060"
textLength="1510" font-size="660" lengthAdjust="spacingAndGlyphs"
text-anchor="middle" opacity="0">C10</text>
<path d="M72570 36980
L72550 37010
L72480 37030
L72430 37030
L72360 37010
L72310 36960
L72290 36910
L72260 36820
L72260 36750
L72290 36650
L72310 36600
L72360 36560
L72430 36530
L72480 36530
L72550 36560
L72570 36580
" />
<path d="M73050 37030
L72760 37030
" />
<path d="M72910 37030
L72910 36530
L72860 36600
L72810 36650
L72760 36670
" />
<path d="M73360 36530
L73410 36530
L73450 36560
L73480 36580
L73500 36630
L73530 36720
L73530 36840
L73500 36940
L73480 36980
L73450 37010
L73410 37030
L73360 37030
L73310 37010
L73290 36980
L73260 36940
L73240 36840
L73240 36720
L73260 36630
L73290 36580
L73310 36560
L73360 36530
" />
<text x="73330" y="37970"
textLength="2370" font-size="660" lengthAdjust="spacingAndGlyphs"
text-anchor="middle" opacity="0">100nF</text>
<path d="M72550 37940
L72270 37940
" />
<path d="M72410 37940
L72410 37440
L72360 37510
L72310 37560
L72270 37580
" />
<path d="M72860 37440
L72910 37440
L72960 37470
L72980 37490
L73000 37540
L73030 37630
L73030 37750
L73000 37850
L72980 37890
L72960 37920
L72910 37940
L72860 37940
L72810 37920
L72790 37890
L72770 37850
L72740 37750
L72740 37630
L72770 37540
L72790 37490
L72810 37470
L72860 37440
" />
<path d="M73340 37440
L73380 37440
L73430 37470
L73460 37490
L73480 37540
L73500 37630
L73500 37750
L73480 37850
L73460 37890
L73430 37920
L73380 37940
L73340 37940
L73290 37920
L73270 37890
L73240 37850
L73220 37750
L73220 37630
L73240 37540
L73270 37490
L73290 37470
L73340 37440
" />
<path d="M73720 37610
L73720 37940
" />
<path d="M73720 37660
L73740 37630
L73790 37610
L73860 37610
L73910 37630
L73930 37680
L73930 37940
" />
<path d="M74340 37680
L74170 37680
" />
<path d="M74170 37940
L74170 37440
L74410 37440
" />
</g>
</g>
<g style="fill:#008484; fill-opacity:0.0; 
stroke:#008484; stroke-width:0; stroke-opacity:1; 
stroke-linecap:round; stroke-linejoin:round;">
<g >
</g>
<g style="fill:#840000; fill-opacity:0.0; 
stroke:#840000; stroke-width:0; stroke-opacity:1; 
stroke-linecap:round; stroke-linejoin:round;">
</g>
<g style="fill:#840000; fill-opacity:0.0; 
stroke:#840000; stroke-width:100; stroke-opacity:1; 
stroke-linecap:round; stroke-linejoin:round;">
<rect x="66000" y="32850" width="2000" height="800" rx="0" />
</g>
<g style="fill:#840000; fill-opacity:0.0; 
stroke:#840000; stroke-width:60; stroke-opacity:1; 
stroke-linecap:round; stroke-linejoin:round;">
<path d="M68000 33250
L68500 33250
" />
<path d="M66000 33250
L65500 33250
" />
</g>
<g style="fill:#008484; fill-opacity:0.0; 
stroke:#008484; stroke-width:60; stroke-opacity:1; 
stroke-linecap:round; stroke-linejoin:round;">
<text x="67000" y="31450"
textLength="1040" font-size="660" lengthAdjust="spacingAndGlyphs"
text-anchor="middle" opacity="0">R9</text>
<path d="M66910 31420
L66750 31180
" />
<path d="M66630 31420
L66630 30920
L66820 30920
L66860 30950
L66890 30970
L66910 31020
L66910 31090
L66890 31140
L66860 31160
L66820 31180
L66630 31180
" />
<path d="M67150 31420
L67250 31420
L67290 31400
L67320 31370
L67360 31300
L67390 31210
L67390 31020
L67360 30970
L67340 30950
L67290 30920
L67200 30920
L67150 30950
L67130 30970
L67100 31020
L67100 31140
L67130 31180
L67150 31210
L67200 31230
L67290 31230
L67340 31210
L67360 31180
L67390 31140
" />
<text x="67000" y="32360"
textLength="1510" font-size="660" lengthAdjust="spacingAndGlyphs"
text-anchor="middle" opacity="0">50R</text>
<path d="M66630 31830
L66390 31830
L66360 32070
L66390 32050
L66440 32020
L66550 32020
L66600 32050
L66630 32070
L66650 32120
L66650 32240
L66630 32280
L66600 32310
L66550 32330
L66440 32330
L66390 32310
L66360 32280
" />
<path d="M66960 31830
L67010 31830
L67050 31860
L67080 31880
L67100 31930
L67130 32020
L67130 32140
L67100 32240
L67080 32280
L67050 32310
L67010 32330
L66960 32330
L66910 32310
L66890 32280
L66860 32240
L66840 32140
L66840 32020
L66860 31930
L66890 31880
L66910 31860
L66960 31830
" />
<path d="M67630 32330
L67460 32090
" />
<path d="M67340 32330
L67340 31830
L67530 31830
L67580 31860
L67600 31880
L67630 31930
L67630 32000
L67600 32050
L67580 32070
L67530 32090
L67340 32090
" />
</g>
</g>
<g style="fill:#008484; fill-opacity:0.0; 
stroke:#008484; stroke-width:0; stroke-opacity:1; 
stroke-linecap:round; stroke-linejoin:round;">
<g >
</g>
<g style="fill:#840000; fill-opacity:0.0; 
stroke:#840000; stroke-width:0; stroke-opacity:1; 
stroke-linecap:round; stroke-linejoin:round;">
</g>
<g style="fill:#840000; fill-opacity:0.0; 
stroke:#840000; stroke-width:60; stroke-opacity:1; 
stroke-linecap:round; stroke-linejoin:round;">
<path style="fill:#840000; fill-opacity:0.0; 
stroke:#840000; stroke-width:60; stroke-opacity:1; 
stroke-linecap:round; stroke-linejoin:round;fill:none"
d="M 54200,54500
54500,54000
" /> 
<path style="fill:#840000; fill-opacity:0.0; 
stroke:#840000; stroke-width:60; stroke-opacity:1; 
stroke-linecap:round; stroke-linejoin:round;fill:none"
d="M 54500,55000
54500,54000
" /> 
<path style="fill:#840000; fill-opacity:0.0; 
stroke:#840000; stroke-width:60; stroke-opacity:1; 
stroke-linecap:round; stroke-linejoin:round;fill:none"
d="M 54500,54000
54800,54500
" /> 
</g>
<g style="fill:#008484; fill-opacity:0.0; 
stroke:#008484; stroke-width:60; stroke-opacity:1; 
stroke-linecap:round; stroke-linejoin:round;">
<text x="54650" y="53540"
textLength="2300" font-size="660" lengthAdjust="spacingAndGlyphs"
text-anchor="middle" opacity="0">+3.3V</text>
<path d="M53650 53320
L54030 53320
" />
<path d="M53840 53510
L53840 53130
" />
<path d="M54220 53010
L54530 53010
L54360 53200
L54430 53200
L54480 53230
L54500 53250
L54530 53300
L54530 53420
L54500 53460
L54480 53490
L54430 53510
L54290 53510
L54240 53490
L54220 53460
" />
<path d="M54740 53460
L54760 53490
L54740 53510
L54720 53490
L54740 53460
L54740 53510
" />
<path d="M54930 53010
L55240 53010
L55070 53200
L55150 53200
L55190 53230
L55220 53250
L55240 53300
L55240 53420
L55220 53460
L55190 53490
L55150 53510
L55000 53510
L54950 53490
L54930 53460
" />
<path d="M55380 53010
L55550 53510
L55720 53010
" />
</g>
</g>
<g style="fill:#008484; fill-opacity:0.0; 
stroke:#008484; stroke-width:0; stroke-opacity:1; 
stroke-linecap:round; stroke-linejoin:round;">
<g >
</g>
<g style="fill:#840000; fill-opacity:0.0; 
stroke:#840000; stroke-width:0; stroke-opacity:1; 
stroke-linecap:round; stroke-linejoin:round;">
</g>
<g style="fill:#840000; fill-opacity:0.0; 
stroke:#840000; stroke-width:60; stroke-opacity:1; 
stroke-linecap:round; stroke-linejoin:round;">
<path style="fill:#840000; fill-opacity:0.0; 
stroke:#840000; stroke-width:60; stroke-opacity:1; 
stroke-linecap:round; stroke-linejoin:round;fill:none"
d="M 54500,63000
54500,63500
55000,63500
54500,64000
54000,63500
54500,63500
" /> 
</g>
<g style="fill:#008484; fill-opacity:0.0; 
stroke:#008484; stroke-width:60; stroke-opacity:1; 
stroke-linecap:round; stroke-linejoin:round;">
<text x="54550" y="65000"
textLength="2060" font-size="660" lengthAdjust="spacingAndGlyphs"
text-anchor="middle" opacity="0">GNDS</text>
<path d="M53930 64500
L53880 64470
L53810 64470
L53740 64500
L53690 64540
L53660 64590
L53640 64690
L53640 64760
L53660 64850
L53690 64900
L53740 64950
L53810 64970
L53850 64970
L53930 64950
L53950 64920
L53950 64760
L53850 64760
" />
<path d="M54160 64970
L54160 64470
L54450 64970
L54450 64470
" />
<path d="M54690 64970
L54690 64470
L54810 64470
L54880 64500
L54930 64540
L54950 64590
L54970 64690
L54970 64760
L54950 64850
L54930 64900
L54880 64950
L54810 64970
L54690 64970
" />
<path d="M55160 64950
L55240 64970
L55350 64970
L55400 64950
L55430 64920
L55450 64880
L55450 64830
L55430 64780
L55400 64760
L55350 64730
L55260 64710
L55210 64690
L55190 64660
L55160 64610
L55160 64570
L55190 64520
L55210 64500
L55260 64470
L55380 64470
L55450 64500
" />
</g>
</g>
<g style="fill:#008484; fill-opacity:0.0; 
stroke:#008484; stroke-width:0; stroke-opacity:1; 
stroke-linecap:round; stroke-linejoin:round;">
<g >
</g>
<g style="fill:#840000; fill-opacity:0.0; 
stroke:#840000; stroke-width:0; stroke-opacity:1; 
stroke-linecap:round; stroke-linejoin:round;">
</g>
<g style="fill:#840000; fill-opacity:0.0; 
stroke:#840000; stroke-width:60; stroke-opacity:1; 
stroke-linecap:round; stroke-linejoin:round;">
<path style="fill:#840000; fill-opacity:0.0; 
stroke:#840000; stroke-width:60; stroke-opacity:1; 
stroke-linecap:round; stroke-linejoin:round;fill:none"
d="M 41500,38000
41500,38500
42000,38500
41500,39000
41000,38500
41500,38500
" /> 
</g>
<g style="fill:#008484; fill-opacity:0.0; 
stroke:#008484; stroke-width:60; stroke-opacity:1; 
stroke-linecap:round; stroke-linejoin:round;">
<text x="41550" y="40000"
textLength="2060" font-size="660" lengthAdjust="spacingAndGlyphs"
text-anchor="middle" opacity="0">GNDS</text>
<path d="M40930 39500
L40880 39470
L40810 39470
L40740 39500
L40690 39540
L40660 39590
L40640 39690
L40640 39760
L40660 39850
L40690 39900
L40740 39950
L40810 39970
L40850 39970
L40930 39950
L40950 39920
L40950 39760
L40850 39760
" />
<path d="M41160 39970
L41160 39470
L41450 39970
L41450 39470
" />
<path d="M41690 39970
L41690 39470
L41810 39470
L41880 39500
L41930 39540
L41950 39590
L41970 39690
L41970 39760
L41950 39850
L41930 39900
L41880 39950
L41810 39970
L41690 39970
" />
<path d="M42160 39950
L42240 39970
L42350 39970
L42400 39950
L42430 39920
L42450 39880
L42450 39830
L42430 39780
L42400 39760
L42350 39730
L42260 39710
L42210 39690
L42190 39660
L42160 39610
L42160 39570
L42190 39520
L42210 39500
L42260 39470
L42380 39470
L42450 39500
" />
</g>
</g>
<g style="fill:#008484; fill-opacity:0.0; 
stroke:#008484; stroke-width:0; stroke-opacity:1; 
stroke-linecap:round; stroke-linejoin:round;">
<g >
</g>
<g style="fill:#840000; fill-opacity:0.0; 
stroke:#840000; stroke-width:0; stroke-opacity:1; 
stroke-linecap:round; stroke-linejoin:round;">
</g>
<g style="fill:#840000; fill-opacity:0.0; 
stroke:#840000; stroke-width:200; stroke-opacity:1; 
stroke-linecap:round; stroke-linejoin:round;">
<path style="fill:#840000; fill-opacity:0.0; 
stroke:#840000; stroke-width:200; stroke-opacity:1; 
stroke-linecap:round; stroke-linejoin:round;fill:none"
d="M 53700,58800
55300,58800
" /> 
<path style="fill:#840000; fill-opacity:0.0; 
stroke:#840000; stroke-width:200; stroke-opacity:1; 
stroke-linecap:round; stroke-linejoin:round;fill:none"
d="M 53700,58200
55300,58200
" /> 
</g>
<g style="fill:#840000; fill-opacity:0.0; 
stroke:#840000; stroke-width:60; stroke-opacity:1; 
stroke-linecap:round; stroke-linejoin:round;">
<path d="M54500 58100
L54500 57000
" />
<path d="M54500 58900
L54500 60000
" />
</g>
<g style="fill:#008484; fill-opacity:0.0; 
stroke:#008484; stroke-width:60; stroke-opacity:1; 
stroke-linecap:round; stroke-linejoin:round;">
<text x="56400" y="58310"
textLength="1510" font-size="660" lengthAdjust="spacingAndGlyphs"
text-anchor="middle" opacity="0">C40</text>
<path d="M56070 58230
L56050 58260
L55980 58280
L55930 58280
L55860 58260
L55810 58210
L55790 58160
L55760 58070
L55760 58000
L55790 57900
L55810 57850
L55860 57810
L55930 57780
L55980 57780
L56050 57810
L56070 57830
" />
<path d="M56500 57950
L56500 58280
" />
<path d="M56380 57760
L56260 58110
L56570 58110
" />
<path d="M56860 57780
L56910 57780
L56950 57810
L56980 57830
L57000 57880
L57030 57970
L57030 58090
L57000 58190
L56980 58230
L56950 58260
L56910 58280
L56860 58280
L56810 58260
L56790 58230
L56760 58190
L56740 58090
L56740 57970
L56760 57880
L56790 57830
L56810 57810
L56860 57780
" />
<text x="56830" y="59220"
textLength="2370" font-size="660" lengthAdjust="spacingAndGlyphs"
text-anchor="middle" opacity="0">100nF</text>
<path d="M56050 59190
L55770 59190
" />
<path d="M55910 59190
L55910 58690
L55860 58760
L55810 58810
L55770 58830
" />
<path d="M56360 58690
L56410 58690
L56460 58720
L56480 58740
L56500 58790
L56530 58880
L56530 59000
L56500 59100
L56480 59140
L56460 59170
L56410 59190
L56360 59190
L56310 59170
L56290 59140
L56270 59100
L56240 59000
L56240 58880
L56270 58790
L56290 58740
L56310 58720
L56360 58690
" />
<path d="M56840 58690
L56880 58690
L56930 58720
L56960 58740
L56980 58790
L57000 58880
L57000 59000
L56980 59100
L56960 59140
L56930 59170
L56880 59190
L56840 59190
L56790 59170
L56770 59140
L56740 59100
L56720 59000
L56720 58880
L56740 58790
L56770 58740
L56790 58720
L56840 58690
" />
<path d="M57220 58860
L57220 59190
" />
<path d="M57220 58910
L57240 58880
L57290 58860
L57360 58860
L57410 58880
L57430 58930
L57430 59190
" />
<path d="M57840 58930
L57670 58930
" />
<path d="M57670 59190
L57670 58690
L57910 58690
" />
</g>
</g>
<g style="fill:#008484; fill-opacity:0.0; 
stroke:#008484; stroke-width:0; stroke-opacity:1; 
stroke-linecap:round; stroke-linejoin:round;">
<g >
</g>
<g style="fill:#840000; fill-opacity:0.0; 
stroke:#840000; stroke-width:0; stroke-opacity:1; 
stroke-linecap:round; stroke-linejoin:round;">
</g>
<g style="fill:#840000; fill-opacity:0.0; 
stroke:#840000; stroke-width:60; stroke-opacity:1; 
stroke-linecap:round; stroke-linejoin:round;">
<path style="fill:#840000; fill-opacity:0.0; 
stroke:#840000; stroke-width:60; stroke-opacity:1; 
stroke-linecap:round; stroke-linejoin:round;fill:none"
d="M 71000,44000
71000,44500
71500,44500
71000,45000
70500,44500
71000,44500
" /> 
</g>
<g style="fill:#008484; fill-opacity:0.0; 
stroke:#008484; stroke-width:60; stroke-opacity:1; 
stroke-linecap:round; stroke-linejoin:round;">
<text x="71050" y="46000"
textLength="2060" font-size="660" lengthAdjust="spacingAndGlyphs"
text-anchor="middle" opacity="0">GNDS</text>
<path d="M70430 45500
L70380 45470
L70310 45470
L70240 45500
L70190 45540
L70160 45590
L70140 45690
L70140 45760
L70160 45850
L70190 45900
L70240 45950
L70310 45970
L70350 45970
L70430 45950
L70450 45920
L70450 45760
L70350 45760
" />
<path d="M70660 45970
L70660 45470
L70950 45970
L70950 45470
" />
<path d="M71190 45970
L71190 45470
L71310 45470
L71380 45500
L71430 45540
L71450 45590
L71470 45690
L71470 45760
L71450 45850
L71430 45900
L71380 45950
L71310 45970
L71190 45970
" />
<path d="M71660 45950
L71740 45970
L71850 45970
L71900 45950
L71930 45920
L71950 45880
L71950 45830
L71930 45780
L71900 45760
L71850 45730
L71760 45710
L71710 45690
L71690 45660
L71660 45610
L71660 45570
L71690 45520
L71710 45500
L71760 45470
L71880 45470
L71950 45500
" />
</g>
</g>
<g style="fill:#008484; fill-opacity:0.0; 
stroke:#008484; stroke-width:60; stroke-opacity:1; 
stroke-linecap:round; stroke-linejoin:round;">
</g>
<g style="fill:#008400; fill-opacity:0.0; 
stroke:#008400; stroke-width:60; stroke-opacity:1; 
stroke-linecap:round; stroke-linejoin:round;">
<path d="M71000 33250
L82250 33250
" />
<path d="M71000 35750
L71000 33250
" />
<path d="M68500 33250
L71000 33250
" />
<path d="M54500 60000
L54500 63000
" />
<path d="M54500 55000
L54500 57000
" />
<path d="M71000 38750
L71000 44000
" />
<path d="M49500 33250
L65500 33250
" />
<path d="M41500 36250
L41500 38000
" />
<path d="M49500 33250
L45500 33250
" />
<path d="M49500 40500
L49500 33250
" />
<path d="M37250 40500
L49500 40500
" />
<path d="M37250 34250
L37250 40500
" />
<path d="M39500 34250
L37250 34250
" />
<path d="M41500 27500
L41500 30250
" />
<path d="M36750 32250
L39500 32250
" />
</g>
<g style="fill:#848400; fill-opacity:0.0; 
stroke:#848400; stroke-width:60; stroke-opacity:1; 
stroke-linecap:round; stroke-linejoin:round;">
<text x="82850" y="33500"
textLength="5580" font-size="660" lengthAdjust="spacingAndGlyphs"
text-anchor="start" opacity="0">PEAK_OUT_BUF</text>
<path d="M82990 33470
L82990 32970
L83180 32970
L83230 33000
L83260 33020
L83280 33070
L83280 33140
L83260 33190
L83230 33210
L83180 33230
L82990 33230
" />
<path d="M83490 33210
L83660 33210
" />
<path d="M83730 33470
L83490 33470
L83490 32970
L83730 32970
" />
<path d="M83920 33330
L84160 33330
" />
<path d="M83880 33470
L84040 32970
L84210 33470
" />
<path d="M84380 33470
L84380 32970
" />
<path d="M84660 33470
L84450 33190
" />
<path d="M84660 32970
L84380 33260
" />
<path d="M84760 33520
L85140 33520
" />
<path d="M85350 32970
L85450 32970
L85490 33000
L85540 33040
L85570 33140
L85570 33300
L85540 33400
L85490 33450
L85450 33470
L85350 33470
L85300 33450
L85260 33400
L85230 33300
L85230 33140
L85260 33040
L85300 33000
L85350 32970
" />
<path d="M85780 32970
L85780 33380
L85800 33420
L85830 33450
L85880 33470
L85970 33470
L86020 33450
L86040 33420
L86070 33380
L86070 32970
" />
<path d="M86230 32970
L86520 32970
" />
<path d="M86380 33470
L86380 32970
" />
<path d="M86570 33520
L86950 33520
" />
<path d="M87230 33210
L87300 33230
L87330 33260
L87350 33300
L87350 33380
L87330 33420
L87300 33450
L87260 33470
L87070 33470
L87070 32970
L87230 32970
L87280 33000
L87300 33020
L87330 33070
L87330 33110
L87300 33160
L87280 33190
L87230 33210
L87070 33210
" />
<path d="M87570 32970
L87570 33380
L87590 33420
L87610 33450
L87660 33470
L87760 33470
L87800 33450
L87830 33420
L87850 33380
L87850 32970
" />
<path d="M88260 33210
L88090 33210
" />
<path d="M88090 33470
L88090 32970
L88330 32970
" />
</g>
<g style="fill:#848400; fill-opacity:0.0; 
stroke:#848400; stroke-width:100; stroke-opacity:1; 
stroke-linecap:round; stroke-linejoin:round;">
<path style="fill:#848400; fill-opacity:0.0; 
stroke:#848400; stroke-width:100; stroke-opacity:1; 
stroke-linecap:round; stroke-linejoin:round;fill:none"
d="M 82250,33250
82500,33500
82750,33500
82750,33000
82500,33000
Z" /> 
</g>
<g style="fill:#848400; fill-opacity:0.0; 
stroke:#848400; stroke-width:60; stroke-opacity:1; 
stroke-linecap:round; stroke-linejoin:round;">
<text x="36150" y="32500"
textLength="4920" font-size="660" lengthAdjust="spacingAndGlyphs"
text-anchor="end" opacity="0">PEAK_IN_BUF</text>
<path d="M31380 32470
L31380 31970
L31570 31970
L31620 32000
L31640 32020
L31660 32070
L31660 32140
L31640 32190
L31620 32210
L31570 32230
L31380 32230
" />
<path d="M31880 32210
L32040 32210
" />
<path d="M32120 32470
L31880 32470
L31880 31970
L32120 31970
" />
<path d="M32310 32330
L32540 32330
" />
<path d="M32260 32470
L32420 31970
L32590 32470
" />
<path d="M32760 32470
L32760 31970
" />
<path d="M33040 32470
L32830 32190
" />
<path d="M33040 31970
L32760 32260
" />
<path d="M33140 32520
L33520 32520
" />
<path d="M33640 32470
L33640 31970
" />
<path d="M33880 32470
L33880 31970
L34160 32470
L34160 31970
" />
<path d="M34280 32520
L34660 32520
" />
<path d="M34950 32210
L35020 32230
L35040 32260
L35070 32300
L35070 32380
L35040 32420
L35020 32450
L34970 32470
L34780 32470
L34780 31970
L34950 31970
L35000 32000
L35020 32020
L35040 32070
L35040 32110
L35020 32160
L35000 32190
L34950 32210
L34780 32210
" />
<path d="M35280 31970
L35280 32380
L35310 32420
L35330 32450
L35380 32470
L35470 32470
L35520 32450
L35540 32420
L35570 32380
L35570 31970
" />
<path d="M35970 32210
L35810 32210
" />
<path d="M35810 32470
L35810 31970
L36040 31970
" />
</g>
<g style="fill:#848400; fill-opacity:0.0; 
stroke:#848400; stroke-width:100; stroke-opacity:1; 
stroke-linecap:round; stroke-linejoin:round;">
<path style="fill:#848400; fill-opacity:0.0; 
stroke:#848400; stroke-width:100; stroke-opacity:1; 
stroke-linecap:round; stroke-linejoin:round;fill:none"
d="M 36750,32250
36500,32000
36250,32000
36250,32500
36500,32500
Z" /> 
</g>
<g style="fill:#848400; fill-opacity:0.0; 
stroke:#848400; stroke-width:60; stroke-opacity:1; 
stroke-linecap:round; stroke-linejoin:round;">
</g>
<g style="fill:#0000C2; fill-opacity:0.0; 
stroke:#0000C2; stroke-width:60; stroke-opacity:1; 
stroke-linecap:round; stroke-linejoin:round;">
<text x="64500" y="29400"
textLength="11610" font-size="660" lengthAdjust="spacingAndGlyphs"
text-anchor="start" opacity="0">LowPass Freq Cutoff = 32KHz</text>
<path d="M64880 29370
L64640 29370
L64640 28870
" />
<path d="M65120 29370
L65070 29350
L65050 29320
L65030 29280
L65030 29130
L65050 29090
L65070 29060
L65120 29040
L65190 29040
L65240 29060
L65260 29090
L65290 29130
L65290 29280
L65260 29320
L65240 29350
L65190 29370
L65120 29370
" />
<path d="M65450 29040
L65550 29370
L65640 29130
L65740 29370
L65830 29040
" />
<path d="M66030 29370
L66030 28870
L66220 28870
L66260 28900
L66290 28920
L66310 28970
L66310 29040
L66290 29090
L66260 29110
L66220 29130
L66030 29130
" />
<path d="M66740 29370
L66740 29110
L66720 29060
L66670 29040
L66570 29040
L66530 29060
" />
<path d="M66740 29350
L66690 29370
L66570 29370
L66530 29350
L66500 29300
L66500 29250
L66530 29200
L66570 29180
L66690 29180
L66740 29160
" />
<path d="M66950 29350
L67000 29370
L67100 29370
L67140 29350
L67170 29300
L67170 29280
L67140 29230
L67100 29200
L67030 29200
L66980 29180
L66950 29130
L66950 29110
L66980 29060
L67030 29040
L67100 29040
L67140 29060
" />
<path d="M67360 29350
L67410 29370
L67500 29370
L67550 29350
L67570 29300
L67570 29280
L67550 29230
L67500 29200
L67430 29200
L67380 29180
L67360 29130
L67360 29110
L67380 29060
L67430 29040
L67500 29040
L67550 29060
" />
<path d="M68330 29110
L68170 29110
" />
<path d="M68170 29370
L68170 28870
L68410 28870
" />
<path d="M68600 29370
L68600 29040
" />
<path d="M68600 29130
L68620 29090
L68640 29060
L68690 29040
L68740 29040
" />
<path d="M69100 29350
L69050 29370
L68950 29370
L68910 29350
L68880 29300
L68880 29110
L68910 29060
L68950 29040
L69050 29040
L69100 29060
L69120 29110
L69120 29160
L68880 29200
" />
<path d="M69550 29040
L69550 29540
" />
<path d="M69550 29350
L69500 29370
L69410 29370
L69360 29350
L69330 29320
L69310 29280
L69310 29130
L69330 29090
L69360 29060
L69410 29040
L69500 29040
L69550 29060
" />
<path d="M70450 29320
L70430 29350
L70360 29370
L70310 29370
L70240 29350
L70190 29300
L70170 29250
L70140 29160
L70140 29090
L70170 28990
L70190 28940
L70240 28900
L70310 28870
L70360 28870
L70430 28900
L70450 28920
" />
<path d="M70880 29040
L70880 29370
" />
<path d="M70670 29040
L70670 29300
L70690 29350
L70740 29370
L70810 29370
L70860 29350
L70880 29320
" />
<path d="M71050 29040
L71240 29040
" />
<path d="M71120 28870
L71120 29300
L71140 29350
L71190 29370
L71240 29370
" />
<path d="M71480 29370
L71430 29350
L71410 29320
L71380 29280
L71380 29130
L71410 29090
L71430 29060
L71480 29040
L71550 29040
L71600 29060
L71620 29090
L71640 29130
L71640 29280
L71620 29320
L71600 29350
L71550 29370
L71480 29370
" />
<path d="M71790 29040
L71980 29040
" />
<path d="M71860 29370
L71860 28940
L71880 28900
L71930 28870
L71980 28870
" />
<path d="M72070 29040
L72260 29040
" />
<path d="M72140 29370
L72140 28940
L72170 28900
L72220 28870
L72260 28870
" />
<path d="M72810 29110
L73190 29110
" />
<path d="M73190 29250
L72810 29250
" />
<path d="M73760 28870
L74070 28870
L73910 29060
L73980 29060
L74030 29090
L74050 29110
L74070 29160
L74070 29280
L74050 29320
L74030 29350
L73980 29370
L73830 29370
L73790 29350
L73760 29320
" />
<path d="M74260 28920
L74290 28900
L74330 28870
L74450 28870
L74500 28900
L74530 28920
L74550 28970
L74550 29010
L74530 29090
L74240 29370
L74550 29370
" />
<path d="M74760 29370
L74760 28870
" />
<path d="M75050 29370
L74830 29090
" />
<path d="M75050 28870
L74760 29160
" />
<path d="M75260 29370
L75260 28870
" />
<path d="M75260 29110
L75550 29110
" />
<path d="M75550 29370
L75550 28870
" />
<path d="M75740 29040
L76000 29040
L75740 29370
L76000 29370
" />
</g>
<g style="fill:#0000C2; fill-opacity:0.0; 
stroke:#0000C2; stroke-width:0; stroke-opacity:1; 
stroke-linecap:round; stroke-linejoin:round;">
</g>
<g style="fill:#008400; fill-opacity:0.0; 
stroke:#008400; stroke-width:0; stroke-opacity:1; 
stroke-linecap:round; stroke-linejoin:round;">
</g>
<g style="fill:#008400; fill-opacity:1.0; 
stroke:#008400; stroke-width:100; stroke-opacity:1; 
stroke-linecap:round; stroke-linejoin:round;">
<circle cx="71000" cy="33250" r="200" /> 
</g>
<g style="fill:#008400; fill-opacity:1.0; 
stroke:#008400; stroke-width:0; stroke-opacity:1; 
stroke-linecap:round; stroke-linejoin:round;">
</g>
<g style="fill:#008400; fill-opacity:1.0; 
stroke:#008400; stroke-width:100; stroke-opacity:1; 
stroke-linecap:round; stroke-linejoin:round;">
<circle cx="49500" cy="33250" r="200" /> 
</g> 
</svg>
