<?xml version="1.0" standalone="no"?>
 <!DOCTYPE svg PUBLIC "-//W3C//DTD SVG 1.1//EN" 
 "http://www.w3.org/Graphics/SVG/1.1/DTD/svg11.dtd"> 
<svg
  xmlns:svg="http://www.w3.org/2000/svg"
  xmlns="http://www.w3.org/2000/svg"
  xmlns:xlink="http://www.w3.org/1999/xlink"
  version="1.1"
  width="29.700220cm" height="21.000720cm" viewBox="0 0 116930 82680">
<title>SVG Picture created as NegativeRail-sheet5F6F05BE.svg date 2020/10/23 09:27:06 </title>
  <desc>Picture generated by Eeschema-SVG </desc>
<g style="fill:#000000; fill-opacity:1;stroke:#000000; stroke-opacity:1;
stroke-linecap:round; stroke-linejoin:round;"
 transform="translate(0 0) scale(1 1)">
</g>
<g style="fill:#000000; fill-opacity:0.0; 
stroke:#000000; stroke-width:-10; stroke-opacity:1; 
stroke-linecap:round; stroke-linejoin:round;">
</g>
<g style="fill:#840000; fill-opacity:0.0; 
stroke:#840000; stroke-width:-10; stroke-opacity:1; 
stroke-linecap:round; stroke-linejoin:round;">
</g>
<g style="fill:#840000; fill-opacity:0.0; 
stroke:#840000; stroke-width:100; stroke-opacity:1; 
stroke-linecap:round; stroke-linejoin:round;">
</g>
<g style="fill:#840000; fill-opacity:0.0; 
stroke:#840000; stroke-width:60; stroke-opacity:1; 
stroke-linecap:round; stroke-linejoin:round;">
<rect x="69690" y="65360" width="42520" height="12600" rx="0" />
</g>
<g style="fill:#840000; fill-opacity:0.0; 
stroke:#840000; stroke-width:100; stroke-opacity:1; 
stroke-linecap:round; stroke-linejoin:round;">
</g>
<g style="fill:#840000; fill-opacity:0.0; 
stroke:#840000; stroke-width:60; stroke-opacity:1; 
stroke-linecap:round; stroke-linejoin:round;">
<rect x="3940" y="3940" width="109050" height="74800" rx="0" />
</g>
<g style="fill:#840000; fill-opacity:0.0; 
stroke:#840000; stroke-width:100; stroke-opacity:1; 
stroke-linecap:round; stroke-linejoin:round;">
</g>
<g style="fill:#840000; fill-opacity:0.0; 
stroke:#840000; stroke-width:60; stroke-opacity:1; 
stroke-linecap:round; stroke-linejoin:round;">
<rect x="4720" y="4720" width="107490" height="73240" rx="0" />
</g>
<g style="fill:#840000; fill-opacity:0.0; 
stroke:#840000; stroke-width:100; stroke-opacity:1; 
stroke-linecap:round; stroke-linejoin:round;">
</g>
<g style="fill:#840000; fill-opacity:0.0; 
stroke:#840000; stroke-width:60; stroke-opacity:1; 
stroke-linecap:round; stroke-linejoin:round;">
<path d="M23620 4720
L23620 3940
" />
</g>
<g style="fill:#840000; fill-opacity:0.0; 
stroke:#840000; stroke-width:100; stroke-opacity:1; 
stroke-linecap:round; stroke-linejoin:round;">
</g>
<g style="fill:#840000; fill-opacity:0.0; 
stroke:#840000; stroke-width:60; stroke-opacity:1; 
stroke-linecap:round; stroke-linejoin:round;">
<path d="M43310 4720
L43310 3940
" />
</g>
<g style="fill:#840000; fill-opacity:0.0; 
stroke:#840000; stroke-width:100; stroke-opacity:1; 
stroke-linecap:round; stroke-linejoin:round;">
</g>
<g style="fill:#840000; fill-opacity:0.0; 
stroke:#840000; stroke-width:60; stroke-opacity:1; 
stroke-linecap:round; stroke-linejoin:round;">
<path d="M62990 4720
L62990 3940
" />
</g>
<g style="fill:#840000; fill-opacity:0.0; 
stroke:#840000; stroke-width:100; stroke-opacity:1; 
stroke-linecap:round; stroke-linejoin:round;">
</g>
<g style="fill:#840000; fill-opacity:0.0; 
stroke:#840000; stroke-width:60; stroke-opacity:1; 
stroke-linecap:round; stroke-linejoin:round;">
<path d="M82680 4720
L82680 3940
" />
</g>
<g style="fill:#840000; fill-opacity:0.0; 
stroke:#840000; stroke-width:100; stroke-opacity:1; 
stroke-linecap:round; stroke-linejoin:round;">
</g>
<g style="fill:#840000; fill-opacity:0.0; 
stroke:#840000; stroke-width:60; stroke-opacity:1; 
stroke-linecap:round; stroke-linejoin:round;">
<path d="M102360 4720
L102360 3940
" />
</g>
<g style="fill:#840000; fill-opacity:0.0; 
stroke:#840000; stroke-width:100; stroke-opacity:1; 
stroke-linecap:round; stroke-linejoin:round;">
</g>
<g style="fill:#840000; fill-opacity:0.0; 
stroke:#840000; stroke-width:60; stroke-opacity:1; 
stroke-linecap:round; stroke-linejoin:round;">
<text x="13780" y="4580"
textLength="550" font-size="680" lengthAdjust="spacingAndGlyphs"
text-anchor="start" opacity="0">1</text>
<path d="M14190 4560
L13900 4560
" />
<path d="M14050 4560
L14050 4050
L14000 4120
L13950 4170
L13900 4190
" />
</g>
<g style="fill:#840000; fill-opacity:0.0; 
stroke:#840000; stroke-width:100; stroke-opacity:1; 
stroke-linecap:round; stroke-linejoin:round;">
</g>
<g style="fill:#840000; fill-opacity:0.0; 
stroke:#840000; stroke-width:60; stroke-opacity:1; 
stroke-linecap:round; stroke-linejoin:round;">
<text x="33460" y="4580"
textLength="550" font-size="680" lengthAdjust="spacingAndGlyphs"
text-anchor="start" opacity="0">2</text>
<path d="M33580 4090
L33610 4070
L33660 4050
L33780 4050
L33830 4070
L33850 4090
L33870 4140
L33870 4190
L33850 4260
L33560 4560
L33870 4560
" />
</g>
<g style="fill:#840000; fill-opacity:0.0; 
stroke:#840000; stroke-width:100; stroke-opacity:1; 
stroke-linecap:round; stroke-linejoin:round;">
</g>
<g style="fill:#840000; fill-opacity:0.0; 
stroke:#840000; stroke-width:60; stroke-opacity:1; 
stroke-linecap:round; stroke-linejoin:round;">
<text x="53150" y="4580"
textLength="550" font-size="680" lengthAdjust="spacingAndGlyphs"
text-anchor="start" opacity="0">3</text>
<path d="M53250 4050
L53560 4050
L53390 4240
L53470 4240
L53520 4260
L53540 4290
L53560 4340
L53560 4460
L53540 4510
L53520 4530
L53470 4560
L53320 4560
L53270 4530
L53250 4510
" />
</g>
<g style="fill:#840000; fill-opacity:0.0; 
stroke:#840000; stroke-width:100; stroke-opacity:1; 
stroke-linecap:round; stroke-linejoin:round;">
</g>
<g style="fill:#840000; fill-opacity:0.0; 
stroke:#840000; stroke-width:60; stroke-opacity:1; 
stroke-linecap:round; stroke-linejoin:round;">
<text x="72830" y="4580"
textLength="550" font-size="680" lengthAdjust="spacingAndGlyphs"
text-anchor="start" opacity="0">4</text>
<path d="M73200 4220
L73200 4560
" />
<path d="M73070 4020
L72950 4390
L73270 4390
" />
</g>
<g style="fill:#840000; fill-opacity:0.0; 
stroke:#840000; stroke-width:100; stroke-opacity:1; 
stroke-linecap:round; stroke-linejoin:round;">
</g>
<g style="fill:#840000; fill-opacity:0.0; 
stroke:#840000; stroke-width:60; stroke-opacity:1; 
stroke-linecap:round; stroke-linejoin:round;">
<text x="92520" y="4580"
textLength="550" font-size="680" lengthAdjust="spacingAndGlyphs"
text-anchor="start" opacity="0">5</text>
<path d="M92910 4050
L92670 4050
L92640 4290
L92670 4260
L92720 4240
L92840 4240
L92890 4260
L92910 4290
L92930 4340
L92930 4460
L92910 4510
L92890 4530
L92840 4560
L92720 4560
L92670 4530
L92640 4510
" />
</g>
<g style="fill:#840000; fill-opacity:0.0; 
stroke:#840000; stroke-width:100; stroke-opacity:1; 
stroke-linecap:round; stroke-linejoin:round;">
</g>
<g style="fill:#840000; fill-opacity:0.0; 
stroke:#840000; stroke-width:60; stroke-opacity:1; 
stroke-linecap:round; stroke-linejoin:round;">
<text x="112200" y="4580"
textLength="550" font-size="680" lengthAdjust="spacingAndGlyphs"
text-anchor="start" opacity="0">6</text>
<path d="M112570 4050
L112470 4050
L112420 4070
L112400 4090
L112350 4170
L112320 4260
L112320 4460
L112350 4510
L112370 4530
L112420 4560
L112520 4560
L112570 4530
L112590 4510
L112610 4460
L112610 4340
L112590 4290
L112570 4260
L112520 4240
L112420 4240
L112370 4260
L112350 4290
L112320 4340
" />
</g>
<g style="fill:#840000; fill-opacity:0.0; 
stroke:#840000; stroke-width:100; stroke-opacity:1; 
stroke-linecap:round; stroke-linejoin:round;">
</g>
<g style="fill:#840000; fill-opacity:0.0; 
stroke:#840000; stroke-width:60; stroke-opacity:1; 
stroke-linecap:round; stroke-linejoin:round;">
<path d="M23620 77960
L23620 78740
" />
</g>
<g style="fill:#840000; fill-opacity:0.0; 
stroke:#840000; stroke-width:100; stroke-opacity:1; 
stroke-linecap:round; stroke-linejoin:round;">
</g>
<g style="fill:#840000; fill-opacity:0.0; 
stroke:#840000; stroke-width:60; stroke-opacity:1; 
stroke-linecap:round; stroke-linejoin:round;">
<path d="M43310 77960
L43310 78740
" />
</g>
<g style="fill:#840000; fill-opacity:0.0; 
stroke:#840000; stroke-width:100; stroke-opacity:1; 
stroke-linecap:round; stroke-linejoin:round;">
</g>
<g style="fill:#840000; fill-opacity:0.0; 
stroke:#840000; stroke-width:60; stroke-opacity:1; 
stroke-linecap:round; stroke-linejoin:round;">
<path d="M62990 77960
L62990 78740
" />
</g>
<g style="fill:#840000; fill-opacity:0.0; 
stroke:#840000; stroke-width:100; stroke-opacity:1; 
stroke-linecap:round; stroke-linejoin:round;">
</g>
<g style="fill:#840000; fill-opacity:0.0; 
stroke:#840000; stroke-width:60; stroke-opacity:1; 
stroke-linecap:round; stroke-linejoin:round;">
<path d="M82680 77960
L82680 78740
" />
</g>
<g style="fill:#840000; fill-opacity:0.0; 
stroke:#840000; stroke-width:100; stroke-opacity:1; 
stroke-linecap:round; stroke-linejoin:round;">
</g>
<g style="fill:#840000; fill-opacity:0.0; 
stroke:#840000; stroke-width:60; stroke-opacity:1; 
stroke-linecap:round; stroke-linejoin:round;">
<path d="M102360 77960
L102360 78740
" />
</g>
<g style="fill:#840000; fill-opacity:0.0; 
stroke:#840000; stroke-width:100; stroke-opacity:1; 
stroke-linecap:round; stroke-linejoin:round;">
</g>
<g style="fill:#840000; fill-opacity:0.0; 
stroke:#840000; stroke-width:60; stroke-opacity:1; 
stroke-linecap:round; stroke-linejoin:round;">
<text x="13780" y="78600"
textLength="550" font-size="680" lengthAdjust="spacingAndGlyphs"
text-anchor="start" opacity="0">1</text>
<path d="M14190 78580
L13900 78580
" />
<path d="M14050 78580
L14050 78070
L14000 78140
L13950 78190
L13900 78210
" />
</g>
<g style="fill:#840000; fill-opacity:0.0; 
stroke:#840000; stroke-width:100; stroke-opacity:1; 
stroke-linecap:round; stroke-linejoin:round;">
</g>
<g style="fill:#840000; fill-opacity:0.0; 
stroke:#840000; stroke-width:60; stroke-opacity:1; 
stroke-linecap:round; stroke-linejoin:round;">
<text x="33460" y="78600"
textLength="550" font-size="680" lengthAdjust="spacingAndGlyphs"
text-anchor="start" opacity="0">2</text>
<path d="M33580 78110
L33610 78090
L33660 78070
L33780 78070
L33830 78090
L33850 78110
L33870 78160
L33870 78210
L33850 78280
L33560 78580
L33870 78580
" />
</g>
<g style="fill:#840000; fill-opacity:0.0; 
stroke:#840000; stroke-width:100; stroke-opacity:1; 
stroke-linecap:round; stroke-linejoin:round;">
</g>
<g style="fill:#840000; fill-opacity:0.0; 
stroke:#840000; stroke-width:60; stroke-opacity:1; 
stroke-linecap:round; stroke-linejoin:round;">
<text x="53150" y="78600"
textLength="550" font-size="680" lengthAdjust="spacingAndGlyphs"
text-anchor="start" opacity="0">3</text>
<path d="M53250 78070
L53560 78070
L53390 78260
L53470 78260
L53520 78280
L53540 78310
L53560 78360
L53560 78480
L53540 78530
L53520 78550
L53470 78580
L53320 78580
L53270 78550
L53250 78530
" />
</g>
<g style="fill:#840000; fill-opacity:0.0; 
stroke:#840000; stroke-width:100; stroke-opacity:1; 
stroke-linecap:round; stroke-linejoin:round;">
</g>
<g style="fill:#840000; fill-opacity:0.0; 
stroke:#840000; stroke-width:60; stroke-opacity:1; 
stroke-linecap:round; stroke-linejoin:round;">
<text x="72830" y="78600"
textLength="550" font-size="680" lengthAdjust="spacingAndGlyphs"
text-anchor="start" opacity="0">4</text>
<path d="M73200 78240
L73200 78580
" />
<path d="M73070 78040
L72950 78410
L73270 78410
" />
</g>
<g style="fill:#840000; fill-opacity:0.0; 
stroke:#840000; stroke-width:100; stroke-opacity:1; 
stroke-linecap:round; stroke-linejoin:round;">
</g>
<g style="fill:#840000; fill-opacity:0.0; 
stroke:#840000; stroke-width:60; stroke-opacity:1; 
stroke-linecap:round; stroke-linejoin:round;">
<text x="92520" y="78600"
textLength="550" font-size="680" lengthAdjust="spacingAndGlyphs"
text-anchor="start" opacity="0">5</text>
<path d="M92910 78070
L92670 78070
L92640 78310
L92670 78280
L92720 78260
L92840 78260
L92890 78280
L92910 78310
L92930 78360
L92930 78480
L92910 78530
L92890 78550
L92840 78580
L92720 78580
L92670 78550
L92640 78530
" />
</g>
<g style="fill:#840000; fill-opacity:0.0; 
stroke:#840000; stroke-width:100; stroke-opacity:1; 
stroke-linecap:round; stroke-linejoin:round;">
</g>
<g style="fill:#840000; fill-opacity:0.0; 
stroke:#840000; stroke-width:60; stroke-opacity:1; 
stroke-linecap:round; stroke-linejoin:round;">
<text x="112200" y="78600"
textLength="550" font-size="680" lengthAdjust="spacingAndGlyphs"
text-anchor="start" opacity="0">6</text>
<path d="M112570 78070
L112470 78070
L112420 78090
L112400 78110
L112350 78190
L112320 78280
L112320 78480
L112350 78530
L112370 78550
L112420 78580
L112520 78580
L112570 78550
L112590 78530
L112610 78480
L112610 78360
L112590 78310
L112570 78280
L112520 78260
L112420 78260
L112370 78280
L112350 78310
L112320 78360
" />
</g>
<g style="fill:#840000; fill-opacity:0.0; 
stroke:#840000; stroke-width:100; stroke-opacity:1; 
stroke-linecap:round; stroke-linejoin:round;">
</g>
<g style="fill:#840000; fill-opacity:0.0; 
stroke:#840000; stroke-width:60; stroke-opacity:1; 
stroke-linecap:round; stroke-linejoin:round;">
<path d="M3940 23620
L4720 23620
" />
</g>
<g style="fill:#840000; fill-opacity:0.0; 
stroke:#840000; stroke-width:100; stroke-opacity:1; 
stroke-linecap:round; stroke-linejoin:round;">
</g>
<g style="fill:#840000; fill-opacity:0.0; 
stroke:#840000; stroke-width:60; stroke-opacity:1; 
stroke-linecap:round; stroke-linejoin:round;">
<path d="M3940 43310
L4720 43310
" />
</g>
<g style="fill:#840000; fill-opacity:0.0; 
stroke:#840000; stroke-width:100; stroke-opacity:1; 
stroke-linecap:round; stroke-linejoin:round;">
</g>
<g style="fill:#840000; fill-opacity:0.0; 
stroke:#840000; stroke-width:60; stroke-opacity:1; 
stroke-linecap:round; stroke-linejoin:round;">
<path d="M3940 62990
L4720 62990
" />
</g>
<g style="fill:#840000; fill-opacity:0.0; 
stroke:#840000; stroke-width:100; stroke-opacity:1; 
stroke-linecap:round; stroke-linejoin:round;">
</g>
<g style="fill:#840000; fill-opacity:0.0; 
stroke:#840000; stroke-width:60; stroke-opacity:1; 
stroke-linecap:round; stroke-linejoin:round;">
<text x="4330" y="14030"
textLength="500" font-size="680" lengthAdjust="spacingAndGlyphs"
text-anchor="middle" opacity="0">A</text>
<path d="M4200 13860
L4450 13860
" />
<path d="M4160 14010
L4330 13500
L4500 14010
" />
</g>
<g style="fill:#840000; fill-opacity:0.0; 
stroke:#840000; stroke-width:100; stroke-opacity:1; 
stroke-linecap:round; stroke-linejoin:round;">
</g>
<g style="fill:#840000; fill-opacity:0.0; 
stroke:#840000; stroke-width:60; stroke-opacity:1; 
stroke-linecap:round; stroke-linejoin:round;">
<text x="4330" y="33710"
textLength="570" font-size="680" lengthAdjust="spacingAndGlyphs"
text-anchor="middle" opacity="0">B</text>
<path d="M4360 33420
L4430 33440
L4460 33470
L4480 33520
L4480 33590
L4460 33640
L4430 33660
L4390 33690
L4190 33690
L4190 33180
L4360 33180
L4410 33200
L4430 33220
L4460 33270
L4460 33320
L4430 33370
L4410 33390
L4360 33420
L4190 33420
" />
</g>
<g style="fill:#840000; fill-opacity:0.0; 
stroke:#840000; stroke-width:100; stroke-opacity:1; 
stroke-linecap:round; stroke-linejoin:round;">
</g>
<g style="fill:#840000; fill-opacity:0.0; 
stroke:#840000; stroke-width:60; stroke-opacity:1; 
stroke-linecap:round; stroke-linejoin:round;">
<text x="4330" y="53400"
textLength="570" font-size="680" lengthAdjust="spacingAndGlyphs"
text-anchor="middle" opacity="0">C</text>
<path d="M4480 53330
L4460 53350
L4390 53380
L4340 53380
L4260 53350
L4220 53300
L4190 53250
L4170 53160
L4170 53080
L4190 52990
L4220 52940
L4260 52890
L4340 52870
L4390 52870
L4460 52890
L4480 52910
" />
</g>
<g style="fill:#840000; fill-opacity:0.0; 
stroke:#840000; stroke-width:100; stroke-opacity:1; 
stroke-linecap:round; stroke-linejoin:round;">
</g>
<g style="fill:#840000; fill-opacity:0.0; 
stroke:#840000; stroke-width:60; stroke-opacity:1; 
stroke-linecap:round; stroke-linejoin:round;">
<text x="4330" y="73080"
textLength="570" font-size="680" lengthAdjust="spacingAndGlyphs"
text-anchor="middle" opacity="0">D</text>
<path d="M4190 73060
L4190 72550
L4310 72550
L4390 72570
L4430 72620
L4460 72670
L4480 72760
L4480 72840
L4460 72930
L4430 72980
L4390 73030
L4310 73060
L4190 73060
" />
</g>
<g style="fill:#840000; fill-opacity:0.0; 
stroke:#840000; stroke-width:100; stroke-opacity:1; 
stroke-linecap:round; stroke-linejoin:round;">
</g>
<g style="fill:#840000; fill-opacity:0.0; 
stroke:#840000; stroke-width:60; stroke-opacity:1; 
stroke-linecap:round; stroke-linejoin:round;">
<path d="M112990 23620
L112210 23620
" />
</g>
<g style="fill:#840000; fill-opacity:0.0; 
stroke:#840000; stroke-width:100; stroke-opacity:1; 
stroke-linecap:round; stroke-linejoin:round;">
</g>
<g style="fill:#840000; fill-opacity:0.0; 
stroke:#840000; stroke-width:60; stroke-opacity:1; 
stroke-linecap:round; stroke-linejoin:round;">
<path d="M112990 43310
L112210 43310
" />
</g>
<g style="fill:#840000; fill-opacity:0.0; 
stroke:#840000; stroke-width:100; stroke-opacity:1; 
stroke-linecap:round; stroke-linejoin:round;">
</g>
<g style="fill:#840000; fill-opacity:0.0; 
stroke:#840000; stroke-width:60; stroke-opacity:1; 
stroke-linecap:round; stroke-linejoin:round;">
<path d="M112990 62990
L112210 62990
" />
</g>
<g style="fill:#840000; fill-opacity:0.0; 
stroke:#840000; stroke-width:100; stroke-opacity:1; 
stroke-linecap:round; stroke-linejoin:round;">
</g>
<g style="fill:#840000; fill-opacity:0.0; 
stroke:#840000; stroke-width:60; stroke-opacity:1; 
stroke-linecap:round; stroke-linejoin:round;">
<text x="112600" y="14030"
textLength="500" font-size="680" lengthAdjust="spacingAndGlyphs"
text-anchor="middle" opacity="0">A</text>
<path d="M112470 13860
L112720 13860
" />
<path d="M112430 14010
L112600 13500
L112770 14010
" />
</g>
<g style="fill:#840000; fill-opacity:0.0; 
stroke:#840000; stroke-width:100; stroke-opacity:1; 
stroke-linecap:round; stroke-linejoin:round;">
</g>
<g style="fill:#840000; fill-opacity:0.0; 
stroke:#840000; stroke-width:60; stroke-opacity:1; 
stroke-linecap:round; stroke-linejoin:round;">
<text x="112600" y="33710"
textLength="570" font-size="680" lengthAdjust="spacingAndGlyphs"
text-anchor="middle" opacity="0">B</text>
<path d="M112630 33420
L112700 33440
L112730 33470
L112750 33520
L112750 33590
L112730 33640
L112700 33660
L112660 33690
L112460 33690
L112460 33180
L112630 33180
L112680 33200
L112700 33220
L112730 33270
L112730 33320
L112700 33370
L112680 33390
L112630 33420
L112460 33420
" />
</g>
<g style="fill:#840000; fill-opacity:0.0; 
stroke:#840000; stroke-width:100; stroke-opacity:1; 
stroke-linecap:round; stroke-linejoin:round;">
</g>
<g style="fill:#840000; fill-opacity:0.0; 
stroke:#840000; stroke-width:60; stroke-opacity:1; 
stroke-linecap:round; stroke-linejoin:round;">
<text x="112600" y="53400"
textLength="570" font-size="680" lengthAdjust="spacingAndGlyphs"
text-anchor="middle" opacity="0">C</text>
<path d="M112750 53330
L112730 53350
L112660 53380
L112610 53380
L112530 53350
L112490 53300
L112460 53250
L112440 53160
L112440 53080
L112460 52990
L112490 52940
L112530 52890
L112610 52870
L112660 52870
L112730 52890
L112750 52910
" />
</g>
<g style="fill:#840000; fill-opacity:0.0; 
stroke:#840000; stroke-width:100; stroke-opacity:1; 
stroke-linecap:round; stroke-linejoin:round;">
</g>
<g style="fill:#840000; fill-opacity:0.0; 
stroke:#840000; stroke-width:60; stroke-opacity:1; 
stroke-linecap:round; stroke-linejoin:round;">
<text x="112600" y="73080"
textLength="570" font-size="680" lengthAdjust="spacingAndGlyphs"
text-anchor="middle" opacity="0">D</text>
<path d="M112460 73060
L112460 72550
L112580 72550
L112660 72570
L112700 72620
L112730 72670
L112750 72760
L112750 72840
L112730 72930
L112700 72980
L112660 73030
L112580 73060
L112460 73060
" />
</g>
<g style="fill:#840000; fill-opacity:0.0; 
stroke:#840000; stroke-width:100; stroke-opacity:1; 
stroke-linecap:round; stroke-linejoin:round;">
</g>
<g style="fill:#840000; fill-opacity:0.0; 
stroke:#840000; stroke-width:60; stroke-opacity:1; 
stroke-linecap:round; stroke-linejoin:round;">
<text x="78740" y="76320"
textLength="2760" font-size="780" lengthAdjust="spacingAndGlyphs"
text-anchor="start" opacity="0">Date: </text>
<path d="M78910 76290
L78910 75700
L79050 75700
L79130 75730
L79190 75790
L79210 75840
L79240 75950
L79240 76040
L79210 76150
L79190 76210
L79130 76260
L79050 76290
L78910 76290
" />
<path d="M79750 76290
L79750 75980
L79720 75930
L79660 75900
L79550 75900
L79500 75930
" />
<path d="M79750 76260
L79690 76290
L79550 76290
L79500 76260
L79470 76210
L79470 76150
L79500 76100
L79550 76070
L79690 76070
L79750 76040
" />
<path d="M79950 75900
L80170 75900
" />
<path d="M80030 75700
L80030 76210
L80060 76260
L80110 76290
L80170 76290
" />
<path d="M80590 76260
L80540 76290
L80420 76290
L80370 76260
L80340 76210
L80340 75980
L80370 75930
L80420 75900
L80540 75900
L80590 75930
L80620 75980
L80620 76040
L80340 76100
" />
<path d="M80870 76240
L80900 76260
L80870 76290
L80840 76260
L80870 76240
L80870 76290
" />
<path d="M80870 75930
L80900 75950
L80870 75980
L80840 75950
L80870 75930
L80870 75980
" />
</g>
<g style="fill:#840000; fill-opacity:0.0; 
stroke:#840000; stroke-width:100; stroke-opacity:1; 
stroke-linecap:round; stroke-linejoin:round;">
</g>
<g style="fill:#840000; fill-opacity:0.0; 
stroke:#840000; stroke-width:60; stroke-opacity:1; 
stroke-linecap:round; stroke-linejoin:round;">
<path d="M69690 76580
L112210 76580
" />
</g>
<g style="fill:#840000; fill-opacity:0.0; 
stroke:#840000; stroke-width:100; stroke-opacity:1; 
stroke-linecap:round; stroke-linejoin:round;">
</g>
<g style="fill:#840000; fill-opacity:0.0; 
stroke:#840000; stroke-width:60; stroke-opacity:1; 
stroke-linecap:round; stroke-linejoin:round;">
<text x="70080" y="77420"
textLength="23240" font-size="780" lengthAdjust="spacingAndGlyphs"
text-anchor="start" opacity="0">KiCad E.D.A.  kicad 5.1.6-c6e7f7d~87~ubuntu18.04.1</text>
<path d="M70250 77390
L70250 76800
" />
<path d="M70580 77390
L70330 77050
" />
<path d="M70580 76800
L70250 77140
" />
<path d="M70840 77390
L70840 77000
" />
<path d="M70840 76800
L70810 76830
L70840 76860
L70860 76830
L70840 76800
L70840 76860
" />
<path d="M71450 77340
L71430 77360
L71340 77390
L71290 77390
L71200 77360
L71140 77310
L71120 77250
L71090 77140
L71090 77050
L71120 76940
L71140 76890
L71200 76830
L71290 76800
L71340 76800
L71430 76830
L71450 76860
" />
<path d="M71960 77390
L71960 77080
L71930 77030
L71880 77000
L71760 77000
L71710 77030
" />
<path d="M71960 77360
L71900 77390
L71760 77390
L71710 77360
L71680 77310
L71680 77250
L71710 77200
L71760 77170
L71900 77170
L71960 77140
" />
<path d="M72490 77390
L72490 76800
" />
<path d="M72490 77360
L72440 77390
L72320 77390
L72270 77360
L72240 77340
L72210 77280
L72210 77110
L72240 77050
L72270 77030
L72320 77000
L72440 77000
L72490 77030
" />
<path d="M73220 77080
L73420 77080
" />
<path d="M73500 77390
L73220 77390
L73220 76800
L73500 76800
" />
<path d="M73760 77340
L73790 77360
L73760 77390
L73730 77360
L73760 77340
L73760 77390
" />
<path d="M74040 77390
L74040 76800
L74180 76800
L74260 76830
L74320 76890
L74350 76940
L74380 77050
L74380 77140
L74350 77250
L74320 77310
L74260 77360
L74180 77390
L74040 77390
" />
<path d="M74630 77340
L74660 77360
L74630 77390
L74600 77360
L74630 77340
L74630 77390
" />
<path d="M74880 77220
L75160 77220
" />
<path d="M74830 77390
L75020 76800
L75220 77390
" />
<path d="M75420 77340
L75440 77360
L75420 77390
L75390 77360
L75420 77340
L75420 77390
" />
<path d="M76600 77390
L76600 76800
" />
<path d="M76650 77170
L76820 77390
" />
<path d="M76820 77000
L76600 77220
" />
<path d="M77070 77390
L77070 77000
" />
<path d="M77070 76800
L77040 76830
L77070 76860
L77100 76830
L77070 76800
L77070 76860
" />
<path d="M77610 77360
L77550 77390
L77440 77390
L77380 77360
L77350 77340
L77330 77280
L77330 77110
L77350 77050
L77380 77030
L77440 77000
L77550 77000
L77610 77030
" />
<path d="M78110 77390
L78110 77080
L78080 77030
L78030 77000
L77920 77000
L77860 77030
" />
<path d="M78110 77360
L78060 77390
L77920 77390
L77860 77360
L77830 77310
L77830 77250
L77860 77200
L77920 77170
L78060 77170
L78110 77140
" />
<path d="M78650 77390
L78650 76800
" />
<path d="M78650 77360
L78590 77390
L78480 77390
L78420 77360
L78390 77340
L78370 77280
L78370 77110
L78390 77050
L78420 77030
L78480 77000
L78590 77000
L78650 77030
" />
<path d="M79660 76800
L79380 76800
L79350 77080
L79380 77050
L79430 77030
L79570 77030
L79630 77050
L79660 77080
L79690 77140
L79690 77280
L79660 77340
L79630 77360
L79570 77390
L79430 77390
L79380 77360
L79350 77340
" />
<path d="M79940 77340
L79970 77360
L79940 77390
L79910 77360
L79940 77340
L79940 77390
" />
<path d="M80530 77390
L80190 77390
" />
<path d="M80360 77390
L80360 76800
L80300 76890
L80250 76940
L80190 76970
" />
<path d="M80780 77340
L80810 77360
L80780 77390
L80750 77360
L80780 77340
L80780 77390
" />
<path d="M81320 76800
L81200 76800
L81150 76830
L81120 76860
L81060 76940
L81030 77050
L81030 77280
L81060 77340
L81090 77360
L81150 77390
L81260 77390
L81320 77360
L81340 77340
L81370 77280
L81370 77140
L81340 77080
L81320 77050
L81260 77030
L81150 77030
L81090 77050
L81060 77080
L81030 77140
" />
<path d="M81620 77170
L82070 77170
" />
<path d="M82610 77360
L82550 77390
L82440 77390
L82380 77360
L82350 77340
L82330 77280
L82330 77110
L82350 77050
L82380 77030
L82440 77000
L82550 77000
L82610 77030
" />
<path d="M83110 76800
L83000 76800
L82940 76830
L82920 76860
L82860 76940
L82830 77050
L82830 77280
L82860 77340
L82890 77360
L82940 77390
L83060 77390
L83110 77360
L83140 77340
L83170 77280
L83170 77140
L83140 77080
L83110 77050
L83060 77030
L82940 77030
L82890 77050
L82860 77080
L82830 77140
" />
<path d="M83650 77360
L83590 77390
L83480 77390
L83420 77360
L83390 77310
L83390 77080
L83420 77030
L83480 77000
L83590 77000
L83650 77030
L83680 77080
L83680 77140
L83390 77200
" />
<path d="M83870 76800
L84270 76800
L84010 77390
" />
<path d="M84410 77000
L84630 77000
" />
<path d="M84490 77390
L84490 76890
L84520 76830
L84570 76800
L84630 76800
" />
<path d="M84770 76800
L85160 76800
L84910 77390
" />
<path d="M85640 77390
L85640 76800
" />
<path d="M85640 77360
L85590 77390
L85470 77390
L85420 77360
L85390 77340
L85360 77280
L85360 77110
L85390 77050
L85420 77030
L85470 77000
L85590 77000
L85640 77030
" />
<path d="M85780 76640
L86340 76640
" />
<path d="M86010 77050
L85950 77030
L85920 77000
L85890 76940
L85890 76910
L85920 76860
L85950 76830
L86010 76800
L86120 76800
L86180 76830
L86200 76860
L86230 76910
L86230 76940
L86200 77000
L86180 77030
L86120 77050
L86010 77050
L85950 77080
L85920 77110
L85890 77170
L85890 77280
L85920 77340
L85950 77360
L86010 77390
L86120 77390
L86180 77360
L86200 77340
L86230 77280
L86230 77170
L86200 77110
L86180 77080
L86120 77050
" />
<path d="M86340 76640
L86910 76640
" />
<path d="M86430 76800
L86820 76800
L86570 77390
" />
<path d="M87300 77000
L87300 77390
" />
<path d="M87050 77000
L87050 77310
L87070 77360
L87130 77390
L87220 77390
L87270 77360
L87300 77340
" />
<path d="M87580 77390
L87580 76800
" />
<path d="M87580 77030
L87640 77000
L87750 77000
L87810 77030
L87830 77050
L87860 77110
L87860 77280
L87830 77340
L87810 77360
L87750 77390
L87640 77390
L87580 77360
" />
<path d="M88370 77000
L88370 77390
" />
<path d="M88110 77000
L88110 77310
L88140 77360
L88200 77390
L88280 77390
L88340 77360
L88370 77340
" />
<path d="M88650 77000
L88650 77390
" />
<path d="M88650 77050
L88680 77030
L88730 77000
L88820 77000
L88870 77030
L88900 77080
L88900 77390
" />
<path d="M89100 77000
L89320 77000
" />
<path d="M89180 76800
L89180 77310
L89210 77360
L89270 77390
L89320 77390
" />
<path d="M89770 77000
L89770 77390
" />
<path d="M89520 77000
L89520 77310
L89550 77360
L89600 77390
L89690 77390
L89740 77360
L89770 77340
" />
<path d="M90360 77390
L90020 77390
" />
<path d="M90190 77390
L90190 76800
L90140 76890
L90080 76940
L90020 76970
" />
<path d="M90700 77050
L90640 77030
L90610 77000
L90590 76940
L90590 76910
L90610 76860
L90640 76830
L90700 76800
L90810 76800
L90870 76830
L90900 76860
L90920 76910
L90920 76940
L90900 77000
L90870 77030
L90810 77050
L90700 77050
L90640 77080
L90610 77110
L90590 77170
L90590 77280
L90610 77340
L90640 77360
L90700 77390
L90810 77390
L90870 77360
L90900 77340
L90920 77280
L90920 77170
L90900 77110
L90870 77080
L90810 77050
" />
<path d="M91180 77340
L91200 77360
L91180 77390
L91150 77360
L91180 77340
L91180 77390
" />
<path d="M91570 76800
L91630 76800
L91680 76830
L91710 76860
L91740 76910
L91770 77030
L91770 77170
L91740 77280
L91710 77340
L91680 77360
L91630 77390
L91570 77390
L91510 77360
L91490 77340
L91460 77280
L91430 77170
L91430 77030
L91460 76910
L91490 76860
L91510 76830
L91570 76800
" />
<path d="M92270 77000
L92270 77390
" />
<path d="M92130 76770
L91990 77200
L92360 77200
" />
<path d="M92580 77340
L92610 77360
L92580 77390
L92550 77360
L92580 77340
L92580 77390
" />
<path d="M93170 77390
L92830 77390
" />
<path d="M93000 77390
L93000 76800
L92950 76890
L92890 76940
L92830 76970
" />
</g>
<g style="fill:#840000; fill-opacity:0.0; 
stroke:#840000; stroke-width:100; stroke-opacity:1; 
stroke-linecap:round; stroke-linejoin:round;">
</g>
<g style="fill:#840000; fill-opacity:0.0; 
stroke:#840000; stroke-width:60; stroke-opacity:1; 
stroke-linecap:round; stroke-linejoin:round;">
<path d="M69690 75400
L112210 75400
" />
</g>
<g style="fill:#840000; fill-opacity:0.0; 
stroke:#840000; stroke-width:100; stroke-opacity:1; 
stroke-linecap:round; stroke-linejoin:round;">
</g>
<g style="fill:#840000; fill-opacity:0.0; 
stroke:#840000; stroke-width:120; stroke-opacity:1; 
stroke-linecap:round; stroke-linejoin:round;">
<text x="103540" y="76320"
textLength="2840" font-size="780" lengthAdjust="spacingAndGlyphs"
text-anchor="start" opacity="0">Rev: A</text>
<path d="M104090 76290
L103890 76010
" />
<path d="M103750 76290
L103750 75700
L103980 75700
L104030 75730
L104060 75760
L104090 75810
L104090 75900
L104060 75950
L104030 75980
L103980 76010
L103750 76010
" />
<path d="M104570 76260
L104510 76290
L104400 76290
L104340 76260
L104320 76210
L104320 75980
L104340 75930
L104400 75900
L104510 75900
L104570 75930
L104600 75980
L104600 76040
L104320 76100
" />
<path d="M104790 75900
L104930 76290
L105070 75900
" />
<path d="M105300 76240
L105330 76260
L105300 76290
L105270 76260
L105300 76240
L105300 76290
" />
<path d="M105300 75930
L105330 75950
L105300 75980
L105270 75950
L105300 75930
L105300 75980
" />
<path d="M106000 76120
L106280 76120
" />
<path d="M105940 76290
L106140 75700
L106340 76290
" />
</g>
<g style="fill:#840000; fill-opacity:0.0; 
stroke:#840000; stroke-width:100; stroke-opacity:1; 
stroke-linecap:round; stroke-linejoin:round;">
</g>
<g style="fill:#840000; fill-opacity:0.0; 
stroke:#840000; stroke-width:60; stroke-opacity:1; 
stroke-linecap:round; stroke-linejoin:round;">
<text x="70080" y="76320"
textLength="3780" font-size="780" lengthAdjust="spacingAndGlyphs"
text-anchor="start" opacity="0">Size: A4</text>
<path d="M70220 76260
L70300 76290
L70440 76290
L70500 76260
L70530 76240
L70550 76180
L70550 76120
L70530 76070
L70500 76040
L70440 76010
L70330 75980
L70270 75950
L70250 75930
L70220 75870
L70220 75810
L70250 75760
L70270 75730
L70330 75700
L70470 75700
L70550 75730
" />
<path d="M70810 76290
L70810 75900
" />
<path d="M70810 75700
L70780 75730
L70810 75760
L70840 75730
L70810 75700
L70810 75760
" />
<path d="M71030 75900
L71340 75900
L71030 76290
L71340 76290
" />
<path d="M71790 76260
L71730 76290
L71620 76290
L71570 76260
L71540 76210
L71540 75980
L71570 75930
L71620 75900
L71730 75900
L71790 75930
L71820 75980
L71820 76040
L71540 76100
" />
<path d="M72070 76240
L72100 76260
L72070 76290
L72040 76260
L72070 76240
L72070 76290
" />
<path d="M72070 75930
L72100 75950
L72070 75980
L72040 75950
L72070 75930
L72070 75980
" />
<path d="M72770 76120
L73060 76120
" />
<path d="M72720 76290
L72910 75700
L73110 76290
" />
<path d="M73560 75900
L73560 76290
" />
<path d="M73420 75670
L73280 76100
L73650 76100
" />
</g>
<g style="fill:#840000; fill-opacity:0.0; 
stroke:#840000; stroke-width:100; stroke-opacity:1; 
stroke-linecap:round; stroke-linejoin:round;">
</g>
<g style="fill:#840000; fill-opacity:0.0; 
stroke:#840000; stroke-width:60; stroke-opacity:1; 
stroke-linecap:round; stroke-linejoin:round;">
<text x="103540" y="77420"
textLength="4470" font-size="780" lengthAdjust="spacingAndGlyphs"
text-anchor="start" opacity="0">Id: 12/15</text>
<path d="M103710 77390
L103710 76800
" />
<path d="M104240 77390
L104240 76800
" />
<path d="M104240 77360
L104180 77390
L104070 77390
L104010 77360
L103990 77340
L103960 77280
L103960 77110
L103990 77050
L104010 77030
L104070 77000
L104180 77000
L104240 77030
" />
<path d="M104520 77340
L104550 77360
L104520 77390
L104490 77360
L104520 77340
L104520 77390
" />
<path d="M104520 77030
L104550 77050
L104520 77080
L104490 77050
L104520 77030
L104520 77080
" />
<path d="M105560 77390
L105220 77390
" />
<path d="M105390 77390
L105390 76800
L105340 76890
L105280 76940
L105220 76970
" />
<path d="M105780 76860
L105810 76830
L105870 76800
L106010 76800
L106070 76830
L106090 76860
L106120 76910
L106120 76970
L106090 77050
L105760 77390
L106120 77390
" />
<path d="M106800 76770
L106290 77530
" />
<path d="M107300 77390
L106960 77390
" />
<path d="M107130 77390
L107130 76800
L107080 76890
L107020 76940
L106960 76970
" />
<path d="M107840 76800
L107550 76800
L107530 77080
L107550 77050
L107610 77030
L107750 77030
L107810 77050
L107840 77080
L107860 77140
L107860 77280
L107840 77340
L107810 77360
L107750 77390
L107610 77390
L107550 77360
L107530 77340
" />
</g>
<g style="fill:#840000; fill-opacity:0.0; 
stroke:#840000; stroke-width:100; stroke-opacity:1; 
stroke-linecap:round; stroke-linejoin:round;">
</g>
<g style="fill:#840000; fill-opacity:0.0; 
stroke:#840000; stroke-width:60; stroke-opacity:1; 
stroke-linecap:round; stroke-linejoin:round;">
<path d="M69690 73820
L112210 73820
" />
</g>
<g style="fill:#840000; fill-opacity:0.0; 
stroke:#840000; stroke-width:100; stroke-opacity:1; 
stroke-linecap:round; stroke-linejoin:round;">
</g>
<g style="fill:#840000; fill-opacity:0.0; 
stroke:#840000; stroke-width:160; stroke-opacity:1; 
stroke-linecap:round; stroke-linejoin:round;">
<text x="70080" y="74920"
textLength="3710" font-size="1050" lengthAdjust="spacingAndGlyphs"
text-anchor="start" opacity="0">Title: </text>
<path d="M70360 74090
L70810 74090
" />
<path d="M70480 74880
L70580 74090
" />
<path d="M70970 74880
L71040 74360
" />
<path d="M71070 74090
L71030 74130
L71060 74170
L71110 74130
L71070 74090
L71060 74170
" />
<path d="M71300 74360
L71600 74360
" />
<path d="M71450 74090
L71360 74770
L71390 74840
L71460 74880
L71540 74880
" />
<path d="M71910 74880
L71840 74840
L71820 74770
L71900 74090
" />
<path d="M72520 74840
L72440 74880
L72290 74880
L72220 74840
L72190 74770
L72230 74470
L72280 74390
L72360 74360
L72510 74360
L72580 74390
L72610 74470
L72600 74540
L72210 74620
" />
<path d="M72900 74810
L72930 74840
L72890 74880
L72860 74840
L72900 74810
L72890 74880
" />
<path d="M72950 74390
L72990 74430
L72940 74470
L72910 74430
L72950 74390
L72940 74470
" />
</g>
<g style="fill:#840000; fill-opacity:0.0; 
stroke:#840000; stroke-width:100; stroke-opacity:1; 
stroke-linecap:round; stroke-linejoin:round;">
</g>
<g style="fill:#840000; fill-opacity:0.0; 
stroke:#840000; stroke-width:60; stroke-opacity:1; 
stroke-linecap:round; stroke-linejoin:round;">
<text x="70080" y="73400"
textLength="9820" font-size="780" lengthAdjust="spacingAndGlyphs"
text-anchor="start" opacity="0">File: NegativeRail.sch</text>
<path d="M70440 73060
L70250 73060
" />
<path d="M70250 73370
L70250 72780
L70530 72780
" />
<path d="M70750 73370
L70750 72980
" />
<path d="M70750 72780
L70720 72810
L70750 72840
L70780 72810
L70750 72780
L70750 72840
" />
<path d="M71120 73370
L71060 73340
L71030 73290
L71030 72780
" />
<path d="M71570 73340
L71510 73370
L71400 73370
L71340 73340
L71310 73290
L71310 73060
L71340 73010
L71400 72980
L71510 72980
L71570 73010
L71590 73060
L71590 73120
L71310 73180
" />
<path d="M71850 73320
L71880 73340
L71850 73370
L71820 73340
L71850 73320
L71850 73370
" />
<path d="M71850 73010
L71880 73030
L71850 73060
L71820 73030
L71850 73010
L71850 73060
" />
<path d="M72580 73370
L72580 72780
L72910 73370
L72910 72780
" />
<path d="M73420 73340
L73360 73370
L73250 73370
L73200 73340
L73170 73290
L73170 73060
L73200 73010
L73250 72980
L73360 72980
L73420 73010
L73450 73060
L73450 73120
L73170 73180
" />
<path d="M73950 72980
L73950 73460
L73930 73510
L73900 73540
L73840 73570
L73760 73570
L73700 73540
" />
<path d="M73950 73340
L73900 73370
L73790 73370
L73730 73340
L73700 73320
L73670 73260
L73670 73090
L73700 73030
L73730 73010
L73790 72980
L73900 72980
L73950 73010
" />
<path d="M74490 73370
L74490 73060
L74460 73010
L74400 72980
L74290 72980
L74240 73010
" />
<path d="M74490 73340
L74430 73370
L74290 73370
L74240 73340
L74210 73290
L74210 73230
L74240 73180
L74290 73150
L74430 73150
L74490 73120
" />
<path d="M74680 72980
L74910 72980
" />
<path d="M74770 72780
L74770 73290
L74800 73340
L74850 73370
L74910 73370
" />
<path d="M75110 73370
L75110 72980
" />
<path d="M75110 72780
L75080 72810
L75110 72840
L75130 72810
L75110 72780
L75110 72840
" />
<path d="M75330 72980
L75470 73370
L75610 72980
" />
<path d="M76060 73340
L76010 73370
L75890 73370
L75840 73340
L75810 73290
L75810 73060
L75840 73010
L75890 72980
L76010 72980
L76060 73010
L76090 73060
L76090 73120
L75810 73180
" />
<path d="M76680 73370
L76480 73090
" />
<path d="M76340 73370
L76340 72780
L76570 72780
L76620 72810
L76650 72840
L76680 72890
L76680 72980
L76650 73030
L76620 73060
L76570 73090
L76340 73090
" />
<path d="M77190 73370
L77190 73060
L77160 73010
L77100 72980
L76990 72980
L76930 73010
" />
<path d="M77190 73340
L77130 73370
L76990 73370
L76930 73340
L76900 73290
L76900 73230
L76930 73180
L76990 73150
L77130 73150
L77190 73120
" />
<path d="M77470 73370
L77470 72980
" />
<path d="M77470 72780
L77440 72810
L77470 72840
L77490 72810
L77470 72780
L77470 72840
" />
<path d="M77830 73370
L77780 73340
L77750 73290
L77750 72780
" />
<path d="M78060 73320
L78080 73340
L78060 73370
L78030 73340
L78060 73320
L78060 73370
" />
<path d="M78310 73340
L78370 73370
L78480 73370
L78530 73340
L78560 73290
L78560 73260
L78530 73200
L78480 73180
L78390 73180
L78340 73150
L78310 73090
L78310 73060
L78340 73010
L78390 72980
L78480 72980
L78530 73010
" />
<path d="M79070 73340
L79010 73370
L78900 73370
L78840 73340
L78810 73320
L78790 73260
L78790 73090
L78810 73030
L78840 73010
L78900 72980
L79010 72980
L79070 73010
" />
<path d="M79320 73370
L79320 72780
" />
<path d="M79570 73370
L79570 73060
L79550 73010
L79490 72980
L79400 72980
L79350 73010
L79320 73030
" />
</g>
<g style="fill:#840000; fill-opacity:0.0; 
stroke:#840000; stroke-width:100; stroke-opacity:1; 
stroke-linecap:round; stroke-linejoin:round;">
</g>
<g style="fill:#840000; fill-opacity:0.0; 
stroke:#840000; stroke-width:60; stroke-opacity:1; 
stroke-linecap:round; stroke-linejoin:round;">
<path d="M69690 71460
L112210 71460
" />
</g>
<g style="fill:#840000; fill-opacity:0.0; 
stroke:#840000; stroke-width:100; stroke-opacity:1; 
stroke-linecap:round; stroke-linejoin:round;">
</g>
<g style="fill:#840000; fill-opacity:0.0; 
stroke:#840000; stroke-width:60; stroke-opacity:1; 
stroke-linecap:round; stroke-linejoin:round;">
<text x="70080" y="72340"
textLength="11210" font-size="780" lengthAdjust="spacingAndGlyphs"
text-anchor="start" opacity="0">Sheet: /sheet5F6F05BE/</text>
<path d="M70220 72280
L70300 72310
L70440 72310
L70500 72280
L70530 72260
L70550 72200
L70550 72140
L70530 72090
L70500 72060
L70440 72030
L70330 72000
L70270 71970
L70250 71950
L70220 71890
L70220 71830
L70250 71780
L70270 71750
L70330 71720
L70470 71720
L70550 71750
" />
<path d="M70810 72310
L70810 71720
" />
<path d="M71060 72310
L71060 72000
L71030 71950
L70980 71920
L70890 71920
L70840 71950
L70810 71970
" />
<path d="M71570 72280
L71510 72310
L71400 72310
L71340 72280
L71310 72230
L71310 72000
L71340 71950
L71400 71920
L71510 71920
L71570 71950
L71590 72000
L71590 72060
L71310 72120
" />
<path d="M72070 72280
L72020 72310
L71900 72310
L71850 72280
L71820 72230
L71820 72000
L71850 71950
L71900 71920
L72020 71920
L72070 71950
L72100 72000
L72100 72060
L71820 72120
" />
<path d="M72270 71920
L72490 71920
" />
<path d="M72350 71720
L72350 72230
L72380 72280
L72440 72310
L72490 72310
" />
<path d="M72690 72260
L72720 72280
L72690 72310
L72660 72280
L72690 72260
L72690 72310
" />
<path d="M72690 71950
L72720 71970
L72690 72000
L72660 71970
L72690 71950
L72690 72000
" />
<path d="M73840 71690
L73340 72450
" />
<path d="M74010 72280
L74070 72310
L74180 72310
L74240 72280
L74260 72230
L74260 72200
L74240 72140
L74180 72120
L74090 72120
L74040 72090
L74010 72030
L74010 72000
L74040 71950
L74090 71920
L74180 71920
L74240 71950
" />
<path d="M74520 72310
L74520 71720
" />
<path d="M74770 72310
L74770 72000
L74740 71950
L74680 71920
L74600 71920
L74540 71950
L74520 71970
" />
<path d="M75270 72280
L75220 72310
L75110 72310
L75050 72280
L75020 72230
L75020 72000
L75050 71950
L75110 71920
L75220 71920
L75270 71950
L75300 72000
L75300 72060
L75020 72120
" />
<path d="M75780 72280
L75720 72310
L75610 72310
L75560 72280
L75530 72230
L75530 72000
L75560 71950
L75610 71920
L75720 71920
L75780 71950
L75810 72000
L75810 72060
L75530 72120
" />
<path d="M75980 71920
L76200 71920
" />
<path d="M76060 71720
L76060 72230
L76090 72280
L76150 72310
L76200 72310
" />
<path d="M76680 71720
L76400 71720
L76370 72000
L76400 71970
L76450 71950
L76600 71950
L76650 71970
L76680 72000
L76710 72060
L76710 72200
L76680 72260
L76650 72280
L76600 72310
L76450 72310
L76400 72280
L76370 72260
" />
<path d="M77160 72000
L76960 72000
" />
<path d="M76960 72310
L76960 71720
L77240 71720
" />
<path d="M77720 71720
L77610 71720
L77550 71750
L77520 71780
L77470 71860
L77440 71970
L77440 72200
L77470 72260
L77490 72280
L77550 72310
L77660 72310
L77720 72280
L77750 72260
L77780 72200
L77780 72060
L77750 72000
L77720 71970
L77660 71950
L77550 71950
L77490 71970
L77470 72000
L77440 72060
" />
<path d="M78220 72000
L78030 72000
" />
<path d="M78030 72310
L78030 71720
L78310 71720
" />
<path d="M78650 71720
L78700 71720
L78760 71750
L78790 71780
L78810 71830
L78840 71950
L78840 72090
L78810 72200
L78790 72260
L78760 72280
L78700 72310
L78650 72310
L78590 72280
L78560 72260
L78530 72200
L78510 72090
L78510 71950
L78530 71830
L78560 71780
L78590 71750
L78650 71720
" />
<path d="M79380 71720
L79100 71720
L79070 72000
L79100 71970
L79150 71950
L79290 71950
L79350 71970
L79380 72000
L79400 72060
L79400 72200
L79380 72260
L79350 72280
L79290 72310
L79150 72310
L79100 72280
L79070 72260
" />
<path d="M79850 72000
L79940 72030
L79970 72060
L79990 72120
L79990 72200
L79970 72260
L79940 72280
L79880 72310
L79660 72310
L79660 71720
L79850 71720
L79910 71750
L79940 71780
L79970 71830
L79970 71890
L79940 71950
L79910 71970
L79850 72000
L79660 72000
" />
<path d="M80250 72000
L80440 72000
" />
<path d="M80530 72310
L80250 72310
L80250 71720
L80530 71720
" />
<path d="M81200 71690
L80700 72450
" />
</g>
<g style="fill:#840000; fill-opacity:0.0; 
stroke:#840000; stroke-width:100; stroke-opacity:1; 
stroke-linecap:round; stroke-linejoin:round;">
</g>
<g style="fill:#840000; fill-opacity:0.0; 
stroke:#840000; stroke-width:60; stroke-opacity:1; 
stroke-linecap:round; stroke-linejoin:round;">
<path d="M77560 75400
L77560 76580
" />
</g>
<g style="fill:#840000; fill-opacity:0.0; 
stroke:#840000; stroke-width:100; stroke-opacity:1; 
stroke-linecap:round; stroke-linejoin:round;">
</g>
<g style="fill:#840000; fill-opacity:0.0; 
stroke:#840000; stroke-width:60; stroke-opacity:1; 
stroke-linecap:round; stroke-linejoin:round;">
<path d="M102760 75400
L102760 77960
" />
</g>
<g style="fill:#840000; fill-opacity:0.0; 
stroke:#840000; stroke-width:0; stroke-opacity:1; 
stroke-linecap:round; stroke-linejoin:round;">
<g >
</g>
<g style="fill:#840000; fill-opacity:0.0; 
stroke:#840000; stroke-width:200; stroke-opacity:1; 
stroke-linecap:round; stroke-linejoin:round;">
<path style="fill:#840000; fill-opacity:0.0; 
stroke:#840000; stroke-width:200; stroke-opacity:1; 
stroke-linecap:round; stroke-linejoin:round;fill:none"
d="M 43700,34800
45300,34800
" /> 
<path style="fill:#840000; fill-opacity:0.0; 
stroke:#840000; stroke-width:200; stroke-opacity:1; 
stroke-linecap:round; stroke-linejoin:round;fill:none"
d="M 43700,34200
45300,34200
" /> 
</g>
<g style="fill:#840000; fill-opacity:0.0; 
stroke:#840000; stroke-width:60; stroke-opacity:1; 
stroke-linecap:round; stroke-linejoin:round;">
<path d="M44500 34100
L44500 33000
" />
<path d="M44500 34900
L44500 36000
" />
</g>
<g style="fill:#008484; fill-opacity:0.0; 
stroke:#008484; stroke-width:60; stroke-opacity:1; 
stroke-linecap:round; stroke-linejoin:round;">
<text x="46170" y="34310"
textLength="1040" font-size="660" lengthAdjust="spacingAndGlyphs"
text-anchor="middle" opacity="0">C5</text>
<path d="M46080 34230
L46060 34260
L45990 34280
L45940 34280
L45870 34260
L45820 34210
L45800 34160
L45770 34070
L45770 34000
L45800 33900
L45820 33850
L45870 33810
L45940 33780
L45990 33780
L46060 33810
L46080 33830
" />
<path d="M46530 33780
L46300 33780
L46270 34020
L46300 34000
L46340 33970
L46460 33970
L46510 34000
L46530 34020
L46560 34070
L46560 34190
L46530 34230
L46510 34260
L46460 34280
L46340 34280
L46300 34260
L46270 34230
" />
<text x="46360" y="35220"
textLength="1420" font-size="660" lengthAdjust="spacingAndGlyphs"
text-anchor="middle" opacity="0">1uF</text>
<path d="M46060 35190
L45770 35190
" />
<path d="M45910 35190
L45910 34690
L45870 34760
L45820 34810
L45770 34830
" />
<path d="M46490 34860
L46490 35190
" />
<path d="M46270 34860
L46270 35120
L46300 35170
L46340 35190
L46410 35190
L46460 35170
L46490 35140
" />
<path d="M46890 34930
L46720 34930
" />
<path d="M46720 35190
L46720 34690
L46960 34690
" />
</g>
</g>
<g style="fill:#008484; fill-opacity:0.0; 
stroke:#008484; stroke-width:0; stroke-opacity:1; 
stroke-linecap:round; stroke-linejoin:round;">
<g >
</g>
<g style="fill:#840000; fill-opacity:0.0; 
stroke:#840000; stroke-width:0; stroke-opacity:1; 
stroke-linecap:round; stroke-linejoin:round;">
</g>
<g style="fill:#840000; fill-opacity:0.0; 
stroke:#840000; stroke-width:60; stroke-opacity:1; 
stroke-linecap:round; stroke-linejoin:round;">
<circle cx="68250" cy="28450" r="300" /> 
<path d="M68250 28750
L68250 29750
" />
</g>
<g style="fill:#008484; fill-opacity:0.0; 
stroke:#008484; stroke-width:60; stroke-opacity:1; 
stroke-linecap:round; stroke-linejoin:round;">
<text x="69540" y="28840"
textLength="1420" font-size="660" lengthAdjust="spacingAndGlyphs"
text-anchor="middle" opacity="0">TP4</text>
<path d="M68900 28310
L69190 28310
" />
<path d="M69050 28810
L69050 28310
" />
<path d="M69360 28810
L69360 28310
L69550 28310
L69590 28340
L69620 28360
L69640 28410
L69640 28480
L69620 28530
L69590 28550
L69550 28570
L69360 28570
" />
<path d="M70070 28480
L70070 28810
" />
<path d="M69950 28290
L69830 28640
L70140 28640
" />
<text x="70570" y="29750"
textLength="3490" font-size="660" lengthAdjust="spacingAndGlyphs"
text-anchor="middle" opacity="0">TestPoint</text>
<path d="M68900 29220
L69180 29220
" />
<path d="M69040 29720
L69040 29220
" />
<path d="M69540 29700
L69490 29720
L69400 29720
L69350 29700
L69330 29650
L69330 29460
L69350 29410
L69400 29390
L69490 29390
L69540 29410
L69570 29460
L69570 29510
L69330 29550
" />
<path d="M69760 29700
L69800 29720
L69900 29720
L69950 29700
L69970 29650
L69970 29630
L69950 29580
L69900 29550
L69830 29550
L69780 29530
L69760 29480
L69760 29460
L69780 29410
L69830 29390
L69900 29390
L69950 29410
" />
<path d="M70110 29390
L70300 29390
" />
<path d="M70180 29220
L70180 29650
L70210 29700
L70260 29720
L70300 29720
" />
<path d="M70470 29720
L70470 29220
L70660 29220
L70710 29250
L70730 29270
L70760 29320
L70760 29390
L70730 29440
L70710 29460
L70660 29480
L70470 29480
" />
<path d="M71040 29720
L70990 29700
L70970 29670
L70950 29630
L70950 29480
L70970 29440
L70990 29410
L71040 29390
L71110 29390
L71160 29410
L71180 29440
L71210 29480
L71210 29630
L71180 29670
L71160 29700
L71110 29720
L71040 29720
" />
<path d="M71420 29720
L71420 29390
" />
<path d="M71420 29220
L71400 29250
L71420 29270
L71450 29250
L71420 29220
L71420 29270
" />
<path d="M71660 29390
L71660 29720
" />
<path d="M71660 29440
L71680 29410
L71730 29390
L71800 29390
L71850 29410
L71870 29460
L71870 29720
" />
<path d="M72040 29390
L72230 29390
" />
<path d="M72110 29220
L72110 29650
L72140 29700
L72180 29720
L72230 29720
" />
</g>
</g>
<g style="fill:#008484; fill-opacity:0.0; 
stroke:#008484; stroke-width:0; stroke-opacity:1; 
stroke-linecap:round; stroke-linejoin:round;">
<g >
</g>
<g style="fill:#840000; fill-opacity:0.0; 
stroke:#840000; stroke-width:0; stroke-opacity:1; 
stroke-linecap:round; stroke-linejoin:round;">
</g>
<g style="fill:#840000; fill-opacity:0.0; 
stroke:#840000; stroke-width:60; stroke-opacity:1; 
stroke-linecap:round; stroke-linejoin:round;">
<circle cx="35750" cy="28450" r="300" /> 
<path d="M35750 28750
L35750 29750
" />
</g>
<g style="fill:#008484; fill-opacity:0.0; 
stroke:#008484; stroke-width:60; stroke-opacity:1; 
stroke-linecap:round; stroke-linejoin:round;">
<text x="37040" y="28840"
textLength="1420" font-size="660" lengthAdjust="spacingAndGlyphs"
text-anchor="middle" opacity="0">TP3</text>
<path d="M36400 28310
L36690 28310
" />
<path d="M36550 28810
L36550 28310
" />
<path d="M36860 28810
L36860 28310
L37050 28310
L37090 28340
L37120 28360
L37140 28410
L37140 28480
L37120 28530
L37090 28550
L37050 28570
L36860 28570
" />
<path d="M37310 28310
L37620 28310
L37450 28500
L37520 28500
L37570 28530
L37590 28550
L37620 28600
L37620 28720
L37590 28760
L37570 28790
L37520 28810
L37380 28810
L37330 28790
L37310 28760
" />
<text x="38070" y="29750"
textLength="3490" font-size="660" lengthAdjust="spacingAndGlyphs"
text-anchor="middle" opacity="0">TestPoint</text>
<path d="M36400 29220
L36680 29220
" />
<path d="M36540 29720
L36540 29220
" />
<path d="M37040 29700
L36990 29720
L36900 29720
L36850 29700
L36830 29650
L36830 29460
L36850 29410
L36900 29390
L36990 29390
L37040 29410
L37070 29460
L37070 29510
L36830 29550
" />
<path d="M37260 29700
L37300 29720
L37400 29720
L37450 29700
L37470 29650
L37470 29630
L37450 29580
L37400 29550
L37330 29550
L37280 29530
L37260 29480
L37260 29460
L37280 29410
L37330 29390
L37400 29390
L37450 29410
" />
<path d="M37610 29390
L37800 29390
" />
<path d="M37680 29220
L37680 29650
L37710 29700
L37760 29720
L37800 29720
" />
<path d="M37970 29720
L37970 29220
L38160 29220
L38210 29250
L38230 29270
L38260 29320
L38260 29390
L38230 29440
L38210 29460
L38160 29480
L37970 29480
" />
<path d="M38540 29720
L38490 29700
L38470 29670
L38450 29630
L38450 29480
L38470 29440
L38490 29410
L38540 29390
L38610 29390
L38660 29410
L38680 29440
L38710 29480
L38710 29630
L38680 29670
L38660 29700
L38610 29720
L38540 29720
" />
<path d="M38920 29720
L38920 29390
" />
<path d="M38920 29220
L38900 29250
L38920 29270
L38950 29250
L38920 29220
L38920 29270
" />
<path d="M39160 29390
L39160 29720
" />
<path d="M39160 29440
L39180 29410
L39230 29390
L39300 29390
L39350 29410
L39370 29460
L39370 29720
" />
<path d="M39540 29390
L39730 29390
" />
<path d="M39610 29220
L39610 29650
L39640 29700
L39680 29720
L39730 29720
" />
</g>
</g>
<g style="fill:#008484; fill-opacity:0.0; 
stroke:#008484; stroke-width:0; stroke-opacity:1; 
stroke-linecap:round; stroke-linejoin:round;">
<g >
</g>
<g style="fill:#840000; fill-opacity:0.0; 
stroke:#840000; stroke-width:0; stroke-opacity:1; 
stroke-linecap:round; stroke-linejoin:round;">
</g>
<g style="fill:#840000; fill-opacity:0.0; 
stroke:#840000; stroke-width:200; stroke-opacity:1; 
stroke-linecap:round; stroke-linejoin:round;">
<path style="fill:#840000; fill-opacity:0.0; 
stroke:#840000; stroke-width:200; stroke-opacity:1; 
stroke-linecap:round; stroke-linejoin:round;fill:none"
d="M 63450,34550
65050,34550
" /> 
<path style="fill:#840000; fill-opacity:0.0; 
stroke:#840000; stroke-width:200; stroke-opacity:1; 
stroke-linecap:round; stroke-linejoin:round;fill:none"
d="M 63450,33950
65050,33950
" /> 
</g>
<g style="fill:#840000; fill-opacity:0.0; 
stroke:#840000; stroke-width:60; stroke-opacity:1; 
stroke-linecap:round; stroke-linejoin:round;">
<path d="M64250 33850
L64250 32750
" />
<path d="M64250 34650
L64250 35750
" />
</g>
<g style="fill:#008484; fill-opacity:0.0; 
stroke:#008484; stroke-width:60; stroke-opacity:1; 
stroke-linecap:round; stroke-linejoin:round;">
<text x="65920" y="34060"
textLength="1040" font-size="660" lengthAdjust="spacingAndGlyphs"
text-anchor="middle" opacity="0">C6</text>
<path d="M65830 33980
L65810 34010
L65740 34030
L65690 34030
L65620 34010
L65570 33960
L65550 33910
L65520 33820
L65520 33750
L65550 33650
L65570 33600
L65620 33560
L65690 33530
L65740 33530
L65810 33560
L65830 33580
" />
<path d="M66260 33530
L66170 33530
L66120 33560
L66090 33580
L66050 33650
L66020 33750
L66020 33940
L66050 33980
L66070 34010
L66120 34030
L66210 34030
L66260 34010
L66280 33980
L66310 33940
L66310 33820
L66280 33770
L66260 33750
L66210 33720
L66120 33720
L66070 33750
L66050 33770
L66020 33820
" />
<text x="66110" y="34970"
textLength="1420" font-size="660" lengthAdjust="spacingAndGlyphs"
text-anchor="middle" opacity="0">1uF</text>
<path d="M65810 34940
L65520 34940
" />
<path d="M65660 34940
L65660 34440
L65620 34510
L65570 34560
L65520 34580
" />
<path d="M66240 34610
L66240 34940
" />
<path d="M66020 34610
L66020 34870
L66050 34920
L66090 34940
L66160 34940
L66210 34920
L66240 34890
" />
<path d="M66640 34680
L66470 34680
" />
<path d="M66470 34940
L66470 34440
L66710 34440
" />
</g>
</g>
<g style="fill:#008484; fill-opacity:0.0; 
stroke:#008484; stroke-width:0; stroke-opacity:1; 
stroke-linecap:round; stroke-linejoin:round;">
<g >
</g>
<g style="fill:#840000; fill-opacity:0.0; 
stroke:#840000; stroke-width:0; stroke-opacity:1; 
stroke-linecap:round; stroke-linejoin:round;">
</g>
<g style="fill:#840000; fill-opacity:0.0; 
stroke:#840000; stroke-width:60; stroke-opacity:1; 
stroke-linecap:round; stroke-linejoin:round;">
<path style="fill:#840000; fill-opacity:0.0; 
stroke:#840000; stroke-width:60; stroke-opacity:1; 
stroke-linecap:round; stroke-linejoin:round;fill:none"
d="M 64250,43750
64250,44250
64750,44250
64250,44750
63750,44250
64250,44250
" /> 
</g>
<g style="fill:#008484; fill-opacity:0.0; 
stroke:#008484; stroke-width:60; stroke-opacity:1; 
stroke-linecap:round; stroke-linejoin:round;">
<text x="64300" y="45750"
textLength="2060" font-size="660" lengthAdjust="spacingAndGlyphs"
text-anchor="middle" opacity="0">GNDS</text>
<path d="M63680 45250
L63630 45220
L63560 45220
L63490 45250
L63440 45290
L63410 45340
L63390 45440
L63390 45510
L63410 45600
L63440 45650
L63490 45700
L63560 45720
L63600 45720
L63680 45700
L63700 45670
L63700 45510
L63600 45510
" />
<path d="M63910 45720
L63910 45220
L64200 45720
L64200 45220
" />
<path d="M64440 45720
L64440 45220
L64560 45220
L64630 45250
L64680 45290
L64700 45340
L64720 45440
L64720 45510
L64700 45600
L64680 45650
L64630 45700
L64560 45720
L64440 45720
" />
<path d="M64910 45700
L64990 45720
L65100 45720
L65150 45700
L65180 45670
L65200 45630
L65200 45580
L65180 45530
L65150 45510
L65100 45480
L65010 45460
L64960 45440
L64940 45410
L64910 45360
L64910 45320
L64940 45270
L64960 45250
L65010 45220
L65130 45220
L65200 45250
" />
</g>
</g>
<g style="fill:#008484; fill-opacity:0.0; 
stroke:#008484; stroke-width:0; stroke-opacity:1; 
stroke-linecap:round; stroke-linejoin:round;">
<g >
</g>
<g style="fill:#840000; fill-opacity:0.0; 
stroke:#840000; stroke-width:0; stroke-opacity:1; 
stroke-linecap:round; stroke-linejoin:round;">
</g>
<g style="fill:#FFFFC2; fill-opacity:0.0; 
stroke:#FFFFC2; stroke-width:0; stroke-opacity:1; 
stroke-linecap:round; stroke-linejoin:round;">
</g>
<g style="fill:#FFFFC2; fill-opacity:0.6; 
stroke:#FFFFC2; stroke-width:0; stroke-opacity:1; 
stroke-linecap:round; stroke-linejoin:round;">
<rect x="50000" y="30500" width="6000" height="7000" rx="0" />
</g>
<g style="fill:#840000; fill-opacity:0.6; 
stroke:#840000; stroke-width:0; stroke-opacity:1; 
stroke-linecap:round; stroke-linejoin:round;">
</g>
<g style="fill:#840000; fill-opacity:0.0; 
stroke:#840000; stroke-width:60; stroke-opacity:1; 
stroke-linecap:round; stroke-linejoin:round;">
<rect x="50000" y="30500" width="6000" height="7000" rx="0" />
<rect x="50000" y="30500" width="6000" height="7000" rx="0" />
<path d="M56000 31500
L57000 31500
" />
</g>
<g style="fill:#008484; fill-opacity:0.0; 
stroke:#008484; stroke-width:60; stroke-opacity:1; 
stroke-linecap:round; stroke-linejoin:round;">
<text x="55600" y="31750"
textLength="1490" font-size="660" lengthAdjust="spacingAndGlyphs"
text-anchor="end" opacity="0">OUT</text>
<path d="M54350 31220
L54450 31220
L54490 31250
L54540 31290
L54570 31390
L54570 31550
L54540 31650
L54490 31700
L54450 31720
L54350 31720
L54300 31700
L54260 31650
L54230 31550
L54230 31390
L54260 31290
L54300 31250
L54350 31220
" />
<path d="M54780 31220
L54780 31630
L54800 31670
L54830 31700
L54870 31720
L54970 31720
L55020 31700
L55040 31670
L55070 31630
L55070 31220
" />
<path d="M55230 31220
L55520 31220
" />
<path d="M55370 31720
L55370 31220
" />
</g>
<g style="fill:#840000; fill-opacity:0.0; 
stroke:#840000; stroke-width:60; stroke-opacity:1; 
stroke-linecap:round; stroke-linejoin:round;">
<text x="56500" y="31400"
textLength="540" font-size="660" lengthAdjust="spacingAndGlyphs"
text-anchor="middle" opacity="0">1</text>
<path d="M56640 31370
L56350 31370
" />
<path d="M56500 31370
L56500 30870
L56450 30940
L56400 30990
L56350 31010
" />
<path d="M50000 31500
L49000 31500
" />
</g>
<g style="fill:#008484; fill-opacity:0.0; 
stroke:#008484; stroke-width:60; stroke-opacity:1; 
stroke-linecap:round; stroke-linejoin:round;">
<text x="50400" y="31750"
textLength="820" font-size="660" lengthAdjust="spacingAndGlyphs"
text-anchor="start" opacity="0">IN</text>
<path d="M50540 31720
L50540 31220
" />
<path d="M50780 31720
L50780 31220
L51070 31720
L51070 31220
" />
</g>
<g style="fill:#840000; fill-opacity:0.0; 
stroke:#840000; stroke-width:60; stroke-opacity:1; 
stroke-linecap:round; stroke-linejoin:round;">
<text x="49500" y="31400"
textLength="540" font-size="660" lengthAdjust="spacingAndGlyphs"
text-anchor="middle" opacity="0">2</text>
<path d="M49350 30920
L49380 30900
L49420 30870
L49540 30870
L49590 30900
L49610 30920
L49640 30970
L49640 31010
L49610 31090
L49330 31370
L49640 31370
" />
<path d="M50000 32500
L49000 32500
" />
</g>
<g style="fill:#008484; fill-opacity:0.0; 
stroke:#008484; stroke-width:60; stroke-opacity:1; 
stroke-linecap:round; stroke-linejoin:round;">
<text x="50400" y="32750"
textLength="2440" font-size="660" lengthAdjust="spacingAndGlyphs"
text-anchor="start" opacity="0">CFLY-</text>
<path d="M50830 32670
L50810 32700
L50730 32720
L50690 32720
L50620 32700
L50570 32650
L50540 32600
L50520 32510
L50520 32440
L50540 32340
L50570 32290
L50620 32250
L50690 32220
L50730 32220
L50810 32250
L50830 32270
" />
<path d="M51210 32460
L51040 32460
" />
<path d="M51040 32720
L51040 32220
L51280 32220
" />
<path d="M51710 32720
L51470 32720
L51470 32220
" />
<path d="M51970 32480
L51970 32720
" />
<path d="M51810 32220
L51970 32480
L52140 32220
" />
<path d="M52310 32530
L52690 32530
" />
</g>
<g style="fill:#840000; fill-opacity:0.0; 
stroke:#840000; stroke-width:60; stroke-opacity:1; 
stroke-linecap:round; stroke-linejoin:round;">
<text x="49500" y="32400"
textLength="540" font-size="660" lengthAdjust="spacingAndGlyphs"
text-anchor="middle" opacity="0">3</text>
<path d="M49330 31870
L49640 31870
L49470 32060
L49540 32060
L49590 32090
L49610 32110
L49640 32160
L49640 32280
L49610 32320
L49590 32350
L49540 32370
L49400 32370
L49350 32350
L49330 32320
" />
<path d="M56000 36500
L57000 36500
" />
</g>
<g style="fill:#008484; fill-opacity:0.0; 
stroke:#008484; stroke-width:60; stroke-opacity:1; 
stroke-linecap:round; stroke-linejoin:round;">
<text x="55600" y="36750"
textLength="1580" font-size="660" lengthAdjust="spacingAndGlyphs"
text-anchor="end" opacity="0">GND</text>
<path d="M54420 36250
L54370 36220
L54300 36220
L54230 36250
L54180 36290
L54160 36340
L54140 36440
L54140 36510
L54160 36600
L54180 36650
L54230 36700
L54300 36720
L54350 36720
L54420 36700
L54450 36670
L54450 36510
L54350 36510
" />
<path d="M54660 36720
L54660 36220
L54950 36720
L54950 36220
" />
<path d="M55180 36720
L55180 36220
L55300 36220
L55370 36250
L55420 36290
L55450 36340
L55470 36440
L55470 36510
L55450 36600
L55420 36650
L55370 36700
L55300 36720
L55180 36720
" />
</g>
<g style="fill:#840000; fill-opacity:0.0; 
stroke:#840000; stroke-width:60; stroke-opacity:1; 
stroke-linecap:round; stroke-linejoin:round;">
<text x="56500" y="36400"
textLength="540" font-size="660" lengthAdjust="spacingAndGlyphs"
text-anchor="middle" opacity="0">4</text>
<path d="M56590 36040
L56590 36370
" />
<path d="M56470 35850
L56350 36200
L56660 36200
" />
<path d="M50000 36500
L49000 36500
" />
</g>
<g style="fill:#008484; fill-opacity:0.0; 
stroke:#008484; stroke-width:60; stroke-opacity:1; 
stroke-linecap:round; stroke-linejoin:round;">
<text x="50400" y="36750"
textLength="2440" font-size="660" lengthAdjust="spacingAndGlyphs"
text-anchor="start" opacity="0">CFLY+</text>
<path d="M50830 36670
L50810 36700
L50730 36720
L50690 36720
L50620 36700
L50570 36650
L50540 36600
L50520 36510
L50520 36440
L50540 36340
L50570 36290
L50620 36250
L50690 36220
L50730 36220
L50810 36250
L50830 36270
" />
<path d="M51210 36460
L51040 36460
" />
<path d="M51040 36720
L51040 36220
L51280 36220
" />
<path d="M51710 36720
L51470 36720
L51470 36220
" />
<path d="M51970 36480
L51970 36720
" />
<path d="M51810 36220
L51970 36480
L52140 36220
" />
<path d="M52310 36530
L52690 36530
" />
<path d="M52500 36720
L52500 36340
" />
</g>
<g style="fill:#840000; fill-opacity:0.0; 
stroke:#840000; stroke-width:60; stroke-opacity:1; 
stroke-linecap:round; stroke-linejoin:round;">
<text x="49500" y="36400"
textLength="540" font-size="660" lengthAdjust="spacingAndGlyphs"
text-anchor="middle" opacity="0">5</text>
<path d="M49610 35870
L49380 35870
L49350 36110
L49380 36090
L49420 36060
L49540 36060
L49590 36090
L49610 36110
L49640 36160
L49640 36280
L49610 36320
L49590 36350
L49540 36370
L49420 36370
L49380 36350
L49350 36320
" />
</g>
<g style="fill:#008484; fill-opacity:0.0; 
stroke:#008484; stroke-width:60; stroke-opacity:1; 
stroke-linecap:round; stroke-linejoin:round;">
<text x="53000" y="29120"
textLength="1540" font-size="660" lengthAdjust="spacingAndGlyphs"
text-anchor="middle" opacity="0">U13</text>
<path d="M52380 28590
L52380 29000
L52400 29040
L52420 29070
L52470 29090
L52570 29090
L52610 29070
L52640 29040
L52660 29000
L52660 28590
" />
<path d="M53160 29090
L52880 29090
" />
<path d="M53020 29090
L53020 28590
L52970 28660
L52920 28710
L52880 28730
" />
<path d="M53330 28590
L53640 28590
L53470 28780
L53540 28780
L53590 28810
L53610 28830
L53640 28880
L53640 29000
L53610 29040
L53590 29070
L53540 29090
L53400 29090
L53350 29070
L53330 29040
" />
<text x="53000" y="30030"
textLength="3800" font-size="660" lengthAdjust="spacingAndGlyphs"
text-anchor="middle" opacity="0">TPS60400</text>
<path d="M51170 29500
L51460 29500
" />
<path d="M51320 30000
L51320 29500
" />
<path d="M51630 30000
L51630 29500
L51820 29500
L51860 29530
L51890 29550
L51910 29600
L51910 29670
L51890 29720
L51860 29740
L51820 29760
L51630 29760
" />
<path d="M52100 29980
L52170 30000
L52290 30000
L52340 29980
L52360 29950
L52390 29910
L52390 29860
L52360 29810
L52340 29790
L52290 29760
L52200 29740
L52150 29720
L52130 29690
L52100 29640
L52100 29600
L52130 29550
L52150 29530
L52200 29500
L52320 29500
L52390 29530
" />
<path d="M52820 29500
L52720 29500
L52670 29530
L52650 29550
L52600 29620
L52580 29720
L52580 29910
L52600 29950
L52630 29980
L52670 30000
L52770 30000
L52820 29980
L52840 29950
L52860 29910
L52860 29790
L52840 29740
L52820 29720
L52770 29690
L52670 29690
L52630 29720
L52600 29740
L52580 29790
" />
<path d="M53170 29500
L53220 29500
L53270 29530
L53290 29550
L53320 29600
L53340 29690
L53340 29810
L53320 29910
L53290 29950
L53270 29980
L53220 30000
L53170 30000
L53130 29980
L53100 29950
L53080 29910
L53050 29810
L53050 29690
L53080 29600
L53100 29550
L53130 29530
L53170 29500
" />
<path d="M53770 29670
L53770 30000
" />
<path d="M53650 29480
L53530 29830
L53840 29830
" />
<path d="M54130 29500
L54170 29500
L54220 29530
L54250 29550
L54270 29600
L54290 29690
L54290 29810
L54270 29910
L54250 29950
L54220 29980
L54170 30000
L54130 30000
L54080 29980
L54050 29950
L54030 29910
L54010 29810
L54010 29690
L54030 29600
L54050 29550
L54080 29530
L54130 29500
" />
<path d="M54600 29500
L54650 29500
L54700 29530
L54720 29550
L54750 29600
L54770 29690
L54770 29810
L54750 29910
L54720 29950
L54700 29980
L54650 30000
L54600 30000
L54550 29980
L54530 29950
L54510 29910
L54480 29810
L54480 29690
L54510 29600
L54530 29550
L54550 29530
L54600 29500
" />
</g>
</g>
<g style="fill:#008484; fill-opacity:0.0; 
stroke:#008484; stroke-width:60; stroke-opacity:1; 
stroke-linecap:round; stroke-linejoin:round;">
</g>
<g style="fill:#008400; fill-opacity:0.0; 
stroke:#008400; stroke-width:60; stroke-opacity:1; 
stroke-linecap:round; stroke-linejoin:round;">
<path d="M64250 31500
L68250 31500
" />
<path d="M68250 31500
L72000 31500
" />
<path d="M68250 29750
L68250 31500
" />
<path d="M35750 31500
L29500 31500
" />
<path d="M35750 29750
L35750 31500
" />
<path d="M49000 32500
L44500 32500
" />
<path d="M64250 35750
L64250 36500
" />
<path d="M44500 36500
L49000 36500
" />
<path d="M64250 32750
L64250 31500
" />
<path d="M44500 32500
L44500 33000
" />
<path d="M44500 36000
L44500 36500
" />
<path d="M64250 36500
L64250 43750
" />
<path d="M57000 36500
L64250 36500
" />
<path d="M57000 31500
L64250 31500
" />
<path d="M49000 31500
L35750 31500
" />
</g>
<g style="fill:#848400; fill-opacity:0.0; 
stroke:#848400; stroke-width:60; stroke-opacity:1; 
stroke-linecap:round; stroke-linejoin:round;">
<text x="72600" y="31750"
textLength="1920" font-size="660" lengthAdjust="spacingAndGlyphs"
text-anchor="start" opacity="0">VOUT</text>
<path d="M72670 31220
L72840 31720
L73010 31220
" />
<path d="M73270 31220
L73360 31220
L73410 31250
L73460 31290
L73480 31390
L73480 31550
L73460 31650
L73410 31700
L73360 31720
L73270 31720
L73220 31700
L73170 31650
L73150 31550
L73150 31390
L73170 31290
L73220 31250
L73270 31220
" />
<path d="M73700 31220
L73700 31630
L73720 31670
L73740 31700
L73790 31720
L73890 31720
L73930 31700
L73960 31670
L73980 31630
L73980 31220
" />
<path d="M74150 31220
L74430 31220
" />
<path d="M74290 31720
L74290 31220
" />
</g>
<g style="fill:#848400; fill-opacity:0.0; 
stroke:#848400; stroke-width:100; stroke-opacity:1; 
stroke-linecap:round; stroke-linejoin:round;">
<path style="fill:#848400; fill-opacity:0.0; 
stroke:#848400; stroke-width:100; stroke-opacity:1; 
stroke-linecap:round; stroke-linejoin:round;fill:none"
d="M 72000,31500
72250,31750
72500,31750
72500,31250
72250,31250
Z" /> 
</g>
<g style="fill:#848400; fill-opacity:0.0; 
stroke:#848400; stroke-width:60; stroke-opacity:1; 
stroke-linecap:round; stroke-linejoin:round;">
<text x="28900" y="31750"
textLength="1250" font-size="660" lengthAdjust="spacingAndGlyphs"
text-anchor="end" opacity="0">VIN</text>
<path d="M27720 31220
L27890 31720
L28060 31220
" />
<path d="M28220 31720
L28220 31220
" />
<path d="M28460 31720
L28460 31220
L28750 31720
L28750 31220
" />
</g>
<g style="fill:#848400; fill-opacity:0.0; 
stroke:#848400; stroke-width:100; stroke-opacity:1; 
stroke-linecap:round; stroke-linejoin:round;">
<path style="fill:#848400; fill-opacity:0.0; 
stroke:#848400; stroke-width:100; stroke-opacity:1; 
stroke-linecap:round; stroke-linejoin:round;fill:none"
d="M 29500,31500
29250,31250
29000,31250
29000,31750
29250,31750
Z" /> 
</g>
<g style="fill:#848400; fill-opacity:0.0; 
stroke:#848400; stroke-width:0; stroke-opacity:1; 
stroke-linecap:round; stroke-linejoin:round;">
</g>
<g style="fill:#008400; fill-opacity:0.0; 
stroke:#008400; stroke-width:0; stroke-opacity:1; 
stroke-linecap:round; stroke-linejoin:round;">
</g>
<g style="fill:#008400; fill-opacity:1.0; 
stroke:#008400; stroke-width:100; stroke-opacity:1; 
stroke-linecap:round; stroke-linejoin:round;">
<circle cx="64250" cy="31500" r="200" /> 
</g>
<g style="fill:#008400; fill-opacity:1.0; 
stroke:#008400; stroke-width:0; stroke-opacity:1; 
stroke-linecap:round; stroke-linejoin:round;">
</g>
<g style="fill:#008400; fill-opacity:1.0; 
stroke:#008400; stroke-width:100; stroke-opacity:1; 
stroke-linecap:round; stroke-linejoin:round;">
<circle cx="64250" cy="36500" r="200" /> 
</g>
<g style="fill:#008400; fill-opacity:1.0; 
stroke:#008400; stroke-width:0; stroke-opacity:1; 
stroke-linecap:round; stroke-linejoin:round;">
</g>
<g style="fill:#008400; fill-opacity:1.0; 
stroke:#008400; stroke-width:100; stroke-opacity:1; 
stroke-linecap:round; stroke-linejoin:round;">
<circle cx="35750" cy="31500" r="200" /> 
</g>
<g style="fill:#008400; fill-opacity:1.0; 
stroke:#008400; stroke-width:0; stroke-opacity:1; 
stroke-linecap:round; stroke-linejoin:round;">
</g>
<g style="fill:#008400; fill-opacity:1.0; 
stroke:#008400; stroke-width:100; stroke-opacity:1; 
stroke-linecap:round; stroke-linejoin:round;">
<circle cx="68250" cy="31500" r="200" /> 
</g> 
</svg>
