<?xml version="1.0" standalone="no"?>
 <!DOCTYPE svg PUBLIC "-//W3C//DTD SVG 1.1//EN" 
 "http://www.w3.org/Graphics/SVG/1.1/DTD/svg11.dtd"> 
<svg
  xmlns:svg="http://www.w3.org/2000/svg"
  xmlns="http://www.w3.org/2000/svg"
  xmlns:xlink="http://www.w3.org/1999/xlink"
  version="1.1"
  width="29.700220cm" height="21.000720cm" viewBox="0 0 116930 82680">
<title>SVG Picture created as Pos3V3_PSU-PowerSupply.svg date 2020/10/23 09:27:06 </title>
  <desc>Picture generated by Eeschema-SVG </desc>
<g style="fill:#000000; fill-opacity:1;stroke:#000000; stroke-opacity:1;
stroke-linecap:round; stroke-linejoin:round;"
 transform="translate(0 0) scale(1 1)">
</g>
<g style="fill:#000000; fill-opacity:0.0; 
stroke:#000000; stroke-width:-10; stroke-opacity:1; 
stroke-linecap:round; stroke-linejoin:round;">
</g>
<g style="fill:#840000; fill-opacity:0.0; 
stroke:#840000; stroke-width:-10; stroke-opacity:1; 
stroke-linecap:round; stroke-linejoin:round;">
</g>
<g style="fill:#840000; fill-opacity:0.0; 
stroke:#840000; stroke-width:100; stroke-opacity:1; 
stroke-linecap:round; stroke-linejoin:round;">
</g>
<g style="fill:#840000; fill-opacity:0.0; 
stroke:#840000; stroke-width:60; stroke-opacity:1; 
stroke-linecap:round; stroke-linejoin:round;">
<rect x="69690" y="65360" width="42520" height="12600" rx="0" />
</g>
<g style="fill:#840000; fill-opacity:0.0; 
stroke:#840000; stroke-width:100; stroke-opacity:1; 
stroke-linecap:round; stroke-linejoin:round;">
</g>
<g style="fill:#840000; fill-opacity:0.0; 
stroke:#840000; stroke-width:60; stroke-opacity:1; 
stroke-linecap:round; stroke-linejoin:round;">
<rect x="3940" y="3940" width="109050" height="74800" rx="0" />
</g>
<g style="fill:#840000; fill-opacity:0.0; 
stroke:#840000; stroke-width:100; stroke-opacity:1; 
stroke-linecap:round; stroke-linejoin:round;">
</g>
<g style="fill:#840000; fill-opacity:0.0; 
stroke:#840000; stroke-width:60; stroke-opacity:1; 
stroke-linecap:round; stroke-linejoin:round;">
<rect x="4720" y="4720" width="107490" height="73240" rx="0" />
</g>
<g style="fill:#840000; fill-opacity:0.0; 
stroke:#840000; stroke-width:100; stroke-opacity:1; 
stroke-linecap:round; stroke-linejoin:round;">
</g>
<g style="fill:#840000; fill-opacity:0.0; 
stroke:#840000; stroke-width:60; stroke-opacity:1; 
stroke-linecap:round; stroke-linejoin:round;">
<path d="M23620 4720
L23620 3940
" />
</g>
<g style="fill:#840000; fill-opacity:0.0; 
stroke:#840000; stroke-width:100; stroke-opacity:1; 
stroke-linecap:round; stroke-linejoin:round;">
</g>
<g style="fill:#840000; fill-opacity:0.0; 
stroke:#840000; stroke-width:60; stroke-opacity:1; 
stroke-linecap:round; stroke-linejoin:round;">
<path d="M43310 4720
L43310 3940
" />
</g>
<g style="fill:#840000; fill-opacity:0.0; 
stroke:#840000; stroke-width:100; stroke-opacity:1; 
stroke-linecap:round; stroke-linejoin:round;">
</g>
<g style="fill:#840000; fill-opacity:0.0; 
stroke:#840000; stroke-width:60; stroke-opacity:1; 
stroke-linecap:round; stroke-linejoin:round;">
<path d="M62990 4720
L62990 3940
" />
</g>
<g style="fill:#840000; fill-opacity:0.0; 
stroke:#840000; stroke-width:100; stroke-opacity:1; 
stroke-linecap:round; stroke-linejoin:round;">
</g>
<g style="fill:#840000; fill-opacity:0.0; 
stroke:#840000; stroke-width:60; stroke-opacity:1; 
stroke-linecap:round; stroke-linejoin:round;">
<path d="M82680 4720
L82680 3940
" />
</g>
<g style="fill:#840000; fill-opacity:0.0; 
stroke:#840000; stroke-width:100; stroke-opacity:1; 
stroke-linecap:round; stroke-linejoin:round;">
</g>
<g style="fill:#840000; fill-opacity:0.0; 
stroke:#840000; stroke-width:60; stroke-opacity:1; 
stroke-linecap:round; stroke-linejoin:round;">
<path d="M102360 4720
L102360 3940
" />
</g>
<g style="fill:#840000; fill-opacity:0.0; 
stroke:#840000; stroke-width:100; stroke-opacity:1; 
stroke-linecap:round; stroke-linejoin:round;">
</g>
<g style="fill:#840000; fill-opacity:0.0; 
stroke:#840000; stroke-width:60; stroke-opacity:1; 
stroke-linecap:round; stroke-linejoin:round;">
<text x="13780" y="4580"
textLength="550" font-size="680" lengthAdjust="spacingAndGlyphs"
text-anchor="start" opacity="0">1</text>
<path d="M14190 4560
L13900 4560
" />
<path d="M14050 4560
L14050 4050
L14000 4120
L13950 4170
L13900 4190
" />
</g>
<g style="fill:#840000; fill-opacity:0.0; 
stroke:#840000; stroke-width:100; stroke-opacity:1; 
stroke-linecap:round; stroke-linejoin:round;">
</g>
<g style="fill:#840000; fill-opacity:0.0; 
stroke:#840000; stroke-width:60; stroke-opacity:1; 
stroke-linecap:round; stroke-linejoin:round;">
<text x="33460" y="4580"
textLength="550" font-size="680" lengthAdjust="spacingAndGlyphs"
text-anchor="start" opacity="0">2</text>
<path d="M33580 4090
L33610 4070
L33660 4050
L33780 4050
L33830 4070
L33850 4090
L33870 4140
L33870 4190
L33850 4260
L33560 4560
L33870 4560
" />
</g>
<g style="fill:#840000; fill-opacity:0.0; 
stroke:#840000; stroke-width:100; stroke-opacity:1; 
stroke-linecap:round; stroke-linejoin:round;">
</g>
<g style="fill:#840000; fill-opacity:0.0; 
stroke:#840000; stroke-width:60; stroke-opacity:1; 
stroke-linecap:round; stroke-linejoin:round;">
<text x="53150" y="4580"
textLength="550" font-size="680" lengthAdjust="spacingAndGlyphs"
text-anchor="start" opacity="0">3</text>
<path d="M53250 4050
L53560 4050
L53390 4240
L53470 4240
L53520 4260
L53540 4290
L53560 4340
L53560 4460
L53540 4510
L53520 4530
L53470 4560
L53320 4560
L53270 4530
L53250 4510
" />
</g>
<g style="fill:#840000; fill-opacity:0.0; 
stroke:#840000; stroke-width:100; stroke-opacity:1; 
stroke-linecap:round; stroke-linejoin:round;">
</g>
<g style="fill:#840000; fill-opacity:0.0; 
stroke:#840000; stroke-width:60; stroke-opacity:1; 
stroke-linecap:round; stroke-linejoin:round;">
<text x="72830" y="4580"
textLength="550" font-size="680" lengthAdjust="spacingAndGlyphs"
text-anchor="start" opacity="0">4</text>
<path d="M73200 4220
L73200 4560
" />
<path d="M73070 4020
L72950 4390
L73270 4390
" />
</g>
<g style="fill:#840000; fill-opacity:0.0; 
stroke:#840000; stroke-width:100; stroke-opacity:1; 
stroke-linecap:round; stroke-linejoin:round;">
</g>
<g style="fill:#840000; fill-opacity:0.0; 
stroke:#840000; stroke-width:60; stroke-opacity:1; 
stroke-linecap:round; stroke-linejoin:round;">
<text x="92520" y="4580"
textLength="550" font-size="680" lengthAdjust="spacingAndGlyphs"
text-anchor="start" opacity="0">5</text>
<path d="M92910 4050
L92670 4050
L92640 4290
L92670 4260
L92720 4240
L92840 4240
L92890 4260
L92910 4290
L92930 4340
L92930 4460
L92910 4510
L92890 4530
L92840 4560
L92720 4560
L92670 4530
L92640 4510
" />
</g>
<g style="fill:#840000; fill-opacity:0.0; 
stroke:#840000; stroke-width:100; stroke-opacity:1; 
stroke-linecap:round; stroke-linejoin:round;">
</g>
<g style="fill:#840000; fill-opacity:0.0; 
stroke:#840000; stroke-width:60; stroke-opacity:1; 
stroke-linecap:round; stroke-linejoin:round;">
<text x="112200" y="4580"
textLength="550" font-size="680" lengthAdjust="spacingAndGlyphs"
text-anchor="start" opacity="0">6</text>
<path d="M112570 4050
L112470 4050
L112420 4070
L112400 4090
L112350 4170
L112320 4260
L112320 4460
L112350 4510
L112370 4530
L112420 4560
L112520 4560
L112570 4530
L112590 4510
L112610 4460
L112610 4340
L112590 4290
L112570 4260
L112520 4240
L112420 4240
L112370 4260
L112350 4290
L112320 4340
" />
</g>
<g style="fill:#840000; fill-opacity:0.0; 
stroke:#840000; stroke-width:100; stroke-opacity:1; 
stroke-linecap:round; stroke-linejoin:round;">
</g>
<g style="fill:#840000; fill-opacity:0.0; 
stroke:#840000; stroke-width:60; stroke-opacity:1; 
stroke-linecap:round; stroke-linejoin:round;">
<path d="M23620 77960
L23620 78740
" />
</g>
<g style="fill:#840000; fill-opacity:0.0; 
stroke:#840000; stroke-width:100; stroke-opacity:1; 
stroke-linecap:round; stroke-linejoin:round;">
</g>
<g style="fill:#840000; fill-opacity:0.0; 
stroke:#840000; stroke-width:60; stroke-opacity:1; 
stroke-linecap:round; stroke-linejoin:round;">
<path d="M43310 77960
L43310 78740
" />
</g>
<g style="fill:#840000; fill-opacity:0.0; 
stroke:#840000; stroke-width:100; stroke-opacity:1; 
stroke-linecap:round; stroke-linejoin:round;">
</g>
<g style="fill:#840000; fill-opacity:0.0; 
stroke:#840000; stroke-width:60; stroke-opacity:1; 
stroke-linecap:round; stroke-linejoin:round;">
<path d="M62990 77960
L62990 78740
" />
</g>
<g style="fill:#840000; fill-opacity:0.0; 
stroke:#840000; stroke-width:100; stroke-opacity:1; 
stroke-linecap:round; stroke-linejoin:round;">
</g>
<g style="fill:#840000; fill-opacity:0.0; 
stroke:#840000; stroke-width:60; stroke-opacity:1; 
stroke-linecap:round; stroke-linejoin:round;">
<path d="M82680 77960
L82680 78740
" />
</g>
<g style="fill:#840000; fill-opacity:0.0; 
stroke:#840000; stroke-width:100; stroke-opacity:1; 
stroke-linecap:round; stroke-linejoin:round;">
</g>
<g style="fill:#840000; fill-opacity:0.0; 
stroke:#840000; stroke-width:60; stroke-opacity:1; 
stroke-linecap:round; stroke-linejoin:round;">
<path d="M102360 77960
L102360 78740
" />
</g>
<g style="fill:#840000; fill-opacity:0.0; 
stroke:#840000; stroke-width:100; stroke-opacity:1; 
stroke-linecap:round; stroke-linejoin:round;">
</g>
<g style="fill:#840000; fill-opacity:0.0; 
stroke:#840000; stroke-width:60; stroke-opacity:1; 
stroke-linecap:round; stroke-linejoin:round;">
<text x="13780" y="78600"
textLength="550" font-size="680" lengthAdjust="spacingAndGlyphs"
text-anchor="start" opacity="0">1</text>
<path d="M14190 78580
L13900 78580
" />
<path d="M14050 78580
L14050 78070
L14000 78140
L13950 78190
L13900 78210
" />
</g>
<g style="fill:#840000; fill-opacity:0.0; 
stroke:#840000; stroke-width:100; stroke-opacity:1; 
stroke-linecap:round; stroke-linejoin:round;">
</g>
<g style="fill:#840000; fill-opacity:0.0; 
stroke:#840000; stroke-width:60; stroke-opacity:1; 
stroke-linecap:round; stroke-linejoin:round;">
<text x="33460" y="78600"
textLength="550" font-size="680" lengthAdjust="spacingAndGlyphs"
text-anchor="start" opacity="0">2</text>
<path d="M33580 78110
L33610 78090
L33660 78070
L33780 78070
L33830 78090
L33850 78110
L33870 78160
L33870 78210
L33850 78280
L33560 78580
L33870 78580
" />
</g>
<g style="fill:#840000; fill-opacity:0.0; 
stroke:#840000; stroke-width:100; stroke-opacity:1; 
stroke-linecap:round; stroke-linejoin:round;">
</g>
<g style="fill:#840000; fill-opacity:0.0; 
stroke:#840000; stroke-width:60; stroke-opacity:1; 
stroke-linecap:round; stroke-linejoin:round;">
<text x="53150" y="78600"
textLength="550" font-size="680" lengthAdjust="spacingAndGlyphs"
text-anchor="start" opacity="0">3</text>
<path d="M53250 78070
L53560 78070
L53390 78260
L53470 78260
L53520 78280
L53540 78310
L53560 78360
L53560 78480
L53540 78530
L53520 78550
L53470 78580
L53320 78580
L53270 78550
L53250 78530
" />
</g>
<g style="fill:#840000; fill-opacity:0.0; 
stroke:#840000; stroke-width:100; stroke-opacity:1; 
stroke-linecap:round; stroke-linejoin:round;">
</g>
<g style="fill:#840000; fill-opacity:0.0; 
stroke:#840000; stroke-width:60; stroke-opacity:1; 
stroke-linecap:round; stroke-linejoin:round;">
<text x="72830" y="78600"
textLength="550" font-size="680" lengthAdjust="spacingAndGlyphs"
text-anchor="start" opacity="0">4</text>
<path d="M73200 78240
L73200 78580
" />
<path d="M73070 78040
L72950 78410
L73270 78410
" />
</g>
<g style="fill:#840000; fill-opacity:0.0; 
stroke:#840000; stroke-width:100; stroke-opacity:1; 
stroke-linecap:round; stroke-linejoin:round;">
</g>
<g style="fill:#840000; fill-opacity:0.0; 
stroke:#840000; stroke-width:60; stroke-opacity:1; 
stroke-linecap:round; stroke-linejoin:round;">
<text x="92520" y="78600"
textLength="550" font-size="680" lengthAdjust="spacingAndGlyphs"
text-anchor="start" opacity="0">5</text>
<path d="M92910 78070
L92670 78070
L92640 78310
L92670 78280
L92720 78260
L92840 78260
L92890 78280
L92910 78310
L92930 78360
L92930 78480
L92910 78530
L92890 78550
L92840 78580
L92720 78580
L92670 78550
L92640 78530
" />
</g>
<g style="fill:#840000; fill-opacity:0.0; 
stroke:#840000; stroke-width:100; stroke-opacity:1; 
stroke-linecap:round; stroke-linejoin:round;">
</g>
<g style="fill:#840000; fill-opacity:0.0; 
stroke:#840000; stroke-width:60; stroke-opacity:1; 
stroke-linecap:round; stroke-linejoin:round;">
<text x="112200" y="78600"
textLength="550" font-size="680" lengthAdjust="spacingAndGlyphs"
text-anchor="start" opacity="0">6</text>
<path d="M112570 78070
L112470 78070
L112420 78090
L112400 78110
L112350 78190
L112320 78280
L112320 78480
L112350 78530
L112370 78550
L112420 78580
L112520 78580
L112570 78550
L112590 78530
L112610 78480
L112610 78360
L112590 78310
L112570 78280
L112520 78260
L112420 78260
L112370 78280
L112350 78310
L112320 78360
" />
</g>
<g style="fill:#840000; fill-opacity:0.0; 
stroke:#840000; stroke-width:100; stroke-opacity:1; 
stroke-linecap:round; stroke-linejoin:round;">
</g>
<g style="fill:#840000; fill-opacity:0.0; 
stroke:#840000; stroke-width:60; stroke-opacity:1; 
stroke-linecap:round; stroke-linejoin:round;">
<path d="M3940 23620
L4720 23620
" />
</g>
<g style="fill:#840000; fill-opacity:0.0; 
stroke:#840000; stroke-width:100; stroke-opacity:1; 
stroke-linecap:round; stroke-linejoin:round;">
</g>
<g style="fill:#840000; fill-opacity:0.0; 
stroke:#840000; stroke-width:60; stroke-opacity:1; 
stroke-linecap:round; stroke-linejoin:round;">
<path d="M3940 43310
L4720 43310
" />
</g>
<g style="fill:#840000; fill-opacity:0.0; 
stroke:#840000; stroke-width:100; stroke-opacity:1; 
stroke-linecap:round; stroke-linejoin:round;">
</g>
<g style="fill:#840000; fill-opacity:0.0; 
stroke:#840000; stroke-width:60; stroke-opacity:1; 
stroke-linecap:round; stroke-linejoin:round;">
<path d="M3940 62990
L4720 62990
" />
</g>
<g style="fill:#840000; fill-opacity:0.0; 
stroke:#840000; stroke-width:100; stroke-opacity:1; 
stroke-linecap:round; stroke-linejoin:round;">
</g>
<g style="fill:#840000; fill-opacity:0.0; 
stroke:#840000; stroke-width:60; stroke-opacity:1; 
stroke-linecap:round; stroke-linejoin:round;">
<text x="4330" y="14030"
textLength="500" font-size="680" lengthAdjust="spacingAndGlyphs"
text-anchor="middle" opacity="0">A</text>
<path d="M4200 13860
L4450 13860
" />
<path d="M4160 14010
L4330 13500
L4500 14010
" />
</g>
<g style="fill:#840000; fill-opacity:0.0; 
stroke:#840000; stroke-width:100; stroke-opacity:1; 
stroke-linecap:round; stroke-linejoin:round;">
</g>
<g style="fill:#840000; fill-opacity:0.0; 
stroke:#840000; stroke-width:60; stroke-opacity:1; 
stroke-linecap:round; stroke-linejoin:round;">
<text x="4330" y="33710"
textLength="570" font-size="680" lengthAdjust="spacingAndGlyphs"
text-anchor="middle" opacity="0">B</text>
<path d="M4360 33420
L4430 33440
L4460 33470
L4480 33520
L4480 33590
L4460 33640
L4430 33660
L4390 33690
L4190 33690
L4190 33180
L4360 33180
L4410 33200
L4430 33220
L4460 33270
L4460 33320
L4430 33370
L4410 33390
L4360 33420
L4190 33420
" />
</g>
<g style="fill:#840000; fill-opacity:0.0; 
stroke:#840000; stroke-width:100; stroke-opacity:1; 
stroke-linecap:round; stroke-linejoin:round;">
</g>
<g style="fill:#840000; fill-opacity:0.0; 
stroke:#840000; stroke-width:60; stroke-opacity:1; 
stroke-linecap:round; stroke-linejoin:round;">
<text x="4330" y="53400"
textLength="570" font-size="680" lengthAdjust="spacingAndGlyphs"
text-anchor="middle" opacity="0">C</text>
<path d="M4480 53330
L4460 53350
L4390 53380
L4340 53380
L4260 53350
L4220 53300
L4190 53250
L4170 53160
L4170 53080
L4190 52990
L4220 52940
L4260 52890
L4340 52870
L4390 52870
L4460 52890
L4480 52910
" />
</g>
<g style="fill:#840000; fill-opacity:0.0; 
stroke:#840000; stroke-width:100; stroke-opacity:1; 
stroke-linecap:round; stroke-linejoin:round;">
</g>
<g style="fill:#840000; fill-opacity:0.0; 
stroke:#840000; stroke-width:60; stroke-opacity:1; 
stroke-linecap:round; stroke-linejoin:round;">
<text x="4330" y="73080"
textLength="570" font-size="680" lengthAdjust="spacingAndGlyphs"
text-anchor="middle" opacity="0">D</text>
<path d="M4190 73060
L4190 72550
L4310 72550
L4390 72570
L4430 72620
L4460 72670
L4480 72760
L4480 72840
L4460 72930
L4430 72980
L4390 73030
L4310 73060
L4190 73060
" />
</g>
<g style="fill:#840000; fill-opacity:0.0; 
stroke:#840000; stroke-width:100; stroke-opacity:1; 
stroke-linecap:round; stroke-linejoin:round;">
</g>
<g style="fill:#840000; fill-opacity:0.0; 
stroke:#840000; stroke-width:60; stroke-opacity:1; 
stroke-linecap:round; stroke-linejoin:round;">
<path d="M112990 23620
L112210 23620
" />
</g>
<g style="fill:#840000; fill-opacity:0.0; 
stroke:#840000; stroke-width:100; stroke-opacity:1; 
stroke-linecap:round; stroke-linejoin:round;">
</g>
<g style="fill:#840000; fill-opacity:0.0; 
stroke:#840000; stroke-width:60; stroke-opacity:1; 
stroke-linecap:round; stroke-linejoin:round;">
<path d="M112990 43310
L112210 43310
" />
</g>
<g style="fill:#840000; fill-opacity:0.0; 
stroke:#840000; stroke-width:100; stroke-opacity:1; 
stroke-linecap:round; stroke-linejoin:round;">
</g>
<g style="fill:#840000; fill-opacity:0.0; 
stroke:#840000; stroke-width:60; stroke-opacity:1; 
stroke-linecap:round; stroke-linejoin:round;">
<path d="M112990 62990
L112210 62990
" />
</g>
<g style="fill:#840000; fill-opacity:0.0; 
stroke:#840000; stroke-width:100; stroke-opacity:1; 
stroke-linecap:round; stroke-linejoin:round;">
</g>
<g style="fill:#840000; fill-opacity:0.0; 
stroke:#840000; stroke-width:60; stroke-opacity:1; 
stroke-linecap:round; stroke-linejoin:round;">
<text x="112600" y="14030"
textLength="500" font-size="680" lengthAdjust="spacingAndGlyphs"
text-anchor="middle" opacity="0">A</text>
<path d="M112470 13860
L112720 13860
" />
<path d="M112430 14010
L112600 13500
L112770 14010
" />
</g>
<g style="fill:#840000; fill-opacity:0.0; 
stroke:#840000; stroke-width:100; stroke-opacity:1; 
stroke-linecap:round; stroke-linejoin:round;">
</g>
<g style="fill:#840000; fill-opacity:0.0; 
stroke:#840000; stroke-width:60; stroke-opacity:1; 
stroke-linecap:round; stroke-linejoin:round;">
<text x="112600" y="33710"
textLength="570" font-size="680" lengthAdjust="spacingAndGlyphs"
text-anchor="middle" opacity="0">B</text>
<path d="M112630 33420
L112700 33440
L112730 33470
L112750 33520
L112750 33590
L112730 33640
L112700 33660
L112660 33690
L112460 33690
L112460 33180
L112630 33180
L112680 33200
L112700 33220
L112730 33270
L112730 33320
L112700 33370
L112680 33390
L112630 33420
L112460 33420
" />
</g>
<g style="fill:#840000; fill-opacity:0.0; 
stroke:#840000; stroke-width:100; stroke-opacity:1; 
stroke-linecap:round; stroke-linejoin:round;">
</g>
<g style="fill:#840000; fill-opacity:0.0; 
stroke:#840000; stroke-width:60; stroke-opacity:1; 
stroke-linecap:round; stroke-linejoin:round;">
<text x="112600" y="53400"
textLength="570" font-size="680" lengthAdjust="spacingAndGlyphs"
text-anchor="middle" opacity="0">C</text>
<path d="M112750 53330
L112730 53350
L112660 53380
L112610 53380
L112530 53350
L112490 53300
L112460 53250
L112440 53160
L112440 53080
L112460 52990
L112490 52940
L112530 52890
L112610 52870
L112660 52870
L112730 52890
L112750 52910
" />
</g>
<g style="fill:#840000; fill-opacity:0.0; 
stroke:#840000; stroke-width:100; stroke-opacity:1; 
stroke-linecap:round; stroke-linejoin:round;">
</g>
<g style="fill:#840000; fill-opacity:0.0; 
stroke:#840000; stroke-width:60; stroke-opacity:1; 
stroke-linecap:round; stroke-linejoin:round;">
<text x="112600" y="73080"
textLength="570" font-size="680" lengthAdjust="spacingAndGlyphs"
text-anchor="middle" opacity="0">D</text>
<path d="M112460 73060
L112460 72550
L112580 72550
L112660 72570
L112700 72620
L112730 72670
L112750 72760
L112750 72840
L112730 72930
L112700 72980
L112660 73030
L112580 73060
L112460 73060
" />
</g>
<g style="fill:#840000; fill-opacity:0.0; 
stroke:#840000; stroke-width:100; stroke-opacity:1; 
stroke-linecap:round; stroke-linejoin:round;">
</g>
<g style="fill:#840000; fill-opacity:0.0; 
stroke:#840000; stroke-width:60; stroke-opacity:1; 
stroke-linecap:round; stroke-linejoin:round;">
<text x="78740" y="76320"
textLength="8710" font-size="780" lengthAdjust="spacingAndGlyphs"
text-anchor="start" opacity="0">Date: 2020-09-23</text>
<path d="M78910 76290
L78910 75700
L79050 75700
L79130 75730
L79190 75790
L79210 75840
L79240 75950
L79240 76040
L79210 76150
L79190 76210
L79130 76260
L79050 76290
L78910 76290
" />
<path d="M79750 76290
L79750 75980
L79720 75930
L79660 75900
L79550 75900
L79500 75930
" />
<path d="M79750 76260
L79690 76290
L79550 76290
L79500 76260
L79470 76210
L79470 76150
L79500 76100
L79550 76070
L79690 76070
L79750 76040
" />
<path d="M79950 75900
L80170 75900
" />
<path d="M80030 75700
L80030 76210
L80060 76260
L80110 76290
L80170 76290
" />
<path d="M80590 76260
L80540 76290
L80420 76290
L80370 76260
L80340 76210
L80340 75980
L80370 75930
L80420 75900
L80540 75900
L80590 75930
L80620 75980
L80620 76040
L80340 76100
" />
<path d="M80870 76240
L80900 76260
L80870 76290
L80840 76260
L80870 76240
L80870 76290
" />
<path d="M80870 75930
L80900 75950
L80870 75980
L80840 75950
L80870 75930
L80870 75980
" />
<path d="M81570 75760
L81600 75730
L81660 75700
L81800 75700
L81860 75730
L81880 75760
L81910 75810
L81910 75870
L81880 75950
L81550 76290
L81910 76290
" />
<path d="M82280 75700
L82330 75700
L82390 75730
L82420 75760
L82450 75810
L82470 75930
L82470 76070
L82450 76180
L82420 76240
L82390 76260
L82330 76290
L82280 76290
L82220 76260
L82190 76240
L82160 76180
L82140 76070
L82140 75930
L82160 75810
L82190 75760
L82220 75730
L82280 75700
" />
<path d="M82700 75760
L82730 75730
L82780 75700
L82920 75700
L82980 75730
L83010 75760
L83040 75810
L83040 75870
L83010 75950
L82670 76290
L83040 76290
" />
<path d="M83400 75700
L83460 75700
L83510 75730
L83540 75760
L83570 75810
L83600 75930
L83600 76070
L83570 76180
L83540 76240
L83510 76260
L83460 76290
L83400 76290
L83340 76260
L83320 76240
L83290 76180
L83260 76070
L83260 75930
L83290 75810
L83320 75760
L83340 75730
L83400 75700
" />
<path d="M83850 76070
L84300 76070
" />
<path d="M84690 75700
L84750 75700
L84810 75730
L84830 75760
L84860 75810
L84890 75930
L84890 76070
L84860 76180
L84830 76240
L84810 76260
L84750 76290
L84690 76290
L84640 76260
L84610 76240
L84580 76180
L84550 76070
L84550 75930
L84580 75810
L84610 75760
L84640 75730
L84690 75700
" />
<path d="M85170 76290
L85280 76290
L85340 76260
L85370 76240
L85420 76150
L85450 76040
L85450 75810
L85420 75760
L85400 75730
L85340 75700
L85230 75700
L85170 75730
L85140 75760
L85110 75810
L85110 75950
L85140 76010
L85170 76040
L85230 76070
L85340 76070
L85400 76040
L85420 76010
L85450 75950
" />
<path d="M85700 76070
L86150 76070
" />
<path d="M86410 75760
L86440 75730
L86490 75700
L86630 75700
L86690 75730
L86720 75760
L86740 75810
L86740 75870
L86720 75950
L86380 76290
L86740 76290
" />
<path d="M86940 75700
L87310 75700
L87110 75930
L87190 75930
L87250 75950
L87280 75980
L87310 76040
L87310 76180
L87280 76240
L87250 76260
L87190 76290
L87030 76290
L86970 76260
L86940 76240
" />
</g>
<g style="fill:#840000; fill-opacity:0.0; 
stroke:#840000; stroke-width:100; stroke-opacity:1; 
stroke-linecap:round; stroke-linejoin:round;">
</g>
<g style="fill:#840000; fill-opacity:0.0; 
stroke:#840000; stroke-width:60; stroke-opacity:1; 
stroke-linecap:round; stroke-linejoin:round;">
<path d="M69690 76580
L112210 76580
" />
</g>
<g style="fill:#840000; fill-opacity:0.0; 
stroke:#840000; stroke-width:100; stroke-opacity:1; 
stroke-linecap:round; stroke-linejoin:round;">
</g>
<g style="fill:#840000; fill-opacity:0.0; 
stroke:#840000; stroke-width:60; stroke-opacity:1; 
stroke-linecap:round; stroke-linejoin:round;">
<text x="70080" y="77420"
textLength="23240" font-size="780" lengthAdjust="spacingAndGlyphs"
text-anchor="start" opacity="0">KiCad E.D.A.  kicad 5.1.6-c6e7f7d~87~ubuntu18.04.1</text>
<path d="M70250 77390
L70250 76800
" />
<path d="M70580 77390
L70330 77050
" />
<path d="M70580 76800
L70250 77140
" />
<path d="M70840 77390
L70840 77000
" />
<path d="M70840 76800
L70810 76830
L70840 76860
L70860 76830
L70840 76800
L70840 76860
" />
<path d="M71450 77340
L71430 77360
L71340 77390
L71290 77390
L71200 77360
L71140 77310
L71120 77250
L71090 77140
L71090 77050
L71120 76940
L71140 76890
L71200 76830
L71290 76800
L71340 76800
L71430 76830
L71450 76860
" />
<path d="M71960 77390
L71960 77080
L71930 77030
L71880 77000
L71760 77000
L71710 77030
" />
<path d="M71960 77360
L71900 77390
L71760 77390
L71710 77360
L71680 77310
L71680 77250
L71710 77200
L71760 77170
L71900 77170
L71960 77140
" />
<path d="M72490 77390
L72490 76800
" />
<path d="M72490 77360
L72440 77390
L72320 77390
L72270 77360
L72240 77340
L72210 77280
L72210 77110
L72240 77050
L72270 77030
L72320 77000
L72440 77000
L72490 77030
" />
<path d="M73220 77080
L73420 77080
" />
<path d="M73500 77390
L73220 77390
L73220 76800
L73500 76800
" />
<path d="M73760 77340
L73790 77360
L73760 77390
L73730 77360
L73760 77340
L73760 77390
" />
<path d="M74040 77390
L74040 76800
L74180 76800
L74260 76830
L74320 76890
L74350 76940
L74380 77050
L74380 77140
L74350 77250
L74320 77310
L74260 77360
L74180 77390
L74040 77390
" />
<path d="M74630 77340
L74660 77360
L74630 77390
L74600 77360
L74630 77340
L74630 77390
" />
<path d="M74880 77220
L75160 77220
" />
<path d="M74830 77390
L75020 76800
L75220 77390
" />
<path d="M75420 77340
L75440 77360
L75420 77390
L75390 77360
L75420 77340
L75420 77390
" />
<path d="M76600 77390
L76600 76800
" />
<path d="M76650 77170
L76820 77390
" />
<path d="M76820 77000
L76600 77220
" />
<path d="M77070 77390
L77070 77000
" />
<path d="M77070 76800
L77040 76830
L77070 76860
L77100 76830
L77070 76800
L77070 76860
" />
<path d="M77610 77360
L77550 77390
L77440 77390
L77380 77360
L77350 77340
L77330 77280
L77330 77110
L77350 77050
L77380 77030
L77440 77000
L77550 77000
L77610 77030
" />
<path d="M78110 77390
L78110 77080
L78080 77030
L78030 77000
L77920 77000
L77860 77030
" />
<path d="M78110 77360
L78060 77390
L77920 77390
L77860 77360
L77830 77310
L77830 77250
L77860 77200
L77920 77170
L78060 77170
L78110 77140
" />
<path d="M78650 77390
L78650 76800
" />
<path d="M78650 77360
L78590 77390
L78480 77390
L78420 77360
L78390 77340
L78370 77280
L78370 77110
L78390 77050
L78420 77030
L78480 77000
L78590 77000
L78650 77030
" />
<path d="M79660 76800
L79380 76800
L79350 77080
L79380 77050
L79430 77030
L79570 77030
L79630 77050
L79660 77080
L79690 77140
L79690 77280
L79660 77340
L79630 77360
L79570 77390
L79430 77390
L79380 77360
L79350 77340
" />
<path d="M79940 77340
L79970 77360
L79940 77390
L79910 77360
L79940 77340
L79940 77390
" />
<path d="M80530 77390
L80190 77390
" />
<path d="M80360 77390
L80360 76800
L80300 76890
L80250 76940
L80190 76970
" />
<path d="M80780 77340
L80810 77360
L80780 77390
L80750 77360
L80780 77340
L80780 77390
" />
<path d="M81320 76800
L81200 76800
L81150 76830
L81120 76860
L81060 76940
L81030 77050
L81030 77280
L81060 77340
L81090 77360
L81150 77390
L81260 77390
L81320 77360
L81340 77340
L81370 77280
L81370 77140
L81340 77080
L81320 77050
L81260 77030
L81150 77030
L81090 77050
L81060 77080
L81030 77140
" />
<path d="M81620 77170
L82070 77170
" />
<path d="M82610 77360
L82550 77390
L82440 77390
L82380 77360
L82350 77340
L82330 77280
L82330 77110
L82350 77050
L82380 77030
L82440 77000
L82550 77000
L82610 77030
" />
<path d="M83110 76800
L83000 76800
L82940 76830
L82920 76860
L82860 76940
L82830 77050
L82830 77280
L82860 77340
L82890 77360
L82940 77390
L83060 77390
L83110 77360
L83140 77340
L83170 77280
L83170 77140
L83140 77080
L83110 77050
L83060 77030
L82940 77030
L82890 77050
L82860 77080
L82830 77140
" />
<path d="M83650 77360
L83590 77390
L83480 77390
L83420 77360
L83390 77310
L83390 77080
L83420 77030
L83480 77000
L83590 77000
L83650 77030
L83680 77080
L83680 77140
L83390 77200
" />
<path d="M83870 76800
L84270 76800
L84010 77390
" />
<path d="M84410 77000
L84630 77000
" />
<path d="M84490 77390
L84490 76890
L84520 76830
L84570 76800
L84630 76800
" />
<path d="M84770 76800
L85160 76800
L84910 77390
" />
<path d="M85640 77390
L85640 76800
" />
<path d="M85640 77360
L85590 77390
L85470 77390
L85420 77360
L85390 77340
L85360 77280
L85360 77110
L85390 77050
L85420 77030
L85470 77000
L85590 77000
L85640 77030
" />
<path d="M85780 76640
L86340 76640
" />
<path d="M86010 77050
L85950 77030
L85920 77000
L85890 76940
L85890 76910
L85920 76860
L85950 76830
L86010 76800
L86120 76800
L86180 76830
L86200 76860
L86230 76910
L86230 76940
L86200 77000
L86180 77030
L86120 77050
L86010 77050
L85950 77080
L85920 77110
L85890 77170
L85890 77280
L85920 77340
L85950 77360
L86010 77390
L86120 77390
L86180 77360
L86200 77340
L86230 77280
L86230 77170
L86200 77110
L86180 77080
L86120 77050
" />
<path d="M86340 76640
L86910 76640
" />
<path d="M86430 76800
L86820 76800
L86570 77390
" />
<path d="M87300 77000
L87300 77390
" />
<path d="M87050 77000
L87050 77310
L87070 77360
L87130 77390
L87220 77390
L87270 77360
L87300 77340
" />
<path d="M87580 77390
L87580 76800
" />
<path d="M87580 77030
L87640 77000
L87750 77000
L87810 77030
L87830 77050
L87860 77110
L87860 77280
L87830 77340
L87810 77360
L87750 77390
L87640 77390
L87580 77360
" />
<path d="M88370 77000
L88370 77390
" />
<path d="M88110 77000
L88110 77310
L88140 77360
L88200 77390
L88280 77390
L88340 77360
L88370 77340
" />
<path d="M88650 77000
L88650 77390
" />
<path d="M88650 77050
L88680 77030
L88730 77000
L88820 77000
L88870 77030
L88900 77080
L88900 77390
" />
<path d="M89100 77000
L89320 77000
" />
<path d="M89180 76800
L89180 77310
L89210 77360
L89270 77390
L89320 77390
" />
<path d="M89770 77000
L89770 77390
" />
<path d="M89520 77000
L89520 77310
L89550 77360
L89600 77390
L89690 77390
L89740 77360
L89770 77340
" />
<path d="M90360 77390
L90020 77390
" />
<path d="M90190 77390
L90190 76800
L90140 76890
L90080 76940
L90020 76970
" />
<path d="M90700 77050
L90640 77030
L90610 77000
L90590 76940
L90590 76910
L90610 76860
L90640 76830
L90700 76800
L90810 76800
L90870 76830
L90900 76860
L90920 76910
L90920 76940
L90900 77000
L90870 77030
L90810 77050
L90700 77050
L90640 77080
L90610 77110
L90590 77170
L90590 77280
L90610 77340
L90640 77360
L90700 77390
L90810 77390
L90870 77360
L90900 77340
L90920 77280
L90920 77170
L90900 77110
L90870 77080
L90810 77050
" />
<path d="M91180 77340
L91200 77360
L91180 77390
L91150 77360
L91180 77340
L91180 77390
" />
<path d="M91570 76800
L91630 76800
L91680 76830
L91710 76860
L91740 76910
L91770 77030
L91770 77170
L91740 77280
L91710 77340
L91680 77360
L91630 77390
L91570 77390
L91510 77360
L91490 77340
L91460 77280
L91430 77170
L91430 77030
L91460 76910
L91490 76860
L91510 76830
L91570 76800
" />
<path d="M92270 77000
L92270 77390
" />
<path d="M92130 76770
L91990 77200
L92360 77200
" />
<path d="M92580 77340
L92610 77360
L92580 77390
L92550 77360
L92580 77340
L92580 77390
" />
<path d="M93170 77390
L92830 77390
" />
<path d="M93000 77390
L93000 76800
L92950 76890
L92890 76940
L92830 76970
" />
</g>
<g style="fill:#840000; fill-opacity:0.0; 
stroke:#840000; stroke-width:100; stroke-opacity:1; 
stroke-linecap:round; stroke-linejoin:round;">
</g>
<g style="fill:#840000; fill-opacity:0.0; 
stroke:#840000; stroke-width:60; stroke-opacity:1; 
stroke-linecap:round; stroke-linejoin:round;">
<path d="M69690 75400
L112210 75400
" />
</g>
<g style="fill:#840000; fill-opacity:0.0; 
stroke:#840000; stroke-width:100; stroke-opacity:1; 
stroke-linecap:round; stroke-linejoin:round;">
</g>
<g style="fill:#840000; fill-opacity:0.0; 
stroke:#840000; stroke-width:120; stroke-opacity:1; 
stroke-linecap:round; stroke-linejoin:round;">
<text x="103540" y="76320"
textLength="2840" font-size="780" lengthAdjust="spacingAndGlyphs"
text-anchor="start" opacity="0">Rev: A</text>
<path d="M104090 76290
L103890 76010
" />
<path d="M103750 76290
L103750 75700
L103980 75700
L104030 75730
L104060 75760
L104090 75810
L104090 75900
L104060 75950
L104030 75980
L103980 76010
L103750 76010
" />
<path d="M104570 76260
L104510 76290
L104400 76290
L104340 76260
L104320 76210
L104320 75980
L104340 75930
L104400 75900
L104510 75900
L104570 75930
L104600 75980
L104600 76040
L104320 76100
" />
<path d="M104790 75900
L104930 76290
L105070 75900
" />
<path d="M105300 76240
L105330 76260
L105300 76290
L105270 76260
L105300 76240
L105300 76290
" />
<path d="M105300 75930
L105330 75950
L105300 75980
L105270 75950
L105300 75930
L105300 75980
" />
<path d="M106000 76120
L106280 76120
" />
<path d="M105940 76290
L106140 75700
L106340 76290
" />
</g>
<g style="fill:#840000; fill-opacity:0.0; 
stroke:#840000; stroke-width:100; stroke-opacity:1; 
stroke-linecap:round; stroke-linejoin:round;">
</g>
<g style="fill:#840000; fill-opacity:0.0; 
stroke:#840000; stroke-width:60; stroke-opacity:1; 
stroke-linecap:round; stroke-linejoin:round;">
<text x="70080" y="76320"
textLength="3780" font-size="780" lengthAdjust="spacingAndGlyphs"
text-anchor="start" opacity="0">Size: A4</text>
<path d="M70220 76260
L70300 76290
L70440 76290
L70500 76260
L70530 76240
L70550 76180
L70550 76120
L70530 76070
L70500 76040
L70440 76010
L70330 75980
L70270 75950
L70250 75930
L70220 75870
L70220 75810
L70250 75760
L70270 75730
L70330 75700
L70470 75700
L70550 75730
" />
<path d="M70810 76290
L70810 75900
" />
<path d="M70810 75700
L70780 75730
L70810 75760
L70840 75730
L70810 75700
L70810 75760
" />
<path d="M71030 75900
L71340 75900
L71030 76290
L71340 76290
" />
<path d="M71790 76260
L71730 76290
L71620 76290
L71570 76260
L71540 76210
L71540 75980
L71570 75930
L71620 75900
L71730 75900
L71790 75930
L71820 75980
L71820 76040
L71540 76100
" />
<path d="M72070 76240
L72100 76260
L72070 76290
L72040 76260
L72070 76240
L72070 76290
" />
<path d="M72070 75930
L72100 75950
L72070 75980
L72040 75950
L72070 75930
L72070 75980
" />
<path d="M72770 76120
L73060 76120
" />
<path d="M72720 76290
L72910 75700
L73110 76290
" />
<path d="M73560 75900
L73560 76290
" />
<path d="M73420 75670
L73280 76100
L73650 76100
" />
</g>
<g style="fill:#840000; fill-opacity:0.0; 
stroke:#840000; stroke-width:100; stroke-opacity:1; 
stroke-linecap:round; stroke-linejoin:round;">
</g>
<g style="fill:#840000; fill-opacity:0.0; 
stroke:#840000; stroke-width:60; stroke-opacity:1; 
stroke-linecap:round; stroke-linejoin:round;">
<text x="103540" y="77420"
textLength="4470" font-size="780" lengthAdjust="spacingAndGlyphs"
text-anchor="start" opacity="0">Id: 15/15</text>
<path d="M103710 77390
L103710 76800
" />
<path d="M104240 77390
L104240 76800
" />
<path d="M104240 77360
L104180 77390
L104070 77390
L104010 77360
L103990 77340
L103960 77280
L103960 77110
L103990 77050
L104010 77030
L104070 77000
L104180 77000
L104240 77030
" />
<path d="M104520 77340
L104550 77360
L104520 77390
L104490 77360
L104520 77340
L104520 77390
" />
<path d="M104520 77030
L104550 77050
L104520 77080
L104490 77050
L104520 77030
L104520 77080
" />
<path d="M105560 77390
L105220 77390
" />
<path d="M105390 77390
L105390 76800
L105340 76890
L105280 76940
L105220 76970
" />
<path d="M106090 76800
L105810 76800
L105780 77080
L105810 77050
L105870 77030
L106010 77030
L106070 77050
L106090 77080
L106120 77140
L106120 77280
L106090 77340
L106070 77360
L106010 77390
L105870 77390
L105810 77360
L105780 77340
" />
<path d="M106800 76770
L106290 77530
" />
<path d="M107300 77390
L106960 77390
" />
<path d="M107130 77390
L107130 76800
L107080 76890
L107020 76940
L106960 76970
" />
<path d="M107840 76800
L107550 76800
L107530 77080
L107550 77050
L107610 77030
L107750 77030
L107810 77050
L107840 77080
L107860 77140
L107860 77280
L107840 77340
L107810 77360
L107750 77390
L107610 77390
L107550 77360
L107530 77340
" />
</g>
<g style="fill:#840000; fill-opacity:0.0; 
stroke:#840000; stroke-width:100; stroke-opacity:1; 
stroke-linecap:round; stroke-linejoin:round;">
</g>
<g style="fill:#840000; fill-opacity:0.0; 
stroke:#840000; stroke-width:60; stroke-opacity:1; 
stroke-linecap:round; stroke-linejoin:round;">
<path d="M69690 73820
L112210 73820
" />
</g>
<g style="fill:#840000; fill-opacity:0.0; 
stroke:#840000; stroke-width:100; stroke-opacity:1; 
stroke-linecap:round; stroke-linejoin:round;">
</g>
<g style="fill:#840000; fill-opacity:0.0; 
stroke:#840000; stroke-width:160; stroke-opacity:1; 
stroke-linecap:round; stroke-linejoin:round;">
<text x="70080" y="74920"
textLength="11730" font-size="1050" lengthAdjust="spacingAndGlyphs"
text-anchor="start" opacity="0">Title: Power Supply</text>
<path d="M70360 74090
L70810 74090
" />
<path d="M70480 74880
L70580 74090
" />
<path d="M70970 74880
L71040 74360
" />
<path d="M71070 74090
L71030 74130
L71060 74170
L71110 74130
L71070 74090
L71060 74170
" />
<path d="M71300 74360
L71600 74360
" />
<path d="M71450 74090
L71360 74770
L71390 74840
L71460 74880
L71540 74880
" />
<path d="M71910 74880
L71840 74840
L71820 74770
L71900 74090
" />
<path d="M72520 74840
L72440 74880
L72290 74880
L72220 74840
L72190 74770
L72230 74470
L72280 74390
L72360 74360
L72510 74360
L72580 74390
L72610 74470
L72600 74540
L72210 74620
" />
<path d="M72900 74810
L72930 74840
L72890 74880
L72860 74840
L72900 74810
L72890 74880
" />
<path d="M72950 74390
L72990 74430
L72940 74470
L72910 74430
L72950 74390
L72940 74470
" />
<path d="M73870 74880
L73970 74090
L74270 74090
L74340 74130
L74370 74170
L74400 74240
L74390 74360
L74340 74430
L74300 74470
L74220 74510
L73920 74510
" />
<path d="M74770 74880
L74700 74840
L74670 74810
L74640 74730
L74670 74510
L74720 74430
L74760 74390
L74840 74360
L74950 74360
L75020 74390
L75060 74430
L75080 74510
L75060 74730
L75010 74810
L74970 74840
L74890 74880
L74770 74880
" />
<path d="M75370 74360
L75450 74880
L75650 74510
L75750 74880
L75970 74360
" />
<path d="M76510 74840
L76430 74880
L76280 74880
L76210 74840
L76180 74770
L76220 74470
L76260 74390
L76340 74360
L76490 74360
L76560 74390
L76590 74470
L76580 74540
L76200 74620
" />
<path d="M76880 74880
L76950 74360
" />
<path d="M76930 74510
L76970 74430
L77020 74390
L77100 74360
L77170 74360
" />
<path d="M77940 74840
L78050 74880
L78230 74880
L78310 74840
L78360 74810
L78400 74730
L78410 74660
L78380 74580
L78350 74540
L78280 74510
L78140 74470
L78060 74430
L78030 74390
L78000 74320
L78010 74240
L78060 74170
L78100 74130
L78180 74090
L78370 74090
L78480 74130
" />
<path d="M79130 74360
L79060 74880
" />
<path d="M78790 74360
L78740 74770
L78770 74840
L78840 74880
L78950 74880
L79030 74840
L79070 74810
" />
<path d="M79500 74360
L79410 75150
" />
<path d="M79500 74390
L79580 74360
L79730 74360
L79800 74390
L79830 74430
L79860 74510
L79830 74730
L79790 74810
L79740 74840
L79660 74880
L79510 74880
L79440 74840
" />
<path d="M80220 74360
L80120 75150
" />
<path d="M80210 74390
L80290 74360
L80440 74360
L80510 74390
L80550 74430
L80580 74510
L80550 74730
L80500 74810
L80460 74840
L80380 74880
L80230 74880
L80160 74840
" />
<path d="M80980 74880
L80910 74840
L80880 74770
L80970 74090
" />
<path d="M81270 74360
L81390 74880
" />
<path d="M81650 74360
L81390 74880
L81300 75070
L81250 75110
L81170 75150
" />
</g>
<g style="fill:#840000; fill-opacity:0.0; 
stroke:#840000; stroke-width:100; stroke-opacity:1; 
stroke-linecap:round; stroke-linejoin:round;">
</g>
<g style="fill:#840000; fill-opacity:0.0; 
stroke:#840000; stroke-width:60; stroke-opacity:1; 
stroke-linecap:round; stroke-linejoin:round;">
<text x="70080" y="73400"
textLength="9790" font-size="780" lengthAdjust="spacingAndGlyphs"
text-anchor="start" opacity="0">File: Pos3V3_PSU.sch</text>
<path d="M70440 73060
L70250 73060
" />
<path d="M70250 73370
L70250 72780
L70530 72780
" />
<path d="M70750 73370
L70750 72980
" />
<path d="M70750 72780
L70720 72810
L70750 72840
L70780 72810
L70750 72780
L70750 72840
" />
<path d="M71120 73370
L71060 73340
L71030 73290
L71030 72780
" />
<path d="M71570 73340
L71510 73370
L71400 73370
L71340 73340
L71310 73290
L71310 73060
L71340 73010
L71400 72980
L71510 72980
L71570 73010
L71590 73060
L71590 73120
L71310 73180
" />
<path d="M71850 73320
L71880 73340
L71850 73370
L71820 73340
L71850 73320
L71850 73370
" />
<path d="M71850 73010
L71880 73030
L71850 73060
L71820 73030
L71850 73010
L71850 73060
" />
<path d="M72580 73370
L72580 72780
L72800 72780
L72860 72810
L72890 72840
L72910 72890
L72910 72980
L72890 73030
L72860 73060
L72800 73090
L72580 73090
" />
<path d="M73250 73370
L73200 73340
L73170 73320
L73140 73260
L73140 73090
L73170 73030
L73200 73010
L73250 72980
L73340 72980
L73390 73010
L73420 73030
L73450 73090
L73450 73260
L73420 73320
L73390 73340
L73340 73370
L73250 73370
" />
<path d="M73670 73340
L73730 73370
L73840 73370
L73900 73340
L73930 73290
L73930 73260
L73900 73200
L73840 73180
L73760 73180
L73700 73150
L73670 73090
L73670 73060
L73700 73010
L73760 72980
L73840 72980
L73900 73010
" />
<path d="M74120 72780
L74490 72780
L74290 73010
L74380 73010
L74430 73030
L74460 73060
L74490 73120
L74490 73260
L74460 73320
L74430 73340
L74380 73370
L74210 73370
L74150 73340
L74120 73320
" />
<path d="M74660 72780
L74850 73370
L75050 72780
" />
<path d="M75190 72780
L75560 72780
L75360 73010
L75440 73010
L75500 73030
L75530 73060
L75560 73120
L75560 73260
L75530 73320
L75500 73340
L75440 73370
L75270 73370
L75220 73340
L75190 73320
" />
<path d="M75670 73430
L76120 73430
" />
<path d="M76260 73370
L76260 72780
L76480 72780
L76540 72810
L76570 72840
L76600 72890
L76600 72980
L76570 73030
L76540 73060
L76480 73090
L76260 73090
" />
<path d="M76820 73340
L76900 73370
L77040 73370
L77100 73340
L77130 73320
L77160 73260
L77160 73200
L77130 73150
L77100 73120
L77040 73090
L76930 73060
L76880 73030
L76850 73010
L76820 72950
L76820 72890
L76850 72840
L76880 72810
L76930 72780
L77070 72780
L77160 72810
" />
<path d="M77410 72780
L77410 73260
L77440 73320
L77470 73340
L77520 73370
L77630 73370
L77690 73340
L77720 73320
L77750 73260
L77750 72780
" />
<path d="M78030 73320
L78060 73340
L78030 73370
L78000 73340
L78030 73320
L78030 73370
" />
<path d="M78280 73340
L78340 73370
L78450 73370
L78510 73340
L78530 73290
L78530 73260
L78510 73200
L78450 73180
L78370 73180
L78310 73150
L78280 73090
L78280 73060
L78310 73010
L78370 72980
L78450 72980
L78510 73010
" />
<path d="M79040 73340
L78980 73370
L78870 73370
L78810 73340
L78790 73320
L78760 73260
L78760 73090
L78790 73030
L78810 73010
L78870 72980
L78980 72980
L79040 73010
" />
<path d="M79290 73370
L79290 72780
" />
<path d="M79550 73370
L79550 73060
L79520 73010
L79460 72980
L79380 72980
L79320 73010
L79290 73030
" />
</g>
<g style="fill:#840000; fill-opacity:0.0; 
stroke:#840000; stroke-width:100; stroke-opacity:1; 
stroke-linecap:round; stroke-linejoin:round;">
</g>
<g style="fill:#840000; fill-opacity:0.0; 
stroke:#840000; stroke-width:60; stroke-opacity:1; 
stroke-linecap:round; stroke-linejoin:round;">
<path d="M69690 71460
L112210 71460
" />
</g>
<g style="fill:#840000; fill-opacity:0.0; 
stroke:#840000; stroke-width:100; stroke-opacity:1; 
stroke-linecap:round; stroke-linejoin:round;">
</g>
<g style="fill:#840000; fill-opacity:0.0; 
stroke:#840000; stroke-width:60; stroke-opacity:1; 
stroke-linecap:round; stroke-linejoin:round;">
<text x="70080" y="72340"
textLength="10010" font-size="780" lengthAdjust="spacingAndGlyphs"
text-anchor="start" opacity="0">Sheet: /PowerSupply/</text>
<path d="M70220 72280
L70300 72310
L70440 72310
L70500 72280
L70530 72260
L70550 72200
L70550 72140
L70530 72090
L70500 72060
L70440 72030
L70330 72000
L70270 71970
L70250 71950
L70220 71890
L70220 71830
L70250 71780
L70270 71750
L70330 71720
L70470 71720
L70550 71750
" />
<path d="M70810 72310
L70810 71720
" />
<path d="M71060 72310
L71060 72000
L71030 71950
L70980 71920
L70890 71920
L70840 71950
L70810 71970
" />
<path d="M71570 72280
L71510 72310
L71400 72310
L71340 72280
L71310 72230
L71310 72000
L71340 71950
L71400 71920
L71510 71920
L71570 71950
L71590 72000
L71590 72060
L71310 72120
" />
<path d="M72070 72280
L72020 72310
L71900 72310
L71850 72280
L71820 72230
L71820 72000
L71850 71950
L71900 71920
L72020 71920
L72070 71950
L72100 72000
L72100 72060
L71820 72120
" />
<path d="M72270 71920
L72490 71920
" />
<path d="M72350 71720
L72350 72230
L72380 72280
L72440 72310
L72490 72310
" />
<path d="M72690 72260
L72720 72280
L72690 72310
L72660 72280
L72690 72260
L72690 72310
" />
<path d="M72690 71950
L72720 71970
L72690 72000
L72660 71970
L72690 71950
L72690 72000
" />
<path d="M73840 71690
L73340 72450
" />
<path d="M74040 72310
L74040 71720
L74260 71720
L74320 71750
L74350 71780
L74380 71830
L74380 71920
L74350 71970
L74320 72000
L74260 72030
L74040 72030
" />
<path d="M74710 72310
L74660 72280
L74630 72260
L74600 72200
L74600 72030
L74630 71970
L74660 71950
L74710 71920
L74800 71920
L74850 71950
L74880 71970
L74910 72030
L74910 72200
L74880 72260
L74850 72280
L74800 72310
L74710 72310
" />
<path d="M75110 71920
L75220 72310
L75330 72030
L75440 72310
L75560 71920
" />
<path d="M76010 72280
L75950 72310
L75840 72310
L75780 72280
L75750 72230
L75750 72000
L75780 71950
L75840 71920
L75950 71920
L76010 71950
L76030 72000
L76030 72060
L75750 72120
" />
<path d="M76290 72310
L76290 71920
" />
<path d="M76290 72030
L76310 71970
L76340 71950
L76400 71920
L76450 71920
" />
<path d="M76620 72280
L76710 72310
L76850 72310
L76900 72280
L76930 72260
L76960 72200
L76960 72140
L76930 72090
L76900 72060
L76850 72030
L76740 72000
L76680 71970
L76650 71950
L76620 71890
L76620 71830
L76650 71780
L76680 71750
L76740 71720
L76880 71720
L76960 71750
" />
<path d="M77470 71920
L77470 72310
" />
<path d="M77210 71920
L77210 72230
L77240 72280
L77300 72310
L77380 72310
L77440 72280
L77470 72260
" />
<path d="M77750 71920
L77750 72510
" />
<path d="M77750 71950
L77800 71920
L77920 71920
L77970 71950
L78000 71970
L78030 72030
L78030 72200
L78000 72260
L77970 72280
L77920 72310
L77800 72310
L77750 72280
" />
<path d="M78280 71920
L78280 72510
" />
<path d="M78280 71950
L78340 71920
L78450 71920
L78510 71950
L78530 71970
L78560 72030
L78560 72200
L78530 72260
L78510 72280
L78450 72310
L78340 72310
L78280 72280
" />
<path d="M78900 72310
L78840 72280
L78810 72230
L78810 71720
" />
<path d="M79070 71920
L79210 72310
" />
<path d="M79350 71920
L79210 72310
L79150 72450
L79120 72480
L79070 72510
" />
<path d="M79990 71690
L79490 72450
" />
</g>
<g style="fill:#840000; fill-opacity:0.0; 
stroke:#840000; stroke-width:100; stroke-opacity:1; 
stroke-linecap:round; stroke-linejoin:round;">
</g>
<g style="fill:#840000; fill-opacity:0.0; 
stroke:#840000; stroke-width:60; stroke-opacity:1; 
stroke-linecap:round; stroke-linejoin:round;">
<path d="M77560 75400
L77560 76580
" />
</g>
<g style="fill:#840000; fill-opacity:0.0; 
stroke:#840000; stroke-width:100; stroke-opacity:1; 
stroke-linecap:round; stroke-linejoin:round;">
</g>
<g style="fill:#840000; fill-opacity:0.0; 
stroke:#840000; stroke-width:60; stroke-opacity:1; 
stroke-linecap:round; stroke-linejoin:round;">
<path d="M102760 75400
L102760 77960
" />
</g>
<g style="fill:#840000; fill-opacity:0.0; 
stroke:#840000; stroke-width:0; stroke-opacity:1; 
stroke-linecap:round; stroke-linejoin:round;">
<g >
</g>
<g style="fill:#840000; fill-opacity:0.0; 
stroke:#840000; stroke-width:60; stroke-opacity:1; 
stroke-linecap:round; stroke-linejoin:round;">
<path style="fill:#840000; fill-opacity:0.0; 
stroke:#840000; stroke-width:60; stroke-opacity:1; 
stroke-linecap:round; stroke-linejoin:round;fill:none"
d="M 28500,24250
29500,24250
" /> 
</g>
<g style="fill:#840000; fill-opacity:0.0; 
stroke:#840000; stroke-width:100; stroke-opacity:1; 
stroke-linecap:round; stroke-linejoin:round;">
<path style="fill:#840000; fill-opacity:0.0; 
stroke:#840000; stroke-width:100; stroke-opacity:1; 
stroke-linecap:round; stroke-linejoin:round;fill:none"
d="M 28500,24750
28500,23750
29500,24250
Z" /> 
<path style="fill:#840000; fill-opacity:0.0; 
stroke:#840000; stroke-width:100; stroke-opacity:1; 
stroke-linecap:round; stroke-linejoin:round;fill:none"
d="M 29750,24500
29750,24750
29500,24750
29500,23750
29250,23750
29250,24000
" /> 
</g>
<g style="fill:#840000; fill-opacity:0.0; 
stroke:#840000; stroke-width:60; stroke-opacity:1; 
stroke-linecap:round; stroke-linejoin:round;">
<path d="M29500 24250
L30500 24250
" />
<path d="M28500 24250
L27500 24250
" />
</g>
<g style="fill:#008484; fill-opacity:0.0; 
stroke:#008484; stroke-width:60; stroke-opacity:1; 
stroke-linecap:round; stroke-linejoin:round;">
<text x="29000" y="22310"
textLength="1040" font-size="660" lengthAdjust="spacingAndGlyphs"
text-anchor="middle" opacity="0">D9</text>
<path d="M28630 22280
L28630 21780
L28750 21780
L28820 21810
L28860 21850
L28890 21900
L28910 22000
L28910 22070
L28890 22160
L28860 22210
L28820 22260
L28750 22280
L28630 22280
" />
<path d="M29150 22280
L29250 22280
L29290 22260
L29320 22230
L29360 22160
L29390 22070
L29390 21880
L29360 21830
L29340 21810
L29290 21780
L29200 21780
L29150 21810
L29130 21830
L29100 21880
L29100 22000
L29130 22040
L29150 22070
L29200 22090
L29290 22090
L29340 22070
L29360 22040
L29390 22000
" />
<text x="29000" y="23220"
textLength="5080" font-size="660" lengthAdjust="spacingAndGlyphs"
text-anchor="middle" opacity="0">B0520LW-RH</text>
<path d="M26770 22930
L26840 22950
L26860 22980
L26890 23020
L26890 23100
L26860 23140
L26840 23170
L26790 23190
L26600 23190
L26600 22690
L26770 22690
L26820 22720
L26840 22740
L26860 22790
L26860 22830
L26840 22880
L26820 22910
L26770 22930
L26600 22930
" />
<path d="M27200 22690
L27250 22690
L27290 22720
L27320 22740
L27340 22790
L27360 22880
L27360 23000
L27340 23100
L27320 23140
L27290 23170
L27250 23190
L27200 23190
L27150 23170
L27130 23140
L27100 23100
L27080 23000
L27080 22880
L27100 22790
L27130 22740
L27150 22720
L27200 22690
" />
<path d="M27820 22690
L27580 22690
L27550 22930
L27580 22910
L27630 22880
L27750 22880
L27790 22910
L27820 22930
L27840 22980
L27840 23100
L27820 23140
L27790 23170
L27750 23190
L27630 23190
L27580 23170
L27550 23140
" />
<path d="M28030 22740
L28050 22720
L28100 22690
L28220 22690
L28270 22720
L28290 22740
L28320 22790
L28320 22830
L28290 22910
L28010 23190
L28320 23190
" />
<path d="M28630 22690
L28670 22690
L28720 22720
L28750 22740
L28770 22790
L28790 22880
L28790 23000
L28770 23100
L28750 23140
L28720 23170
L28670 23190
L28630 23190
L28580 23170
L28550 23140
L28530 23100
L28510 23000
L28510 22880
L28530 22790
L28550 22740
L28580 22720
L28630 22690
" />
<path d="M29250 23190
L29010 23190
L29010 22690
" />
<path d="M29360 22690
L29480 23190
L29580 22830
L29670 23190
L29790 22690
" />
<path d="M29980 23000
L30360 23000
" />
<path d="M30890 23190
L30720 22950
" />
<path d="M30600 23190
L30600 22690
L30790 22690
L30840 22720
L30860 22740
L30890 22790
L30890 22860
L30860 22910
L30840 22930
L30790 22950
L30600 22950
" />
<path d="M31100 23190
L31100 22690
" />
<path d="M31100 22930
L31390 22930
" />
<path d="M31390 23190
L31390 22690
" />
</g>
</g>
<g style="fill:#008484; fill-opacity:0.0; 
stroke:#008484; stroke-width:0; stroke-opacity:1; 
stroke-linecap:round; stroke-linejoin:round;">
<g >
</g>
<g style="fill:#840000; fill-opacity:0.0; 
stroke:#840000; stroke-width:0; stroke-opacity:1; 
stroke-linecap:round; stroke-linejoin:round;">
</g>
<g style="fill:#FFFFC2; fill-opacity:0.0; 
stroke:#FFFFC2; stroke-width:0; stroke-opacity:1; 
stroke-linecap:round; stroke-linejoin:round;">
</g>
<g style="fill:#FFFFC2; fill-opacity:0.6; 
stroke:#FFFFC2; stroke-width:0; stroke-opacity:1; 
stroke-linecap:round; stroke-linejoin:round;">
<rect x="46250" y="23500" width="4000" height="2750" rx="0" />
</g>
<g style="fill:#840000; fill-opacity:0.6; 
stroke:#840000; stroke-width:0; stroke-opacity:1; 
stroke-linecap:round; stroke-linejoin:round;">
</g>
<g style="fill:#840000; fill-opacity:0.0; 
stroke:#840000; stroke-width:100; stroke-opacity:1; 
stroke-linecap:round; stroke-linejoin:round;">
<rect x="46250" y="23500" width="4000" height="2750" rx="0" />
<rect x="46250" y="23500" width="4000" height="2750" rx="0" />
</g>
<g style="fill:#840000; fill-opacity:0.0; 
stroke:#840000; stroke-width:60; stroke-opacity:1; 
stroke-linecap:round; stroke-linejoin:round;">
<path d="M46250 24250
L45250 24250
" />
</g>
<g style="fill:#008484; fill-opacity:0.0; 
stroke:#008484; stroke-width:60; stroke-opacity:1; 
stroke-linecap:round; stroke-linejoin:round;">
<text x="46350" y="24500"
textLength="730" font-size="660" lengthAdjust="spacingAndGlyphs"
text-anchor="start" opacity="0">VI</text>
<path d="M46420 23970
L46590 24470
L46760 23970
" />
<path d="M46920 24470
L46920 23970
" />
</g>
<g style="fill:#840000; fill-opacity:0.0; 
stroke:#840000; stroke-width:60; stroke-opacity:1; 
stroke-linecap:round; stroke-linejoin:round;">
<text x="45750" y="24150"
textLength="540" font-size="660" lengthAdjust="spacingAndGlyphs"
text-anchor="middle" opacity="0">1</text>
<path d="M45890 24120
L45600 24120
" />
<path d="M45750 24120
L45750 23620
L45700 23690
L45650 23740
L45600 23760
" />
<path d="M48250 26250
L48250 27250
" />
</g>
<g style="fill:#008484; fill-opacity:0.0; 
stroke:#008484; stroke-width:60; stroke-opacity:1; 
stroke-linecap:round; stroke-linejoin:round;">
<g transform="rotate(-90 48250 26150)">
<text x="48250" y="26400"
textLength="1580" font-size="660" lengthAdjust="spacingAndGlyphs"
text-anchor="start" opacity="0">GND</text>
</g>
<path d="M48000 25730
L47970 25780
L47970 25850
L48000 25920
L48040 25970
L48090 26000
L48190 26020
L48260 26020
L48350 26000
L48400 25970
L48450 25920
L48470 25850
L48470 25810
L48450 25730
L48420 25710
L48260 25710
L48260 25810
" />
<path d="M48470 25500
L47970 25500
L48470 25210
L47970 25210
" />
<path d="M48470 24970
L47970 24970
L47970 24850
L48000 24780
L48040 24730
L48090 24710
L48190 24690
L48260 24690
L48350 24710
L48400 24730
L48450 24780
L48470 24850
L48470 24970
" />
</g>
<g style="fill:#840000; fill-opacity:0.0; 
stroke:#840000; stroke-width:60; stroke-opacity:1; 
stroke-linecap:round; stroke-linejoin:round;">
<g transform="rotate(-90 48150 26750)">
<text x="48150" y="26750"
textLength="540" font-size="660" lengthAdjust="spacingAndGlyphs"
text-anchor="middle" opacity="0">2</text>
</g>
<path d="M47670 26890
L47650 26860
L47620 26820
L47620 26700
L47650 26650
L47670 26630
L47720 26600
L47760 26600
L47840 26630
L48120 26910
L48120 26600
" />
<path d="M50250 24250
L51250 24250
" />
</g>
<g style="fill:#008484; fill-opacity:0.0; 
stroke:#008484; stroke-width:60; stroke-opacity:1; 
stroke-linecap:round; stroke-linejoin:round;">
<text x="50150" y="24500"
textLength="1010" font-size="660" lengthAdjust="spacingAndGlyphs"
text-anchor="end" opacity="0">VO</text>
<path d="M49210 23970
L49380 24470
L49540 23970
" />
<path d="M49810 23970
L49900 23970
L49950 24000
L50000 24040
L50020 24140
L50020 24300
L50000 24400
L49950 24450
L49900 24470
L49810 24470
L49760 24450
L49710 24400
L49690 24300
L49690 24140
L49710 24040
L49760 24000
L49810 23970
" />
</g>
<g style="fill:#840000; fill-opacity:0.0; 
stroke:#840000; stroke-width:60; stroke-opacity:1; 
stroke-linecap:round; stroke-linejoin:round;">
<text x="50750" y="24150"
textLength="540" font-size="660" lengthAdjust="spacingAndGlyphs"
text-anchor="middle" opacity="0">3</text>
<path d="M50580 23620
L50890 23620
L50720 23810
L50790 23810
L50840 23840
L50860 23860
L50890 23910
L50890 24030
L50860 24070
L50840 24100
L50790 24120
L50650 24120
L50600 24100
L50580 24070
" />
</g>
<g style="fill:#008484; fill-opacity:0.0; 
stroke:#008484; stroke-width:60; stroke-opacity:1; 
stroke-linecap:round; stroke-linejoin:round;">
<text x="48250" y="22100"
textLength="1060" font-size="660" lengthAdjust="spacingAndGlyphs"
text-anchor="middle" opacity="0">U1</text>
<path d="M47860 21570
L47860 21980
L47890 22020
L47910 22050
L47960 22070
L48050 22070
L48100 22050
L48130 22020
L48150 21980
L48150 21570
" />
<path d="M48650 22070
L48360 22070
" />
<path d="M48510 22070
L48510 21570
L48460 21640
L48410 21690
L48360 21710
" />
<text x="48250" y="23010"
textLength="9680" font-size="660" lengthAdjust="spacingAndGlyphs"
text-anchor="middle" opacity="0">MCP1703A-3302_SOT223</text>
<path d="M43550 22980
L43550 22480
L43720 22840
L43890 22480
L43890 22980
" />
<path d="M44410 22930
L44390 22960
L44320 22980
L44270 22980
L44200 22960
L44150 22910
L44130 22860
L44100 22770
L44100 22700
L44130 22600
L44150 22550
L44200 22510
L44270 22480
L44320 22480
L44390 22510
L44410 22530
" />
<path d="M44630 22980
L44630 22480
L44820 22480
L44860 22510
L44890 22530
L44910 22580
L44910 22650
L44890 22700
L44860 22720
L44820 22740
L44630 22740
" />
<path d="M45390 22980
L45100 22980
" />
<path d="M45250 22980
L45250 22480
L45200 22550
L45150 22600
L45100 22620
" />
<path d="M45550 22480
L45890 22480
L45670 22980
" />
<path d="M46170 22480
L46220 22480
L46270 22510
L46290 22530
L46320 22580
L46340 22670
L46340 22790
L46320 22890
L46290 22930
L46270 22960
L46220 22980
L46170 22980
L46130 22960
L46100 22930
L46080 22890
L46050 22790
L46050 22670
L46080 22580
L46100 22530
L46130 22510
L46170 22480
" />
<path d="M46510 22480
L46820 22480
L46650 22670
L46720 22670
L46770 22700
L46790 22720
L46820 22770
L46820 22890
L46790 22930
L46770 22960
L46720 22980
L46580 22980
L46530 22960
L46510 22930
" />
<path d="M47010 22840
L47250 22840
" />
<path d="M46960 22980
L47130 22480
L47290 22980
" />
<path d="M47460 22790
L47840 22790
" />
<path d="M48030 22480
L48340 22480
L48170 22670
L48250 22670
L48290 22700
L48320 22720
L48340 22770
L48340 22890
L48320 22930
L48290 22960
L48250 22980
L48100 22980
L48050 22960
L48030 22930
" />
<path d="M48510 22480
L48820 22480
L48650 22670
L48720 22670
L48770 22700
L48790 22720
L48820 22770
L48820 22890
L48790 22930
L48770 22960
L48720 22980
L48580 22980
L48530 22960
L48510 22930
" />
<path d="M49130 22480
L49170 22480
L49220 22510
L49250 22530
L49270 22580
L49290 22670
L49290 22790
L49270 22890
L49250 22930
L49220 22960
L49170 22980
L49130 22980
L49080 22960
L49050 22930
L49030 22890
L49010 22790
L49010 22670
L49030 22580
L49050 22530
L49080 22510
L49130 22480
" />
<path d="M49480 22530
L49510 22510
L49550 22480
L49670 22480
L49720 22510
L49750 22530
L49770 22580
L49770 22620
L49750 22700
L49460 22980
L49770 22980
" />
<path d="M49860 23030
L50250 23030
" />
<path d="M50340 22960
L50410 22980
L50530 22980
L50580 22960
L50600 22930
L50630 22890
L50630 22840
L50600 22790
L50580 22770
L50530 22740
L50440 22720
L50390 22700
L50360 22670
L50340 22620
L50340 22580
L50360 22530
L50390 22510
L50440 22480
L50550 22480
L50630 22510
" />
<path d="M50940 22480
L51030 22480
L51080 22510
L51130 22550
L51150 22650
L51150 22810
L51130 22910
L51080 22960
L51030 22980
L50940 22980
L50890 22960
L50840 22910
L50820 22810
L50820 22650
L50840 22550
L50890 22510
L50940 22480
" />
<path d="M51290 22480
L51580 22480
" />
<path d="M51440 22980
L51440 22480
" />
<path d="M51720 22530
L51750 22510
L51790 22480
L51910 22480
L51960 22510
L51980 22530
L52010 22580
L52010 22620
L51980 22700
L51700 22980
L52010 22980
" />
<path d="M52200 22530
L52220 22510
L52270 22480
L52390 22480
L52440 22510
L52460 22530
L52480 22580
L52480 22620
L52460 22700
L52170 22980
L52480 22980
" />
<path d="M52650 22480
L52960 22480
L52790 22670
L52860 22670
L52910 22700
L52940 22720
L52960 22770
L52960 22890
L52940 22930
L52910 22960
L52860 22980
L52720 22980
L52670 22960
L52650 22930
" />
</g>
</g>
<g style="fill:#008484; fill-opacity:0.0; 
stroke:#008484; stroke-width:0; stroke-opacity:1; 
stroke-linecap:round; stroke-linejoin:round;">
<g >
</g>
<g style="fill:#840000; fill-opacity:0.0; 
stroke:#840000; stroke-width:0; stroke-opacity:1; 
stroke-linecap:round; stroke-linejoin:round;">
</g>
<g style="fill:#840000; fill-opacity:0.0; 
stroke:#840000; stroke-width:200; stroke-opacity:1; 
stroke-linecap:round; stroke-linejoin:round;">
<path style="fill:#840000; fill-opacity:0.0; 
stroke:#840000; stroke-width:200; stroke-opacity:1; 
stroke-linecap:round; stroke-linejoin:round;fill:none"
d="M 40200,27550
41800,27550
" /> 
<path style="fill:#840000; fill-opacity:0.0; 
stroke:#840000; stroke-width:200; stroke-opacity:1; 
stroke-linecap:round; stroke-linejoin:round;fill:none"
d="M 40200,26950
41800,26950
" /> 
</g>
<g style="fill:#840000; fill-opacity:0.0; 
stroke:#840000; stroke-width:60; stroke-opacity:1; 
stroke-linecap:round; stroke-linejoin:round;">
<path d="M41000 26850
L41000 25750
" />
<path d="M41000 27650
L41000 28750
" />
</g>
<g style="fill:#008484; fill-opacity:0.0; 
stroke:#008484; stroke-width:60; stroke-opacity:1; 
stroke-linecap:round; stroke-linejoin:round;">
<text x="42900" y="27060"
textLength="1510" font-size="660" lengthAdjust="spacingAndGlyphs"
text-anchor="middle" opacity="0">C20</text>
<path d="M42570 26980
L42550 27010
L42480 27030
L42430 27030
L42360 27010
L42310 26960
L42290 26910
L42260 26820
L42260 26750
L42290 26650
L42310 26600
L42360 26560
L42430 26530
L42480 26530
L42550 26560
L42570 26580
" />
<path d="M42760 26580
L42790 26560
L42840 26530
L42950 26530
L43000 26560
L43030 26580
L43050 26630
L43050 26670
L43030 26750
L42740 27030
L43050 27030
" />
<path d="M43360 26530
L43410 26530
L43450 26560
L43480 26580
L43500 26630
L43530 26720
L43530 26840
L43500 26940
L43480 26980
L43450 27010
L43410 27030
L43360 27030
L43310 27010
L43290 26980
L43260 26940
L43240 26840
L43240 26720
L43260 26630
L43290 26580
L43310 26560
L43360 26530
" />
<text x="42860" y="27970"
textLength="1420" font-size="660" lengthAdjust="spacingAndGlyphs"
text-anchor="middle" opacity="0">1uF</text>
<path d="M42560 27940
L42270 27940
" />
<path d="M42410 27940
L42410 27440
L42370 27510
L42320 27560
L42270 27580
" />
<path d="M42990 27610
L42990 27940
" />
<path d="M42770 27610
L42770 27870
L42800 27920
L42840 27940
L42910 27940
L42960 27920
L42990 27890
" />
<path d="M43390 27680
L43220 27680
" />
<path d="M43220 27940
L43220 27440
L43460 27440
" />
</g>
</g>
<g style="fill:#008484; fill-opacity:0.0; 
stroke:#008484; stroke-width:0; stroke-opacity:1; 
stroke-linecap:round; stroke-linejoin:round;">
<g >
</g>
<g style="fill:#840000; fill-opacity:0.0; 
stroke:#840000; stroke-width:0; stroke-opacity:1; 
stroke-linecap:round; stroke-linejoin:round;">
</g>
<g style="fill:#840000; fill-opacity:0.0; 
stroke:#840000; stroke-width:200; stroke-opacity:1; 
stroke-linecap:round; stroke-linejoin:round;">
<path style="fill:#840000; fill-opacity:0.0; 
stroke:#840000; stroke-width:200; stroke-opacity:1; 
stroke-linecap:round; stroke-linejoin:round;fill:none"
d="M 60200,27550
61800,27550
" /> 
<path style="fill:#840000; fill-opacity:0.0; 
stroke:#840000; stroke-width:200; stroke-opacity:1; 
stroke-linecap:round; stroke-linejoin:round;fill:none"
d="M 60200,26950
61800,26950
" /> 
</g>
<g style="fill:#840000; fill-opacity:0.0; 
stroke:#840000; stroke-width:60; stroke-opacity:1; 
stroke-linecap:round; stroke-linejoin:round;">
<path d="M61000 26850
L61000 25750
" />
<path d="M61000 27650
L61000 28750
" />
</g>
<g style="fill:#008484; fill-opacity:0.0; 
stroke:#008484; stroke-width:60; stroke-opacity:1; 
stroke-linecap:round; stroke-linejoin:round;">
<text x="62900" y="27060"
textLength="1510" font-size="660" lengthAdjust="spacingAndGlyphs"
text-anchor="middle" opacity="0">C21</text>
<path d="M62570 26980
L62550 27010
L62480 27030
L62430 27030
L62360 27010
L62310 26960
L62290 26910
L62260 26820
L62260 26750
L62290 26650
L62310 26600
L62360 26560
L62430 26530
L62480 26530
L62550 26560
L62570 26580
" />
<path d="M62760 26580
L62790 26560
L62840 26530
L62950 26530
L63000 26560
L63030 26580
L63050 26630
L63050 26670
L63030 26750
L62740 27030
L63050 27030
" />
<path d="M63530 27030
L63240 27030
" />
<path d="M63380 27030
L63380 26530
L63340 26600
L63290 26650
L63240 26670
" />
<text x="63330" y="27970"
textLength="2370" font-size="660" lengthAdjust="spacingAndGlyphs"
text-anchor="middle" opacity="0">100nF</text>
<path d="M62550 27940
L62270 27940
" />
<path d="M62410 27940
L62410 27440
L62360 27510
L62310 27560
L62270 27580
" />
<path d="M62860 27440
L62910 27440
L62960 27470
L62980 27490
L63000 27540
L63030 27630
L63030 27750
L63000 27850
L62980 27890
L62960 27920
L62910 27940
L62860 27940
L62810 27920
L62790 27890
L62770 27850
L62740 27750
L62740 27630
L62770 27540
L62790 27490
L62810 27470
L62860 27440
" />
<path d="M63340 27440
L63380 27440
L63430 27470
L63460 27490
L63480 27540
L63500 27630
L63500 27750
L63480 27850
L63460 27890
L63430 27920
L63380 27940
L63340 27940
L63290 27920
L63270 27890
L63240 27850
L63220 27750
L63220 27630
L63240 27540
L63270 27490
L63290 27470
L63340 27440
" />
<path d="M63720 27610
L63720 27940
" />
<path d="M63720 27660
L63740 27630
L63790 27610
L63860 27610
L63910 27630
L63930 27680
L63930 27940
" />
<path d="M64340 27680
L64170 27680
" />
<path d="M64170 27940
L64170 27440
L64410 27440
" />
</g>
</g>
<g style="fill:#008484; fill-opacity:0.0; 
stroke:#008484; stroke-width:0; stroke-opacity:1; 
stroke-linecap:round; stroke-linejoin:round;">
<g >
</g>
<g style="fill:#840000; fill-opacity:0.0; 
stroke:#840000; stroke-width:0; stroke-opacity:1; 
stroke-linecap:round; stroke-linejoin:round;">
</g>
<g style="fill:#840000; fill-opacity:0.0; 
stroke:#840000; stroke-width:60; stroke-opacity:1; 
stroke-linecap:round; stroke-linejoin:round;">
<circle cx="71850" cy="24250" r="200" /> 
<circle cx="72650" cy="24250" r="200" /> 
<path d="M71650 24250
L71250 24250
" />
<path d="M72850 24250
L73250 24250
" />
</g>
<g style="fill:#008484; fill-opacity:0.0; 
stroke:#008484; stroke-width:60; stroke-opacity:1; 
stroke-linecap:round; stroke-linejoin:round;">
<text x="72250" y="21770"
textLength="1420" font-size="660" lengthAdjust="spacingAndGlyphs"
text-anchor="middle" opacity="0">JP1</text>
<path d="M71830 21240
L71830 21600
L71800 21670
L71760 21720
L71690 21740
L71640 21740
" />
<path d="M72070 21740
L72070 21240
L72260 21240
L72300 21270
L72330 21290
L72350 21340
L72350 21410
L72330 21460
L72300 21480
L72260 21500
L72070 21500
" />
<path d="M72830 21740
L72540 21740
" />
<path d="M72690 21740
L72690 21240
L72640 21310
L72590 21360
L72540 21380
" />
<text x="72250" y="22520"
textLength="6680" font-size="660" lengthAdjust="spacingAndGlyphs"
text-anchor="middle" opacity="0">Jumper_NO_Small</text>
<path d="M69200 21990
L69200 22350
L69170 22420
L69130 22470
L69050 22490
L69010 22490
" />
<path d="M69650 22160
L69650 22490
" />
<path d="M69440 22160
L69440 22420
L69460 22470
L69510 22490
L69580 22490
L69630 22470
L69650 22440
" />
<path d="M69890 22490
L69890 22160
" />
<path d="M69890 22210
L69910 22180
L69960 22160
L70030 22160
L70080 22180
L70100 22230
L70100 22490
" />
<path d="M70100 22230
L70130 22180
L70170 22160
L70250 22160
L70290 22180
L70320 22230
L70320 22490
" />
<path d="M70550 22160
L70550 22660
" />
<path d="M70550 22180
L70600 22160
L70700 22160
L70750 22180
L70770 22210
L70790 22250
L70790 22400
L70770 22440
L70750 22470
L70700 22490
L70600 22490
L70550 22470
" />
<path d="M71200 22470
L71150 22490
L71050 22490
L71010 22470
L70980 22420
L70980 22230
L71010 22180
L71050 22160
L71150 22160
L71200 22180
L71220 22230
L71220 22280
L70980 22320
" />
<path d="M71440 22490
L71440 22160
" />
<path d="M71440 22250
L71460 22210
L71480 22180
L71530 22160
L71580 22160
" />
<path d="M71630 22540
L72010 22540
" />
<path d="M72130 22490
L72130 21990
L72410 22490
L72410 21990
" />
<path d="M72750 21990
L72840 21990
L72890 22020
L72940 22060
L72960 22160
L72960 22320
L72940 22420
L72890 22470
L72840 22490
L72750 22490
L72700 22470
L72650 22420
L72630 22320
L72630 22160
L72650 22060
L72700 22020
L72750 21990
" />
<path d="M73050 22540
L73440 22540
" />
<path d="M73530 22470
L73600 22490
L73720 22490
L73770 22470
L73790 22440
L73820 22400
L73820 22350
L73790 22300
L73770 22280
L73720 22250
L73630 22230
L73580 22210
L73550 22180
L73530 22130
L73530 22090
L73550 22040
L73580 22020
L73630 21990
L73750 21990
L73820 22020
" />
<path d="M74030 22490
L74030 22160
" />
<path d="M74030 22210
L74050 22180
L74100 22160
L74170 22160
L74220 22180
L74250 22230
L74250 22490
" />
<path d="M74250 22230
L74270 22180
L74320 22160
L74390 22160
L74440 22180
L74460 22230
L74460 22490
" />
<path d="M74910 22490
L74910 22230
L74890 22180
L74840 22160
L74750 22160
L74700 22180
" />
<path d="M74910 22470
L74860 22490
L74750 22490
L74700 22470
L74670 22420
L74670 22370
L74700 22320
L74750 22300
L74860 22300
L74910 22280
" />
<path d="M75220 22490
L75170 22470
L75150 22420
L75150 21990
" />
<path d="M75480 22490
L75440 22470
L75410 22420
L75410 21990
" />
</g>
</g>
<g style="fill:#008484; fill-opacity:0.0; 
stroke:#008484; stroke-width:0; stroke-opacity:1; 
stroke-linecap:round; stroke-linejoin:round;">
<g >
</g>
<g style="fill:#840000; fill-opacity:0.0; 
stroke:#840000; stroke-width:0; stroke-opacity:1; 
stroke-linecap:round; stroke-linejoin:round;">
</g>
<g style="fill:#840000; fill-opacity:0.0; 
stroke:#840000; stroke-width:60; stroke-opacity:1; 
stroke-linecap:round; stroke-linejoin:round;">
<path style="fill:#840000; fill-opacity:0.0; 
stroke:#840000; stroke-width:60; stroke-opacity:1; 
stroke-linecap:round; stroke-linejoin:round;fill:none"
d="M 56500,66000
56500,66500
57000,66500
56500,67000
56000,66500
56500,66500
" /> 
</g>
<g style="fill:#008484; fill-opacity:0.0; 
stroke:#008484; stroke-width:60; stroke-opacity:1; 
stroke-linecap:round; stroke-linejoin:round;">
<text x="56550" y="68000"
textLength="2060" font-size="660" lengthAdjust="spacingAndGlyphs"
text-anchor="middle" opacity="0">GNDS</text>
<path d="M55930 67500
L55880 67470
L55810 67470
L55740 67500
L55690 67540
L55660 67590
L55640 67690
L55640 67760
L55660 67850
L55690 67900
L55740 67950
L55810 67970
L55850 67970
L55930 67950
L55950 67920
L55950 67760
L55850 67760
" />
<path d="M56160 67970
L56160 67470
L56450 67970
L56450 67470
" />
<path d="M56690 67970
L56690 67470
L56810 67470
L56880 67500
L56930 67540
L56950 67590
L56970 67690
L56970 67760
L56950 67850
L56930 67900
L56880 67950
L56810 67970
L56690 67970
" />
<path d="M57160 67950
L57240 67970
L57350 67970
L57400 67950
L57430 67920
L57450 67880
L57450 67830
L57430 67780
L57400 67760
L57350 67730
L57260 67710
L57210 67690
L57190 67660
L57160 67610
L57160 67570
L57190 67520
L57210 67500
L57260 67470
L57380 67470
L57450 67500
" />
</g>
</g>
<g style="fill:#008484; fill-opacity:0.0; 
stroke:#008484; stroke-width:0; stroke-opacity:1; 
stroke-linecap:round; stroke-linejoin:round;">
<g >
</g>
<g style="fill:#840000; fill-opacity:0.0; 
stroke:#840000; stroke-width:0; stroke-opacity:1; 
stroke-linecap:round; stroke-linejoin:round;">
</g>
<g style="fill:#840000; fill-opacity:0.0; 
stroke:#840000; stroke-width:60; stroke-opacity:1; 
stroke-linecap:round; stroke-linejoin:round;">
<path style="fill:#840000; fill-opacity:0.0; 
stroke:#840000; stroke-width:60; stroke-opacity:1; 
stroke-linecap:round; stroke-linejoin:round;fill:none"
d="M 56500,63500
56500,63000
56100,62750
56500,62500
56900,62750
56500,63000
" /> 
<path d="M56500 63500
L56500 63500
" />
</g>
<g style="fill:#008484; fill-opacity:0.0; 
stroke:#008484; stroke-width:60; stroke-opacity:1; 
stroke-linecap:round; stroke-linejoin:round;">
<text x="56500" y="62040"
textLength="3770" font-size="660" lengthAdjust="spacingAndGlyphs"
text-anchor="middle" opacity="0">PWR_FLAG</text>
<path d="M54760 62010
L54760 61510
L54950 61510
L55000 61540
L55020 61560
L55040 61610
L55040 61680
L55020 61730
L55000 61750
L54950 61770
L54760 61770
" />
<path d="M55210 61510
L55330 62010
L55420 61650
L55520 62010
L55640 61510
" />
<path d="M56110 62010
L55950 61770
" />
<path d="M55830 62010
L55830 61510
L56020 61510
L56070 61540
L56090 61560
L56110 61610
L56110 61680
L56090 61730
L56070 61750
L56020 61770
L55830 61770
" />
<path d="M56210 62060
L56590 62060
" />
<path d="M56880 61750
L56710 61750
" />
<path d="M56710 62010
L56710 61510
L56950 61510
" />
<path d="M57380 62010
L57140 62010
L57140 61510
" />
<path d="M57520 61870
L57760 61870
" />
<path d="M57470 62010
L57640 61510
L57800 62010
" />
<path d="M58230 61540
L58190 61510
L58110 61510
L58040 61540
L58000 61580
L57970 61630
L57950 61730
L57950 61800
L57970 61890
L58000 61940
L58040 61990
L58110 62010
L58160 62010
L58230 61990
L58260 61960
L58260 61800
L58160 61800
" />
</g>
</g>
<g style="fill:#008484; fill-opacity:0.0; 
stroke:#008484; stroke-width:0; stroke-opacity:1; 
stroke-linecap:round; stroke-linejoin:round;">
<g >
</g>
<g style="fill:#840000; fill-opacity:0.0; 
stroke:#840000; stroke-width:0; stroke-opacity:1; 
stroke-linecap:round; stroke-linejoin:round;">
</g>
<g style="fill:#840000; fill-opacity:0.0; 
stroke:#840000; stroke-width:60; stroke-opacity:1; 
stroke-linecap:round; stroke-linejoin:round;">
<path style="fill:#840000; fill-opacity:0.0; 
stroke:#840000; stroke-width:60; stroke-opacity:1; 
stroke-linecap:round; stroke-linejoin:round;fill:none"
d="M 36000,24250
36000,23750
35600,23500
36000,23250
36400,23500
36000,23750
" /> 
<path d="M36000 24250
L36000 24250
" />
</g>
<g style="fill:#008484; fill-opacity:0.0; 
stroke:#008484; stroke-width:60; stroke-opacity:1; 
stroke-linecap:round; stroke-linejoin:round;">
<text x="36000" y="22790"
textLength="3770" font-size="660" lengthAdjust="spacingAndGlyphs"
text-anchor="middle" opacity="0">PWR_FLAG</text>
<path d="M34260 22760
L34260 22260
L34450 22260
L34500 22290
L34520 22310
L34540 22360
L34540 22430
L34520 22480
L34500 22500
L34450 22520
L34260 22520
" />
<path d="M34710 22260
L34830 22760
L34920 22400
L35020 22760
L35140 22260
" />
<path d="M35610 22760
L35450 22520
" />
<path d="M35330 22760
L35330 22260
L35520 22260
L35570 22290
L35590 22310
L35610 22360
L35610 22430
L35590 22480
L35570 22500
L35520 22520
L35330 22520
" />
<path d="M35710 22810
L36090 22810
" />
<path d="M36380 22500
L36210 22500
" />
<path d="M36210 22760
L36210 22260
L36450 22260
" />
<path d="M36880 22760
L36640 22760
L36640 22260
" />
<path d="M37020 22620
L37260 22620
" />
<path d="M36970 22760
L37140 22260
L37300 22760
" />
<path d="M37730 22290
L37690 22260
L37610 22260
L37540 22290
L37500 22330
L37470 22380
L37450 22480
L37450 22550
L37470 22640
L37500 22690
L37540 22740
L37610 22760
L37660 22760
L37730 22740
L37760 22710
L37760 22550
L37660 22550
" />
</g>
</g>
<g style="fill:#008484; fill-opacity:0.0; 
stroke:#008484; stroke-width:0; stroke-opacity:1; 
stroke-linecap:round; stroke-linejoin:round;">
<g >
</g>
<g style="fill:#840000; fill-opacity:0.0; 
stroke:#840000; stroke-width:0; stroke-opacity:1; 
stroke-linecap:round; stroke-linejoin:round;">
</g>
<g style="fill:#840000; fill-opacity:0.0; 
stroke:#840000; stroke-width:200; stroke-opacity:1; 
stroke-linecap:round; stroke-linejoin:round;">
<path style="fill:#840000; fill-opacity:0.0; 
stroke:#840000; stroke-width:200; stroke-opacity:1; 
stroke-linecap:round; stroke-linejoin:round;fill:none"
d="M 55200,27550
56800,27550
" /> 
<path style="fill:#840000; fill-opacity:0.0; 
stroke:#840000; stroke-width:200; stroke-opacity:1; 
stroke-linecap:round; stroke-linejoin:round;fill:none"
d="M 55200,26950
56800,26950
" /> 
</g>
<g style="fill:#840000; fill-opacity:0.0; 
stroke:#840000; stroke-width:60; stroke-opacity:1; 
stroke-linecap:round; stroke-linejoin:round;">
<path d="M56000 26850
L56000 25750
" />
<path d="M56000 27650
L56000 28750
" />
</g>
<g style="fill:#008484; fill-opacity:0.0; 
stroke:#008484; stroke-width:60; stroke-opacity:1; 
stroke-linecap:round; stroke-linejoin:round;">
<text x="57670" y="27060"
textLength="1040" font-size="660" lengthAdjust="spacingAndGlyphs"
text-anchor="middle" opacity="0">C2</text>
<path d="M57580 26980
L57560 27010
L57490 27030
L57440 27030
L57370 27010
L57320 26960
L57300 26910
L57270 26820
L57270 26750
L57300 26650
L57320 26600
L57370 26560
L57440 26530
L57490 26530
L57560 26560
L57580 26580
" />
<path d="M57770 26580
L57800 26560
L57840 26530
L57960 26530
L58010 26560
L58030 26580
L58060 26630
L58060 26670
L58030 26750
L57750 27030
L58060 27030
" />
<text x="57860" y="27970"
textLength="1420" font-size="660" lengthAdjust="spacingAndGlyphs"
text-anchor="middle" opacity="0">1uF</text>
<path d="M57560 27940
L57270 27940
" />
<path d="M57410 27940
L57410 27440
L57370 27510
L57320 27560
L57270 27580
" />
<path d="M57990 27610
L57990 27940
" />
<path d="M57770 27610
L57770 27870
L57800 27920
L57840 27940
L57910 27940
L57960 27920
L57990 27890
" />
<path d="M58390 27680
L58220 27680
" />
<path d="M58220 27940
L58220 27440
L58460 27440
" />
</g>
</g>
<g style="fill:#008484; fill-opacity:0.0; 
stroke:#008484; stroke-width:0; stroke-opacity:1; 
stroke-linecap:round; stroke-linejoin:round;">
<g >
</g>
<g style="fill:#840000; fill-opacity:0.0; 
stroke:#840000; stroke-width:0; stroke-opacity:1; 
stroke-linecap:round; stroke-linejoin:round;">
</g>
<g style="fill:#840000; fill-opacity:0.0; 
stroke:#840000; stroke-width:200; stroke-opacity:1; 
stroke-linecap:round; stroke-linejoin:round;">
<path style="fill:#840000; fill-opacity:0.0; 
stroke:#840000; stroke-width:200; stroke-opacity:1; 
stroke-linecap:round; stroke-linejoin:round;fill:none"
d="M 35200,27550
36800,27550
" /> 
<path style="fill:#840000; fill-opacity:0.0; 
stroke:#840000; stroke-width:200; stroke-opacity:1; 
stroke-linecap:round; stroke-linejoin:round;fill:none"
d="M 35200,26950
36800,26950
" /> 
</g>
<g style="fill:#840000; fill-opacity:0.0; 
stroke:#840000; stroke-width:60; stroke-opacity:1; 
stroke-linecap:round; stroke-linejoin:round;">
<path d="M36000 26850
L36000 25750
" />
<path d="M36000 27650
L36000 28750
" />
</g>
<g style="fill:#008484; fill-opacity:0.0; 
stroke:#008484; stroke-width:60; stroke-opacity:1; 
stroke-linecap:round; stroke-linejoin:round;">
<text x="37670" y="27060"
textLength="1040" font-size="660" lengthAdjust="spacingAndGlyphs"
text-anchor="middle" opacity="0">C1</text>
<path d="M37580 26980
L37560 27010
L37490 27030
L37440 27030
L37370 27010
L37320 26960
L37300 26910
L37270 26820
L37270 26750
L37300 26650
L37320 26600
L37370 26560
L37440 26530
L37490 26530
L37560 26560
L37580 26580
" />
<path d="M38060 27030
L37770 27030
" />
<path d="M37920 27030
L37920 26530
L37870 26600
L37820 26650
L37770 26670
" />
<text x="38330" y="27970"
textLength="2370" font-size="660" lengthAdjust="spacingAndGlyphs"
text-anchor="middle" opacity="0">100nF</text>
<path d="M37550 27940
L37270 27940
" />
<path d="M37410 27940
L37410 27440
L37360 27510
L37310 27560
L37270 27580
" />
<path d="M37860 27440
L37910 27440
L37960 27470
L37980 27490
L38000 27540
L38030 27630
L38030 27750
L38000 27850
L37980 27890
L37960 27920
L37910 27940
L37860 27940
L37810 27920
L37790 27890
L37770 27850
L37740 27750
L37740 27630
L37770 27540
L37790 27490
L37810 27470
L37860 27440
" />
<path d="M38340 27440
L38380 27440
L38430 27470
L38460 27490
L38480 27540
L38500 27630
L38500 27750
L38480 27850
L38460 27890
L38430 27920
L38380 27940
L38340 27940
L38290 27920
L38270 27890
L38240 27850
L38220 27750
L38220 27630
L38240 27540
L38270 27490
L38290 27470
L38340 27440
" />
<path d="M38720 27610
L38720 27940
" />
<path d="M38720 27660
L38740 27630
L38790 27610
L38860 27610
L38910 27630
L38930 27680
L38930 27940
" />
<path d="M39340 27680
L39170 27680
" />
<path d="M39170 27940
L39170 27440
L39410 27440
" />
</g>
</g>
<g style="fill:#008484; fill-opacity:0.0; 
stroke:#008484; stroke-width:0; stroke-opacity:1; 
stroke-linecap:round; stroke-linejoin:round;">
<g >
</g>
<g style="fill:#840000; fill-opacity:0.0; 
stroke:#840000; stroke-width:0; stroke-opacity:1; 
stroke-linecap:round; stroke-linejoin:round;">
</g>
<g style="fill:#840000; fill-opacity:0.0; 
stroke:#840000; stroke-width:60; stroke-opacity:1; 
stroke-linecap:round; stroke-linejoin:round;">
<path style="fill:#840000; fill-opacity:0.0; 
stroke:#840000; stroke-width:60; stroke-opacity:1; 
stroke-linecap:round; stroke-linejoin:round;fill:none"
d="M 48250,33500
48250,34000
48750,34000
48250,34500
47750,34000
48250,34000
" /> 
</g>
<g style="fill:#008484; fill-opacity:0.0; 
stroke:#008484; stroke-width:60; stroke-opacity:1; 
stroke-linecap:round; stroke-linejoin:round;">
<text x="48300" y="35500"
textLength="2060" font-size="660" lengthAdjust="spacingAndGlyphs"
text-anchor="middle" opacity="0">GNDS</text>
<path d="M47680 35000
L47630 34970
L47560 34970
L47490 35000
L47440 35040
L47410 35090
L47390 35190
L47390 35260
L47410 35350
L47440 35400
L47490 35450
L47560 35470
L47600 35470
L47680 35450
L47700 35420
L47700 35260
L47600 35260
" />
<path d="M47910 35470
L47910 34970
L48200 35470
L48200 34970
" />
<path d="M48440 35470
L48440 34970
L48560 34970
L48630 35000
L48680 35040
L48700 35090
L48720 35190
L48720 35260
L48700 35350
L48680 35400
L48630 35450
L48560 35470
L48440 35470
" />
<path d="M48910 35450
L48990 35470
L49100 35470
L49150 35450
L49180 35420
L49200 35380
L49200 35330
L49180 35280
L49150 35260
L49100 35230
L49010 35210
L48960 35190
L48940 35160
L48910 35110
L48910 35070
L48940 35020
L48960 35000
L49010 34970
L49130 34970
L49200 35000
" />
</g>
</g>
<g style="fill:#008484; fill-opacity:0.0; 
stroke:#008484; stroke-width:60; stroke-opacity:1; 
stroke-linecap:round; stroke-linejoin:round;">
</g>
<g style="fill:#008400; fill-opacity:0.0; 
stroke:#008400; stroke-width:60; stroke-opacity:1; 
stroke-linecap:round; stroke-linejoin:round;">
<path d="M56000 25750
L56000 24250
" />
<path d="M73250 24250
L86750 24250
" />
<path d="M41000 31250
L36000 31250
" />
<path d="M41000 28750
L41000 31250
" />
<path d="M41000 24250
L45250 24250
" />
<path d="M41000 25750
L41000 24250
" />
<path d="M18500 24250
L27500 24250
" />
<path d="M61000 31250
L56000 31250
" />
<path d="M61000 28750
L61000 31250
" />
<path d="M61000 24250
L71250 24250
" />
<path d="M61000 25750
L61000 24250
" />
<path d="M56000 24250
L61000 24250
" />
<path d="M48250 27250
L48250 31250
" />
<path d="M30500 24250
L36000 24250
" />
<path d="M51250 24250
L56000 24250
" />
<path d="M56500 63500
L56500 66000
" />
<path d="M36000 28750
L36000 31250
" />
<path d="M36000 25750
L36000 24250
" />
<path d="M36000 24250
L41000 24250
" />
<path d="M56000 28750
L56000 31250
" />
<path d="M48250 31250
L41000 31250
" />
<path d="M48250 31250
L48250 33500
" />
<path d="M56000 31250
L48250 31250
" />
</g>
<g style="fill:#848400; fill-opacity:0.0; 
stroke:#848400; stroke-width:60; stroke-opacity:1; 
stroke-linecap:round; stroke-linejoin:round;">
<text x="17900" y="24500"
textLength="2730" font-size="660" lengthAdjust="spacingAndGlyphs"
text-anchor="end" opacity="0">+9V_IN</text>
<path d="M15320 24280
L15700 24280
" />
<path d="M15510 24470
L15510 24090
" />
<path d="M15960 24470
L16060 24470
L16100 24450
L16130 24420
L16170 24350
L16200 24260
L16200 24070
L16170 24020
L16150 24000
L16100 23970
L16010 23970
L15960 24000
L15940 24020
L15910 24070
L15910 24190
L15940 24230
L15960 24260
L16010 24280
L16100 24280
L16150 24260
L16170 24230
L16200 24190
" />
<path d="M16340 23970
L16510 24470
L16670 23970
" />
<path d="M16720 24520
L17100 24520
" />
<path d="M17220 24470
L17220 23970
" />
<path d="M17460 24470
L17460 23970
L17750 24470
L17750 23970
" />
</g>
<g style="fill:#848400; fill-opacity:0.0; 
stroke:#848400; stroke-width:100; stroke-opacity:1; 
stroke-linecap:round; stroke-linejoin:round;">
<path style="fill:#848400; fill-opacity:0.0; 
stroke:#848400; stroke-width:100; stroke-opacity:1; 
stroke-linecap:round; stroke-linejoin:round;fill:none"
d="M 18500,24250
18250,24000
18000,24000
18000,24500
18250,24500
Z" /> 
</g>
<g style="fill:#848400; fill-opacity:0.0; 
stroke:#848400; stroke-width:60; stroke-opacity:1; 
stroke-linecap:round; stroke-linejoin:round;">
<text x="87350" y="24500"
textLength="1920" font-size="660" lengthAdjust="spacingAndGlyphs"
text-anchor="start" opacity="0">VOUT</text>
<path d="M87420 23970
L87590 24470
L87760 23970
" />
<path d="M88020 23970
L88110 23970
L88160 24000
L88210 24040
L88230 24140
L88230 24300
L88210 24400
L88160 24450
L88110 24470
L88020 24470
L87970 24450
L87920 24400
L87900 24300
L87900 24140
L87920 24040
L87970 24000
L88020 23970
" />
<path d="M88450 23970
L88450 24380
L88470 24420
L88490 24450
L88540 24470
L88640 24470
L88680 24450
L88710 24420
L88730 24380
L88730 23970
" />
<path d="M88900 23970
L89180 23970
" />
<path d="M89040 24470
L89040 23970
" />
</g>
<g style="fill:#848400; fill-opacity:0.0; 
stroke:#848400; stroke-width:100; stroke-opacity:1; 
stroke-linecap:round; stroke-linejoin:round;">
<path style="fill:#848400; fill-opacity:0.0; 
stroke:#848400; stroke-width:100; stroke-opacity:1; 
stroke-linecap:round; stroke-linejoin:round;fill:none"
d="M 86750,24250
87000,24500
87250,24500
87250,24000
87000,24000
Z" /> 
</g>
<g style="fill:#848400; fill-opacity:0.0; 
stroke:#848400; stroke-width:60; stroke-opacity:1; 
stroke-linecap:round; stroke-linejoin:round;">
</g>
<g style="fill:#0000C2; fill-opacity:0.0; 
stroke:#0000C2; stroke-width:60; stroke-opacity:1; 
stroke-linecap:round; stroke-linejoin:round;">
<text x="68250" y="23400"
textLength="8060" font-size="660" lengthAdjust="spacingAndGlyphs"
text-anchor="start" opacity="0">Current Measurement</text>
<path d="M68680 23320
L68660 23350
L68580 23370
L68540 23370
L68470 23350
L68420 23300
L68390 23250
L68370 23160
L68370 23090
L68390 22990
L68420 22940
L68470 22900
L68540 22870
L68580 22870
L68660 22900
L68680 22920
" />
<path d="M69110 23040
L69110 23370
" />
<path d="M68890 23040
L68890 23300
L68920 23350
L68970 23370
L69040 23370
L69080 23350
L69110 23320
" />
<path d="M69350 23370
L69350 23040
" />
<path d="M69350 23130
L69370 23090
L69390 23060
L69440 23040
L69490 23040
" />
<path d="M69660 23370
L69660 23040
" />
<path d="M69660 23130
L69680 23090
L69700 23060
L69750 23040
L69800 23040
" />
<path d="M70160 23350
L70110 23370
L70010 23370
L69970 23350
L69940 23300
L69940 23110
L69970 23060
L70010 23040
L70110 23040
L70160 23060
L70180 23110
L70180 23160
L69940 23200
" />
<path d="M70390 23040
L70390 23370
" />
<path d="M70390 23090
L70420 23060
L70470 23040
L70540 23040
L70580 23060
L70610 23110
L70610 23370
" />
<path d="M70780 23040
L70970 23040
" />
<path d="M70850 22870
L70850 23300
L70870 23350
L70920 23370
L70970 23370
" />
<path d="M71510 23370
L71510 22870
L71680 23230
L71850 22870
L71850 23370
" />
<path d="M72280 23350
L72230 23370
L72130 23370
L72080 23350
L72060 23300
L72060 23110
L72080 23060
L72130 23040
L72230 23040
L72280 23060
L72300 23110
L72300 23160
L72060 23200
" />
<path d="M72730 23370
L72730 23110
L72700 23060
L72660 23040
L72560 23040
L72510 23060
" />
<path d="M72730 23350
L72680 23370
L72560 23370
L72510 23350
L72490 23300
L72490 23250
L72510 23200
L72560 23180
L72680 23180
L72730 23160
" />
<path d="M72940 23350
L72990 23370
L73080 23370
L73130 23350
L73160 23300
L73160 23280
L73130 23230
L73080 23200
L73010 23200
L72970 23180
L72940 23130
L72940 23110
L72970 23060
L73010 23040
L73080 23040
L73130 23060
" />
<path d="M73580 23040
L73580 23370
" />
<path d="M73370 23040
L73370 23300
L73390 23350
L73440 23370
L73510 23370
L73560 23350
L73580 23320
" />
<path d="M73820 23370
L73820 23040
" />
<path d="M73820 23130
L73850 23090
L73870 23060
L73920 23040
L73970 23040
" />
<path d="M74320 23350
L74280 23370
L74180 23370
L74130 23350
L74110 23300
L74110 23110
L74130 23060
L74180 23040
L74280 23040
L74320 23060
L74350 23110
L74350 23160
L74110 23200
" />
<path d="M74560 23370
L74560 23040
" />
<path d="M74560 23090
L74580 23060
L74630 23040
L74700 23040
L74750 23060
L74780 23110
L74780 23370
" />
<path d="M74780 23110
L74800 23060
L74850 23040
L74920 23040
L74970 23060
L74990 23110
L74990 23370
" />
<path d="M75420 23350
L75370 23370
L75280 23370
L75230 23350
L75200 23300
L75200 23110
L75230 23060
L75280 23040
L75370 23040
L75420 23060
L75440 23110
L75440 23160
L75200 23200
" />
<path d="M75660 23040
L75660 23370
" />
<path d="M75660 23090
L75680 23060
L75730 23040
L75800 23040
L75850 23060
L75870 23110
L75870 23370
" />
<path d="M76040 23040
L76230 23040
" />
<path d="M76110 22870
L76110 23300
L76130 23350
L76180 23370
L76230 23370
" />
</g>
<g style="fill:#0000C2; fill-opacity:0.0; 
stroke:#0000C2; stroke-width:0; stroke-opacity:1; 
stroke-linecap:round; stroke-linejoin:round;">
</g>
<g style="fill:#008400; fill-opacity:0.0; 
stroke:#008400; stroke-width:0; stroke-opacity:1; 
stroke-linecap:round; stroke-linejoin:round;">
</g>
<g style="fill:#008400; fill-opacity:1.0; 
stroke:#008400; stroke-width:100; stroke-opacity:1; 
stroke-linecap:round; stroke-linejoin:round;">
<circle cx="56000" cy="31250" r="200" /> 
</g>
<g style="fill:#008400; fill-opacity:1.0; 
stroke:#008400; stroke-width:0; stroke-opacity:1; 
stroke-linecap:round; stroke-linejoin:round;">
</g>
<g style="fill:#008400; fill-opacity:1.0; 
stroke:#008400; stroke-width:100; stroke-opacity:1; 
stroke-linecap:round; stroke-linejoin:round;">
<circle cx="41000" cy="31250" r="200" /> 
</g>
<g style="fill:#008400; fill-opacity:1.0; 
stroke:#008400; stroke-width:0; stroke-opacity:1; 
stroke-linecap:round; stroke-linejoin:round;">
</g>
<g style="fill:#008400; fill-opacity:1.0; 
stroke:#008400; stroke-width:100; stroke-opacity:1; 
stroke-linecap:round; stroke-linejoin:round;">
<circle cx="48250" cy="31250" r="200" /> 
</g>
<g style="fill:#008400; fill-opacity:1.0; 
stroke:#008400; stroke-width:0; stroke-opacity:1; 
stroke-linecap:round; stroke-linejoin:round;">
</g>
<g style="fill:#008400; fill-opacity:1.0; 
stroke:#008400; stroke-width:100; stroke-opacity:1; 
stroke-linecap:round; stroke-linejoin:round;">
<circle cx="41000" cy="24250" r="200" /> 
</g>
<g style="fill:#008400; fill-opacity:1.0; 
stroke:#008400; stroke-width:0; stroke-opacity:1; 
stroke-linecap:round; stroke-linejoin:round;">
</g>
<g style="fill:#008400; fill-opacity:1.0; 
stroke:#008400; stroke-width:100; stroke-opacity:1; 
stroke-linecap:round; stroke-linejoin:round;">
<circle cx="36000" cy="24250" r="200" /> 
</g>
<g style="fill:#008400; fill-opacity:1.0; 
stroke:#008400; stroke-width:0; stroke-opacity:1; 
stroke-linecap:round; stroke-linejoin:round;">
</g>
<g style="fill:#008400; fill-opacity:1.0; 
stroke:#008400; stroke-width:100; stroke-opacity:1; 
stroke-linecap:round; stroke-linejoin:round;">
<circle cx="61000" cy="24250" r="200" /> 
</g>
<g style="fill:#008400; fill-opacity:1.0; 
stroke:#008400; stroke-width:0; stroke-opacity:1; 
stroke-linecap:round; stroke-linejoin:round;">
</g>
<g style="fill:#008400; fill-opacity:1.0; 
stroke:#008400; stroke-width:100; stroke-opacity:1; 
stroke-linecap:round; stroke-linejoin:round;">
<circle cx="56000" cy="24250" r="200" /> 
</g> 
</svg>
