<?xml version="1.0" standalone="no"?>
 <!DOCTYPE svg PUBLIC "-//W3C//DTD SVG 1.1//EN" 
 "http://www.w3.org/Graphics/SVG/1.1/DTD/svg11.dtd"> 
<svg
  xmlns:svg="http://www.w3.org/2000/svg"
  xmlns="http://www.w3.org/2000/svg"
  xmlns:xlink="http://www.w3.org/1999/xlink"
  version="1.1"
  width="29.700220cm" height="21.000720cm" viewBox="0 0 116930 82680">
<title>SVG Picture created as InputBufferAndGain-InputBufferAndGain3.svg date 2020/09/25 10:57:54 </title>
  <desc>Picture generated by Eeschema-SVG </desc>
<g style="fill:#000000; fill-opacity:1;stroke:#000000; stroke-opacity:1;
stroke-linecap:round; stroke-linejoin:round;"
 transform="translate(0 0) scale(1 1)">
</g>
<g style="fill:#000000; fill-opacity:0.0; 
stroke:#000000; stroke-width:-10; stroke-opacity:1; 
stroke-linecap:round; stroke-linejoin:round;">
</g>
<g style="fill:#840000; fill-opacity:0.0; 
stroke:#840000; stroke-width:-10; stroke-opacity:1; 
stroke-linecap:round; stroke-linejoin:round;">
</g>
<g style="fill:#840000; fill-opacity:0.0; 
stroke:#840000; stroke-width:100; stroke-opacity:1; 
stroke-linecap:round; stroke-linejoin:round;">
</g>
<g style="fill:#840000; fill-opacity:0.0; 
stroke:#840000; stroke-width:60; stroke-opacity:1; 
stroke-linecap:round; stroke-linejoin:round;">
<rect x="69690" y="65360" width="42520" height="12600" rx="0" />
</g>
<g style="fill:#840000; fill-opacity:0.0; 
stroke:#840000; stroke-width:100; stroke-opacity:1; 
stroke-linecap:round; stroke-linejoin:round;">
</g>
<g style="fill:#840000; fill-opacity:0.0; 
stroke:#840000; stroke-width:60; stroke-opacity:1; 
stroke-linecap:round; stroke-linejoin:round;">
<rect x="3940" y="3940" width="109050" height="74800" rx="0" />
</g>
<g style="fill:#840000; fill-opacity:0.0; 
stroke:#840000; stroke-width:100; stroke-opacity:1; 
stroke-linecap:round; stroke-linejoin:round;">
</g>
<g style="fill:#840000; fill-opacity:0.0; 
stroke:#840000; stroke-width:60; stroke-opacity:1; 
stroke-linecap:round; stroke-linejoin:round;">
<rect x="4720" y="4720" width="107490" height="73240" rx="0" />
</g>
<g style="fill:#840000; fill-opacity:0.0; 
stroke:#840000; stroke-width:100; stroke-opacity:1; 
stroke-linecap:round; stroke-linejoin:round;">
</g>
<g style="fill:#840000; fill-opacity:0.0; 
stroke:#840000; stroke-width:60; stroke-opacity:1; 
stroke-linecap:round; stroke-linejoin:round;">
<path d="M23620 4720
L23620 3940
" />
</g>
<g style="fill:#840000; fill-opacity:0.0; 
stroke:#840000; stroke-width:100; stroke-opacity:1; 
stroke-linecap:round; stroke-linejoin:round;">
</g>
<g style="fill:#840000; fill-opacity:0.0; 
stroke:#840000; stroke-width:60; stroke-opacity:1; 
stroke-linecap:round; stroke-linejoin:round;">
<path d="M43310 4720
L43310 3940
" />
</g>
<g style="fill:#840000; fill-opacity:0.0; 
stroke:#840000; stroke-width:100; stroke-opacity:1; 
stroke-linecap:round; stroke-linejoin:round;">
</g>
<g style="fill:#840000; fill-opacity:0.0; 
stroke:#840000; stroke-width:60; stroke-opacity:1; 
stroke-linecap:round; stroke-linejoin:round;">
<path d="M62990 4720
L62990 3940
" />
</g>
<g style="fill:#840000; fill-opacity:0.0; 
stroke:#840000; stroke-width:100; stroke-opacity:1; 
stroke-linecap:round; stroke-linejoin:round;">
</g>
<g style="fill:#840000; fill-opacity:0.0; 
stroke:#840000; stroke-width:60; stroke-opacity:1; 
stroke-linecap:round; stroke-linejoin:round;">
<path d="M82680 4720
L82680 3940
" />
</g>
<g style="fill:#840000; fill-opacity:0.0; 
stroke:#840000; stroke-width:100; stroke-opacity:1; 
stroke-linecap:round; stroke-linejoin:round;">
</g>
<g style="fill:#840000; fill-opacity:0.0; 
stroke:#840000; stroke-width:60; stroke-opacity:1; 
stroke-linecap:round; stroke-linejoin:round;">
<path d="M102360 4720
L102360 3940
" />
</g>
<g style="fill:#840000; fill-opacity:0.0; 
stroke:#840000; stroke-width:100; stroke-opacity:1; 
stroke-linecap:round; stroke-linejoin:round;">
</g>
<g style="fill:#840000; fill-opacity:0.0; 
stroke:#840000; stroke-width:60; stroke-opacity:1; 
stroke-linecap:round; stroke-linejoin:round;">
<text x="13780" y="4580"
textLength="550" font-size="680" lengthAdjust="spacingAndGlyphs"
text-anchor="start" opacity="0">1</text>
<path d="M14190 4560
L13900 4560
" />
<path d="M14050 4560
L14050 4050
L14000 4120
L13950 4170
L13900 4190
" />
</g>
<g style="fill:#840000; fill-opacity:0.0; 
stroke:#840000; stroke-width:100; stroke-opacity:1; 
stroke-linecap:round; stroke-linejoin:round;">
</g>
<g style="fill:#840000; fill-opacity:0.0; 
stroke:#840000; stroke-width:60; stroke-opacity:1; 
stroke-linecap:round; stroke-linejoin:round;">
<text x="33460" y="4580"
textLength="550" font-size="680" lengthAdjust="spacingAndGlyphs"
text-anchor="start" opacity="0">2</text>
<path d="M33580 4090
L33610 4070
L33660 4050
L33780 4050
L33830 4070
L33850 4090
L33870 4140
L33870 4190
L33850 4260
L33560 4560
L33870 4560
" />
</g>
<g style="fill:#840000; fill-opacity:0.0; 
stroke:#840000; stroke-width:100; stroke-opacity:1; 
stroke-linecap:round; stroke-linejoin:round;">
</g>
<g style="fill:#840000; fill-opacity:0.0; 
stroke:#840000; stroke-width:60; stroke-opacity:1; 
stroke-linecap:round; stroke-linejoin:round;">
<text x="53150" y="4580"
textLength="550" font-size="680" lengthAdjust="spacingAndGlyphs"
text-anchor="start" opacity="0">3</text>
<path d="M53250 4050
L53560 4050
L53390 4240
L53470 4240
L53520 4260
L53540 4290
L53560 4340
L53560 4460
L53540 4510
L53520 4530
L53470 4560
L53320 4560
L53270 4530
L53250 4510
" />
</g>
<g style="fill:#840000; fill-opacity:0.0; 
stroke:#840000; stroke-width:100; stroke-opacity:1; 
stroke-linecap:round; stroke-linejoin:round;">
</g>
<g style="fill:#840000; fill-opacity:0.0; 
stroke:#840000; stroke-width:60; stroke-opacity:1; 
stroke-linecap:round; stroke-linejoin:round;">
<text x="72830" y="4580"
textLength="550" font-size="680" lengthAdjust="spacingAndGlyphs"
text-anchor="start" opacity="0">4</text>
<path d="M73200 4220
L73200 4560
" />
<path d="M73070 4020
L72950 4390
L73270 4390
" />
</g>
<g style="fill:#840000; fill-opacity:0.0; 
stroke:#840000; stroke-width:100; stroke-opacity:1; 
stroke-linecap:round; stroke-linejoin:round;">
</g>
<g style="fill:#840000; fill-opacity:0.0; 
stroke:#840000; stroke-width:60; stroke-opacity:1; 
stroke-linecap:round; stroke-linejoin:round;">
<text x="92520" y="4580"
textLength="550" font-size="680" lengthAdjust="spacingAndGlyphs"
text-anchor="start" opacity="0">5</text>
<path d="M92910 4050
L92670 4050
L92640 4290
L92670 4260
L92720 4240
L92840 4240
L92890 4260
L92910 4290
L92930 4340
L92930 4460
L92910 4510
L92890 4530
L92840 4560
L92720 4560
L92670 4530
L92640 4510
" />
</g>
<g style="fill:#840000; fill-opacity:0.0; 
stroke:#840000; stroke-width:100; stroke-opacity:1; 
stroke-linecap:round; stroke-linejoin:round;">
</g>
<g style="fill:#840000; fill-opacity:0.0; 
stroke:#840000; stroke-width:60; stroke-opacity:1; 
stroke-linecap:round; stroke-linejoin:round;">
<text x="112200" y="4580"
textLength="550" font-size="680" lengthAdjust="spacingAndGlyphs"
text-anchor="start" opacity="0">6</text>
<path d="M112570 4050
L112470 4050
L112420 4070
L112400 4090
L112350 4170
L112320 4260
L112320 4460
L112350 4510
L112370 4530
L112420 4560
L112520 4560
L112570 4530
L112590 4510
L112610 4460
L112610 4340
L112590 4290
L112570 4260
L112520 4240
L112420 4240
L112370 4260
L112350 4290
L112320 4340
" />
</g>
<g style="fill:#840000; fill-opacity:0.0; 
stroke:#840000; stroke-width:100; stroke-opacity:1; 
stroke-linecap:round; stroke-linejoin:round;">
</g>
<g style="fill:#840000; fill-opacity:0.0; 
stroke:#840000; stroke-width:60; stroke-opacity:1; 
stroke-linecap:round; stroke-linejoin:round;">
<path d="M23620 77960
L23620 78740
" />
</g>
<g style="fill:#840000; fill-opacity:0.0; 
stroke:#840000; stroke-width:100; stroke-opacity:1; 
stroke-linecap:round; stroke-linejoin:round;">
</g>
<g style="fill:#840000; fill-opacity:0.0; 
stroke:#840000; stroke-width:60; stroke-opacity:1; 
stroke-linecap:round; stroke-linejoin:round;">
<path d="M43310 77960
L43310 78740
" />
</g>
<g style="fill:#840000; fill-opacity:0.0; 
stroke:#840000; stroke-width:100; stroke-opacity:1; 
stroke-linecap:round; stroke-linejoin:round;">
</g>
<g style="fill:#840000; fill-opacity:0.0; 
stroke:#840000; stroke-width:60; stroke-opacity:1; 
stroke-linecap:round; stroke-linejoin:round;">
<path d="M62990 77960
L62990 78740
" />
</g>
<g style="fill:#840000; fill-opacity:0.0; 
stroke:#840000; stroke-width:100; stroke-opacity:1; 
stroke-linecap:round; stroke-linejoin:round;">
</g>
<g style="fill:#840000; fill-opacity:0.0; 
stroke:#840000; stroke-width:60; stroke-opacity:1; 
stroke-linecap:round; stroke-linejoin:round;">
<path d="M82680 77960
L82680 78740
" />
</g>
<g style="fill:#840000; fill-opacity:0.0; 
stroke:#840000; stroke-width:100; stroke-opacity:1; 
stroke-linecap:round; stroke-linejoin:round;">
</g>
<g style="fill:#840000; fill-opacity:0.0; 
stroke:#840000; stroke-width:60; stroke-opacity:1; 
stroke-linecap:round; stroke-linejoin:round;">
<path d="M102360 77960
L102360 78740
" />
</g>
<g style="fill:#840000; fill-opacity:0.0; 
stroke:#840000; stroke-width:100; stroke-opacity:1; 
stroke-linecap:round; stroke-linejoin:round;">
</g>
<g style="fill:#840000; fill-opacity:0.0; 
stroke:#840000; stroke-width:60; stroke-opacity:1; 
stroke-linecap:round; stroke-linejoin:round;">
<text x="13780" y="78600"
textLength="550" font-size="680" lengthAdjust="spacingAndGlyphs"
text-anchor="start" opacity="0">1</text>
<path d="M14190 78580
L13900 78580
" />
<path d="M14050 78580
L14050 78070
L14000 78140
L13950 78190
L13900 78210
" />
</g>
<g style="fill:#840000; fill-opacity:0.0; 
stroke:#840000; stroke-width:100; stroke-opacity:1; 
stroke-linecap:round; stroke-linejoin:round;">
</g>
<g style="fill:#840000; fill-opacity:0.0; 
stroke:#840000; stroke-width:60; stroke-opacity:1; 
stroke-linecap:round; stroke-linejoin:round;">
<text x="33460" y="78600"
textLength="550" font-size="680" lengthAdjust="spacingAndGlyphs"
text-anchor="start" opacity="0">2</text>
<path d="M33580 78110
L33610 78090
L33660 78070
L33780 78070
L33830 78090
L33850 78110
L33870 78160
L33870 78210
L33850 78280
L33560 78580
L33870 78580
" />
</g>
<g style="fill:#840000; fill-opacity:0.0; 
stroke:#840000; stroke-width:100; stroke-opacity:1; 
stroke-linecap:round; stroke-linejoin:round;">
</g>
<g style="fill:#840000; fill-opacity:0.0; 
stroke:#840000; stroke-width:60; stroke-opacity:1; 
stroke-linecap:round; stroke-linejoin:round;">
<text x="53150" y="78600"
textLength="550" font-size="680" lengthAdjust="spacingAndGlyphs"
text-anchor="start" opacity="0">3</text>
<path d="M53250 78070
L53560 78070
L53390 78260
L53470 78260
L53520 78280
L53540 78310
L53560 78360
L53560 78480
L53540 78530
L53520 78550
L53470 78580
L53320 78580
L53270 78550
L53250 78530
" />
</g>
<g style="fill:#840000; fill-opacity:0.0; 
stroke:#840000; stroke-width:100; stroke-opacity:1; 
stroke-linecap:round; stroke-linejoin:round;">
</g>
<g style="fill:#840000; fill-opacity:0.0; 
stroke:#840000; stroke-width:60; stroke-opacity:1; 
stroke-linecap:round; stroke-linejoin:round;">
<text x="72830" y="78600"
textLength="550" font-size="680" lengthAdjust="spacingAndGlyphs"
text-anchor="start" opacity="0">4</text>
<path d="M73200 78240
L73200 78580
" />
<path d="M73070 78040
L72950 78410
L73270 78410
" />
</g>
<g style="fill:#840000; fill-opacity:0.0; 
stroke:#840000; stroke-width:100; stroke-opacity:1; 
stroke-linecap:round; stroke-linejoin:round;">
</g>
<g style="fill:#840000; fill-opacity:0.0; 
stroke:#840000; stroke-width:60; stroke-opacity:1; 
stroke-linecap:round; stroke-linejoin:round;">
<text x="92520" y="78600"
textLength="550" font-size="680" lengthAdjust="spacingAndGlyphs"
text-anchor="start" opacity="0">5</text>
<path d="M92910 78070
L92670 78070
L92640 78310
L92670 78280
L92720 78260
L92840 78260
L92890 78280
L92910 78310
L92930 78360
L92930 78480
L92910 78530
L92890 78550
L92840 78580
L92720 78580
L92670 78550
L92640 78530
" />
</g>
<g style="fill:#840000; fill-opacity:0.0; 
stroke:#840000; stroke-width:100; stroke-opacity:1; 
stroke-linecap:round; stroke-linejoin:round;">
</g>
<g style="fill:#840000; fill-opacity:0.0; 
stroke:#840000; stroke-width:60; stroke-opacity:1; 
stroke-linecap:round; stroke-linejoin:round;">
<text x="112200" y="78600"
textLength="550" font-size="680" lengthAdjust="spacingAndGlyphs"
text-anchor="start" opacity="0">6</text>
<path d="M112570 78070
L112470 78070
L112420 78090
L112400 78110
L112350 78190
L112320 78280
L112320 78480
L112350 78530
L112370 78550
L112420 78580
L112520 78580
L112570 78550
L112590 78530
L112610 78480
L112610 78360
L112590 78310
L112570 78280
L112520 78260
L112420 78260
L112370 78280
L112350 78310
L112320 78360
" />
</g>
<g style="fill:#840000; fill-opacity:0.0; 
stroke:#840000; stroke-width:100; stroke-opacity:1; 
stroke-linecap:round; stroke-linejoin:round;">
</g>
<g style="fill:#840000; fill-opacity:0.0; 
stroke:#840000; stroke-width:60; stroke-opacity:1; 
stroke-linecap:round; stroke-linejoin:round;">
<path d="M3940 23620
L4720 23620
" />
</g>
<g style="fill:#840000; fill-opacity:0.0; 
stroke:#840000; stroke-width:100; stroke-opacity:1; 
stroke-linecap:round; stroke-linejoin:round;">
</g>
<g style="fill:#840000; fill-opacity:0.0; 
stroke:#840000; stroke-width:60; stroke-opacity:1; 
stroke-linecap:round; stroke-linejoin:round;">
<path d="M3940 43310
L4720 43310
" />
</g>
<g style="fill:#840000; fill-opacity:0.0; 
stroke:#840000; stroke-width:100; stroke-opacity:1; 
stroke-linecap:round; stroke-linejoin:round;">
</g>
<g style="fill:#840000; fill-opacity:0.0; 
stroke:#840000; stroke-width:60; stroke-opacity:1; 
stroke-linecap:round; stroke-linejoin:round;">
<path d="M3940 62990
L4720 62990
" />
</g>
<g style="fill:#840000; fill-opacity:0.0; 
stroke:#840000; stroke-width:100; stroke-opacity:1; 
stroke-linecap:round; stroke-linejoin:round;">
</g>
<g style="fill:#840000; fill-opacity:0.0; 
stroke:#840000; stroke-width:60; stroke-opacity:1; 
stroke-linecap:round; stroke-linejoin:round;">
<text x="4330" y="14030"
textLength="500" font-size="680" lengthAdjust="spacingAndGlyphs"
text-anchor="middle" opacity="0">A</text>
<path d="M4200 13860
L4450 13860
" />
<path d="M4160 14010
L4330 13500
L4500 14010
" />
</g>
<g style="fill:#840000; fill-opacity:0.0; 
stroke:#840000; stroke-width:100; stroke-opacity:1; 
stroke-linecap:round; stroke-linejoin:round;">
</g>
<g style="fill:#840000; fill-opacity:0.0; 
stroke:#840000; stroke-width:60; stroke-opacity:1; 
stroke-linecap:round; stroke-linejoin:round;">
<text x="4330" y="33710"
textLength="570" font-size="680" lengthAdjust="spacingAndGlyphs"
text-anchor="middle" opacity="0">B</text>
<path d="M4360 33420
L4430 33440
L4460 33470
L4480 33520
L4480 33590
L4460 33640
L4430 33660
L4390 33690
L4190 33690
L4190 33180
L4360 33180
L4410 33200
L4430 33220
L4460 33270
L4460 33320
L4430 33370
L4410 33390
L4360 33420
L4190 33420
" />
</g>
<g style="fill:#840000; fill-opacity:0.0; 
stroke:#840000; stroke-width:100; stroke-opacity:1; 
stroke-linecap:round; stroke-linejoin:round;">
</g>
<g style="fill:#840000; fill-opacity:0.0; 
stroke:#840000; stroke-width:60; stroke-opacity:1; 
stroke-linecap:round; stroke-linejoin:round;">
<text x="4330" y="53400"
textLength="570" font-size="680" lengthAdjust="spacingAndGlyphs"
text-anchor="middle" opacity="0">C</text>
<path d="M4480 53330
L4460 53350
L4390 53380
L4340 53380
L4260 53350
L4220 53300
L4190 53250
L4170 53160
L4170 53080
L4190 52990
L4220 52940
L4260 52890
L4340 52870
L4390 52870
L4460 52890
L4480 52910
" />
</g>
<g style="fill:#840000; fill-opacity:0.0; 
stroke:#840000; stroke-width:100; stroke-opacity:1; 
stroke-linecap:round; stroke-linejoin:round;">
</g>
<g style="fill:#840000; fill-opacity:0.0; 
stroke:#840000; stroke-width:60; stroke-opacity:1; 
stroke-linecap:round; stroke-linejoin:round;">
<text x="4330" y="73080"
textLength="570" font-size="680" lengthAdjust="spacingAndGlyphs"
text-anchor="middle" opacity="0">D</text>
<path d="M4190 73060
L4190 72550
L4310 72550
L4390 72570
L4430 72620
L4460 72670
L4480 72760
L4480 72840
L4460 72930
L4430 72980
L4390 73030
L4310 73060
L4190 73060
" />
</g>
<g style="fill:#840000; fill-opacity:0.0; 
stroke:#840000; stroke-width:100; stroke-opacity:1; 
stroke-linecap:round; stroke-linejoin:round;">
</g>
<g style="fill:#840000; fill-opacity:0.0; 
stroke:#840000; stroke-width:60; stroke-opacity:1; 
stroke-linecap:round; stroke-linejoin:round;">
<path d="M112990 23620
L112210 23620
" />
</g>
<g style="fill:#840000; fill-opacity:0.0; 
stroke:#840000; stroke-width:100; stroke-opacity:1; 
stroke-linecap:round; stroke-linejoin:round;">
</g>
<g style="fill:#840000; fill-opacity:0.0; 
stroke:#840000; stroke-width:60; stroke-opacity:1; 
stroke-linecap:round; stroke-linejoin:round;">
<path d="M112990 43310
L112210 43310
" />
</g>
<g style="fill:#840000; fill-opacity:0.0; 
stroke:#840000; stroke-width:100; stroke-opacity:1; 
stroke-linecap:round; stroke-linejoin:round;">
</g>
<g style="fill:#840000; fill-opacity:0.0; 
stroke:#840000; stroke-width:60; stroke-opacity:1; 
stroke-linecap:round; stroke-linejoin:round;">
<path d="M112990 62990
L112210 62990
" />
</g>
<g style="fill:#840000; fill-opacity:0.0; 
stroke:#840000; stroke-width:100; stroke-opacity:1; 
stroke-linecap:round; stroke-linejoin:round;">
</g>
<g style="fill:#840000; fill-opacity:0.0; 
stroke:#840000; stroke-width:60; stroke-opacity:1; 
stroke-linecap:round; stroke-linejoin:round;">
<text x="112600" y="14030"
textLength="500" font-size="680" lengthAdjust="spacingAndGlyphs"
text-anchor="middle" opacity="0">A</text>
<path d="M112470 13860
L112720 13860
" />
<path d="M112430 14010
L112600 13500
L112770 14010
" />
</g>
<g style="fill:#840000; fill-opacity:0.0; 
stroke:#840000; stroke-width:100; stroke-opacity:1; 
stroke-linecap:round; stroke-linejoin:round;">
</g>
<g style="fill:#840000; fill-opacity:0.0; 
stroke:#840000; stroke-width:60; stroke-opacity:1; 
stroke-linecap:round; stroke-linejoin:round;">
<text x="112600" y="33710"
textLength="570" font-size="680" lengthAdjust="spacingAndGlyphs"
text-anchor="middle" opacity="0">B</text>
<path d="M112630 33420
L112700 33440
L112730 33470
L112750 33520
L112750 33590
L112730 33640
L112700 33660
L112660 33690
L112460 33690
L112460 33180
L112630 33180
L112680 33200
L112700 33220
L112730 33270
L112730 33320
L112700 33370
L112680 33390
L112630 33420
L112460 33420
" />
</g>
<g style="fill:#840000; fill-opacity:0.0; 
stroke:#840000; stroke-width:100; stroke-opacity:1; 
stroke-linecap:round; stroke-linejoin:round;">
</g>
<g style="fill:#840000; fill-opacity:0.0; 
stroke:#840000; stroke-width:60; stroke-opacity:1; 
stroke-linecap:round; stroke-linejoin:round;">
<text x="112600" y="53400"
textLength="570" font-size="680" lengthAdjust="spacingAndGlyphs"
text-anchor="middle" opacity="0">C</text>
<path d="M112750 53330
L112730 53350
L112660 53380
L112610 53380
L112530 53350
L112490 53300
L112460 53250
L112440 53160
L112440 53080
L112460 52990
L112490 52940
L112530 52890
L112610 52870
L112660 52870
L112730 52890
L112750 52910
" />
</g>
<g style="fill:#840000; fill-opacity:0.0; 
stroke:#840000; stroke-width:100; stroke-opacity:1; 
stroke-linecap:round; stroke-linejoin:round;">
</g>
<g style="fill:#840000; fill-opacity:0.0; 
stroke:#840000; stroke-width:60; stroke-opacity:1; 
stroke-linecap:round; stroke-linejoin:round;">
<text x="112600" y="73080"
textLength="570" font-size="680" lengthAdjust="spacingAndGlyphs"
text-anchor="middle" opacity="0">D</text>
<path d="M112460 73060
L112460 72550
L112580 72550
L112660 72570
L112700 72620
L112730 72670
L112750 72760
L112750 72840
L112730 72930
L112700 72980
L112660 73030
L112580 73060
L112460 73060
" />
</g>
<g style="fill:#840000; fill-opacity:0.0; 
stroke:#840000; stroke-width:100; stroke-opacity:1; 
stroke-linecap:round; stroke-linejoin:round;">
</g>
<g style="fill:#840000; fill-opacity:0.0; 
stroke:#840000; stroke-width:60; stroke-opacity:1; 
stroke-linecap:round; stroke-linejoin:round;">
<text x="78740" y="76320"
textLength="2760" font-size="780" lengthAdjust="spacingAndGlyphs"
text-anchor="start" opacity="0">Date: </text>
<path d="M78910 76290
L78910 75700
L79050 75700
L79130 75730
L79190 75790
L79210 75840
L79240 75950
L79240 76040
L79210 76150
L79190 76210
L79130 76260
L79050 76290
L78910 76290
" />
<path d="M79750 76290
L79750 75980
L79720 75930
L79660 75900
L79550 75900
L79500 75930
" />
<path d="M79750 76260
L79690 76290
L79550 76290
L79500 76260
L79470 76210
L79470 76150
L79500 76100
L79550 76070
L79690 76070
L79750 76040
" />
<path d="M79950 75900
L80170 75900
" />
<path d="M80030 75700
L80030 76210
L80060 76260
L80110 76290
L80170 76290
" />
<path d="M80590 76260
L80540 76290
L80420 76290
L80370 76260
L80340 76210
L80340 75980
L80370 75930
L80420 75900
L80540 75900
L80590 75930
L80620 75980
L80620 76040
L80340 76100
" />
<path d="M80870 76240
L80900 76260
L80870 76290
L80840 76260
L80870 76240
L80870 76290
" />
<path d="M80870 75930
L80900 75950
L80870 75980
L80840 75950
L80870 75930
L80870 75980
" />
</g>
<g style="fill:#840000; fill-opacity:0.0; 
stroke:#840000; stroke-width:100; stroke-opacity:1; 
stroke-linecap:round; stroke-linejoin:round;">
</g>
<g style="fill:#840000; fill-opacity:0.0; 
stroke:#840000; stroke-width:60; stroke-opacity:1; 
stroke-linecap:round; stroke-linejoin:round;">
<path d="M69690 76580
L112210 76580
" />
</g>
<g style="fill:#840000; fill-opacity:0.0; 
stroke:#840000; stroke-width:100; stroke-opacity:1; 
stroke-linecap:round; stroke-linejoin:round;">
</g>
<g style="fill:#840000; fill-opacity:0.0; 
stroke:#840000; stroke-width:60; stroke-opacity:1; 
stroke-linecap:round; stroke-linejoin:round;">
<text x="70080" y="77420"
textLength="16950" font-size="780" lengthAdjust="spacingAndGlyphs"
text-anchor="start" opacity="0">KiCad E.D.A.  kicad (5.1.6-0-10_14)</text>
<path d="M70250 77390
L70250 76800
" />
<path d="M70580 77390
L70330 77050
" />
<path d="M70580 76800
L70250 77140
" />
<path d="M70840 77390
L70840 77000
" />
<path d="M70840 76800
L70810 76830
L70840 76860
L70860 76830
L70840 76800
L70840 76860
" />
<path d="M71450 77340
L71430 77360
L71340 77390
L71290 77390
L71200 77360
L71140 77310
L71120 77250
L71090 77140
L71090 77050
L71120 76940
L71140 76890
L71200 76830
L71290 76800
L71340 76800
L71430 76830
L71450 76860
" />
<path d="M71960 77390
L71960 77080
L71930 77030
L71880 77000
L71760 77000
L71710 77030
" />
<path d="M71960 77360
L71900 77390
L71760 77390
L71710 77360
L71680 77310
L71680 77250
L71710 77200
L71760 77170
L71900 77170
L71960 77140
" />
<path d="M72490 77390
L72490 76800
" />
<path d="M72490 77360
L72440 77390
L72320 77390
L72270 77360
L72240 77340
L72210 77280
L72210 77110
L72240 77050
L72270 77030
L72320 77000
L72440 77000
L72490 77030
" />
<path d="M73220 77080
L73420 77080
" />
<path d="M73500 77390
L73220 77390
L73220 76800
L73500 76800
" />
<path d="M73760 77340
L73790 77360
L73760 77390
L73730 77360
L73760 77340
L73760 77390
" />
<path d="M74040 77390
L74040 76800
L74180 76800
L74260 76830
L74320 76890
L74350 76940
L74380 77050
L74380 77140
L74350 77250
L74320 77310
L74260 77360
L74180 77390
L74040 77390
" />
<path d="M74630 77340
L74660 77360
L74630 77390
L74600 77360
L74630 77340
L74630 77390
" />
<path d="M74880 77220
L75160 77220
" />
<path d="M74830 77390
L75020 76800
L75220 77390
" />
<path d="M75420 77340
L75440 77360
L75420 77390
L75390 77360
L75420 77340
L75420 77390
" />
<path d="M76600 77390
L76600 76800
" />
<path d="M76650 77170
L76820 77390
" />
<path d="M76820 77000
L76600 77220
" />
<path d="M77070 77390
L77070 77000
" />
<path d="M77070 76800
L77040 76830
L77070 76860
L77100 76830
L77070 76800
L77070 76860
" />
<path d="M77610 77360
L77550 77390
L77440 77390
L77380 77360
L77350 77340
L77330 77280
L77330 77110
L77350 77050
L77380 77030
L77440 77000
L77550 77000
L77610 77030
" />
<path d="M78110 77390
L78110 77080
L78080 77030
L78030 77000
L77920 77000
L77860 77030
" />
<path d="M78110 77360
L78060 77390
L77920 77390
L77860 77360
L77830 77310
L77830 77250
L77860 77200
L77920 77170
L78060 77170
L78110 77140
" />
<path d="M78650 77390
L78650 76800
" />
<path d="M78650 77360
L78590 77390
L78480 77390
L78420 77360
L78390 77340
L78370 77280
L78370 77110
L78390 77050
L78420 77030
L78480 77000
L78590 77000
L78650 77030
" />
<path d="M79550 77620
L79520 77590
L79460 77500
L79430 77450
L79400 77360
L79380 77220
L79380 77110
L79400 76970
L79430 76890
L79460 76830
L79520 76750
L79550 76720
" />
<path d="M80050 76800
L79770 76800
L79740 77080
L79770 77050
L79830 77030
L79970 77030
L80020 77050
L80050 77080
L80080 77140
L80080 77280
L80050 77340
L80020 77360
L79970 77390
L79830 77390
L79770 77360
L79740 77340
" />
<path d="M80330 77340
L80360 77360
L80330 77390
L80300 77360
L80330 77340
L80330 77390
" />
<path d="M80920 77390
L80580 77390
" />
<path d="M80750 77390
L80750 76800
L80700 76890
L80640 76940
L80580 76970
" />
<path d="M81170 77340
L81200 77360
L81170 77390
L81150 77360
L81170 77340
L81170 77390
" />
<path d="M81710 76800
L81600 76800
L81540 76830
L81510 76860
L81460 76940
L81430 77050
L81430 77280
L81460 77340
L81480 77360
L81540 77390
L81650 77390
L81710 77360
L81740 77340
L81760 77280
L81760 77140
L81740 77080
L81710 77050
L81650 77030
L81540 77030
L81480 77050
L81460 77080
L81430 77140
" />
<path d="M82020 77170
L82470 77170
" />
<path d="M82860 76800
L82920 76800
L82970 76830
L83000 76860
L83030 76910
L83060 77030
L83060 77170
L83030 77280
L83000 77340
L82970 77360
L82920 77390
L82860 77390
L82800 77360
L82780 77340
L82750 77280
L82720 77170
L82720 77030
L82750 76910
L82780 76860
L82800 76830
L82860 76800
" />
<path d="M83310 77170
L83760 77170
" />
<path d="M84350 77390
L84010 77390
" />
<path d="M84180 77390
L84180 76800
L84120 76890
L84070 76940
L84010 76970
" />
<path d="M84710 76800
L84770 76800
L84830 76830
L84860 76860
L84880 76910
L84910 77030
L84910 77170
L84880 77280
L84860 77340
L84830 77360
L84770 77390
L84710 77390
L84660 77360
L84630 77340
L84600 77280
L84570 77170
L84570 77030
L84600 76910
L84630 76860
L84660 76830
L84710 76800
" />
<path d="M85020 77450
L85470 77450
" />
<path d="M85920 77390
L85590 77390
" />
<path d="M85750 77390
L85750 76800
L85700 76890
L85640 76940
L85590 76970
" />
<path d="M86430 77000
L86430 77390
" />
<path d="M86290 76770
L86150 77200
L86510 77200
" />
<path d="M86680 77620
L86710 77590
L86770 77500
L86790 77450
L86820 77360
L86850 77220
L86850 77110
L86820 76970
L86790 76890
L86770 76830
L86710 76750
L86680 76720
" />
</g>
<g style="fill:#840000; fill-opacity:0.0; 
stroke:#840000; stroke-width:100; stroke-opacity:1; 
stroke-linecap:round; stroke-linejoin:round;">
</g>
<g style="fill:#840000; fill-opacity:0.0; 
stroke:#840000; stroke-width:60; stroke-opacity:1; 
stroke-linecap:round; stroke-linejoin:round;">
<path d="M69690 75400
L112210 75400
" />
</g>
<g style="fill:#840000; fill-opacity:0.0; 
stroke:#840000; stroke-width:100; stroke-opacity:1; 
stroke-linecap:round; stroke-linejoin:round;">
</g>
<g style="fill:#840000; fill-opacity:0.0; 
stroke:#840000; stroke-width:120; stroke-opacity:1; 
stroke-linecap:round; stroke-linejoin:round;">
<text x="103540" y="76320"
textLength="2840" font-size="780" lengthAdjust="spacingAndGlyphs"
text-anchor="start" opacity="0">Rev: A</text>
<path d="M104090 76290
L103890 76010
" />
<path d="M103750 76290
L103750 75700
L103980 75700
L104030 75730
L104060 75760
L104090 75810
L104090 75900
L104060 75950
L104030 75980
L103980 76010
L103750 76010
" />
<path d="M104570 76260
L104510 76290
L104400 76290
L104340 76260
L104320 76210
L104320 75980
L104340 75930
L104400 75900
L104510 75900
L104570 75930
L104600 75980
L104600 76040
L104320 76100
" />
<path d="M104790 75900
L104930 76290
L105070 75900
" />
<path d="M105300 76240
L105330 76260
L105300 76290
L105270 76260
L105300 76240
L105300 76290
" />
<path d="M105300 75930
L105330 75950
L105300 75980
L105270 75950
L105300 75930
L105300 75980
" />
<path d="M106000 76120
L106280 76120
" />
<path d="M105940 76290
L106140 75700
L106340 76290
" />
</g>
<g style="fill:#840000; fill-opacity:0.0; 
stroke:#840000; stroke-width:100; stroke-opacity:1; 
stroke-linecap:round; stroke-linejoin:round;">
</g>
<g style="fill:#840000; fill-opacity:0.0; 
stroke:#840000; stroke-width:60; stroke-opacity:1; 
stroke-linecap:round; stroke-linejoin:round;">
<text x="70080" y="76320"
textLength="3780" font-size="780" lengthAdjust="spacingAndGlyphs"
text-anchor="start" opacity="0">Size: A4</text>
<path d="M70220 76260
L70300 76290
L70440 76290
L70500 76260
L70530 76240
L70550 76180
L70550 76120
L70530 76070
L70500 76040
L70440 76010
L70330 75980
L70270 75950
L70250 75930
L70220 75870
L70220 75810
L70250 75760
L70270 75730
L70330 75700
L70470 75700
L70550 75730
" />
<path d="M70810 76290
L70810 75900
" />
<path d="M70810 75700
L70780 75730
L70810 75760
L70840 75730
L70810 75700
L70810 75760
" />
<path d="M71030 75900
L71340 75900
L71030 76290
L71340 76290
" />
<path d="M71790 76260
L71730 76290
L71620 76290
L71570 76260
L71540 76210
L71540 75980
L71570 75930
L71620 75900
L71730 75900
L71790 75930
L71820 75980
L71820 76040
L71540 76100
" />
<path d="M72070 76240
L72100 76260
L72070 76290
L72040 76260
L72070 76240
L72070 76290
" />
<path d="M72070 75930
L72100 75950
L72070 75980
L72040 75950
L72070 75930
L72070 75980
" />
<path d="M72770 76120
L73060 76120
" />
<path d="M72720 76290
L72910 75700
L73110 76290
" />
<path d="M73560 75900
L73560 76290
" />
<path d="M73420 75670
L73280 76100
L73650 76100
" />
</g>
<g style="fill:#840000; fill-opacity:0.0; 
stroke:#840000; stroke-width:100; stroke-opacity:1; 
stroke-linecap:round; stroke-linejoin:round;">
</g>
<g style="fill:#840000; fill-opacity:0.0; 
stroke:#840000; stroke-width:60; stroke-opacity:1; 
stroke-linecap:round; stroke-linejoin:round;">
<text x="103540" y="77420"
textLength="3910" font-size="780" lengthAdjust="spacingAndGlyphs"
text-anchor="start" opacity="0">Id: 4/15</text>
<path d="M103710 77390
L103710 76800
" />
<path d="M104240 77390
L104240 76800
" />
<path d="M104240 77360
L104180 77390
L104070 77390
L104010 77360
L103990 77340
L103960 77280
L103960 77110
L103990 77050
L104010 77030
L104070 77000
L104180 77000
L104240 77030
" />
<path d="M104520 77340
L104550 77360
L104520 77390
L104490 77360
L104520 77340
L104520 77390
" />
<path d="M104520 77030
L104550 77050
L104520 77080
L104490 77050
L104520 77030
L104520 77080
" />
<path d="M105500 77000
L105500 77390
" />
<path d="M105360 76770
L105220 77200
L105590 77200
" />
<path d="M106230 76770
L105730 77530
" />
<path d="M106740 77390
L106400 77390
" />
<path d="M106570 77390
L106570 76800
L106520 76890
L106460 76940
L106400 76970
" />
<path d="M107270 76800
L106990 76800
L106960 77080
L106990 77050
L107050 77030
L107190 77030
L107250 77050
L107270 77080
L107300 77140
L107300 77280
L107270 77340
L107250 77360
L107190 77390
L107050 77390
L106990 77360
L106960 77340
" />
</g>
<g style="fill:#840000; fill-opacity:0.0; 
stroke:#840000; stroke-width:100; stroke-opacity:1; 
stroke-linecap:round; stroke-linejoin:round;">
</g>
<g style="fill:#840000; fill-opacity:0.0; 
stroke:#840000; stroke-width:60; stroke-opacity:1; 
stroke-linecap:round; stroke-linejoin:round;">
<path d="M69690 73820
L112210 73820
" />
</g>
<g style="fill:#840000; fill-opacity:0.0; 
stroke:#840000; stroke-width:100; stroke-opacity:1; 
stroke-linecap:round; stroke-linejoin:round;">
</g>
<g style="fill:#840000; fill-opacity:0.0; 
stroke:#840000; stroke-width:160; stroke-opacity:1; 
stroke-linecap:round; stroke-linejoin:round;">
<text x="70080" y="74920"
textLength="3710" font-size="1050" lengthAdjust="spacingAndGlyphs"
text-anchor="start" opacity="0">Title: </text>
<path d="M70360 74090
L70810 74090
" />
<path d="M70480 74880
L70580 74090
" />
<path d="M70970 74880
L71040 74360
" />
<path d="M71070 74090
L71030 74130
L71060 74170
L71110 74130
L71070 74090
L71060 74170
" />
<path d="M71300 74360
L71600 74360
" />
<path d="M71450 74090
L71360 74770
L71390 74840
L71460 74880
L71540 74880
" />
<path d="M71910 74880
L71840 74840
L71820 74770
L71900 74090
" />
<path d="M72520 74840
L72440 74880
L72290 74880
L72220 74840
L72190 74770
L72230 74470
L72280 74390
L72360 74360
L72510 74360
L72580 74390
L72610 74470
L72600 74540
L72210 74620
" />
<path d="M72900 74810
L72930 74840
L72890 74880
L72860 74840
L72900 74810
L72890 74880
" />
<path d="M72950 74390
L72990 74430
L72940 74470
L72910 74430
L72950 74390
L72940 74470
" />
</g>
<g style="fill:#840000; fill-opacity:0.0; 
stroke:#840000; stroke-width:100; stroke-opacity:1; 
stroke-linecap:round; stroke-linejoin:round;">
</g>
<g style="fill:#840000; fill-opacity:0.0; 
stroke:#840000; stroke-width:60; stroke-opacity:1; 
stroke-linecap:round; stroke-linejoin:round;">
<text x="70080" y="73400"
textLength="12740" font-size="780" lengthAdjust="spacingAndGlyphs"
text-anchor="start" opacity="0">File: InputBufferAndGain.sch</text>
<path d="M70440 73060
L70250 73060
" />
<path d="M70250 73370
L70250 72780
L70530 72780
" />
<path d="M70750 73370
L70750 72980
" />
<path d="M70750 72780
L70720 72810
L70750 72840
L70780 72810
L70750 72780
L70750 72840
" />
<path d="M71120 73370
L71060 73340
L71030 73290
L71030 72780
" />
<path d="M71570 73340
L71510 73370
L71400 73370
L71340 73340
L71310 73290
L71310 73060
L71340 73010
L71400 72980
L71510 72980
L71570 73010
L71590 73060
L71590 73120
L71310 73180
" />
<path d="M71850 73320
L71880 73340
L71850 73370
L71820 73340
L71850 73320
L71850 73370
" />
<path d="M71850 73010
L71880 73030
L71850 73060
L71820 73030
L71850 73010
L71850 73060
" />
<path d="M72580 73370
L72580 72780
" />
<path d="M72860 72980
L72860 73370
" />
<path d="M72860 73030
L72890 73010
L72940 72980
L73030 72980
L73080 73010
L73110 73060
L73110 73370
" />
<path d="M73390 72980
L73390 73570
" />
<path d="M73390 73010
L73450 72980
L73560 72980
L73620 73010
L73650 73030
L73670 73090
L73670 73260
L73650 73320
L73620 73340
L73560 73370
L73450 73370
L73390 73340
" />
<path d="M74180 72980
L74180 73370
" />
<path d="M73930 72980
L73930 73290
L73950 73340
L74010 73370
L74090 73370
L74150 73340
L74180 73320
" />
<path d="M74380 72980
L74600 72980
" />
<path d="M74460 72780
L74460 73290
L74490 73340
L74540 73370
L74600 73370
" />
<path d="M74990 73060
L75080 73090
L75110 73120
L75130 73180
L75130 73260
L75110 73320
L75080 73340
L75020 73370
L74800 73370
L74800 72780
L74990 72780
L75050 72810
L75080 72840
L75110 72890
L75110 72950
L75080 73010
L75050 73030
L74990 73060
L74800 73060
" />
<path d="M75640 72980
L75640 73370
" />
<path d="M75390 72980
L75390 73290
L75420 73340
L75470 73370
L75560 73370
L75610 73340
L75640 73320
" />
<path d="M75840 72980
L76060 72980
" />
<path d="M75920 73370
L75920 72870
L75950 72810
L76010 72780
L76060 72780
" />
<path d="M76170 72980
L76400 72980
" />
<path d="M76260 73370
L76260 72870
L76290 72810
L76340 72780
L76400 72780
" />
<path d="M76820 73340
L76760 73370
L76650 73370
L76600 73340
L76570 73290
L76570 73060
L76600 73010
L76650 72980
L76760 72980
L76820 73010
L76850 73060
L76850 73120
L76570 73180
" />
<path d="M77100 73370
L77100 72980
" />
<path d="M77100 73090
L77130 73030
L77160 73010
L77210 72980
L77270 72980
" />
<path d="M77440 73200
L77720 73200
" />
<path d="M77380 73370
L77580 72780
L77780 73370
" />
<path d="M77970 72980
L77970 73370
" />
<path d="M77970 73030
L78000 73010
L78060 72980
L78140 72980
L78200 73010
L78220 73060
L78220 73370
" />
<path d="M78760 73370
L78760 72780
" />
<path d="M78760 73340
L78700 73370
L78590 73370
L78530 73340
L78510 73320
L78480 73260
L78480 73090
L78510 73030
L78530 73010
L78590 72980
L78700 72980
L78760 73010
" />
<path d="M79350 72810
L79290 72780
L79210 72780
L79120 72810
L79070 72870
L79040 72920
L79010 73030
L79010 73120
L79040 73230
L79070 73290
L79120 73340
L79210 73370
L79260 73370
L79350 73340
L79380 73320
L79380 73120
L79260 73120
" />
<path d="M79880 73370
L79880 73060
L79850 73010
L79800 72980
L79690 72980
L79630 73010
" />
<path d="M79880 73340
L79830 73370
L79690 73370
L79630 73340
L79600 73290
L79600 73230
L79630 73180
L79690 73150
L79830 73150
L79880 73120
" />
<path d="M80160 73370
L80160 72980
" />
<path d="M80160 72780
L80140 72810
L80160 72840
L80190 72810
L80160 72780
L80160 72840
" />
<path d="M80440 72980
L80440 73370
" />
<path d="M80440 73030
L80470 73010
L80530 72980
L80610 72980
L80670 73010
L80700 73060
L80700 73370
" />
<path d="M80980 73320
L81010 73340
L80980 73370
L80950 73340
L80980 73320
L80980 73370
" />
<path d="M81230 73340
L81290 73370
L81400 73370
L81460 73340
L81480 73290
L81480 73260
L81460 73200
L81400 73180
L81320 73180
L81260 73150
L81230 73090
L81230 73060
L81260 73010
L81320 72980
L81400 72980
L81460 73010
" />
<path d="M81990 73340
L81930 73370
L81820 73370
L81760 73340
L81740 73320
L81710 73260
L81710 73090
L81740 73030
L81760 73010
L81820 72980
L81930 72980
L81990 73010
" />
<path d="M82240 73370
L82240 72780
" />
<path d="M82500 73370
L82500 73060
L82470 73010
L82410 72980
L82330 72980
L82270 73010
L82240 73030
" />
</g>
<g style="fill:#840000; fill-opacity:0.0; 
stroke:#840000; stroke-width:100; stroke-opacity:1; 
stroke-linecap:round; stroke-linejoin:round;">
</g>
<g style="fill:#840000; fill-opacity:0.0; 
stroke:#840000; stroke-width:60; stroke-opacity:1; 
stroke-linecap:round; stroke-linejoin:round;">
<path d="M69690 71460
L112210 71460
" />
</g>
<g style="fill:#840000; fill-opacity:0.0; 
stroke:#840000; stroke-width:100; stroke-opacity:1; 
stroke-linecap:round; stroke-linejoin:round;">
</g>
<g style="fill:#840000; fill-opacity:0.0; 
stroke:#840000; stroke-width:60; stroke-opacity:1; 
stroke-linecap:round; stroke-linejoin:round;">
<text x="70080" y="72340"
textLength="13430" font-size="780" lengthAdjust="spacingAndGlyphs"
text-anchor="start" opacity="0">Sheet: /InputBufferAndGain3/</text>
<path d="M70220 72280
L70300 72310
L70440 72310
L70500 72280
L70530 72260
L70550 72200
L70550 72140
L70530 72090
L70500 72060
L70440 72030
L70330 72000
L70270 71970
L70250 71950
L70220 71890
L70220 71830
L70250 71780
L70270 71750
L70330 71720
L70470 71720
L70550 71750
" />
<path d="M70810 72310
L70810 71720
" />
<path d="M71060 72310
L71060 72000
L71030 71950
L70980 71920
L70890 71920
L70840 71950
L70810 71970
" />
<path d="M71570 72280
L71510 72310
L71400 72310
L71340 72280
L71310 72230
L71310 72000
L71340 71950
L71400 71920
L71510 71920
L71570 71950
L71590 72000
L71590 72060
L71310 72120
" />
<path d="M72070 72280
L72020 72310
L71900 72310
L71850 72280
L71820 72230
L71820 72000
L71850 71950
L71900 71920
L72020 71920
L72070 71950
L72100 72000
L72100 72060
L71820 72120
" />
<path d="M72270 71920
L72490 71920
" />
<path d="M72350 71720
L72350 72230
L72380 72280
L72440 72310
L72490 72310
" />
<path d="M72690 72260
L72720 72280
L72690 72310
L72660 72280
L72690 72260
L72690 72310
" />
<path d="M72690 71950
L72720 71970
L72690 72000
L72660 71970
L72690 71950
L72690 72000
" />
<path d="M73840 71690
L73340 72450
" />
<path d="M74040 72310
L74040 71720
" />
<path d="M74320 71920
L74320 72310
" />
<path d="M74320 71970
L74350 71950
L74400 71920
L74490 71920
L74540 71950
L74570 72000
L74570 72310
" />
<path d="M74850 71920
L74850 72510
" />
<path d="M74850 71950
L74910 71920
L75020 71920
L75080 71950
L75110 71970
L75130 72030
L75130 72200
L75110 72260
L75080 72280
L75020 72310
L74910 72310
L74850 72280
" />
<path d="M75640 71920
L75640 72310
" />
<path d="M75390 71920
L75390 72230
L75420 72280
L75470 72310
L75560 72310
L75610 72280
L75640 72260
" />
<path d="M75840 71920
L76060 71920
" />
<path d="M75920 71720
L75920 72230
L75950 72280
L76010 72310
L76060 72310
" />
<path d="M76450 72000
L76540 72030
L76570 72060
L76600 72120
L76600 72200
L76570 72260
L76540 72280
L76480 72310
L76260 72310
L76260 71720
L76450 71720
L76510 71750
L76540 71780
L76570 71830
L76570 71890
L76540 71950
L76510 71970
L76450 72000
L76260 72000
" />
<path d="M77100 71920
L77100 72310
" />
<path d="M76850 71920
L76850 72230
L76880 72280
L76930 72310
L77020 72310
L77070 72280
L77100 72260
" />
<path d="M77300 71920
L77520 71920
" />
<path d="M77380 72310
L77380 71810
L77410 71750
L77470 71720
L77520 71720
" />
<path d="M77630 71920
L77860 71920
" />
<path d="M77720 72310
L77720 71810
L77750 71750
L77800 71720
L77860 71720
" />
<path d="M78280 72280
L78220 72310
L78110 72310
L78060 72280
L78030 72230
L78030 72000
L78060 71950
L78110 71920
L78220 71920
L78280 71950
L78310 72000
L78310 72060
L78030 72120
" />
<path d="M78560 72310
L78560 71920
" />
<path d="M78560 72030
L78590 71970
L78620 71950
L78670 71920
L78730 71920
" />
<path d="M78900 72140
L79180 72140
" />
<path d="M78840 72310
L79040 71720
L79240 72310
" />
<path d="M79430 71920
L79430 72310
" />
<path d="M79430 71970
L79460 71950
L79520 71920
L79600 71920
L79660 71950
L79690 72000
L79690 72310
" />
<path d="M80220 72310
L80220 71720
" />
<path d="M80220 72280
L80160 72310
L80050 72310
L79990 72280
L79970 72260
L79940 72200
L79940 72030
L79970 71970
L79990 71950
L80050 71920
L80160 71920
L80220 71950
" />
<path d="M80810 71750
L80750 71720
L80670 71720
L80580 71750
L80530 71810
L80500 71860
L80470 71970
L80470 72060
L80500 72170
L80530 72230
L80580 72280
L80670 72310
L80730 72310
L80810 72280
L80840 72260
L80840 72060
L80730 72060
" />
<path d="M81340 72310
L81340 72000
L81320 71950
L81260 71920
L81150 71920
L81090 71950
" />
<path d="M81340 72280
L81290 72310
L81150 72310
L81090 72280
L81060 72230
L81060 72170
L81090 72120
L81150 72090
L81290 72090
L81340 72060
" />
<path d="M81620 72310
L81620 71920
" />
<path d="M81620 71720
L81600 71750
L81620 71780
L81650 71750
L81620 71720
L81620 71780
" />
<path d="M81910 71920
L81910 72310
" />
<path d="M81910 71970
L81930 71950
L81990 71920
L82070 71920
L82130 71950
L82160 72000
L82160 72310
" />
<path d="M82380 71720
L82750 71720
L82550 71950
L82640 71950
L82690 71970
L82720 72000
L82750 72060
L82750 72200
L82720 72260
L82690 72280
L82640 72310
L82470 72310
L82410 72280
L82380 72260
" />
<path d="M83420 71690
L82920 72450
" />
</g>
<g style="fill:#840000; fill-opacity:0.0; 
stroke:#840000; stroke-width:100; stroke-opacity:1; 
stroke-linecap:round; stroke-linejoin:round;">
</g>
<g style="fill:#840000; fill-opacity:0.0; 
stroke:#840000; stroke-width:60; stroke-opacity:1; 
stroke-linecap:round; stroke-linejoin:round;">
<path d="M77560 75400
L77560 76580
" />
</g>
<g style="fill:#840000; fill-opacity:0.0; 
stroke:#840000; stroke-width:100; stroke-opacity:1; 
stroke-linecap:round; stroke-linejoin:round;">
</g>
<g style="fill:#840000; fill-opacity:0.0; 
stroke:#840000; stroke-width:60; stroke-opacity:1; 
stroke-linecap:round; stroke-linejoin:round;">
<path d="M102760 75400
L102760 77960
" />
</g>
<g style="fill:#840000; fill-opacity:0.0; 
stroke:#840000; stroke-width:0; stroke-opacity:1; 
stroke-linecap:round; stroke-linejoin:round;">
<g >
</g>
<g style="fill:#840000; fill-opacity:0.0; 
stroke:#840000; stroke-width:200; stroke-opacity:1; 
stroke-linecap:round; stroke-linejoin:round;">
<path style="fill:#840000; fill-opacity:0.0; 
stroke:#840000; stroke-width:200; stroke-opacity:1; 
stroke-linecap:round; stroke-linejoin:round;fill:none"
d="M 75700,12700
75700,14300
" /> 
<path style="fill:#840000; fill-opacity:0.0; 
stroke:#840000; stroke-width:200; stroke-opacity:1; 
stroke-linecap:round; stroke-linejoin:round;fill:none"
d="M 76300,12700
76300,14300
" /> 
</g>
<g style="fill:#840000; fill-opacity:0.0; 
stroke:#840000; stroke-width:60; stroke-opacity:1; 
stroke-linecap:round; stroke-linejoin:round;">
<path d="M76400 13500
L77500 13500
" />
<path d="M75600 13500
L74500 13500
" />
</g>
<g style="fill:#008484; fill-opacity:0.0; 
stroke:#008484; stroke-width:60; stroke-opacity:1; 
stroke-linecap:round; stroke-linejoin:round;">
<text x="75250" y="12270"
textLength="1510" font-size="660" lengthAdjust="spacingAndGlyphs"
text-anchor="middle" opacity="0">C36</text>
<path d="M74920 12190
L74900 12220
L74830 12240
L74780 12240
L74710 12220
L74660 12170
L74640 12120
L74610 12030
L74610 11960
L74640 11860
L74660 11810
L74710 11770
L74780 11740
L74830 11740
L74900 11770
L74920 11790
" />
<path d="M75090 11740
L75400 11740
L75230 11930
L75300 11930
L75350 11960
L75380 11980
L75400 12030
L75400 12150
L75380 12190
L75350 12220
L75300 12240
L75160 12240
L75110 12220
L75090 12190
" />
<path d="M75830 11740
L75730 11740
L75690 11770
L75660 11790
L75610 11860
L75590 11960
L75590 12150
L75610 12190
L75640 12220
L75690 12240
L75780 12240
L75830 12220
L75850 12190
L75880 12150
L75880 12030
L75850 11980
L75830 11960
L75780 11930
L75690 11930
L75640 11960
L75610 11980
L75590 12030
" />
<text x="77210" y="12270"
textLength="1420" font-size="660" lengthAdjust="spacingAndGlyphs"
text-anchor="middle" opacity="0">1nF</text>
<path d="M76910 12240
L76620 12240
" />
<path d="M76760 12240
L76760 11740
L76720 11810
L76670 11860
L76620 11880
" />
<path d="M77120 11910
L77120 12240
" />
<path d="M77120 11960
L77150 11930
L77190 11910
L77260 11910
L77310 11930
L77340 11980
L77340 12240
" />
<path d="M77740 11980
L77570 11980
" />
<path d="M77570 12240
L77570 11740
L77810 11740
" />
</g>
</g>
<g style="fill:#008484; fill-opacity:0.0; 
stroke:#008484; stroke-width:0; stroke-opacity:1; 
stroke-linecap:round; stroke-linejoin:round;">
<g >
</g>
<g style="fill:#840000; fill-opacity:0.0; 
stroke:#840000; stroke-width:0; stroke-opacity:1; 
stroke-linecap:round; stroke-linejoin:round;">
</g>
<g style="fill:#840000; fill-opacity:0.0; 
stroke:#840000; stroke-width:60; stroke-opacity:1; 
stroke-linecap:round; stroke-linejoin:round;">
<path style="fill:#840000; fill-opacity:0.0; 
stroke:#840000; stroke-width:60; stroke-opacity:1; 
stroke-linecap:round; stroke-linejoin:round;fill:none"
d="M 39000,68250
39000,68750
39500,68750
39000,69250
38500,68750
39000,68750
" /> 
</g>
<g style="fill:#008484; fill-opacity:0.0; 
stroke:#008484; stroke-width:60; stroke-opacity:1; 
stroke-linecap:round; stroke-linejoin:round;">
<text x="39050" y="70250"
textLength="2060" font-size="660" lengthAdjust="spacingAndGlyphs"
text-anchor="middle" opacity="0">GNDS</text>
<path d="M38430 69750
L38380 69720
L38310 69720
L38240 69750
L38190 69790
L38160 69840
L38140 69940
L38140 70010
L38160 70100
L38190 70150
L38240 70200
L38310 70220
L38350 70220
L38430 70200
L38450 70170
L38450 70010
L38350 70010
" />
<path d="M38660 70220
L38660 69720
L38950 70220
L38950 69720
" />
<path d="M39190 70220
L39190 69720
L39310 69720
L39380 69750
L39430 69790
L39450 69840
L39470 69940
L39470 70010
L39450 70100
L39430 70150
L39380 70200
L39310 70220
L39190 70220
" />
<path d="M39660 70200
L39740 70220
L39850 70220
L39900 70200
L39930 70170
L39950 70130
L39950 70080
L39930 70030
L39900 70010
L39850 69980
L39760 69960
L39710 69940
L39690 69910
L39660 69860
L39660 69820
L39690 69770
L39710 69750
L39760 69720
L39880 69720
L39950 69750
" />
</g>
</g>
<g style="fill:#008484; fill-opacity:0.0; 
stroke:#008484; stroke-width:0; stroke-opacity:1; 
stroke-linecap:round; stroke-linejoin:round;">
<g >
</g>
<g style="fill:#840000; fill-opacity:0.0; 
stroke:#840000; stroke-width:0; stroke-opacity:1; 
stroke-linecap:round; stroke-linejoin:round;">
</g>
<g style="fill:#840000; fill-opacity:0.0; 
stroke:#840000; stroke-width:60; stroke-opacity:1; 
stroke-linecap:round; stroke-linejoin:round;">
<path style="fill:#840000; fill-opacity:0.0; 
stroke:#840000; stroke-width:60; stroke-opacity:1; 
stroke-linecap:round; stroke-linejoin:round;fill:none"
d="M 66750,36250
66750,36750
67250,36750
66750,37250
66250,36750
66750,36750
" /> 
</g>
<g style="fill:#008484; fill-opacity:0.0; 
stroke:#008484; stroke-width:60; stroke-opacity:1; 
stroke-linecap:round; stroke-linejoin:round;">
<text x="66800" y="38250"
textLength="2060" font-size="660" lengthAdjust="spacingAndGlyphs"
text-anchor="middle" opacity="0">GNDS</text>
<path d="M66180 37750
L66130 37720
L66060 37720
L65990 37750
L65940 37790
L65910 37840
L65890 37940
L65890 38010
L65910 38100
L65940 38150
L65990 38200
L66060 38220
L66100 38220
L66180 38200
L66200 38170
L66200 38010
L66100 38010
" />
<path d="M66410 38220
L66410 37720
L66700 38220
L66700 37720
" />
<path d="M66940 38220
L66940 37720
L67060 37720
L67130 37750
L67180 37790
L67200 37840
L67220 37940
L67220 38010
L67200 38100
L67180 38150
L67130 38200
L67060 38220
L66940 38220
" />
<path d="M67410 38200
L67490 38220
L67600 38220
L67650 38200
L67680 38170
L67700 38130
L67700 38080
L67680 38030
L67650 38010
L67600 37980
L67510 37960
L67460 37940
L67440 37910
L67410 37860
L67410 37820
L67440 37770
L67460 37750
L67510 37720
L67630 37720
L67700 37750
" />
</g>
</g>
<g style="fill:#008484; fill-opacity:0.0; 
stroke:#008484; stroke-width:0; stroke-opacity:1; 
stroke-linecap:round; stroke-linejoin:round;">
<g >
</g>
<g style="fill:#840000; fill-opacity:0.0; 
stroke:#840000; stroke-width:0; stroke-opacity:1; 
stroke-linecap:round; stroke-linejoin:round;">
</g>
<g style="fill:#840000; fill-opacity:0.0; 
stroke:#840000; stroke-width:60; stroke-opacity:1; 
stroke-linecap:round; stroke-linejoin:round;">
<path style="fill:#840000; fill-opacity:0.0; 
stroke:#840000; stroke-width:60; stroke-opacity:1; 
stroke-linecap:round; stroke-linejoin:round;fill:none"
d="M 31700,50000
32000,49500
" /> 
<path style="fill:#840000; fill-opacity:0.0; 
stroke:#840000; stroke-width:60; stroke-opacity:1; 
stroke-linecap:round; stroke-linejoin:round;fill:none"
d="M 32000,50500
32000,49500
" /> 
<path style="fill:#840000; fill-opacity:0.0; 
stroke:#840000; stroke-width:60; stroke-opacity:1; 
stroke-linecap:round; stroke-linejoin:round;fill:none"
d="M 32000,49500
32300,50000
" /> 
</g>
<g style="fill:#008484; fill-opacity:0.0; 
stroke:#008484; stroke-width:60; stroke-opacity:1; 
stroke-linecap:round; stroke-linejoin:round;">
<text x="32150" y="49040"
textLength="2300" font-size="660" lengthAdjust="spacingAndGlyphs"
text-anchor="middle" opacity="0">+3.3V</text>
<path d="M31150 48820
L31530 48820
" />
<path d="M31340 49010
L31340 48630
" />
<path d="M31720 48510
L32030 48510
L31860 48700
L31930 48700
L31980 48730
L32000 48750
L32030 48800
L32030 48920
L32000 48960
L31980 48990
L31930 49010
L31790 49010
L31740 48990
L31720 48960
" />
<path d="M32240 48960
L32260 48990
L32240 49010
L32220 48990
L32240 48960
L32240 49010
" />
<path d="M32430 48510
L32740 48510
L32570 48700
L32650 48700
L32690 48730
L32720 48750
L32740 48800
L32740 48920
L32720 48960
L32690 48990
L32650 49010
L32500 49010
L32450 48990
L32430 48960
" />
<path d="M32880 48510
L33050 49010
L33220 48510
" />
</g>
</g>
<g style="fill:#008484; fill-opacity:0.0; 
stroke:#008484; stroke-width:0; stroke-opacity:1; 
stroke-linecap:round; stroke-linejoin:round;">
<g >
</g>
<g style="fill:#840000; fill-opacity:0.0; 
stroke:#840000; stroke-width:0; stroke-opacity:1; 
stroke-linecap:round; stroke-linejoin:round;">
</g>
<g style="fill:#840000; fill-opacity:0.0; 
stroke:#840000; stroke-width:200; stroke-opacity:1; 
stroke-linecap:round; stroke-linejoin:round;">
<path style="fill:#840000; fill-opacity:0.0; 
stroke:#840000; stroke-width:200; stroke-opacity:1; 
stroke-linecap:round; stroke-linejoin:round;fill:none"
d="M 43700,64550
45300,64550
" /> 
<path style="fill:#840000; fill-opacity:0.0; 
stroke:#840000; stroke-width:200; stroke-opacity:1; 
stroke-linecap:round; stroke-linejoin:round;fill:none"
d="M 43700,63950
45300,63950
" /> 
</g>
<g style="fill:#840000; fill-opacity:0.0; 
stroke:#840000; stroke-width:60; stroke-opacity:1; 
stroke-linecap:round; stroke-linejoin:round;">
<path d="M44500 63850
L44500 62750
" />
<path d="M44500 64650
L44500 65750
" />
</g>
<g style="fill:#008484; fill-opacity:0.0; 
stroke:#008484; stroke-width:60; stroke-opacity:1; 
stroke-linecap:round; stroke-linejoin:round;">
<text x="46400" y="64060"
textLength="1510" font-size="660" lengthAdjust="spacingAndGlyphs"
text-anchor="middle" opacity="0">C35</text>
<path d="M46070 63980
L46050 64010
L45980 64030
L45930 64030
L45860 64010
L45810 63960
L45790 63910
L45760 63820
L45760 63750
L45790 63650
L45810 63600
L45860 63560
L45930 63530
L45980 63530
L46050 63560
L46070 63580
" />
<path d="M46240 63530
L46550 63530
L46380 63720
L46450 63720
L46500 63750
L46530 63770
L46550 63820
L46550 63940
L46530 63980
L46500 64010
L46450 64030
L46310 64030
L46260 64010
L46240 63980
" />
<path d="M47000 63530
L46760 63530
L46740 63770
L46760 63750
L46810 63720
L46930 63720
L46980 63750
L47000 63770
L47030 63820
L47030 63940
L47000 63980
L46980 64010
L46930 64030
L46810 64030
L46760 64010
L46740 63980
" />
<text x="46830" y="64970"
textLength="2370" font-size="660" lengthAdjust="spacingAndGlyphs"
text-anchor="middle" opacity="0">100nF</text>
<path d="M46050 64940
L45770 64940
" />
<path d="M45910 64940
L45910 64440
L45860 64510
L45810 64560
L45770 64580
" />
<path d="M46360 64440
L46410 64440
L46460 64470
L46480 64490
L46500 64540
L46530 64630
L46530 64750
L46500 64850
L46480 64890
L46460 64920
L46410 64940
L46360 64940
L46310 64920
L46290 64890
L46270 64850
L46240 64750
L46240 64630
L46270 64540
L46290 64490
L46310 64470
L46360 64440
" />
<path d="M46840 64440
L46880 64440
L46930 64470
L46960 64490
L46980 64540
L47000 64630
L47000 64750
L46980 64850
L46960 64890
L46930 64920
L46880 64940
L46840 64940
L46790 64920
L46770 64890
L46740 64850
L46720 64750
L46720 64630
L46740 64540
L46770 64490
L46790 64470
L46840 64440
" />
<path d="M47220 64610
L47220 64940
" />
<path d="M47220 64660
L47240 64630
L47290 64610
L47360 64610
L47410 64630
L47430 64680
L47430 64940
" />
<path d="M47840 64680
L47670 64680
" />
<path d="M47670 64940
L47670 64440
L47910 64440
" />
</g>
</g>
<g style="fill:#008484; fill-opacity:0.0; 
stroke:#008484; stroke-width:0; stroke-opacity:1; 
stroke-linecap:round; stroke-linejoin:round;">
<g >
</g>
<g style="fill:#840000; fill-opacity:0.0; 
stroke:#840000; stroke-width:0; stroke-opacity:1; 
stroke-linecap:round; stroke-linejoin:round;">
</g>
<g style="fill:#840000; fill-opacity:0.0; 
stroke:#840000; stroke-width:200; stroke-opacity:1; 
stroke-linecap:round; stroke-linejoin:round;">
<path style="fill:#840000; fill-opacity:0.0; 
stroke:#840000; stroke-width:200; stroke-opacity:1; 
stroke-linecap:round; stroke-linejoin:round;fill:none"
d="M 38200,64550
39800,64550
" /> 
<path style="fill:#840000; fill-opacity:0.0; 
stroke:#840000; stroke-width:200; stroke-opacity:1; 
stroke-linecap:round; stroke-linejoin:round;fill:none"
d="M 38200,63950
39800,63950
" /> 
</g>
<g style="fill:#840000; fill-opacity:0.0; 
stroke:#840000; stroke-width:60; stroke-opacity:1; 
stroke-linecap:round; stroke-linejoin:round;">
<path d="M39000 63850
L39000 62750
" />
<path d="M39000 64650
L39000 65750
" />
</g>
<g style="fill:#008484; fill-opacity:0.0; 
stroke:#008484; stroke-width:60; stroke-opacity:1; 
stroke-linecap:round; stroke-linejoin:round;">
<text x="40900" y="64060"
textLength="1510" font-size="660" lengthAdjust="spacingAndGlyphs"
text-anchor="middle" opacity="0">C34</text>
<path d="M40570 63980
L40550 64010
L40480 64030
L40430 64030
L40360 64010
L40310 63960
L40290 63910
L40260 63820
L40260 63750
L40290 63650
L40310 63600
L40360 63560
L40430 63530
L40480 63530
L40550 63560
L40570 63580
" />
<path d="M40740 63530
L41050 63530
L40880 63720
L40950 63720
L41000 63750
L41030 63770
L41050 63820
L41050 63940
L41030 63980
L41000 64010
L40950 64030
L40810 64030
L40760 64010
L40740 63980
" />
<path d="M41480 63700
L41480 64030
" />
<path d="M41360 63510
L41240 63860
L41550 63860
" />
<text x="41330" y="64970"
textLength="2370" font-size="660" lengthAdjust="spacingAndGlyphs"
text-anchor="middle" opacity="0">100nF</text>
<path d="M40550 64940
L40270 64940
" />
<path d="M40410 64940
L40410 64440
L40360 64510
L40310 64560
L40270 64580
" />
<path d="M40860 64440
L40910 64440
L40960 64470
L40980 64490
L41000 64540
L41030 64630
L41030 64750
L41000 64850
L40980 64890
L40960 64920
L40910 64940
L40860 64940
L40810 64920
L40790 64890
L40770 64850
L40740 64750
L40740 64630
L40770 64540
L40790 64490
L40810 64470
L40860 64440
" />
<path d="M41340 64440
L41380 64440
L41430 64470
L41460 64490
L41480 64540
L41500 64630
L41500 64750
L41480 64850
L41460 64890
L41430 64920
L41380 64940
L41340 64940
L41290 64920
L41270 64890
L41240 64850
L41220 64750
L41220 64630
L41240 64540
L41270 64490
L41290 64470
L41340 64440
" />
<path d="M41720 64610
L41720 64940
" />
<path d="M41720 64660
L41740 64630
L41790 64610
L41860 64610
L41910 64630
L41930 64680
L41930 64940
" />
<path d="M42340 64680
L42170 64680
" />
<path d="M42170 64940
L42170 64440
L42410 64440
" />
</g>
</g>
<g style="fill:#008484; fill-opacity:0.0; 
stroke:#008484; stroke-width:0; stroke-opacity:1; 
stroke-linecap:round; stroke-linejoin:round;">
<g >
</g>
<g style="fill:#840000; fill-opacity:0.0; 
stroke:#840000; stroke-width:0; stroke-opacity:1; 
stroke-linecap:round; stroke-linejoin:round;">
</g>
<g style="fill:#840000; fill-opacity:0.0; 
stroke:#840000; stroke-width:60; stroke-opacity:1; 
stroke-linecap:round; stroke-linejoin:round;">
<path d="M32000 59000
L32000 60500
" />
</g>
<g style="fill:#008484; fill-opacity:0.0; 
stroke:#008484; stroke-width:60; stroke-opacity:1; 
stroke-linecap:round; stroke-linejoin:round;">
<g transform="rotate(-90 32000 58950)">
<text x="32000" y="59200"
textLength="1110" font-size="660" lengthAdjust="spacingAndGlyphs"
text-anchor="start" opacity="0">V-</text>
</g>
<path d="M31720 58870
L32220 58700
L31720 58530
" />
<path d="M32030 58370
L32030 57990
" />
</g>
<g style="fill:#840000; fill-opacity:0.0; 
stroke:#840000; stroke-width:60; stroke-opacity:1; 
stroke-linecap:round; stroke-linejoin:round;">
<g transform="rotate(-90 31900 59750)">
<text x="31900" y="59750"
textLength="540" font-size="660" lengthAdjust="spacingAndGlyphs"
text-anchor="middle" opacity="0">4</text>
</g>
<path d="M31540 59650
L31870 59650
" />
<path d="M31350 59770
L31700 59890
L31700 59580
" />
<path d="M32000 56000
L32000 54500
" />
</g>
<g style="fill:#008484; fill-opacity:0.0; 
stroke:#008484; stroke-width:60; stroke-opacity:1; 
stroke-linecap:round; stroke-linejoin:round;">
<g transform="rotate(-90 32000 56050)">
<text x="32000" y="56300"
textLength="1110" font-size="660" lengthAdjust="spacingAndGlyphs"
text-anchor="end" opacity="0">V+</text>
</g>
<path d="M31720 57080
L32220 56910
L31720 56740
" />
<path d="M32030 56580
L32030 56190
" />
<path d="M32220 56380
L31840 56380
" />
</g>
<g style="fill:#840000; fill-opacity:0.0; 
stroke:#840000; stroke-width:60; stroke-opacity:1; 
stroke-linecap:round; stroke-linejoin:round;">
<g transform="rotate(-90 31900 55250)">
<text x="31900" y="55250"
textLength="540" font-size="660" lengthAdjust="spacingAndGlyphs"
text-anchor="middle" opacity="0">8</text>
</g>
<path d="M31590 55290
L31560 55340
L31540 55360
L31490 55390
L31470 55390
L31420 55360
L31400 55340
L31370 55290
L31370 55200
L31400 55150
L31420 55130
L31470 55100
L31490 55100
L31540 55130
L31560 55150
L31590 55200
L31590 55290
L31610 55340
L31630 55360
L31680 55390
L31780 55390
L31820 55360
L31850 55340
L31870 55290
L31870 55200
L31850 55150
L31820 55130
L31780 55100
L31680 55100
L31630 55130
L31610 55150
L31590 55200
" />
</g>
<g style="fill:#008484; fill-opacity:0.0; 
stroke:#008484; stroke-width:60; stroke-opacity:1; 
stroke-linecap:round; stroke-linejoin:round;">
<text x="33360" y="57310"
textLength="1560" font-size="660" lengthAdjust="spacingAndGlyphs"
text-anchor="middle" opacity="0">U8C</text>
<path d="M32720 56780
L32720 57190
L32750 57230
L32770 57260
L32820 57280
L32910 57280
L32960 57260
L32990 57230
L33010 57190
L33010 56780
" />
<path d="M33320 57000
L33270 56970
L33250 56950
L33220 56900
L33220 56880
L33250 56830
L33270 56810
L33320 56780
L33410 56780
L33460 56810
L33490 56830
L33510 56880
L33510 56900
L33490 56950
L33460 56970
L33410 57000
L33320 57000
L33270 57020
L33250 57040
L33220 57090
L33220 57190
L33250 57230
L33270 57260
L33320 57280
L33410 57280
L33460 57260
L33490 57230
L33510 57190
L33510 57090
L33490 57040
L33460 57020
L33410 57000
" />
<path d="M34010 57230
L33990 57260
L33910 57280
L33870 57280
L33800 57260
L33750 57210
L33720 57160
L33700 57070
L33700 57000
L33720 56900
L33750 56850
L33800 56810
L33870 56780
L33910 56780
L33990 56810
L34010 56830
" />
<text x="33710" y="58220"
textLength="2270" font-size="660" lengthAdjust="spacingAndGlyphs"
text-anchor="middle" opacity="0">TL072</text>
<path d="M32650 57690
L32930 57690
" />
<path d="M32790 58190
L32790 57690
" />
<path d="M33340 58190
L33100 58190
L33100 57690
" />
<path d="M33600 57690
L33650 57690
L33690 57720
L33720 57740
L33740 57790
L33760 57880
L33760 58000
L33740 58100
L33720 58140
L33690 58170
L33650 58190
L33600 58190
L33550 58170
L33530 58140
L33500 58100
L33480 58000
L33480 57880
L33500 57790
L33530 57740
L33550 57720
L33600 57690
" />
<path d="M33930 57690
L34260 57690
L34050 58190
" />
<path d="M34430 57740
L34460 57720
L34500 57690
L34620 57690
L34670 57720
L34690 57740
L34720 57790
L34720 57830
L34690 57910
L34410 58190
L34720 58190
" />
</g>
</g>
<g style="fill:#008484; fill-opacity:0.0; 
stroke:#008484; stroke-width:0; stroke-opacity:1; 
stroke-linecap:round; stroke-linejoin:round;">
<g >
</g>
<g style="fill:#840000; fill-opacity:0.0; 
stroke:#840000; stroke-width:0; stroke-opacity:1; 
stroke-linecap:round; stroke-linejoin:round;">
</g>
<g style="fill:#FFFFC2; fill-opacity:0.0; 
stroke:#FFFFC2; stroke-width:0; stroke-opacity:1; 
stroke-linecap:round; stroke-linejoin:round;">
</g>
<g style="fill:#FFFFC2; fill-opacity:0.6; 
stroke:#FFFFC2; stroke-width:0; stroke-opacity:1; 
stroke-linecap:round; stroke-linejoin:round;">
<path style="fill:#FFFFC2; fill-opacity:0.6; 
stroke:#FFFFC2; stroke-width:0; stroke-opacity:1; 
stroke-linecap:round; stroke-linejoin:round;fill-rule:evenodd;"
d="M 72500,31750
76500,29750
72500,27750
Z" /> 
</g>
<g style="fill:#840000; fill-opacity:0.6; 
stroke:#840000; stroke-width:0; stroke-opacity:1; 
stroke-linecap:round; stroke-linejoin:round;">
</g>
<g style="fill:#840000; fill-opacity:0.0; 
stroke:#840000; stroke-width:100; stroke-opacity:1; 
stroke-linecap:round; stroke-linejoin:round;">
<path style="fill:#840000; fill-opacity:0.0; 
stroke:#840000; stroke-width:100; stroke-opacity:1; 
stroke-linecap:round; stroke-linejoin:round;fill:none"
d="M 72500,31750
76500,29750
72500,27750
Z" /> 
<path style="fill:#840000; fill-opacity:0.0; 
stroke:#840000; stroke-width:100; stroke-opacity:1; 
stroke-linecap:round; stroke-linejoin:round;fill:none"
d="M 72500,31750
76500,29750
72500,27750
Z" /> 
</g>
<g style="fill:#840000; fill-opacity:0.0; 
stroke:#840000; stroke-width:60; stroke-opacity:1; 
stroke-linecap:round; stroke-linejoin:round;">
<path d="M72500 30750
L71500 30750
" />
</g>
<g style="fill:#008484; fill-opacity:0.0; 
stroke:#008484; stroke-width:60; stroke-opacity:1; 
stroke-linecap:round; stroke-linejoin:round;">
<text x="72550" y="31000"
textLength="680" font-size="660" lengthAdjust="spacingAndGlyphs"
text-anchor="start" opacity="0">+</text>
<path d="M72690 30780
L73080 30780
" />
<path d="M72880 30970
L72880 30590
" />
</g>
<g style="fill:#840000; fill-opacity:0.0; 
stroke:#840000; stroke-width:60; stroke-opacity:1; 
stroke-linecap:round; stroke-linejoin:round;">
<text x="72000" y="30650"
textLength="540" font-size="660" lengthAdjust="spacingAndGlyphs"
text-anchor="middle" opacity="0">5</text>
<path d="M72110 30120
L71880 30120
L71850 30360
L71880 30340
L71920 30310
L72040 30310
L72090 30340
L72110 30360
L72140 30410
L72140 30530
L72110 30570
L72090 30600
L72040 30620
L71920 30620
L71880 30600
L71850 30570
" />
<path d="M72500 28750
L71500 28750
" />
</g>
<g style="fill:#008484; fill-opacity:0.0; 
stroke:#008484; stroke-width:60; stroke-opacity:1; 
stroke-linecap:round; stroke-linejoin:round;">
<text x="72550" y="29000"
textLength="680" font-size="660" lengthAdjust="spacingAndGlyphs"
text-anchor="start" opacity="0">-</text>
<path d="M72690 28780
L73080 28780
" />
</g>
<g style="fill:#840000; fill-opacity:0.0; 
stroke:#840000; stroke-width:60; stroke-opacity:1; 
stroke-linecap:round; stroke-linejoin:round;">
<text x="72000" y="28650"
textLength="540" font-size="660" lengthAdjust="spacingAndGlyphs"
text-anchor="middle" opacity="0">6</text>
<path d="M72090 28120
L72000 28120
L71950 28150
L71920 28170
L71880 28240
L71850 28340
L71850 28530
L71880 28570
L71900 28600
L71950 28620
L72040 28620
L72090 28600
L72110 28570
L72140 28530
L72140 28410
L72110 28360
L72090 28340
L72040 28310
L71950 28310
L71900 28340
L71880 28360
L71850 28410
" />
<path d="M76500 29750
L77500 29750
" />
<text x="77000" y="29650"
textLength="540" font-size="660" lengthAdjust="spacingAndGlyphs"
text-anchor="middle" opacity="0">7</text>
<path d="M76830 29120
L77160 29120
L76950 29620
" />
</g>
<g style="fill:#008484; fill-opacity:0.0; 
stroke:#008484; stroke-width:60; stroke-opacity:1; 
stroke-linecap:round; stroke-linejoin:round;">
<text x="74500" y="26300"
textLength="1560" font-size="660" lengthAdjust="spacingAndGlyphs"
text-anchor="middle" opacity="0">U8B</text>
<path d="M73860 25770
L73860 26180
L73890 26220
L73910 26250
L73960 26270
L74050 26270
L74100 26250
L74130 26220
L74150 26180
L74150 25770
" />
<path d="M74460 25990
L74410 25960
L74390 25940
L74360 25890
L74360 25870
L74390 25820
L74410 25800
L74460 25770
L74550 25770
L74600 25800
L74630 25820
L74650 25870
L74650 25890
L74630 25940
L74600 25960
L74550 25990
L74460 25990
L74410 26010
L74390 26030
L74360 26080
L74360 26180
L74390 26220
L74410 26250
L74460 26270
L74550 26270
L74600 26250
L74630 26220
L74650 26180
L74650 26080
L74630 26030
L74600 26010
L74550 25990
" />
<path d="M75030 26010
L75100 26030
L75130 26060
L75150 26100
L75150 26180
L75130 26220
L75100 26250
L75050 26270
L74860 26270
L74860 25770
L75030 25770
L75080 25800
L75100 25820
L75130 25870
L75130 25910
L75100 25960
L75080 25990
L75030 26010
L74860 26010
" />
<text x="74500" y="27210"
textLength="2270" font-size="660" lengthAdjust="spacingAndGlyphs"
text-anchor="middle" opacity="0">TL072</text>
<path d="M73440 26680
L73720 26680
" />
<path d="M73580 27180
L73580 26680
" />
<path d="M74130 27180
L73890 27180
L73890 26680
" />
<path d="M74390 26680
L74440 26680
L74480 26710
L74510 26730
L74530 26780
L74550 26870
L74550 26990
L74530 27090
L74510 27130
L74480 27160
L74440 27180
L74390 27180
L74340 27160
L74320 27130
L74290 27090
L74270 26990
L74270 26870
L74290 26780
L74320 26730
L74340 26710
L74390 26680
" />
<path d="M74720 26680
L75050 26680
L74840 27180
" />
<path d="M75220 26730
L75250 26710
L75290 26680
L75410 26680
L75460 26710
L75480 26730
L75510 26780
L75510 26820
L75480 26900
L75200 27180
L75510 27180
" />
</g>
</g>
<g style="fill:#008484; fill-opacity:0.0; 
stroke:#008484; stroke-width:0; stroke-opacity:1; 
stroke-linecap:round; stroke-linejoin:round;">
<g >
</g>
<g style="fill:#840000; fill-opacity:0.0; 
stroke:#840000; stroke-width:0; stroke-opacity:1; 
stroke-linecap:round; stroke-linejoin:round;">
</g>
<g style="fill:#FFFFC2; fill-opacity:0.0; 
stroke:#FFFFC2; stroke-width:0; stroke-opacity:1; 
stroke-linecap:round; stroke-linejoin:round;">
</g>
<g style="fill:#FFFFC2; fill-opacity:0.6; 
stroke:#FFFFC2; stroke-width:0; stroke-opacity:1; 
stroke-linecap:round; stroke-linejoin:round;">
<path style="fill:#FFFFC2; fill-opacity:0.6; 
stroke:#FFFFC2; stroke-width:0; stroke-opacity:1; 
stroke-linecap:round; stroke-linejoin:round;fill-rule:evenodd;"
d="M 34000,26750
38000,28750
34000,30750
Z" /> 
</g>
<g style="fill:#840000; fill-opacity:0.6; 
stroke:#840000; stroke-width:0; stroke-opacity:1; 
stroke-linecap:round; stroke-linejoin:round;">
</g>
<g style="fill:#840000; fill-opacity:0.0; 
stroke:#840000; stroke-width:100; stroke-opacity:1; 
stroke-linecap:round; stroke-linejoin:round;">
<path style="fill:#840000; fill-opacity:0.0; 
stroke:#840000; stroke-width:100; stroke-opacity:1; 
stroke-linecap:round; stroke-linejoin:round;fill:none"
d="M 34000,26750
38000,28750
34000,30750
Z" /> 
<path style="fill:#840000; fill-opacity:0.0; 
stroke:#840000; stroke-width:100; stroke-opacity:1; 
stroke-linecap:round; stroke-linejoin:round;fill:none"
d="M 34000,26750
38000,28750
34000,30750
Z" /> 
</g>
<g style="fill:#840000; fill-opacity:0.0; 
stroke:#840000; stroke-width:60; stroke-opacity:1; 
stroke-linecap:round; stroke-linejoin:round;">
<path d="M38000 28750
L39000 28750
" />
<text x="38500" y="28650"
textLength="540" font-size="660" lengthAdjust="spacingAndGlyphs"
text-anchor="middle" opacity="0">1</text>
<path d="M38640 28620
L38350 28620
" />
<path d="M38500 28620
L38500 28120
L38450 28190
L38400 28240
L38350 28260
" />
<path d="M34000 29750
L33000 29750
" />
</g>
<g style="fill:#008484; fill-opacity:0.0; 
stroke:#008484; stroke-width:60; stroke-opacity:1; 
stroke-linecap:round; stroke-linejoin:round;">
<text x="34050" y="30000"
textLength="680" font-size="660" lengthAdjust="spacingAndGlyphs"
text-anchor="start" opacity="0">-</text>
<path d="M34190 29780
L34580 29780
" />
</g>
<g style="fill:#840000; fill-opacity:0.0; 
stroke:#840000; stroke-width:60; stroke-opacity:1; 
stroke-linecap:round; stroke-linejoin:round;">
<text x="33500" y="29650"
textLength="540" font-size="660" lengthAdjust="spacingAndGlyphs"
text-anchor="middle" opacity="0">2</text>
<path d="M33350 29170
L33380 29150
L33420 29120
L33540 29120
L33590 29150
L33610 29170
L33640 29220
L33640 29260
L33610 29340
L33330 29620
L33640 29620
" />
<path d="M34000 27750
L33000 27750
" />
</g>
<g style="fill:#008484; fill-opacity:0.0; 
stroke:#008484; stroke-width:60; stroke-opacity:1; 
stroke-linecap:round; stroke-linejoin:round;">
<text x="34050" y="28000"
textLength="680" font-size="660" lengthAdjust="spacingAndGlyphs"
text-anchor="start" opacity="0">+</text>
<path d="M34190 27780
L34580 27780
" />
<path d="M34380 27970
L34380 27590
" />
</g>
<g style="fill:#840000; fill-opacity:0.0; 
stroke:#840000; stroke-width:60; stroke-opacity:1; 
stroke-linecap:round; stroke-linejoin:round;">
<text x="33500" y="27650"
textLength="540" font-size="660" lengthAdjust="spacingAndGlyphs"
text-anchor="middle" opacity="0">3</text>
<path d="M33330 27120
L33640 27120
L33470 27310
L33540 27310
L33590 27340
L33610 27360
L33640 27410
L33640 27530
L33610 27570
L33590 27600
L33540 27620
L33400 27620
L33350 27600
L33330 27570
" />
</g>
<g style="fill:#008484; fill-opacity:0.0; 
stroke:#008484; stroke-width:60; stroke-opacity:1; 
stroke-linecap:round; stroke-linejoin:round;">
<text x="36000" y="25350"
textLength="1490" font-size="660" lengthAdjust="spacingAndGlyphs"
text-anchor="middle" opacity="0">U8A</text>
<path d="M35400 24820
L35400 25230
L35420 25270
L35450 25300
L35500 25320
L35590 25320
L35640 25300
L35660 25270
L35690 25230
L35690 24820
" />
<path d="M36000 25040
L35950 25010
L35920 24990
L35900 24940
L35900 24920
L35920 24870
L35950 24850
L36000 24820
L36090 24820
L36140 24850
L36160 24870
L36190 24920
L36190 24940
L36160 24990
L36140 25010
L36090 25040
L36000 25040
L35950 25060
L35920 25080
L35900 25130
L35900 25230
L35920 25270
L35950 25300
L36000 25320
L36090 25320
L36140 25300
L36160 25270
L36190 25230
L36190 25130
L36160 25080
L36140 25060
L36090 25040
" />
<path d="M36380 25180
L36610 25180
" />
<path d="M36330 25320
L36500 24820
L36660 25320
" />
<text x="36000" y="26260"
textLength="2270" font-size="660" lengthAdjust="spacingAndGlyphs"
text-anchor="middle" opacity="0">TL072</text>
<path d="M34940 25730
L35220 25730
" />
<path d="M35080 26230
L35080 25730
" />
<path d="M35630 26230
L35390 26230
L35390 25730
" />
<path d="M35890 25730
L35940 25730
L35980 25760
L36010 25780
L36030 25830
L36050 25920
L36050 26040
L36030 26140
L36010 26180
L35980 26210
L35940 26230
L35890 26230
L35840 26210
L35820 26180
L35790 26140
L35770 26040
L35770 25920
L35790 25830
L35820 25780
L35840 25760
L35890 25730
" />
<path d="M36220 25730
L36550 25730
L36340 26230
" />
<path d="M36720 25780
L36750 25760
L36790 25730
L36910 25730
L36960 25760
L36980 25780
L37010 25830
L37010 25870
L36980 25950
L36700 26230
L37010 26230
" />
</g>
</g>
<g style="fill:#008484; fill-opacity:0.0; 
stroke:#008484; stroke-width:0; stroke-opacity:1; 
stroke-linecap:round; stroke-linejoin:round;">
<g >
</g>
<g style="fill:#840000; fill-opacity:0.0; 
stroke:#840000; stroke-width:0; stroke-opacity:1; 
stroke-linecap:round; stroke-linejoin:round;">
</g>
<g style="fill:#840000; fill-opacity:0.0; 
stroke:#840000; stroke-width:100; stroke-opacity:1; 
stroke-linecap:round; stroke-linejoin:round;">
<rect x="61250" y="28350" width="2000" height="800" rx="0" />
</g>
<g style="fill:#840000; fill-opacity:0.0; 
stroke:#840000; stroke-width:60; stroke-opacity:1; 
stroke-linecap:round; stroke-linejoin:round;">
<path d="M63250 28750
L63750 28750
" />
<path d="M61250 28750
L60750 28750
" />
</g>
<g style="fill:#008484; fill-opacity:0.0; 
stroke:#008484; stroke-width:60; stroke-opacity:1; 
stroke-linecap:round; stroke-linejoin:round;">
<text x="62250" y="26950"
textLength="1510" font-size="660" lengthAdjust="spacingAndGlyphs"
text-anchor="middle" opacity="0">R17</text>
<path d="M61920 26920
L61760 26680
" />
<path d="M61640 26920
L61640 26420
L61830 26420
L61880 26450
L61900 26470
L61920 26520
L61920 26590
L61900 26640
L61880 26660
L61830 26680
L61640 26680
" />
<path d="M62400 26920
L62110 26920
" />
<path d="M62260 26920
L62260 26420
L62210 26490
L62160 26540
L62110 26560
" />
<path d="M62570 26420
L62900 26420
L62690 26920
" />
<text x="62250" y="27860"
textLength="1990" font-size="660" lengthAdjust="spacingAndGlyphs"
text-anchor="middle" opacity="0">560R</text>
<path d="M61640 27330
L61400 27330
L61380 27570
L61400 27550
L61450 27520
L61570 27520
L61610 27550
L61640 27570
L61660 27620
L61660 27740
L61640 27780
L61610 27810
L61570 27830
L61450 27830
L61400 27810
L61380 27780
" />
<path d="M62090 27330
L62000 27330
L61950 27360
L61920 27380
L61880 27450
L61850 27550
L61850 27740
L61880 27780
L61900 27810
L61950 27830
L62040 27830
L62090 27810
L62110 27780
L62140 27740
L62140 27620
L62110 27570
L62090 27550
L62040 27520
L61950 27520
L61900 27550
L61880 27570
L61850 27620
" />
<path d="M62450 27330
L62500 27330
L62540 27360
L62570 27380
L62590 27430
L62610 27520
L62610 27640
L62590 27740
L62570 27780
L62540 27810
L62500 27830
L62450 27830
L62400 27810
L62380 27780
L62350 27740
L62330 27640
L62330 27520
L62350 27430
L62380 27380
L62400 27360
L62450 27330
" />
<path d="M63110 27830
L62950 27590
" />
<path d="M62830 27830
L62830 27330
L63020 27330
L63070 27360
L63090 27380
L63110 27430
L63110 27500
L63090 27550
L63070 27570
L63020 27590
L62830 27590
" />
</g>
</g>
<g style="fill:#008484; fill-opacity:0.0; 
stroke:#008484; stroke-width:0; stroke-opacity:1; 
stroke-linecap:round; stroke-linejoin:round;">
<g >
</g>
<g style="fill:#840000; fill-opacity:0.0; 
stroke:#840000; stroke-width:0; stroke-opacity:1; 
stroke-linecap:round; stroke-linejoin:round;">
</g>
<g style="fill:#840000; fill-opacity:0.0; 
stroke:#840000; stroke-width:60; stroke-opacity:1; 
stroke-linecap:round; stroke-linejoin:round;">
<path style="fill:#840000; fill-opacity:0.0; 
stroke:#840000; stroke-width:60; stroke-opacity:1; 
stroke-linecap:round; stroke-linejoin:round;fill:none"
d="M 44500,68250
44500,68750
45000,68750
44500,69250
44000,68750
44500,68750
" /> 
</g>
<g style="fill:#008484; fill-opacity:0.0; 
stroke:#008484; stroke-width:60; stroke-opacity:1; 
stroke-linecap:round; stroke-linejoin:round;">
<text x="44550" y="70250"
textLength="2060" font-size="660" lengthAdjust="spacingAndGlyphs"
text-anchor="middle" opacity="0">GNDS</text>
<path d="M43930 69750
L43880 69720
L43810 69720
L43740 69750
L43690 69790
L43660 69840
L43640 69940
L43640 70010
L43660 70100
L43690 70150
L43740 70200
L43810 70220
L43850 70220
L43930 70200
L43950 70170
L43950 70010
L43850 70010
" />
<path d="M44160 70220
L44160 69720
L44450 70220
L44450 69720
" />
<path d="M44690 70220
L44690 69720
L44810 69720
L44880 69750
L44930 69790
L44950 69840
L44970 69940
L44970 70010
L44950 70100
L44930 70150
L44880 70200
L44810 70220
L44690 70220
" />
<path d="M45160 70200
L45240 70220
L45350 70220
L45400 70200
L45430 70170
L45450 70130
L45450 70080
L45430 70030
L45400 70010
L45350 69980
L45260 69960
L45210 69940
L45190 69910
L45160 69860
L45160 69820
L45190 69770
L45210 69750
L45260 69720
L45380 69720
L45450 69750
" />
</g>
</g>
<g style="fill:#008484; fill-opacity:0.0; 
stroke:#008484; stroke-width:0; stroke-opacity:1; 
stroke-linecap:round; stroke-linejoin:round;">
<g >
</g>
<g style="fill:#840000; fill-opacity:0.0; 
stroke:#840000; stroke-width:0; stroke-opacity:1; 
stroke-linecap:round; stroke-linejoin:round;">
</g>
<g style="fill:#840000; fill-opacity:0.0; 
stroke:#840000; stroke-width:100; stroke-opacity:1; 
stroke-linecap:round; stroke-linejoin:round;">
<rect x="81750" y="21350" width="2000" height="800" rx="0" />
</g>
<g style="fill:#840000; fill-opacity:0.0; 
stroke:#840000; stroke-width:60; stroke-opacity:1; 
stroke-linecap:round; stroke-linejoin:round;">
<path d="M83750 21750
L84250 21750
" />
<path d="M81750 21750
L81250 21750
" />
</g>
<g style="fill:#008484; fill-opacity:0.0; 
stroke:#008484; stroke-width:60; stroke-opacity:1; 
stroke-linecap:round; stroke-linejoin:round;">
<text x="82750" y="19950"
textLength="1510" font-size="660" lengthAdjust="spacingAndGlyphs"
text-anchor="middle" opacity="0">R18</text>
<path d="M82420 19920
L82260 19680
" />
<path d="M82140 19920
L82140 19420
L82330 19420
L82380 19450
L82400 19470
L82420 19520
L82420 19590
L82400 19640
L82380 19660
L82330 19680
L82140 19680
" />
<path d="M82900 19920
L82610 19920
" />
<path d="M82760 19920
L82760 19420
L82710 19490
L82660 19540
L82610 19560
" />
<path d="M83190 19640
L83140 19610
L83110 19590
L83090 19540
L83090 19520
L83110 19470
L83140 19450
L83190 19420
L83280 19420
L83330 19450
L83350 19470
L83380 19520
L83380 19540
L83350 19590
L83330 19610
L83280 19640
L83190 19640
L83140 19660
L83110 19680
L83090 19730
L83090 19830
L83110 19870
L83140 19900
L83190 19920
L83280 19920
L83330 19900
L83350 19870
L83380 19830
L83380 19730
L83350 19680
L83330 19660
L83280 19640
" />
<text x="82750" y="20860"
textLength="1990" font-size="660" lengthAdjust="spacingAndGlyphs"
text-anchor="middle" opacity="0">100R</text>
<path d="M82160 20830
L81880 20830
" />
<path d="M82020 20830
L82020 20330
L81970 20400
L81920 20450
L81880 20470
" />
<path d="M82470 20330
L82520 20330
L82570 20360
L82590 20380
L82610 20430
L82640 20520
L82640 20640
L82610 20740
L82590 20780
L82570 20810
L82520 20830
L82470 20830
L82420 20810
L82400 20780
L82380 20740
L82350 20640
L82350 20520
L82380 20430
L82400 20380
L82420 20360
L82470 20330
" />
<path d="M82950 20330
L83000 20330
L83040 20360
L83070 20380
L83090 20430
L83110 20520
L83110 20640
L83090 20740
L83070 20780
L83040 20810
L83000 20830
L82950 20830
L82900 20810
L82880 20780
L82850 20740
L82830 20640
L82830 20520
L82850 20430
L82880 20380
L82900 20360
L82950 20330
" />
<path d="M83610 20830
L83450 20590
" />
<path d="M83330 20830
L83330 20330
L83520 20330
L83570 20360
L83590 20380
L83610 20430
L83610 20500
L83590 20550
L83570 20570
L83520 20590
L83330 20590
" />
</g>
</g>
<g style="fill:#008484; fill-opacity:0.0; 
stroke:#008484; stroke-width:0; stroke-opacity:1; 
stroke-linecap:round; stroke-linejoin:round;">
<g >
</g>
<g style="fill:#840000; fill-opacity:0.0; 
stroke:#840000; stroke-width:0; stroke-opacity:1; 
stroke-linecap:round; stroke-linejoin:round;">
</g>
<g style="fill:#840000; fill-opacity:0.0; 
stroke:#840000; stroke-width:100; stroke-opacity:1; 
stroke-linecap:round; stroke-linejoin:round;">
<rect x="72500" y="21350" width="2000" height="800" rx="0" />
</g>
<g style="fill:#840000; fill-opacity:0.0; 
stroke:#840000; stroke-width:60; stroke-opacity:1; 
stroke-linecap:round; stroke-linejoin:round;">
<path style="fill:#840000; fill-opacity:0.0; 
stroke:#840000; stroke-width:60; stroke-opacity:1; 
stroke-linecap:round; stroke-linejoin:round;fill:none"
d="M 73500,20750
73500,21150
" /> 
</g>
<g style="fill:#840000; fill-opacity:1.0; 
stroke:#840000; stroke-width:60; stroke-opacity:1; 
stroke-linecap:round; stroke-linejoin:round;">
<path style="fill:#840000; fill-opacity:1.0; 
stroke:#840000; stroke-width:60; stroke-opacity:1; 
stroke-linecap:round; stroke-linejoin:round;fill-rule:evenodd;"
d="M 73500,21300
73700,20850
73300,20850
Z" /> 
</g>
<g style="fill:#840000; fill-opacity:0.0; 
stroke:#840000; stroke-width:60; stroke-opacity:1; 
stroke-linecap:round; stroke-linejoin:round;">
<path d="M74500 21750
L75000 21750
" />
<text x="74750" y="21650"
textLength="540" font-size="660" lengthAdjust="spacingAndGlyphs"
text-anchor="middle" opacity="0">1</text>
<path d="M74890 21620
L74600 21620
" />
<path d="M74750 21620
L74750 21120
L74700 21190
L74650 21240
L74600 21260
" />
<path d="M73500 20750
L73500 20250
" />
<g transform="rotate(-90 73400 20500)">
<text x="73400" y="20500"
textLength="540" font-size="660" lengthAdjust="spacingAndGlyphs"
text-anchor="middle" opacity="0">2</text>
</g>
<path d="M72920 20640
L72900 20610
L72870 20570
L72870 20450
L72900 20400
L72920 20380
L72970 20350
L73010 20350
L73090 20380
L73370 20660
L73370 20350
" />
<path d="M72500 21750
L72000 21750
" />
<text x="72250" y="21650"
textLength="540" font-size="660" lengthAdjust="spacingAndGlyphs"
text-anchor="middle" opacity="0">3</text>
<path d="M72080 21120
L72390 21120
L72220 21310
L72290 21310
L72340 21340
L72360 21360
L72390 21410
L72390 21530
L72360 21570
L72340 21600
L72290 21620
L72150 21620
L72100 21600
L72080 21570
" />
</g>
<g style="fill:#008484; fill-opacity:0.0; 
stroke:#008484; stroke-width:60; stroke-opacity:1; 
stroke-linecap:round; stroke-linejoin:round;">
<text x="71500" y="19470"
textLength="1460" font-size="660" lengthAdjust="spacingAndGlyphs"
text-anchor="middle" opacity="0">RV3</text>
<path d="M71200 19440
L71030 19200
" />
<path d="M70910 19440
L70910 18940
L71100 18940
L71150 18970
L71170 18990
L71200 19040
L71200 19110
L71170 19160
L71150 19180
L71100 19200
L70910 19200
" />
<path d="M71340 18940
L71510 19440
L71670 18940
" />
<path d="M71790 18940
L72100 18940
L71940 19130
L72010 19130
L72050 19160
L72080 19180
L72100 19230
L72100 19350
L72080 19390
L72050 19420
L72010 19440
L71860 19440
L71820 19420
L71790 19390
" />
<text x="71500" y="20470"
textLength="1040" font-size="660" lengthAdjust="spacingAndGlyphs"
text-anchor="middle" opacity="0">1K</text>
<path d="M71390 20440
L71100 20440
" />
<path d="M71250 20440
L71250 19940
L71200 20010
L71150 20060
L71100 20080
" />
<path d="M71600 20440
L71600 19940
" />
<path d="M71890 20440
L71670 20160
" />
<path d="M71890 19940
L71600 20230
" />
</g>
<g style="fill:#840084; fill-opacity:0.0; 
stroke:#840084; stroke-width:60; stroke-opacity:1; 
stroke-linecap:round; stroke-linejoin:round;">
<text x="73500" y="22970"
textLength="8460" font-size="660" lengthAdjust="spacingAndGlyphs"
text-anchor="middle" opacity="0">PTA4543-2010CIB102</text>
<path d="M69410 22940
L69410 22440
L69600 22440
L69650 22470
L69670 22490
L69700 22540
L69700 22610
L69670 22660
L69650 22680
L69600 22700
L69410 22700
" />
<path d="M69840 22440
L70130 22440
" />
<path d="M69980 22940
L69980 22440
" />
<path d="M70270 22800
L70510 22800
" />
<path d="M70220 22940
L70390 22440
L70550 22940
" />
<path d="M70940 22610
L70940 22940
" />
<path d="M70820 22420
L70700 22770
L71010 22770
" />
<path d="M71440 22440
L71200 22440
L71170 22680
L71200 22660
L71250 22630
L71360 22630
L71410 22660
L71440 22680
L71460 22730
L71460 22850
L71440 22890
L71410 22920
L71360 22940
L71250 22940
L71200 22920
L71170 22890
" />
<path d="M71890 22610
L71890 22940
" />
<path d="M71770 22420
L71650 22770
L71960 22770
" />
<path d="M72100 22440
L72410 22440
L72250 22630
L72320 22630
L72360 22660
L72390 22680
L72410 22730
L72410 22850
L72390 22890
L72360 22920
L72320 22940
L72170 22940
L72130 22920
L72100 22890
" />
<path d="M72630 22750
L73010 22750
" />
<path d="M73220 22490
L73250 22470
L73290 22440
L73410 22440
L73460 22470
L73480 22490
L73510 22540
L73510 22580
L73480 22660
L73200 22940
L73510 22940
" />
<path d="M73820 22440
L73860 22440
L73910 22470
L73940 22490
L73960 22540
L73980 22630
L73980 22750
L73960 22850
L73940 22890
L73910 22920
L73860 22940
L73820 22940
L73770 22920
L73750 22890
L73720 22850
L73700 22750
L73700 22630
L73720 22540
L73750 22490
L73770 22470
L73820 22440
" />
<path d="M74460 22940
L74170 22940
" />
<path d="M74320 22940
L74320 22440
L74270 22510
L74220 22560
L74170 22580
" />
<path d="M74770 22440
L74820 22440
L74860 22470
L74890 22490
L74910 22540
L74940 22630
L74940 22750
L74910 22850
L74890 22890
L74860 22920
L74820 22940
L74770 22940
L74720 22920
L74700 22890
L74670 22850
L74650 22750
L74650 22630
L74670 22540
L74700 22490
L74720 22470
L74770 22440
" />
<path d="M75440 22890
L75410 22920
L75340 22940
L75290 22940
L75220 22920
L75170 22870
L75150 22820
L75130 22730
L75130 22660
L75150 22560
L75170 22510
L75220 22470
L75290 22440
L75340 22440
L75410 22470
L75440 22490
" />
<path d="M75650 22940
L75650 22440
" />
<path d="M76050 22680
L76130 22700
L76150 22730
L76170 22770
L76170 22850
L76150 22890
L76130 22920
L76080 22940
L75890 22940
L75890 22440
L76050 22440
L76100 22470
L76130 22490
L76150 22540
L76150 22580
L76130 22630
L76100 22660
L76050 22680
L75890 22680
" />
<path d="M76650 22940
L76360 22940
" />
<path d="M76510 22940
L76510 22440
L76460 22510
L76410 22560
L76360 22580
" />
<path d="M76960 22440
L77010 22440
L77050 22470
L77080 22490
L77100 22540
L77130 22630
L77130 22750
L77100 22850
L77080 22890
L77050 22920
L77010 22940
L76960 22940
L76910 22920
L76890 22890
L76860 22850
L76840 22750
L76840 22630
L76860 22540
L76890 22490
L76910 22470
L76960 22440
" />
<path d="M77320 22490
L77340 22470
L77390 22440
L77510 22440
L77550 22470
L77580 22490
L77600 22540
L77600 22580
L77580 22660
L77290 22940
L77600 22940
" />
</g>
</g>
<g style="fill:#840084; fill-opacity:0.0; 
stroke:#840084; stroke-width:60; stroke-opacity:1; 
stroke-linecap:round; stroke-linejoin:round;">
</g>
<g style="fill:#008400; fill-opacity:0.0; 
stroke:#008400; stroke-width:60; stroke-opacity:1; 
stroke-linecap:round; stroke-linejoin:round;">
<path d="M73500 20250
L73500 19750
" />
<path d="M73500 19750
L76500 19750
" />
<path d="M76500 19750
L76500 21750
" />
<path d="M76500 21750
L75000 21750
" />
<path d="M76500 21750
L81250 21750
" />
<path d="M85250 29750
L77500 29750
" />
<path d="M39000 28750
L43000 28750
" />
<path d="M72000 21750
L66750 21750
" />
<path d="M66750 21750
L66750 28750
" />
<path d="M21000 27750
L33000 27750
" />
<path d="M66750 28750
L63750 28750
" />
<path d="M85250 29750
L97250 29750
" />
<path d="M39000 65750
L39000 68250
" />
<path d="M44500 65750
L44500 68250
" />
<path d="M85250 21750
L85250 29750
" />
<path d="M66750 30750
L66750 36250
" />
<path d="M84250 21750
L85250 21750
" />
<path d="M71500 30750
L66750 30750
" />
<path d="M74500 13500
L66750 13500
" />
<path d="M66750 13500
L66750 21750
" />
<path d="M33000 29750
L29500 29750
" />
<path d="M77500 13500
L85250 13500
" />
<path d="M85250 13500
L85250 21750
" />
<path d="M29500 29750
L29500 35250
" />
<path d="M43000 28750
L60750 28750
" />
<path d="M71500 28750
L66750 28750
" />
<path d="M32000 61750
L32000 65000
" />
<path d="M32000 53500
L32000 54500
" />
<path d="M44500 53500
L32000 53500
" />
<path d="M32000 50500
L32000 53500
" />
<path d="M32000 60500
L32000 61750
" />
<path d="M43000 35250
L43000 28750
" />
<path d="M29500 35250
L43000 35250
" />
<path d="M39000 62750
L39000 61750
" />
<path d="M39000 61750
L32000 61750
" />
<path d="M44500 62750
L44500 53500
" />
</g>
<g style="fill:#848400; fill-opacity:0.0; 
stroke:#848400; stroke-width:60; stroke-opacity:1; 
stroke-linecap:round; stroke-linejoin:round;">
<text x="97850" y="30000"
textLength="5850" font-size="660" lengthAdjust="spacingAndGlyphs"
text-anchor="start" opacity="0">SIGNAL_OUTPUT</text>
<path d="M97970 29950
L98040 29970
L98160 29970
L98210 29950
L98230 29920
L98260 29880
L98260 29830
L98230 29780
L98210 29760
L98160 29730
L98070 29710
L98020 29690
L97990 29660
L97970 29610
L97970 29570
L97990 29520
L98020 29500
L98070 29470
L98180 29470
L98260 29500
" />
<path d="M98470 29970
L98470 29470
" />
<path d="M98970 29500
L98920 29470
L98850 29470
L98780 29500
L98730 29540
L98710 29590
L98680 29690
L98680 29760
L98710 29850
L98730 29900
L98780 29950
L98850 29970
L98900 29970
L98970 29950
L98990 29920
L98990 29760
L98900 29760
" />
<path d="M99210 29970
L99210 29470
L99490 29970
L99490 29470
" />
<path d="M99710 29830
L99950 29830
" />
<path d="M99660 29970
L99830 29470
L99990 29970
" />
<path d="M100400 29970
L100160 29970
L100160 29470
" />
<path d="M100450 30020
L100830 30020
" />
<path d="M101040 29470
L101140 29470
L101180 29500
L101230 29540
L101260 29640
L101260 29800
L101230 29900
L101180 29950
L101140 29970
L101040 29970
L100990 29950
L100950 29900
L100920 29800
L100920 29640
L100950 29540
L100990 29500
L101040 29470
" />
<path d="M101470 29470
L101470 29880
L101490 29920
L101520 29950
L101570 29970
L101660 29970
L101710 29950
L101730 29920
L101760 29880
L101760 29470
" />
<path d="M101920 29470
L102210 29470
" />
<path d="M102070 29970
L102070 29470
" />
<path d="M102380 29970
L102380 29470
L102570 29470
L102610 29500
L102640 29520
L102660 29570
L102660 29640
L102640 29690
L102610 29710
L102570 29730
L102380 29730
" />
<path d="M102880 29470
L102880 29880
L102900 29920
L102920 29950
L102970 29970
L103070 29970
L103110 29950
L103140 29920
L103160 29880
L103160 29470
" />
<path d="M103330 29470
L103610 29470
" />
<path d="M103470 29970
L103470 29470
" />
</g>
<g style="fill:#848400; fill-opacity:0.0; 
stroke:#848400; stroke-width:100; stroke-opacity:1; 
stroke-linecap:round; stroke-linejoin:round;">
<path style="fill:#848400; fill-opacity:0.0; 
stroke:#848400; stroke-width:100; stroke-opacity:1; 
stroke-linecap:round; stroke-linejoin:round;fill:none"
d="M 97250,29750
97500,30000
97750,30000
97750,29500
97500,29500
Z" /> 
</g>
<g style="fill:#848400; fill-opacity:0.0; 
stroke:#848400; stroke-width:60; stroke-opacity:1; 
stroke-linecap:round; stroke-linejoin:round;">
<text x="20400" y="28000"
textLength="5180" font-size="660" lengthAdjust="spacingAndGlyphs"
text-anchor="end" opacity="0">SIGNAL_INPUT</text>
<path d="M15340 27950
L15410 27970
L15530 27970
L15580 27950
L15600 27920
L15630 27880
L15630 27830
L15600 27780
L15580 27760
L15530 27730
L15440 27710
L15390 27690
L15370 27660
L15340 27610
L15340 27570
L15370 27520
L15390 27500
L15440 27470
L15560 27470
L15630 27500
" />
<path d="M15840 27970
L15840 27470
" />
<path d="M16340 27500
L16290 27470
L16220 27470
L16150 27500
L16100 27540
L16080 27590
L16060 27690
L16060 27760
L16080 27850
L16100 27900
L16150 27950
L16220 27970
L16270 27970
L16340 27950
L16370 27920
L16370 27760
L16270 27760
" />
<path d="M16580 27970
L16580 27470
L16870 27970
L16870 27470
" />
<path d="M17080 27830
L17320 27830
" />
<path d="M17030 27970
L17200 27470
L17370 27970
" />
<path d="M17770 27970
L17530 27970
L17530 27470
" />
<path d="M17820 28020
L18200 28020
" />
<path d="M18320 27970
L18320 27470
" />
<path d="M18560 27970
L18560 27470
L18840 27970
L18840 27470
" />
<path d="M19080 27970
L19080 27470
L19270 27470
L19320 27500
L19340 27520
L19370 27570
L19370 27640
L19340 27690
L19320 27710
L19270 27730
L19080 27730
" />
<path d="M19580 27470
L19580 27880
L19600 27920
L19630 27950
L19670 27970
L19770 27970
L19820 27950
L19840 27920
L19870 27880
L19870 27470
" />
<path d="M20030 27470
L20320 27470
" />
<path d="M20170 27970
L20170 27470
" />
</g>
<g style="fill:#848400; fill-opacity:0.0; 
stroke:#848400; stroke-width:100; stroke-opacity:1; 
stroke-linecap:round; stroke-linejoin:round;">
<path style="fill:#848400; fill-opacity:0.0; 
stroke:#848400; stroke-width:100; stroke-opacity:1; 
stroke-linecap:round; stroke-linejoin:round;fill:none"
d="M 21000,27750
20750,27500
20500,27500
20500,28000
20750,28000
Z" /> 
</g>
<g style="fill:#848400; fill-opacity:0.0; 
stroke:#848400; stroke-width:60; stroke-opacity:1; 
stroke-linecap:round; stroke-linejoin:round;">
<g transform="rotate(-90 32000 65600)">
<text x="32000" y="65850"
textLength="2730" font-size="660" lengthAdjust="spacingAndGlyphs"
text-anchor="end" opacity="0">NEGVIN</text>
</g>
<path d="M32220 68170
L31720 68170
L32220 67890
L31720 67890
" />
<path d="M31960 67650
L31960 67480
" />
<path d="M32220 67410
L32220 67650
L31720 67650
L31720 67410
" />
<path d="M31750 66930
L31720 66980
L31720 67050
L31750 67130
L31790 67170
L31840 67200
L31940 67220
L32010 67220
L32100 67200
L32150 67170
L32200 67130
L32220 67050
L32220 67010
L32200 66930
L32170 66910
L32010 66910
L32010 67010
" />
<path d="M31720 66770
L32220 66600
L31720 66430
" />
<path d="M32220 66270
L31720 66270
" />
<path d="M32220 66030
L31720 66030
L32220 65740
L31720 65740
" />
</g>
<g style="fill:#848400; fill-opacity:0.0; 
stroke:#848400; stroke-width:100; stroke-opacity:1; 
stroke-linecap:round; stroke-linejoin:round;">
<path style="fill:#848400; fill-opacity:0.0; 
stroke:#848400; stroke-width:100; stroke-opacity:1; 
stroke-linecap:round; stroke-linejoin:round;fill:none"
d="M 32000,65000
32250,65250
32250,65500
31750,65500
31750,65250
Z" /> 
</g>
<g style="fill:#848400; fill-opacity:0.0; 
stroke:#848400; stroke-width:60; stroke-opacity:1; 
stroke-linecap:round; stroke-linejoin:round;">
</g>
<g style="fill:#0000C2; fill-opacity:0.0; 
stroke:#0000C2; stroke-width:60; stroke-opacity:1; 
stroke-linecap:round; stroke-linejoin:round;">
<text x="69250" y="10650"
textLength="11940" font-size="660" lengthAdjust="spacingAndGlyphs"
text-anchor="start" opacity="0">if using RVf=10K use Rin=5K6</text>
<path d="M69390 10620
L69390 10290
" />
<path d="M69390 10120
L69370 10150
L69390 10170
L69420 10150
L69390 10120
L69390 10170
" />
<path d="M69560 10290
L69750 10290
" />
<path d="M69630 10620
L69630 10190
L69660 10150
L69700 10120
L69750 10120
" />
<path d="M70510 10290
L70510 10620
" />
<path d="M70300 10290
L70300 10550
L70320 10600
L70370 10620
L70440 10620
L70490 10600
L70510 10570
" />
<path d="M70730 10600
L70780 10620
L70870 10620
L70920 10600
L70940 10550
L70940 10530
L70920 10480
L70870 10450
L70800 10450
L70750 10430
L70730 10380
L70730 10360
L70750 10310
L70800 10290
L70870 10290
L70920 10310
" />
<path d="M71160 10620
L71160 10290
" />
<path d="M71160 10120
L71130 10150
L71160 10170
L71180 10150
L71160 10120
L71160 10170
" />
<path d="M71390 10290
L71390 10620
" />
<path d="M71390 10340
L71420 10310
L71470 10290
L71540 10290
L71580 10310
L71610 10360
L71610 10620
" />
<path d="M72060 10290
L72060 10690
L72040 10740
L72010 10760
L71970 10790
L71890 10790
L71850 10760
" />
<path d="M72060 10600
L72010 10620
L71920 10620
L71870 10600
L71850 10570
L71820 10530
L71820 10380
L71850 10340
L71870 10310
L71920 10290
L72010 10290
L72060 10310
" />
<path d="M72970 10620
L72800 10380
" />
<path d="M72680 10620
L72680 10120
L72870 10120
L72920 10150
L72940 10170
L72970 10220
L72970 10290
L72940 10340
L72920 10360
L72870 10380
L72680 10380
" />
<path d="M73110 10120
L73280 10620
L73440 10120
" />
<path d="M73540 10290
L73730 10290
" />
<path d="M73610 10620
L73610 10190
L73630 10150
L73680 10120
L73730 10120
" />
<path d="M73890 10360
L74280 10360
" />
<path d="M74280 10500
L73890 10500
" />
<path d="M74780 10620
L74490 10620
" />
<path d="M74630 10620
L74630 10120
L74580 10190
L74540 10240
L74490 10260
" />
<path d="M75080 10120
L75130 10120
L75180 10150
L75200 10170
L75230 10220
L75250 10310
L75250 10430
L75230 10530
L75200 10570
L75180 10600
L75130 10620
L75080 10620
L75040 10600
L75010 10570
L74990 10530
L74970 10430
L74970 10310
L74990 10220
L75010 10170
L75040 10150
L75080 10120
" />
<path d="M75470 10620
L75470 10120
" />
<path d="M75750 10620
L75540 10340
" />
<path d="M75750 10120
L75470 10410
" />
<path d="M76560 10290
L76560 10620
" />
<path d="M76350 10290
L76350 10550
L76370 10600
L76420 10620
L76490 10620
L76540 10600
L76560 10570
" />
<path d="M76780 10600
L76820 10620
L76920 10620
L76970 10600
L76990 10550
L76990 10530
L76970 10480
L76920 10450
L76850 10450
L76800 10430
L76780 10380
L76780 10360
L76800 10310
L76850 10290
L76920 10290
L76970 10310
" />
<path d="M77390 10600
L77350 10620
L77250 10620
L77200 10600
L77180 10550
L77180 10360
L77200 10310
L77250 10290
L77350 10290
L77390 10310
L77420 10360
L77420 10410
L77180 10450
" />
<path d="M78300 10620
L78130 10380
" />
<path d="M78010 10620
L78010 10120
L78200 10120
L78250 10150
L78280 10170
L78300 10220
L78300 10290
L78280 10340
L78250 10360
L78200 10380
L78010 10380
" />
<path d="M78510 10620
L78510 10290
" />
<path d="M78510 10120
L78490 10150
L78510 10170
L78540 10150
L78510 10120
L78510 10170
" />
<path d="M78750 10290
L78750 10620
" />
<path d="M78750 10340
L78780 10310
L78820 10290
L78890 10290
L78940 10310
L78970 10360
L78970 10620
" />
<path d="M79200 10360
L79580 10360
" />
<path d="M79580 10500
L79200 10500
" />
<path d="M80060 10120
L79820 10120
L79800 10360
L79820 10340
L79870 10310
L79990 10310
L80040 10340
L80060 10360
L80080 10410
L80080 10530
L80060 10570
L80040 10600
L79990 10620
L79870 10620
L79820 10600
L79800 10570
" />
<path d="M80300 10620
L80300 10120
" />
<path d="M80580 10620
L80370 10340
" />
<path d="M80580 10120
L80300 10410
" />
<path d="M81010 10120
L80920 10120
L80870 10150
L80850 10170
L80800 10240
L80780 10340
L80780 10530
L80800 10570
L80820 10600
L80870 10620
L80970 10620
L81010 10600
L81040 10570
L81060 10530
L81060 10410
L81040 10360
L81010 10340
L80970 10310
L80870 10310
L80820 10340
L80800 10360
L80780 10410
" />
</g>
<g style="fill:#0000C2; fill-opacity:0.0; 
stroke:#0000C2; stroke-width:0; stroke-opacity:1; 
stroke-linecap:round; stroke-linejoin:round;">
</g>
<g style="fill:#008400; fill-opacity:0.0; 
stroke:#008400; stroke-width:0; stroke-opacity:1; 
stroke-linecap:round; stroke-linejoin:round;">
</g>
<g style="fill:#008400; fill-opacity:1.0; 
stroke:#008400; stroke-width:100; stroke-opacity:1; 
stroke-linecap:round; stroke-linejoin:round;">
<circle cx="32000" cy="53500" r="200" /> 
</g>
<g style="fill:#008400; fill-opacity:1.0; 
stroke:#008400; stroke-width:0; stroke-opacity:1; 
stroke-linecap:round; stroke-linejoin:round;">
</g>
<g style="fill:#008400; fill-opacity:1.0; 
stroke:#008400; stroke-width:100; stroke-opacity:1; 
stroke-linecap:round; stroke-linejoin:round;">
<circle cx="43000" cy="28750" r="200" /> 
</g>
<g style="fill:#008400; fill-opacity:1.0; 
stroke:#008400; stroke-width:0; stroke-opacity:1; 
stroke-linecap:round; stroke-linejoin:round;">
</g>
<g style="fill:#008400; fill-opacity:1.0; 
stroke:#008400; stroke-width:100; stroke-opacity:1; 
stroke-linecap:round; stroke-linejoin:round;">
<circle cx="32000" cy="61750" r="200" /> 
</g>
<g style="fill:#008400; fill-opacity:1.0; 
stroke:#008400; stroke-width:0; stroke-opacity:1; 
stroke-linecap:round; stroke-linejoin:round;">
</g>
<g style="fill:#008400; fill-opacity:1.0; 
stroke:#008400; stroke-width:100; stroke-opacity:1; 
stroke-linecap:round; stroke-linejoin:round;">
<circle cx="85250" cy="21750" r="200" /> 
</g>
<g style="fill:#008400; fill-opacity:1.0; 
stroke:#008400; stroke-width:0; stroke-opacity:1; 
stroke-linecap:round; stroke-linejoin:round;">
</g>
<g style="fill:#008400; fill-opacity:1.0; 
stroke:#008400; stroke-width:100; stroke-opacity:1; 
stroke-linecap:round; stroke-linejoin:round;">
<circle cx="66750" cy="21750" r="200" /> 
</g>
<g style="fill:#008400; fill-opacity:1.0; 
stroke:#008400; stroke-width:0; stroke-opacity:1; 
stroke-linecap:round; stroke-linejoin:round;">
</g>
<g style="fill:#008400; fill-opacity:1.0; 
stroke:#008400; stroke-width:100; stroke-opacity:1; 
stroke-linecap:round; stroke-linejoin:round;">
<circle cx="85250" cy="29750" r="200" /> 
</g>
<g style="fill:#008400; fill-opacity:1.0; 
stroke:#008400; stroke-width:0; stroke-opacity:1; 
stroke-linecap:round; stroke-linejoin:round;">
</g>
<g style="fill:#008400; fill-opacity:1.0; 
stroke:#008400; stroke-width:100; stroke-opacity:1; 
stroke-linecap:round; stroke-linejoin:round;">
<circle cx="66750" cy="28750" r="200" /> 
</g>
<g style="fill:#008400; fill-opacity:1.0; 
stroke:#008400; stroke-width:0; stroke-opacity:1; 
stroke-linecap:round; stroke-linejoin:round;">
</g>
<g style="fill:#008400; fill-opacity:1.0; 
stroke:#008400; stroke-width:100; stroke-opacity:1; 
stroke-linecap:round; stroke-linejoin:round;">
<circle cx="76500" cy="21750" r="200" /> 
</g> 
</svg>
