%TF.GenerationSoftware,KiCad,Pcbnew,5.1.6-c6e7f7d~87~ubuntu18.04.1*%
%TF.CreationDate,2020-10-23T07:39:38+01:00*%
%TF.ProjectId,ActiveSplitterPedalWithDigitalPeakDetector,41637469-7665-4537-906c-697474657250,rev?*%
%TF.SameCoordinates,Original*%
%TF.FileFunction,Copper,L2,Bot*%
%TF.FilePolarity,Positive*%
%FSLAX46Y46*%
G04 Gerber Fmt 4.6, Leading zero omitted, Abs format (unit mm)*
G04 Created by KiCad (PCBNEW 5.1.6-c6e7f7d~87~ubuntu18.04.1) date 2020-10-23 07:39:38*
%MOMM*%
%LPD*%
G01*
G04 APERTURE LIST*
%TA.AperFunction,Profile*%
%ADD10C,0.050000*%
%TD*%
%TA.AperFunction,ComponentPad*%
%ADD11C,2.500000*%
%TD*%
%TA.AperFunction,ComponentPad*%
%ADD12C,3.500000*%
%TD*%
%TA.AperFunction,ComponentPad*%
%ADD13O,1.700000X1.700000*%
%TD*%
%TA.AperFunction,ComponentPad*%
%ADD14R,1.700000X1.700000*%
%TD*%
%TA.AperFunction,ComponentPad*%
%ADD15C,1.800000*%
%TD*%
%TA.AperFunction,ComponentPad*%
%ADD16R,1.800000X1.800000*%
%TD*%
%TA.AperFunction,ComponentPad*%
%ADD17C,3.000000*%
%TD*%
%TA.AperFunction,ComponentPad*%
%ADD18R,3.500000X3.500000*%
%TD*%
%TA.AperFunction,ViaPad*%
%ADD19C,0.450000*%
%TD*%
%TA.AperFunction,Conductor*%
%ADD20C,0.400000*%
%TD*%
%TA.AperFunction,Conductor*%
%ADD21C,0.500000*%
%TD*%
%TA.AperFunction,Conductor*%
%ADD22C,1.000000*%
%TD*%
%TA.AperFunction,Conductor*%
%ADD23C,0.254000*%
%TD*%
G04 APERTURE END LIST*
D10*
X186309000Y-130429000D02*
X185674000Y-131064000D01*
X186309000Y-125349000D02*
X186309000Y-130429000D01*
X191770000Y-125349000D02*
X186309000Y-125349000D01*
X192405000Y-124714000D02*
X191770000Y-125349000D01*
X192405000Y-51054000D02*
X192405000Y-124714000D01*
X191770000Y-50419000D02*
X192405000Y-51054000D01*
X186309000Y-50419000D02*
X191770000Y-50419000D01*
X186309000Y-45275500D02*
X186309000Y-50419000D01*
X185674000Y-44640500D02*
X186309000Y-45275500D01*
X86614000Y-44640500D02*
X185674000Y-44640500D01*
X85979000Y-45275500D02*
X86614000Y-44640500D01*
X85979000Y-50419000D02*
X85979000Y-45275500D01*
X80518000Y-50419000D02*
X85979000Y-50419000D01*
X79883000Y-51054000D02*
X80518000Y-50419000D01*
X79883000Y-124777500D02*
X79883000Y-51054000D01*
X80518000Y-125412500D02*
X79883000Y-124777500D01*
X85979000Y-125412500D02*
X80518000Y-125412500D01*
X85979000Y-130429000D02*
X85979000Y-125412500D01*
X86614000Y-131064000D02*
X85979000Y-130429000D01*
X185674000Y-131064000D02*
X86614000Y-131064000D01*
D11*
%TO.P,RV2,1*%
%TO.N,Net-(R12-Pad2)*%
X124104400Y-69443600D03*
%TO.P,RV2,2*%
X127609600Y-69443600D03*
%TO.P,RV2,3*%
%TO.N,Net-(C25-Pad2)*%
X124104400Y-127939800D03*
D12*
%TO.P,RV2,*%
%TO.N,*%
X121666000Y-74777600D03*
X130022600Y-73583800D03*
X121666000Y-122580400D03*
X130048000Y-123799600D03*
%TD*%
%TO.P,C30,2*%
%TO.N,GNDS*%
%TA.AperFunction,SMDPad,CuDef*%
G36*
G01*
X139642001Y-77782000D02*
X138741999Y-77782000D01*
G75*
G02*
X138492000Y-77532001I0J249999D01*
G01*
X138492000Y-76881999D01*
G75*
G02*
X138741999Y-76632000I249999J0D01*
G01*
X139642001Y-76632000D01*
G75*
G02*
X139892000Y-76881999I0J-249999D01*
G01*
X139892000Y-77532001D01*
G75*
G02*
X139642001Y-77782000I-249999J0D01*
G01*
G37*
%TD.AperFunction*%
%TO.P,C30,1*%
%TO.N,+3V3*%
%TA.AperFunction,SMDPad,CuDef*%
G36*
G01*
X139642001Y-79832000D02*
X138741999Y-79832000D01*
G75*
G02*
X138492000Y-79582001I0J249999D01*
G01*
X138492000Y-78931999D01*
G75*
G02*
X138741999Y-78682000I249999J0D01*
G01*
X139642001Y-78682000D01*
G75*
G02*
X139892000Y-78931999I0J-249999D01*
G01*
X139892000Y-79582001D01*
G75*
G02*
X139642001Y-79832000I-249999J0D01*
G01*
G37*
%TD.AperFunction*%
%TD*%
%TO.P,R4,2*%
%TO.N,Net-(D14-Pad1)*%
%TA.AperFunction,SMDPad,CuDef*%
G36*
G01*
X164788000Y-49345001D02*
X164788000Y-48444999D01*
G75*
G02*
X165037999Y-48195000I249999J0D01*
G01*
X165688001Y-48195000D01*
G75*
G02*
X165938000Y-48444999I0J-249999D01*
G01*
X165938000Y-49345001D01*
G75*
G02*
X165688001Y-49595000I-249999J0D01*
G01*
X165037999Y-49595000D01*
G75*
G02*
X164788000Y-49345001I0J249999D01*
G01*
G37*
%TD.AperFunction*%
%TO.P,R4,1*%
%TO.N,GNDS*%
%TA.AperFunction,SMDPad,CuDef*%
G36*
G01*
X162738000Y-49345001D02*
X162738000Y-48444999D01*
G75*
G02*
X162987999Y-48195000I249999J0D01*
G01*
X163638001Y-48195000D01*
G75*
G02*
X163888000Y-48444999I0J-249999D01*
G01*
X163888000Y-49345001D01*
G75*
G02*
X163638001Y-49595000I-249999J0D01*
G01*
X162987999Y-49595000D01*
G75*
G02*
X162738000Y-49345001I0J249999D01*
G01*
G37*
%TD.AperFunction*%
%TD*%
%TO.P,R3,2*%
%TO.N,Net-(D10-Pad1)*%
%TA.AperFunction,SMDPad,CuDef*%
G36*
G01*
X144023500Y-49408501D02*
X144023500Y-48508499D01*
G75*
G02*
X144273499Y-48258500I249999J0D01*
G01*
X144923501Y-48258500D01*
G75*
G02*
X145173500Y-48508499I0J-249999D01*
G01*
X145173500Y-49408501D01*
G75*
G02*
X144923501Y-49658500I-249999J0D01*
G01*
X144273499Y-49658500D01*
G75*
G02*
X144023500Y-49408501I0J249999D01*
G01*
G37*
%TD.AperFunction*%
%TO.P,R3,1*%
%TO.N,GNDS*%
%TA.AperFunction,SMDPad,CuDef*%
G36*
G01*
X141973500Y-49408501D02*
X141973500Y-48508499D01*
G75*
G02*
X142223499Y-48258500I249999J0D01*
G01*
X142873501Y-48258500D01*
G75*
G02*
X143123500Y-48508499I0J-249999D01*
G01*
X143123500Y-49408501D01*
G75*
G02*
X142873501Y-49658500I-249999J0D01*
G01*
X142223499Y-49658500D01*
G75*
G02*
X141973500Y-49408501I0J249999D01*
G01*
G37*
%TD.AperFunction*%
%TD*%
%TO.P,R2,2*%
%TO.N,Net-(D2-Pad1)*%
%TA.AperFunction,SMDPad,CuDef*%
G36*
G01*
X123322500Y-49408501D02*
X123322500Y-48508499D01*
G75*
G02*
X123572499Y-48258500I249999J0D01*
G01*
X124222501Y-48258500D01*
G75*
G02*
X124472500Y-48508499I0J-249999D01*
G01*
X124472500Y-49408501D01*
G75*
G02*
X124222501Y-49658500I-249999J0D01*
G01*
X123572499Y-49658500D01*
G75*
G02*
X123322500Y-49408501I0J249999D01*
G01*
G37*
%TD.AperFunction*%
%TO.P,R2,1*%
%TO.N,GNDS*%
%TA.AperFunction,SMDPad,CuDef*%
G36*
G01*
X121272500Y-49408501D02*
X121272500Y-48508499D01*
G75*
G02*
X121522499Y-48258500I249999J0D01*
G01*
X122172501Y-48258500D01*
G75*
G02*
X122422500Y-48508499I0J-249999D01*
G01*
X122422500Y-49408501D01*
G75*
G02*
X122172501Y-49658500I-249999J0D01*
G01*
X121522499Y-49658500D01*
G75*
G02*
X121272500Y-49408501I0J249999D01*
G01*
G37*
%TD.AperFunction*%
%TD*%
%TO.P,R1,2*%
%TO.N,Net-(D1-Pad1)*%
%TA.AperFunction,SMDPad,CuDef*%
G36*
G01*
X102685000Y-49408501D02*
X102685000Y-48508499D01*
G75*
G02*
X102934999Y-48258500I249999J0D01*
G01*
X103585001Y-48258500D01*
G75*
G02*
X103835000Y-48508499I0J-249999D01*
G01*
X103835000Y-49408501D01*
G75*
G02*
X103585001Y-49658500I-249999J0D01*
G01*
X102934999Y-49658500D01*
G75*
G02*
X102685000Y-49408501I0J249999D01*
G01*
G37*
%TD.AperFunction*%
%TO.P,R1,1*%
%TO.N,GNDS*%
%TA.AperFunction,SMDPad,CuDef*%
G36*
G01*
X100635000Y-49408501D02*
X100635000Y-48508499D01*
G75*
G02*
X100884999Y-48258500I249999J0D01*
G01*
X101535001Y-48258500D01*
G75*
G02*
X101785000Y-48508499I0J-249999D01*
G01*
X101785000Y-49408501D01*
G75*
G02*
X101535001Y-49658500I-249999J0D01*
G01*
X100884999Y-49658500D01*
G75*
G02*
X100635000Y-49408501I0J249999D01*
G01*
G37*
%TD.AperFunction*%
%TD*%
D13*
%TO.P,J7,5*%
%TO.N,/PeakDetectorMCU/NRST*%
X131191000Y-93980000D03*
%TO.P,J7,4*%
%TO.N,/PeakDetectorMCU/SYS_SWDIO*%
X133731000Y-93980000D03*
%TO.P,J7,3*%
%TO.N,GNDS*%
X136271000Y-93980000D03*
%TO.P,J7,2*%
%TO.N,/PeakDetectorMCU/SYS_SWCLK*%
X138811000Y-93980000D03*
D14*
%TO.P,J7,1*%
%TO.N,+3V3*%
X141351000Y-93980000D03*
%TD*%
D15*
%TO.P,D14,2*%
%TO.N,/PeakDetectorMCU/PEAK_OUT_PWM1*%
X167005000Y-55245000D03*
D16*
%TO.P,D14,1*%
%TO.N,Net-(D14-Pad1)*%
X167005000Y-52705000D03*
%TD*%
D15*
%TO.P,D10,2*%
%TO.N,/PeakDetectorMCU/PEAK_OUT_PWM2*%
X146431000Y-55372000D03*
D16*
%TO.P,D10,1*%
%TO.N,Net-(D10-Pad1)*%
X146431000Y-52832000D03*
%TD*%
D15*
%TO.P,D2,2*%
%TO.N,/PeakDetectorMCU/PEAK_OUT_PWM3*%
X125857000Y-55372000D03*
D16*
%TO.P,D2,1*%
%TO.N,Net-(D2-Pad1)*%
X125857000Y-52832000D03*
%TD*%
D15*
%TO.P,D1,2*%
%TO.N,/PeakDetectorMCU/PEAK_OUT_PWM4*%
X105219500Y-55245000D03*
D16*
%TO.P,D1,1*%
%TO.N,Net-(D1-Pad1)*%
X105219500Y-52705000D03*
%TD*%
%TO.P,C31,2*%
%TO.N,GNDS*%
%TA.AperFunction,SMDPad,CuDef*%
G36*
G01*
X137610001Y-77782000D02*
X136709999Y-77782000D01*
G75*
G02*
X136460000Y-77532001I0J249999D01*
G01*
X136460000Y-76881999D01*
G75*
G02*
X136709999Y-76632000I249999J0D01*
G01*
X137610001Y-76632000D01*
G75*
G02*
X137860000Y-76881999I0J-249999D01*
G01*
X137860000Y-77532001D01*
G75*
G02*
X137610001Y-77782000I-249999J0D01*
G01*
G37*
%TD.AperFunction*%
%TO.P,C31,1*%
%TO.N,+3V3*%
%TA.AperFunction,SMDPad,CuDef*%
G36*
G01*
X137610001Y-79832000D02*
X136709999Y-79832000D01*
G75*
G02*
X136460000Y-79582001I0J249999D01*
G01*
X136460000Y-78931999D01*
G75*
G02*
X136709999Y-78682000I249999J0D01*
G01*
X137610001Y-78682000D01*
G75*
G02*
X137860000Y-78931999I0J-249999D01*
G01*
X137860000Y-79582001D01*
G75*
G02*
X137610001Y-79832000I-249999J0D01*
G01*
G37*
%TD.AperFunction*%
%TD*%
%TO.P,C29,2*%
%TO.N,GNDS*%
%TA.AperFunction,SMDPad,CuDef*%
G36*
G01*
X135578001Y-77782000D02*
X134677999Y-77782000D01*
G75*
G02*
X134428000Y-77532001I0J249999D01*
G01*
X134428000Y-76881999D01*
G75*
G02*
X134677999Y-76632000I249999J0D01*
G01*
X135578001Y-76632000D01*
G75*
G02*
X135828000Y-76881999I0J-249999D01*
G01*
X135828000Y-77532001D01*
G75*
G02*
X135578001Y-77782000I-249999J0D01*
G01*
G37*
%TD.AperFunction*%
%TO.P,C29,1*%
%TO.N,+3V3*%
%TA.AperFunction,SMDPad,CuDef*%
G36*
G01*
X135578001Y-79832000D02*
X134677999Y-79832000D01*
G75*
G02*
X134428000Y-79582001I0J249999D01*
G01*
X134428000Y-78931999D01*
G75*
G02*
X134677999Y-78682000I249999J0D01*
G01*
X135578001Y-78682000D01*
G75*
G02*
X135828000Y-78931999I0J-249999D01*
G01*
X135828000Y-79582001D01*
G75*
G02*
X135578001Y-79832000I-249999J0D01*
G01*
G37*
%TD.AperFunction*%
%TD*%
%TO.P,C22,2*%
%TO.N,GNDS*%
%TA.AperFunction,SMDPad,CuDef*%
G36*
G01*
X133546001Y-77782000D02*
X132645999Y-77782000D01*
G75*
G02*
X132396000Y-77532001I0J249999D01*
G01*
X132396000Y-76881999D01*
G75*
G02*
X132645999Y-76632000I249999J0D01*
G01*
X133546001Y-76632000D01*
G75*
G02*
X133796000Y-76881999I0J-249999D01*
G01*
X133796000Y-77532001D01*
G75*
G02*
X133546001Y-77782000I-249999J0D01*
G01*
G37*
%TD.AperFunction*%
%TO.P,C22,1*%
%TO.N,+3V3*%
%TA.AperFunction,SMDPad,CuDef*%
G36*
G01*
X133546001Y-79832000D02*
X132645999Y-79832000D01*
G75*
G02*
X132396000Y-79582001I0J249999D01*
G01*
X132396000Y-78931999D01*
G75*
G02*
X132645999Y-78682000I249999J0D01*
G01*
X133546001Y-78682000D01*
G75*
G02*
X133796000Y-78931999I0J-249999D01*
G01*
X133796000Y-79582001D01*
G75*
G02*
X133546001Y-79832000I-249999J0D01*
G01*
G37*
%TD.AperFunction*%
%TD*%
D11*
%TO.P,RV3,1*%
%TO.N,Net-(R18-Pad2)*%
X144678400Y-69443600D03*
%TO.P,RV3,2*%
X148183600Y-69443600D03*
%TO.P,RV3,3*%
%TO.N,Net-(C36-Pad2)*%
X144678400Y-127939800D03*
D12*
%TO.P,RV3,*%
%TO.N,*%
X142240000Y-74777600D03*
X150596600Y-73583800D03*
X142240000Y-122580400D03*
X150622000Y-123799600D03*
%TD*%
D11*
%TO.P,RV1,1*%
%TO.N,Net-(R6-Pad2)*%
X103530400Y-69469000D03*
%TO.P,RV1,2*%
X107035600Y-69469000D03*
%TO.P,RV1,3*%
%TO.N,Net-(C14-Pad2)*%
X103530400Y-127965200D03*
D12*
%TO.P,RV1,*%
%TO.N,*%
X101092000Y-74803000D03*
X109448600Y-73609200D03*
X101092000Y-122605800D03*
X109474000Y-123825000D03*
%TD*%
D11*
%TO.P,RV4,1*%
%TO.N,Net-(R24-Pad2)*%
X165252400Y-69443600D03*
%TO.P,RV4,2*%
X168757600Y-69443600D03*
%TO.P,RV4,3*%
%TO.N,Net-(C47-Pad2)*%
X165252400Y-127939800D03*
D12*
%TO.P,RV4,*%
%TO.N,*%
X162814000Y-74777600D03*
X171170600Y-73583800D03*
X162814000Y-122580400D03*
X171196000Y-123799600D03*
%TD*%
D17*
%TO.P,J6,1*%
%TO.N,/PEAK_IN_BUF4*%
X159766000Y-61595000D03*
%TO.P,J6,2*%
%TO.N,GNDS*%
X171196000Y-61595000D03*
%TO.P,J6,3*%
X171196000Y-48895000D03*
%TO.P,J6,4*%
X159766000Y-48895000D03*
%TD*%
%TO.P,J5,1*%
%TO.N,/PEAK_IN_BUF3*%
X139192000Y-61658500D03*
%TO.P,J5,2*%
%TO.N,GNDS*%
X150622000Y-61658500D03*
%TO.P,J5,3*%
X150622000Y-48958500D03*
%TO.P,J5,4*%
X139192000Y-48958500D03*
%TD*%
%TO.P,J4,1*%
%TO.N,/PEAK_IN_BUF2*%
X118618000Y-61658500D03*
%TO.P,J4,2*%
%TO.N,GNDS*%
X130048000Y-61658500D03*
%TO.P,J4,3*%
X130048000Y-48958500D03*
%TO.P,J4,4*%
X118618000Y-48958500D03*
%TD*%
%TO.P,J3,1*%
%TO.N,/PEAK_IN_BUF1*%
X98044000Y-61658500D03*
%TO.P,J3,2*%
%TO.N,GNDS*%
X109474000Y-61658500D03*
%TO.P,J3,3*%
X109474000Y-48958500D03*
%TO.P,J3,4*%
X98044000Y-48958500D03*
%TD*%
%TO.P,J1,1*%
%TO.N,/InputBufferAndGain1/SIGNAL_INPUT*%
X175196500Y-108585000D03*
%TO.P,J1,2*%
%TO.N,GNDS*%
X175196500Y-120015000D03*
%TO.P,J1,3*%
X187896500Y-120015000D03*
%TO.P,J1,4*%
X187896500Y-108585000D03*
%TD*%
%TO.P,J2,3*%
%TO.N,N/C*%
%TA.AperFunction,ComponentPad*%
G36*
G01*
X186931500Y-54115000D02*
X186931500Y-55865000D01*
G75*
G02*
X186056500Y-56740000I-875000J0D01*
G01*
X184306500Y-56740000D01*
G75*
G02*
X183431500Y-55865000I0J875000D01*
G01*
X183431500Y-54115000D01*
G75*
G02*
X184306500Y-53240000I875000J0D01*
G01*
X186056500Y-53240000D01*
G75*
G02*
X186931500Y-54115000I0J-875000D01*
G01*
G37*
%TD.AperFunction*%
%TO.P,J2,2*%
%TO.N,/PowerSupply/+9V_IN*%
%TA.AperFunction,ComponentPad*%
G36*
G01*
X189681500Y-58690000D02*
X189681500Y-60690000D01*
G75*
G02*
X188931500Y-61440000I-750000J0D01*
G01*
X187431500Y-61440000D01*
G75*
G02*
X186681500Y-60690000I0J750000D01*
G01*
X186681500Y-58690000D01*
G75*
G02*
X187431500Y-57940000I750000J0D01*
G01*
X188931500Y-57940000D01*
G75*
G02*
X189681500Y-58690000I0J-750000D01*
G01*
G37*
%TD.AperFunction*%
D18*
%TO.P,J2,1*%
%TO.N,GNDS*%
X182181500Y-59690000D03*
%TD*%
D19*
%TO.N,GNDS*%
X187325000Y-85725000D03*
X187325000Y-88265000D03*
X145923000Y-110428000D03*
X166497000Y-110555000D03*
X125222000Y-110428000D03*
X183515000Y-83820000D03*
X185420000Y-83820000D03*
X187325000Y-83820000D03*
X183515000Y-85725000D03*
X185420000Y-85725000D03*
X185420000Y-88265000D03*
X183515000Y-88265000D03*
X183515000Y-90170000D03*
X185420000Y-90170000D03*
X187325000Y-90170000D03*
X189230000Y-88265000D03*
X189230000Y-85725000D03*
X189230000Y-83820000D03*
X189230000Y-90170000D03*
X189230000Y-92075000D03*
X187325000Y-92075000D03*
X185420000Y-92075000D03*
X183515000Y-92075000D03*
X189230000Y-81915000D03*
X187325000Y-81915000D03*
X185420000Y-81915000D03*
X183515000Y-81915000D03*
X100584000Y-100457000D03*
X96139000Y-102997000D03*
X116459000Y-103378000D03*
X120904000Y-100838000D03*
X137795000Y-103505000D03*
X157734000Y-103632000D03*
X104902000Y-109982000D03*
X153192000Y-107412000D03*
X91694000Y-107442000D03*
X112014000Y-107442000D03*
X132969000Y-107569000D03*
X141573000Y-84614000D03*
X130435000Y-89414000D03*
X130683000Y-97790000D03*
X109728000Y-97028000D03*
X89408000Y-96774000D03*
X151003000Y-96901000D03*
X142113000Y-100965000D03*
X162560004Y-100965000D03*
X175895000Y-99060000D03*
%TO.N,Net-(R18-Pad2)*%
X137096500Y-100584000D03*
X146558000Y-88773000D03*
X146558000Y-86233000D03*
X146558000Y-79629000D03*
X146558000Y-77470000D03*
X129540000Y-100584000D03*
%TO.N,Net-(R12-Pad2)*%
X108076994Y-93853000D03*
X108077000Y-95631002D03*
X119126000Y-72263000D03*
X115951000Y-72263004D03*
%TO.N,Net-(R24-Pad2)*%
X149987000Y-96139000D03*
X149987000Y-93980000D03*
%TO.N,+3V3*%
X151046000Y-104056000D03*
X130726000Y-104310000D03*
X109685000Y-104183000D03*
X89492000Y-103802000D03*
X94624000Y-106562000D03*
X114817000Y-106943000D03*
X136534000Y-106816000D03*
X156328000Y-107070000D03*
X132096000Y-90789000D03*
X137160000Y-80518000D03*
X127698500Y-93027500D03*
X127000000Y-103251000D03*
%TO.N,/PeakDetectorMCU/PEAK_IN_ADC1*%
X130937000Y-80137000D03*
X126745988Y-80137000D03*
%TO.N,/PeakDetectorMCU/PEAK_IN_ADC2*%
X130937000Y-80772000D03*
X127644331Y-80781331D03*
%TO.N,/PeakDetectorMCU/PEAK_IN_ADC3*%
X133222998Y-87884000D03*
X128524000Y-87884000D03*
%TO.N,/PEAK_IN_BUF1*%
X106045000Y-95503996D03*
X106045000Y-93726000D03*
%TO.N,/PeakDetectorMCU/PEAK_IN_ADC4*%
X147574000Y-88773000D03*
X147574000Y-86233000D03*
%TO.N,/PEAK_IN_BUF2*%
X118046500Y-76835000D03*
X118046500Y-78232000D03*
X118046504Y-93599000D03*
X118046500Y-96139000D03*
%TO.N,/PEAK_IN_BUF3*%
X145542000Y-86233000D03*
X145542000Y-88773000D03*
X145542000Y-79628998D03*
X145542000Y-77470000D03*
%TO.N,/PEAK_IN_BUF4*%
X166433500Y-63182500D03*
%TO.N,/PeakDetectorMCU/NRST*%
X138557000Y-89281000D03*
X140335000Y-91059006D03*
%TD*%
D20*
%TO.N,Net-(R18-Pad2)*%
X146558000Y-88773000D02*
X146558000Y-86233000D01*
X146558000Y-79629000D02*
X146558000Y-77470000D01*
D21*
X137096500Y-100584000D02*
X129540000Y-100584000D01*
D20*
%TO.N,Net-(R12-Pad2)*%
X127508000Y-69469000D02*
X127457200Y-69519800D01*
D21*
X108076994Y-93853000D02*
X108076994Y-95630996D01*
X108076994Y-95630996D02*
X108077000Y-95631002D01*
X115951004Y-72263000D02*
X115951000Y-72263004D01*
X119126000Y-72263000D02*
X115951004Y-72263000D01*
%TO.N,Net-(R24-Pad2)*%
X149987000Y-96139000D02*
X149987000Y-93980000D01*
%TO.N,+3V3*%
X137166000Y-79263000D02*
X137160000Y-79257000D01*
X135128000Y-79257000D02*
X137160000Y-79257000D01*
X133096000Y-79257000D02*
X135128000Y-79257000D01*
X139192000Y-79257000D02*
X137160000Y-79257000D01*
X152062000Y-104056000D02*
X151046000Y-104056000D01*
X155076000Y-107070000D02*
X152062000Y-104056000D01*
X156328000Y-107070000D02*
X155076000Y-107070000D01*
X151046000Y-104056000D02*
X147658000Y-104056000D01*
X144898000Y-106816000D02*
X136534000Y-106816000D01*
X147658000Y-104056000D02*
X144898000Y-106816000D01*
X134028000Y-104310000D02*
X136534000Y-106816000D01*
X130726000Y-104310000D02*
X134028000Y-104310000D01*
X117450000Y-104310000D02*
X114817000Y-106943000D01*
X112057000Y-104183000D02*
X114817000Y-106943000D01*
X109685000Y-104183000D02*
X112057000Y-104183000D01*
X98416000Y-106562000D02*
X94624000Y-106562000D01*
X100795000Y-104183000D02*
X98416000Y-106562000D01*
X109685000Y-104183000D02*
X100795000Y-104183000D01*
X91864000Y-103802000D02*
X94624000Y-106562000D01*
X89492000Y-103802000D02*
X91864000Y-103802000D01*
X125814000Y-104310000D02*
X117450000Y-104310000D01*
D20*
X138160000Y-90789000D02*
X141351000Y-93980000D01*
X132096000Y-90789000D02*
X138160000Y-90789000D01*
X137160000Y-80518000D02*
X137160000Y-79257000D01*
X132096000Y-90789000D02*
X129937000Y-90789000D01*
D21*
X126408000Y-104310000D02*
X125814000Y-104310000D01*
X130726000Y-104310000D02*
X126408000Y-104310000D01*
D20*
X127698500Y-93027500D02*
X127635000Y-93091000D01*
X129937000Y-90789000D02*
X127698500Y-93027500D01*
X127000000Y-104140000D02*
X127000000Y-103251000D01*
X126830000Y-104310000D02*
X127000000Y-104140000D01*
X126365000Y-104310000D02*
X126830000Y-104310000D01*
%TO.N,/PeakDetectorMCU/PEAK_IN_ADC1*%
X130937000Y-80137000D02*
X126745988Y-80137000D01*
%TO.N,/PeakDetectorMCU/PEAK_IN_ADC2*%
X127644331Y-80781331D02*
X130927669Y-80781331D01*
X130927669Y-80781331D02*
X130937000Y-80772000D01*
%TO.N,/PeakDetectorMCU/PEAK_IN_ADC3*%
X133222998Y-87884000D02*
X128524000Y-87884000D01*
D21*
%TO.N,/PEAK_IN_BUF1*%
X106045000Y-95503996D02*
X106045000Y-93726000D01*
D20*
%TO.N,/PeakDetectorMCU/PEAK_IN_ADC4*%
X147574000Y-88773000D02*
X147574000Y-86233000D01*
D21*
%TO.N,/PEAK_IN_BUF2*%
X118046500Y-76835000D02*
X118046500Y-78232000D01*
X118046504Y-96138996D02*
X118046500Y-96139000D01*
X118046504Y-93599000D02*
X118046504Y-96138996D01*
%TO.N,/PEAK_IN_BUF3*%
X139192000Y-61607700D02*
X139141200Y-61658500D01*
D20*
X145542000Y-86233000D02*
X145542000Y-88773000D01*
X145542000Y-79628998D02*
X145542000Y-77470000D01*
D21*
%TO.N,/PEAK_IN_BUF4*%
X164846000Y-61595000D02*
X159766000Y-61595000D01*
X166433500Y-63182500D02*
X164846000Y-61595000D01*
D22*
%TO.N,Net-(D1-Pad1)*%
X103260000Y-48958500D02*
X104203500Y-48958500D01*
X105219500Y-49974500D02*
X105219500Y-52705000D01*
X104203500Y-48958500D02*
X105219500Y-49974500D01*
%TO.N,Net-(D2-Pad1)*%
X123897500Y-48958500D02*
X124523500Y-48958500D01*
X125857000Y-50292000D02*
X125857000Y-52832000D01*
X124523500Y-48958500D02*
X125857000Y-50292000D01*
%TO.N,Net-(D10-Pad1)*%
X144598500Y-48958500D02*
X145478500Y-48958500D01*
X146431000Y-49911000D02*
X146431000Y-52832000D01*
X145478500Y-48958500D02*
X146431000Y-49911000D01*
%TO.N,Net-(D14-Pad1)*%
X165363000Y-48895000D02*
X166370000Y-48895000D01*
X167005000Y-49530000D02*
X167005000Y-52705000D01*
X166370000Y-48895000D02*
X167005000Y-49530000D01*
D20*
%TO.N,/PeakDetectorMCU/NRST*%
X140335000Y-91059000D02*
X140335000Y-91059006D01*
X138557000Y-89281000D02*
X140335000Y-91059000D01*
%TD*%
D23*
%TO.N,GNDS*%
G36*
X185649000Y-45548881D02*
G01*
X185649001Y-50386571D01*
X185645807Y-50419000D01*
X185658550Y-50548383D01*
X185696290Y-50672793D01*
X185757575Y-50787450D01*
X185840052Y-50887948D01*
X185940550Y-50970425D01*
X186055207Y-51031710D01*
X186179617Y-51069450D01*
X186276581Y-51079000D01*
X186309000Y-51082193D01*
X186341419Y-51079000D01*
X191496620Y-51079000D01*
X191745000Y-51327381D01*
X191745001Y-124440618D01*
X191496620Y-124689000D01*
X186341419Y-124689000D01*
X186309000Y-124685807D01*
X186179617Y-124698550D01*
X186055207Y-124736290D01*
X185940550Y-124797575D01*
X185840052Y-124880052D01*
X185757575Y-124980550D01*
X185696290Y-125095207D01*
X185658550Y-125219617D01*
X185645807Y-125349000D01*
X185649000Y-125381419D01*
X185649001Y-130155618D01*
X185400620Y-130404000D01*
X86887381Y-130404000D01*
X86639000Y-130155620D01*
X86639000Y-127779544D01*
X101645400Y-127779544D01*
X101645400Y-128150856D01*
X101717839Y-128515034D01*
X101859934Y-128858082D01*
X102066225Y-129166818D01*
X102328782Y-129429375D01*
X102637518Y-129635666D01*
X102980566Y-129777761D01*
X103344744Y-129850200D01*
X103716056Y-129850200D01*
X104080234Y-129777761D01*
X104423282Y-129635666D01*
X104732018Y-129429375D01*
X104994575Y-129166818D01*
X105200866Y-128858082D01*
X105342961Y-128515034D01*
X105415400Y-128150856D01*
X105415400Y-127779544D01*
X105410348Y-127754144D01*
X122219400Y-127754144D01*
X122219400Y-128125456D01*
X122291839Y-128489634D01*
X122433934Y-128832682D01*
X122640225Y-129141418D01*
X122902782Y-129403975D01*
X123211518Y-129610266D01*
X123554566Y-129752361D01*
X123918744Y-129824800D01*
X124290056Y-129824800D01*
X124654234Y-129752361D01*
X124997282Y-129610266D01*
X125306018Y-129403975D01*
X125568575Y-129141418D01*
X125774866Y-128832682D01*
X125916961Y-128489634D01*
X125989400Y-128125456D01*
X125989400Y-127754144D01*
X142793400Y-127754144D01*
X142793400Y-128125456D01*
X142865839Y-128489634D01*
X143007934Y-128832682D01*
X143214225Y-129141418D01*
X143476782Y-129403975D01*
X143785518Y-129610266D01*
X144128566Y-129752361D01*
X144492744Y-129824800D01*
X144864056Y-129824800D01*
X145228234Y-129752361D01*
X145571282Y-129610266D01*
X145880018Y-129403975D01*
X146142575Y-129141418D01*
X146348866Y-128832682D01*
X146490961Y-128489634D01*
X146563400Y-128125456D01*
X146563400Y-127754144D01*
X163367400Y-127754144D01*
X163367400Y-128125456D01*
X163439839Y-128489634D01*
X163581934Y-128832682D01*
X163788225Y-129141418D01*
X164050782Y-129403975D01*
X164359518Y-129610266D01*
X164702566Y-129752361D01*
X165066744Y-129824800D01*
X165438056Y-129824800D01*
X165802234Y-129752361D01*
X166145282Y-129610266D01*
X166454018Y-129403975D01*
X166716575Y-129141418D01*
X166922866Y-128832682D01*
X167064961Y-128489634D01*
X167137400Y-128125456D01*
X167137400Y-127754144D01*
X167064961Y-127389966D01*
X166922866Y-127046918D01*
X166716575Y-126738182D01*
X166454018Y-126475625D01*
X166145282Y-126269334D01*
X165802234Y-126127239D01*
X165438056Y-126054800D01*
X165066744Y-126054800D01*
X164702566Y-126127239D01*
X164359518Y-126269334D01*
X164050782Y-126475625D01*
X163788225Y-126738182D01*
X163581934Y-127046918D01*
X163439839Y-127389966D01*
X163367400Y-127754144D01*
X146563400Y-127754144D01*
X146490961Y-127389966D01*
X146348866Y-127046918D01*
X146142575Y-126738182D01*
X145880018Y-126475625D01*
X145571282Y-126269334D01*
X145228234Y-126127239D01*
X144864056Y-126054800D01*
X144492744Y-126054800D01*
X144128566Y-126127239D01*
X143785518Y-126269334D01*
X143476782Y-126475625D01*
X143214225Y-126738182D01*
X143007934Y-127046918D01*
X142865839Y-127389966D01*
X142793400Y-127754144D01*
X125989400Y-127754144D01*
X125916961Y-127389966D01*
X125774866Y-127046918D01*
X125568575Y-126738182D01*
X125306018Y-126475625D01*
X124997282Y-126269334D01*
X124654234Y-126127239D01*
X124290056Y-126054800D01*
X123918744Y-126054800D01*
X123554566Y-126127239D01*
X123211518Y-126269334D01*
X122902782Y-126475625D01*
X122640225Y-126738182D01*
X122433934Y-127046918D01*
X122291839Y-127389966D01*
X122219400Y-127754144D01*
X105410348Y-127754144D01*
X105342961Y-127415366D01*
X105200866Y-127072318D01*
X104994575Y-126763582D01*
X104732018Y-126501025D01*
X104423282Y-126294734D01*
X104080234Y-126152639D01*
X103716056Y-126080200D01*
X103344744Y-126080200D01*
X102980566Y-126152639D01*
X102637518Y-126294734D01*
X102328782Y-126501025D01*
X102066225Y-126763582D01*
X101859934Y-127072318D01*
X101717839Y-127415366D01*
X101645400Y-127779544D01*
X86639000Y-127779544D01*
X86639000Y-125444919D01*
X86642193Y-125412500D01*
X86629450Y-125283117D01*
X86591710Y-125158707D01*
X86530425Y-125044050D01*
X86447948Y-124943552D01*
X86347450Y-124861075D01*
X86232793Y-124799790D01*
X86108383Y-124762050D01*
X86011419Y-124752500D01*
X85979000Y-124749307D01*
X85946581Y-124752500D01*
X80791381Y-124752500D01*
X80543000Y-124504120D01*
X80543000Y-122370898D01*
X98707000Y-122370898D01*
X98707000Y-122840702D01*
X98798654Y-123301479D01*
X98978440Y-123735521D01*
X99239450Y-124126149D01*
X99571651Y-124458350D01*
X99962279Y-124719360D01*
X100396321Y-124899146D01*
X100857098Y-124990800D01*
X101326902Y-124990800D01*
X101787679Y-124899146D01*
X102221721Y-124719360D01*
X102612349Y-124458350D01*
X102944550Y-124126149D01*
X103205560Y-123735521D01*
X103265796Y-123590098D01*
X107089000Y-123590098D01*
X107089000Y-124059902D01*
X107180654Y-124520679D01*
X107360440Y-124954721D01*
X107621450Y-125345349D01*
X107953651Y-125677550D01*
X108344279Y-125938560D01*
X108778321Y-126118346D01*
X109239098Y-126210000D01*
X109708902Y-126210000D01*
X110169679Y-126118346D01*
X110603721Y-125938560D01*
X110994349Y-125677550D01*
X111326550Y-125345349D01*
X111587560Y-124954721D01*
X111767346Y-124520679D01*
X111859000Y-124059902D01*
X111859000Y-123590098D01*
X111767346Y-123129321D01*
X111587560Y-122695279D01*
X111353844Y-122345498D01*
X119281000Y-122345498D01*
X119281000Y-122815302D01*
X119372654Y-123276079D01*
X119552440Y-123710121D01*
X119813450Y-124100749D01*
X120145651Y-124432950D01*
X120536279Y-124693960D01*
X120970321Y-124873746D01*
X121431098Y-124965400D01*
X121900902Y-124965400D01*
X122361679Y-124873746D01*
X122795721Y-124693960D01*
X123186349Y-124432950D01*
X123518550Y-124100749D01*
X123779560Y-123710121D01*
X123839796Y-123564698D01*
X127663000Y-123564698D01*
X127663000Y-124034502D01*
X127754654Y-124495279D01*
X127934440Y-124929321D01*
X128195450Y-125319949D01*
X128527651Y-125652150D01*
X128918279Y-125913160D01*
X129352321Y-126092946D01*
X129813098Y-126184600D01*
X130282902Y-126184600D01*
X130743679Y-126092946D01*
X131177721Y-125913160D01*
X131568349Y-125652150D01*
X131900550Y-125319949D01*
X132161560Y-124929321D01*
X132341346Y-124495279D01*
X132433000Y-124034502D01*
X132433000Y-123564698D01*
X132341346Y-123103921D01*
X132161560Y-122669879D01*
X131944815Y-122345498D01*
X139855000Y-122345498D01*
X139855000Y-122815302D01*
X139946654Y-123276079D01*
X140126440Y-123710121D01*
X140387450Y-124100749D01*
X140719651Y-124432950D01*
X141110279Y-124693960D01*
X141544321Y-124873746D01*
X142005098Y-124965400D01*
X142474902Y-124965400D01*
X142935679Y-124873746D01*
X143369721Y-124693960D01*
X143760349Y-124432950D01*
X144092550Y-124100749D01*
X144353560Y-123710121D01*
X144413796Y-123564698D01*
X148237000Y-123564698D01*
X148237000Y-124034502D01*
X148328654Y-124495279D01*
X148508440Y-124929321D01*
X148769450Y-125319949D01*
X149101651Y-125652150D01*
X149492279Y-125913160D01*
X149926321Y-126092946D01*
X150387098Y-126184600D01*
X150856902Y-126184600D01*
X151317679Y-126092946D01*
X151751721Y-125913160D01*
X152142349Y-125652150D01*
X152474550Y-125319949D01*
X152735560Y-124929321D01*
X152915346Y-124495279D01*
X153007000Y-124034502D01*
X153007000Y-123564698D01*
X152915346Y-123103921D01*
X152735560Y-122669879D01*
X152518815Y-122345498D01*
X160429000Y-122345498D01*
X160429000Y-122815302D01*
X160520654Y-123276079D01*
X160700440Y-123710121D01*
X160961450Y-124100749D01*
X161293651Y-124432950D01*
X161684279Y-124693960D01*
X162118321Y-124873746D01*
X162579098Y-124965400D01*
X163048902Y-124965400D01*
X163509679Y-124873746D01*
X163943721Y-124693960D01*
X164334349Y-124432950D01*
X164666550Y-124100749D01*
X164927560Y-123710121D01*
X164987796Y-123564698D01*
X168811000Y-123564698D01*
X168811000Y-124034502D01*
X168902654Y-124495279D01*
X169082440Y-124929321D01*
X169343450Y-125319949D01*
X169675651Y-125652150D01*
X170066279Y-125913160D01*
X170500321Y-126092946D01*
X170961098Y-126184600D01*
X171430902Y-126184600D01*
X171891679Y-126092946D01*
X172325721Y-125913160D01*
X172716349Y-125652150D01*
X173048550Y-125319949D01*
X173309560Y-124929321D01*
X173489346Y-124495279D01*
X173581000Y-124034502D01*
X173581000Y-123564698D01*
X173489346Y-123103921D01*
X173309560Y-122669879D01*
X173048550Y-122279251D01*
X172716349Y-121947050D01*
X172325721Y-121686040D01*
X171891679Y-121506254D01*
X171430902Y-121414600D01*
X170961098Y-121414600D01*
X170500321Y-121506254D01*
X170066279Y-121686040D01*
X169675651Y-121947050D01*
X169343450Y-122279251D01*
X169082440Y-122669879D01*
X168902654Y-123103921D01*
X168811000Y-123564698D01*
X164987796Y-123564698D01*
X165107346Y-123276079D01*
X165199000Y-122815302D01*
X165199000Y-122345498D01*
X165107346Y-121884721D01*
X164927560Y-121450679D01*
X164666550Y-121060051D01*
X164334349Y-120727850D01*
X163943721Y-120466840D01*
X163509679Y-120287054D01*
X163048902Y-120195400D01*
X162579098Y-120195400D01*
X162118321Y-120287054D01*
X161684279Y-120466840D01*
X161293651Y-120727850D01*
X160961450Y-121060051D01*
X160700440Y-121450679D01*
X160520654Y-121884721D01*
X160429000Y-122345498D01*
X152518815Y-122345498D01*
X152474550Y-122279251D01*
X152142349Y-121947050D01*
X151751721Y-121686040D01*
X151317679Y-121506254D01*
X150856902Y-121414600D01*
X150387098Y-121414600D01*
X149926321Y-121506254D01*
X149492279Y-121686040D01*
X149101651Y-121947050D01*
X148769450Y-122279251D01*
X148508440Y-122669879D01*
X148328654Y-123103921D01*
X148237000Y-123564698D01*
X144413796Y-123564698D01*
X144533346Y-123276079D01*
X144625000Y-122815302D01*
X144625000Y-122345498D01*
X144533346Y-121884721D01*
X144353560Y-121450679D01*
X144092550Y-121060051D01*
X143760349Y-120727850D01*
X143369721Y-120466840D01*
X142935679Y-120287054D01*
X142474902Y-120195400D01*
X142005098Y-120195400D01*
X141544321Y-120287054D01*
X141110279Y-120466840D01*
X140719651Y-120727850D01*
X140387450Y-121060051D01*
X140126440Y-121450679D01*
X139946654Y-121884721D01*
X139855000Y-122345498D01*
X131944815Y-122345498D01*
X131900550Y-122279251D01*
X131568349Y-121947050D01*
X131177721Y-121686040D01*
X130743679Y-121506254D01*
X130282902Y-121414600D01*
X129813098Y-121414600D01*
X129352321Y-121506254D01*
X128918279Y-121686040D01*
X128527651Y-121947050D01*
X128195450Y-122279251D01*
X127934440Y-122669879D01*
X127754654Y-123103921D01*
X127663000Y-123564698D01*
X123839796Y-123564698D01*
X123959346Y-123276079D01*
X124051000Y-122815302D01*
X124051000Y-122345498D01*
X123959346Y-121884721D01*
X123779560Y-121450679D01*
X123518550Y-121060051D01*
X123186349Y-120727850D01*
X122795721Y-120466840D01*
X122361679Y-120287054D01*
X121900902Y-120195400D01*
X121431098Y-120195400D01*
X120970321Y-120287054D01*
X120536279Y-120466840D01*
X120145651Y-120727850D01*
X119813450Y-121060051D01*
X119552440Y-121450679D01*
X119372654Y-121884721D01*
X119281000Y-122345498D01*
X111353844Y-122345498D01*
X111326550Y-122304651D01*
X110994349Y-121972450D01*
X110603721Y-121711440D01*
X110169679Y-121531654D01*
X109708902Y-121440000D01*
X109239098Y-121440000D01*
X108778321Y-121531654D01*
X108344279Y-121711440D01*
X107953651Y-121972450D01*
X107621450Y-122304651D01*
X107360440Y-122695279D01*
X107180654Y-123129321D01*
X107089000Y-123590098D01*
X103265796Y-123590098D01*
X103385346Y-123301479D01*
X103477000Y-122840702D01*
X103477000Y-122370898D01*
X103385346Y-121910121D01*
X103205560Y-121476079D01*
X102944550Y-121085451D01*
X102612349Y-120753250D01*
X102221721Y-120492240D01*
X101787679Y-120312454D01*
X101326902Y-120220800D01*
X100857098Y-120220800D01*
X100396321Y-120312454D01*
X99962279Y-120492240D01*
X99571651Y-120753250D01*
X99239450Y-121085451D01*
X98978440Y-121476079D01*
X98798654Y-121910121D01*
X98707000Y-122370898D01*
X80543000Y-122370898D01*
X80543000Y-119853967D01*
X183086500Y-119853967D01*
X183086500Y-120176033D01*
X183149332Y-120491912D01*
X183272582Y-120789463D01*
X183451513Y-121057252D01*
X183679248Y-121284987D01*
X183947037Y-121463918D01*
X184244588Y-121587168D01*
X184560467Y-121650000D01*
X184882533Y-121650000D01*
X185198412Y-121587168D01*
X185495963Y-121463918D01*
X185763752Y-121284987D01*
X185991487Y-121057252D01*
X186170418Y-120789463D01*
X186293668Y-120491912D01*
X186356500Y-120176033D01*
X186356500Y-119853967D01*
X186293668Y-119538088D01*
X186170418Y-119240537D01*
X185991487Y-118972748D01*
X185763752Y-118745013D01*
X185495963Y-118566082D01*
X185198412Y-118442832D01*
X184882533Y-118380000D01*
X184560467Y-118380000D01*
X184244588Y-118442832D01*
X183947037Y-118566082D01*
X183679248Y-118745013D01*
X183451513Y-118972748D01*
X183272582Y-119240537D01*
X183149332Y-119538088D01*
X183086500Y-119853967D01*
X80543000Y-119853967D01*
X80543000Y-108374721D01*
X173061500Y-108374721D01*
X173061500Y-108795279D01*
X173143547Y-109207756D01*
X173304488Y-109596302D01*
X173538137Y-109945983D01*
X173835517Y-110243363D01*
X174185198Y-110477012D01*
X174573744Y-110637953D01*
X174986221Y-110720000D01*
X175406779Y-110720000D01*
X175819256Y-110637953D01*
X176207802Y-110477012D01*
X176253908Y-110446205D01*
X176236500Y-110533721D01*
X176236500Y-110954279D01*
X176318547Y-111366756D01*
X176479488Y-111755302D01*
X176713137Y-112104983D01*
X177010517Y-112402363D01*
X177360198Y-112636012D01*
X177748744Y-112796953D01*
X178161221Y-112879000D01*
X178581779Y-112879000D01*
X178994256Y-112796953D01*
X179382802Y-112636012D01*
X179732483Y-112402363D01*
X180029863Y-112104983D01*
X180263512Y-111755302D01*
X180424453Y-111366756D01*
X180506500Y-110954279D01*
X180506500Y-110533721D01*
X180424453Y-110121244D01*
X180263512Y-109732698D01*
X180029863Y-109383017D01*
X179732483Y-109085637D01*
X179382802Y-108851988D01*
X178994256Y-108691047D01*
X178581779Y-108609000D01*
X178161221Y-108609000D01*
X177748744Y-108691047D01*
X177360198Y-108851988D01*
X177314092Y-108882795D01*
X177331500Y-108795279D01*
X177331500Y-108423967D01*
X183086500Y-108423967D01*
X183086500Y-108746033D01*
X183149332Y-109061912D01*
X183272582Y-109359463D01*
X183451513Y-109627252D01*
X183679248Y-109854987D01*
X183947037Y-110033918D01*
X184244588Y-110157168D01*
X184560467Y-110220000D01*
X184882533Y-110220000D01*
X185198412Y-110157168D01*
X185495963Y-110033918D01*
X185763752Y-109854987D01*
X185991487Y-109627252D01*
X186170418Y-109359463D01*
X186293668Y-109061912D01*
X186356500Y-108746033D01*
X186356500Y-108423967D01*
X186293668Y-108108088D01*
X186170418Y-107810537D01*
X185991487Y-107542748D01*
X185763752Y-107315013D01*
X185495963Y-107136082D01*
X185198412Y-107012832D01*
X184882533Y-106950000D01*
X184560467Y-106950000D01*
X184244588Y-107012832D01*
X183947037Y-107136082D01*
X183679248Y-107315013D01*
X183451513Y-107542748D01*
X183272582Y-107810537D01*
X183149332Y-108108088D01*
X183086500Y-108423967D01*
X177331500Y-108423967D01*
X177331500Y-108374721D01*
X177249453Y-107962244D01*
X177088512Y-107573698D01*
X176854863Y-107224017D01*
X176557483Y-106926637D01*
X176207802Y-106692988D01*
X175819256Y-106532047D01*
X175406779Y-106450000D01*
X174986221Y-106450000D01*
X174573744Y-106532047D01*
X174185198Y-106692988D01*
X173835517Y-106926637D01*
X173538137Y-107224017D01*
X173304488Y-107573698D01*
X173143547Y-107962244D01*
X173061500Y-108374721D01*
X80543000Y-108374721D01*
X80543000Y-103802000D01*
X88602718Y-103802000D01*
X88619805Y-103975490D01*
X88670411Y-104142313D01*
X88752589Y-104296059D01*
X88863183Y-104430817D01*
X88997941Y-104541411D01*
X89151687Y-104623589D01*
X89318510Y-104674195D01*
X89448523Y-104687000D01*
X91497422Y-104687000D01*
X93967470Y-107157049D01*
X93995183Y-107190817D01*
X94028951Y-107218530D01*
X94028953Y-107218532D01*
X94100452Y-107277210D01*
X94129941Y-107301411D01*
X94283687Y-107383589D01*
X94450510Y-107434195D01*
X94580523Y-107447000D01*
X94580533Y-107447000D01*
X94623999Y-107451281D01*
X94667465Y-107447000D01*
X98372531Y-107447000D01*
X98416000Y-107451281D01*
X98459469Y-107447000D01*
X98459477Y-107447000D01*
X98589490Y-107434195D01*
X98756313Y-107383589D01*
X98910059Y-107301411D01*
X99044817Y-107190817D01*
X99072534Y-107157044D01*
X101161579Y-105068000D01*
X111690422Y-105068000D01*
X114160472Y-107538051D01*
X114188183Y-107571817D01*
X114221949Y-107599528D01*
X114221953Y-107599532D01*
X114322940Y-107682410D01*
X114476686Y-107764588D01*
X114527293Y-107779940D01*
X114643510Y-107815195D01*
X114799913Y-107830598D01*
X114816999Y-107832281D01*
X114817000Y-107832281D01*
X114990490Y-107815195D01*
X115157313Y-107764588D01*
X115311059Y-107682410D01*
X115412046Y-107599532D01*
X115445817Y-107571817D01*
X115473532Y-107538047D01*
X117816579Y-105195000D01*
X133661422Y-105195000D01*
X135877470Y-107411049D01*
X135905183Y-107444817D01*
X135938951Y-107472530D01*
X135938953Y-107472532D01*
X135944840Y-107477363D01*
X136039941Y-107555411D01*
X136193687Y-107637589D01*
X136360510Y-107688195D01*
X136490523Y-107701000D01*
X136490533Y-107701000D01*
X136533999Y-107705281D01*
X136577465Y-107701000D01*
X144854531Y-107701000D01*
X144898000Y-107705281D01*
X144941469Y-107701000D01*
X144941477Y-107701000D01*
X145071490Y-107688195D01*
X145238313Y-107637589D01*
X145392059Y-107555411D01*
X145526817Y-107444817D01*
X145554534Y-107411044D01*
X148024579Y-104941000D01*
X151695422Y-104941000D01*
X154419470Y-107665049D01*
X154447183Y-107698817D01*
X154480951Y-107726530D01*
X154480953Y-107726532D01*
X154581941Y-107809411D01*
X154735686Y-107891589D01*
X154862309Y-107930000D01*
X154902510Y-107942195D01*
X155032523Y-107955000D01*
X155032531Y-107955000D01*
X155076000Y-107959281D01*
X155119469Y-107955000D01*
X156371477Y-107955000D01*
X156501490Y-107942195D01*
X156668313Y-107891589D01*
X156822059Y-107809411D01*
X156956817Y-107698817D01*
X157067411Y-107564059D01*
X157149589Y-107410313D01*
X157200195Y-107243490D01*
X157217282Y-107070000D01*
X157200195Y-106896510D01*
X157149589Y-106729687D01*
X157067411Y-106575941D01*
X156956817Y-106441183D01*
X156822059Y-106330589D01*
X156668313Y-106248411D01*
X156501490Y-106197805D01*
X156371477Y-106185000D01*
X155442579Y-106185000D01*
X152718534Y-103460956D01*
X152690817Y-103427183D01*
X152556059Y-103316589D01*
X152402313Y-103234411D01*
X152235490Y-103183805D01*
X152105477Y-103171000D01*
X152105469Y-103171000D01*
X152062000Y-103166719D01*
X152018531Y-103171000D01*
X147701465Y-103171000D01*
X147657999Y-103166719D01*
X147614533Y-103171000D01*
X147614523Y-103171000D01*
X147484510Y-103183805D01*
X147317687Y-103234411D01*
X147163941Y-103316589D01*
X147163939Y-103316590D01*
X147163940Y-103316590D01*
X147062953Y-103399468D01*
X147062951Y-103399470D01*
X147029183Y-103427183D01*
X147001470Y-103460951D01*
X144531422Y-105931000D01*
X136900579Y-105931000D01*
X134684534Y-103714956D01*
X134656817Y-103681183D01*
X134522059Y-103570589D01*
X134368313Y-103488411D01*
X134201490Y-103437805D01*
X134071477Y-103425000D01*
X134071469Y-103425000D01*
X134028000Y-103420719D01*
X133984531Y-103425000D01*
X127842238Y-103425000D01*
X127860000Y-103335703D01*
X127860000Y-103166297D01*
X127826951Y-103000147D01*
X127762122Y-102843637D01*
X127668005Y-102702782D01*
X127548218Y-102582995D01*
X127407363Y-102488878D01*
X127250853Y-102424049D01*
X127084703Y-102391000D01*
X126915297Y-102391000D01*
X126749147Y-102424049D01*
X126592637Y-102488878D01*
X126451782Y-102582995D01*
X126331995Y-102702782D01*
X126237878Y-102843637D01*
X126173049Y-103000147D01*
X126140000Y-103166297D01*
X126140000Y-103335703D01*
X126157762Y-103425000D01*
X117493465Y-103425000D01*
X117449999Y-103420719D01*
X117406533Y-103425000D01*
X117406523Y-103425000D01*
X117276510Y-103437805D01*
X117109687Y-103488411D01*
X116955941Y-103570589D01*
X116955939Y-103570590D01*
X116955940Y-103570590D01*
X116854953Y-103653468D01*
X116854951Y-103653470D01*
X116821183Y-103681183D01*
X116793470Y-103714951D01*
X114817000Y-105691421D01*
X112713534Y-103587956D01*
X112685817Y-103554183D01*
X112551059Y-103443589D01*
X112397313Y-103361411D01*
X112230490Y-103310805D01*
X112100477Y-103298000D01*
X112100469Y-103298000D01*
X112057000Y-103293719D01*
X112013531Y-103298000D01*
X100838466Y-103298000D01*
X100794999Y-103293719D01*
X100751533Y-103298000D01*
X100751523Y-103298000D01*
X100621510Y-103310805D01*
X100454687Y-103361411D01*
X100300941Y-103443589D01*
X100300939Y-103443590D01*
X100300940Y-103443590D01*
X100199953Y-103526468D01*
X100199951Y-103526470D01*
X100166183Y-103554183D01*
X100138470Y-103587951D01*
X98049422Y-105677000D01*
X94990579Y-105677000D01*
X92520534Y-103206956D01*
X92492817Y-103173183D01*
X92358059Y-103062589D01*
X92204313Y-102980411D01*
X92037490Y-102929805D01*
X91907477Y-102917000D01*
X91907469Y-102917000D01*
X91864000Y-102912719D01*
X91820531Y-102917000D01*
X89448523Y-102917000D01*
X89318510Y-102929805D01*
X89151687Y-102980411D01*
X88997941Y-103062589D01*
X88863183Y-103173183D01*
X88752589Y-103307941D01*
X88670411Y-103461687D01*
X88619805Y-103628510D01*
X88602718Y-103802000D01*
X80543000Y-103802000D01*
X80543000Y-100584000D01*
X128650718Y-100584000D01*
X128667805Y-100757490D01*
X128718411Y-100924313D01*
X128800589Y-101078059D01*
X128911183Y-101212817D01*
X129045941Y-101323411D01*
X129199687Y-101405589D01*
X129366510Y-101456195D01*
X129496523Y-101469000D01*
X137139977Y-101469000D01*
X137269990Y-101456195D01*
X137436813Y-101405589D01*
X137590559Y-101323411D01*
X137725317Y-101212817D01*
X137835911Y-101078059D01*
X137918089Y-100924313D01*
X137968695Y-100757490D01*
X137985782Y-100584000D01*
X137968695Y-100410510D01*
X137918089Y-100243687D01*
X137835911Y-100089941D01*
X137725317Y-99955183D01*
X137590559Y-99844589D01*
X137436813Y-99762411D01*
X137269990Y-99711805D01*
X137139977Y-99699000D01*
X129496523Y-99699000D01*
X129366510Y-99711805D01*
X129199687Y-99762411D01*
X129045941Y-99844589D01*
X128911183Y-99955183D01*
X128800589Y-100089941D01*
X128718411Y-100243687D01*
X128667805Y-100410510D01*
X128650718Y-100584000D01*
X80543000Y-100584000D01*
X80543000Y-95547472D01*
X105160000Y-95547472D01*
X105172805Y-95677485D01*
X105223411Y-95844308D01*
X105305589Y-95998054D01*
X105416183Y-96132813D01*
X105550941Y-96243407D01*
X105704687Y-96325585D01*
X105871510Y-96376191D01*
X106045000Y-96393278D01*
X106218489Y-96376191D01*
X106385312Y-96325585D01*
X106539058Y-96243407D01*
X106673817Y-96132813D01*
X106784411Y-95998055D01*
X106866589Y-95844309D01*
X106917195Y-95677486D01*
X106921773Y-95630996D01*
X107187713Y-95630996D01*
X107204799Y-95804486D01*
X107255406Y-95971309D01*
X107337584Y-96125055D01*
X107420462Y-96226042D01*
X107420465Y-96226045D01*
X107448178Y-96259813D01*
X107481946Y-96287526D01*
X107481954Y-96287534D01*
X107582941Y-96370412D01*
X107736687Y-96452590D01*
X107903510Y-96503196D01*
X108076999Y-96520283D01*
X108250489Y-96503196D01*
X108417313Y-96452590D01*
X108571058Y-96370412D01*
X108705816Y-96259818D01*
X108804969Y-96139000D01*
X117157219Y-96139000D01*
X117174305Y-96312490D01*
X117224912Y-96479313D01*
X117307090Y-96633059D01*
X117417683Y-96767817D01*
X117552441Y-96878410D01*
X117706187Y-96960588D01*
X117873010Y-97011195D01*
X118046500Y-97028281D01*
X118219990Y-97011195D01*
X118386813Y-96960588D01*
X118540559Y-96878410D01*
X118641546Y-96795532D01*
X118641548Y-96795530D01*
X118675321Y-96767813D01*
X118785915Y-96633055D01*
X118868093Y-96479309D01*
X118918699Y-96312486D01*
X118931503Y-96182476D01*
X149102000Y-96182476D01*
X149114805Y-96312489D01*
X149165411Y-96479312D01*
X149247589Y-96633058D01*
X149358183Y-96767817D01*
X149492941Y-96878411D01*
X149646687Y-96960589D01*
X149813510Y-97011195D01*
X149987000Y-97028282D01*
X150160489Y-97011195D01*
X150327312Y-96960589D01*
X150481058Y-96878411D01*
X150615817Y-96767817D01*
X150726411Y-96633059D01*
X150808589Y-96479313D01*
X150859195Y-96312490D01*
X150872000Y-96182477D01*
X150872000Y-93936523D01*
X150859195Y-93806510D01*
X150808589Y-93639687D01*
X150726411Y-93485941D01*
X150615817Y-93351183D01*
X150481059Y-93240589D01*
X150327313Y-93158411D01*
X150160490Y-93107805D01*
X149987000Y-93090718D01*
X149813511Y-93107805D01*
X149646688Y-93158411D01*
X149492942Y-93240589D01*
X149358184Y-93351183D01*
X149247590Y-93485941D01*
X149165412Y-93639687D01*
X149114806Y-93806510D01*
X149102001Y-93936523D01*
X149102000Y-96182476D01*
X118931503Y-96182476D01*
X118931504Y-96182473D01*
X118931504Y-96182465D01*
X118935785Y-96138996D01*
X118931504Y-96095527D01*
X118931504Y-93555523D01*
X118918699Y-93425510D01*
X118868093Y-93258687D01*
X118785915Y-93104941D01*
X118774474Y-93091000D01*
X126795960Y-93091000D01*
X126812082Y-93254688D01*
X126859828Y-93412086D01*
X126937364Y-93557145D01*
X127041710Y-93684290D01*
X127168855Y-93788636D01*
X127313914Y-93866172D01*
X127471312Y-93913918D01*
X127635000Y-93930040D01*
X127798688Y-93913918D01*
X127956086Y-93866172D01*
X128016761Y-93833740D01*
X129706000Y-93833740D01*
X129706000Y-94126260D01*
X129763068Y-94413158D01*
X129875010Y-94683411D01*
X130037525Y-94926632D01*
X130244368Y-95133475D01*
X130487589Y-95295990D01*
X130757842Y-95407932D01*
X131044740Y-95465000D01*
X131337260Y-95465000D01*
X131624158Y-95407932D01*
X131894411Y-95295990D01*
X132137632Y-95133475D01*
X132344475Y-94926632D01*
X132461000Y-94752240D01*
X132577525Y-94926632D01*
X132784368Y-95133475D01*
X133027589Y-95295990D01*
X133297842Y-95407932D01*
X133584740Y-95465000D01*
X133877260Y-95465000D01*
X134164158Y-95407932D01*
X134434411Y-95295990D01*
X134677632Y-95133475D01*
X134884475Y-94926632D01*
X135046990Y-94683411D01*
X135158932Y-94413158D01*
X135216000Y-94126260D01*
X135216000Y-93833740D01*
X135158932Y-93546842D01*
X135046990Y-93276589D01*
X134884475Y-93033368D01*
X134677632Y-92826525D01*
X134434411Y-92664010D01*
X134164158Y-92552068D01*
X133877260Y-92495000D01*
X133584740Y-92495000D01*
X133297842Y-92552068D01*
X133027589Y-92664010D01*
X132784368Y-92826525D01*
X132577525Y-93033368D01*
X132461000Y-93207760D01*
X132344475Y-93033368D01*
X132137632Y-92826525D01*
X131894411Y-92664010D01*
X131624158Y-92552068D01*
X131337260Y-92495000D01*
X131044740Y-92495000D01*
X130757842Y-92552068D01*
X130487589Y-92664010D01*
X130244368Y-92826525D01*
X130037525Y-93033368D01*
X129875010Y-93276589D01*
X129763068Y-93546842D01*
X129706000Y-93833740D01*
X128016761Y-93833740D01*
X128076703Y-93801700D01*
X128105863Y-93789622D01*
X128246718Y-93695505D01*
X128366505Y-93575718D01*
X128437702Y-93469165D01*
X130282868Y-91624000D01*
X131885612Y-91624000D01*
X132011297Y-91649000D01*
X132180703Y-91649000D01*
X132306388Y-91624000D01*
X137814133Y-91624000D01*
X138685133Y-92495000D01*
X138664740Y-92495000D01*
X138377842Y-92552068D01*
X138107589Y-92664010D01*
X137864368Y-92826525D01*
X137657525Y-93033368D01*
X137495010Y-93276589D01*
X137383068Y-93546842D01*
X137326000Y-93833740D01*
X137326000Y-94126260D01*
X137383068Y-94413158D01*
X137495010Y-94683411D01*
X137657525Y-94926632D01*
X137864368Y-95133475D01*
X138107589Y-95295990D01*
X138377842Y-95407932D01*
X138664740Y-95465000D01*
X138957260Y-95465000D01*
X139244158Y-95407932D01*
X139514411Y-95295990D01*
X139757632Y-95133475D01*
X139889487Y-95001620D01*
X139911498Y-95074180D01*
X139970463Y-95184494D01*
X140049815Y-95281185D01*
X140146506Y-95360537D01*
X140256820Y-95419502D01*
X140376518Y-95455812D01*
X140501000Y-95468072D01*
X142201000Y-95468072D01*
X142325482Y-95455812D01*
X142445180Y-95419502D01*
X142555494Y-95360537D01*
X142652185Y-95281185D01*
X142731537Y-95184494D01*
X142790502Y-95074180D01*
X142826812Y-94954482D01*
X142839072Y-94830000D01*
X142839072Y-93130000D01*
X142826812Y-93005518D01*
X142790502Y-92885820D01*
X142731537Y-92775506D01*
X142652185Y-92678815D01*
X142555494Y-92599463D01*
X142445180Y-92540498D01*
X142325482Y-92504188D01*
X142201000Y-92491928D01*
X141043796Y-92491928D01*
X140462384Y-91910516D01*
X140585853Y-91885957D01*
X140742363Y-91821128D01*
X140883218Y-91727011D01*
X141003005Y-91607224D01*
X141097122Y-91466369D01*
X141161951Y-91309859D01*
X141195000Y-91143709D01*
X141195000Y-90974303D01*
X141161951Y-90808153D01*
X141097122Y-90651643D01*
X141003005Y-90510788D01*
X140883218Y-90391001D01*
X140776689Y-90319820D01*
X139296202Y-88839334D01*
X139225005Y-88732782D01*
X139105218Y-88612995D01*
X138964363Y-88518878D01*
X138807853Y-88454049D01*
X138641703Y-88421000D01*
X138472297Y-88421000D01*
X138306147Y-88454049D01*
X138149637Y-88518878D01*
X138008782Y-88612995D01*
X137888995Y-88732782D01*
X137794878Y-88873637D01*
X137730049Y-89030147D01*
X137697000Y-89196297D01*
X137697000Y-89365703D01*
X137730049Y-89531853D01*
X137794878Y-89688363D01*
X137888995Y-89829218D01*
X138008782Y-89949005D01*
X138016257Y-89954000D01*
X132306388Y-89954000D01*
X132180703Y-89929000D01*
X132011297Y-89929000D01*
X131885612Y-89954000D01*
X129978018Y-89954000D01*
X129936999Y-89949960D01*
X129773311Y-89966082D01*
X129615913Y-90013828D01*
X129470854Y-90091364D01*
X129343709Y-90195709D01*
X129317559Y-90227573D01*
X127256835Y-92288298D01*
X127150282Y-92359495D01*
X127030495Y-92479282D01*
X126936378Y-92620137D01*
X126924300Y-92649297D01*
X126859828Y-92769914D01*
X126812082Y-92927312D01*
X126795960Y-93091000D01*
X118774474Y-93091000D01*
X118675321Y-92970183D01*
X118540562Y-92859589D01*
X118386816Y-92777411D01*
X118219993Y-92726805D01*
X118046504Y-92709718D01*
X117873014Y-92726805D01*
X117706191Y-92777411D01*
X117552445Y-92859589D01*
X117417687Y-92970183D01*
X117307093Y-93104942D01*
X117224915Y-93258688D01*
X117174309Y-93425511D01*
X117161504Y-93555524D01*
X117161505Y-96095481D01*
X117157219Y-96139000D01*
X108804969Y-96139000D01*
X108816410Y-96125060D01*
X108898588Y-95971315D01*
X108949194Y-95804491D01*
X108966281Y-95631001D01*
X108961994Y-95587474D01*
X108961994Y-93809523D01*
X108949189Y-93679510D01*
X108898583Y-93512687D01*
X108816405Y-93358941D01*
X108705811Y-93224183D01*
X108571052Y-93113589D01*
X108417306Y-93031411D01*
X108250483Y-92980805D01*
X108076994Y-92963718D01*
X107903504Y-92980805D01*
X107736681Y-93031411D01*
X107582935Y-93113589D01*
X107448177Y-93224183D01*
X107337583Y-93358942D01*
X107255405Y-93512688D01*
X107204799Y-93679511D01*
X107191994Y-93809524D01*
X107191995Y-95587517D01*
X107187713Y-95630996D01*
X106921773Y-95630996D01*
X106930000Y-95547473D01*
X106930000Y-93682523D01*
X106917195Y-93552510D01*
X106866589Y-93385687D01*
X106784411Y-93231941D01*
X106673817Y-93097183D01*
X106539059Y-92986589D01*
X106385313Y-92904411D01*
X106218490Y-92853805D01*
X106045000Y-92836718D01*
X105871511Y-92853805D01*
X105704688Y-92904411D01*
X105550942Y-92986589D01*
X105416184Y-93097183D01*
X105305590Y-93231941D01*
X105223412Y-93385687D01*
X105172806Y-93552510D01*
X105160001Y-93682523D01*
X105160000Y-95547472D01*
X80543000Y-95547472D01*
X80543000Y-87799297D01*
X127664000Y-87799297D01*
X127664000Y-87968703D01*
X127697049Y-88134853D01*
X127761878Y-88291363D01*
X127855995Y-88432218D01*
X127975782Y-88552005D01*
X128116637Y-88646122D01*
X128273147Y-88710951D01*
X128439297Y-88744000D01*
X128608703Y-88744000D01*
X128734388Y-88719000D01*
X133012610Y-88719000D01*
X133138295Y-88744000D01*
X133307701Y-88744000D01*
X133473851Y-88710951D01*
X133630361Y-88646122D01*
X133771216Y-88552005D01*
X133891003Y-88432218D01*
X133985120Y-88291363D01*
X134049949Y-88134853D01*
X134082998Y-87968703D01*
X134082998Y-87799297D01*
X134049949Y-87633147D01*
X133985120Y-87476637D01*
X133891003Y-87335782D01*
X133771216Y-87215995D01*
X133630361Y-87121878D01*
X133473851Y-87057049D01*
X133307701Y-87024000D01*
X133138295Y-87024000D01*
X133012610Y-87049000D01*
X128734388Y-87049000D01*
X128608703Y-87024000D01*
X128439297Y-87024000D01*
X128273147Y-87057049D01*
X128116637Y-87121878D01*
X127975782Y-87215995D01*
X127855995Y-87335782D01*
X127761878Y-87476637D01*
X127697049Y-87633147D01*
X127664000Y-87799297D01*
X80543000Y-87799297D01*
X80543000Y-86148297D01*
X144682000Y-86148297D01*
X144682000Y-86317703D01*
X144707000Y-86443388D01*
X144707001Y-88562608D01*
X144682000Y-88688297D01*
X144682000Y-88857703D01*
X144715049Y-89023853D01*
X144779878Y-89180363D01*
X144873995Y-89321218D01*
X144993782Y-89441005D01*
X145134637Y-89535122D01*
X145291147Y-89599951D01*
X145457297Y-89633000D01*
X145626703Y-89633000D01*
X145792853Y-89599951D01*
X145949363Y-89535122D01*
X146050000Y-89467878D01*
X146150637Y-89535122D01*
X146307147Y-89599951D01*
X146473297Y-89633000D01*
X146642703Y-89633000D01*
X146808853Y-89599951D01*
X146965363Y-89535122D01*
X147066000Y-89467878D01*
X147166637Y-89535122D01*
X147323147Y-89599951D01*
X147489297Y-89633000D01*
X147658703Y-89633000D01*
X147824853Y-89599951D01*
X147981363Y-89535122D01*
X148122218Y-89441005D01*
X148242005Y-89321218D01*
X148336122Y-89180363D01*
X148400951Y-89023853D01*
X148434000Y-88857703D01*
X148434000Y-88688297D01*
X148409000Y-88562612D01*
X148409000Y-86443388D01*
X148434000Y-86317703D01*
X148434000Y-86148297D01*
X148400951Y-85982147D01*
X148336122Y-85825637D01*
X148242005Y-85684782D01*
X148122218Y-85564995D01*
X147981363Y-85470878D01*
X147824853Y-85406049D01*
X147658703Y-85373000D01*
X147489297Y-85373000D01*
X147323147Y-85406049D01*
X147166637Y-85470878D01*
X147066000Y-85538122D01*
X146965363Y-85470878D01*
X146808853Y-85406049D01*
X146642703Y-85373000D01*
X146473297Y-85373000D01*
X146307147Y-85406049D01*
X146150637Y-85470878D01*
X146050000Y-85538122D01*
X145949363Y-85470878D01*
X145792853Y-85406049D01*
X145626703Y-85373000D01*
X145457297Y-85373000D01*
X145291147Y-85406049D01*
X145134637Y-85470878D01*
X144993782Y-85564995D01*
X144873995Y-85684782D01*
X144779878Y-85825637D01*
X144715049Y-85982147D01*
X144682000Y-86148297D01*
X80543000Y-86148297D01*
X80543000Y-80052297D01*
X125885988Y-80052297D01*
X125885988Y-80221703D01*
X125919037Y-80387853D01*
X125983866Y-80544363D01*
X126077983Y-80685218D01*
X126197770Y-80805005D01*
X126338625Y-80899122D01*
X126495135Y-80963951D01*
X126661285Y-80997000D01*
X126810382Y-80997000D01*
X126817380Y-81032184D01*
X126882209Y-81188694D01*
X126976326Y-81329549D01*
X127096113Y-81449336D01*
X127236968Y-81543453D01*
X127393478Y-81608282D01*
X127559628Y-81641331D01*
X127729034Y-81641331D01*
X127854719Y-81616331D01*
X130773523Y-81616331D01*
X130852297Y-81632000D01*
X131021703Y-81632000D01*
X131187853Y-81598951D01*
X131344363Y-81534122D01*
X131485218Y-81440005D01*
X131605005Y-81320218D01*
X131699122Y-81179363D01*
X131763951Y-81022853D01*
X131797000Y-80856703D01*
X131797000Y-80687297D01*
X131763951Y-80521147D01*
X131736345Y-80454500D01*
X131763951Y-80387853D01*
X131797000Y-80221703D01*
X131797000Y-80052297D01*
X131763951Y-79886147D01*
X131699122Y-79729637D01*
X131605005Y-79588782D01*
X131485218Y-79468995D01*
X131344363Y-79374878D01*
X131187853Y-79310049D01*
X131021703Y-79277000D01*
X130852297Y-79277000D01*
X130726612Y-79302000D01*
X126956376Y-79302000D01*
X126830691Y-79277000D01*
X126661285Y-79277000D01*
X126495135Y-79310049D01*
X126338625Y-79374878D01*
X126197770Y-79468995D01*
X126077983Y-79588782D01*
X125983866Y-79729637D01*
X125919037Y-79886147D01*
X125885988Y-80052297D01*
X80543000Y-80052297D01*
X80543000Y-74568098D01*
X98707000Y-74568098D01*
X98707000Y-75037902D01*
X98798654Y-75498679D01*
X98978440Y-75932721D01*
X99239450Y-76323349D01*
X99571651Y-76655550D01*
X99962279Y-76916560D01*
X100396321Y-77096346D01*
X100857098Y-77188000D01*
X101326902Y-77188000D01*
X101787679Y-77096346D01*
X102221721Y-76916560D01*
X102408850Y-76791524D01*
X117161500Y-76791524D01*
X117161501Y-78275477D01*
X117174306Y-78405490D01*
X117224912Y-78572313D01*
X117307090Y-78726059D01*
X117417684Y-78860817D01*
X117552442Y-78971411D01*
X117706188Y-79053589D01*
X117873011Y-79104195D01*
X118046500Y-79121282D01*
X118219990Y-79104195D01*
X118386813Y-79053589D01*
X118540559Y-78971411D01*
X118588582Y-78931999D01*
X131757928Y-78931999D01*
X131757928Y-79582001D01*
X131774992Y-79755255D01*
X131825528Y-79921851D01*
X131907595Y-80075387D01*
X132018038Y-80209962D01*
X132152613Y-80320405D01*
X132306149Y-80402472D01*
X132472745Y-80453008D01*
X132645999Y-80470072D01*
X133546001Y-80470072D01*
X133719255Y-80453008D01*
X133885851Y-80402472D01*
X134039387Y-80320405D01*
X134112000Y-80260813D01*
X134184613Y-80320405D01*
X134338149Y-80402472D01*
X134504745Y-80453008D01*
X134677999Y-80470072D01*
X135578001Y-80470072D01*
X135751255Y-80453008D01*
X135917851Y-80402472D01*
X136071387Y-80320405D01*
X136144000Y-80260813D01*
X136216613Y-80320405D01*
X136312284Y-80371542D01*
X136300000Y-80433297D01*
X136300000Y-80602703D01*
X136333049Y-80768853D01*
X136397878Y-80925363D01*
X136491995Y-81066218D01*
X136611782Y-81186005D01*
X136752637Y-81280122D01*
X136909147Y-81344951D01*
X137075297Y-81378000D01*
X137244703Y-81378000D01*
X137410853Y-81344951D01*
X137567363Y-81280122D01*
X137708218Y-81186005D01*
X137828005Y-81066218D01*
X137922122Y-80925363D01*
X137986951Y-80768853D01*
X138020000Y-80602703D01*
X138020000Y-80433297D01*
X138007716Y-80371542D01*
X138103387Y-80320405D01*
X138176000Y-80260813D01*
X138248613Y-80320405D01*
X138402149Y-80402472D01*
X138568745Y-80453008D01*
X138741999Y-80470072D01*
X139642001Y-80470072D01*
X139815255Y-80453008D01*
X139981851Y-80402472D01*
X140135387Y-80320405D01*
X140269962Y-80209962D01*
X140380405Y-80075387D01*
X140462472Y-79921851D01*
X140513008Y-79755255D01*
X140530072Y-79582001D01*
X140530072Y-78931999D01*
X140513008Y-78758745D01*
X140462472Y-78592149D01*
X140380405Y-78438613D01*
X140269962Y-78304038D01*
X140135387Y-78193595D01*
X139981851Y-78111528D01*
X139815255Y-78060992D01*
X139642001Y-78043928D01*
X138741999Y-78043928D01*
X138568745Y-78060992D01*
X138402149Y-78111528D01*
X138248613Y-78193595D01*
X138176000Y-78253187D01*
X138103387Y-78193595D01*
X137949851Y-78111528D01*
X137783255Y-78060992D01*
X137610001Y-78043928D01*
X136709999Y-78043928D01*
X136536745Y-78060992D01*
X136370149Y-78111528D01*
X136216613Y-78193595D01*
X136144000Y-78253187D01*
X136071387Y-78193595D01*
X135917851Y-78111528D01*
X135751255Y-78060992D01*
X135578001Y-78043928D01*
X134677999Y-78043928D01*
X134504745Y-78060992D01*
X134338149Y-78111528D01*
X134184613Y-78193595D01*
X134112000Y-78253187D01*
X134039387Y-78193595D01*
X133885851Y-78111528D01*
X133719255Y-78060992D01*
X133546001Y-78043928D01*
X132645999Y-78043928D01*
X132472745Y-78060992D01*
X132306149Y-78111528D01*
X132152613Y-78193595D01*
X132018038Y-78304038D01*
X131907595Y-78438613D01*
X131825528Y-78592149D01*
X131774992Y-78758745D01*
X131757928Y-78931999D01*
X118588582Y-78931999D01*
X118675317Y-78860817D01*
X118785911Y-78726059D01*
X118868089Y-78572313D01*
X118918695Y-78405490D01*
X118931500Y-78275477D01*
X118931500Y-77385297D01*
X144682000Y-77385297D01*
X144682000Y-77554703D01*
X144707001Y-77680392D01*
X144707000Y-79418610D01*
X144682000Y-79544295D01*
X144682000Y-79713701D01*
X144715049Y-79879851D01*
X144779878Y-80036361D01*
X144873995Y-80177216D01*
X144993782Y-80297003D01*
X145134637Y-80391120D01*
X145291147Y-80455949D01*
X145457297Y-80488998D01*
X145626703Y-80488998D01*
X145792853Y-80455949D01*
X145949363Y-80391120D01*
X146049999Y-80323877D01*
X146150637Y-80391122D01*
X146307147Y-80455951D01*
X146473297Y-80489000D01*
X146642703Y-80489000D01*
X146808853Y-80455951D01*
X146965363Y-80391122D01*
X147106218Y-80297005D01*
X147226005Y-80177218D01*
X147320122Y-80036363D01*
X147384951Y-79879853D01*
X147418000Y-79713703D01*
X147418000Y-79544297D01*
X147393000Y-79418612D01*
X147393000Y-77680388D01*
X147418000Y-77554703D01*
X147418000Y-77385297D01*
X147384951Y-77219147D01*
X147320122Y-77062637D01*
X147226005Y-76921782D01*
X147106218Y-76801995D01*
X146965363Y-76707878D01*
X146808853Y-76643049D01*
X146642703Y-76610000D01*
X146473297Y-76610000D01*
X146307147Y-76643049D01*
X146150637Y-76707878D01*
X146050000Y-76775122D01*
X145949363Y-76707878D01*
X145792853Y-76643049D01*
X145626703Y-76610000D01*
X145457297Y-76610000D01*
X145291147Y-76643049D01*
X145134637Y-76707878D01*
X144993782Y-76801995D01*
X144873995Y-76921782D01*
X144779878Y-77062637D01*
X144715049Y-77219147D01*
X144682000Y-77385297D01*
X118931500Y-77385297D01*
X118931500Y-76791523D01*
X118918695Y-76661510D01*
X118868089Y-76494687D01*
X118785911Y-76340941D01*
X118675317Y-76206183D01*
X118540558Y-76095589D01*
X118386812Y-76013411D01*
X118219989Y-75962805D01*
X118046500Y-75945718D01*
X117873010Y-75962805D01*
X117706187Y-76013411D01*
X117552441Y-76095589D01*
X117417683Y-76206183D01*
X117307089Y-76340942D01*
X117224911Y-76494688D01*
X117174305Y-76661511D01*
X117161500Y-76791524D01*
X102408850Y-76791524D01*
X102612349Y-76655550D01*
X102944550Y-76323349D01*
X103205560Y-75932721D01*
X103385346Y-75498679D01*
X103477000Y-75037902D01*
X103477000Y-74568098D01*
X103385346Y-74107321D01*
X103205560Y-73673279D01*
X103005787Y-73374298D01*
X107063600Y-73374298D01*
X107063600Y-73844102D01*
X107155254Y-74304879D01*
X107335040Y-74738921D01*
X107596050Y-75129549D01*
X107928251Y-75461750D01*
X108318879Y-75722760D01*
X108752921Y-75902546D01*
X109213698Y-75994200D01*
X109683502Y-75994200D01*
X110144279Y-75902546D01*
X110578321Y-75722760D01*
X110968949Y-75461750D01*
X111301150Y-75129549D01*
X111562160Y-74738921D01*
X111643438Y-74542698D01*
X119281000Y-74542698D01*
X119281000Y-75012502D01*
X119372654Y-75473279D01*
X119552440Y-75907321D01*
X119813450Y-76297949D01*
X120145651Y-76630150D01*
X120536279Y-76891160D01*
X120970321Y-77070946D01*
X121431098Y-77162600D01*
X121900902Y-77162600D01*
X122361679Y-77070946D01*
X122795721Y-76891160D01*
X123186349Y-76630150D01*
X123518550Y-76297949D01*
X123779560Y-75907321D01*
X123959346Y-75473279D01*
X124051000Y-75012502D01*
X124051000Y-74542698D01*
X123959346Y-74081921D01*
X123779560Y-73647879D01*
X123579787Y-73348898D01*
X127637600Y-73348898D01*
X127637600Y-73818702D01*
X127729254Y-74279479D01*
X127909040Y-74713521D01*
X128170050Y-75104149D01*
X128502251Y-75436350D01*
X128892879Y-75697360D01*
X129326921Y-75877146D01*
X129787698Y-75968800D01*
X130257502Y-75968800D01*
X130718279Y-75877146D01*
X131152321Y-75697360D01*
X131542949Y-75436350D01*
X131875150Y-75104149D01*
X132136160Y-74713521D01*
X132206917Y-74542698D01*
X139855000Y-74542698D01*
X139855000Y-75012502D01*
X139946654Y-75473279D01*
X140126440Y-75907321D01*
X140387450Y-76297949D01*
X140719651Y-76630150D01*
X141110279Y-76891160D01*
X141544321Y-77070946D01*
X142005098Y-77162600D01*
X142474902Y-77162600D01*
X142935679Y-77070946D01*
X143369721Y-76891160D01*
X143760349Y-76630150D01*
X144092550Y-76297949D01*
X144353560Y-75907321D01*
X144533346Y-75473279D01*
X144625000Y-75012502D01*
X144625000Y-74542698D01*
X144533346Y-74081921D01*
X144353560Y-73647879D01*
X144153787Y-73348898D01*
X148211600Y-73348898D01*
X148211600Y-73818702D01*
X148303254Y-74279479D01*
X148483040Y-74713521D01*
X148744050Y-75104149D01*
X149076251Y-75436350D01*
X149466879Y-75697360D01*
X149900921Y-75877146D01*
X150361698Y-75968800D01*
X150831502Y-75968800D01*
X151292279Y-75877146D01*
X151726321Y-75697360D01*
X152116949Y-75436350D01*
X152449150Y-75104149D01*
X152710160Y-74713521D01*
X152780917Y-74542698D01*
X160429000Y-74542698D01*
X160429000Y-75012502D01*
X160520654Y-75473279D01*
X160700440Y-75907321D01*
X160961450Y-76297949D01*
X161293651Y-76630150D01*
X161684279Y-76891160D01*
X162118321Y-77070946D01*
X162579098Y-77162600D01*
X163048902Y-77162600D01*
X163509679Y-77070946D01*
X163943721Y-76891160D01*
X164334349Y-76630150D01*
X164666550Y-76297949D01*
X164927560Y-75907321D01*
X165107346Y-75473279D01*
X165199000Y-75012502D01*
X165199000Y-74542698D01*
X165107346Y-74081921D01*
X164927560Y-73647879D01*
X164727787Y-73348898D01*
X168785600Y-73348898D01*
X168785600Y-73818702D01*
X168877254Y-74279479D01*
X169057040Y-74713521D01*
X169318050Y-75104149D01*
X169650251Y-75436350D01*
X170040879Y-75697360D01*
X170474921Y-75877146D01*
X170935698Y-75968800D01*
X171405502Y-75968800D01*
X171866279Y-75877146D01*
X172300321Y-75697360D01*
X172690949Y-75436350D01*
X173023150Y-75104149D01*
X173284160Y-74713521D01*
X173463946Y-74279479D01*
X173555600Y-73818702D01*
X173555600Y-73348898D01*
X173463946Y-72888121D01*
X173284160Y-72454079D01*
X173023150Y-72063451D01*
X172690949Y-71731250D01*
X172300321Y-71470240D01*
X171866279Y-71290454D01*
X171405502Y-71198800D01*
X170935698Y-71198800D01*
X170474921Y-71290454D01*
X170040879Y-71470240D01*
X169650251Y-71731250D01*
X169318050Y-72063451D01*
X169057040Y-72454079D01*
X168877254Y-72888121D01*
X168785600Y-73348898D01*
X164727787Y-73348898D01*
X164666550Y-73257251D01*
X164334349Y-72925050D01*
X163943721Y-72664040D01*
X163509679Y-72484254D01*
X163048902Y-72392600D01*
X162579098Y-72392600D01*
X162118321Y-72484254D01*
X161684279Y-72664040D01*
X161293651Y-72925050D01*
X160961450Y-73257251D01*
X160700440Y-73647879D01*
X160520654Y-74081921D01*
X160429000Y-74542698D01*
X152780917Y-74542698D01*
X152889946Y-74279479D01*
X152981600Y-73818702D01*
X152981600Y-73348898D01*
X152889946Y-72888121D01*
X152710160Y-72454079D01*
X152449150Y-72063451D01*
X152116949Y-71731250D01*
X151726321Y-71470240D01*
X151292279Y-71290454D01*
X150831502Y-71198800D01*
X150361698Y-71198800D01*
X149900921Y-71290454D01*
X149466879Y-71470240D01*
X149076251Y-71731250D01*
X148744050Y-72063451D01*
X148483040Y-72454079D01*
X148303254Y-72888121D01*
X148211600Y-73348898D01*
X144153787Y-73348898D01*
X144092550Y-73257251D01*
X143760349Y-72925050D01*
X143369721Y-72664040D01*
X142935679Y-72484254D01*
X142474902Y-72392600D01*
X142005098Y-72392600D01*
X141544321Y-72484254D01*
X141110279Y-72664040D01*
X140719651Y-72925050D01*
X140387450Y-73257251D01*
X140126440Y-73647879D01*
X139946654Y-74081921D01*
X139855000Y-74542698D01*
X132206917Y-74542698D01*
X132315946Y-74279479D01*
X132407600Y-73818702D01*
X132407600Y-73348898D01*
X132315946Y-72888121D01*
X132136160Y-72454079D01*
X131875150Y-72063451D01*
X131542949Y-71731250D01*
X131152321Y-71470240D01*
X130718279Y-71290454D01*
X130257502Y-71198800D01*
X129787698Y-71198800D01*
X129326921Y-71290454D01*
X128892879Y-71470240D01*
X128502251Y-71731250D01*
X128170050Y-72063451D01*
X127909040Y-72454079D01*
X127729254Y-72888121D01*
X127637600Y-73348898D01*
X123579787Y-73348898D01*
X123518550Y-73257251D01*
X123186349Y-72925050D01*
X122795721Y-72664040D01*
X122361679Y-72484254D01*
X121900902Y-72392600D01*
X121431098Y-72392600D01*
X120970321Y-72484254D01*
X120536279Y-72664040D01*
X120145651Y-72925050D01*
X119813450Y-73257251D01*
X119552440Y-73647879D01*
X119372654Y-74081921D01*
X119281000Y-74542698D01*
X111643438Y-74542698D01*
X111741946Y-74304879D01*
X111833600Y-73844102D01*
X111833600Y-73374298D01*
X111741946Y-72913521D01*
X111562160Y-72479479D01*
X111417516Y-72263004D01*
X115061719Y-72263004D01*
X115078805Y-72436494D01*
X115129412Y-72603317D01*
X115211590Y-72757063D01*
X115322183Y-72891821D01*
X115456941Y-73002414D01*
X115610687Y-73084592D01*
X115777510Y-73135199D01*
X115951000Y-73152285D01*
X115994510Y-73148000D01*
X119169477Y-73148000D01*
X119299490Y-73135195D01*
X119466313Y-73084589D01*
X119620059Y-73002411D01*
X119754817Y-72891817D01*
X119865411Y-72757059D01*
X119947589Y-72603313D01*
X119998195Y-72436490D01*
X120015282Y-72263000D01*
X119998195Y-72089510D01*
X119947589Y-71922687D01*
X119865411Y-71768941D01*
X119754817Y-71634183D01*
X119620059Y-71523589D01*
X119466313Y-71441411D01*
X119299490Y-71390805D01*
X119169477Y-71378000D01*
X115994473Y-71378000D01*
X115951004Y-71373719D01*
X115907535Y-71378000D01*
X115907527Y-71378000D01*
X115777514Y-71390805D01*
X115610691Y-71441411D01*
X115456945Y-71523589D01*
X115322187Y-71634183D01*
X115294470Y-71667956D01*
X115294468Y-71667958D01*
X115256037Y-71714786D01*
X115242526Y-71731250D01*
X115211590Y-71768945D01*
X115129412Y-71922691D01*
X115078805Y-72089514D01*
X115061719Y-72263004D01*
X111417516Y-72263004D01*
X111301150Y-72088851D01*
X110968949Y-71756650D01*
X110578321Y-71495640D01*
X110144279Y-71315854D01*
X109683502Y-71224200D01*
X109213698Y-71224200D01*
X108752921Y-71315854D01*
X108318879Y-71495640D01*
X107928251Y-71756650D01*
X107596050Y-72088851D01*
X107335040Y-72479479D01*
X107155254Y-72913521D01*
X107063600Y-73374298D01*
X103005787Y-73374298D01*
X102944550Y-73282651D01*
X102612349Y-72950450D01*
X102221721Y-72689440D01*
X101787679Y-72509654D01*
X101326902Y-72418000D01*
X100857098Y-72418000D01*
X100396321Y-72509654D01*
X99962279Y-72689440D01*
X99571651Y-72950450D01*
X99239450Y-73282651D01*
X98978440Y-73673279D01*
X98798654Y-74107321D01*
X98707000Y-74568098D01*
X80543000Y-74568098D01*
X80543000Y-69283344D01*
X101645400Y-69283344D01*
X101645400Y-69654656D01*
X101717839Y-70018834D01*
X101859934Y-70361882D01*
X102066225Y-70670618D01*
X102328782Y-70933175D01*
X102637518Y-71139466D01*
X102980566Y-71281561D01*
X103344744Y-71354000D01*
X103716056Y-71354000D01*
X104080234Y-71281561D01*
X104423282Y-71139466D01*
X104732018Y-70933175D01*
X104994575Y-70670618D01*
X105200866Y-70361882D01*
X105283000Y-70163593D01*
X105365134Y-70361882D01*
X105571425Y-70670618D01*
X105833982Y-70933175D01*
X106142718Y-71139466D01*
X106485766Y-71281561D01*
X106849944Y-71354000D01*
X107221256Y-71354000D01*
X107585434Y-71281561D01*
X107928482Y-71139466D01*
X108237218Y-70933175D01*
X108499775Y-70670618D01*
X108706066Y-70361882D01*
X108848161Y-70018834D01*
X108920600Y-69654656D01*
X108920600Y-69283344D01*
X108915548Y-69257944D01*
X122219400Y-69257944D01*
X122219400Y-69629256D01*
X122291839Y-69993434D01*
X122433934Y-70336482D01*
X122640225Y-70645218D01*
X122902782Y-70907775D01*
X123211518Y-71114066D01*
X123554566Y-71256161D01*
X123918744Y-71328600D01*
X124290056Y-71328600D01*
X124654234Y-71256161D01*
X124997282Y-71114066D01*
X125306018Y-70907775D01*
X125568575Y-70645218D01*
X125774866Y-70336482D01*
X125857000Y-70138193D01*
X125939134Y-70336482D01*
X126145425Y-70645218D01*
X126407982Y-70907775D01*
X126716718Y-71114066D01*
X127059766Y-71256161D01*
X127423944Y-71328600D01*
X127795256Y-71328600D01*
X128159434Y-71256161D01*
X128502482Y-71114066D01*
X128811218Y-70907775D01*
X129073775Y-70645218D01*
X129280066Y-70336482D01*
X129422161Y-69993434D01*
X129494600Y-69629256D01*
X129494600Y-69257944D01*
X142793400Y-69257944D01*
X142793400Y-69629256D01*
X142865839Y-69993434D01*
X143007934Y-70336482D01*
X143214225Y-70645218D01*
X143476782Y-70907775D01*
X143785518Y-71114066D01*
X144128566Y-71256161D01*
X144492744Y-71328600D01*
X144864056Y-71328600D01*
X145228234Y-71256161D01*
X145571282Y-71114066D01*
X145880018Y-70907775D01*
X146142575Y-70645218D01*
X146348866Y-70336482D01*
X146431000Y-70138193D01*
X146513134Y-70336482D01*
X146719425Y-70645218D01*
X146981982Y-70907775D01*
X147290718Y-71114066D01*
X147633766Y-71256161D01*
X147997944Y-71328600D01*
X148369256Y-71328600D01*
X148733434Y-71256161D01*
X149076482Y-71114066D01*
X149385218Y-70907775D01*
X149647775Y-70645218D01*
X149854066Y-70336482D01*
X149996161Y-69993434D01*
X150068600Y-69629256D01*
X150068600Y-69257944D01*
X163367400Y-69257944D01*
X163367400Y-69629256D01*
X163439839Y-69993434D01*
X163581934Y-70336482D01*
X163788225Y-70645218D01*
X164050782Y-70907775D01*
X164359518Y-71114066D01*
X164702566Y-71256161D01*
X165066744Y-71328600D01*
X165438056Y-71328600D01*
X165802234Y-71256161D01*
X166145282Y-71114066D01*
X166454018Y-70907775D01*
X166716575Y-70645218D01*
X166922866Y-70336482D01*
X167005000Y-70138193D01*
X167087134Y-70336482D01*
X167293425Y-70645218D01*
X167555982Y-70907775D01*
X167864718Y-71114066D01*
X168207766Y-71256161D01*
X168571944Y-71328600D01*
X168943256Y-71328600D01*
X169307434Y-71256161D01*
X169650482Y-71114066D01*
X169959218Y-70907775D01*
X170221775Y-70645218D01*
X170428066Y-70336482D01*
X170570161Y-69993434D01*
X170642600Y-69629256D01*
X170642600Y-69257944D01*
X170570161Y-68893766D01*
X170428066Y-68550718D01*
X170221775Y-68241982D01*
X169959218Y-67979425D01*
X169650482Y-67773134D01*
X169307434Y-67631039D01*
X168943256Y-67558600D01*
X168571944Y-67558600D01*
X168207766Y-67631039D01*
X167864718Y-67773134D01*
X167555982Y-67979425D01*
X167293425Y-68241982D01*
X167087134Y-68550718D01*
X167005000Y-68749007D01*
X166922866Y-68550718D01*
X166716575Y-68241982D01*
X166454018Y-67979425D01*
X166145282Y-67773134D01*
X165802234Y-67631039D01*
X165438056Y-67558600D01*
X165066744Y-67558600D01*
X164702566Y-67631039D01*
X164359518Y-67773134D01*
X164050782Y-67979425D01*
X163788225Y-68241982D01*
X163581934Y-68550718D01*
X163439839Y-68893766D01*
X163367400Y-69257944D01*
X150068600Y-69257944D01*
X149996161Y-68893766D01*
X149854066Y-68550718D01*
X149647775Y-68241982D01*
X149385218Y-67979425D01*
X149076482Y-67773134D01*
X148733434Y-67631039D01*
X148369256Y-67558600D01*
X147997944Y-67558600D01*
X147633766Y-67631039D01*
X147290718Y-67773134D01*
X146981982Y-67979425D01*
X146719425Y-68241982D01*
X146513134Y-68550718D01*
X146431000Y-68749007D01*
X146348866Y-68550718D01*
X146142575Y-68241982D01*
X145880018Y-67979425D01*
X145571282Y-67773134D01*
X145228234Y-67631039D01*
X144864056Y-67558600D01*
X144492744Y-67558600D01*
X144128566Y-67631039D01*
X143785518Y-67773134D01*
X143476782Y-67979425D01*
X143214225Y-68241982D01*
X143007934Y-68550718D01*
X142865839Y-68893766D01*
X142793400Y-69257944D01*
X129494600Y-69257944D01*
X129422161Y-68893766D01*
X129280066Y-68550718D01*
X129073775Y-68241982D01*
X128811218Y-67979425D01*
X128502482Y-67773134D01*
X128159434Y-67631039D01*
X127795256Y-67558600D01*
X127423944Y-67558600D01*
X127059766Y-67631039D01*
X126716718Y-67773134D01*
X126407982Y-67979425D01*
X126145425Y-68241982D01*
X125939134Y-68550718D01*
X125857000Y-68749007D01*
X125774866Y-68550718D01*
X125568575Y-68241982D01*
X125306018Y-67979425D01*
X124997282Y-67773134D01*
X124654234Y-67631039D01*
X124290056Y-67558600D01*
X123918744Y-67558600D01*
X123554566Y-67631039D01*
X123211518Y-67773134D01*
X122902782Y-67979425D01*
X122640225Y-68241982D01*
X122433934Y-68550718D01*
X122291839Y-68893766D01*
X122219400Y-69257944D01*
X108915548Y-69257944D01*
X108848161Y-68919166D01*
X108706066Y-68576118D01*
X108499775Y-68267382D01*
X108237218Y-68004825D01*
X107928482Y-67798534D01*
X107585434Y-67656439D01*
X107221256Y-67584000D01*
X106849944Y-67584000D01*
X106485766Y-67656439D01*
X106142718Y-67798534D01*
X105833982Y-68004825D01*
X105571425Y-68267382D01*
X105365134Y-68576118D01*
X105283000Y-68774407D01*
X105200866Y-68576118D01*
X104994575Y-68267382D01*
X104732018Y-68004825D01*
X104423282Y-67798534D01*
X104080234Y-67656439D01*
X103716056Y-67584000D01*
X103344744Y-67584000D01*
X102980566Y-67656439D01*
X102637518Y-67798534D01*
X102328782Y-68004825D01*
X102066225Y-68267382D01*
X101859934Y-68576118D01*
X101717839Y-68919166D01*
X101645400Y-69283344D01*
X80543000Y-69283344D01*
X80543000Y-61448221D01*
X95909000Y-61448221D01*
X95909000Y-61868779D01*
X95991047Y-62281256D01*
X96151988Y-62669802D01*
X96385637Y-63019483D01*
X96683017Y-63316863D01*
X97032698Y-63550512D01*
X97421244Y-63711453D01*
X97833721Y-63793500D01*
X98254279Y-63793500D01*
X98666756Y-63711453D01*
X99055302Y-63550512D01*
X99404983Y-63316863D01*
X99702363Y-63019483D01*
X99936012Y-62669802D01*
X100096953Y-62281256D01*
X100179000Y-61868779D01*
X100179000Y-61448221D01*
X116483000Y-61448221D01*
X116483000Y-61868779D01*
X116565047Y-62281256D01*
X116725988Y-62669802D01*
X116959637Y-63019483D01*
X117257017Y-63316863D01*
X117606698Y-63550512D01*
X117995244Y-63711453D01*
X118407721Y-63793500D01*
X118828279Y-63793500D01*
X119240756Y-63711453D01*
X119629302Y-63550512D01*
X119978983Y-63316863D01*
X120276363Y-63019483D01*
X120510012Y-62669802D01*
X120670953Y-62281256D01*
X120753000Y-61868779D01*
X120753000Y-61448221D01*
X137057000Y-61448221D01*
X137057000Y-61868779D01*
X137139047Y-62281256D01*
X137299988Y-62669802D01*
X137533637Y-63019483D01*
X137831017Y-63316863D01*
X138180698Y-63550512D01*
X138569244Y-63711453D01*
X138981721Y-63793500D01*
X139402279Y-63793500D01*
X139814756Y-63711453D01*
X140203302Y-63550512D01*
X140552983Y-63316863D01*
X140850363Y-63019483D01*
X141084012Y-62669802D01*
X141244953Y-62281256D01*
X141327000Y-61868779D01*
X141327000Y-61448221D01*
X141314370Y-61384721D01*
X157631000Y-61384721D01*
X157631000Y-61805279D01*
X157713047Y-62217756D01*
X157873988Y-62606302D01*
X158107637Y-62955983D01*
X158405017Y-63253363D01*
X158754698Y-63487012D01*
X159143244Y-63647953D01*
X159555721Y-63730000D01*
X159976279Y-63730000D01*
X160388756Y-63647953D01*
X160777302Y-63487012D01*
X161126983Y-63253363D01*
X161424363Y-62955983D01*
X161658012Y-62606302D01*
X161710328Y-62480000D01*
X164479422Y-62480000D01*
X165838453Y-63839032D01*
X165939440Y-63921910D01*
X166093186Y-64004088D01*
X166260009Y-64054694D01*
X166433499Y-64071781D01*
X166606990Y-64054694D01*
X166773813Y-64004088D01*
X166927559Y-63921910D01*
X167062317Y-63811317D01*
X167172910Y-63676559D01*
X167255088Y-63522813D01*
X167305694Y-63355990D01*
X167322781Y-63182499D01*
X167305694Y-63009009D01*
X167255088Y-62842186D01*
X167172910Y-62688440D01*
X167090032Y-62587453D01*
X165502534Y-60999956D01*
X165474817Y-60966183D01*
X165340059Y-60855589D01*
X165186313Y-60773411D01*
X165019490Y-60722805D01*
X164889477Y-60710000D01*
X164889469Y-60710000D01*
X164846000Y-60705719D01*
X164802531Y-60710000D01*
X161710328Y-60710000D01*
X161658012Y-60583698D01*
X161627205Y-60537592D01*
X161714721Y-60555000D01*
X162135279Y-60555000D01*
X162547756Y-60472953D01*
X162936302Y-60312012D01*
X163285983Y-60078363D01*
X163583363Y-59780983D01*
X163817012Y-59431302D01*
X163977953Y-59042756D01*
X164048120Y-58690000D01*
X186043428Y-58690000D01*
X186043428Y-60690000D01*
X186070099Y-60960799D01*
X186149089Y-61221192D01*
X186277360Y-61461171D01*
X186449985Y-61671515D01*
X186660329Y-61844140D01*
X186900308Y-61972411D01*
X187160701Y-62051401D01*
X187431500Y-62078072D01*
X188931500Y-62078072D01*
X189202299Y-62051401D01*
X189462692Y-61972411D01*
X189702671Y-61844140D01*
X189913015Y-61671515D01*
X190085640Y-61461171D01*
X190213911Y-61221192D01*
X190292901Y-60960799D01*
X190319572Y-60690000D01*
X190319572Y-58690000D01*
X190292901Y-58419201D01*
X190213911Y-58158808D01*
X190085640Y-57918829D01*
X189913015Y-57708485D01*
X189702671Y-57535860D01*
X189462692Y-57407589D01*
X189202299Y-57328599D01*
X188931500Y-57301928D01*
X187431500Y-57301928D01*
X187160701Y-57328599D01*
X186900308Y-57407589D01*
X186660329Y-57535860D01*
X186449985Y-57708485D01*
X186277360Y-57918829D01*
X186149089Y-58158808D01*
X186070099Y-58419201D01*
X186043428Y-58690000D01*
X164048120Y-58690000D01*
X164060000Y-58630279D01*
X164060000Y-58209721D01*
X163977953Y-57797244D01*
X163817012Y-57408698D01*
X163583363Y-57059017D01*
X163285983Y-56761637D01*
X162936302Y-56527988D01*
X162547756Y-56367047D01*
X162135279Y-56285000D01*
X161714721Y-56285000D01*
X161302244Y-56367047D01*
X160913698Y-56527988D01*
X160564017Y-56761637D01*
X160266637Y-57059017D01*
X160032988Y-57408698D01*
X159872047Y-57797244D01*
X159790000Y-58209721D01*
X159790000Y-58630279D01*
X159872047Y-59042756D01*
X160032988Y-59431302D01*
X160063795Y-59477408D01*
X159976279Y-59460000D01*
X159555721Y-59460000D01*
X159143244Y-59542047D01*
X158754698Y-59702988D01*
X158405017Y-59936637D01*
X158107637Y-60234017D01*
X157873988Y-60583698D01*
X157713047Y-60972244D01*
X157631000Y-61384721D01*
X141314370Y-61384721D01*
X141244953Y-61035744D01*
X141084012Y-60647198D01*
X141053205Y-60601092D01*
X141140721Y-60618500D01*
X141561279Y-60618500D01*
X141973756Y-60536453D01*
X142362302Y-60375512D01*
X142711983Y-60141863D01*
X143009363Y-59844483D01*
X143243012Y-59494802D01*
X143403953Y-59106256D01*
X143486000Y-58693779D01*
X143486000Y-58273221D01*
X143403953Y-57860744D01*
X143243012Y-57472198D01*
X143009363Y-57122517D01*
X142711983Y-56825137D01*
X142362302Y-56591488D01*
X141973756Y-56430547D01*
X141561279Y-56348500D01*
X141140721Y-56348500D01*
X140728244Y-56430547D01*
X140339698Y-56591488D01*
X139990017Y-56825137D01*
X139692637Y-57122517D01*
X139458988Y-57472198D01*
X139298047Y-57860744D01*
X139216000Y-58273221D01*
X139216000Y-58693779D01*
X139298047Y-59106256D01*
X139458988Y-59494802D01*
X139489795Y-59540908D01*
X139402279Y-59523500D01*
X138981721Y-59523500D01*
X138569244Y-59605547D01*
X138180698Y-59766488D01*
X137831017Y-60000137D01*
X137533637Y-60297517D01*
X137299988Y-60647198D01*
X137139047Y-61035744D01*
X137057000Y-61448221D01*
X120753000Y-61448221D01*
X120670953Y-61035744D01*
X120510012Y-60647198D01*
X120479205Y-60601092D01*
X120566721Y-60618500D01*
X120987279Y-60618500D01*
X121399756Y-60536453D01*
X121788302Y-60375512D01*
X122137983Y-60141863D01*
X122435363Y-59844483D01*
X122669012Y-59494802D01*
X122829953Y-59106256D01*
X122912000Y-58693779D01*
X122912000Y-58273221D01*
X122829953Y-57860744D01*
X122669012Y-57472198D01*
X122435363Y-57122517D01*
X122137983Y-56825137D01*
X121788302Y-56591488D01*
X121399756Y-56430547D01*
X120987279Y-56348500D01*
X120566721Y-56348500D01*
X120154244Y-56430547D01*
X119765698Y-56591488D01*
X119416017Y-56825137D01*
X119118637Y-57122517D01*
X118884988Y-57472198D01*
X118724047Y-57860744D01*
X118642000Y-58273221D01*
X118642000Y-58693779D01*
X118724047Y-59106256D01*
X118884988Y-59494802D01*
X118915795Y-59540908D01*
X118828279Y-59523500D01*
X118407721Y-59523500D01*
X117995244Y-59605547D01*
X117606698Y-59766488D01*
X117257017Y-60000137D01*
X116959637Y-60297517D01*
X116725988Y-60647198D01*
X116565047Y-61035744D01*
X116483000Y-61448221D01*
X100179000Y-61448221D01*
X100096953Y-61035744D01*
X99936012Y-60647198D01*
X99905205Y-60601092D01*
X99992721Y-60618500D01*
X100413279Y-60618500D01*
X100825756Y-60536453D01*
X101214302Y-60375512D01*
X101563983Y-60141863D01*
X101861363Y-59844483D01*
X102095012Y-59494802D01*
X102255953Y-59106256D01*
X102338000Y-58693779D01*
X102338000Y-58273221D01*
X102255953Y-57860744D01*
X102095012Y-57472198D01*
X101861363Y-57122517D01*
X101563983Y-56825137D01*
X101214302Y-56591488D01*
X100825756Y-56430547D01*
X100413279Y-56348500D01*
X99992721Y-56348500D01*
X99580244Y-56430547D01*
X99191698Y-56591488D01*
X98842017Y-56825137D01*
X98544637Y-57122517D01*
X98310988Y-57472198D01*
X98150047Y-57860744D01*
X98068000Y-58273221D01*
X98068000Y-58693779D01*
X98150047Y-59106256D01*
X98310988Y-59494802D01*
X98341795Y-59540908D01*
X98254279Y-59523500D01*
X97833721Y-59523500D01*
X97421244Y-59605547D01*
X97032698Y-59766488D01*
X96683017Y-60000137D01*
X96385637Y-60297517D01*
X96151988Y-60647198D01*
X95991047Y-61035744D01*
X95909000Y-61448221D01*
X80543000Y-61448221D01*
X80543000Y-51972467D01*
X96409000Y-51972467D01*
X96409000Y-52294533D01*
X96471832Y-52610412D01*
X96595082Y-52907963D01*
X96774013Y-53175752D01*
X97001748Y-53403487D01*
X97269537Y-53582418D01*
X97567088Y-53705668D01*
X97882967Y-53768500D01*
X98205033Y-53768500D01*
X98520912Y-53705668D01*
X98818463Y-53582418D01*
X99086252Y-53403487D01*
X99313987Y-53175752D01*
X99492918Y-52907963D01*
X99616168Y-52610412D01*
X99679000Y-52294533D01*
X99679000Y-51972467D01*
X99616168Y-51656588D01*
X99492918Y-51359037D01*
X99313987Y-51091248D01*
X99086252Y-50863513D01*
X98818463Y-50684582D01*
X98520912Y-50561332D01*
X98205033Y-50498500D01*
X97882967Y-50498500D01*
X97567088Y-50561332D01*
X97269537Y-50684582D01*
X97001748Y-50863513D01*
X96774013Y-51091248D01*
X96595082Y-51359037D01*
X96471832Y-51656588D01*
X96409000Y-51972467D01*
X80543000Y-51972467D01*
X80543000Y-51327380D01*
X80791381Y-51079000D01*
X85946581Y-51079000D01*
X85979000Y-51082193D01*
X86011419Y-51079000D01*
X86108383Y-51069450D01*
X86232793Y-51031710D01*
X86347450Y-50970425D01*
X86447948Y-50887948D01*
X86530425Y-50787450D01*
X86591710Y-50672793D01*
X86629450Y-50548383D01*
X86642193Y-50419000D01*
X86639000Y-50386581D01*
X86639000Y-48508499D01*
X102046928Y-48508499D01*
X102046928Y-49408501D01*
X102063992Y-49581755D01*
X102114528Y-49748351D01*
X102196595Y-49901887D01*
X102307038Y-50036462D01*
X102441613Y-50146905D01*
X102595149Y-50228972D01*
X102761745Y-50279508D01*
X102934999Y-50296572D01*
X103585001Y-50296572D01*
X103758255Y-50279508D01*
X103881877Y-50242008D01*
X104084500Y-50444632D01*
X104084500Y-51212713D01*
X104075320Y-51215498D01*
X103965006Y-51274463D01*
X103868315Y-51353815D01*
X103788963Y-51450506D01*
X103729998Y-51560820D01*
X103693688Y-51680518D01*
X103681428Y-51805000D01*
X103681428Y-53605000D01*
X103693688Y-53729482D01*
X103729998Y-53849180D01*
X103788963Y-53959494D01*
X103868315Y-54056185D01*
X103965006Y-54135537D01*
X104075320Y-54194502D01*
X104093627Y-54200056D01*
X104027188Y-54266495D01*
X103859201Y-54517905D01*
X103743489Y-54797257D01*
X103684500Y-55093816D01*
X103684500Y-55396184D01*
X103743489Y-55692743D01*
X103859201Y-55972095D01*
X104027188Y-56223505D01*
X104240995Y-56437312D01*
X104492405Y-56605299D01*
X104771757Y-56721011D01*
X105068316Y-56780000D01*
X105370684Y-56780000D01*
X105667243Y-56721011D01*
X105946595Y-56605299D01*
X106198005Y-56437312D01*
X106411812Y-56223505D01*
X106579799Y-55972095D01*
X106695511Y-55692743D01*
X106754500Y-55396184D01*
X106754500Y-55093816D01*
X106695511Y-54797257D01*
X106579799Y-54517905D01*
X106411812Y-54266495D01*
X106345373Y-54200056D01*
X106363680Y-54194502D01*
X106473994Y-54135537D01*
X106570685Y-54056185D01*
X106650037Y-53959494D01*
X106709002Y-53849180D01*
X106745312Y-53729482D01*
X106757572Y-53605000D01*
X106757572Y-51972467D01*
X107839000Y-51972467D01*
X107839000Y-52294533D01*
X107901832Y-52610412D01*
X108025082Y-52907963D01*
X108204013Y-53175752D01*
X108431748Y-53403487D01*
X108699537Y-53582418D01*
X108997088Y-53705668D01*
X109312967Y-53768500D01*
X109635033Y-53768500D01*
X109950912Y-53705668D01*
X110248463Y-53582418D01*
X110516252Y-53403487D01*
X110743987Y-53175752D01*
X110922918Y-52907963D01*
X111046168Y-52610412D01*
X111109000Y-52294533D01*
X111109000Y-51972467D01*
X116983000Y-51972467D01*
X116983000Y-52294533D01*
X117045832Y-52610412D01*
X117169082Y-52907963D01*
X117348013Y-53175752D01*
X117575748Y-53403487D01*
X117843537Y-53582418D01*
X118141088Y-53705668D01*
X118456967Y-53768500D01*
X118779033Y-53768500D01*
X119094912Y-53705668D01*
X119392463Y-53582418D01*
X119660252Y-53403487D01*
X119887987Y-53175752D01*
X120066918Y-52907963D01*
X120190168Y-52610412D01*
X120253000Y-52294533D01*
X120253000Y-51972467D01*
X120190168Y-51656588D01*
X120066918Y-51359037D01*
X119887987Y-51091248D01*
X119660252Y-50863513D01*
X119392463Y-50684582D01*
X119094912Y-50561332D01*
X118779033Y-50498500D01*
X118456967Y-50498500D01*
X118141088Y-50561332D01*
X117843537Y-50684582D01*
X117575748Y-50863513D01*
X117348013Y-51091248D01*
X117169082Y-51359037D01*
X117045832Y-51656588D01*
X116983000Y-51972467D01*
X111109000Y-51972467D01*
X111046168Y-51656588D01*
X110922918Y-51359037D01*
X110743987Y-51091248D01*
X110516252Y-50863513D01*
X110248463Y-50684582D01*
X109950912Y-50561332D01*
X109635033Y-50498500D01*
X109312967Y-50498500D01*
X108997088Y-50561332D01*
X108699537Y-50684582D01*
X108431748Y-50863513D01*
X108204013Y-51091248D01*
X108025082Y-51359037D01*
X107901832Y-51656588D01*
X107839000Y-51972467D01*
X106757572Y-51972467D01*
X106757572Y-51805000D01*
X106745312Y-51680518D01*
X106709002Y-51560820D01*
X106650037Y-51450506D01*
X106570685Y-51353815D01*
X106473994Y-51274463D01*
X106363680Y-51215498D01*
X106354500Y-51212713D01*
X106354500Y-50030251D01*
X106359991Y-49974500D01*
X106347068Y-49843284D01*
X106338077Y-49752001D01*
X106273176Y-49538053D01*
X106167784Y-49340877D01*
X106025949Y-49168051D01*
X105982640Y-49132508D01*
X105358631Y-48508499D01*
X122684428Y-48508499D01*
X122684428Y-49408501D01*
X122701492Y-49581755D01*
X122752028Y-49748351D01*
X122834095Y-49901887D01*
X122944538Y-50036462D01*
X123079113Y-50146905D01*
X123232649Y-50228972D01*
X123399245Y-50279508D01*
X123572499Y-50296572D01*
X124222501Y-50296572D01*
X124253398Y-50293529D01*
X124722000Y-50762132D01*
X124722000Y-51339713D01*
X124712820Y-51342498D01*
X124602506Y-51401463D01*
X124505815Y-51480815D01*
X124426463Y-51577506D01*
X124367498Y-51687820D01*
X124331188Y-51807518D01*
X124318928Y-51932000D01*
X124318928Y-53732000D01*
X124331188Y-53856482D01*
X124367498Y-53976180D01*
X124426463Y-54086494D01*
X124505815Y-54183185D01*
X124602506Y-54262537D01*
X124712820Y-54321502D01*
X124731127Y-54327056D01*
X124664688Y-54393495D01*
X124496701Y-54644905D01*
X124380989Y-54924257D01*
X124322000Y-55220816D01*
X124322000Y-55523184D01*
X124380989Y-55819743D01*
X124496701Y-56099095D01*
X124664688Y-56350505D01*
X124878495Y-56564312D01*
X125129905Y-56732299D01*
X125409257Y-56848011D01*
X125705816Y-56907000D01*
X126008184Y-56907000D01*
X126304743Y-56848011D01*
X126584095Y-56732299D01*
X126835505Y-56564312D01*
X127049312Y-56350505D01*
X127217299Y-56099095D01*
X127333011Y-55819743D01*
X127392000Y-55523184D01*
X127392000Y-55220816D01*
X127333011Y-54924257D01*
X127217299Y-54644905D01*
X127049312Y-54393495D01*
X126982873Y-54327056D01*
X127001180Y-54321502D01*
X127111494Y-54262537D01*
X127208185Y-54183185D01*
X127287537Y-54086494D01*
X127346502Y-53976180D01*
X127382812Y-53856482D01*
X127395072Y-53732000D01*
X127395072Y-51972467D01*
X128413000Y-51972467D01*
X128413000Y-52294533D01*
X128475832Y-52610412D01*
X128599082Y-52907963D01*
X128778013Y-53175752D01*
X129005748Y-53403487D01*
X129273537Y-53582418D01*
X129571088Y-53705668D01*
X129886967Y-53768500D01*
X130209033Y-53768500D01*
X130524912Y-53705668D01*
X130822463Y-53582418D01*
X131090252Y-53403487D01*
X131317987Y-53175752D01*
X131496918Y-52907963D01*
X131620168Y-52610412D01*
X131683000Y-52294533D01*
X131683000Y-51972467D01*
X137557000Y-51972467D01*
X137557000Y-52294533D01*
X137619832Y-52610412D01*
X137743082Y-52907963D01*
X137922013Y-53175752D01*
X138149748Y-53403487D01*
X138417537Y-53582418D01*
X138715088Y-53705668D01*
X139030967Y-53768500D01*
X139353033Y-53768500D01*
X139668912Y-53705668D01*
X139966463Y-53582418D01*
X140234252Y-53403487D01*
X140461987Y-53175752D01*
X140640918Y-52907963D01*
X140764168Y-52610412D01*
X140827000Y-52294533D01*
X140827000Y-51972467D01*
X140764168Y-51656588D01*
X140640918Y-51359037D01*
X140461987Y-51091248D01*
X140234252Y-50863513D01*
X139966463Y-50684582D01*
X139668912Y-50561332D01*
X139353033Y-50498500D01*
X139030967Y-50498500D01*
X138715088Y-50561332D01*
X138417537Y-50684582D01*
X138149748Y-50863513D01*
X137922013Y-51091248D01*
X137743082Y-51359037D01*
X137619832Y-51656588D01*
X137557000Y-51972467D01*
X131683000Y-51972467D01*
X131620168Y-51656588D01*
X131496918Y-51359037D01*
X131317987Y-51091248D01*
X131090252Y-50863513D01*
X130822463Y-50684582D01*
X130524912Y-50561332D01*
X130209033Y-50498500D01*
X129886967Y-50498500D01*
X129571088Y-50561332D01*
X129273537Y-50684582D01*
X129005748Y-50863513D01*
X128778013Y-51091248D01*
X128599082Y-51359037D01*
X128475832Y-51656588D01*
X128413000Y-51972467D01*
X127395072Y-51972467D01*
X127395072Y-51932000D01*
X127382812Y-51807518D01*
X127346502Y-51687820D01*
X127287537Y-51577506D01*
X127208185Y-51480815D01*
X127111494Y-51401463D01*
X127001180Y-51342498D01*
X126992000Y-51339713D01*
X126992000Y-50347752D01*
X126997491Y-50292000D01*
X126975577Y-50069501D01*
X126910676Y-49855553D01*
X126805284Y-49658377D01*
X126805092Y-49658143D01*
X126663449Y-49485551D01*
X126620140Y-49450008D01*
X125678631Y-48508499D01*
X143385428Y-48508499D01*
X143385428Y-49408501D01*
X143402492Y-49581755D01*
X143453028Y-49748351D01*
X143535095Y-49901887D01*
X143645538Y-50036462D01*
X143780113Y-50146905D01*
X143933649Y-50228972D01*
X144100245Y-50279508D01*
X144273499Y-50296572D01*
X144923501Y-50296572D01*
X145096755Y-50279508D01*
X145171656Y-50256787D01*
X145296000Y-50381132D01*
X145296000Y-51339713D01*
X145286820Y-51342498D01*
X145176506Y-51401463D01*
X145079815Y-51480815D01*
X145000463Y-51577506D01*
X144941498Y-51687820D01*
X144905188Y-51807518D01*
X144892928Y-51932000D01*
X144892928Y-53732000D01*
X144905188Y-53856482D01*
X144941498Y-53976180D01*
X145000463Y-54086494D01*
X145079815Y-54183185D01*
X145176506Y-54262537D01*
X145286820Y-54321502D01*
X145305127Y-54327056D01*
X145238688Y-54393495D01*
X145070701Y-54644905D01*
X144954989Y-54924257D01*
X144896000Y-55220816D01*
X144896000Y-55523184D01*
X144954989Y-55819743D01*
X145070701Y-56099095D01*
X145238688Y-56350505D01*
X145452495Y-56564312D01*
X145703905Y-56732299D01*
X145983257Y-56848011D01*
X146279816Y-56907000D01*
X146582184Y-56907000D01*
X146878743Y-56848011D01*
X147158095Y-56732299D01*
X147409505Y-56564312D01*
X147623312Y-56350505D01*
X147791299Y-56099095D01*
X147907011Y-55819743D01*
X147966000Y-55523184D01*
X147966000Y-55220816D01*
X147907011Y-54924257D01*
X147791299Y-54644905D01*
X147623312Y-54393495D01*
X147556873Y-54327056D01*
X147575180Y-54321502D01*
X147685494Y-54262537D01*
X147782185Y-54183185D01*
X147861537Y-54086494D01*
X147920502Y-53976180D01*
X147956812Y-53856482D01*
X147969072Y-53732000D01*
X147969072Y-51972467D01*
X148987000Y-51972467D01*
X148987000Y-52294533D01*
X149049832Y-52610412D01*
X149173082Y-52907963D01*
X149352013Y-53175752D01*
X149579748Y-53403487D01*
X149847537Y-53582418D01*
X150145088Y-53705668D01*
X150460967Y-53768500D01*
X150783033Y-53768500D01*
X151098912Y-53705668D01*
X151396463Y-53582418D01*
X151664252Y-53403487D01*
X151891987Y-53175752D01*
X152070918Y-52907963D01*
X152194168Y-52610412D01*
X152257000Y-52294533D01*
X152257000Y-51972467D01*
X152244370Y-51908967D01*
X158131000Y-51908967D01*
X158131000Y-52231033D01*
X158193832Y-52546912D01*
X158317082Y-52844463D01*
X158496013Y-53112252D01*
X158723748Y-53339987D01*
X158991537Y-53518918D01*
X159289088Y-53642168D01*
X159604967Y-53705000D01*
X159927033Y-53705000D01*
X160242912Y-53642168D01*
X160540463Y-53518918D01*
X160808252Y-53339987D01*
X161035987Y-53112252D01*
X161214918Y-52844463D01*
X161338168Y-52546912D01*
X161401000Y-52231033D01*
X161401000Y-51908967D01*
X161338168Y-51593088D01*
X161214918Y-51295537D01*
X161035987Y-51027748D01*
X160808252Y-50800013D01*
X160540463Y-50621082D01*
X160242912Y-50497832D01*
X159927033Y-50435000D01*
X159604967Y-50435000D01*
X159289088Y-50497832D01*
X158991537Y-50621082D01*
X158723748Y-50800013D01*
X158496013Y-51027748D01*
X158317082Y-51295537D01*
X158193832Y-51593088D01*
X158131000Y-51908967D01*
X152244370Y-51908967D01*
X152194168Y-51656588D01*
X152070918Y-51359037D01*
X151891987Y-51091248D01*
X151664252Y-50863513D01*
X151396463Y-50684582D01*
X151098912Y-50561332D01*
X150783033Y-50498500D01*
X150460967Y-50498500D01*
X150145088Y-50561332D01*
X149847537Y-50684582D01*
X149579748Y-50863513D01*
X149352013Y-51091248D01*
X149173082Y-51359037D01*
X149049832Y-51656588D01*
X148987000Y-51972467D01*
X147969072Y-51972467D01*
X147969072Y-51932000D01*
X147956812Y-51807518D01*
X147920502Y-51687820D01*
X147861537Y-51577506D01*
X147782185Y-51480815D01*
X147685494Y-51401463D01*
X147575180Y-51342498D01*
X147566000Y-51339713D01*
X147566000Y-49966741D01*
X147571490Y-49910999D01*
X147566000Y-49855257D01*
X147566000Y-49855248D01*
X147549577Y-49688501D01*
X147484676Y-49474553D01*
X147379284Y-49277377D01*
X147237449Y-49104551D01*
X147194140Y-49069008D01*
X146570131Y-48444999D01*
X164149928Y-48444999D01*
X164149928Y-49345001D01*
X164166992Y-49518255D01*
X164217528Y-49684851D01*
X164299595Y-49838387D01*
X164410038Y-49972962D01*
X164544613Y-50083405D01*
X164698149Y-50165472D01*
X164864745Y-50216008D01*
X165037999Y-50233072D01*
X165688001Y-50233072D01*
X165861255Y-50216008D01*
X165870000Y-50213355D01*
X165870001Y-51212713D01*
X165860820Y-51215498D01*
X165750506Y-51274463D01*
X165653815Y-51353815D01*
X165574463Y-51450506D01*
X165515498Y-51560820D01*
X165479188Y-51680518D01*
X165466928Y-51805000D01*
X165466928Y-53605000D01*
X165479188Y-53729482D01*
X165515498Y-53849180D01*
X165574463Y-53959494D01*
X165653815Y-54056185D01*
X165750506Y-54135537D01*
X165860820Y-54194502D01*
X165879127Y-54200056D01*
X165812688Y-54266495D01*
X165644701Y-54517905D01*
X165528989Y-54797257D01*
X165470000Y-55093816D01*
X165470000Y-55396184D01*
X165528989Y-55692743D01*
X165644701Y-55972095D01*
X165812688Y-56223505D01*
X166026495Y-56437312D01*
X166277905Y-56605299D01*
X166557257Y-56721011D01*
X166853816Y-56780000D01*
X167156184Y-56780000D01*
X167452743Y-56721011D01*
X167732095Y-56605299D01*
X167983505Y-56437312D01*
X168197312Y-56223505D01*
X168365299Y-55972095D01*
X168481011Y-55692743D01*
X168540000Y-55396184D01*
X168540000Y-55093816D01*
X168481011Y-54797257D01*
X168365299Y-54517905D01*
X168197312Y-54266495D01*
X168130873Y-54200056D01*
X168149180Y-54194502D01*
X168259494Y-54135537D01*
X168284518Y-54115000D01*
X182793428Y-54115000D01*
X182793428Y-55865000D01*
X182822501Y-56160186D01*
X182908604Y-56444028D01*
X183048427Y-56705618D01*
X183236597Y-56934903D01*
X183465882Y-57123073D01*
X183727472Y-57262896D01*
X184011314Y-57348999D01*
X184306500Y-57378072D01*
X186056500Y-57378072D01*
X186351686Y-57348999D01*
X186635528Y-57262896D01*
X186897118Y-57123073D01*
X187126403Y-56934903D01*
X187314573Y-56705618D01*
X187454396Y-56444028D01*
X187540499Y-56160186D01*
X187569572Y-55865000D01*
X187569572Y-54115000D01*
X187540499Y-53819814D01*
X187454396Y-53535972D01*
X187314573Y-53274382D01*
X187126403Y-53045097D01*
X186897118Y-52856927D01*
X186635528Y-52717104D01*
X186351686Y-52631001D01*
X186056500Y-52601928D01*
X184306500Y-52601928D01*
X184011314Y-52631001D01*
X183727472Y-52717104D01*
X183465882Y-52856927D01*
X183236597Y-53045097D01*
X183048427Y-53274382D01*
X182908604Y-53535972D01*
X182822501Y-53819814D01*
X182793428Y-54115000D01*
X168284518Y-54115000D01*
X168356185Y-54056185D01*
X168435537Y-53959494D01*
X168494502Y-53849180D01*
X168530812Y-53729482D01*
X168543072Y-53605000D01*
X168543072Y-51908967D01*
X169561000Y-51908967D01*
X169561000Y-52231033D01*
X169623832Y-52546912D01*
X169747082Y-52844463D01*
X169926013Y-53112252D01*
X170153748Y-53339987D01*
X170421537Y-53518918D01*
X170719088Y-53642168D01*
X171034967Y-53705000D01*
X171357033Y-53705000D01*
X171672912Y-53642168D01*
X171970463Y-53518918D01*
X172238252Y-53339987D01*
X172465987Y-53112252D01*
X172644918Y-52844463D01*
X172768168Y-52546912D01*
X172831000Y-52231033D01*
X172831000Y-51908967D01*
X172768168Y-51593088D01*
X172644918Y-51295537D01*
X172465987Y-51027748D01*
X172238252Y-50800013D01*
X171970463Y-50621082D01*
X171672912Y-50497832D01*
X171357033Y-50435000D01*
X171034967Y-50435000D01*
X170719088Y-50497832D01*
X170421537Y-50621082D01*
X170153748Y-50800013D01*
X169926013Y-51027748D01*
X169747082Y-51295537D01*
X169623832Y-51593088D01*
X169561000Y-51908967D01*
X168543072Y-51908967D01*
X168543072Y-51805000D01*
X168530812Y-51680518D01*
X168494502Y-51560820D01*
X168435537Y-51450506D01*
X168356185Y-51353815D01*
X168259494Y-51274463D01*
X168149180Y-51215498D01*
X168140000Y-51212713D01*
X168140000Y-49585752D01*
X168145491Y-49530000D01*
X168132190Y-49394946D01*
X168123577Y-49307501D01*
X168058676Y-49093553D01*
X167953284Y-48896377D01*
X167811449Y-48723551D01*
X167768140Y-48688008D01*
X167211995Y-48131864D01*
X167176449Y-48088551D01*
X167003623Y-47946716D01*
X166806447Y-47841324D01*
X166592499Y-47776423D01*
X166425752Y-47760000D01*
X166425751Y-47760000D01*
X166370000Y-47754509D01*
X166314249Y-47760000D01*
X166246461Y-47760000D01*
X166181387Y-47706595D01*
X166027851Y-47624528D01*
X165861255Y-47573992D01*
X165688001Y-47556928D01*
X165037999Y-47556928D01*
X164864745Y-47573992D01*
X164698149Y-47624528D01*
X164544613Y-47706595D01*
X164410038Y-47817038D01*
X164299595Y-47951613D01*
X164217528Y-48105149D01*
X164166992Y-48271745D01*
X164149928Y-48444999D01*
X146570131Y-48444999D01*
X146320496Y-48195364D01*
X146284949Y-48152051D01*
X146112123Y-48010216D01*
X145914947Y-47904824D01*
X145700999Y-47839923D01*
X145534252Y-47823500D01*
X145534251Y-47823500D01*
X145478500Y-47818009D01*
X145475616Y-47818293D01*
X145416887Y-47770095D01*
X145263351Y-47688028D01*
X145096755Y-47637492D01*
X144923501Y-47620428D01*
X144273499Y-47620428D01*
X144100245Y-47637492D01*
X143933649Y-47688028D01*
X143780113Y-47770095D01*
X143645538Y-47880538D01*
X143535095Y-48015113D01*
X143453028Y-48168649D01*
X143402492Y-48335245D01*
X143385428Y-48508499D01*
X125678631Y-48508499D01*
X125365496Y-48195365D01*
X125329949Y-48152051D01*
X125157123Y-48010216D01*
X124959947Y-47904824D01*
X124833208Y-47866378D01*
X124715887Y-47770095D01*
X124562351Y-47688028D01*
X124395755Y-47637492D01*
X124222501Y-47620428D01*
X123572499Y-47620428D01*
X123399245Y-47637492D01*
X123232649Y-47688028D01*
X123079113Y-47770095D01*
X122944538Y-47880538D01*
X122834095Y-48015113D01*
X122752028Y-48168649D01*
X122701492Y-48335245D01*
X122684428Y-48508499D01*
X105358631Y-48508499D01*
X105045496Y-48195364D01*
X105009949Y-48152051D01*
X104837123Y-48010216D01*
X104639947Y-47904824D01*
X104425999Y-47839923D01*
X104259252Y-47823500D01*
X104259251Y-47823500D01*
X104203500Y-47818009D01*
X104147749Y-47823500D01*
X104143461Y-47823500D01*
X104078387Y-47770095D01*
X103924851Y-47688028D01*
X103758255Y-47637492D01*
X103585001Y-47620428D01*
X102934999Y-47620428D01*
X102761745Y-47637492D01*
X102595149Y-47688028D01*
X102441613Y-47770095D01*
X102307038Y-47880538D01*
X102196595Y-48015113D01*
X102114528Y-48168649D01*
X102063992Y-48335245D01*
X102046928Y-48508499D01*
X86639000Y-48508499D01*
X86639000Y-45548880D01*
X86887381Y-45300500D01*
X185400620Y-45300500D01*
X185649000Y-45548881D01*
G37*
X185649000Y-45548881D02*
X185649001Y-50386571D01*
X185645807Y-50419000D01*
X185658550Y-50548383D01*
X185696290Y-50672793D01*
X185757575Y-50787450D01*
X185840052Y-50887948D01*
X185940550Y-50970425D01*
X186055207Y-51031710D01*
X186179617Y-51069450D01*
X186276581Y-51079000D01*
X186309000Y-51082193D01*
X186341419Y-51079000D01*
X191496620Y-51079000D01*
X191745000Y-51327381D01*
X191745001Y-124440618D01*
X191496620Y-124689000D01*
X186341419Y-124689000D01*
X186309000Y-124685807D01*
X186179617Y-124698550D01*
X186055207Y-124736290D01*
X185940550Y-124797575D01*
X185840052Y-124880052D01*
X185757575Y-124980550D01*
X185696290Y-125095207D01*
X185658550Y-125219617D01*
X185645807Y-125349000D01*
X185649000Y-125381419D01*
X185649001Y-130155618D01*
X185400620Y-130404000D01*
X86887381Y-130404000D01*
X86639000Y-130155620D01*
X86639000Y-127779544D01*
X101645400Y-127779544D01*
X101645400Y-128150856D01*
X101717839Y-128515034D01*
X101859934Y-128858082D01*
X102066225Y-129166818D01*
X102328782Y-129429375D01*
X102637518Y-129635666D01*
X102980566Y-129777761D01*
X103344744Y-129850200D01*
X103716056Y-129850200D01*
X104080234Y-129777761D01*
X104423282Y-129635666D01*
X104732018Y-129429375D01*
X104994575Y-129166818D01*
X105200866Y-128858082D01*
X105342961Y-128515034D01*
X105415400Y-128150856D01*
X105415400Y-127779544D01*
X105410348Y-127754144D01*
X122219400Y-127754144D01*
X122219400Y-128125456D01*
X122291839Y-128489634D01*
X122433934Y-128832682D01*
X122640225Y-129141418D01*
X122902782Y-129403975D01*
X123211518Y-129610266D01*
X123554566Y-129752361D01*
X123918744Y-129824800D01*
X124290056Y-129824800D01*
X124654234Y-129752361D01*
X124997282Y-129610266D01*
X125306018Y-129403975D01*
X125568575Y-129141418D01*
X125774866Y-128832682D01*
X125916961Y-128489634D01*
X125989400Y-128125456D01*
X125989400Y-127754144D01*
X142793400Y-127754144D01*
X142793400Y-128125456D01*
X142865839Y-128489634D01*
X143007934Y-128832682D01*
X143214225Y-129141418D01*
X143476782Y-129403975D01*
X143785518Y-129610266D01*
X144128566Y-129752361D01*
X144492744Y-129824800D01*
X144864056Y-129824800D01*
X145228234Y-129752361D01*
X145571282Y-129610266D01*
X145880018Y-129403975D01*
X146142575Y-129141418D01*
X146348866Y-128832682D01*
X146490961Y-128489634D01*
X146563400Y-128125456D01*
X146563400Y-127754144D01*
X163367400Y-127754144D01*
X163367400Y-128125456D01*
X163439839Y-128489634D01*
X163581934Y-128832682D01*
X163788225Y-129141418D01*
X164050782Y-129403975D01*
X164359518Y-129610266D01*
X164702566Y-129752361D01*
X165066744Y-129824800D01*
X165438056Y-129824800D01*
X165802234Y-129752361D01*
X166145282Y-129610266D01*
X166454018Y-129403975D01*
X166716575Y-129141418D01*
X166922866Y-128832682D01*
X167064961Y-128489634D01*
X167137400Y-128125456D01*
X167137400Y-127754144D01*
X167064961Y-127389966D01*
X166922866Y-127046918D01*
X166716575Y-126738182D01*
X166454018Y-126475625D01*
X166145282Y-126269334D01*
X165802234Y-126127239D01*
X165438056Y-126054800D01*
X165066744Y-126054800D01*
X164702566Y-126127239D01*
X164359518Y-126269334D01*
X164050782Y-126475625D01*
X163788225Y-126738182D01*
X163581934Y-127046918D01*
X163439839Y-127389966D01*
X163367400Y-127754144D01*
X146563400Y-127754144D01*
X146490961Y-127389966D01*
X146348866Y-127046918D01*
X146142575Y-126738182D01*
X145880018Y-126475625D01*
X145571282Y-126269334D01*
X145228234Y-126127239D01*
X144864056Y-126054800D01*
X144492744Y-126054800D01*
X144128566Y-126127239D01*
X143785518Y-126269334D01*
X143476782Y-126475625D01*
X143214225Y-126738182D01*
X143007934Y-127046918D01*
X142865839Y-127389966D01*
X142793400Y-127754144D01*
X125989400Y-127754144D01*
X125916961Y-127389966D01*
X125774866Y-127046918D01*
X125568575Y-126738182D01*
X125306018Y-126475625D01*
X124997282Y-126269334D01*
X124654234Y-126127239D01*
X124290056Y-126054800D01*
X123918744Y-126054800D01*
X123554566Y-126127239D01*
X123211518Y-126269334D01*
X122902782Y-126475625D01*
X122640225Y-126738182D01*
X122433934Y-127046918D01*
X122291839Y-127389966D01*
X122219400Y-127754144D01*
X105410348Y-127754144D01*
X105342961Y-127415366D01*
X105200866Y-127072318D01*
X104994575Y-126763582D01*
X104732018Y-126501025D01*
X104423282Y-126294734D01*
X104080234Y-126152639D01*
X103716056Y-126080200D01*
X103344744Y-126080200D01*
X102980566Y-126152639D01*
X102637518Y-126294734D01*
X102328782Y-126501025D01*
X102066225Y-126763582D01*
X101859934Y-127072318D01*
X101717839Y-127415366D01*
X101645400Y-127779544D01*
X86639000Y-127779544D01*
X86639000Y-125444919D01*
X86642193Y-125412500D01*
X86629450Y-125283117D01*
X86591710Y-125158707D01*
X86530425Y-125044050D01*
X86447948Y-124943552D01*
X86347450Y-124861075D01*
X86232793Y-124799790D01*
X86108383Y-124762050D01*
X86011419Y-124752500D01*
X85979000Y-124749307D01*
X85946581Y-124752500D01*
X80791381Y-124752500D01*
X80543000Y-124504120D01*
X80543000Y-122370898D01*
X98707000Y-122370898D01*
X98707000Y-122840702D01*
X98798654Y-123301479D01*
X98978440Y-123735521D01*
X99239450Y-124126149D01*
X99571651Y-124458350D01*
X99962279Y-124719360D01*
X100396321Y-124899146D01*
X100857098Y-124990800D01*
X101326902Y-124990800D01*
X101787679Y-124899146D01*
X102221721Y-124719360D01*
X102612349Y-124458350D01*
X102944550Y-124126149D01*
X103205560Y-123735521D01*
X103265796Y-123590098D01*
X107089000Y-123590098D01*
X107089000Y-124059902D01*
X107180654Y-124520679D01*
X107360440Y-124954721D01*
X107621450Y-125345349D01*
X107953651Y-125677550D01*
X108344279Y-125938560D01*
X108778321Y-126118346D01*
X109239098Y-126210000D01*
X109708902Y-126210000D01*
X110169679Y-126118346D01*
X110603721Y-125938560D01*
X110994349Y-125677550D01*
X111326550Y-125345349D01*
X111587560Y-124954721D01*
X111767346Y-124520679D01*
X111859000Y-124059902D01*
X111859000Y-123590098D01*
X111767346Y-123129321D01*
X111587560Y-122695279D01*
X111353844Y-122345498D01*
X119281000Y-122345498D01*
X119281000Y-122815302D01*
X119372654Y-123276079D01*
X119552440Y-123710121D01*
X119813450Y-124100749D01*
X120145651Y-124432950D01*
X120536279Y-124693960D01*
X120970321Y-124873746D01*
X121431098Y-124965400D01*
X121900902Y-124965400D01*
X122361679Y-124873746D01*
X122795721Y-124693960D01*
X123186349Y-124432950D01*
X123518550Y-124100749D01*
X123779560Y-123710121D01*
X123839796Y-123564698D01*
X127663000Y-123564698D01*
X127663000Y-124034502D01*
X127754654Y-124495279D01*
X127934440Y-124929321D01*
X128195450Y-125319949D01*
X128527651Y-125652150D01*
X128918279Y-125913160D01*
X129352321Y-126092946D01*
X129813098Y-126184600D01*
X130282902Y-126184600D01*
X130743679Y-126092946D01*
X131177721Y-125913160D01*
X131568349Y-125652150D01*
X131900550Y-125319949D01*
X132161560Y-124929321D01*
X132341346Y-124495279D01*
X132433000Y-124034502D01*
X132433000Y-123564698D01*
X132341346Y-123103921D01*
X132161560Y-122669879D01*
X131944815Y-122345498D01*
X139855000Y-122345498D01*
X139855000Y-122815302D01*
X139946654Y-123276079D01*
X140126440Y-123710121D01*
X140387450Y-124100749D01*
X140719651Y-124432950D01*
X141110279Y-124693960D01*
X141544321Y-124873746D01*
X142005098Y-124965400D01*
X142474902Y-124965400D01*
X142935679Y-124873746D01*
X143369721Y-124693960D01*
X143760349Y-124432950D01*
X144092550Y-124100749D01*
X144353560Y-123710121D01*
X144413796Y-123564698D01*
X148237000Y-123564698D01*
X148237000Y-124034502D01*
X148328654Y-124495279D01*
X148508440Y-124929321D01*
X148769450Y-125319949D01*
X149101651Y-125652150D01*
X149492279Y-125913160D01*
X149926321Y-126092946D01*
X150387098Y-126184600D01*
X150856902Y-126184600D01*
X151317679Y-126092946D01*
X151751721Y-125913160D01*
X152142349Y-125652150D01*
X152474550Y-125319949D01*
X152735560Y-124929321D01*
X152915346Y-124495279D01*
X153007000Y-124034502D01*
X153007000Y-123564698D01*
X152915346Y-123103921D01*
X152735560Y-122669879D01*
X152518815Y-122345498D01*
X160429000Y-122345498D01*
X160429000Y-122815302D01*
X160520654Y-123276079D01*
X160700440Y-123710121D01*
X160961450Y-124100749D01*
X161293651Y-124432950D01*
X161684279Y-124693960D01*
X162118321Y-124873746D01*
X162579098Y-124965400D01*
X163048902Y-124965400D01*
X163509679Y-124873746D01*
X163943721Y-124693960D01*
X164334349Y-124432950D01*
X164666550Y-124100749D01*
X164927560Y-123710121D01*
X164987796Y-123564698D01*
X168811000Y-123564698D01*
X168811000Y-124034502D01*
X168902654Y-124495279D01*
X169082440Y-124929321D01*
X169343450Y-125319949D01*
X169675651Y-125652150D01*
X170066279Y-125913160D01*
X170500321Y-126092946D01*
X170961098Y-126184600D01*
X171430902Y-126184600D01*
X171891679Y-126092946D01*
X172325721Y-125913160D01*
X172716349Y-125652150D01*
X173048550Y-125319949D01*
X173309560Y-124929321D01*
X173489346Y-124495279D01*
X173581000Y-124034502D01*
X173581000Y-123564698D01*
X173489346Y-123103921D01*
X173309560Y-122669879D01*
X173048550Y-122279251D01*
X172716349Y-121947050D01*
X172325721Y-121686040D01*
X171891679Y-121506254D01*
X171430902Y-121414600D01*
X170961098Y-121414600D01*
X170500321Y-121506254D01*
X170066279Y-121686040D01*
X169675651Y-121947050D01*
X169343450Y-122279251D01*
X169082440Y-122669879D01*
X168902654Y-123103921D01*
X168811000Y-123564698D01*
X164987796Y-123564698D01*
X165107346Y-123276079D01*
X165199000Y-122815302D01*
X165199000Y-122345498D01*
X165107346Y-121884721D01*
X164927560Y-121450679D01*
X164666550Y-121060051D01*
X164334349Y-120727850D01*
X163943721Y-120466840D01*
X163509679Y-120287054D01*
X163048902Y-120195400D01*
X162579098Y-120195400D01*
X162118321Y-120287054D01*
X161684279Y-120466840D01*
X161293651Y-120727850D01*
X160961450Y-121060051D01*
X160700440Y-121450679D01*
X160520654Y-121884721D01*
X160429000Y-122345498D01*
X152518815Y-122345498D01*
X152474550Y-122279251D01*
X152142349Y-121947050D01*
X151751721Y-121686040D01*
X151317679Y-121506254D01*
X150856902Y-121414600D01*
X150387098Y-121414600D01*
X149926321Y-121506254D01*
X149492279Y-121686040D01*
X149101651Y-121947050D01*
X148769450Y-122279251D01*
X148508440Y-122669879D01*
X148328654Y-123103921D01*
X148237000Y-123564698D01*
X144413796Y-123564698D01*
X144533346Y-123276079D01*
X144625000Y-122815302D01*
X144625000Y-122345498D01*
X144533346Y-121884721D01*
X144353560Y-121450679D01*
X144092550Y-121060051D01*
X143760349Y-120727850D01*
X143369721Y-120466840D01*
X142935679Y-120287054D01*
X142474902Y-120195400D01*
X142005098Y-120195400D01*
X141544321Y-120287054D01*
X141110279Y-120466840D01*
X140719651Y-120727850D01*
X140387450Y-121060051D01*
X140126440Y-121450679D01*
X139946654Y-121884721D01*
X139855000Y-122345498D01*
X131944815Y-122345498D01*
X131900550Y-122279251D01*
X131568349Y-121947050D01*
X131177721Y-121686040D01*
X130743679Y-121506254D01*
X130282902Y-121414600D01*
X129813098Y-121414600D01*
X129352321Y-121506254D01*
X128918279Y-121686040D01*
X128527651Y-121947050D01*
X128195450Y-122279251D01*
X127934440Y-122669879D01*
X127754654Y-123103921D01*
X127663000Y-123564698D01*
X123839796Y-123564698D01*
X123959346Y-123276079D01*
X124051000Y-122815302D01*
X124051000Y-122345498D01*
X123959346Y-121884721D01*
X123779560Y-121450679D01*
X123518550Y-121060051D01*
X123186349Y-120727850D01*
X122795721Y-120466840D01*
X122361679Y-120287054D01*
X121900902Y-120195400D01*
X121431098Y-120195400D01*
X120970321Y-120287054D01*
X120536279Y-120466840D01*
X120145651Y-120727850D01*
X119813450Y-121060051D01*
X119552440Y-121450679D01*
X119372654Y-121884721D01*
X119281000Y-122345498D01*
X111353844Y-122345498D01*
X111326550Y-122304651D01*
X110994349Y-121972450D01*
X110603721Y-121711440D01*
X110169679Y-121531654D01*
X109708902Y-121440000D01*
X109239098Y-121440000D01*
X108778321Y-121531654D01*
X108344279Y-121711440D01*
X107953651Y-121972450D01*
X107621450Y-122304651D01*
X107360440Y-122695279D01*
X107180654Y-123129321D01*
X107089000Y-123590098D01*
X103265796Y-123590098D01*
X103385346Y-123301479D01*
X103477000Y-122840702D01*
X103477000Y-122370898D01*
X103385346Y-121910121D01*
X103205560Y-121476079D01*
X102944550Y-121085451D01*
X102612349Y-120753250D01*
X102221721Y-120492240D01*
X101787679Y-120312454D01*
X101326902Y-120220800D01*
X100857098Y-120220800D01*
X100396321Y-120312454D01*
X99962279Y-120492240D01*
X99571651Y-120753250D01*
X99239450Y-121085451D01*
X98978440Y-121476079D01*
X98798654Y-121910121D01*
X98707000Y-122370898D01*
X80543000Y-122370898D01*
X80543000Y-119853967D01*
X183086500Y-119853967D01*
X183086500Y-120176033D01*
X183149332Y-120491912D01*
X183272582Y-120789463D01*
X183451513Y-121057252D01*
X183679248Y-121284987D01*
X183947037Y-121463918D01*
X184244588Y-121587168D01*
X184560467Y-121650000D01*
X184882533Y-121650000D01*
X185198412Y-121587168D01*
X185495963Y-121463918D01*
X185763752Y-121284987D01*
X185991487Y-121057252D01*
X186170418Y-120789463D01*
X186293668Y-120491912D01*
X186356500Y-120176033D01*
X186356500Y-119853967D01*
X186293668Y-119538088D01*
X186170418Y-119240537D01*
X185991487Y-118972748D01*
X185763752Y-118745013D01*
X185495963Y-118566082D01*
X185198412Y-118442832D01*
X184882533Y-118380000D01*
X184560467Y-118380000D01*
X184244588Y-118442832D01*
X183947037Y-118566082D01*
X183679248Y-118745013D01*
X183451513Y-118972748D01*
X183272582Y-119240537D01*
X183149332Y-119538088D01*
X183086500Y-119853967D01*
X80543000Y-119853967D01*
X80543000Y-108374721D01*
X173061500Y-108374721D01*
X173061500Y-108795279D01*
X173143547Y-109207756D01*
X173304488Y-109596302D01*
X173538137Y-109945983D01*
X173835517Y-110243363D01*
X174185198Y-110477012D01*
X174573744Y-110637953D01*
X174986221Y-110720000D01*
X175406779Y-110720000D01*
X175819256Y-110637953D01*
X176207802Y-110477012D01*
X176253908Y-110446205D01*
X176236500Y-110533721D01*
X176236500Y-110954279D01*
X176318547Y-111366756D01*
X176479488Y-111755302D01*
X176713137Y-112104983D01*
X177010517Y-112402363D01*
X177360198Y-112636012D01*
X177748744Y-112796953D01*
X178161221Y-112879000D01*
X178581779Y-112879000D01*
X178994256Y-112796953D01*
X179382802Y-112636012D01*
X179732483Y-112402363D01*
X180029863Y-112104983D01*
X180263512Y-111755302D01*
X180424453Y-111366756D01*
X180506500Y-110954279D01*
X180506500Y-110533721D01*
X180424453Y-110121244D01*
X180263512Y-109732698D01*
X180029863Y-109383017D01*
X179732483Y-109085637D01*
X179382802Y-108851988D01*
X178994256Y-108691047D01*
X178581779Y-108609000D01*
X178161221Y-108609000D01*
X177748744Y-108691047D01*
X177360198Y-108851988D01*
X177314092Y-108882795D01*
X177331500Y-108795279D01*
X177331500Y-108423967D01*
X183086500Y-108423967D01*
X183086500Y-108746033D01*
X183149332Y-109061912D01*
X183272582Y-109359463D01*
X183451513Y-109627252D01*
X183679248Y-109854987D01*
X183947037Y-110033918D01*
X184244588Y-110157168D01*
X184560467Y-110220000D01*
X184882533Y-110220000D01*
X185198412Y-110157168D01*
X185495963Y-110033918D01*
X185763752Y-109854987D01*
X185991487Y-109627252D01*
X186170418Y-109359463D01*
X186293668Y-109061912D01*
X186356500Y-108746033D01*
X186356500Y-108423967D01*
X186293668Y-108108088D01*
X186170418Y-107810537D01*
X185991487Y-107542748D01*
X185763752Y-107315013D01*
X185495963Y-107136082D01*
X185198412Y-107012832D01*
X184882533Y-106950000D01*
X184560467Y-106950000D01*
X184244588Y-107012832D01*
X183947037Y-107136082D01*
X183679248Y-107315013D01*
X183451513Y-107542748D01*
X183272582Y-107810537D01*
X183149332Y-108108088D01*
X183086500Y-108423967D01*
X177331500Y-108423967D01*
X177331500Y-108374721D01*
X177249453Y-107962244D01*
X177088512Y-107573698D01*
X176854863Y-107224017D01*
X176557483Y-106926637D01*
X176207802Y-106692988D01*
X175819256Y-106532047D01*
X175406779Y-106450000D01*
X174986221Y-106450000D01*
X174573744Y-106532047D01*
X174185198Y-106692988D01*
X173835517Y-106926637D01*
X173538137Y-107224017D01*
X173304488Y-107573698D01*
X173143547Y-107962244D01*
X173061500Y-108374721D01*
X80543000Y-108374721D01*
X80543000Y-103802000D01*
X88602718Y-103802000D01*
X88619805Y-103975490D01*
X88670411Y-104142313D01*
X88752589Y-104296059D01*
X88863183Y-104430817D01*
X88997941Y-104541411D01*
X89151687Y-104623589D01*
X89318510Y-104674195D01*
X89448523Y-104687000D01*
X91497422Y-104687000D01*
X93967470Y-107157049D01*
X93995183Y-107190817D01*
X94028951Y-107218530D01*
X94028953Y-107218532D01*
X94100452Y-107277210D01*
X94129941Y-107301411D01*
X94283687Y-107383589D01*
X94450510Y-107434195D01*
X94580523Y-107447000D01*
X94580533Y-107447000D01*
X94623999Y-107451281D01*
X94667465Y-107447000D01*
X98372531Y-107447000D01*
X98416000Y-107451281D01*
X98459469Y-107447000D01*
X98459477Y-107447000D01*
X98589490Y-107434195D01*
X98756313Y-107383589D01*
X98910059Y-107301411D01*
X99044817Y-107190817D01*
X99072534Y-107157044D01*
X101161579Y-105068000D01*
X111690422Y-105068000D01*
X114160472Y-107538051D01*
X114188183Y-107571817D01*
X114221949Y-107599528D01*
X114221953Y-107599532D01*
X114322940Y-107682410D01*
X114476686Y-107764588D01*
X114527293Y-107779940D01*
X114643510Y-107815195D01*
X114799913Y-107830598D01*
X114816999Y-107832281D01*
X114817000Y-107832281D01*
X114990490Y-107815195D01*
X115157313Y-107764588D01*
X115311059Y-107682410D01*
X115412046Y-107599532D01*
X115445817Y-107571817D01*
X115473532Y-107538047D01*
X117816579Y-105195000D01*
X133661422Y-105195000D01*
X135877470Y-107411049D01*
X135905183Y-107444817D01*
X135938951Y-107472530D01*
X135938953Y-107472532D01*
X135944840Y-107477363D01*
X136039941Y-107555411D01*
X136193687Y-107637589D01*
X136360510Y-107688195D01*
X136490523Y-107701000D01*
X136490533Y-107701000D01*
X136533999Y-107705281D01*
X136577465Y-107701000D01*
X144854531Y-107701000D01*
X144898000Y-107705281D01*
X144941469Y-107701000D01*
X144941477Y-107701000D01*
X145071490Y-107688195D01*
X145238313Y-107637589D01*
X145392059Y-107555411D01*
X145526817Y-107444817D01*
X145554534Y-107411044D01*
X148024579Y-104941000D01*
X151695422Y-104941000D01*
X154419470Y-107665049D01*
X154447183Y-107698817D01*
X154480951Y-107726530D01*
X154480953Y-107726532D01*
X154581941Y-107809411D01*
X154735686Y-107891589D01*
X154862309Y-107930000D01*
X154902510Y-107942195D01*
X155032523Y-107955000D01*
X155032531Y-107955000D01*
X155076000Y-107959281D01*
X155119469Y-107955000D01*
X156371477Y-107955000D01*
X156501490Y-107942195D01*
X156668313Y-107891589D01*
X156822059Y-107809411D01*
X156956817Y-107698817D01*
X157067411Y-107564059D01*
X157149589Y-107410313D01*
X157200195Y-107243490D01*
X157217282Y-107070000D01*
X157200195Y-106896510D01*
X157149589Y-106729687D01*
X157067411Y-106575941D01*
X156956817Y-106441183D01*
X156822059Y-106330589D01*
X156668313Y-106248411D01*
X156501490Y-106197805D01*
X156371477Y-106185000D01*
X155442579Y-106185000D01*
X152718534Y-103460956D01*
X152690817Y-103427183D01*
X152556059Y-103316589D01*
X152402313Y-103234411D01*
X152235490Y-103183805D01*
X152105477Y-103171000D01*
X152105469Y-103171000D01*
X152062000Y-103166719D01*
X152018531Y-103171000D01*
X147701465Y-103171000D01*
X147657999Y-103166719D01*
X147614533Y-103171000D01*
X147614523Y-103171000D01*
X147484510Y-103183805D01*
X147317687Y-103234411D01*
X147163941Y-103316589D01*
X147163939Y-103316590D01*
X147163940Y-103316590D01*
X147062953Y-103399468D01*
X147062951Y-103399470D01*
X147029183Y-103427183D01*
X147001470Y-103460951D01*
X144531422Y-105931000D01*
X136900579Y-105931000D01*
X134684534Y-103714956D01*
X134656817Y-103681183D01*
X134522059Y-103570589D01*
X134368313Y-103488411D01*
X134201490Y-103437805D01*
X134071477Y-103425000D01*
X134071469Y-103425000D01*
X134028000Y-103420719D01*
X133984531Y-103425000D01*
X127842238Y-103425000D01*
X127860000Y-103335703D01*
X127860000Y-103166297D01*
X127826951Y-103000147D01*
X127762122Y-102843637D01*
X127668005Y-102702782D01*
X127548218Y-102582995D01*
X127407363Y-102488878D01*
X127250853Y-102424049D01*
X127084703Y-102391000D01*
X126915297Y-102391000D01*
X126749147Y-102424049D01*
X126592637Y-102488878D01*
X126451782Y-102582995D01*
X126331995Y-102702782D01*
X126237878Y-102843637D01*
X126173049Y-103000147D01*
X126140000Y-103166297D01*
X126140000Y-103335703D01*
X126157762Y-103425000D01*
X117493465Y-103425000D01*
X117449999Y-103420719D01*
X117406533Y-103425000D01*
X117406523Y-103425000D01*
X117276510Y-103437805D01*
X117109687Y-103488411D01*
X116955941Y-103570589D01*
X116955939Y-103570590D01*
X116955940Y-103570590D01*
X116854953Y-103653468D01*
X116854951Y-103653470D01*
X116821183Y-103681183D01*
X116793470Y-103714951D01*
X114817000Y-105691421D01*
X112713534Y-103587956D01*
X112685817Y-103554183D01*
X112551059Y-103443589D01*
X112397313Y-103361411D01*
X112230490Y-103310805D01*
X112100477Y-103298000D01*
X112100469Y-103298000D01*
X112057000Y-103293719D01*
X112013531Y-103298000D01*
X100838466Y-103298000D01*
X100794999Y-103293719D01*
X100751533Y-103298000D01*
X100751523Y-103298000D01*
X100621510Y-103310805D01*
X100454687Y-103361411D01*
X100300941Y-103443589D01*
X100300939Y-103443590D01*
X100300940Y-103443590D01*
X100199953Y-103526468D01*
X100199951Y-103526470D01*
X100166183Y-103554183D01*
X100138470Y-103587951D01*
X98049422Y-105677000D01*
X94990579Y-105677000D01*
X92520534Y-103206956D01*
X92492817Y-103173183D01*
X92358059Y-103062589D01*
X92204313Y-102980411D01*
X92037490Y-102929805D01*
X91907477Y-102917000D01*
X91907469Y-102917000D01*
X91864000Y-102912719D01*
X91820531Y-102917000D01*
X89448523Y-102917000D01*
X89318510Y-102929805D01*
X89151687Y-102980411D01*
X88997941Y-103062589D01*
X88863183Y-103173183D01*
X88752589Y-103307941D01*
X88670411Y-103461687D01*
X88619805Y-103628510D01*
X88602718Y-103802000D01*
X80543000Y-103802000D01*
X80543000Y-100584000D01*
X128650718Y-100584000D01*
X128667805Y-100757490D01*
X128718411Y-100924313D01*
X128800589Y-101078059D01*
X128911183Y-101212817D01*
X129045941Y-101323411D01*
X129199687Y-101405589D01*
X129366510Y-101456195D01*
X129496523Y-101469000D01*
X137139977Y-101469000D01*
X137269990Y-101456195D01*
X137436813Y-101405589D01*
X137590559Y-101323411D01*
X137725317Y-101212817D01*
X137835911Y-101078059D01*
X137918089Y-100924313D01*
X137968695Y-100757490D01*
X137985782Y-100584000D01*
X137968695Y-100410510D01*
X137918089Y-100243687D01*
X137835911Y-100089941D01*
X137725317Y-99955183D01*
X137590559Y-99844589D01*
X137436813Y-99762411D01*
X137269990Y-99711805D01*
X137139977Y-99699000D01*
X129496523Y-99699000D01*
X129366510Y-99711805D01*
X129199687Y-99762411D01*
X129045941Y-99844589D01*
X128911183Y-99955183D01*
X128800589Y-100089941D01*
X128718411Y-100243687D01*
X128667805Y-100410510D01*
X128650718Y-100584000D01*
X80543000Y-100584000D01*
X80543000Y-95547472D01*
X105160000Y-95547472D01*
X105172805Y-95677485D01*
X105223411Y-95844308D01*
X105305589Y-95998054D01*
X105416183Y-96132813D01*
X105550941Y-96243407D01*
X105704687Y-96325585D01*
X105871510Y-96376191D01*
X106045000Y-96393278D01*
X106218489Y-96376191D01*
X106385312Y-96325585D01*
X106539058Y-96243407D01*
X106673817Y-96132813D01*
X106784411Y-95998055D01*
X106866589Y-95844309D01*
X106917195Y-95677486D01*
X106921773Y-95630996D01*
X107187713Y-95630996D01*
X107204799Y-95804486D01*
X107255406Y-95971309D01*
X107337584Y-96125055D01*
X107420462Y-96226042D01*
X107420465Y-96226045D01*
X107448178Y-96259813D01*
X107481946Y-96287526D01*
X107481954Y-96287534D01*
X107582941Y-96370412D01*
X107736687Y-96452590D01*
X107903510Y-96503196D01*
X108076999Y-96520283D01*
X108250489Y-96503196D01*
X108417313Y-96452590D01*
X108571058Y-96370412D01*
X108705816Y-96259818D01*
X108804969Y-96139000D01*
X117157219Y-96139000D01*
X117174305Y-96312490D01*
X117224912Y-96479313D01*
X117307090Y-96633059D01*
X117417683Y-96767817D01*
X117552441Y-96878410D01*
X117706187Y-96960588D01*
X117873010Y-97011195D01*
X118046500Y-97028281D01*
X118219990Y-97011195D01*
X118386813Y-96960588D01*
X118540559Y-96878410D01*
X118641546Y-96795532D01*
X118641548Y-96795530D01*
X118675321Y-96767813D01*
X118785915Y-96633055D01*
X118868093Y-96479309D01*
X118918699Y-96312486D01*
X118931503Y-96182476D01*
X149102000Y-96182476D01*
X149114805Y-96312489D01*
X149165411Y-96479312D01*
X149247589Y-96633058D01*
X149358183Y-96767817D01*
X149492941Y-96878411D01*
X149646687Y-96960589D01*
X149813510Y-97011195D01*
X149987000Y-97028282D01*
X150160489Y-97011195D01*
X150327312Y-96960589D01*
X150481058Y-96878411D01*
X150615817Y-96767817D01*
X150726411Y-96633059D01*
X150808589Y-96479313D01*
X150859195Y-96312490D01*
X150872000Y-96182477D01*
X150872000Y-93936523D01*
X150859195Y-93806510D01*
X150808589Y-93639687D01*
X150726411Y-93485941D01*
X150615817Y-93351183D01*
X150481059Y-93240589D01*
X150327313Y-93158411D01*
X150160490Y-93107805D01*
X149987000Y-93090718D01*
X149813511Y-93107805D01*
X149646688Y-93158411D01*
X149492942Y-93240589D01*
X149358184Y-93351183D01*
X149247590Y-93485941D01*
X149165412Y-93639687D01*
X149114806Y-93806510D01*
X149102001Y-93936523D01*
X149102000Y-96182476D01*
X118931503Y-96182476D01*
X118931504Y-96182473D01*
X118931504Y-96182465D01*
X118935785Y-96138996D01*
X118931504Y-96095527D01*
X118931504Y-93555523D01*
X118918699Y-93425510D01*
X118868093Y-93258687D01*
X118785915Y-93104941D01*
X118774474Y-93091000D01*
X126795960Y-93091000D01*
X126812082Y-93254688D01*
X126859828Y-93412086D01*
X126937364Y-93557145D01*
X127041710Y-93684290D01*
X127168855Y-93788636D01*
X127313914Y-93866172D01*
X127471312Y-93913918D01*
X127635000Y-93930040D01*
X127798688Y-93913918D01*
X127956086Y-93866172D01*
X128016761Y-93833740D01*
X129706000Y-93833740D01*
X129706000Y-94126260D01*
X129763068Y-94413158D01*
X129875010Y-94683411D01*
X130037525Y-94926632D01*
X130244368Y-95133475D01*
X130487589Y-95295990D01*
X130757842Y-95407932D01*
X131044740Y-95465000D01*
X131337260Y-95465000D01*
X131624158Y-95407932D01*
X131894411Y-95295990D01*
X132137632Y-95133475D01*
X132344475Y-94926632D01*
X132461000Y-94752240D01*
X132577525Y-94926632D01*
X132784368Y-95133475D01*
X133027589Y-95295990D01*
X133297842Y-95407932D01*
X133584740Y-95465000D01*
X133877260Y-95465000D01*
X134164158Y-95407932D01*
X134434411Y-95295990D01*
X134677632Y-95133475D01*
X134884475Y-94926632D01*
X135046990Y-94683411D01*
X135158932Y-94413158D01*
X135216000Y-94126260D01*
X135216000Y-93833740D01*
X135158932Y-93546842D01*
X135046990Y-93276589D01*
X134884475Y-93033368D01*
X134677632Y-92826525D01*
X134434411Y-92664010D01*
X134164158Y-92552068D01*
X133877260Y-92495000D01*
X133584740Y-92495000D01*
X133297842Y-92552068D01*
X133027589Y-92664010D01*
X132784368Y-92826525D01*
X132577525Y-93033368D01*
X132461000Y-93207760D01*
X132344475Y-93033368D01*
X132137632Y-92826525D01*
X131894411Y-92664010D01*
X131624158Y-92552068D01*
X131337260Y-92495000D01*
X131044740Y-92495000D01*
X130757842Y-92552068D01*
X130487589Y-92664010D01*
X130244368Y-92826525D01*
X130037525Y-93033368D01*
X129875010Y-93276589D01*
X129763068Y-93546842D01*
X129706000Y-93833740D01*
X128016761Y-93833740D01*
X128076703Y-93801700D01*
X128105863Y-93789622D01*
X128246718Y-93695505D01*
X128366505Y-93575718D01*
X128437702Y-93469165D01*
X130282868Y-91624000D01*
X131885612Y-91624000D01*
X132011297Y-91649000D01*
X132180703Y-91649000D01*
X132306388Y-91624000D01*
X137814133Y-91624000D01*
X138685133Y-92495000D01*
X138664740Y-92495000D01*
X138377842Y-92552068D01*
X138107589Y-92664010D01*
X137864368Y-92826525D01*
X137657525Y-93033368D01*
X137495010Y-93276589D01*
X137383068Y-93546842D01*
X137326000Y-93833740D01*
X137326000Y-94126260D01*
X137383068Y-94413158D01*
X137495010Y-94683411D01*
X137657525Y-94926632D01*
X137864368Y-95133475D01*
X138107589Y-95295990D01*
X138377842Y-95407932D01*
X138664740Y-95465000D01*
X138957260Y-95465000D01*
X139244158Y-95407932D01*
X139514411Y-95295990D01*
X139757632Y-95133475D01*
X139889487Y-95001620D01*
X139911498Y-95074180D01*
X139970463Y-95184494D01*
X140049815Y-95281185D01*
X140146506Y-95360537D01*
X140256820Y-95419502D01*
X140376518Y-95455812D01*
X140501000Y-95468072D01*
X142201000Y-95468072D01*
X142325482Y-95455812D01*
X142445180Y-95419502D01*
X142555494Y-95360537D01*
X142652185Y-95281185D01*
X142731537Y-95184494D01*
X142790502Y-95074180D01*
X142826812Y-94954482D01*
X142839072Y-94830000D01*
X142839072Y-93130000D01*
X142826812Y-93005518D01*
X142790502Y-92885820D01*
X142731537Y-92775506D01*
X142652185Y-92678815D01*
X142555494Y-92599463D01*
X142445180Y-92540498D01*
X142325482Y-92504188D01*
X142201000Y-92491928D01*
X141043796Y-92491928D01*
X140462384Y-91910516D01*
X140585853Y-91885957D01*
X140742363Y-91821128D01*
X140883218Y-91727011D01*
X141003005Y-91607224D01*
X141097122Y-91466369D01*
X141161951Y-91309859D01*
X141195000Y-91143709D01*
X141195000Y-90974303D01*
X141161951Y-90808153D01*
X141097122Y-90651643D01*
X141003005Y-90510788D01*
X140883218Y-90391001D01*
X140776689Y-90319820D01*
X139296202Y-88839334D01*
X139225005Y-88732782D01*
X139105218Y-88612995D01*
X138964363Y-88518878D01*
X138807853Y-88454049D01*
X138641703Y-88421000D01*
X138472297Y-88421000D01*
X138306147Y-88454049D01*
X138149637Y-88518878D01*
X138008782Y-88612995D01*
X137888995Y-88732782D01*
X137794878Y-88873637D01*
X137730049Y-89030147D01*
X137697000Y-89196297D01*
X137697000Y-89365703D01*
X137730049Y-89531853D01*
X137794878Y-89688363D01*
X137888995Y-89829218D01*
X138008782Y-89949005D01*
X138016257Y-89954000D01*
X132306388Y-89954000D01*
X132180703Y-89929000D01*
X132011297Y-89929000D01*
X131885612Y-89954000D01*
X129978018Y-89954000D01*
X129936999Y-89949960D01*
X129773311Y-89966082D01*
X129615913Y-90013828D01*
X129470854Y-90091364D01*
X129343709Y-90195709D01*
X129317559Y-90227573D01*
X127256835Y-92288298D01*
X127150282Y-92359495D01*
X127030495Y-92479282D01*
X126936378Y-92620137D01*
X126924300Y-92649297D01*
X126859828Y-92769914D01*
X126812082Y-92927312D01*
X126795960Y-93091000D01*
X118774474Y-93091000D01*
X118675321Y-92970183D01*
X118540562Y-92859589D01*
X118386816Y-92777411D01*
X118219993Y-92726805D01*
X118046504Y-92709718D01*
X117873014Y-92726805D01*
X117706191Y-92777411D01*
X117552445Y-92859589D01*
X117417687Y-92970183D01*
X117307093Y-93104942D01*
X117224915Y-93258688D01*
X117174309Y-93425511D01*
X117161504Y-93555524D01*
X117161505Y-96095481D01*
X117157219Y-96139000D01*
X108804969Y-96139000D01*
X108816410Y-96125060D01*
X108898588Y-95971315D01*
X108949194Y-95804491D01*
X108966281Y-95631001D01*
X108961994Y-95587474D01*
X108961994Y-93809523D01*
X108949189Y-93679510D01*
X108898583Y-93512687D01*
X108816405Y-93358941D01*
X108705811Y-93224183D01*
X108571052Y-93113589D01*
X108417306Y-93031411D01*
X108250483Y-92980805D01*
X108076994Y-92963718D01*
X107903504Y-92980805D01*
X107736681Y-93031411D01*
X107582935Y-93113589D01*
X107448177Y-93224183D01*
X107337583Y-93358942D01*
X107255405Y-93512688D01*
X107204799Y-93679511D01*
X107191994Y-93809524D01*
X107191995Y-95587517D01*
X107187713Y-95630996D01*
X106921773Y-95630996D01*
X106930000Y-95547473D01*
X106930000Y-93682523D01*
X106917195Y-93552510D01*
X106866589Y-93385687D01*
X106784411Y-93231941D01*
X106673817Y-93097183D01*
X106539059Y-92986589D01*
X106385313Y-92904411D01*
X106218490Y-92853805D01*
X106045000Y-92836718D01*
X105871511Y-92853805D01*
X105704688Y-92904411D01*
X105550942Y-92986589D01*
X105416184Y-93097183D01*
X105305590Y-93231941D01*
X105223412Y-93385687D01*
X105172806Y-93552510D01*
X105160001Y-93682523D01*
X105160000Y-95547472D01*
X80543000Y-95547472D01*
X80543000Y-87799297D01*
X127664000Y-87799297D01*
X127664000Y-87968703D01*
X127697049Y-88134853D01*
X127761878Y-88291363D01*
X127855995Y-88432218D01*
X127975782Y-88552005D01*
X128116637Y-88646122D01*
X128273147Y-88710951D01*
X128439297Y-88744000D01*
X128608703Y-88744000D01*
X128734388Y-88719000D01*
X133012610Y-88719000D01*
X133138295Y-88744000D01*
X133307701Y-88744000D01*
X133473851Y-88710951D01*
X133630361Y-88646122D01*
X133771216Y-88552005D01*
X133891003Y-88432218D01*
X133985120Y-88291363D01*
X134049949Y-88134853D01*
X134082998Y-87968703D01*
X134082998Y-87799297D01*
X134049949Y-87633147D01*
X133985120Y-87476637D01*
X133891003Y-87335782D01*
X133771216Y-87215995D01*
X133630361Y-87121878D01*
X133473851Y-87057049D01*
X133307701Y-87024000D01*
X133138295Y-87024000D01*
X133012610Y-87049000D01*
X128734388Y-87049000D01*
X128608703Y-87024000D01*
X128439297Y-87024000D01*
X128273147Y-87057049D01*
X128116637Y-87121878D01*
X127975782Y-87215995D01*
X127855995Y-87335782D01*
X127761878Y-87476637D01*
X127697049Y-87633147D01*
X127664000Y-87799297D01*
X80543000Y-87799297D01*
X80543000Y-86148297D01*
X144682000Y-86148297D01*
X144682000Y-86317703D01*
X144707000Y-86443388D01*
X144707001Y-88562608D01*
X144682000Y-88688297D01*
X144682000Y-88857703D01*
X144715049Y-89023853D01*
X144779878Y-89180363D01*
X144873995Y-89321218D01*
X144993782Y-89441005D01*
X145134637Y-89535122D01*
X145291147Y-89599951D01*
X145457297Y-89633000D01*
X145626703Y-89633000D01*
X145792853Y-89599951D01*
X145949363Y-89535122D01*
X146050000Y-89467878D01*
X146150637Y-89535122D01*
X146307147Y-89599951D01*
X146473297Y-89633000D01*
X146642703Y-89633000D01*
X146808853Y-89599951D01*
X146965363Y-89535122D01*
X147066000Y-89467878D01*
X147166637Y-89535122D01*
X147323147Y-89599951D01*
X147489297Y-89633000D01*
X147658703Y-89633000D01*
X147824853Y-89599951D01*
X147981363Y-89535122D01*
X148122218Y-89441005D01*
X148242005Y-89321218D01*
X148336122Y-89180363D01*
X148400951Y-89023853D01*
X148434000Y-88857703D01*
X148434000Y-88688297D01*
X148409000Y-88562612D01*
X148409000Y-86443388D01*
X148434000Y-86317703D01*
X148434000Y-86148297D01*
X148400951Y-85982147D01*
X148336122Y-85825637D01*
X148242005Y-85684782D01*
X148122218Y-85564995D01*
X147981363Y-85470878D01*
X147824853Y-85406049D01*
X147658703Y-85373000D01*
X147489297Y-85373000D01*
X147323147Y-85406049D01*
X147166637Y-85470878D01*
X147066000Y-85538122D01*
X146965363Y-85470878D01*
X146808853Y-85406049D01*
X146642703Y-85373000D01*
X146473297Y-85373000D01*
X146307147Y-85406049D01*
X146150637Y-85470878D01*
X146050000Y-85538122D01*
X145949363Y-85470878D01*
X145792853Y-85406049D01*
X145626703Y-85373000D01*
X145457297Y-85373000D01*
X145291147Y-85406049D01*
X145134637Y-85470878D01*
X144993782Y-85564995D01*
X144873995Y-85684782D01*
X144779878Y-85825637D01*
X144715049Y-85982147D01*
X144682000Y-86148297D01*
X80543000Y-86148297D01*
X80543000Y-80052297D01*
X125885988Y-80052297D01*
X125885988Y-80221703D01*
X125919037Y-80387853D01*
X125983866Y-80544363D01*
X126077983Y-80685218D01*
X126197770Y-80805005D01*
X126338625Y-80899122D01*
X126495135Y-80963951D01*
X126661285Y-80997000D01*
X126810382Y-80997000D01*
X126817380Y-81032184D01*
X126882209Y-81188694D01*
X126976326Y-81329549D01*
X127096113Y-81449336D01*
X127236968Y-81543453D01*
X127393478Y-81608282D01*
X127559628Y-81641331D01*
X127729034Y-81641331D01*
X127854719Y-81616331D01*
X130773523Y-81616331D01*
X130852297Y-81632000D01*
X131021703Y-81632000D01*
X131187853Y-81598951D01*
X131344363Y-81534122D01*
X131485218Y-81440005D01*
X131605005Y-81320218D01*
X131699122Y-81179363D01*
X131763951Y-81022853D01*
X131797000Y-80856703D01*
X131797000Y-80687297D01*
X131763951Y-80521147D01*
X131736345Y-80454500D01*
X131763951Y-80387853D01*
X131797000Y-80221703D01*
X131797000Y-80052297D01*
X131763951Y-79886147D01*
X131699122Y-79729637D01*
X131605005Y-79588782D01*
X131485218Y-79468995D01*
X131344363Y-79374878D01*
X131187853Y-79310049D01*
X131021703Y-79277000D01*
X130852297Y-79277000D01*
X130726612Y-79302000D01*
X126956376Y-79302000D01*
X126830691Y-79277000D01*
X126661285Y-79277000D01*
X126495135Y-79310049D01*
X126338625Y-79374878D01*
X126197770Y-79468995D01*
X126077983Y-79588782D01*
X125983866Y-79729637D01*
X125919037Y-79886147D01*
X125885988Y-80052297D01*
X80543000Y-80052297D01*
X80543000Y-74568098D01*
X98707000Y-74568098D01*
X98707000Y-75037902D01*
X98798654Y-75498679D01*
X98978440Y-75932721D01*
X99239450Y-76323349D01*
X99571651Y-76655550D01*
X99962279Y-76916560D01*
X100396321Y-77096346D01*
X100857098Y-77188000D01*
X101326902Y-77188000D01*
X101787679Y-77096346D01*
X102221721Y-76916560D01*
X102408850Y-76791524D01*
X117161500Y-76791524D01*
X117161501Y-78275477D01*
X117174306Y-78405490D01*
X117224912Y-78572313D01*
X117307090Y-78726059D01*
X117417684Y-78860817D01*
X117552442Y-78971411D01*
X117706188Y-79053589D01*
X117873011Y-79104195D01*
X118046500Y-79121282D01*
X118219990Y-79104195D01*
X118386813Y-79053589D01*
X118540559Y-78971411D01*
X118588582Y-78931999D01*
X131757928Y-78931999D01*
X131757928Y-79582001D01*
X131774992Y-79755255D01*
X131825528Y-79921851D01*
X131907595Y-80075387D01*
X132018038Y-80209962D01*
X132152613Y-80320405D01*
X132306149Y-80402472D01*
X132472745Y-80453008D01*
X132645999Y-80470072D01*
X133546001Y-80470072D01*
X133719255Y-80453008D01*
X133885851Y-80402472D01*
X134039387Y-80320405D01*
X134112000Y-80260813D01*
X134184613Y-80320405D01*
X134338149Y-80402472D01*
X134504745Y-80453008D01*
X134677999Y-80470072D01*
X135578001Y-80470072D01*
X135751255Y-80453008D01*
X135917851Y-80402472D01*
X136071387Y-80320405D01*
X136144000Y-80260813D01*
X136216613Y-80320405D01*
X136312284Y-80371542D01*
X136300000Y-80433297D01*
X136300000Y-80602703D01*
X136333049Y-80768853D01*
X136397878Y-80925363D01*
X136491995Y-81066218D01*
X136611782Y-81186005D01*
X136752637Y-81280122D01*
X136909147Y-81344951D01*
X137075297Y-81378000D01*
X137244703Y-81378000D01*
X137410853Y-81344951D01*
X137567363Y-81280122D01*
X137708218Y-81186005D01*
X137828005Y-81066218D01*
X137922122Y-80925363D01*
X137986951Y-80768853D01*
X138020000Y-80602703D01*
X138020000Y-80433297D01*
X138007716Y-80371542D01*
X138103387Y-80320405D01*
X138176000Y-80260813D01*
X138248613Y-80320405D01*
X138402149Y-80402472D01*
X138568745Y-80453008D01*
X138741999Y-80470072D01*
X139642001Y-80470072D01*
X139815255Y-80453008D01*
X139981851Y-80402472D01*
X140135387Y-80320405D01*
X140269962Y-80209962D01*
X140380405Y-80075387D01*
X140462472Y-79921851D01*
X140513008Y-79755255D01*
X140530072Y-79582001D01*
X140530072Y-78931999D01*
X140513008Y-78758745D01*
X140462472Y-78592149D01*
X140380405Y-78438613D01*
X140269962Y-78304038D01*
X140135387Y-78193595D01*
X139981851Y-78111528D01*
X139815255Y-78060992D01*
X139642001Y-78043928D01*
X138741999Y-78043928D01*
X138568745Y-78060992D01*
X138402149Y-78111528D01*
X138248613Y-78193595D01*
X138176000Y-78253187D01*
X138103387Y-78193595D01*
X137949851Y-78111528D01*
X137783255Y-78060992D01*
X137610001Y-78043928D01*
X136709999Y-78043928D01*
X136536745Y-78060992D01*
X136370149Y-78111528D01*
X136216613Y-78193595D01*
X136144000Y-78253187D01*
X136071387Y-78193595D01*
X135917851Y-78111528D01*
X135751255Y-78060992D01*
X135578001Y-78043928D01*
X134677999Y-78043928D01*
X134504745Y-78060992D01*
X134338149Y-78111528D01*
X134184613Y-78193595D01*
X134112000Y-78253187D01*
X134039387Y-78193595D01*
X133885851Y-78111528D01*
X133719255Y-78060992D01*
X133546001Y-78043928D01*
X132645999Y-78043928D01*
X132472745Y-78060992D01*
X132306149Y-78111528D01*
X132152613Y-78193595D01*
X132018038Y-78304038D01*
X131907595Y-78438613D01*
X131825528Y-78592149D01*
X131774992Y-78758745D01*
X131757928Y-78931999D01*
X118588582Y-78931999D01*
X118675317Y-78860817D01*
X118785911Y-78726059D01*
X118868089Y-78572313D01*
X118918695Y-78405490D01*
X118931500Y-78275477D01*
X118931500Y-77385297D01*
X144682000Y-77385297D01*
X144682000Y-77554703D01*
X144707001Y-77680392D01*
X144707000Y-79418610D01*
X144682000Y-79544295D01*
X144682000Y-79713701D01*
X144715049Y-79879851D01*
X144779878Y-80036361D01*
X144873995Y-80177216D01*
X144993782Y-80297003D01*
X145134637Y-80391120D01*
X145291147Y-80455949D01*
X145457297Y-80488998D01*
X145626703Y-80488998D01*
X145792853Y-80455949D01*
X145949363Y-80391120D01*
X146049999Y-80323877D01*
X146150637Y-80391122D01*
X146307147Y-80455951D01*
X146473297Y-80489000D01*
X146642703Y-80489000D01*
X146808853Y-80455951D01*
X146965363Y-80391122D01*
X147106218Y-80297005D01*
X147226005Y-80177218D01*
X147320122Y-80036363D01*
X147384951Y-79879853D01*
X147418000Y-79713703D01*
X147418000Y-79544297D01*
X147393000Y-79418612D01*
X147393000Y-77680388D01*
X147418000Y-77554703D01*
X147418000Y-77385297D01*
X147384951Y-77219147D01*
X147320122Y-77062637D01*
X147226005Y-76921782D01*
X147106218Y-76801995D01*
X146965363Y-76707878D01*
X146808853Y-76643049D01*
X146642703Y-76610000D01*
X146473297Y-76610000D01*
X146307147Y-76643049D01*
X146150637Y-76707878D01*
X146050000Y-76775122D01*
X145949363Y-76707878D01*
X145792853Y-76643049D01*
X145626703Y-76610000D01*
X145457297Y-76610000D01*
X145291147Y-76643049D01*
X145134637Y-76707878D01*
X144993782Y-76801995D01*
X144873995Y-76921782D01*
X144779878Y-77062637D01*
X144715049Y-77219147D01*
X144682000Y-77385297D01*
X118931500Y-77385297D01*
X118931500Y-76791523D01*
X118918695Y-76661510D01*
X118868089Y-76494687D01*
X118785911Y-76340941D01*
X118675317Y-76206183D01*
X118540558Y-76095589D01*
X118386812Y-76013411D01*
X118219989Y-75962805D01*
X118046500Y-75945718D01*
X117873010Y-75962805D01*
X117706187Y-76013411D01*
X117552441Y-76095589D01*
X117417683Y-76206183D01*
X117307089Y-76340942D01*
X117224911Y-76494688D01*
X117174305Y-76661511D01*
X117161500Y-76791524D01*
X102408850Y-76791524D01*
X102612349Y-76655550D01*
X102944550Y-76323349D01*
X103205560Y-75932721D01*
X103385346Y-75498679D01*
X103477000Y-75037902D01*
X103477000Y-74568098D01*
X103385346Y-74107321D01*
X103205560Y-73673279D01*
X103005787Y-73374298D01*
X107063600Y-73374298D01*
X107063600Y-73844102D01*
X107155254Y-74304879D01*
X107335040Y-74738921D01*
X107596050Y-75129549D01*
X107928251Y-75461750D01*
X108318879Y-75722760D01*
X108752921Y-75902546D01*
X109213698Y-75994200D01*
X109683502Y-75994200D01*
X110144279Y-75902546D01*
X110578321Y-75722760D01*
X110968949Y-75461750D01*
X111301150Y-75129549D01*
X111562160Y-74738921D01*
X111643438Y-74542698D01*
X119281000Y-74542698D01*
X119281000Y-75012502D01*
X119372654Y-75473279D01*
X119552440Y-75907321D01*
X119813450Y-76297949D01*
X120145651Y-76630150D01*
X120536279Y-76891160D01*
X120970321Y-77070946D01*
X121431098Y-77162600D01*
X121900902Y-77162600D01*
X122361679Y-77070946D01*
X122795721Y-76891160D01*
X123186349Y-76630150D01*
X123518550Y-76297949D01*
X123779560Y-75907321D01*
X123959346Y-75473279D01*
X124051000Y-75012502D01*
X124051000Y-74542698D01*
X123959346Y-74081921D01*
X123779560Y-73647879D01*
X123579787Y-73348898D01*
X127637600Y-73348898D01*
X127637600Y-73818702D01*
X127729254Y-74279479D01*
X127909040Y-74713521D01*
X128170050Y-75104149D01*
X128502251Y-75436350D01*
X128892879Y-75697360D01*
X129326921Y-75877146D01*
X129787698Y-75968800D01*
X130257502Y-75968800D01*
X130718279Y-75877146D01*
X131152321Y-75697360D01*
X131542949Y-75436350D01*
X131875150Y-75104149D01*
X132136160Y-74713521D01*
X132206917Y-74542698D01*
X139855000Y-74542698D01*
X139855000Y-75012502D01*
X139946654Y-75473279D01*
X140126440Y-75907321D01*
X140387450Y-76297949D01*
X140719651Y-76630150D01*
X141110279Y-76891160D01*
X141544321Y-77070946D01*
X142005098Y-77162600D01*
X142474902Y-77162600D01*
X142935679Y-77070946D01*
X143369721Y-76891160D01*
X143760349Y-76630150D01*
X144092550Y-76297949D01*
X144353560Y-75907321D01*
X144533346Y-75473279D01*
X144625000Y-75012502D01*
X144625000Y-74542698D01*
X144533346Y-74081921D01*
X144353560Y-73647879D01*
X144153787Y-73348898D01*
X148211600Y-73348898D01*
X148211600Y-73818702D01*
X148303254Y-74279479D01*
X148483040Y-74713521D01*
X148744050Y-75104149D01*
X149076251Y-75436350D01*
X149466879Y-75697360D01*
X149900921Y-75877146D01*
X150361698Y-75968800D01*
X150831502Y-75968800D01*
X151292279Y-75877146D01*
X151726321Y-75697360D01*
X152116949Y-75436350D01*
X152449150Y-75104149D01*
X152710160Y-74713521D01*
X152780917Y-74542698D01*
X160429000Y-74542698D01*
X160429000Y-75012502D01*
X160520654Y-75473279D01*
X160700440Y-75907321D01*
X160961450Y-76297949D01*
X161293651Y-76630150D01*
X161684279Y-76891160D01*
X162118321Y-77070946D01*
X162579098Y-77162600D01*
X163048902Y-77162600D01*
X163509679Y-77070946D01*
X163943721Y-76891160D01*
X164334349Y-76630150D01*
X164666550Y-76297949D01*
X164927560Y-75907321D01*
X165107346Y-75473279D01*
X165199000Y-75012502D01*
X165199000Y-74542698D01*
X165107346Y-74081921D01*
X164927560Y-73647879D01*
X164727787Y-73348898D01*
X168785600Y-73348898D01*
X168785600Y-73818702D01*
X168877254Y-74279479D01*
X169057040Y-74713521D01*
X169318050Y-75104149D01*
X169650251Y-75436350D01*
X170040879Y-75697360D01*
X170474921Y-75877146D01*
X170935698Y-75968800D01*
X171405502Y-75968800D01*
X171866279Y-75877146D01*
X172300321Y-75697360D01*
X172690949Y-75436350D01*
X173023150Y-75104149D01*
X173284160Y-74713521D01*
X173463946Y-74279479D01*
X173555600Y-73818702D01*
X173555600Y-73348898D01*
X173463946Y-72888121D01*
X173284160Y-72454079D01*
X173023150Y-72063451D01*
X172690949Y-71731250D01*
X172300321Y-71470240D01*
X171866279Y-71290454D01*
X171405502Y-71198800D01*
X170935698Y-71198800D01*
X170474921Y-71290454D01*
X170040879Y-71470240D01*
X169650251Y-71731250D01*
X169318050Y-72063451D01*
X169057040Y-72454079D01*
X168877254Y-72888121D01*
X168785600Y-73348898D01*
X164727787Y-73348898D01*
X164666550Y-73257251D01*
X164334349Y-72925050D01*
X163943721Y-72664040D01*
X163509679Y-72484254D01*
X163048902Y-72392600D01*
X162579098Y-72392600D01*
X162118321Y-72484254D01*
X161684279Y-72664040D01*
X161293651Y-72925050D01*
X160961450Y-73257251D01*
X160700440Y-73647879D01*
X160520654Y-74081921D01*
X160429000Y-74542698D01*
X152780917Y-74542698D01*
X152889946Y-74279479D01*
X152981600Y-73818702D01*
X152981600Y-73348898D01*
X152889946Y-72888121D01*
X152710160Y-72454079D01*
X152449150Y-72063451D01*
X152116949Y-71731250D01*
X151726321Y-71470240D01*
X151292279Y-71290454D01*
X150831502Y-71198800D01*
X150361698Y-71198800D01*
X149900921Y-71290454D01*
X149466879Y-71470240D01*
X149076251Y-71731250D01*
X148744050Y-72063451D01*
X148483040Y-72454079D01*
X148303254Y-72888121D01*
X148211600Y-73348898D01*
X144153787Y-73348898D01*
X144092550Y-73257251D01*
X143760349Y-72925050D01*
X143369721Y-72664040D01*
X142935679Y-72484254D01*
X142474902Y-72392600D01*
X142005098Y-72392600D01*
X141544321Y-72484254D01*
X141110279Y-72664040D01*
X140719651Y-72925050D01*
X140387450Y-73257251D01*
X140126440Y-73647879D01*
X139946654Y-74081921D01*
X139855000Y-74542698D01*
X132206917Y-74542698D01*
X132315946Y-74279479D01*
X132407600Y-73818702D01*
X132407600Y-73348898D01*
X132315946Y-72888121D01*
X132136160Y-72454079D01*
X131875150Y-72063451D01*
X131542949Y-71731250D01*
X131152321Y-71470240D01*
X130718279Y-71290454D01*
X130257502Y-71198800D01*
X129787698Y-71198800D01*
X129326921Y-71290454D01*
X128892879Y-71470240D01*
X128502251Y-71731250D01*
X128170050Y-72063451D01*
X127909040Y-72454079D01*
X127729254Y-72888121D01*
X127637600Y-73348898D01*
X123579787Y-73348898D01*
X123518550Y-73257251D01*
X123186349Y-72925050D01*
X122795721Y-72664040D01*
X122361679Y-72484254D01*
X121900902Y-72392600D01*
X121431098Y-72392600D01*
X120970321Y-72484254D01*
X120536279Y-72664040D01*
X120145651Y-72925050D01*
X119813450Y-73257251D01*
X119552440Y-73647879D01*
X119372654Y-74081921D01*
X119281000Y-74542698D01*
X111643438Y-74542698D01*
X111741946Y-74304879D01*
X111833600Y-73844102D01*
X111833600Y-73374298D01*
X111741946Y-72913521D01*
X111562160Y-72479479D01*
X111417516Y-72263004D01*
X115061719Y-72263004D01*
X115078805Y-72436494D01*
X115129412Y-72603317D01*
X115211590Y-72757063D01*
X115322183Y-72891821D01*
X115456941Y-73002414D01*
X115610687Y-73084592D01*
X115777510Y-73135199D01*
X115951000Y-73152285D01*
X115994510Y-73148000D01*
X119169477Y-73148000D01*
X119299490Y-73135195D01*
X119466313Y-73084589D01*
X119620059Y-73002411D01*
X119754817Y-72891817D01*
X119865411Y-72757059D01*
X119947589Y-72603313D01*
X119998195Y-72436490D01*
X120015282Y-72263000D01*
X119998195Y-72089510D01*
X119947589Y-71922687D01*
X119865411Y-71768941D01*
X119754817Y-71634183D01*
X119620059Y-71523589D01*
X119466313Y-71441411D01*
X119299490Y-71390805D01*
X119169477Y-71378000D01*
X115994473Y-71378000D01*
X115951004Y-71373719D01*
X115907535Y-71378000D01*
X115907527Y-71378000D01*
X115777514Y-71390805D01*
X115610691Y-71441411D01*
X115456945Y-71523589D01*
X115322187Y-71634183D01*
X115294470Y-71667956D01*
X115294468Y-71667958D01*
X115256037Y-71714786D01*
X115242526Y-71731250D01*
X115211590Y-71768945D01*
X115129412Y-71922691D01*
X115078805Y-72089514D01*
X115061719Y-72263004D01*
X111417516Y-72263004D01*
X111301150Y-72088851D01*
X110968949Y-71756650D01*
X110578321Y-71495640D01*
X110144279Y-71315854D01*
X109683502Y-71224200D01*
X109213698Y-71224200D01*
X108752921Y-71315854D01*
X108318879Y-71495640D01*
X107928251Y-71756650D01*
X107596050Y-72088851D01*
X107335040Y-72479479D01*
X107155254Y-72913521D01*
X107063600Y-73374298D01*
X103005787Y-73374298D01*
X102944550Y-73282651D01*
X102612349Y-72950450D01*
X102221721Y-72689440D01*
X101787679Y-72509654D01*
X101326902Y-72418000D01*
X100857098Y-72418000D01*
X100396321Y-72509654D01*
X99962279Y-72689440D01*
X99571651Y-72950450D01*
X99239450Y-73282651D01*
X98978440Y-73673279D01*
X98798654Y-74107321D01*
X98707000Y-74568098D01*
X80543000Y-74568098D01*
X80543000Y-69283344D01*
X101645400Y-69283344D01*
X101645400Y-69654656D01*
X101717839Y-70018834D01*
X101859934Y-70361882D01*
X102066225Y-70670618D01*
X102328782Y-70933175D01*
X102637518Y-71139466D01*
X102980566Y-71281561D01*
X103344744Y-71354000D01*
X103716056Y-71354000D01*
X104080234Y-71281561D01*
X104423282Y-71139466D01*
X104732018Y-70933175D01*
X104994575Y-70670618D01*
X105200866Y-70361882D01*
X105283000Y-70163593D01*
X105365134Y-70361882D01*
X105571425Y-70670618D01*
X105833982Y-70933175D01*
X106142718Y-71139466D01*
X106485766Y-71281561D01*
X106849944Y-71354000D01*
X107221256Y-71354000D01*
X107585434Y-71281561D01*
X107928482Y-71139466D01*
X108237218Y-70933175D01*
X108499775Y-70670618D01*
X108706066Y-70361882D01*
X108848161Y-70018834D01*
X108920600Y-69654656D01*
X108920600Y-69283344D01*
X108915548Y-69257944D01*
X122219400Y-69257944D01*
X122219400Y-69629256D01*
X122291839Y-69993434D01*
X122433934Y-70336482D01*
X122640225Y-70645218D01*
X122902782Y-70907775D01*
X123211518Y-71114066D01*
X123554566Y-71256161D01*
X123918744Y-71328600D01*
X124290056Y-71328600D01*
X124654234Y-71256161D01*
X124997282Y-71114066D01*
X125306018Y-70907775D01*
X125568575Y-70645218D01*
X125774866Y-70336482D01*
X125857000Y-70138193D01*
X125939134Y-70336482D01*
X126145425Y-70645218D01*
X126407982Y-70907775D01*
X126716718Y-71114066D01*
X127059766Y-71256161D01*
X127423944Y-71328600D01*
X127795256Y-71328600D01*
X128159434Y-71256161D01*
X128502482Y-71114066D01*
X128811218Y-70907775D01*
X129073775Y-70645218D01*
X129280066Y-70336482D01*
X129422161Y-69993434D01*
X129494600Y-69629256D01*
X129494600Y-69257944D01*
X142793400Y-69257944D01*
X142793400Y-69629256D01*
X142865839Y-69993434D01*
X143007934Y-70336482D01*
X143214225Y-70645218D01*
X143476782Y-70907775D01*
X143785518Y-71114066D01*
X144128566Y-71256161D01*
X144492744Y-71328600D01*
X144864056Y-71328600D01*
X145228234Y-71256161D01*
X145571282Y-71114066D01*
X145880018Y-70907775D01*
X146142575Y-70645218D01*
X146348866Y-70336482D01*
X146431000Y-70138193D01*
X146513134Y-70336482D01*
X146719425Y-70645218D01*
X146981982Y-70907775D01*
X147290718Y-71114066D01*
X147633766Y-71256161D01*
X147997944Y-71328600D01*
X148369256Y-71328600D01*
X148733434Y-71256161D01*
X149076482Y-71114066D01*
X149385218Y-70907775D01*
X149647775Y-70645218D01*
X149854066Y-70336482D01*
X149996161Y-69993434D01*
X150068600Y-69629256D01*
X150068600Y-69257944D01*
X163367400Y-69257944D01*
X163367400Y-69629256D01*
X163439839Y-69993434D01*
X163581934Y-70336482D01*
X163788225Y-70645218D01*
X164050782Y-70907775D01*
X164359518Y-71114066D01*
X164702566Y-71256161D01*
X165066744Y-71328600D01*
X165438056Y-71328600D01*
X165802234Y-71256161D01*
X166145282Y-71114066D01*
X166454018Y-70907775D01*
X166716575Y-70645218D01*
X166922866Y-70336482D01*
X167005000Y-70138193D01*
X167087134Y-70336482D01*
X167293425Y-70645218D01*
X167555982Y-70907775D01*
X167864718Y-71114066D01*
X168207766Y-71256161D01*
X168571944Y-71328600D01*
X168943256Y-71328600D01*
X169307434Y-71256161D01*
X169650482Y-71114066D01*
X169959218Y-70907775D01*
X170221775Y-70645218D01*
X170428066Y-70336482D01*
X170570161Y-69993434D01*
X170642600Y-69629256D01*
X170642600Y-69257944D01*
X170570161Y-68893766D01*
X170428066Y-68550718D01*
X170221775Y-68241982D01*
X169959218Y-67979425D01*
X169650482Y-67773134D01*
X169307434Y-67631039D01*
X168943256Y-67558600D01*
X168571944Y-67558600D01*
X168207766Y-67631039D01*
X167864718Y-67773134D01*
X167555982Y-67979425D01*
X167293425Y-68241982D01*
X167087134Y-68550718D01*
X167005000Y-68749007D01*
X166922866Y-68550718D01*
X166716575Y-68241982D01*
X166454018Y-67979425D01*
X166145282Y-67773134D01*
X165802234Y-67631039D01*
X165438056Y-67558600D01*
X165066744Y-67558600D01*
X164702566Y-67631039D01*
X164359518Y-67773134D01*
X164050782Y-67979425D01*
X163788225Y-68241982D01*
X163581934Y-68550718D01*
X163439839Y-68893766D01*
X163367400Y-69257944D01*
X150068600Y-69257944D01*
X149996161Y-68893766D01*
X149854066Y-68550718D01*
X149647775Y-68241982D01*
X149385218Y-67979425D01*
X149076482Y-67773134D01*
X148733434Y-67631039D01*
X148369256Y-67558600D01*
X147997944Y-67558600D01*
X147633766Y-67631039D01*
X147290718Y-67773134D01*
X146981982Y-67979425D01*
X146719425Y-68241982D01*
X146513134Y-68550718D01*
X146431000Y-68749007D01*
X146348866Y-68550718D01*
X146142575Y-68241982D01*
X145880018Y-67979425D01*
X145571282Y-67773134D01*
X145228234Y-67631039D01*
X144864056Y-67558600D01*
X144492744Y-67558600D01*
X144128566Y-67631039D01*
X143785518Y-67773134D01*
X143476782Y-67979425D01*
X143214225Y-68241982D01*
X143007934Y-68550718D01*
X142865839Y-68893766D01*
X142793400Y-69257944D01*
X129494600Y-69257944D01*
X129422161Y-68893766D01*
X129280066Y-68550718D01*
X129073775Y-68241982D01*
X128811218Y-67979425D01*
X128502482Y-67773134D01*
X128159434Y-67631039D01*
X127795256Y-67558600D01*
X127423944Y-67558600D01*
X127059766Y-67631039D01*
X126716718Y-67773134D01*
X126407982Y-67979425D01*
X126145425Y-68241982D01*
X125939134Y-68550718D01*
X125857000Y-68749007D01*
X125774866Y-68550718D01*
X125568575Y-68241982D01*
X125306018Y-67979425D01*
X124997282Y-67773134D01*
X124654234Y-67631039D01*
X124290056Y-67558600D01*
X123918744Y-67558600D01*
X123554566Y-67631039D01*
X123211518Y-67773134D01*
X122902782Y-67979425D01*
X122640225Y-68241982D01*
X122433934Y-68550718D01*
X122291839Y-68893766D01*
X122219400Y-69257944D01*
X108915548Y-69257944D01*
X108848161Y-68919166D01*
X108706066Y-68576118D01*
X108499775Y-68267382D01*
X108237218Y-68004825D01*
X107928482Y-67798534D01*
X107585434Y-67656439D01*
X107221256Y-67584000D01*
X106849944Y-67584000D01*
X106485766Y-67656439D01*
X106142718Y-67798534D01*
X105833982Y-68004825D01*
X105571425Y-68267382D01*
X105365134Y-68576118D01*
X105283000Y-68774407D01*
X105200866Y-68576118D01*
X104994575Y-68267382D01*
X104732018Y-68004825D01*
X104423282Y-67798534D01*
X104080234Y-67656439D01*
X103716056Y-67584000D01*
X103344744Y-67584000D01*
X102980566Y-67656439D01*
X102637518Y-67798534D01*
X102328782Y-68004825D01*
X102066225Y-68267382D01*
X101859934Y-68576118D01*
X101717839Y-68919166D01*
X101645400Y-69283344D01*
X80543000Y-69283344D01*
X80543000Y-61448221D01*
X95909000Y-61448221D01*
X95909000Y-61868779D01*
X95991047Y-62281256D01*
X96151988Y-62669802D01*
X96385637Y-63019483D01*
X96683017Y-63316863D01*
X97032698Y-63550512D01*
X97421244Y-63711453D01*
X97833721Y-63793500D01*
X98254279Y-63793500D01*
X98666756Y-63711453D01*
X99055302Y-63550512D01*
X99404983Y-63316863D01*
X99702363Y-63019483D01*
X99936012Y-62669802D01*
X100096953Y-62281256D01*
X100179000Y-61868779D01*
X100179000Y-61448221D01*
X116483000Y-61448221D01*
X116483000Y-61868779D01*
X116565047Y-62281256D01*
X116725988Y-62669802D01*
X116959637Y-63019483D01*
X117257017Y-63316863D01*
X117606698Y-63550512D01*
X117995244Y-63711453D01*
X118407721Y-63793500D01*
X118828279Y-63793500D01*
X119240756Y-63711453D01*
X119629302Y-63550512D01*
X119978983Y-63316863D01*
X120276363Y-63019483D01*
X120510012Y-62669802D01*
X120670953Y-62281256D01*
X120753000Y-61868779D01*
X120753000Y-61448221D01*
X137057000Y-61448221D01*
X137057000Y-61868779D01*
X137139047Y-62281256D01*
X137299988Y-62669802D01*
X137533637Y-63019483D01*
X137831017Y-63316863D01*
X138180698Y-63550512D01*
X138569244Y-63711453D01*
X138981721Y-63793500D01*
X139402279Y-63793500D01*
X139814756Y-63711453D01*
X140203302Y-63550512D01*
X140552983Y-63316863D01*
X140850363Y-63019483D01*
X141084012Y-62669802D01*
X141244953Y-62281256D01*
X141327000Y-61868779D01*
X141327000Y-61448221D01*
X141314370Y-61384721D01*
X157631000Y-61384721D01*
X157631000Y-61805279D01*
X157713047Y-62217756D01*
X157873988Y-62606302D01*
X158107637Y-62955983D01*
X158405017Y-63253363D01*
X158754698Y-63487012D01*
X159143244Y-63647953D01*
X159555721Y-63730000D01*
X159976279Y-63730000D01*
X160388756Y-63647953D01*
X160777302Y-63487012D01*
X161126983Y-63253363D01*
X161424363Y-62955983D01*
X161658012Y-62606302D01*
X161710328Y-62480000D01*
X164479422Y-62480000D01*
X165838453Y-63839032D01*
X165939440Y-63921910D01*
X166093186Y-64004088D01*
X166260009Y-64054694D01*
X166433499Y-64071781D01*
X166606990Y-64054694D01*
X166773813Y-64004088D01*
X166927559Y-63921910D01*
X167062317Y-63811317D01*
X167172910Y-63676559D01*
X167255088Y-63522813D01*
X167305694Y-63355990D01*
X167322781Y-63182499D01*
X167305694Y-63009009D01*
X167255088Y-62842186D01*
X167172910Y-62688440D01*
X167090032Y-62587453D01*
X165502534Y-60999956D01*
X165474817Y-60966183D01*
X165340059Y-60855589D01*
X165186313Y-60773411D01*
X165019490Y-60722805D01*
X164889477Y-60710000D01*
X164889469Y-60710000D01*
X164846000Y-60705719D01*
X164802531Y-60710000D01*
X161710328Y-60710000D01*
X161658012Y-60583698D01*
X161627205Y-60537592D01*
X161714721Y-60555000D01*
X162135279Y-60555000D01*
X162547756Y-60472953D01*
X162936302Y-60312012D01*
X163285983Y-60078363D01*
X163583363Y-59780983D01*
X163817012Y-59431302D01*
X163977953Y-59042756D01*
X164048120Y-58690000D01*
X186043428Y-58690000D01*
X186043428Y-60690000D01*
X186070099Y-60960799D01*
X186149089Y-61221192D01*
X186277360Y-61461171D01*
X186449985Y-61671515D01*
X186660329Y-61844140D01*
X186900308Y-61972411D01*
X187160701Y-62051401D01*
X187431500Y-62078072D01*
X188931500Y-62078072D01*
X189202299Y-62051401D01*
X189462692Y-61972411D01*
X189702671Y-61844140D01*
X189913015Y-61671515D01*
X190085640Y-61461171D01*
X190213911Y-61221192D01*
X190292901Y-60960799D01*
X190319572Y-60690000D01*
X190319572Y-58690000D01*
X190292901Y-58419201D01*
X190213911Y-58158808D01*
X190085640Y-57918829D01*
X189913015Y-57708485D01*
X189702671Y-57535860D01*
X189462692Y-57407589D01*
X189202299Y-57328599D01*
X188931500Y-57301928D01*
X187431500Y-57301928D01*
X187160701Y-57328599D01*
X186900308Y-57407589D01*
X186660329Y-57535860D01*
X186449985Y-57708485D01*
X186277360Y-57918829D01*
X186149089Y-58158808D01*
X186070099Y-58419201D01*
X186043428Y-58690000D01*
X164048120Y-58690000D01*
X164060000Y-58630279D01*
X164060000Y-58209721D01*
X163977953Y-57797244D01*
X163817012Y-57408698D01*
X163583363Y-57059017D01*
X163285983Y-56761637D01*
X162936302Y-56527988D01*
X162547756Y-56367047D01*
X162135279Y-56285000D01*
X161714721Y-56285000D01*
X161302244Y-56367047D01*
X160913698Y-56527988D01*
X160564017Y-56761637D01*
X160266637Y-57059017D01*
X160032988Y-57408698D01*
X159872047Y-57797244D01*
X159790000Y-58209721D01*
X159790000Y-58630279D01*
X159872047Y-59042756D01*
X160032988Y-59431302D01*
X160063795Y-59477408D01*
X159976279Y-59460000D01*
X159555721Y-59460000D01*
X159143244Y-59542047D01*
X158754698Y-59702988D01*
X158405017Y-59936637D01*
X158107637Y-60234017D01*
X157873988Y-60583698D01*
X157713047Y-60972244D01*
X157631000Y-61384721D01*
X141314370Y-61384721D01*
X141244953Y-61035744D01*
X141084012Y-60647198D01*
X141053205Y-60601092D01*
X141140721Y-60618500D01*
X141561279Y-60618500D01*
X141973756Y-60536453D01*
X142362302Y-60375512D01*
X142711983Y-60141863D01*
X143009363Y-59844483D01*
X143243012Y-59494802D01*
X143403953Y-59106256D01*
X143486000Y-58693779D01*
X143486000Y-58273221D01*
X143403953Y-57860744D01*
X143243012Y-57472198D01*
X143009363Y-57122517D01*
X142711983Y-56825137D01*
X142362302Y-56591488D01*
X141973756Y-56430547D01*
X141561279Y-56348500D01*
X141140721Y-56348500D01*
X140728244Y-56430547D01*
X140339698Y-56591488D01*
X139990017Y-56825137D01*
X139692637Y-57122517D01*
X139458988Y-57472198D01*
X139298047Y-57860744D01*
X139216000Y-58273221D01*
X139216000Y-58693779D01*
X139298047Y-59106256D01*
X139458988Y-59494802D01*
X139489795Y-59540908D01*
X139402279Y-59523500D01*
X138981721Y-59523500D01*
X138569244Y-59605547D01*
X138180698Y-59766488D01*
X137831017Y-60000137D01*
X137533637Y-60297517D01*
X137299988Y-60647198D01*
X137139047Y-61035744D01*
X137057000Y-61448221D01*
X120753000Y-61448221D01*
X120670953Y-61035744D01*
X120510012Y-60647198D01*
X120479205Y-60601092D01*
X120566721Y-60618500D01*
X120987279Y-60618500D01*
X121399756Y-60536453D01*
X121788302Y-60375512D01*
X122137983Y-60141863D01*
X122435363Y-59844483D01*
X122669012Y-59494802D01*
X122829953Y-59106256D01*
X122912000Y-58693779D01*
X122912000Y-58273221D01*
X122829953Y-57860744D01*
X122669012Y-57472198D01*
X122435363Y-57122517D01*
X122137983Y-56825137D01*
X121788302Y-56591488D01*
X121399756Y-56430547D01*
X120987279Y-56348500D01*
X120566721Y-56348500D01*
X120154244Y-56430547D01*
X119765698Y-56591488D01*
X119416017Y-56825137D01*
X119118637Y-57122517D01*
X118884988Y-57472198D01*
X118724047Y-57860744D01*
X118642000Y-58273221D01*
X118642000Y-58693779D01*
X118724047Y-59106256D01*
X118884988Y-59494802D01*
X118915795Y-59540908D01*
X118828279Y-59523500D01*
X118407721Y-59523500D01*
X117995244Y-59605547D01*
X117606698Y-59766488D01*
X117257017Y-60000137D01*
X116959637Y-60297517D01*
X116725988Y-60647198D01*
X116565047Y-61035744D01*
X116483000Y-61448221D01*
X100179000Y-61448221D01*
X100096953Y-61035744D01*
X99936012Y-60647198D01*
X99905205Y-60601092D01*
X99992721Y-60618500D01*
X100413279Y-60618500D01*
X100825756Y-60536453D01*
X101214302Y-60375512D01*
X101563983Y-60141863D01*
X101861363Y-59844483D01*
X102095012Y-59494802D01*
X102255953Y-59106256D01*
X102338000Y-58693779D01*
X102338000Y-58273221D01*
X102255953Y-57860744D01*
X102095012Y-57472198D01*
X101861363Y-57122517D01*
X101563983Y-56825137D01*
X101214302Y-56591488D01*
X100825756Y-56430547D01*
X100413279Y-56348500D01*
X99992721Y-56348500D01*
X99580244Y-56430547D01*
X99191698Y-56591488D01*
X98842017Y-56825137D01*
X98544637Y-57122517D01*
X98310988Y-57472198D01*
X98150047Y-57860744D01*
X98068000Y-58273221D01*
X98068000Y-58693779D01*
X98150047Y-59106256D01*
X98310988Y-59494802D01*
X98341795Y-59540908D01*
X98254279Y-59523500D01*
X97833721Y-59523500D01*
X97421244Y-59605547D01*
X97032698Y-59766488D01*
X96683017Y-60000137D01*
X96385637Y-60297517D01*
X96151988Y-60647198D01*
X95991047Y-61035744D01*
X95909000Y-61448221D01*
X80543000Y-61448221D01*
X80543000Y-51972467D01*
X96409000Y-51972467D01*
X96409000Y-52294533D01*
X96471832Y-52610412D01*
X96595082Y-52907963D01*
X96774013Y-53175752D01*
X97001748Y-53403487D01*
X97269537Y-53582418D01*
X97567088Y-53705668D01*
X97882967Y-53768500D01*
X98205033Y-53768500D01*
X98520912Y-53705668D01*
X98818463Y-53582418D01*
X99086252Y-53403487D01*
X99313987Y-53175752D01*
X99492918Y-52907963D01*
X99616168Y-52610412D01*
X99679000Y-52294533D01*
X99679000Y-51972467D01*
X99616168Y-51656588D01*
X99492918Y-51359037D01*
X99313987Y-51091248D01*
X99086252Y-50863513D01*
X98818463Y-50684582D01*
X98520912Y-50561332D01*
X98205033Y-50498500D01*
X97882967Y-50498500D01*
X97567088Y-50561332D01*
X97269537Y-50684582D01*
X97001748Y-50863513D01*
X96774013Y-51091248D01*
X96595082Y-51359037D01*
X96471832Y-51656588D01*
X96409000Y-51972467D01*
X80543000Y-51972467D01*
X80543000Y-51327380D01*
X80791381Y-51079000D01*
X85946581Y-51079000D01*
X85979000Y-51082193D01*
X86011419Y-51079000D01*
X86108383Y-51069450D01*
X86232793Y-51031710D01*
X86347450Y-50970425D01*
X86447948Y-50887948D01*
X86530425Y-50787450D01*
X86591710Y-50672793D01*
X86629450Y-50548383D01*
X86642193Y-50419000D01*
X86639000Y-50386581D01*
X86639000Y-48508499D01*
X102046928Y-48508499D01*
X102046928Y-49408501D01*
X102063992Y-49581755D01*
X102114528Y-49748351D01*
X102196595Y-49901887D01*
X102307038Y-50036462D01*
X102441613Y-50146905D01*
X102595149Y-50228972D01*
X102761745Y-50279508D01*
X102934999Y-50296572D01*
X103585001Y-50296572D01*
X103758255Y-50279508D01*
X103881877Y-50242008D01*
X104084500Y-50444632D01*
X104084500Y-51212713D01*
X104075320Y-51215498D01*
X103965006Y-51274463D01*
X103868315Y-51353815D01*
X103788963Y-51450506D01*
X103729998Y-51560820D01*
X103693688Y-51680518D01*
X103681428Y-51805000D01*
X103681428Y-53605000D01*
X103693688Y-53729482D01*
X103729998Y-53849180D01*
X103788963Y-53959494D01*
X103868315Y-54056185D01*
X103965006Y-54135537D01*
X104075320Y-54194502D01*
X104093627Y-54200056D01*
X104027188Y-54266495D01*
X103859201Y-54517905D01*
X103743489Y-54797257D01*
X103684500Y-55093816D01*
X103684500Y-55396184D01*
X103743489Y-55692743D01*
X103859201Y-55972095D01*
X104027188Y-56223505D01*
X104240995Y-56437312D01*
X104492405Y-56605299D01*
X104771757Y-56721011D01*
X105068316Y-56780000D01*
X105370684Y-56780000D01*
X105667243Y-56721011D01*
X105946595Y-56605299D01*
X106198005Y-56437312D01*
X106411812Y-56223505D01*
X106579799Y-55972095D01*
X106695511Y-55692743D01*
X106754500Y-55396184D01*
X106754500Y-55093816D01*
X106695511Y-54797257D01*
X106579799Y-54517905D01*
X106411812Y-54266495D01*
X106345373Y-54200056D01*
X106363680Y-54194502D01*
X106473994Y-54135537D01*
X106570685Y-54056185D01*
X106650037Y-53959494D01*
X106709002Y-53849180D01*
X106745312Y-53729482D01*
X106757572Y-53605000D01*
X106757572Y-51972467D01*
X107839000Y-51972467D01*
X107839000Y-52294533D01*
X107901832Y-52610412D01*
X108025082Y-52907963D01*
X108204013Y-53175752D01*
X108431748Y-53403487D01*
X108699537Y-53582418D01*
X108997088Y-53705668D01*
X109312967Y-53768500D01*
X109635033Y-53768500D01*
X109950912Y-53705668D01*
X110248463Y-53582418D01*
X110516252Y-53403487D01*
X110743987Y-53175752D01*
X110922918Y-52907963D01*
X111046168Y-52610412D01*
X111109000Y-52294533D01*
X111109000Y-51972467D01*
X116983000Y-51972467D01*
X116983000Y-52294533D01*
X117045832Y-52610412D01*
X117169082Y-52907963D01*
X117348013Y-53175752D01*
X117575748Y-53403487D01*
X117843537Y-53582418D01*
X118141088Y-53705668D01*
X118456967Y-53768500D01*
X118779033Y-53768500D01*
X119094912Y-53705668D01*
X119392463Y-53582418D01*
X119660252Y-53403487D01*
X119887987Y-53175752D01*
X120066918Y-52907963D01*
X120190168Y-52610412D01*
X120253000Y-52294533D01*
X120253000Y-51972467D01*
X120190168Y-51656588D01*
X120066918Y-51359037D01*
X119887987Y-51091248D01*
X119660252Y-50863513D01*
X119392463Y-50684582D01*
X119094912Y-50561332D01*
X118779033Y-50498500D01*
X118456967Y-50498500D01*
X118141088Y-50561332D01*
X117843537Y-50684582D01*
X117575748Y-50863513D01*
X117348013Y-51091248D01*
X117169082Y-51359037D01*
X117045832Y-51656588D01*
X116983000Y-51972467D01*
X111109000Y-51972467D01*
X111046168Y-51656588D01*
X110922918Y-51359037D01*
X110743987Y-51091248D01*
X110516252Y-50863513D01*
X110248463Y-50684582D01*
X109950912Y-50561332D01*
X109635033Y-50498500D01*
X109312967Y-50498500D01*
X108997088Y-50561332D01*
X108699537Y-50684582D01*
X108431748Y-50863513D01*
X108204013Y-51091248D01*
X108025082Y-51359037D01*
X107901832Y-51656588D01*
X107839000Y-51972467D01*
X106757572Y-51972467D01*
X106757572Y-51805000D01*
X106745312Y-51680518D01*
X106709002Y-51560820D01*
X106650037Y-51450506D01*
X106570685Y-51353815D01*
X106473994Y-51274463D01*
X106363680Y-51215498D01*
X106354500Y-51212713D01*
X106354500Y-50030251D01*
X106359991Y-49974500D01*
X106347068Y-49843284D01*
X106338077Y-49752001D01*
X106273176Y-49538053D01*
X106167784Y-49340877D01*
X106025949Y-49168051D01*
X105982640Y-49132508D01*
X105358631Y-48508499D01*
X122684428Y-48508499D01*
X122684428Y-49408501D01*
X122701492Y-49581755D01*
X122752028Y-49748351D01*
X122834095Y-49901887D01*
X122944538Y-50036462D01*
X123079113Y-50146905D01*
X123232649Y-50228972D01*
X123399245Y-50279508D01*
X123572499Y-50296572D01*
X124222501Y-50296572D01*
X124253398Y-50293529D01*
X124722000Y-50762132D01*
X124722000Y-51339713D01*
X124712820Y-51342498D01*
X124602506Y-51401463D01*
X124505815Y-51480815D01*
X124426463Y-51577506D01*
X124367498Y-51687820D01*
X124331188Y-51807518D01*
X124318928Y-51932000D01*
X124318928Y-53732000D01*
X124331188Y-53856482D01*
X124367498Y-53976180D01*
X124426463Y-54086494D01*
X124505815Y-54183185D01*
X124602506Y-54262537D01*
X124712820Y-54321502D01*
X124731127Y-54327056D01*
X124664688Y-54393495D01*
X124496701Y-54644905D01*
X124380989Y-54924257D01*
X124322000Y-55220816D01*
X124322000Y-55523184D01*
X124380989Y-55819743D01*
X124496701Y-56099095D01*
X124664688Y-56350505D01*
X124878495Y-56564312D01*
X125129905Y-56732299D01*
X125409257Y-56848011D01*
X125705816Y-56907000D01*
X126008184Y-56907000D01*
X126304743Y-56848011D01*
X126584095Y-56732299D01*
X126835505Y-56564312D01*
X127049312Y-56350505D01*
X127217299Y-56099095D01*
X127333011Y-55819743D01*
X127392000Y-55523184D01*
X127392000Y-55220816D01*
X127333011Y-54924257D01*
X127217299Y-54644905D01*
X127049312Y-54393495D01*
X126982873Y-54327056D01*
X127001180Y-54321502D01*
X127111494Y-54262537D01*
X127208185Y-54183185D01*
X127287537Y-54086494D01*
X127346502Y-53976180D01*
X127382812Y-53856482D01*
X127395072Y-53732000D01*
X127395072Y-51972467D01*
X128413000Y-51972467D01*
X128413000Y-52294533D01*
X128475832Y-52610412D01*
X128599082Y-52907963D01*
X128778013Y-53175752D01*
X129005748Y-53403487D01*
X129273537Y-53582418D01*
X129571088Y-53705668D01*
X129886967Y-53768500D01*
X130209033Y-53768500D01*
X130524912Y-53705668D01*
X130822463Y-53582418D01*
X131090252Y-53403487D01*
X131317987Y-53175752D01*
X131496918Y-52907963D01*
X131620168Y-52610412D01*
X131683000Y-52294533D01*
X131683000Y-51972467D01*
X137557000Y-51972467D01*
X137557000Y-52294533D01*
X137619832Y-52610412D01*
X137743082Y-52907963D01*
X137922013Y-53175752D01*
X138149748Y-53403487D01*
X138417537Y-53582418D01*
X138715088Y-53705668D01*
X139030967Y-53768500D01*
X139353033Y-53768500D01*
X139668912Y-53705668D01*
X139966463Y-53582418D01*
X140234252Y-53403487D01*
X140461987Y-53175752D01*
X140640918Y-52907963D01*
X140764168Y-52610412D01*
X140827000Y-52294533D01*
X140827000Y-51972467D01*
X140764168Y-51656588D01*
X140640918Y-51359037D01*
X140461987Y-51091248D01*
X140234252Y-50863513D01*
X139966463Y-50684582D01*
X139668912Y-50561332D01*
X139353033Y-50498500D01*
X139030967Y-50498500D01*
X138715088Y-50561332D01*
X138417537Y-50684582D01*
X138149748Y-50863513D01*
X137922013Y-51091248D01*
X137743082Y-51359037D01*
X137619832Y-51656588D01*
X137557000Y-51972467D01*
X131683000Y-51972467D01*
X131620168Y-51656588D01*
X131496918Y-51359037D01*
X131317987Y-51091248D01*
X131090252Y-50863513D01*
X130822463Y-50684582D01*
X130524912Y-50561332D01*
X130209033Y-50498500D01*
X129886967Y-50498500D01*
X129571088Y-50561332D01*
X129273537Y-50684582D01*
X129005748Y-50863513D01*
X128778013Y-51091248D01*
X128599082Y-51359037D01*
X128475832Y-51656588D01*
X128413000Y-51972467D01*
X127395072Y-51972467D01*
X127395072Y-51932000D01*
X127382812Y-51807518D01*
X127346502Y-51687820D01*
X127287537Y-51577506D01*
X127208185Y-51480815D01*
X127111494Y-51401463D01*
X127001180Y-51342498D01*
X126992000Y-51339713D01*
X126992000Y-50347752D01*
X126997491Y-50292000D01*
X126975577Y-50069501D01*
X126910676Y-49855553D01*
X126805284Y-49658377D01*
X126805092Y-49658143D01*
X126663449Y-49485551D01*
X126620140Y-49450008D01*
X125678631Y-48508499D01*
X143385428Y-48508499D01*
X143385428Y-49408501D01*
X143402492Y-49581755D01*
X143453028Y-49748351D01*
X143535095Y-49901887D01*
X143645538Y-50036462D01*
X143780113Y-50146905D01*
X143933649Y-50228972D01*
X144100245Y-50279508D01*
X144273499Y-50296572D01*
X144923501Y-50296572D01*
X145096755Y-50279508D01*
X145171656Y-50256787D01*
X145296000Y-50381132D01*
X145296000Y-51339713D01*
X145286820Y-51342498D01*
X145176506Y-51401463D01*
X145079815Y-51480815D01*
X145000463Y-51577506D01*
X144941498Y-51687820D01*
X144905188Y-51807518D01*
X144892928Y-51932000D01*
X144892928Y-53732000D01*
X144905188Y-53856482D01*
X144941498Y-53976180D01*
X145000463Y-54086494D01*
X145079815Y-54183185D01*
X145176506Y-54262537D01*
X145286820Y-54321502D01*
X145305127Y-54327056D01*
X145238688Y-54393495D01*
X145070701Y-54644905D01*
X144954989Y-54924257D01*
X144896000Y-55220816D01*
X144896000Y-55523184D01*
X144954989Y-55819743D01*
X145070701Y-56099095D01*
X145238688Y-56350505D01*
X145452495Y-56564312D01*
X145703905Y-56732299D01*
X145983257Y-56848011D01*
X146279816Y-56907000D01*
X146582184Y-56907000D01*
X146878743Y-56848011D01*
X147158095Y-56732299D01*
X147409505Y-56564312D01*
X147623312Y-56350505D01*
X147791299Y-56099095D01*
X147907011Y-55819743D01*
X147966000Y-55523184D01*
X147966000Y-55220816D01*
X147907011Y-54924257D01*
X147791299Y-54644905D01*
X147623312Y-54393495D01*
X147556873Y-54327056D01*
X147575180Y-54321502D01*
X147685494Y-54262537D01*
X147782185Y-54183185D01*
X147861537Y-54086494D01*
X147920502Y-53976180D01*
X147956812Y-53856482D01*
X147969072Y-53732000D01*
X147969072Y-51972467D01*
X148987000Y-51972467D01*
X148987000Y-52294533D01*
X149049832Y-52610412D01*
X149173082Y-52907963D01*
X149352013Y-53175752D01*
X149579748Y-53403487D01*
X149847537Y-53582418D01*
X150145088Y-53705668D01*
X150460967Y-53768500D01*
X150783033Y-53768500D01*
X151098912Y-53705668D01*
X151396463Y-53582418D01*
X151664252Y-53403487D01*
X151891987Y-53175752D01*
X152070918Y-52907963D01*
X152194168Y-52610412D01*
X152257000Y-52294533D01*
X152257000Y-51972467D01*
X152244370Y-51908967D01*
X158131000Y-51908967D01*
X158131000Y-52231033D01*
X158193832Y-52546912D01*
X158317082Y-52844463D01*
X158496013Y-53112252D01*
X158723748Y-53339987D01*
X158991537Y-53518918D01*
X159289088Y-53642168D01*
X159604967Y-53705000D01*
X159927033Y-53705000D01*
X160242912Y-53642168D01*
X160540463Y-53518918D01*
X160808252Y-53339987D01*
X161035987Y-53112252D01*
X161214918Y-52844463D01*
X161338168Y-52546912D01*
X161401000Y-52231033D01*
X161401000Y-51908967D01*
X161338168Y-51593088D01*
X161214918Y-51295537D01*
X161035987Y-51027748D01*
X160808252Y-50800013D01*
X160540463Y-50621082D01*
X160242912Y-50497832D01*
X159927033Y-50435000D01*
X159604967Y-50435000D01*
X159289088Y-50497832D01*
X158991537Y-50621082D01*
X158723748Y-50800013D01*
X158496013Y-51027748D01*
X158317082Y-51295537D01*
X158193832Y-51593088D01*
X158131000Y-51908967D01*
X152244370Y-51908967D01*
X152194168Y-51656588D01*
X152070918Y-51359037D01*
X151891987Y-51091248D01*
X151664252Y-50863513D01*
X151396463Y-50684582D01*
X151098912Y-50561332D01*
X150783033Y-50498500D01*
X150460967Y-50498500D01*
X150145088Y-50561332D01*
X149847537Y-50684582D01*
X149579748Y-50863513D01*
X149352013Y-51091248D01*
X149173082Y-51359037D01*
X149049832Y-51656588D01*
X148987000Y-51972467D01*
X147969072Y-51972467D01*
X147969072Y-51932000D01*
X147956812Y-51807518D01*
X147920502Y-51687820D01*
X147861537Y-51577506D01*
X147782185Y-51480815D01*
X147685494Y-51401463D01*
X147575180Y-51342498D01*
X147566000Y-51339713D01*
X147566000Y-49966741D01*
X147571490Y-49910999D01*
X147566000Y-49855257D01*
X147566000Y-49855248D01*
X147549577Y-49688501D01*
X147484676Y-49474553D01*
X147379284Y-49277377D01*
X147237449Y-49104551D01*
X147194140Y-49069008D01*
X146570131Y-48444999D01*
X164149928Y-48444999D01*
X164149928Y-49345001D01*
X164166992Y-49518255D01*
X164217528Y-49684851D01*
X164299595Y-49838387D01*
X164410038Y-49972962D01*
X164544613Y-50083405D01*
X164698149Y-50165472D01*
X164864745Y-50216008D01*
X165037999Y-50233072D01*
X165688001Y-50233072D01*
X165861255Y-50216008D01*
X165870000Y-50213355D01*
X165870001Y-51212713D01*
X165860820Y-51215498D01*
X165750506Y-51274463D01*
X165653815Y-51353815D01*
X165574463Y-51450506D01*
X165515498Y-51560820D01*
X165479188Y-51680518D01*
X165466928Y-51805000D01*
X165466928Y-53605000D01*
X165479188Y-53729482D01*
X165515498Y-53849180D01*
X165574463Y-53959494D01*
X165653815Y-54056185D01*
X165750506Y-54135537D01*
X165860820Y-54194502D01*
X165879127Y-54200056D01*
X165812688Y-54266495D01*
X165644701Y-54517905D01*
X165528989Y-54797257D01*
X165470000Y-55093816D01*
X165470000Y-55396184D01*
X165528989Y-55692743D01*
X165644701Y-55972095D01*
X165812688Y-56223505D01*
X166026495Y-56437312D01*
X166277905Y-56605299D01*
X166557257Y-56721011D01*
X166853816Y-56780000D01*
X167156184Y-56780000D01*
X167452743Y-56721011D01*
X167732095Y-56605299D01*
X167983505Y-56437312D01*
X168197312Y-56223505D01*
X168365299Y-55972095D01*
X168481011Y-55692743D01*
X168540000Y-55396184D01*
X168540000Y-55093816D01*
X168481011Y-54797257D01*
X168365299Y-54517905D01*
X168197312Y-54266495D01*
X168130873Y-54200056D01*
X168149180Y-54194502D01*
X168259494Y-54135537D01*
X168284518Y-54115000D01*
X182793428Y-54115000D01*
X182793428Y-55865000D01*
X182822501Y-56160186D01*
X182908604Y-56444028D01*
X183048427Y-56705618D01*
X183236597Y-56934903D01*
X183465882Y-57123073D01*
X183727472Y-57262896D01*
X184011314Y-57348999D01*
X184306500Y-57378072D01*
X186056500Y-57378072D01*
X186351686Y-57348999D01*
X186635528Y-57262896D01*
X186897118Y-57123073D01*
X187126403Y-56934903D01*
X187314573Y-56705618D01*
X187454396Y-56444028D01*
X187540499Y-56160186D01*
X187569572Y-55865000D01*
X187569572Y-54115000D01*
X187540499Y-53819814D01*
X187454396Y-53535972D01*
X187314573Y-53274382D01*
X187126403Y-53045097D01*
X186897118Y-52856927D01*
X186635528Y-52717104D01*
X186351686Y-52631001D01*
X186056500Y-52601928D01*
X184306500Y-52601928D01*
X184011314Y-52631001D01*
X183727472Y-52717104D01*
X183465882Y-52856927D01*
X183236597Y-53045097D01*
X183048427Y-53274382D01*
X182908604Y-53535972D01*
X182822501Y-53819814D01*
X182793428Y-54115000D01*
X168284518Y-54115000D01*
X168356185Y-54056185D01*
X168435537Y-53959494D01*
X168494502Y-53849180D01*
X168530812Y-53729482D01*
X168543072Y-53605000D01*
X168543072Y-51908967D01*
X169561000Y-51908967D01*
X169561000Y-52231033D01*
X169623832Y-52546912D01*
X169747082Y-52844463D01*
X169926013Y-53112252D01*
X170153748Y-53339987D01*
X170421537Y-53518918D01*
X170719088Y-53642168D01*
X171034967Y-53705000D01*
X171357033Y-53705000D01*
X171672912Y-53642168D01*
X171970463Y-53518918D01*
X172238252Y-53339987D01*
X172465987Y-53112252D01*
X172644918Y-52844463D01*
X172768168Y-52546912D01*
X172831000Y-52231033D01*
X172831000Y-51908967D01*
X172768168Y-51593088D01*
X172644918Y-51295537D01*
X172465987Y-51027748D01*
X172238252Y-50800013D01*
X171970463Y-50621082D01*
X171672912Y-50497832D01*
X171357033Y-50435000D01*
X171034967Y-50435000D01*
X170719088Y-50497832D01*
X170421537Y-50621082D01*
X170153748Y-50800013D01*
X169926013Y-51027748D01*
X169747082Y-51295537D01*
X169623832Y-51593088D01*
X169561000Y-51908967D01*
X168543072Y-51908967D01*
X168543072Y-51805000D01*
X168530812Y-51680518D01*
X168494502Y-51560820D01*
X168435537Y-51450506D01*
X168356185Y-51353815D01*
X168259494Y-51274463D01*
X168149180Y-51215498D01*
X168140000Y-51212713D01*
X168140000Y-49585752D01*
X168145491Y-49530000D01*
X168132190Y-49394946D01*
X168123577Y-49307501D01*
X168058676Y-49093553D01*
X167953284Y-48896377D01*
X167811449Y-48723551D01*
X167768140Y-48688008D01*
X167211995Y-48131864D01*
X167176449Y-48088551D01*
X167003623Y-47946716D01*
X166806447Y-47841324D01*
X166592499Y-47776423D01*
X166425752Y-47760000D01*
X166425751Y-47760000D01*
X166370000Y-47754509D01*
X166314249Y-47760000D01*
X166246461Y-47760000D01*
X166181387Y-47706595D01*
X166027851Y-47624528D01*
X165861255Y-47573992D01*
X165688001Y-47556928D01*
X165037999Y-47556928D01*
X164864745Y-47573992D01*
X164698149Y-47624528D01*
X164544613Y-47706595D01*
X164410038Y-47817038D01*
X164299595Y-47951613D01*
X164217528Y-48105149D01*
X164166992Y-48271745D01*
X164149928Y-48444999D01*
X146570131Y-48444999D01*
X146320496Y-48195364D01*
X146284949Y-48152051D01*
X146112123Y-48010216D01*
X145914947Y-47904824D01*
X145700999Y-47839923D01*
X145534252Y-47823500D01*
X145534251Y-47823500D01*
X145478500Y-47818009D01*
X145475616Y-47818293D01*
X145416887Y-47770095D01*
X145263351Y-47688028D01*
X145096755Y-47637492D01*
X144923501Y-47620428D01*
X144273499Y-47620428D01*
X144100245Y-47637492D01*
X143933649Y-47688028D01*
X143780113Y-47770095D01*
X143645538Y-47880538D01*
X143535095Y-48015113D01*
X143453028Y-48168649D01*
X143402492Y-48335245D01*
X143385428Y-48508499D01*
X125678631Y-48508499D01*
X125365496Y-48195365D01*
X125329949Y-48152051D01*
X125157123Y-48010216D01*
X124959947Y-47904824D01*
X124833208Y-47866378D01*
X124715887Y-47770095D01*
X124562351Y-47688028D01*
X124395755Y-47637492D01*
X124222501Y-47620428D01*
X123572499Y-47620428D01*
X123399245Y-47637492D01*
X123232649Y-47688028D01*
X123079113Y-47770095D01*
X122944538Y-47880538D01*
X122834095Y-48015113D01*
X122752028Y-48168649D01*
X122701492Y-48335245D01*
X122684428Y-48508499D01*
X105358631Y-48508499D01*
X105045496Y-48195364D01*
X105009949Y-48152051D01*
X104837123Y-48010216D01*
X104639947Y-47904824D01*
X104425999Y-47839923D01*
X104259252Y-47823500D01*
X104259251Y-47823500D01*
X104203500Y-47818009D01*
X104147749Y-47823500D01*
X104143461Y-47823500D01*
X104078387Y-47770095D01*
X103924851Y-47688028D01*
X103758255Y-47637492D01*
X103585001Y-47620428D01*
X102934999Y-47620428D01*
X102761745Y-47637492D01*
X102595149Y-47688028D01*
X102441613Y-47770095D01*
X102307038Y-47880538D01*
X102196595Y-48015113D01*
X102114528Y-48168649D01*
X102063992Y-48335245D01*
X102046928Y-48508499D01*
X86639000Y-48508499D01*
X86639000Y-45548880D01*
X86887381Y-45300500D01*
X185400620Y-45300500D01*
X185649000Y-45548881D01*
%TD*%
M02*
