%TF.GenerationSoftware,KiCad,Pcbnew,5.1.6-c6e7f7d~87~ubuntu18.04.1*%
%TF.CreationDate,2020-10-23T07:39:38+01:00*%
%TF.ProjectId,ActiveSplitterPedalWithDigitalPeakDetector,41637469-7665-4537-906c-697474657250,rev?*%
%TF.SameCoordinates,Original*%
%TF.FileFunction,Soldermask,Bot*%
%TF.FilePolarity,Negative*%
%FSLAX46Y46*%
G04 Gerber Fmt 4.6, Leading zero omitted, Abs format (unit mm)*
G04 Created by KiCad (PCBNEW 5.1.6-c6e7f7d~87~ubuntu18.04.1) date 2020-10-23 07:39:38*
%MOMM*%
%LPD*%
G01*
G04 APERTURE LIST*
%TA.AperFunction,Profile*%
%ADD10C,0.050000*%
%TD*%
%ADD11C,2.600000*%
%ADD12C,3.600000*%
%ADD13O,1.800000X1.800000*%
%ADD14R,1.800000X1.800000*%
%ADD15C,1.900000*%
%ADD16R,1.900000X1.900000*%
%ADD17C,3.100000*%
%ADD18C,2.100000*%
%ADD19R,3.600000X3.600000*%
%ADD20C,0.254000*%
G04 APERTURE END LIST*
D10*
X186309000Y-130429000D02*
X185674000Y-131064000D01*
X186309000Y-125349000D02*
X186309000Y-130429000D01*
X191770000Y-125349000D02*
X186309000Y-125349000D01*
X192405000Y-124714000D02*
X191770000Y-125349000D01*
X192405000Y-51054000D02*
X192405000Y-124714000D01*
X191770000Y-50419000D02*
X192405000Y-51054000D01*
X186309000Y-50419000D02*
X191770000Y-50419000D01*
X186309000Y-45275500D02*
X186309000Y-50419000D01*
X185674000Y-44640500D02*
X186309000Y-45275500D01*
X86614000Y-44640500D02*
X185674000Y-44640500D01*
X85979000Y-45275500D02*
X86614000Y-44640500D01*
X85979000Y-50419000D02*
X85979000Y-45275500D01*
X80518000Y-50419000D02*
X85979000Y-50419000D01*
X79883000Y-51054000D02*
X80518000Y-50419000D01*
X79883000Y-124777500D02*
X79883000Y-51054000D01*
X80518000Y-125412500D02*
X79883000Y-124777500D01*
X85979000Y-125412500D02*
X80518000Y-125412500D01*
X85979000Y-130429000D02*
X85979000Y-125412500D01*
X86614000Y-131064000D02*
X85979000Y-130429000D01*
X185674000Y-131064000D02*
X86614000Y-131064000D01*
D11*
%TO.C,RV2*%
X124104400Y-69443600D03*
X127609600Y-69443600D03*
X124104400Y-127939800D03*
D12*
X121666000Y-74777600D03*
X130022600Y-73583800D03*
X121666000Y-122580400D03*
X130048000Y-123799600D03*
%TD*%
%TO.C,C30*%
G36*
G01*
X139670262Y-77832000D02*
X138713738Y-77832000D01*
G75*
G02*
X138442000Y-77560262I0J271738D01*
G01*
X138442000Y-76853738D01*
G75*
G02*
X138713738Y-76582000I271738J0D01*
G01*
X139670262Y-76582000D01*
G75*
G02*
X139942000Y-76853738I0J-271738D01*
G01*
X139942000Y-77560262D01*
G75*
G02*
X139670262Y-77832000I-271738J0D01*
G01*
G37*
G36*
G01*
X139670262Y-79882000D02*
X138713738Y-79882000D01*
G75*
G02*
X138442000Y-79610262I0J271738D01*
G01*
X138442000Y-78903738D01*
G75*
G02*
X138713738Y-78632000I271738J0D01*
G01*
X139670262Y-78632000D01*
G75*
G02*
X139942000Y-78903738I0J-271738D01*
G01*
X139942000Y-79610262D01*
G75*
G02*
X139670262Y-79882000I-271738J0D01*
G01*
G37*
%TD*%
%TO.C,R4*%
G36*
G01*
X164738000Y-49373262D02*
X164738000Y-48416738D01*
G75*
G02*
X165009738Y-48145000I271738J0D01*
G01*
X165716262Y-48145000D01*
G75*
G02*
X165988000Y-48416738I0J-271738D01*
G01*
X165988000Y-49373262D01*
G75*
G02*
X165716262Y-49645000I-271738J0D01*
G01*
X165009738Y-49645000D01*
G75*
G02*
X164738000Y-49373262I0J271738D01*
G01*
G37*
G36*
G01*
X162688000Y-49373262D02*
X162688000Y-48416738D01*
G75*
G02*
X162959738Y-48145000I271738J0D01*
G01*
X163666262Y-48145000D01*
G75*
G02*
X163938000Y-48416738I0J-271738D01*
G01*
X163938000Y-49373262D01*
G75*
G02*
X163666262Y-49645000I-271738J0D01*
G01*
X162959738Y-49645000D01*
G75*
G02*
X162688000Y-49373262I0J271738D01*
G01*
G37*
%TD*%
%TO.C,R3*%
G36*
G01*
X143973500Y-49436762D02*
X143973500Y-48480238D01*
G75*
G02*
X144245238Y-48208500I271738J0D01*
G01*
X144951762Y-48208500D01*
G75*
G02*
X145223500Y-48480238I0J-271738D01*
G01*
X145223500Y-49436762D01*
G75*
G02*
X144951762Y-49708500I-271738J0D01*
G01*
X144245238Y-49708500D01*
G75*
G02*
X143973500Y-49436762I0J271738D01*
G01*
G37*
G36*
G01*
X141923500Y-49436762D02*
X141923500Y-48480238D01*
G75*
G02*
X142195238Y-48208500I271738J0D01*
G01*
X142901762Y-48208500D01*
G75*
G02*
X143173500Y-48480238I0J-271738D01*
G01*
X143173500Y-49436762D01*
G75*
G02*
X142901762Y-49708500I-271738J0D01*
G01*
X142195238Y-49708500D01*
G75*
G02*
X141923500Y-49436762I0J271738D01*
G01*
G37*
%TD*%
%TO.C,R2*%
G36*
G01*
X123272500Y-49436762D02*
X123272500Y-48480238D01*
G75*
G02*
X123544238Y-48208500I271738J0D01*
G01*
X124250762Y-48208500D01*
G75*
G02*
X124522500Y-48480238I0J-271738D01*
G01*
X124522500Y-49436762D01*
G75*
G02*
X124250762Y-49708500I-271738J0D01*
G01*
X123544238Y-49708500D01*
G75*
G02*
X123272500Y-49436762I0J271738D01*
G01*
G37*
G36*
G01*
X121222500Y-49436762D02*
X121222500Y-48480238D01*
G75*
G02*
X121494238Y-48208500I271738J0D01*
G01*
X122200762Y-48208500D01*
G75*
G02*
X122472500Y-48480238I0J-271738D01*
G01*
X122472500Y-49436762D01*
G75*
G02*
X122200762Y-49708500I-271738J0D01*
G01*
X121494238Y-49708500D01*
G75*
G02*
X121222500Y-49436762I0J271738D01*
G01*
G37*
%TD*%
%TO.C,R1*%
G36*
G01*
X102635000Y-49436762D02*
X102635000Y-48480238D01*
G75*
G02*
X102906738Y-48208500I271738J0D01*
G01*
X103613262Y-48208500D01*
G75*
G02*
X103885000Y-48480238I0J-271738D01*
G01*
X103885000Y-49436762D01*
G75*
G02*
X103613262Y-49708500I-271738J0D01*
G01*
X102906738Y-49708500D01*
G75*
G02*
X102635000Y-49436762I0J271738D01*
G01*
G37*
G36*
G01*
X100585000Y-49436762D02*
X100585000Y-48480238D01*
G75*
G02*
X100856738Y-48208500I271738J0D01*
G01*
X101563262Y-48208500D01*
G75*
G02*
X101835000Y-48480238I0J-271738D01*
G01*
X101835000Y-49436762D01*
G75*
G02*
X101563262Y-49708500I-271738J0D01*
G01*
X100856738Y-49708500D01*
G75*
G02*
X100585000Y-49436762I0J271738D01*
G01*
G37*
%TD*%
D13*
%TO.C,J7*%
X131191000Y-93980000D03*
X133731000Y-93980000D03*
X136271000Y-93980000D03*
X138811000Y-93980000D03*
D14*
X141351000Y-93980000D03*
%TD*%
D15*
%TO.C,D14*%
X167005000Y-55245000D03*
D16*
X167005000Y-52705000D03*
%TD*%
D15*
%TO.C,D10*%
X146431000Y-55372000D03*
D16*
X146431000Y-52832000D03*
%TD*%
D15*
%TO.C,D2*%
X125857000Y-55372000D03*
D16*
X125857000Y-52832000D03*
%TD*%
D15*
%TO.C,D1*%
X105219500Y-55245000D03*
D16*
X105219500Y-52705000D03*
%TD*%
%TO.C,C31*%
G36*
G01*
X137638262Y-77832000D02*
X136681738Y-77832000D01*
G75*
G02*
X136410000Y-77560262I0J271738D01*
G01*
X136410000Y-76853738D01*
G75*
G02*
X136681738Y-76582000I271738J0D01*
G01*
X137638262Y-76582000D01*
G75*
G02*
X137910000Y-76853738I0J-271738D01*
G01*
X137910000Y-77560262D01*
G75*
G02*
X137638262Y-77832000I-271738J0D01*
G01*
G37*
G36*
G01*
X137638262Y-79882000D02*
X136681738Y-79882000D01*
G75*
G02*
X136410000Y-79610262I0J271738D01*
G01*
X136410000Y-78903738D01*
G75*
G02*
X136681738Y-78632000I271738J0D01*
G01*
X137638262Y-78632000D01*
G75*
G02*
X137910000Y-78903738I0J-271738D01*
G01*
X137910000Y-79610262D01*
G75*
G02*
X137638262Y-79882000I-271738J0D01*
G01*
G37*
%TD*%
%TO.C,C29*%
G36*
G01*
X135606262Y-77832000D02*
X134649738Y-77832000D01*
G75*
G02*
X134378000Y-77560262I0J271738D01*
G01*
X134378000Y-76853738D01*
G75*
G02*
X134649738Y-76582000I271738J0D01*
G01*
X135606262Y-76582000D01*
G75*
G02*
X135878000Y-76853738I0J-271738D01*
G01*
X135878000Y-77560262D01*
G75*
G02*
X135606262Y-77832000I-271738J0D01*
G01*
G37*
G36*
G01*
X135606262Y-79882000D02*
X134649738Y-79882000D01*
G75*
G02*
X134378000Y-79610262I0J271738D01*
G01*
X134378000Y-78903738D01*
G75*
G02*
X134649738Y-78632000I271738J0D01*
G01*
X135606262Y-78632000D01*
G75*
G02*
X135878000Y-78903738I0J-271738D01*
G01*
X135878000Y-79610262D01*
G75*
G02*
X135606262Y-79882000I-271738J0D01*
G01*
G37*
%TD*%
%TO.C,C22*%
G36*
G01*
X133574262Y-77832000D02*
X132617738Y-77832000D01*
G75*
G02*
X132346000Y-77560262I0J271738D01*
G01*
X132346000Y-76853738D01*
G75*
G02*
X132617738Y-76582000I271738J0D01*
G01*
X133574262Y-76582000D01*
G75*
G02*
X133846000Y-76853738I0J-271738D01*
G01*
X133846000Y-77560262D01*
G75*
G02*
X133574262Y-77832000I-271738J0D01*
G01*
G37*
G36*
G01*
X133574262Y-79882000D02*
X132617738Y-79882000D01*
G75*
G02*
X132346000Y-79610262I0J271738D01*
G01*
X132346000Y-78903738D01*
G75*
G02*
X132617738Y-78632000I271738J0D01*
G01*
X133574262Y-78632000D01*
G75*
G02*
X133846000Y-78903738I0J-271738D01*
G01*
X133846000Y-79610262D01*
G75*
G02*
X133574262Y-79882000I-271738J0D01*
G01*
G37*
%TD*%
D11*
%TO.C,RV3*%
X144678400Y-69443600D03*
X148183600Y-69443600D03*
X144678400Y-127939800D03*
D12*
X142240000Y-74777600D03*
X150596600Y-73583800D03*
X142240000Y-122580400D03*
X150622000Y-123799600D03*
%TD*%
D11*
%TO.C,RV1*%
X103530400Y-69469000D03*
X107035600Y-69469000D03*
X103530400Y-127965200D03*
D12*
X101092000Y-74803000D03*
X109448600Y-73609200D03*
X101092000Y-122605800D03*
X109474000Y-123825000D03*
%TD*%
D11*
%TO.C,RV4*%
X165252400Y-69443600D03*
X168757600Y-69443600D03*
X165252400Y-127939800D03*
D12*
X162814000Y-74777600D03*
X171170600Y-73583800D03*
X162814000Y-122580400D03*
X171196000Y-123799600D03*
%TD*%
D17*
%TO.C,J6*%
X159766000Y-61595000D03*
X171196000Y-61595000D03*
X171196000Y-48895000D03*
X159766000Y-48895000D03*
X161925000Y-58420000D03*
D18*
X159766000Y-52070000D03*
X171196000Y-52070000D03*
%TD*%
D17*
%TO.C,J5*%
X139192000Y-61658500D03*
X150622000Y-61658500D03*
X150622000Y-48958500D03*
X139192000Y-48958500D03*
X141351000Y-58483500D03*
D18*
X139192000Y-52133500D03*
X150622000Y-52133500D03*
%TD*%
D17*
%TO.C,J4*%
X118618000Y-61658500D03*
X130048000Y-61658500D03*
X130048000Y-48958500D03*
X118618000Y-48958500D03*
X120777000Y-58483500D03*
D18*
X118618000Y-52133500D03*
X130048000Y-52133500D03*
%TD*%
D17*
%TO.C,J3*%
X98044000Y-61658500D03*
X109474000Y-61658500D03*
X109474000Y-48958500D03*
X98044000Y-48958500D03*
X100203000Y-58483500D03*
D18*
X98044000Y-52133500D03*
X109474000Y-52133500D03*
%TD*%
D17*
%TO.C,J1*%
X175196500Y-108585000D03*
X175196500Y-120015000D03*
X187896500Y-120015000D03*
X187896500Y-108585000D03*
X178371500Y-110744000D03*
D18*
X184721500Y-108585000D03*
X184721500Y-120015000D03*
%TD*%
%TO.C,J2*%
G36*
G01*
X186981500Y-54090000D02*
X186981500Y-55890000D01*
G75*
G02*
X186081500Y-56790000I-900000J0D01*
G01*
X184281500Y-56790000D01*
G75*
G02*
X183381500Y-55890000I0J900000D01*
G01*
X183381500Y-54090000D01*
G75*
G02*
X184281500Y-53190000I900000J0D01*
G01*
X186081500Y-53190000D01*
G75*
G02*
X186981500Y-54090000I0J-900000D01*
G01*
G37*
G36*
G01*
X189731500Y-58665000D02*
X189731500Y-60715000D01*
G75*
G02*
X188956500Y-61490000I-775000J0D01*
G01*
X187406500Y-61490000D01*
G75*
G02*
X186631500Y-60715000I0J775000D01*
G01*
X186631500Y-58665000D01*
G75*
G02*
X187406500Y-57890000I775000J0D01*
G01*
X188956500Y-57890000D01*
G75*
G02*
X189731500Y-58665000I0J-775000D01*
G01*
G37*
D19*
X182181500Y-59690000D03*
%TD*%
D20*
G36*
X190373000Y-93218000D02*
G01*
X182372000Y-93218000D01*
X182372000Y-80772000D01*
X190373000Y-80772000D01*
X190373000Y-93218000D01*
G37*
X190373000Y-93218000D02*
X182372000Y-93218000D01*
X182372000Y-80772000D01*
X190373000Y-80772000D01*
X190373000Y-93218000D01*
M02*
