%TF.GenerationSoftware,KiCad,Pcbnew,5.1.6-c6e7f7d~87~ubuntu18.04.1*%
%TF.CreationDate,2020-10-23T07:39:38+01:00*%
%TF.ProjectId,ActiveSplitterPedalWithDigitalPeakDetector,41637469-7665-4537-906c-697474657250,rev?*%
%TF.SameCoordinates,Original*%
%TF.FileFunction,Soldermask,Top*%
%TF.FilePolarity,Negative*%
%FSLAX46Y46*%
G04 Gerber Fmt 4.6, Leading zero omitted, Abs format (unit mm)*
G04 Created by KiCad (PCBNEW 5.1.6-c6e7f7d~87~ubuntu18.04.1) date 2020-10-23 07:39:38*
%MOMM*%
%LPD*%
G01*
G04 APERTURE LIST*
%TA.AperFunction,Profile*%
%ADD10C,0.050000*%
%TD*%
%ADD11C,1.100000*%
%ADD12C,2.600000*%
%ADD13C,3.600000*%
%ADD14R,0.750000X1.160000*%
%ADD15R,0.750000X1.660000*%
%ADD16R,2.100000X1.600000*%
%ADD17R,2.100000X3.900000*%
%ADD18R,1.100000X1.600000*%
%ADD19O,1.800000X1.800000*%
%ADD20R,1.800000X1.800000*%
%ADD21C,1.900000*%
%ADD22R,1.900000X1.900000*%
%ADD23R,1.200000X1.200000*%
%ADD24C,3.100000*%
%ADD25C,2.100000*%
%ADD26R,3.600000X3.600000*%
%ADD27C,0.254000*%
G04 APERTURE END LIST*
D10*
X186309000Y-130429000D02*
X185674000Y-131064000D01*
X186309000Y-125349000D02*
X186309000Y-130429000D01*
X191770000Y-125349000D02*
X186309000Y-125349000D01*
X192405000Y-124714000D02*
X191770000Y-125349000D01*
X192405000Y-51054000D02*
X192405000Y-124714000D01*
X191770000Y-50419000D02*
X192405000Y-51054000D01*
X186309000Y-50419000D02*
X191770000Y-50419000D01*
X186309000Y-45275500D02*
X186309000Y-50419000D01*
X185674000Y-44640500D02*
X186309000Y-45275500D01*
X86614000Y-44640500D02*
X185674000Y-44640500D01*
X85979000Y-45275500D02*
X86614000Y-44640500D01*
X85979000Y-50419000D02*
X85979000Y-45275500D01*
X80518000Y-50419000D02*
X85979000Y-50419000D01*
X79883000Y-51054000D02*
X80518000Y-50419000D01*
X79883000Y-124777500D02*
X79883000Y-51054000D01*
X80518000Y-125412500D02*
X79883000Y-124777500D01*
X85979000Y-125412500D02*
X80518000Y-125412500D01*
X85979000Y-130429000D02*
X85979000Y-125412500D01*
X86614000Y-131064000D02*
X85979000Y-130429000D01*
X185674000Y-131064000D02*
X86614000Y-131064000D01*
D11*
%TO.C,TP17*%
X175895000Y-97155000D03*
%TD*%
%TO.C,TP16*%
X94615000Y-96520000D03*
%TD*%
%TO.C,TP15*%
X114935000Y-97155000D03*
%TD*%
%TO.C,TP14*%
X135890000Y-97790000D03*
%TD*%
%TO.C,TP13*%
X156210000Y-97155000D03*
%TD*%
%TO.C,TP12*%
X175895000Y-68580000D03*
%TD*%
%TO.C,TP11*%
X155575000Y-68580000D03*
%TD*%
%TO.C,TP10*%
X134620000Y-68580000D03*
%TD*%
%TO.C,TP9*%
X114300000Y-68580000D03*
%TD*%
%TO.C,TP8*%
X168275000Y-100965000D03*
%TD*%
%TO.C,TP7*%
X161290000Y-100965000D03*
%TD*%
%TO.C,TP6*%
X147955000Y-100965000D03*
%TD*%
%TO.C,TP5*%
X140335000Y-100965000D03*
%TD*%
%TO.C,TP4*%
X126365000Y-100965000D03*
%TD*%
%TO.C,TP3*%
X119380000Y-100965000D03*
%TD*%
%TO.C,TP2*%
X106680000Y-100330000D03*
%TD*%
%TO.C,TP1*%
X98425000Y-100330000D03*
%TD*%
D12*
%TO.C,RV2*%
X124104400Y-69443600D03*
X127609600Y-69443600D03*
X124104400Y-127939800D03*
D13*
X121666000Y-74777600D03*
X130022600Y-73583800D03*
X121666000Y-122580400D03*
X130048000Y-123799600D03*
%TD*%
%TO.C,C1*%
G36*
G01*
X184875000Y-78889456D02*
X184875000Y-77574544D01*
G75*
G02*
X185142544Y-77307000I267544J0D01*
G01*
X186132456Y-77307000D01*
G75*
G02*
X186400000Y-77574544I0J-267544D01*
G01*
X186400000Y-78889456D01*
G75*
G02*
X186132456Y-79157000I-267544J0D01*
G01*
X185142544Y-79157000D01*
G75*
G02*
X184875000Y-78889456I0J267544D01*
G01*
G37*
G36*
G01*
X181900000Y-78889456D02*
X181900000Y-77574544D01*
G75*
G02*
X182167544Y-77307000I267544J0D01*
G01*
X183157456Y-77307000D01*
G75*
G02*
X183425000Y-77574544I0J-267544D01*
G01*
X183425000Y-78889456D01*
G75*
G02*
X183157456Y-79157000I-267544J0D01*
G01*
X182167544Y-79157000D01*
G75*
G02*
X181900000Y-78889456I0J267544D01*
G01*
G37*
%TD*%
D14*
%TO.C,U17*%
X152242000Y-104056000D03*
X154142000Y-104056000D03*
X154142000Y-106256000D03*
X153192000Y-106256000D03*
X152242000Y-106256000D03*
%TD*%
%TO.C,U16*%
X132019000Y-104310000D03*
X133919000Y-104310000D03*
X133919000Y-106510000D03*
X132969000Y-106510000D03*
X132019000Y-106510000D03*
%TD*%
D15*
%TO.C,U15*%
X165796000Y-107268000D03*
X163896000Y-107268000D03*
X163896000Y-104568000D03*
X164846000Y-104568000D03*
X165796000Y-104568000D03*
%TD*%
%TO.C,U14*%
X145476000Y-107141000D03*
X143576000Y-107141000D03*
X143576000Y-104441000D03*
X144526000Y-104441000D03*
X145476000Y-104441000D03*
%TD*%
%TO.C,U13*%
X124394000Y-107268000D03*
X122494000Y-107268000D03*
X122494000Y-104568000D03*
X123444000Y-104568000D03*
X124394000Y-104568000D03*
%TD*%
D14*
%TO.C,U10*%
X111064000Y-104183000D03*
X112964000Y-104183000D03*
X112964000Y-106383000D03*
X112014000Y-106383000D03*
X111064000Y-106383000D03*
%TD*%
%TO.C,U7*%
X90744000Y-103802000D03*
X92644000Y-103802000D03*
X92644000Y-106002000D03*
X91694000Y-106002000D03*
X90744000Y-106002000D03*
%TD*%
%TO.C,U4*%
G36*
G01*
X139542000Y-83514000D02*
X140842000Y-83514000D01*
G75*
G02*
X140992000Y-83664000I0J-150000D01*
G01*
X140992000Y-83964000D01*
G75*
G02*
X140842000Y-84114000I-150000J0D01*
G01*
X139542000Y-84114000D01*
G75*
G02*
X139392000Y-83964000I0J150000D01*
G01*
X139392000Y-83664000D01*
G75*
G02*
X139542000Y-83514000I150000J0D01*
G01*
G37*
G36*
G01*
X139542000Y-84314000D02*
X140842000Y-84314000D01*
G75*
G02*
X140992000Y-84464000I0J-150000D01*
G01*
X140992000Y-84764000D01*
G75*
G02*
X140842000Y-84914000I-150000J0D01*
G01*
X139542000Y-84914000D01*
G75*
G02*
X139392000Y-84764000I0J150000D01*
G01*
X139392000Y-84464000D01*
G75*
G02*
X139542000Y-84314000I150000J0D01*
G01*
G37*
G36*
G01*
X139542000Y-85114000D02*
X140842000Y-85114000D01*
G75*
G02*
X140992000Y-85264000I0J-150000D01*
G01*
X140992000Y-85564000D01*
G75*
G02*
X140842000Y-85714000I-150000J0D01*
G01*
X139542000Y-85714000D01*
G75*
G02*
X139392000Y-85564000I0J150000D01*
G01*
X139392000Y-85264000D01*
G75*
G02*
X139542000Y-85114000I150000J0D01*
G01*
G37*
G36*
G01*
X139542000Y-85914000D02*
X140842000Y-85914000D01*
G75*
G02*
X140992000Y-86064000I0J-150000D01*
G01*
X140992000Y-86364000D01*
G75*
G02*
X140842000Y-86514000I-150000J0D01*
G01*
X139542000Y-86514000D01*
G75*
G02*
X139392000Y-86364000I0J150000D01*
G01*
X139392000Y-86064000D01*
G75*
G02*
X139542000Y-85914000I150000J0D01*
G01*
G37*
G36*
G01*
X139542000Y-86714000D02*
X140842000Y-86714000D01*
G75*
G02*
X140992000Y-86864000I0J-150000D01*
G01*
X140992000Y-87164000D01*
G75*
G02*
X140842000Y-87314000I-150000J0D01*
G01*
X139542000Y-87314000D01*
G75*
G02*
X139392000Y-87164000I0J150000D01*
G01*
X139392000Y-86864000D01*
G75*
G02*
X139542000Y-86714000I150000J0D01*
G01*
G37*
G36*
G01*
X139542000Y-87514000D02*
X140842000Y-87514000D01*
G75*
G02*
X140992000Y-87664000I0J-150000D01*
G01*
X140992000Y-87964000D01*
G75*
G02*
X140842000Y-88114000I-150000J0D01*
G01*
X139542000Y-88114000D01*
G75*
G02*
X139392000Y-87964000I0J150000D01*
G01*
X139392000Y-87664000D01*
G75*
G02*
X139542000Y-87514000I150000J0D01*
G01*
G37*
G36*
G01*
X139542000Y-88314000D02*
X140842000Y-88314000D01*
G75*
G02*
X140992000Y-88464000I0J-150000D01*
G01*
X140992000Y-88764000D01*
G75*
G02*
X140842000Y-88914000I-150000J0D01*
G01*
X139542000Y-88914000D01*
G75*
G02*
X139392000Y-88764000I0J150000D01*
G01*
X139392000Y-88464000D01*
G75*
G02*
X139542000Y-88314000I150000J0D01*
G01*
G37*
G36*
G01*
X139542000Y-89114000D02*
X140842000Y-89114000D01*
G75*
G02*
X140992000Y-89264000I0J-150000D01*
G01*
X140992000Y-89564000D01*
G75*
G02*
X140842000Y-89714000I-150000J0D01*
G01*
X139542000Y-89714000D01*
G75*
G02*
X139392000Y-89564000I0J150000D01*
G01*
X139392000Y-89264000D01*
G75*
G02*
X139542000Y-89114000I150000J0D01*
G01*
G37*
G36*
G01*
X138667000Y-89989000D02*
X138967000Y-89989000D01*
G75*
G02*
X139117000Y-90139000I0J-150000D01*
G01*
X139117000Y-91439000D01*
G75*
G02*
X138967000Y-91589000I-150000J0D01*
G01*
X138667000Y-91589000D01*
G75*
G02*
X138517000Y-91439000I0J150000D01*
G01*
X138517000Y-90139000D01*
G75*
G02*
X138667000Y-89989000I150000J0D01*
G01*
G37*
G36*
G01*
X137867000Y-89989000D02*
X138167000Y-89989000D01*
G75*
G02*
X138317000Y-90139000I0J-150000D01*
G01*
X138317000Y-91439000D01*
G75*
G02*
X138167000Y-91589000I-150000J0D01*
G01*
X137867000Y-91589000D01*
G75*
G02*
X137717000Y-91439000I0J150000D01*
G01*
X137717000Y-90139000D01*
G75*
G02*
X137867000Y-89989000I150000J0D01*
G01*
G37*
G36*
G01*
X137067000Y-89989000D02*
X137367000Y-89989000D01*
G75*
G02*
X137517000Y-90139000I0J-150000D01*
G01*
X137517000Y-91439000D01*
G75*
G02*
X137367000Y-91589000I-150000J0D01*
G01*
X137067000Y-91589000D01*
G75*
G02*
X136917000Y-91439000I0J150000D01*
G01*
X136917000Y-90139000D01*
G75*
G02*
X137067000Y-89989000I150000J0D01*
G01*
G37*
G36*
G01*
X136267000Y-89989000D02*
X136567000Y-89989000D01*
G75*
G02*
X136717000Y-90139000I0J-150000D01*
G01*
X136717000Y-91439000D01*
G75*
G02*
X136567000Y-91589000I-150000J0D01*
G01*
X136267000Y-91589000D01*
G75*
G02*
X136117000Y-91439000I0J150000D01*
G01*
X136117000Y-90139000D01*
G75*
G02*
X136267000Y-89989000I150000J0D01*
G01*
G37*
G36*
G01*
X135467000Y-89989000D02*
X135767000Y-89989000D01*
G75*
G02*
X135917000Y-90139000I0J-150000D01*
G01*
X135917000Y-91439000D01*
G75*
G02*
X135767000Y-91589000I-150000J0D01*
G01*
X135467000Y-91589000D01*
G75*
G02*
X135317000Y-91439000I0J150000D01*
G01*
X135317000Y-90139000D01*
G75*
G02*
X135467000Y-89989000I150000J0D01*
G01*
G37*
G36*
G01*
X134667000Y-89989000D02*
X134967000Y-89989000D01*
G75*
G02*
X135117000Y-90139000I0J-150000D01*
G01*
X135117000Y-91439000D01*
G75*
G02*
X134967000Y-91589000I-150000J0D01*
G01*
X134667000Y-91589000D01*
G75*
G02*
X134517000Y-91439000I0J150000D01*
G01*
X134517000Y-90139000D01*
G75*
G02*
X134667000Y-89989000I150000J0D01*
G01*
G37*
G36*
G01*
X133867000Y-89989000D02*
X134167000Y-89989000D01*
G75*
G02*
X134317000Y-90139000I0J-150000D01*
G01*
X134317000Y-91439000D01*
G75*
G02*
X134167000Y-91589000I-150000J0D01*
G01*
X133867000Y-91589000D01*
G75*
G02*
X133717000Y-91439000I0J150000D01*
G01*
X133717000Y-90139000D01*
G75*
G02*
X133867000Y-89989000I150000J0D01*
G01*
G37*
G36*
G01*
X133067000Y-89989000D02*
X133367000Y-89989000D01*
G75*
G02*
X133517000Y-90139000I0J-150000D01*
G01*
X133517000Y-91439000D01*
G75*
G02*
X133367000Y-91589000I-150000J0D01*
G01*
X133067000Y-91589000D01*
G75*
G02*
X132917000Y-91439000I0J150000D01*
G01*
X132917000Y-90139000D01*
G75*
G02*
X133067000Y-89989000I150000J0D01*
G01*
G37*
G36*
G01*
X131192000Y-89114000D02*
X132492000Y-89114000D01*
G75*
G02*
X132642000Y-89264000I0J-150000D01*
G01*
X132642000Y-89564000D01*
G75*
G02*
X132492000Y-89714000I-150000J0D01*
G01*
X131192000Y-89714000D01*
G75*
G02*
X131042000Y-89564000I0J150000D01*
G01*
X131042000Y-89264000D01*
G75*
G02*
X131192000Y-89114000I150000J0D01*
G01*
G37*
G36*
G01*
X131192000Y-88314000D02*
X132492000Y-88314000D01*
G75*
G02*
X132642000Y-88464000I0J-150000D01*
G01*
X132642000Y-88764000D01*
G75*
G02*
X132492000Y-88914000I-150000J0D01*
G01*
X131192000Y-88914000D01*
G75*
G02*
X131042000Y-88764000I0J150000D01*
G01*
X131042000Y-88464000D01*
G75*
G02*
X131192000Y-88314000I150000J0D01*
G01*
G37*
G36*
G01*
X131192000Y-87514000D02*
X132492000Y-87514000D01*
G75*
G02*
X132642000Y-87664000I0J-150000D01*
G01*
X132642000Y-87964000D01*
G75*
G02*
X132492000Y-88114000I-150000J0D01*
G01*
X131192000Y-88114000D01*
G75*
G02*
X131042000Y-87964000I0J150000D01*
G01*
X131042000Y-87664000D01*
G75*
G02*
X131192000Y-87514000I150000J0D01*
G01*
G37*
G36*
G01*
X131192000Y-86714000D02*
X132492000Y-86714000D01*
G75*
G02*
X132642000Y-86864000I0J-150000D01*
G01*
X132642000Y-87164000D01*
G75*
G02*
X132492000Y-87314000I-150000J0D01*
G01*
X131192000Y-87314000D01*
G75*
G02*
X131042000Y-87164000I0J150000D01*
G01*
X131042000Y-86864000D01*
G75*
G02*
X131192000Y-86714000I150000J0D01*
G01*
G37*
G36*
G01*
X131192000Y-85914000D02*
X132492000Y-85914000D01*
G75*
G02*
X132642000Y-86064000I0J-150000D01*
G01*
X132642000Y-86364000D01*
G75*
G02*
X132492000Y-86514000I-150000J0D01*
G01*
X131192000Y-86514000D01*
G75*
G02*
X131042000Y-86364000I0J150000D01*
G01*
X131042000Y-86064000D01*
G75*
G02*
X131192000Y-85914000I150000J0D01*
G01*
G37*
G36*
G01*
X131192000Y-85114000D02*
X132492000Y-85114000D01*
G75*
G02*
X132642000Y-85264000I0J-150000D01*
G01*
X132642000Y-85564000D01*
G75*
G02*
X132492000Y-85714000I-150000J0D01*
G01*
X131192000Y-85714000D01*
G75*
G02*
X131042000Y-85564000I0J150000D01*
G01*
X131042000Y-85264000D01*
G75*
G02*
X131192000Y-85114000I150000J0D01*
G01*
G37*
G36*
G01*
X131192000Y-84314000D02*
X132492000Y-84314000D01*
G75*
G02*
X132642000Y-84464000I0J-150000D01*
G01*
X132642000Y-84764000D01*
G75*
G02*
X132492000Y-84914000I-150000J0D01*
G01*
X131192000Y-84914000D01*
G75*
G02*
X131042000Y-84764000I0J150000D01*
G01*
X131042000Y-84464000D01*
G75*
G02*
X131192000Y-84314000I150000J0D01*
G01*
G37*
G36*
G01*
X131192000Y-83514000D02*
X132492000Y-83514000D01*
G75*
G02*
X132642000Y-83664000I0J-150000D01*
G01*
X132642000Y-83964000D01*
G75*
G02*
X132492000Y-84114000I-150000J0D01*
G01*
X131192000Y-84114000D01*
G75*
G02*
X131042000Y-83964000I0J150000D01*
G01*
X131042000Y-83664000D01*
G75*
G02*
X131192000Y-83514000I150000J0D01*
G01*
G37*
G36*
G01*
X133067000Y-81639000D02*
X133367000Y-81639000D01*
G75*
G02*
X133517000Y-81789000I0J-150000D01*
G01*
X133517000Y-83089000D01*
G75*
G02*
X133367000Y-83239000I-150000J0D01*
G01*
X133067000Y-83239000D01*
G75*
G02*
X132917000Y-83089000I0J150000D01*
G01*
X132917000Y-81789000D01*
G75*
G02*
X133067000Y-81639000I150000J0D01*
G01*
G37*
G36*
G01*
X133867000Y-81639000D02*
X134167000Y-81639000D01*
G75*
G02*
X134317000Y-81789000I0J-150000D01*
G01*
X134317000Y-83089000D01*
G75*
G02*
X134167000Y-83239000I-150000J0D01*
G01*
X133867000Y-83239000D01*
G75*
G02*
X133717000Y-83089000I0J150000D01*
G01*
X133717000Y-81789000D01*
G75*
G02*
X133867000Y-81639000I150000J0D01*
G01*
G37*
G36*
G01*
X134667000Y-81639000D02*
X134967000Y-81639000D01*
G75*
G02*
X135117000Y-81789000I0J-150000D01*
G01*
X135117000Y-83089000D01*
G75*
G02*
X134967000Y-83239000I-150000J0D01*
G01*
X134667000Y-83239000D01*
G75*
G02*
X134517000Y-83089000I0J150000D01*
G01*
X134517000Y-81789000D01*
G75*
G02*
X134667000Y-81639000I150000J0D01*
G01*
G37*
G36*
G01*
X135467000Y-81639000D02*
X135767000Y-81639000D01*
G75*
G02*
X135917000Y-81789000I0J-150000D01*
G01*
X135917000Y-83089000D01*
G75*
G02*
X135767000Y-83239000I-150000J0D01*
G01*
X135467000Y-83239000D01*
G75*
G02*
X135317000Y-83089000I0J150000D01*
G01*
X135317000Y-81789000D01*
G75*
G02*
X135467000Y-81639000I150000J0D01*
G01*
G37*
G36*
G01*
X136267000Y-81639000D02*
X136567000Y-81639000D01*
G75*
G02*
X136717000Y-81789000I0J-150000D01*
G01*
X136717000Y-83089000D01*
G75*
G02*
X136567000Y-83239000I-150000J0D01*
G01*
X136267000Y-83239000D01*
G75*
G02*
X136117000Y-83089000I0J150000D01*
G01*
X136117000Y-81789000D01*
G75*
G02*
X136267000Y-81639000I150000J0D01*
G01*
G37*
G36*
G01*
X137067000Y-81639000D02*
X137367000Y-81639000D01*
G75*
G02*
X137517000Y-81789000I0J-150000D01*
G01*
X137517000Y-83089000D01*
G75*
G02*
X137367000Y-83239000I-150000J0D01*
G01*
X137067000Y-83239000D01*
G75*
G02*
X136917000Y-83089000I0J150000D01*
G01*
X136917000Y-81789000D01*
G75*
G02*
X137067000Y-81639000I150000J0D01*
G01*
G37*
G36*
G01*
X137867000Y-81639000D02*
X138167000Y-81639000D01*
G75*
G02*
X138317000Y-81789000I0J-150000D01*
G01*
X138317000Y-83089000D01*
G75*
G02*
X138167000Y-83239000I-150000J0D01*
G01*
X137867000Y-83239000D01*
G75*
G02*
X137717000Y-83089000I0J150000D01*
G01*
X137717000Y-81789000D01*
G75*
G02*
X137867000Y-81639000I150000J0D01*
G01*
G37*
G36*
G01*
X138667000Y-81639000D02*
X138967000Y-81639000D01*
G75*
G02*
X139117000Y-81789000I0J-150000D01*
G01*
X139117000Y-83089000D01*
G75*
G02*
X138967000Y-83239000I-150000J0D01*
G01*
X138667000Y-83239000D01*
G75*
G02*
X138517000Y-83089000I0J150000D01*
G01*
X138517000Y-81789000D01*
G75*
G02*
X138667000Y-81639000I150000J0D01*
G01*
G37*
%TD*%
D15*
%TO.C,U3*%
X104074000Y-106887000D03*
X102174000Y-106887000D03*
X102174000Y-104187000D03*
X103124000Y-104187000D03*
X104074000Y-104187000D03*
%TD*%
D16*
%TO.C,U1*%
X180238000Y-84695000D03*
X180238000Y-89295000D03*
X180238000Y-86995000D03*
D17*
X186538000Y-86995000D03*
%TD*%
%TO.C,R10*%
G36*
G01*
X153826738Y-101111000D02*
X154783262Y-101111000D01*
G75*
G02*
X155055000Y-101382738I0J-271738D01*
G01*
X155055000Y-102089262D01*
G75*
G02*
X154783262Y-102361000I-271738J0D01*
G01*
X153826738Y-102361000D01*
G75*
G02*
X153555000Y-102089262I0J271738D01*
G01*
X153555000Y-101382738D01*
G75*
G02*
X153826738Y-101111000I271738J0D01*
G01*
G37*
G36*
G01*
X153826738Y-99061000D02*
X154783262Y-99061000D01*
G75*
G02*
X155055000Y-99332738I0J-271738D01*
G01*
X155055000Y-100039262D01*
G75*
G02*
X154783262Y-100311000I-271738J0D01*
G01*
X153826738Y-100311000D01*
G75*
G02*
X153555000Y-100039262I0J271738D01*
G01*
X153555000Y-99332738D01*
G75*
G02*
X153826738Y-99061000I271738J0D01*
G01*
G37*
%TD*%
%TO.C,R9*%
G36*
G01*
X133760738Y-101365000D02*
X134717262Y-101365000D01*
G75*
G02*
X134989000Y-101636738I0J-271738D01*
G01*
X134989000Y-102343262D01*
G75*
G02*
X134717262Y-102615000I-271738J0D01*
G01*
X133760738Y-102615000D01*
G75*
G02*
X133489000Y-102343262I0J271738D01*
G01*
X133489000Y-101636738D01*
G75*
G02*
X133760738Y-101365000I271738J0D01*
G01*
G37*
G36*
G01*
X133760738Y-99315000D02*
X134717262Y-99315000D01*
G75*
G02*
X134989000Y-99586738I0J-271738D01*
G01*
X134989000Y-100293262D01*
G75*
G02*
X134717262Y-100565000I-271738J0D01*
G01*
X133760738Y-100565000D01*
G75*
G02*
X133489000Y-100293262I0J271738D01*
G01*
X133489000Y-99586738D01*
G75*
G02*
X133760738Y-99315000I271738J0D01*
G01*
G37*
%TD*%
%TO.C,R8*%
G36*
G01*
X112805738Y-101238000D02*
X113762262Y-101238000D01*
G75*
G02*
X114034000Y-101509738I0J-271738D01*
G01*
X114034000Y-102216262D01*
G75*
G02*
X113762262Y-102488000I-271738J0D01*
G01*
X112805738Y-102488000D01*
G75*
G02*
X112534000Y-102216262I0J271738D01*
G01*
X112534000Y-101509738D01*
G75*
G02*
X112805738Y-101238000I271738J0D01*
G01*
G37*
G36*
G01*
X112805738Y-99188000D02*
X113762262Y-99188000D01*
G75*
G02*
X114034000Y-99459738I0J-271738D01*
G01*
X114034000Y-100166262D01*
G75*
G02*
X113762262Y-100438000I-271738J0D01*
G01*
X112805738Y-100438000D01*
G75*
G02*
X112534000Y-100166262I0J271738D01*
G01*
X112534000Y-99459738D01*
G75*
G02*
X112805738Y-99188000I271738J0D01*
G01*
G37*
%TD*%
%TO.C,R7*%
G36*
G01*
X92231738Y-100730000D02*
X93188262Y-100730000D01*
G75*
G02*
X93460000Y-101001738I0J-271738D01*
G01*
X93460000Y-101708262D01*
G75*
G02*
X93188262Y-101980000I-271738J0D01*
G01*
X92231738Y-101980000D01*
G75*
G02*
X91960000Y-101708262I0J271738D01*
G01*
X91960000Y-101001738D01*
G75*
G02*
X92231738Y-100730000I271738J0D01*
G01*
G37*
G36*
G01*
X92231738Y-98680000D02*
X93188262Y-98680000D01*
G75*
G02*
X93460000Y-98951738I0J-271738D01*
G01*
X93460000Y-99658262D01*
G75*
G02*
X93188262Y-99930000I-271738J0D01*
G01*
X92231738Y-99930000D01*
G75*
G02*
X91960000Y-99658262I0J271738D01*
G01*
X91960000Y-98951738D01*
G75*
G02*
X92231738Y-98680000I271738J0D01*
G01*
G37*
%TD*%
D18*
%TO.C,JP1*%
X176418000Y-89408000D03*
X175118000Y-89408000D03*
%TD*%
D19*
%TO.C,J7*%
X131191000Y-93980000D03*
X133731000Y-93980000D03*
X136271000Y-93980000D03*
X138811000Y-93980000D03*
D20*
X141351000Y-93980000D03*
%TD*%
D21*
%TO.C,D14*%
X167005000Y-55245000D03*
D22*
X167005000Y-52705000D03*
%TD*%
D21*
%TO.C,D10*%
X146431000Y-55372000D03*
D22*
X146431000Y-52832000D03*
%TD*%
D21*
%TO.C,D2*%
X125857000Y-55372000D03*
D22*
X125857000Y-52832000D03*
%TD*%
D21*
%TO.C,D1*%
X105219500Y-55245000D03*
D22*
X105219500Y-52705000D03*
%TD*%
%TO.C,C41*%
G36*
G01*
X152243262Y-100311000D02*
X151286738Y-100311000D01*
G75*
G02*
X151015000Y-100039262I0J271738D01*
G01*
X151015000Y-99332738D01*
G75*
G02*
X151286738Y-99061000I271738J0D01*
G01*
X152243262Y-99061000D01*
G75*
G02*
X152515000Y-99332738I0J-271738D01*
G01*
X152515000Y-100039262D01*
G75*
G02*
X152243262Y-100311000I-271738J0D01*
G01*
G37*
G36*
G01*
X152243262Y-102361000D02*
X151286738Y-102361000D01*
G75*
G02*
X151015000Y-102089262I0J271738D01*
G01*
X151015000Y-101382738D01*
G75*
G02*
X151286738Y-101111000I271738J0D01*
G01*
X152243262Y-101111000D01*
G75*
G02*
X152515000Y-101382738I0J-271738D01*
G01*
X152515000Y-102089262D01*
G75*
G02*
X152243262Y-102361000I-271738J0D01*
G01*
G37*
%TD*%
%TO.C,C40*%
G36*
G01*
X132177262Y-100565000D02*
X131220738Y-100565000D01*
G75*
G02*
X130949000Y-100293262I0J271738D01*
G01*
X130949000Y-99586738D01*
G75*
G02*
X131220738Y-99315000I271738J0D01*
G01*
X132177262Y-99315000D01*
G75*
G02*
X132449000Y-99586738I0J-271738D01*
G01*
X132449000Y-100293262D01*
G75*
G02*
X132177262Y-100565000I-271738J0D01*
G01*
G37*
G36*
G01*
X132177262Y-102615000D02*
X131220738Y-102615000D01*
G75*
G02*
X130949000Y-102343262I0J271738D01*
G01*
X130949000Y-101636738D01*
G75*
G02*
X131220738Y-101365000I271738J0D01*
G01*
X132177262Y-101365000D01*
G75*
G02*
X132449000Y-101636738I0J-271738D01*
G01*
X132449000Y-102343262D01*
G75*
G02*
X132177262Y-102615000I-271738J0D01*
G01*
G37*
%TD*%
%TO.C,C33*%
G36*
G01*
X111222262Y-100438000D02*
X110265738Y-100438000D01*
G75*
G02*
X109994000Y-100166262I0J271738D01*
G01*
X109994000Y-99459738D01*
G75*
G02*
X110265738Y-99188000I271738J0D01*
G01*
X111222262Y-99188000D01*
G75*
G02*
X111494000Y-99459738I0J-271738D01*
G01*
X111494000Y-100166262D01*
G75*
G02*
X111222262Y-100438000I-271738J0D01*
G01*
G37*
G36*
G01*
X111222262Y-102488000D02*
X110265738Y-102488000D01*
G75*
G02*
X109994000Y-102216262I0J271738D01*
G01*
X109994000Y-101509738D01*
G75*
G02*
X110265738Y-101238000I271738J0D01*
G01*
X111222262Y-101238000D01*
G75*
G02*
X111494000Y-101509738I0J-271738D01*
G01*
X111494000Y-102216262D01*
G75*
G02*
X111222262Y-102488000I-271738J0D01*
G01*
G37*
%TD*%
%TO.C,C32*%
G36*
G01*
X91156262Y-99930000D02*
X90199738Y-99930000D01*
G75*
G02*
X89928000Y-99658262I0J271738D01*
G01*
X89928000Y-98951738D01*
G75*
G02*
X90199738Y-98680000I271738J0D01*
G01*
X91156262Y-98680000D01*
G75*
G02*
X91428000Y-98951738I0J-271738D01*
G01*
X91428000Y-99658262D01*
G75*
G02*
X91156262Y-99930000I-271738J0D01*
G01*
G37*
G36*
G01*
X91156262Y-101980000D02*
X90199738Y-101980000D01*
G75*
G02*
X89928000Y-101708262I0J271738D01*
G01*
X89928000Y-101001738D01*
G75*
G02*
X90199738Y-100730000I271738J0D01*
G01*
X91156262Y-100730000D01*
G75*
G02*
X91428000Y-101001738I0J-271738D01*
G01*
X91428000Y-101708262D01*
G75*
G02*
X91156262Y-101980000I-271738J0D01*
G01*
G37*
%TD*%
%TO.C,C21*%
G36*
G01*
X184875000Y-99082456D02*
X184875000Y-97767544D01*
G75*
G02*
X185142544Y-97500000I267544J0D01*
G01*
X186132456Y-97500000D01*
G75*
G02*
X186400000Y-97767544I0J-267544D01*
G01*
X186400000Y-99082456D01*
G75*
G02*
X186132456Y-99350000I-267544J0D01*
G01*
X185142544Y-99350000D01*
G75*
G02*
X184875000Y-99082456I0J267544D01*
G01*
G37*
G36*
G01*
X181900000Y-99082456D02*
X181900000Y-97767544D01*
G75*
G02*
X182167544Y-97500000I267544J0D01*
G01*
X183157456Y-97500000D01*
G75*
G02*
X183425000Y-97767544I0J-267544D01*
G01*
X183425000Y-99082456D01*
G75*
G02*
X183157456Y-99350000I-267544J0D01*
G01*
X182167544Y-99350000D01*
G75*
G02*
X181900000Y-99082456I0J267544D01*
G01*
G37*
%TD*%
%TO.C,C20*%
G36*
G01*
X184875000Y-75841456D02*
X184875000Y-74526544D01*
G75*
G02*
X185142544Y-74259000I267544J0D01*
G01*
X186132456Y-74259000D01*
G75*
G02*
X186400000Y-74526544I0J-267544D01*
G01*
X186400000Y-75841456D01*
G75*
G02*
X186132456Y-76109000I-267544J0D01*
G01*
X185142544Y-76109000D01*
G75*
G02*
X184875000Y-75841456I0J267544D01*
G01*
G37*
G36*
G01*
X181900000Y-75841456D02*
X181900000Y-74526544D01*
G75*
G02*
X182167544Y-74259000I267544J0D01*
G01*
X183157456Y-74259000D01*
G75*
G02*
X183425000Y-74526544I0J-267544D01*
G01*
X183425000Y-75841456D01*
G75*
G02*
X183157456Y-76109000I-267544J0D01*
G01*
X182167544Y-76109000D01*
G75*
G02*
X181900000Y-75841456I0J267544D01*
G01*
G37*
%TD*%
%TO.C,C19*%
G36*
G01*
X164446000Y-100486738D02*
X164446000Y-101443262D01*
G75*
G02*
X164174262Y-101715000I-271738J0D01*
G01*
X163467738Y-101715000D01*
G75*
G02*
X163196000Y-101443262I0J271738D01*
G01*
X163196000Y-100486738D01*
G75*
G02*
X163467738Y-100215000I271738J0D01*
G01*
X164174262Y-100215000D01*
G75*
G02*
X164446000Y-100486738I0J-271738D01*
G01*
G37*
G36*
G01*
X166496000Y-100486738D02*
X166496000Y-101443262D01*
G75*
G02*
X166224262Y-101715000I-271738J0D01*
G01*
X165517738Y-101715000D01*
G75*
G02*
X165246000Y-101443262I0J271738D01*
G01*
X165246000Y-100486738D01*
G75*
G02*
X165517738Y-100215000I271738J0D01*
G01*
X166224262Y-100215000D01*
G75*
G02*
X166496000Y-100486738I0J-271738D01*
G01*
G37*
%TD*%
%TO.C,C18*%
G36*
G01*
X160557738Y-106445000D02*
X161514262Y-106445000D01*
G75*
G02*
X161786000Y-106716738I0J-271738D01*
G01*
X161786000Y-107423262D01*
G75*
G02*
X161514262Y-107695000I-271738J0D01*
G01*
X160557738Y-107695000D01*
G75*
G02*
X160286000Y-107423262I0J271738D01*
G01*
X160286000Y-106716738D01*
G75*
G02*
X160557738Y-106445000I271738J0D01*
G01*
G37*
G36*
G01*
X160557738Y-104395000D02*
X161514262Y-104395000D01*
G75*
G02*
X161786000Y-104666738I0J-271738D01*
G01*
X161786000Y-105373262D01*
G75*
G02*
X161514262Y-105645000I-271738J0D01*
G01*
X160557738Y-105645000D01*
G75*
G02*
X160286000Y-105373262I0J271738D01*
G01*
X160286000Y-104666738D01*
G75*
G02*
X160557738Y-104395000I271738J0D01*
G01*
G37*
%TD*%
%TO.C,C15*%
G36*
G01*
X152635000Y-96676738D02*
X152635000Y-97633262D01*
G75*
G02*
X152363262Y-97905000I-271738J0D01*
G01*
X151656738Y-97905000D01*
G75*
G02*
X151385000Y-97633262I0J271738D01*
G01*
X151385000Y-96676738D01*
G75*
G02*
X151656738Y-96405000I271738J0D01*
G01*
X152363262Y-96405000D01*
G75*
G02*
X152635000Y-96676738I0J-271738D01*
G01*
G37*
G36*
G01*
X154685000Y-96676738D02*
X154685000Y-97633262D01*
G75*
G02*
X154413262Y-97905000I-271738J0D01*
G01*
X153706738Y-97905000D01*
G75*
G02*
X153435000Y-97633262I0J271738D01*
G01*
X153435000Y-96676738D01*
G75*
G02*
X153706738Y-96405000I271738J0D01*
G01*
X154413262Y-96405000D01*
G75*
G02*
X154685000Y-96676738I0J-271738D01*
G01*
G37*
%TD*%
%TO.C,C11*%
G36*
G01*
X143999000Y-100486738D02*
X143999000Y-101443262D01*
G75*
G02*
X143727262Y-101715000I-271738J0D01*
G01*
X143020738Y-101715000D01*
G75*
G02*
X142749000Y-101443262I0J271738D01*
G01*
X142749000Y-100486738D01*
G75*
G02*
X143020738Y-100215000I271738J0D01*
G01*
X143727262Y-100215000D01*
G75*
G02*
X143999000Y-100486738I0J-271738D01*
G01*
G37*
G36*
G01*
X146049000Y-100486738D02*
X146049000Y-101443262D01*
G75*
G02*
X145777262Y-101715000I-271738J0D01*
G01*
X145070738Y-101715000D01*
G75*
G02*
X144799000Y-101443262I0J271738D01*
G01*
X144799000Y-100486738D01*
G75*
G02*
X145070738Y-100215000I271738J0D01*
G01*
X145777262Y-100215000D01*
G75*
G02*
X146049000Y-100486738I0J-271738D01*
G01*
G37*
%TD*%
%TO.C,C10*%
G36*
G01*
X132569000Y-97311738D02*
X132569000Y-98268262D01*
G75*
G02*
X132297262Y-98540000I-271738J0D01*
G01*
X131590738Y-98540000D01*
G75*
G02*
X131319000Y-98268262I0J271738D01*
G01*
X131319000Y-97311738D01*
G75*
G02*
X131590738Y-97040000I271738J0D01*
G01*
X132297262Y-97040000D01*
G75*
G02*
X132569000Y-97311738I0J-271738D01*
G01*
G37*
G36*
G01*
X134619000Y-97311738D02*
X134619000Y-98268262D01*
G75*
G02*
X134347262Y-98540000I-271738J0D01*
G01*
X133640738Y-98540000D01*
G75*
G02*
X133369000Y-98268262I0J271738D01*
G01*
X133369000Y-97311738D01*
G75*
G02*
X133640738Y-97040000I271738J0D01*
G01*
X134347262Y-97040000D01*
G75*
G02*
X134619000Y-97311738I0J-271738D01*
G01*
G37*
%TD*%
%TO.C,C9*%
G36*
G01*
X111614000Y-96676738D02*
X111614000Y-97633262D01*
G75*
G02*
X111342262Y-97905000I-271738J0D01*
G01*
X110635738Y-97905000D01*
G75*
G02*
X110364000Y-97633262I0J271738D01*
G01*
X110364000Y-96676738D01*
G75*
G02*
X110635738Y-96405000I271738J0D01*
G01*
X111342262Y-96405000D01*
G75*
G02*
X111614000Y-96676738I0J-271738D01*
G01*
G37*
G36*
G01*
X113664000Y-96676738D02*
X113664000Y-97633262D01*
G75*
G02*
X113392262Y-97905000I-271738J0D01*
G01*
X112685738Y-97905000D01*
G75*
G02*
X112414000Y-97633262I0J271738D01*
G01*
X112414000Y-96676738D01*
G75*
G02*
X112685738Y-96405000I271738J0D01*
G01*
X113392262Y-96405000D01*
G75*
G02*
X113664000Y-96676738I0J-271738D01*
G01*
G37*
%TD*%
%TO.C,C8*%
G36*
G01*
X91294000Y-96041738D02*
X91294000Y-96998262D01*
G75*
G02*
X91022262Y-97270000I-271738J0D01*
G01*
X90315738Y-97270000D01*
G75*
G02*
X90044000Y-96998262I0J271738D01*
G01*
X90044000Y-96041738D01*
G75*
G02*
X90315738Y-95770000I271738J0D01*
G01*
X91022262Y-95770000D01*
G75*
G02*
X91294000Y-96041738I0J-271738D01*
G01*
G37*
G36*
G01*
X93344000Y-96041738D02*
X93344000Y-96998262D01*
G75*
G02*
X93072262Y-97270000I-271738J0D01*
G01*
X92365738Y-97270000D01*
G75*
G02*
X92094000Y-96998262I0J271738D01*
G01*
X92094000Y-96041738D01*
G75*
G02*
X92365738Y-95770000I271738J0D01*
G01*
X93072262Y-95770000D01*
G75*
G02*
X93344000Y-96041738I0J-271738D01*
G01*
G37*
%TD*%
%TO.C,C7*%
G36*
G01*
X140364738Y-106191000D02*
X141321262Y-106191000D01*
G75*
G02*
X141593000Y-106462738I0J-271738D01*
G01*
X141593000Y-107169262D01*
G75*
G02*
X141321262Y-107441000I-271738J0D01*
G01*
X140364738Y-107441000D01*
G75*
G02*
X140093000Y-107169262I0J271738D01*
G01*
X140093000Y-106462738D01*
G75*
G02*
X140364738Y-106191000I271738J0D01*
G01*
G37*
G36*
G01*
X140364738Y-104141000D02*
X141321262Y-104141000D01*
G75*
G02*
X141593000Y-104412738I0J-271738D01*
G01*
X141593000Y-105119262D01*
G75*
G02*
X141321262Y-105391000I-271738J0D01*
G01*
X140364738Y-105391000D01*
G75*
G02*
X140093000Y-105119262I0J271738D01*
G01*
X140093000Y-104412738D01*
G75*
G02*
X140364738Y-104141000I271738J0D01*
G01*
G37*
%TD*%
%TO.C,C6*%
G36*
G01*
X123044000Y-100486738D02*
X123044000Y-101443262D01*
G75*
G02*
X122772262Y-101715000I-271738J0D01*
G01*
X122065738Y-101715000D01*
G75*
G02*
X121794000Y-101443262I0J271738D01*
G01*
X121794000Y-100486738D01*
G75*
G02*
X122065738Y-100215000I271738J0D01*
G01*
X122772262Y-100215000D01*
G75*
G02*
X123044000Y-100486738I0J-271738D01*
G01*
G37*
G36*
G01*
X125094000Y-100486738D02*
X125094000Y-101443262D01*
G75*
G02*
X124822262Y-101715000I-271738J0D01*
G01*
X124115738Y-101715000D01*
G75*
G02*
X123844000Y-101443262I0J271738D01*
G01*
X123844000Y-100486738D01*
G75*
G02*
X124115738Y-100215000I271738J0D01*
G01*
X124822262Y-100215000D01*
G75*
G02*
X125094000Y-100486738I0J-271738D01*
G01*
G37*
%TD*%
%TO.C,C5*%
G36*
G01*
X119155738Y-106318000D02*
X120112262Y-106318000D01*
G75*
G02*
X120384000Y-106589738I0J-271738D01*
G01*
X120384000Y-107296262D01*
G75*
G02*
X120112262Y-107568000I-271738J0D01*
G01*
X119155738Y-107568000D01*
G75*
G02*
X118884000Y-107296262I0J271738D01*
G01*
X118884000Y-106589738D01*
G75*
G02*
X119155738Y-106318000I271738J0D01*
G01*
G37*
G36*
G01*
X119155738Y-104268000D02*
X120112262Y-104268000D01*
G75*
G02*
X120384000Y-104539738I0J-271738D01*
G01*
X120384000Y-105246262D01*
G75*
G02*
X120112262Y-105518000I-271738J0D01*
G01*
X119155738Y-105518000D01*
G75*
G02*
X118884000Y-105246262I0J271738D01*
G01*
X118884000Y-104539738D01*
G75*
G02*
X119155738Y-104268000I271738J0D01*
G01*
G37*
%TD*%
%TO.C,C4*%
G36*
G01*
X102724000Y-99978738D02*
X102724000Y-100935262D01*
G75*
G02*
X102452262Y-101207000I-271738J0D01*
G01*
X101745738Y-101207000D01*
G75*
G02*
X101474000Y-100935262I0J271738D01*
G01*
X101474000Y-99978738D01*
G75*
G02*
X101745738Y-99707000I271738J0D01*
G01*
X102452262Y-99707000D01*
G75*
G02*
X102724000Y-99978738I0J-271738D01*
G01*
G37*
G36*
G01*
X104774000Y-99978738D02*
X104774000Y-100935262D01*
G75*
G02*
X104502262Y-101207000I-271738J0D01*
G01*
X103795738Y-101207000D01*
G75*
G02*
X103524000Y-100935262I0J271738D01*
G01*
X103524000Y-99978738D01*
G75*
G02*
X103795738Y-99707000I271738J0D01*
G01*
X104502262Y-99707000D01*
G75*
G02*
X104774000Y-99978738I0J-271738D01*
G01*
G37*
%TD*%
%TO.C,C3*%
G36*
G01*
X98835738Y-105937000D02*
X99792262Y-105937000D01*
G75*
G02*
X100064000Y-106208738I0J-271738D01*
G01*
X100064000Y-106915262D01*
G75*
G02*
X99792262Y-107187000I-271738J0D01*
G01*
X98835738Y-107187000D01*
G75*
G02*
X98564000Y-106915262I0J271738D01*
G01*
X98564000Y-106208738D01*
G75*
G02*
X98835738Y-105937000I271738J0D01*
G01*
G37*
G36*
G01*
X98835738Y-103887000D02*
X99792262Y-103887000D01*
G75*
G02*
X100064000Y-104158738I0J-271738D01*
G01*
X100064000Y-104865262D01*
G75*
G02*
X99792262Y-105137000I-271738J0D01*
G01*
X98835738Y-105137000D01*
G75*
G02*
X98564000Y-104865262I0J271738D01*
G01*
X98564000Y-104158738D01*
G75*
G02*
X98835738Y-103887000I271738J0D01*
G01*
G37*
%TD*%
D12*
%TO.C,RV3*%
X144678400Y-69443600D03*
X148183600Y-69443600D03*
X144678400Y-127939800D03*
D13*
X142240000Y-74777600D03*
X150596600Y-73583800D03*
X142240000Y-122580400D03*
X150622000Y-123799600D03*
%TD*%
D12*
%TO.C,RV1*%
X103530400Y-69469000D03*
X107035600Y-69469000D03*
X103530400Y-127965200D03*
D13*
X101092000Y-74803000D03*
X109448600Y-73609200D03*
X101092000Y-122605800D03*
X109474000Y-123825000D03*
%TD*%
D12*
%TO.C,RV4*%
X165252400Y-69443600D03*
X168757600Y-69443600D03*
X165252400Y-127939800D03*
D13*
X162814000Y-74777600D03*
X171170600Y-73583800D03*
X162814000Y-122580400D03*
X171196000Y-123799600D03*
%TD*%
%TO.C,C2*%
G36*
G01*
X184875000Y-96161456D02*
X184875000Y-94846544D01*
G75*
G02*
X185142544Y-94579000I267544J0D01*
G01*
X186132456Y-94579000D01*
G75*
G02*
X186400000Y-94846544I0J-267544D01*
G01*
X186400000Y-96161456D01*
G75*
G02*
X186132456Y-96429000I-267544J0D01*
G01*
X185142544Y-96429000D01*
G75*
G02*
X184875000Y-96161456I0J267544D01*
G01*
G37*
G36*
G01*
X181900000Y-96161456D02*
X181900000Y-94846544D01*
G75*
G02*
X182167544Y-94579000I267544J0D01*
G01*
X183157456Y-94579000D01*
G75*
G02*
X183425000Y-94846544I0J-267544D01*
G01*
X183425000Y-96161456D01*
G75*
G02*
X183157456Y-96429000I-267544J0D01*
G01*
X182167544Y-96429000D01*
G75*
G02*
X181900000Y-96161456I0J267544D01*
G01*
G37*
%TD*%
%TO.C,U11*%
G36*
G01*
X160703000Y-111580000D02*
X160353000Y-111580000D01*
G75*
G02*
X160178000Y-111405000I0J175000D01*
G01*
X160178000Y-109705000D01*
G75*
G02*
X160353000Y-109530000I175000J0D01*
G01*
X160703000Y-109530000D01*
G75*
G02*
X160878000Y-109705000I0J-175000D01*
G01*
X160878000Y-111405000D01*
G75*
G02*
X160703000Y-111580000I-175000J0D01*
G01*
G37*
G36*
G01*
X161973000Y-111580000D02*
X161623000Y-111580000D01*
G75*
G02*
X161448000Y-111405000I0J175000D01*
G01*
X161448000Y-109705000D01*
G75*
G02*
X161623000Y-109530000I175000J0D01*
G01*
X161973000Y-109530000D01*
G75*
G02*
X162148000Y-109705000I0J-175000D01*
G01*
X162148000Y-111405000D01*
G75*
G02*
X161973000Y-111580000I-175000J0D01*
G01*
G37*
G36*
G01*
X163243000Y-111580000D02*
X162893000Y-111580000D01*
G75*
G02*
X162718000Y-111405000I0J175000D01*
G01*
X162718000Y-109705000D01*
G75*
G02*
X162893000Y-109530000I175000J0D01*
G01*
X163243000Y-109530000D01*
G75*
G02*
X163418000Y-109705000I0J-175000D01*
G01*
X163418000Y-111405000D01*
G75*
G02*
X163243000Y-111580000I-175000J0D01*
G01*
G37*
G36*
G01*
X164513000Y-111580000D02*
X164163000Y-111580000D01*
G75*
G02*
X163988000Y-111405000I0J175000D01*
G01*
X163988000Y-109705000D01*
G75*
G02*
X164163000Y-109530000I175000J0D01*
G01*
X164513000Y-109530000D01*
G75*
G02*
X164688000Y-109705000I0J-175000D01*
G01*
X164688000Y-111405000D01*
G75*
G02*
X164513000Y-111580000I-175000J0D01*
G01*
G37*
G36*
G01*
X164513000Y-116530000D02*
X164163000Y-116530000D01*
G75*
G02*
X163988000Y-116355000I0J175000D01*
G01*
X163988000Y-114655000D01*
G75*
G02*
X164163000Y-114480000I175000J0D01*
G01*
X164513000Y-114480000D01*
G75*
G02*
X164688000Y-114655000I0J-175000D01*
G01*
X164688000Y-116355000D01*
G75*
G02*
X164513000Y-116530000I-175000J0D01*
G01*
G37*
G36*
G01*
X163243000Y-116530000D02*
X162893000Y-116530000D01*
G75*
G02*
X162718000Y-116355000I0J175000D01*
G01*
X162718000Y-114655000D01*
G75*
G02*
X162893000Y-114480000I175000J0D01*
G01*
X163243000Y-114480000D01*
G75*
G02*
X163418000Y-114655000I0J-175000D01*
G01*
X163418000Y-116355000D01*
G75*
G02*
X163243000Y-116530000I-175000J0D01*
G01*
G37*
G36*
G01*
X161973000Y-116530000D02*
X161623000Y-116530000D01*
G75*
G02*
X161448000Y-116355000I0J175000D01*
G01*
X161448000Y-114655000D01*
G75*
G02*
X161623000Y-114480000I175000J0D01*
G01*
X161973000Y-114480000D01*
G75*
G02*
X162148000Y-114655000I0J-175000D01*
G01*
X162148000Y-116355000D01*
G75*
G02*
X161973000Y-116530000I-175000J0D01*
G01*
G37*
G36*
G01*
X160703000Y-116530000D02*
X160353000Y-116530000D01*
G75*
G02*
X160178000Y-116355000I0J175000D01*
G01*
X160178000Y-114655000D01*
G75*
G02*
X160353000Y-114480000I175000J0D01*
G01*
X160703000Y-114480000D01*
G75*
G02*
X160878000Y-114655000I0J-175000D01*
G01*
X160878000Y-116355000D01*
G75*
G02*
X160703000Y-116530000I-175000J0D01*
G01*
G37*
%TD*%
%TO.C,U8*%
G36*
G01*
X140129000Y-111453000D02*
X139779000Y-111453000D01*
G75*
G02*
X139604000Y-111278000I0J175000D01*
G01*
X139604000Y-109578000D01*
G75*
G02*
X139779000Y-109403000I175000J0D01*
G01*
X140129000Y-109403000D01*
G75*
G02*
X140304000Y-109578000I0J-175000D01*
G01*
X140304000Y-111278000D01*
G75*
G02*
X140129000Y-111453000I-175000J0D01*
G01*
G37*
G36*
G01*
X141399000Y-111453000D02*
X141049000Y-111453000D01*
G75*
G02*
X140874000Y-111278000I0J175000D01*
G01*
X140874000Y-109578000D01*
G75*
G02*
X141049000Y-109403000I175000J0D01*
G01*
X141399000Y-109403000D01*
G75*
G02*
X141574000Y-109578000I0J-175000D01*
G01*
X141574000Y-111278000D01*
G75*
G02*
X141399000Y-111453000I-175000J0D01*
G01*
G37*
G36*
G01*
X142669000Y-111453000D02*
X142319000Y-111453000D01*
G75*
G02*
X142144000Y-111278000I0J175000D01*
G01*
X142144000Y-109578000D01*
G75*
G02*
X142319000Y-109403000I175000J0D01*
G01*
X142669000Y-109403000D01*
G75*
G02*
X142844000Y-109578000I0J-175000D01*
G01*
X142844000Y-111278000D01*
G75*
G02*
X142669000Y-111453000I-175000J0D01*
G01*
G37*
G36*
G01*
X143939000Y-111453000D02*
X143589000Y-111453000D01*
G75*
G02*
X143414000Y-111278000I0J175000D01*
G01*
X143414000Y-109578000D01*
G75*
G02*
X143589000Y-109403000I175000J0D01*
G01*
X143939000Y-109403000D01*
G75*
G02*
X144114000Y-109578000I0J-175000D01*
G01*
X144114000Y-111278000D01*
G75*
G02*
X143939000Y-111453000I-175000J0D01*
G01*
G37*
G36*
G01*
X143939000Y-116403000D02*
X143589000Y-116403000D01*
G75*
G02*
X143414000Y-116228000I0J175000D01*
G01*
X143414000Y-114528000D01*
G75*
G02*
X143589000Y-114353000I175000J0D01*
G01*
X143939000Y-114353000D01*
G75*
G02*
X144114000Y-114528000I0J-175000D01*
G01*
X144114000Y-116228000D01*
G75*
G02*
X143939000Y-116403000I-175000J0D01*
G01*
G37*
G36*
G01*
X142669000Y-116403000D02*
X142319000Y-116403000D01*
G75*
G02*
X142144000Y-116228000I0J175000D01*
G01*
X142144000Y-114528000D01*
G75*
G02*
X142319000Y-114353000I175000J0D01*
G01*
X142669000Y-114353000D01*
G75*
G02*
X142844000Y-114528000I0J-175000D01*
G01*
X142844000Y-116228000D01*
G75*
G02*
X142669000Y-116403000I-175000J0D01*
G01*
G37*
G36*
G01*
X141399000Y-116403000D02*
X141049000Y-116403000D01*
G75*
G02*
X140874000Y-116228000I0J175000D01*
G01*
X140874000Y-114528000D01*
G75*
G02*
X141049000Y-114353000I175000J0D01*
G01*
X141399000Y-114353000D01*
G75*
G02*
X141574000Y-114528000I0J-175000D01*
G01*
X141574000Y-116228000D01*
G75*
G02*
X141399000Y-116403000I-175000J0D01*
G01*
G37*
G36*
G01*
X140129000Y-116403000D02*
X139779000Y-116403000D01*
G75*
G02*
X139604000Y-116228000I0J175000D01*
G01*
X139604000Y-114528000D01*
G75*
G02*
X139779000Y-114353000I175000J0D01*
G01*
X140129000Y-114353000D01*
G75*
G02*
X140304000Y-114528000I0J-175000D01*
G01*
X140304000Y-116228000D01*
G75*
G02*
X140129000Y-116403000I-175000J0D01*
G01*
G37*
%TD*%
%TO.C,U5*%
G36*
G01*
X119428000Y-111453000D02*
X119078000Y-111453000D01*
G75*
G02*
X118903000Y-111278000I0J175000D01*
G01*
X118903000Y-109578000D01*
G75*
G02*
X119078000Y-109403000I175000J0D01*
G01*
X119428000Y-109403000D01*
G75*
G02*
X119603000Y-109578000I0J-175000D01*
G01*
X119603000Y-111278000D01*
G75*
G02*
X119428000Y-111453000I-175000J0D01*
G01*
G37*
G36*
G01*
X120698000Y-111453000D02*
X120348000Y-111453000D01*
G75*
G02*
X120173000Y-111278000I0J175000D01*
G01*
X120173000Y-109578000D01*
G75*
G02*
X120348000Y-109403000I175000J0D01*
G01*
X120698000Y-109403000D01*
G75*
G02*
X120873000Y-109578000I0J-175000D01*
G01*
X120873000Y-111278000D01*
G75*
G02*
X120698000Y-111453000I-175000J0D01*
G01*
G37*
G36*
G01*
X121968000Y-111453000D02*
X121618000Y-111453000D01*
G75*
G02*
X121443000Y-111278000I0J175000D01*
G01*
X121443000Y-109578000D01*
G75*
G02*
X121618000Y-109403000I175000J0D01*
G01*
X121968000Y-109403000D01*
G75*
G02*
X122143000Y-109578000I0J-175000D01*
G01*
X122143000Y-111278000D01*
G75*
G02*
X121968000Y-111453000I-175000J0D01*
G01*
G37*
G36*
G01*
X123238000Y-111453000D02*
X122888000Y-111453000D01*
G75*
G02*
X122713000Y-111278000I0J175000D01*
G01*
X122713000Y-109578000D01*
G75*
G02*
X122888000Y-109403000I175000J0D01*
G01*
X123238000Y-109403000D01*
G75*
G02*
X123413000Y-109578000I0J-175000D01*
G01*
X123413000Y-111278000D01*
G75*
G02*
X123238000Y-111453000I-175000J0D01*
G01*
G37*
G36*
G01*
X123238000Y-116403000D02*
X122888000Y-116403000D01*
G75*
G02*
X122713000Y-116228000I0J175000D01*
G01*
X122713000Y-114528000D01*
G75*
G02*
X122888000Y-114353000I175000J0D01*
G01*
X123238000Y-114353000D01*
G75*
G02*
X123413000Y-114528000I0J-175000D01*
G01*
X123413000Y-116228000D01*
G75*
G02*
X123238000Y-116403000I-175000J0D01*
G01*
G37*
G36*
G01*
X121968000Y-116403000D02*
X121618000Y-116403000D01*
G75*
G02*
X121443000Y-116228000I0J175000D01*
G01*
X121443000Y-114528000D01*
G75*
G02*
X121618000Y-114353000I175000J0D01*
G01*
X121968000Y-114353000D01*
G75*
G02*
X122143000Y-114528000I0J-175000D01*
G01*
X122143000Y-116228000D01*
G75*
G02*
X121968000Y-116403000I-175000J0D01*
G01*
G37*
G36*
G01*
X120698000Y-116403000D02*
X120348000Y-116403000D01*
G75*
G02*
X120173000Y-116228000I0J175000D01*
G01*
X120173000Y-114528000D01*
G75*
G02*
X120348000Y-114353000I175000J0D01*
G01*
X120698000Y-114353000D01*
G75*
G02*
X120873000Y-114528000I0J-175000D01*
G01*
X120873000Y-116228000D01*
G75*
G02*
X120698000Y-116403000I-175000J0D01*
G01*
G37*
G36*
G01*
X119428000Y-116403000D02*
X119078000Y-116403000D01*
G75*
G02*
X118903000Y-116228000I0J175000D01*
G01*
X118903000Y-114528000D01*
G75*
G02*
X119078000Y-114353000I175000J0D01*
G01*
X119428000Y-114353000D01*
G75*
G02*
X119603000Y-114528000I0J-175000D01*
G01*
X119603000Y-116228000D01*
G75*
G02*
X119428000Y-116403000I-175000J0D01*
G01*
G37*
%TD*%
%TO.C,U2*%
G36*
G01*
X98727000Y-111072000D02*
X98377000Y-111072000D01*
G75*
G02*
X98202000Y-110897000I0J175000D01*
G01*
X98202000Y-109197000D01*
G75*
G02*
X98377000Y-109022000I175000J0D01*
G01*
X98727000Y-109022000D01*
G75*
G02*
X98902000Y-109197000I0J-175000D01*
G01*
X98902000Y-110897000D01*
G75*
G02*
X98727000Y-111072000I-175000J0D01*
G01*
G37*
G36*
G01*
X99997000Y-111072000D02*
X99647000Y-111072000D01*
G75*
G02*
X99472000Y-110897000I0J175000D01*
G01*
X99472000Y-109197000D01*
G75*
G02*
X99647000Y-109022000I175000J0D01*
G01*
X99997000Y-109022000D01*
G75*
G02*
X100172000Y-109197000I0J-175000D01*
G01*
X100172000Y-110897000D01*
G75*
G02*
X99997000Y-111072000I-175000J0D01*
G01*
G37*
G36*
G01*
X101267000Y-111072000D02*
X100917000Y-111072000D01*
G75*
G02*
X100742000Y-110897000I0J175000D01*
G01*
X100742000Y-109197000D01*
G75*
G02*
X100917000Y-109022000I175000J0D01*
G01*
X101267000Y-109022000D01*
G75*
G02*
X101442000Y-109197000I0J-175000D01*
G01*
X101442000Y-110897000D01*
G75*
G02*
X101267000Y-111072000I-175000J0D01*
G01*
G37*
G36*
G01*
X102537000Y-111072000D02*
X102187000Y-111072000D01*
G75*
G02*
X102012000Y-110897000I0J175000D01*
G01*
X102012000Y-109197000D01*
G75*
G02*
X102187000Y-109022000I175000J0D01*
G01*
X102537000Y-109022000D01*
G75*
G02*
X102712000Y-109197000I0J-175000D01*
G01*
X102712000Y-110897000D01*
G75*
G02*
X102537000Y-111072000I-175000J0D01*
G01*
G37*
G36*
G01*
X102537000Y-116022000D02*
X102187000Y-116022000D01*
G75*
G02*
X102012000Y-115847000I0J175000D01*
G01*
X102012000Y-114147000D01*
G75*
G02*
X102187000Y-113972000I175000J0D01*
G01*
X102537000Y-113972000D01*
G75*
G02*
X102712000Y-114147000I0J-175000D01*
G01*
X102712000Y-115847000D01*
G75*
G02*
X102537000Y-116022000I-175000J0D01*
G01*
G37*
G36*
G01*
X101267000Y-116022000D02*
X100917000Y-116022000D01*
G75*
G02*
X100742000Y-115847000I0J175000D01*
G01*
X100742000Y-114147000D01*
G75*
G02*
X100917000Y-113972000I175000J0D01*
G01*
X101267000Y-113972000D01*
G75*
G02*
X101442000Y-114147000I0J-175000D01*
G01*
X101442000Y-115847000D01*
G75*
G02*
X101267000Y-116022000I-175000J0D01*
G01*
G37*
G36*
G01*
X99997000Y-116022000D02*
X99647000Y-116022000D01*
G75*
G02*
X99472000Y-115847000I0J175000D01*
G01*
X99472000Y-114147000D01*
G75*
G02*
X99647000Y-113972000I175000J0D01*
G01*
X99997000Y-113972000D01*
G75*
G02*
X100172000Y-114147000I0J-175000D01*
G01*
X100172000Y-115847000D01*
G75*
G02*
X99997000Y-116022000I-175000J0D01*
G01*
G37*
G36*
G01*
X98727000Y-116022000D02*
X98377000Y-116022000D01*
G75*
G02*
X98202000Y-115847000I0J175000D01*
G01*
X98202000Y-114147000D01*
G75*
G02*
X98377000Y-113972000I175000J0D01*
G01*
X98727000Y-113972000D01*
G75*
G02*
X98902000Y-114147000I0J-175000D01*
G01*
X98902000Y-115847000D01*
G75*
G02*
X98727000Y-116022000I-175000J0D01*
G01*
G37*
%TD*%
%TO.C,R24*%
G36*
G01*
X152889000Y-108614738D02*
X152889000Y-109571262D01*
G75*
G02*
X152617262Y-109843000I-271738J0D01*
G01*
X151910738Y-109843000D01*
G75*
G02*
X151639000Y-109571262I0J271738D01*
G01*
X151639000Y-108614738D01*
G75*
G02*
X151910738Y-108343000I271738J0D01*
G01*
X152617262Y-108343000D01*
G75*
G02*
X152889000Y-108614738I0J-271738D01*
G01*
G37*
G36*
G01*
X154939000Y-108614738D02*
X154939000Y-109571262D01*
G75*
G02*
X154667262Y-109843000I-271738J0D01*
G01*
X153960738Y-109843000D01*
G75*
G02*
X153689000Y-109571262I0J271738D01*
G01*
X153689000Y-108614738D01*
G75*
G02*
X153960738Y-108343000I271738J0D01*
G01*
X154667262Y-108343000D01*
G75*
G02*
X154939000Y-108614738I0J-271738D01*
G01*
G37*
%TD*%
%TO.C,R23*%
G36*
G01*
X153689000Y-116048262D02*
X153689000Y-115091738D01*
G75*
G02*
X153960738Y-114820000I271738J0D01*
G01*
X154667262Y-114820000D01*
G75*
G02*
X154939000Y-115091738I0J-271738D01*
G01*
X154939000Y-116048262D01*
G75*
G02*
X154667262Y-116320000I-271738J0D01*
G01*
X153960738Y-116320000D01*
G75*
G02*
X153689000Y-116048262I0J271738D01*
G01*
G37*
G36*
G01*
X151639000Y-116048262D02*
X151639000Y-115091738D01*
G75*
G02*
X151910738Y-114820000I271738J0D01*
G01*
X152617262Y-114820000D01*
G75*
G02*
X152889000Y-115091738I0J-271738D01*
G01*
X152889000Y-116048262D01*
G75*
G02*
X152617262Y-116320000I-271738J0D01*
G01*
X151910738Y-116320000D01*
G75*
G02*
X151639000Y-116048262I0J271738D01*
G01*
G37*
%TD*%
%TO.C,R18*%
G36*
G01*
X132569000Y-108614738D02*
X132569000Y-109571262D01*
G75*
G02*
X132297262Y-109843000I-271738J0D01*
G01*
X131590738Y-109843000D01*
G75*
G02*
X131319000Y-109571262I0J271738D01*
G01*
X131319000Y-108614738D01*
G75*
G02*
X131590738Y-108343000I271738J0D01*
G01*
X132297262Y-108343000D01*
G75*
G02*
X132569000Y-108614738I0J-271738D01*
G01*
G37*
G36*
G01*
X134619000Y-108614738D02*
X134619000Y-109571262D01*
G75*
G02*
X134347262Y-109843000I-271738J0D01*
G01*
X133640738Y-109843000D01*
G75*
G02*
X133369000Y-109571262I0J271738D01*
G01*
X133369000Y-108614738D01*
G75*
G02*
X133640738Y-108343000I271738J0D01*
G01*
X134347262Y-108343000D01*
G75*
G02*
X134619000Y-108614738I0J-271738D01*
G01*
G37*
%TD*%
%TO.C,R17*%
G36*
G01*
X133369000Y-115921262D02*
X133369000Y-114964738D01*
G75*
G02*
X133640738Y-114693000I271738J0D01*
G01*
X134347262Y-114693000D01*
G75*
G02*
X134619000Y-114964738I0J-271738D01*
G01*
X134619000Y-115921262D01*
G75*
G02*
X134347262Y-116193000I-271738J0D01*
G01*
X133640738Y-116193000D01*
G75*
G02*
X133369000Y-115921262I0J271738D01*
G01*
G37*
G36*
G01*
X131319000Y-115921262D02*
X131319000Y-114964738D01*
G75*
G02*
X131590738Y-114693000I271738J0D01*
G01*
X132297262Y-114693000D01*
G75*
G02*
X132569000Y-114964738I0J-271738D01*
G01*
X132569000Y-115921262D01*
G75*
G02*
X132297262Y-116193000I-271738J0D01*
G01*
X131590738Y-116193000D01*
G75*
G02*
X131319000Y-115921262I0J271738D01*
G01*
G37*
%TD*%
%TO.C,R12*%
G36*
G01*
X111614000Y-108614738D02*
X111614000Y-109571262D01*
G75*
G02*
X111342262Y-109843000I-271738J0D01*
G01*
X110635738Y-109843000D01*
G75*
G02*
X110364000Y-109571262I0J271738D01*
G01*
X110364000Y-108614738D01*
G75*
G02*
X110635738Y-108343000I271738J0D01*
G01*
X111342262Y-108343000D01*
G75*
G02*
X111614000Y-108614738I0J-271738D01*
G01*
G37*
G36*
G01*
X113664000Y-108614738D02*
X113664000Y-109571262D01*
G75*
G02*
X113392262Y-109843000I-271738J0D01*
G01*
X112685738Y-109843000D01*
G75*
G02*
X112414000Y-109571262I0J271738D01*
G01*
X112414000Y-108614738D01*
G75*
G02*
X112685738Y-108343000I271738J0D01*
G01*
X113392262Y-108343000D01*
G75*
G02*
X113664000Y-108614738I0J-271738D01*
G01*
G37*
%TD*%
%TO.C,R11*%
G36*
G01*
X112414000Y-115921262D02*
X112414000Y-114964738D01*
G75*
G02*
X112685738Y-114693000I271738J0D01*
G01*
X113392262Y-114693000D01*
G75*
G02*
X113664000Y-114964738I0J-271738D01*
G01*
X113664000Y-115921262D01*
G75*
G02*
X113392262Y-116193000I-271738J0D01*
G01*
X112685738Y-116193000D01*
G75*
G02*
X112414000Y-115921262I0J271738D01*
G01*
G37*
G36*
G01*
X110364000Y-115921262D02*
X110364000Y-114964738D01*
G75*
G02*
X110635738Y-114693000I271738J0D01*
G01*
X111342262Y-114693000D01*
G75*
G02*
X111614000Y-114964738I0J-271738D01*
G01*
X111614000Y-115921262D01*
G75*
G02*
X111342262Y-116193000I-271738J0D01*
G01*
X110635738Y-116193000D01*
G75*
G02*
X110364000Y-115921262I0J271738D01*
G01*
G37*
%TD*%
%TO.C,R6*%
G36*
G01*
X91294000Y-108360738D02*
X91294000Y-109317262D01*
G75*
G02*
X91022262Y-109589000I-271738J0D01*
G01*
X90315738Y-109589000D01*
G75*
G02*
X90044000Y-109317262I0J271738D01*
G01*
X90044000Y-108360738D01*
G75*
G02*
X90315738Y-108089000I271738J0D01*
G01*
X91022262Y-108089000D01*
G75*
G02*
X91294000Y-108360738I0J-271738D01*
G01*
G37*
G36*
G01*
X93344000Y-108360738D02*
X93344000Y-109317262D01*
G75*
G02*
X93072262Y-109589000I-271738J0D01*
G01*
X92365738Y-109589000D01*
G75*
G02*
X92094000Y-109317262I0J271738D01*
G01*
X92094000Y-108360738D01*
G75*
G02*
X92365738Y-108089000I271738J0D01*
G01*
X93072262Y-108089000D01*
G75*
G02*
X93344000Y-108360738I0J-271738D01*
G01*
G37*
%TD*%
%TO.C,R5*%
G36*
G01*
X92094000Y-115540262D02*
X92094000Y-114583738D01*
G75*
G02*
X92365738Y-114312000I271738J0D01*
G01*
X93072262Y-114312000D01*
G75*
G02*
X93344000Y-114583738I0J-271738D01*
G01*
X93344000Y-115540262D01*
G75*
G02*
X93072262Y-115812000I-271738J0D01*
G01*
X92365738Y-115812000D01*
G75*
G02*
X92094000Y-115540262I0J271738D01*
G01*
G37*
G36*
G01*
X90044000Y-115540262D02*
X90044000Y-114583738D01*
G75*
G02*
X90315738Y-114312000I271738J0D01*
G01*
X91022262Y-114312000D01*
G75*
G02*
X91294000Y-114583738I0J-271738D01*
G01*
X91294000Y-115540262D01*
G75*
G02*
X91022262Y-115812000I-271738J0D01*
G01*
X90315738Y-115812000D01*
G75*
G02*
X90044000Y-115540262I0J271738D01*
G01*
G37*
%TD*%
D23*
%TO.C,D9*%
X185550000Y-72390000D03*
X182750000Y-72390000D03*
%TD*%
%TO.C,C47*%
G36*
G01*
X152889000Y-111281738D02*
X152889000Y-112238262D01*
G75*
G02*
X152617262Y-112510000I-271738J0D01*
G01*
X151910738Y-112510000D01*
G75*
G02*
X151639000Y-112238262I0J271738D01*
G01*
X151639000Y-111281738D01*
G75*
G02*
X151910738Y-111010000I271738J0D01*
G01*
X152617262Y-111010000D01*
G75*
G02*
X152889000Y-111281738I0J-271738D01*
G01*
G37*
G36*
G01*
X154939000Y-111281738D02*
X154939000Y-112238262D01*
G75*
G02*
X154667262Y-112510000I-271738J0D01*
G01*
X153960738Y-112510000D01*
G75*
G02*
X153689000Y-112238262I0J271738D01*
G01*
X153689000Y-111281738D01*
G75*
G02*
X153960738Y-111010000I271738J0D01*
G01*
X154667262Y-111010000D01*
G75*
G02*
X154939000Y-111281738I0J-271738D01*
G01*
G37*
%TD*%
%TO.C,C46*%
G36*
G01*
X158212262Y-105645000D02*
X157255738Y-105645000D01*
G75*
G02*
X156984000Y-105373262I0J271738D01*
G01*
X156984000Y-104666738D01*
G75*
G02*
X157255738Y-104395000I271738J0D01*
G01*
X158212262Y-104395000D01*
G75*
G02*
X158484000Y-104666738I0J-271738D01*
G01*
X158484000Y-105373262D01*
G75*
G02*
X158212262Y-105645000I-271738J0D01*
G01*
G37*
G36*
G01*
X158212262Y-107695000D02*
X157255738Y-107695000D01*
G75*
G02*
X156984000Y-107423262I0J271738D01*
G01*
X156984000Y-106716738D01*
G75*
G02*
X157255738Y-106445000I271738J0D01*
G01*
X158212262Y-106445000D01*
G75*
G02*
X158484000Y-106716738I0J-271738D01*
G01*
X158484000Y-107423262D01*
G75*
G02*
X158212262Y-107695000I-271738J0D01*
G01*
G37*
%TD*%
%TO.C,C45*%
G36*
G01*
X166975262Y-114154000D02*
X166018738Y-114154000D01*
G75*
G02*
X165747000Y-113882262I0J271738D01*
G01*
X165747000Y-113175738D01*
G75*
G02*
X166018738Y-112904000I271738J0D01*
G01*
X166975262Y-112904000D01*
G75*
G02*
X167247000Y-113175738I0J-271738D01*
G01*
X167247000Y-113882262D01*
G75*
G02*
X166975262Y-114154000I-271738J0D01*
G01*
G37*
G36*
G01*
X166975262Y-116204000D02*
X166018738Y-116204000D01*
G75*
G02*
X165747000Y-115932262I0J271738D01*
G01*
X165747000Y-115225738D01*
G75*
G02*
X166018738Y-114954000I271738J0D01*
G01*
X166975262Y-114954000D01*
G75*
G02*
X167247000Y-115225738I0J-271738D01*
G01*
X167247000Y-115932262D01*
G75*
G02*
X166975262Y-116204000I-271738J0D01*
G01*
G37*
%TD*%
%TO.C,C36*%
G36*
G01*
X132569000Y-111154738D02*
X132569000Y-112111262D01*
G75*
G02*
X132297262Y-112383000I-271738J0D01*
G01*
X131590738Y-112383000D01*
G75*
G02*
X131319000Y-112111262I0J271738D01*
G01*
X131319000Y-111154738D01*
G75*
G02*
X131590738Y-110883000I271738J0D01*
G01*
X132297262Y-110883000D01*
G75*
G02*
X132569000Y-111154738I0J-271738D01*
G01*
G37*
G36*
G01*
X134619000Y-111154738D02*
X134619000Y-112111262D01*
G75*
G02*
X134347262Y-112383000I-271738J0D01*
G01*
X133640738Y-112383000D01*
G75*
G02*
X133369000Y-112111262I0J271738D01*
G01*
X133369000Y-111154738D01*
G75*
G02*
X133640738Y-110883000I271738J0D01*
G01*
X134347262Y-110883000D01*
G75*
G02*
X134619000Y-111154738I0J-271738D01*
G01*
G37*
%TD*%
%TO.C,C35*%
G36*
G01*
X138273262Y-105391000D02*
X137316738Y-105391000D01*
G75*
G02*
X137045000Y-105119262I0J271738D01*
G01*
X137045000Y-104412738D01*
G75*
G02*
X137316738Y-104141000I271738J0D01*
G01*
X138273262Y-104141000D01*
G75*
G02*
X138545000Y-104412738I0J-271738D01*
G01*
X138545000Y-105119262D01*
G75*
G02*
X138273262Y-105391000I-271738J0D01*
G01*
G37*
G36*
G01*
X138273262Y-107441000D02*
X137316738Y-107441000D01*
G75*
G02*
X137045000Y-107169262I0J271738D01*
G01*
X137045000Y-106462738D01*
G75*
G02*
X137316738Y-106191000I271738J0D01*
G01*
X138273262Y-106191000D01*
G75*
G02*
X138545000Y-106462738I0J-271738D01*
G01*
X138545000Y-107169262D01*
G75*
G02*
X138273262Y-107441000I-271738J0D01*
G01*
G37*
%TD*%
%TO.C,C34*%
G36*
G01*
X146401262Y-114027000D02*
X145444738Y-114027000D01*
G75*
G02*
X145173000Y-113755262I0J271738D01*
G01*
X145173000Y-113048738D01*
G75*
G02*
X145444738Y-112777000I271738J0D01*
G01*
X146401262Y-112777000D01*
G75*
G02*
X146673000Y-113048738I0J-271738D01*
G01*
X146673000Y-113755262D01*
G75*
G02*
X146401262Y-114027000I-271738J0D01*
G01*
G37*
G36*
G01*
X146401262Y-116077000D02*
X145444738Y-116077000D01*
G75*
G02*
X145173000Y-115805262I0J271738D01*
G01*
X145173000Y-115098738D01*
G75*
G02*
X145444738Y-114827000I271738J0D01*
G01*
X146401262Y-114827000D01*
G75*
G02*
X146673000Y-115098738I0J-271738D01*
G01*
X146673000Y-115805262D01*
G75*
G02*
X146401262Y-116077000I-271738J0D01*
G01*
G37*
%TD*%
%TO.C,C25*%
G36*
G01*
X111614000Y-111154738D02*
X111614000Y-112111262D01*
G75*
G02*
X111342262Y-112383000I-271738J0D01*
G01*
X110635738Y-112383000D01*
G75*
G02*
X110364000Y-112111262I0J271738D01*
G01*
X110364000Y-111154738D01*
G75*
G02*
X110635738Y-110883000I271738J0D01*
G01*
X111342262Y-110883000D01*
G75*
G02*
X111614000Y-111154738I0J-271738D01*
G01*
G37*
G36*
G01*
X113664000Y-111154738D02*
X113664000Y-112111262D01*
G75*
G02*
X113392262Y-112383000I-271738J0D01*
G01*
X112685738Y-112383000D01*
G75*
G02*
X112414000Y-112111262I0J271738D01*
G01*
X112414000Y-111154738D01*
G75*
G02*
X112685738Y-110883000I271738J0D01*
G01*
X113392262Y-110883000D01*
G75*
G02*
X113664000Y-111154738I0J-271738D01*
G01*
G37*
%TD*%
%TO.C,C24*%
G36*
G01*
X116937262Y-105518000D02*
X115980738Y-105518000D01*
G75*
G02*
X115709000Y-105246262I0J271738D01*
G01*
X115709000Y-104539738D01*
G75*
G02*
X115980738Y-104268000I271738J0D01*
G01*
X116937262Y-104268000D01*
G75*
G02*
X117209000Y-104539738I0J-271738D01*
G01*
X117209000Y-105246262D01*
G75*
G02*
X116937262Y-105518000I-271738J0D01*
G01*
G37*
G36*
G01*
X116937262Y-107568000D02*
X115980738Y-107568000D01*
G75*
G02*
X115709000Y-107296262I0J271738D01*
G01*
X115709000Y-106589738D01*
G75*
G02*
X115980738Y-106318000I271738J0D01*
G01*
X116937262Y-106318000D01*
G75*
G02*
X117209000Y-106589738I0J-271738D01*
G01*
X117209000Y-107296262D01*
G75*
G02*
X116937262Y-107568000I-271738J0D01*
G01*
G37*
%TD*%
%TO.C,C23*%
G36*
G01*
X125700262Y-114027000D02*
X124743738Y-114027000D01*
G75*
G02*
X124472000Y-113755262I0J271738D01*
G01*
X124472000Y-113048738D01*
G75*
G02*
X124743738Y-112777000I271738J0D01*
G01*
X125700262Y-112777000D01*
G75*
G02*
X125972000Y-113048738I0J-271738D01*
G01*
X125972000Y-113755262D01*
G75*
G02*
X125700262Y-114027000I-271738J0D01*
G01*
G37*
G36*
G01*
X125700262Y-116077000D02*
X124743738Y-116077000D01*
G75*
G02*
X124472000Y-115805262I0J271738D01*
G01*
X124472000Y-115098738D01*
G75*
G02*
X124743738Y-114827000I271738J0D01*
G01*
X125700262Y-114827000D01*
G75*
G02*
X125972000Y-115098738I0J-271738D01*
G01*
X125972000Y-115805262D01*
G75*
G02*
X125700262Y-116077000I-271738J0D01*
G01*
G37*
%TD*%
%TO.C,C14*%
G36*
G01*
X91294000Y-110773738D02*
X91294000Y-111730262D01*
G75*
G02*
X91022262Y-112002000I-271738J0D01*
G01*
X90315738Y-112002000D01*
G75*
G02*
X90044000Y-111730262I0J271738D01*
G01*
X90044000Y-110773738D01*
G75*
G02*
X90315738Y-110502000I271738J0D01*
G01*
X91022262Y-110502000D01*
G75*
G02*
X91294000Y-110773738I0J-271738D01*
G01*
G37*
G36*
G01*
X93344000Y-110773738D02*
X93344000Y-111730262D01*
G75*
G02*
X93072262Y-112002000I-271738J0D01*
G01*
X92365738Y-112002000D01*
G75*
G02*
X92094000Y-111730262I0J271738D01*
G01*
X92094000Y-110773738D01*
G75*
G02*
X92365738Y-110502000I271738J0D01*
G01*
X93072262Y-110502000D01*
G75*
G02*
X93344000Y-110773738I0J-271738D01*
G01*
G37*
%TD*%
%TO.C,C13*%
G36*
G01*
X96617262Y-105137000D02*
X95660738Y-105137000D01*
G75*
G02*
X95389000Y-104865262I0J271738D01*
G01*
X95389000Y-104158738D01*
G75*
G02*
X95660738Y-103887000I271738J0D01*
G01*
X96617262Y-103887000D01*
G75*
G02*
X96889000Y-104158738I0J-271738D01*
G01*
X96889000Y-104865262D01*
G75*
G02*
X96617262Y-105137000I-271738J0D01*
G01*
G37*
G36*
G01*
X96617262Y-107187000D02*
X95660738Y-107187000D01*
G75*
G02*
X95389000Y-106915262I0J271738D01*
G01*
X95389000Y-106208738D01*
G75*
G02*
X95660738Y-105937000I271738J0D01*
G01*
X96617262Y-105937000D01*
G75*
G02*
X96889000Y-106208738I0J-271738D01*
G01*
X96889000Y-106915262D01*
G75*
G02*
X96617262Y-107187000I-271738J0D01*
G01*
G37*
%TD*%
%TO.C,C12*%
G36*
G01*
X105380262Y-113646000D02*
X104423738Y-113646000D01*
G75*
G02*
X104152000Y-113374262I0J271738D01*
G01*
X104152000Y-112667738D01*
G75*
G02*
X104423738Y-112396000I271738J0D01*
G01*
X105380262Y-112396000D01*
G75*
G02*
X105652000Y-112667738I0J-271738D01*
G01*
X105652000Y-113374262D01*
G75*
G02*
X105380262Y-113646000I-271738J0D01*
G01*
G37*
G36*
G01*
X105380262Y-115696000D02*
X104423738Y-115696000D01*
G75*
G02*
X104152000Y-115424262I0J271738D01*
G01*
X104152000Y-114717738D01*
G75*
G02*
X104423738Y-114446000I271738J0D01*
G01*
X105380262Y-114446000D01*
G75*
G02*
X105652000Y-114717738I0J-271738D01*
G01*
X105652000Y-115424262D01*
G75*
G02*
X105380262Y-115696000I-271738J0D01*
G01*
G37*
%TD*%
D24*
%TO.C,J6*%
X159766000Y-61595000D03*
X171196000Y-61595000D03*
X171196000Y-48895000D03*
X159766000Y-48895000D03*
X161925000Y-58420000D03*
D25*
X159766000Y-52070000D03*
X171196000Y-52070000D03*
%TD*%
D24*
%TO.C,J5*%
X139192000Y-61658500D03*
X150622000Y-61658500D03*
X150622000Y-48958500D03*
X139192000Y-48958500D03*
X141351000Y-58483500D03*
D25*
X139192000Y-52133500D03*
X150622000Y-52133500D03*
%TD*%
D24*
%TO.C,J4*%
X118618000Y-61658500D03*
X130048000Y-61658500D03*
X130048000Y-48958500D03*
X118618000Y-48958500D03*
X120777000Y-58483500D03*
D25*
X118618000Y-52133500D03*
X130048000Y-52133500D03*
%TD*%
D24*
%TO.C,J3*%
X98044000Y-61658500D03*
X109474000Y-61658500D03*
X109474000Y-48958500D03*
X98044000Y-48958500D03*
X100203000Y-58483500D03*
D25*
X98044000Y-52133500D03*
X109474000Y-52133500D03*
%TD*%
D24*
%TO.C,J1*%
X175196500Y-108585000D03*
X175196500Y-120015000D03*
X187896500Y-120015000D03*
X187896500Y-108585000D03*
X178371500Y-110744000D03*
D25*
X184721500Y-108585000D03*
X184721500Y-120015000D03*
%TD*%
%TO.C,J2*%
G36*
G01*
X186981500Y-54090000D02*
X186981500Y-55890000D01*
G75*
G02*
X186081500Y-56790000I-900000J0D01*
G01*
X184281500Y-56790000D01*
G75*
G02*
X183381500Y-55890000I0J900000D01*
G01*
X183381500Y-54090000D01*
G75*
G02*
X184281500Y-53190000I900000J0D01*
G01*
X186081500Y-53190000D01*
G75*
G02*
X186981500Y-54090000I0J-900000D01*
G01*
G37*
G36*
G01*
X189731500Y-58665000D02*
X189731500Y-60715000D01*
G75*
G02*
X188956500Y-61490000I-775000J0D01*
G01*
X187406500Y-61490000D01*
G75*
G02*
X186631500Y-60715000I0J775000D01*
G01*
X186631500Y-58665000D01*
G75*
G02*
X187406500Y-57890000I775000J0D01*
G01*
X188956500Y-57890000D01*
G75*
G02*
X189731500Y-58665000I0J-775000D01*
G01*
G37*
D26*
X182181500Y-59690000D03*
%TD*%
D27*
G36*
X191008000Y-93218000D02*
G01*
X182372000Y-93218000D01*
X182372000Y-80772000D01*
X191008000Y-80772000D01*
X191008000Y-93218000D01*
G37*
X191008000Y-93218000D02*
X182372000Y-93218000D01*
X182372000Y-80772000D01*
X191008000Y-80772000D01*
X191008000Y-93218000D01*
M02*
