M48
; DRILL file {KiCad (5.1.6-0-10_14)} date Friday, September 25, 2020 at 10:57:13 AM
; FORMAT={-:-/ absolute / inch / decimal}
; #@! TF.CreationDate,2020-09-25T10:57:13+01:00
; #@! TF.GenerationSoftware,Kicad,Pcbnew,(5.1.6-0-10_14)
; #@! TF.FileFunction,Plated,1,2,PTH
FMAT,2
INCH
T1C0.0079
T2C0.0354
T3C0.0394
T4C0.0472
T5C0.0787
%
G90
G05
T1
X3.52Y-3.81
X3.5233Y-4.0867
X3.61Y-4.23
X3.7254Y-4.1954
X3.785Y-4.055
X3.96Y-3.955
X4.13Y-4.33
X4.175Y-3.69
X4.175Y-3.76
X4.255Y-3.695
X4.255Y-3.765
X4.3183Y-4.1017
X4.32Y-3.82
X4.41Y-4.23
X4.5204Y-4.2104
X4.565Y-2.845
X4.585Y-4.07
X4.6475Y-3.025
X4.6475Y-3.08
X4.6475Y-3.785
X4.6475Y-3.685
X4.69Y-2.845
X4.76Y-3.97
X4.93Y-4.3476
X4.99Y-3.155
X5.0Y-4.065
X5.0254Y-3.1804
X5.0275Y-3.6625
X5.06Y-3.46
X5.1Y-3.96
X5.1352Y-3.5202
X5.145Y-3.85
X5.1467Y-4.1067
X5.155Y-3.155
X5.155Y-3.18
X5.2006Y-3.5744
X5.235Y-4.235
X5.245Y-3.46
X5.3754Y-4.2054
X5.3975Y-3.96
X5.4Y-3.17
X5.425Y-4.075
X5.455Y-3.515
X5.525Y-3.585
X5.5737Y-3.3313
X5.595Y-3.975
X5.73Y-3.05
X5.73Y-3.135
X5.73Y-3.395
X5.73Y-3.495
X5.745Y-4.3476
X5.77Y-3.05
X5.77Y-3.135
X5.77Y-3.395
X5.77Y-3.495
X5.81Y-3.395
X5.81Y-3.495
X5.905Y-3.7
X5.905Y-3.785
X5.945Y-3.815
X5.9467Y-4.0967
X6.0312Y-4.2288
X6.1546Y-4.2154
X6.21Y-4.08
X6.4Y-3.975
X6.5525Y-2.4875
X6.555Y-4.3526
X6.925Y-3.9
X7.225Y-3.225
X7.225Y-3.3
X7.225Y-3.375
X7.225Y-3.475
X7.225Y-3.55
X7.225Y-3.625
X7.3Y-3.225
X7.3Y-3.3
X7.3Y-3.375
X7.3Y-3.475
X7.3Y-3.55
X7.3Y-3.625
X7.375Y-3.225
X7.375Y-3.3
X7.375Y-3.375
X7.375Y-3.475
X7.375Y-3.55
X7.375Y-3.625
X7.45Y-3.225
X7.45Y-3.3
X7.45Y-3.375
X7.45Y-3.475
X7.45Y-3.55
X7.45Y-3.625
T2
X5.765Y-2.08
X5.765Y-2.18
X4.955Y-2.08
X4.955Y-2.18
X4.1425Y-2.075
X4.1425Y-2.175
X6.575Y-2.075
X6.575Y-2.175
T3
X5.165Y-3.7
X5.265Y-3.7
X5.365Y-3.7
X5.465Y-3.7
X5.565Y-3.7
T4
X4.076Y-2.735
X4.886Y-2.734
X4.886Y-5.037
X5.024Y-2.734
X6.506Y-2.734
X6.506Y-5.037
X6.644Y-2.734
X5.696Y-2.734
X5.696Y-5.037
X5.834Y-2.734
X4.076Y-5.038
X4.214Y-2.735
T5
X3.98Y-2.945
X3.98Y-4.827
X4.309Y-2.898
X4.31Y-4.875
X3.86Y-1.9275
X3.86Y-2.4275
X4.31Y-1.9275
X4.31Y-2.4275
X5.48Y-1.9275
X5.48Y-2.4275
X5.93Y-1.9275
X5.93Y-2.4275
X6.8975Y-4.275
X6.8975Y-4.725
X7.3975Y-4.275
X7.3975Y-4.725
X6.29Y-1.925
X6.29Y-2.425
X6.74Y-1.925
X6.74Y-2.425
X4.79Y-2.944
X4.79Y-4.826
X5.119Y-2.897
X5.12Y-4.874
X6.41Y-2.944
X6.41Y-4.826
X6.739Y-2.897
X6.74Y-4.874
X4.67Y-1.9275
X4.67Y-2.4275
X5.12Y-1.9275
X5.12Y-2.4275
X5.6Y-2.944
X5.6Y-4.826
X5.929Y-2.897
X5.93Y-4.874
T3
G00X7.1725Y-2.3894
M15
G01X7.1725Y-2.3106
M16
G05
G00X7.33Y-2.165
M15
G01X7.2512Y-2.165
M16
G05
G00X7.4087Y-2.3894
M15
G01X7.4087Y-2.3106
M16
G05
T0
M30
