<?xml version="1.0" encoding="UTF-8" standalone="no"?>
<svg
   xmlns:dc="http://purl.org/dc/elements/1.1/"
   xmlns:cc="http://creativecommons.org/ns#"
   xmlns:rdf="http://www.w3.org/1999/02/22-rdf-syntax-ns#"
   xmlns:svg="http://www.w3.org/2000/svg"
   xmlns="http://www.w3.org/2000/svg"
   xmlns:sodipodi="http://sodipodi.sourceforge.net/DTD/sodipodi-0.dtd"
   xmlns:inkscape="http://www.inkscape.org/namespaces/inkscape"
   version="1.1"
   width="29.700220cm"
   height="21.000720cm"
   viewBox="0 0 116930 82680"
   id="svg2366"
   sodipodi:docname="ActiveSplitterPedal_SOIC14-brd.svg"
   inkscape:version="1.0.1 (1.0.1+r73)">
  <metadata
     id="metadata2372">
    <rdf:RDF>
      <cc:Work
         rdf:about="">
        <dc:format>image/svg+xml</dc:format>
        <dc:type
           rdf:resource="http://purl.org/dc/dcmitype/StillImage" />
      </cc:Work>
    </rdf:RDF>
  </metadata>
  <defs
     id="defs2370" />
  <sodipodi:namedview
     pagecolor="#ffffff"
     bordercolor="#666666"
     borderopacity="1"
     objecttolerance="10"
     gridtolerance="10"
     guidetolerance="10"
     inkscape:pageopacity="0"
     inkscape:pageshadow="2"
     inkscape:window-width="1853"
     inkscape:window-height="1025"
     id="namedview2368"
     showgrid="false"
     inkscape:zoom="4.4246898"
     inkscape:cx="456.26489"
     inkscape:cy="292.07207"
     inkscape:window-x="67"
     inkscape:window-y="27"
     inkscape:window-maximized="1"
     inkscape:current-layer="svg2366" />
  <title
     id="title2">SVG Picture created as ActiveSplitterPedal_SOIC14-brd.svg date 2020/09/21 19:37:55 </title>
  <desc
     id="desc4">Picture generated by PCBNEW </desc>
  <g
     style="fill:#000000; fill-opacity:1;stroke:#000000; stroke-opacity:1; stroke-linecap:round; stroke-linejoin:round;"
     transform="translate(0 0) scale(1 1)"
     id="g6" />
  <g
     style="fill:#000000; fill-opacity:0.0;  stroke:#000000; stroke-width:-0.000393701; stroke-opacity:1;  stroke-linecap:round; stroke-linejoin:round;"
     id="g8" />
  <g
     style="fill:#000000; fill-opacity:0.0;  stroke:#000000; stroke-width:393.701; stroke-opacity:1;  stroke-linecap:round; stroke-linejoin:round;"
     id="g106" />
  <g
     style="fill:#000000; fill-opacity:0.0;  stroke:#000000; stroke-width:393.701; stroke-opacity:1;  stroke-linecap:round; stroke-linejoin:round;"
     id="g112" />
  <g
     style="fill:#000000; fill-opacity:0.0;  stroke:#000000; stroke-width:393.701; stroke-opacity:1;  stroke-linecap:round; stroke-linejoin:round;"
     id="g118" />
  <g
     style="fill:#000000; fill-opacity:0.0;  stroke:#000000; stroke-width:393.701; stroke-opacity:1;  stroke-linecap:round; stroke-linejoin:round;"
     id="g124" />
  <g
     style="fill:#000000; fill-opacity:0.0;  stroke:#000000; stroke-width:393.701; stroke-opacity:1;  stroke-linecap:round; stroke-linejoin:round;"
     id="g130" />
  <g
     style="fill:#000000; fill-opacity:0.0;  stroke:#000000; stroke-width:393.701; stroke-opacity:1;  stroke-linecap:round; stroke-linejoin:round;"
     id="g136" />
  <g
     style="fill:#000000; fill-opacity:0.0;  stroke:#000000; stroke-width:393.701; stroke-opacity:1;  stroke-linecap:round; stroke-linejoin:round;"
     id="g142" />
  <g
     style="fill:#000000; fill-opacity:0.0;  stroke:#000000; stroke-width:393.701; stroke-opacity:1;  stroke-linecap:round; stroke-linejoin:round;"
     id="g148" />
  <g
     style="fill:#000000; fill-opacity:0.0;  stroke:#000000; stroke-width:0; stroke-opacity:1;  stroke-linecap:round; stroke-linejoin:round;"
     id="g154" />
  <g
     style="fill:#000000; fill-opacity:0.0;  stroke:#000000; stroke-width:59.0551; stroke-opacity:1;  stroke-linecap:round; stroke-linejoin:round;"
     id="g672">
    <path
       d="M39040 17575 L45040 17575 "
       id="path632" />
    <path
       d="M45040 17575 L45040 26075 "
       id="path634" />
    <path
       d="M45040 26075 L39040 26075 "
       id="path636" />
    <path
       d="M39040 26075 L39040 17575 "
       id="path638" />
    <path
       d="M47150 17600 L53150 17600 "
       id="path640" />
    <path
       d="M53150 17600 L53150 26100 "
       id="path642" />
    <path
       d="M53150 26100 L47150 26100 "
       id="path644" />
    <path
       d="M47150 26100 L47150 17600 "
       id="path646" />
    <path
       d="M55230 17600 L61230 17600 "
       id="path648" />
    <path
       d="M61230 17600 L61230 26100 "
       id="path650" />
    <path
       d="M61230 26100 L55230 26100 "
       id="path652" />
    <path
       d="M55230 26100 L55230 17600 "
       id="path654" />
    <path
       d="M63340 17595 L69340 17595 "
       id="path656" />
    <path
       d="M69340 17595 L69340 26095 "
       id="path658" />
    <path
       d="M69340 26095 L63340 26095 "
       id="path660" />
    <path
       d="M63340 26095 L63340 17595 "
       id="path662" />
    <path
       d="M75650 42400 L75650 48400 "
       id="path664" />
    <path
       d="M75650 48400 L67150 48400 "
       id="path666" />
    <path
       d="M67150 48400 L67150 42400 "
       id="path668" />
    <path
       d="M67150 42400 L75650 42400 "
       id="path670" />
  </g>
  <g
     style="fill:#000000; fill-opacity:0.0;  stroke:#000000; stroke-width:47.2441; stroke-opacity:1;  stroke-linecap:round; stroke-linejoin:round;"
     id="g690">
    <path
       d="M71370 21688 L71370 22712 "
       id="path674" />
    <path
       d="M77158 21688 L71370 21688 "
       id="path676" />
    <path
       d="M71370 25311 L72118 25311 "
       id="path678" />
    <path
       d="M71370 24248 L71370 25311 "
       id="path680" />
    <path
       d="M77158 25311 L77158 21688 "
       id="path682" />
    <path
       d="M73693 25311 L77158 25311 "
       id="path684" />
    <path
       d="M71705 21610 L71291 21610 "
       id="path686" />
    <path
       d="M71291 22023 L71291 21610 "
       id="path688" />
  </g>
  <g
     style="fill:#000000; fill-opacity:0.0;  stroke:#000000; stroke-width:59.0551; stroke-opacity:1;  stroke-linecap:round; stroke-linejoin:round;"
     id="g1472">
    <text
       x="75051.8"
       y="25960.6"
       textLength="610.939"
       font-size="524.934"
       lengthAdjust="spacingAndGlyphs"
       text-anchor="middle"
       opacity="0"
       id="text1464">J2</text>
    <path
       d="M75183 25548 L75183 25829 L75201 25885 L75239 25923 L75295 25941 L75332 25941 "
       id="path1466" />
    <path
       d="M75014 25585 L74995 25566 L74958 25548 L74864 25548 L74826 25566 L74808 25585 L74789 25623 L74789 25660 L74808 25716 L75033 25941 L74789 25941 "
       id="path1468" />
    <g
       id="g1470" />
  </g>
  <g
     style="fill:#000000; fill-opacity:0.0;  stroke:#000000; stroke-width:118.11; stroke-opacity:1;  stroke-linecap:round; stroke-linejoin:round;"
     id="g1582">
    <path
       d="M72600 44810 L73000 45210 "
       id="path1552" />
    <path
       d="M72600 44810 L74600 44810 "
       id="path1554" />
    <path
       d="M72600 44810 L73000 44410 "
       id="path1556" />
    <path
       d="M65750 22600 L66150 23000 "
       id="path1558" />
    <path
       d="M65750 22600 L65350 23000 "
       id="path1560" />
    <path
       d="M65750 22600 L65750 24600 "
       id="path1562" />
    <path
       d="M57630 22600 L58030 23000 "
       id="path1564" />
    <path
       d="M57630 22600 L57630 24600 "
       id="path1566" />
    <path
       d="M57630 22600 L57230 23000 "
       id="path1568" />
    <path
       d="M49550 22600 L49950 23000 "
       id="path1570" />
    <path
       d="M49550 22600 L49550 24600 "
       id="path1572" />
    <path
       d="M49550 22600 L49150 23000 "
       id="path1574" />
    <path
       d="M41440 22600 L41840 23000 "
       id="path1576" />
    <path
       d="M41440 22600 L41440 24600 "
       id="path1578" />
    <path
       d="M41440 22600 L41040 23000 "
       id="path1580" />
  </g>
  <g
     style="fill:#000000; fill-opacity:0.0;  stroke:#000000; stroke-width:47.2441; stroke-opacity:1;  stroke-linecap:round; stroke-linejoin:round;"
     id="g1712">
    <path
       d="M37370 26197 L37370 26402 "
       id="path1584" />
    <path
       d="M37929 26197 L37929 26402 "
       id="path1586" />
    <path
       d="M45820 26197 L45820 26402 "
       id="path1588" />
    <path
       d="M46379 26197 L46379 26402 "
       id="path1590" />
    <path
       d="M53820 26197 L53820 26402 "
       id="path1592" />
    <path
       d="M54379 26197 L54379 26402 "
       id="path1594" />
    <path
       d="M61820 26197 L61820 26402 "
       id="path1596" />
    <path
       d="M62379 26197 L62379 26402 "
       id="path1598" />
    <path
       d="M65270 28950 L66250 28950 "
       id="path1600" />
    <path
       d="M66250 48720 L65270 48720 "
       id="path1602" />
    <path
       d="M66250 28950 L66250 48720 "
       id="path1604" />
    <path
       d="M65270 48720 L65270 28950 "
       id="path1606" />
    <path
       d="M67500 50710 L67500 27010 "
       id="path1608" />
    <path
       d="M64000 50710 L67500 50710 "
       id="path1610" />
    <path
       d="M64000 27010 L64000 50710 "
       id="path1612" />
    <path
       d="M67500 27010 L64000 27010 "
       id="path1614" />
    <circle
       cx="65750"
       cy="49890"
       r="430.116"
       id="circle1616" />
    <circle
       cx="65760"
       cy="27830"
       r="430.116"
       id="circle1618" />
    <path
       d="M57170 28950 L58150 28950 "
       id="path1620" />
    <path
       d="M58150 48720 L57170 48720 "
       id="path1622" />
    <path
       d="M58150 28950 L58150 48720 "
       id="path1624" />
    <path
       d="M57170 48720 L57170 28950 "
       id="path1626" />
    <path
       d="M59400 50710 L59400 27010 "
       id="path1628" />
    <path
       d="M55900 50710 L59400 50710 "
       id="path1630" />
    <path
       d="M55900 27010 L55900 50710 "
       id="path1632" />
    <path
       d="M59400 27010 L55900 27010 "
       id="path1634" />
    <circle
       cx="57650"
       cy="49890"
       r="430.116"
       id="circle1636" />
    <circle
       cx="57660"
       cy="27830"
       r="430.116"
       id="circle1638" />
    <path
       d="M49060 28970 L50040 28970 "
       id="path1640" />
    <path
       d="M50040 48740 L49060 48740 "
       id="path1642" />
    <path
       d="M50040 28970 L50040 48740 "
       id="path1644" />
    <path
       d="M49060 48740 L49060 28970 "
       id="path1646" />
    <path
       d="M51290 50730 L51290 27030 "
       id="path1648" />
    <path
       d="M47790 50730 L51290 50730 "
       id="path1650" />
    <path
       d="M47790 27030 L47790 50730 "
       id="path1652" />
    <path
       d="M51290 27030 L47790 27030 "
       id="path1654" />
    <circle
       cx="49540"
       cy="49910"
       r="430.116"
       id="circle1656" />
    <circle
       cx="49550"
       cy="27850"
       r="430.116"
       id="circle1658" />
    <path
       d="M40960 28950 L41940 28950 "
       id="path1660" />
    <path
       d="M41940 48720 L40960 48720 "
       id="path1662" />
    <path
       d="M41940 28950 L41940 48720 "
       id="path1664" />
    <path
       d="M40960 48720 L40960 28950 "
       id="path1666" />
    <path
       d="M43190 50710 L43190 27010 "
       id="path1668" />
    <path
       d="M39690 50710 L43190 50710 "
       id="path1670" />
    <path
       d="M39690 27010 L39690 50710 "
       id="path1672" />
    <path
       d="M43190 27010 L39690 27010 "
       id="path1674" />
    <circle
       cx="41440"
       cy="49890"
       r="430.116"
       id="circle1676" />
    <circle
       cx="41450"
       cy="27830"
       r="430.116"
       id="circle1678" />
    <circle
       cx="65750"
       cy="21250"
       r="984.252"
       id="circle1680" />
    <path
       d="M65141 22257 L66358 22257 "
       id="path1682" />
    <path
       d="M66358.2 22257.9 A1177.17 1177.17 0.0 0 0 65749.8 20072.8"
       id="path1684" />
    <path
       d="M65750.2 20072.8 A1177.17 1177.17 0.0 0 0 65141.8 22257.9"
       id="path1686" />
    <circle
       cx="41450"
       cy="21250"
       r="984.252"
       id="circle1688" />
    <path
       d="M40841 22257 L42058 22257 "
       id="path1690" />
    <path
       d="M42058.2 22257.9 A1177.17 1177.17 0.0 0 0 41449.8 20072.8"
       id="path1692" />
    <path
       d="M41450.2 20072.8 A1177.17 1177.17 0.0 0 0 40841.8 22257.9"
       id="path1694" />
    <circle
       cx="49550"
       cy="21300"
       r="984.252"
       id="circle1696" />
    <path
       d="M48941 22307 L50158 22307 "
       id="path1698" />
    <path
       d="M50158.2 22307.9 A1177.17 1177.17 0.0 0 0 49549.8 20122.8"
       id="path1700" />
    <path
       d="M49550.2 20122.8 A1177.17 1177.17 0.0 0 0 48941.8 22307.9"
       id="path1702" />
    <circle
       cx="57650"
       cy="21300"
       r="984.252"
       id="circle1704" />
    <path
       d="M57041 22307 L58258 22307 "
       id="path1706" />
    <path
       d="M58258.2 22307.9 A1177.17 1177.17 0.0 0 0 57649.8 20122.8"
       id="path1708" />
    <path
       d="M57650.2 20122.8 A1177.17 1177.17 0.0 0 0 57041.8 22307.9"
       id="path1710" />
  </g>
  <g
     style="fill:#000000; fill-opacity:0.0;  stroke:#000000; stroke-width:59.0551; stroke-opacity:1;  stroke-linecap:round; stroke-linejoin:round;"
     id="g1844" />
  <g
     style="fill:#000000; fill-opacity:0.0;  stroke:#000000; stroke-width:47.2441; stroke-opacity:1;  stroke-linecap:round; stroke-linejoin:round;"
     id="g1886">
    <path
       d="M73100 51600 L34100 51600 "
       id="path1846" />
    <path
       d="M75750 49100 L75750 20100 "
       id="path1848" />
    <path
       d="M31450 49125 L31450 20100 "
       id="path1850" />
    <path
       d="M73100 17575 L34100 17575 "
       id="path1852" />
    <path
       d="M75500 49350 L73350 49350 "
       id="path1854" />
    <path
       d="M73350 49350 L73350 51350 "
       id="path1856" />
    <path
       d="M75500 19850 L73350 19850 "
       id="path1858" />
    <path
       d="M73350 19850 L73350 17825 "
       id="path1860" />
    <path
       d="M33850 17825 L33850 19850 "
       id="path1862" />
    <path
       d="M33850 19850 L31700 19850 "
       id="path1864" />
    <path
       d="M31700 49375 L33850 49375 "
       id="path1866" />
    <path
       d="M33850 49375 L33850 51350 "
       id="path1868" />
    <path
       d="M75750 20100 L75500 19850 "
       id="path1870" />
    <path
       d="M73350 17825 L73100 17575 "
       id="path1872" />
    <path
       d="M73350 51350 L73100 51600 "
       id="path1874" />
    <path
       d="M75750 49100 L75500 49350 "
       id="path1876" />
    <path
       d="M33850 51350 L34100 51600 "
       id="path1878" />
    <path
       d="M31700 49375 L31450 49125 "
       id="path1880" />
    <path
       d="M31450 20100 L31700 19850 "
       id="path1882" />
    <path
       d="M34100 17575 L33850 17825 "
       id="path1884" />
  </g>
  <g
     style="fill:#000000; fill-opacity:0.0;  stroke:#000000; stroke-width:59.0551; stroke-opacity:1;  stroke-linecap:round; stroke-linejoin:round;"
     id="g2124">
    <path
       d="M41440 17575 L41440 26075 "
       id="path1888" />
    <path
       d="M39240 14075 L39240 26075 "
       id="path1890" />
    <path
       d="M43640 14075 L43640 26075 "
       id="path1892" />
    <path
       d="M43640 14075 L39240 14075 "
       id="path1894" />
    <path
       d="M49550 17600 L49550 26100 "
       id="path1896" />
    <path
       d="M47350 14100 L47350 26100 "
       id="path1898" />
    <path
       d="M51750 14100 L51750 26100 "
       id="path1900" />
    <path
       d="M51750 14100 L47350 14100 "
       id="path1902" />
    <path
       d="M57630 17600 L57630 26100 "
       id="path1904" />
    <path
       d="M55430 14100 L55430 26100 "
       id="path1906" />
    <path
       d="M59830 14100 L59830 26100 "
       id="path1908" />
    <path
       d="M59830 14100 L55430 14100 "
       id="path1910" />
    <path
       d="M65740 17595 L65740 26095 "
       id="path1912" />
    <path
       d="M63540 14095 L63540 26095 "
       id="path1914" />
    <path
       d="M67940 14095 L67940 26095 "
       id="path1916" />
    <path
       d="M67940 14095 L63540 14095 "
       id="path1918" />
    <path
       d="M75650 44800 L67150 44800 "
       id="path1920" />
    <path
       d="M79150 42600 L67150 42600 "
       id="path1922" />
    <path
       d="M79150 47000 L67150 47000 "
       id="path1924" />
    <path
       d="M79150 47000 L79150 42600 "
       id="path1926" />
    <g
       id="g1928" />
    <g
       id="g1930" />
    <g
       id="g1932" />
    <g
       id="g1934" />
    <g
       id="g1936" />
    <g
       id="g1938" />
    <g
       id="g1940" />
    <g
       id="g1942" />
    <g
       id="g1944" />
    <g
       id="g1946" />
    <g
       id="g1948" />
    <g
       id="g1950" />
    <g
       id="g1952" />
    <g
       id="g1954" />
    <g
       id="g1956" />
    <g
       id="g1958" />
    <g
       id="g1960" />
    <g
       id="g1962" />
    <g
       id="g1964" />
    <g
       id="g1966" />
    <g
       id="g1968" />
    <g
       id="g1970" />
    <g
       id="g1972" />
    <g
       id="g1974" />
    <g
       id="g1976" />
    <g
       id="g1978" />
    <g
       id="g1980" />
    <g
       id="g1982" />
    <g
       id="g1984" />
    <g
       id="g1986" />
    <g
       id="g1988" />
    <g
       id="g1990" />
    <g
       id="g1992" />
    <g
       id="g1994" />
    <g
       id="g1996" />
    <g
       id="g1998" />
    <g
       id="g2000" />
    <g
       id="g2002" />
    <g
       id="g2004" />
    <g
       id="g2006" />
    <g
       id="g2008" />
    <g
       id="g2010" />
    <g
       id="g2012" />
    <g
       id="g2014" />
    <g
       id="g2016" />
    <g
       id="g2018" />
    <g
       id="g2020" />
    <g
       id="g2022" />
    <g
       id="g2024" />
    <g
       id="g2026" />
    <g
       id="g2028" />
    <g
       id="g2030" />
    <g
       id="g2032" />
    <g
       id="g2034" />
    <g
       id="g2036" />
    <g
       id="g2038" />
    <g
       id="g2040" />
    <g
       id="g2042" />
    <g
       id="g2044" />
    <g
       id="g2046" />
    <g
       id="g2048" />
    <g
       id="g2050" />
    <g
       id="g2052" />
    <g
       id="g2054" />
    <g
       id="g2056" />
    <g
       id="g2058" />
    <g
       id="g2060" />
    <g
       id="g2062" />
    <g
       id="g2064" />
    <g
       id="g2066" />
    <g
       id="g2068" />
    <g
       id="g2070" />
    <g
       id="g2072" />
    <g
       id="g2074" />
    <g
       id="g2076" />
    <g
       id="g2078" />
    <g
       id="g2080" />
    <g
       id="g2082" />
    <g
       id="g2084" />
    <g
       id="g2086" />
    <g
       id="g2088" />
    <g
       id="g2090" />
    <g
       id="g2092" />
    <g
       id="g2094" />
    <g
       id="g2096" />
    <g
       id="g2098" />
    <g
       id="g2100" />
    <g
       id="g2102" />
    <g
       id="g2104" />
    <g
       id="g2106" />
    <g
       id="g2108" />
    <g
       id="g2110" />
    <g
       id="g2112" />
    <g
       id="g2114" />
    <g
       id="g2116" />
    <g
       id="g2118" />
    <g
       id="g2120" />
    <g
       id="g2122" />
  </g>
  <g
     style="fill:#000000; fill-opacity:0.0;  stroke:#000000; stroke-width:59.0551; stroke-opacity:1;  stroke-linecap:round; stroke-linejoin:round;"
     id="g2126" />
  <g
     style="fill:#000000; fill-opacity:0.0;  stroke:#000000; stroke-width:19.685; stroke-opacity:1;  stroke-linecap:round; stroke-linejoin:round;"
     id="g2364">
    <path
       d="M73350 51350 L73100 51600 "
       id="path2128" />
    <path
       d="M73350 49350 L73350 51350 "
       id="path2130" />
    <path
       d="M75500 49350 L73350 49350 "
       id="path2132" />
    <path
       d="M75750 49100 L75500 49350 "
       id="path2134" />
    <path
       d="M75750 20100 L75750 49100 "
       id="path2136" />
    <path
       d="M75500 19850 L75750 20100 "
       id="path2138" />
    <path
       d="M73350 19850 L75500 19850 "
       id="path2140" />
    <path
       d="M73350 17825 L73350 19850 "
       id="path2142" />
    <path
       d="M73100 17575 L73350 17825 "
       id="path2144" />
    <path
       d="M34100 17575 L73100 17575 "
       id="path2146" />
    <path
       d="M33850 17825 L34100 17575 "
       id="path2148" />
    <path
       d="M33850 19850 L33850 17825 "
       id="path2150" />
    <path
       d="M31700 19850 L33850 19850 "
       id="path2152" />
    <path
       d="M31450 20100 L31700 19850 "
       id="path2154" />
    <path
       d="M31450 49125 L31450 20100 "
       id="path2156" />
    <path
       d="M31700 49375 L31450 49125 "
       id="path2158" />
    <path
       d="M33850 49375 L31700 49375 "
       id="path2160" />
    <path
       d="M33850 51350 L33850 49375 "
       id="path2162" />
    <path
       d="M34100 51600 L33850 51350 "
       id="path2164" />
    <path
       d="M73100 51600 L34100 51600 "
       id="path2166" />
    <g
       id="g2168" />
    <g
       id="g2170" />
    <g
       id="g2172" />
    <g
       id="g2174" />
    <g
       id="g2176" />
    <g
       id="g2178" />
    <g
       id="g2180" />
    <g
       id="g2182" />
    <g
       id="g2184" />
    <g
       id="g2186" />
    <g
       id="g2188" />
    <g
       id="g2190" />
    <g
       id="g2192" />
    <g
       id="g2194" />
    <g
       id="g2196" />
    <g
       id="g2198" />
    <g
       id="g2200" />
    <g
       id="g2202" />
    <g
       id="g2204" />
    <g
       id="g2206" />
    <g
       id="g2208" />
    <g
       id="g2210" />
    <g
       id="g2212" />
    <g
       id="g2214" />
    <g
       id="g2216" />
    <g
       id="g2218" />
    <g
       id="g2220" />
    <g
       id="g2222" />
    <g
       id="g2224" />
    <g
       id="g2226" />
    <g
       id="g2228" />
    <g
       id="g2230" />
    <g
       id="g2232" />
    <g
       id="g2234" />
    <g
       id="g2236" />
    <g
       id="g2238" />
    <g
       id="g2240" />
    <g
       id="g2242" />
    <g
       id="g2244" />
    <g
       id="g2246" />
    <g
       id="g2248" />
    <g
       id="g2250" />
    <g
       id="g2252" />
    <g
       id="g2254" />
    <g
       id="g2256" />
    <g
       id="g2258" />
    <g
       id="g2260" />
    <g
       id="g2262" />
    <g
       id="g2264" />
    <g
       id="g2266" />
    <g
       id="g2268" />
    <g
       id="g2270" />
    <g
       id="g2272" />
    <g
       id="g2274" />
    <g
       id="g2276" />
    <g
       id="g2278" />
    <g
       id="g2280" />
    <g
       id="g2282" />
    <g
       id="g2284" />
    <g
       id="g2286" />
    <g
       id="g2288" />
    <g
       id="g2290" />
    <g
       id="g2292" />
    <g
       id="g2294" />
    <g
       id="g2296" />
    <g
       id="g2298" />
    <g
       id="g2300" />
    <g
       id="g2302" />
    <g
       id="g2304" />
    <g
       id="g2306" />
    <g
       id="g2308" />
    <g
       id="g2310" />
    <g
       id="g2312" />
    <g
       id="g2314" />
    <g
       id="g2316" />
    <g
       id="g2318" />
    <g
       id="g2320" />
    <g
       id="g2322" />
    <g
       id="g2324" />
    <g
       id="g2326" />
    <g
       id="g2328" />
    <g
       id="g2330" />
    <g
       id="g2332" />
    <g
       id="g2334" />
    <g
       id="g2336" />
    <g
       id="g2338" />
    <g
       id="g2340" />
    <g
       id="g2342" />
    <g
       id="g2344" />
    <g
       id="g2346" />
    <g
       id="g2348" />
    <g
       id="g2350" />
    <g
       id="g2352" />
    <g
       id="g2354" />
    <g
       id="g2356" />
    <g
       id="g2358" />
    <g
       id="g2360" />
    <g
       id="g2362" />
  </g>
</svg>
