%TF.GenerationSoftware,KiCad,Pcbnew,5.1.6-c6e7f7d~87~ubuntu18.04.1*%
%TF.CreationDate,2020-10-25T00:49:13+01:00*%
%TF.ProjectId,ActiveSplitterPedalWithDigitalPeakDetector,41637469-7665-4537-906c-697474657250,rev?*%
%TF.SameCoordinates,Original*%
%TF.FileFunction,Soldermask,Bot*%
%TF.FilePolarity,Negative*%
%FSLAX46Y46*%
G04 Gerber Fmt 4.6, Leading zero omitted, Abs format (unit mm)*
G04 Created by KiCad (PCBNEW 5.1.6-c6e7f7d~87~ubuntu18.04.1) date 2020-10-25 00:49:13*
%MOMM*%
%LPD*%
G01*
G04 APERTURE LIST*
%TA.AperFunction,Profile*%
%ADD10C,0.050000*%
%TD*%
%TA.AperFunction,Profile*%
%ADD11C,0.150000*%
%TD*%
%ADD12C,6.100000*%
G04 APERTURE END LIST*
D10*
X168338500Y-73406000D02*
X168338500Y-123888500D01*
X168338500Y-123888500D02*
X165608000Y-123888500D01*
X165608000Y-73406000D02*
X168338500Y-73406000D01*
X165608000Y-123888500D02*
X165608000Y-73406000D01*
X147764500Y-73406000D02*
X147764500Y-123888500D01*
X147764500Y-123888500D02*
X145034000Y-123888500D01*
X145034000Y-73406000D02*
X147764500Y-73406000D01*
X145034000Y-123888500D02*
X145034000Y-73406000D01*
X127190500Y-73406000D02*
X127190500Y-123888500D01*
X127190500Y-123888500D02*
X124460000Y-123888500D01*
X124460000Y-73406000D02*
X127190500Y-73406000D01*
X124460000Y-123888500D02*
X124460000Y-73406000D01*
X103886000Y-123888500D02*
X103886000Y-73406000D01*
X106616500Y-123888500D02*
X103886000Y-123888500D01*
X106616500Y-73406000D02*
X106616500Y-123888500D01*
X103886000Y-73406000D02*
X106616500Y-73406000D01*
D11*
X169844806Y-53975000D02*
G75*
G03*
X169844806Y-53975000I-2839806J0D01*
G01*
X149270806Y-54102000D02*
G75*
G03*
X149270806Y-54102000I-2839806J0D01*
G01*
X128696806Y-54102000D02*
G75*
G03*
X128696806Y-54102000I-2839806J0D01*
G01*
X108077000Y-53975000D02*
G75*
G03*
X108077000Y-53975000I-2839806J0D01*
G01*
D10*
X186309000Y-130429000D02*
X185674000Y-131064000D01*
X186309000Y-125349000D02*
X186309000Y-130429000D01*
X191770000Y-125349000D02*
X186309000Y-125349000D01*
X192405000Y-124714000D02*
X191770000Y-125349000D01*
X192405000Y-51054000D02*
X192405000Y-124714000D01*
X191770000Y-50419000D02*
X192405000Y-51054000D01*
X186309000Y-50419000D02*
X191770000Y-50419000D01*
X186309000Y-45275500D02*
X186309000Y-50419000D01*
X185674000Y-44640500D02*
X186309000Y-45275500D01*
X86614000Y-44640500D02*
X185674000Y-44640500D01*
X85979000Y-45275500D02*
X86614000Y-44640500D01*
X85979000Y-50419000D02*
X85979000Y-45275500D01*
X80518000Y-50419000D02*
X85979000Y-50419000D01*
X79883000Y-51054000D02*
X80518000Y-50419000D01*
X79883000Y-124777500D02*
X79883000Y-51054000D01*
X80518000Y-125412500D02*
X79883000Y-124777500D01*
X85979000Y-125412500D02*
X80518000Y-125412500D01*
X85979000Y-130429000D02*
X85979000Y-125412500D01*
X86614000Y-131064000D02*
X85979000Y-130429000D01*
X185674000Y-131064000D02*
X86614000Y-131064000D01*
D12*
%TO.C,REF\u002A\u002A*%
X179959000Y-50990500D03*
%TD*%
%TO.C,REF\u002A\u002A*%
X179959000Y-124714000D03*
%TD*%
%TO.C,REF\u002A\u002A*%
X92329000Y-124714000D03*
%TD*%
%TO.C,REF\u002A\u002A*%
X92329000Y-50990500D03*
%TD*%
M02*
