%TF.GenerationSoftware,KiCad,Pcbnew,(5.1.6-0-10_14)*%
%TF.CreationDate,2020-10-11T14:19:36+01:00*%
%TF.ProjectId,ActiveSplitterPedalWithDigitalPeakDetector,41637469-7665-4537-906c-697474657250,rev?*%
%TF.SameCoordinates,Original*%
%TF.FileFunction,Legend,Top*%
%TF.FilePolarity,Positive*%
%FSLAX46Y46*%
G04 Gerber Fmt 4.6, Leading zero omitted, Abs format (unit mm)*
G04 Created by KiCad (PCBNEW (5.1.6-0-10_14)) date 2020-10-11 14:19:36*
%MOMM*%
%LPD*%
G01*
G04 APERTURE LIST*
%ADD10C,0.400000*%
%ADD11C,1.000000*%
%TA.AperFunction,Profile*%
%ADD12C,0.050000*%
%TD*%
%TA.AperFunction,Profile*%
%ADD13C,0.150000*%
%TD*%
%ADD14C,0.150000*%
G04 APERTURE END LIST*
D10*
X105130600Y-62039500D02*
X105130600Y-67119500D01*
X105130600Y-62039500D02*
X104114600Y-63055500D01*
X105130600Y-62039500D02*
X106146600Y-63055500D01*
X125730000Y-62039500D02*
X125730000Y-67119500D01*
X125730000Y-62039500D02*
X124714000Y-63055500D01*
X125730000Y-62039500D02*
X126746000Y-63055500D01*
X146380200Y-62039500D02*
X146380200Y-67119500D01*
X146380200Y-62039500D02*
X145364200Y-63055500D01*
X146380200Y-62039500D02*
X147396200Y-63055500D01*
X177244571Y-117181142D02*
X177244571Y-114181142D01*
X178673142Y-117181142D02*
X178673142Y-114181142D01*
X180387428Y-117181142D01*
X180387428Y-114181142D01*
X162703428Y-46109142D02*
X163274857Y-46109142D01*
X163560571Y-46252000D01*
X163846285Y-46537714D01*
X163989142Y-47109142D01*
X163989142Y-48109142D01*
X163846285Y-48680571D01*
X163560571Y-48966285D01*
X163274857Y-49109142D01*
X162703428Y-49109142D01*
X162417714Y-48966285D01*
X162132000Y-48680571D01*
X161989142Y-48109142D01*
X161989142Y-47109142D01*
X162132000Y-46537714D01*
X162417714Y-46252000D01*
X162703428Y-46109142D01*
X165274857Y-46109142D02*
X165274857Y-48537714D01*
X165417714Y-48823428D01*
X165560571Y-48966285D01*
X165846285Y-49109142D01*
X166417714Y-49109142D01*
X166703428Y-48966285D01*
X166846285Y-48823428D01*
X166989142Y-48537714D01*
X166989142Y-46109142D01*
X167989142Y-46109142D02*
X169703428Y-46109142D01*
X168846285Y-49109142D02*
X168846285Y-46109142D01*
X171989142Y-47109142D02*
X171989142Y-49109142D01*
X171274857Y-45966285D02*
X170560571Y-48109142D01*
X172417714Y-48109142D01*
X141875428Y-46109142D02*
X142446857Y-46109142D01*
X142732571Y-46252000D01*
X143018285Y-46537714D01*
X143161142Y-47109142D01*
X143161142Y-48109142D01*
X143018285Y-48680571D01*
X142732571Y-48966285D01*
X142446857Y-49109142D01*
X141875428Y-49109142D01*
X141589714Y-48966285D01*
X141304000Y-48680571D01*
X141161142Y-48109142D01*
X141161142Y-47109142D01*
X141304000Y-46537714D01*
X141589714Y-46252000D01*
X141875428Y-46109142D01*
X144446857Y-46109142D02*
X144446857Y-48537714D01*
X144589714Y-48823428D01*
X144732571Y-48966285D01*
X145018285Y-49109142D01*
X145589714Y-49109142D01*
X145875428Y-48966285D01*
X146018285Y-48823428D01*
X146161142Y-48537714D01*
X146161142Y-46109142D01*
X147161142Y-46109142D02*
X148875428Y-46109142D01*
X148018285Y-49109142D02*
X148018285Y-46109142D01*
X149589714Y-46109142D02*
X151446857Y-46109142D01*
X150446857Y-47252000D01*
X150875428Y-47252000D01*
X151161142Y-47394857D01*
X151304000Y-47537714D01*
X151446857Y-47823428D01*
X151446857Y-48537714D01*
X151304000Y-48823428D01*
X151161142Y-48966285D01*
X150875428Y-49109142D01*
X150018285Y-49109142D01*
X149732571Y-48966285D01*
X149589714Y-48823428D01*
X121047428Y-46109142D02*
X121618857Y-46109142D01*
X121904571Y-46252000D01*
X122190285Y-46537714D01*
X122333142Y-47109142D01*
X122333142Y-48109142D01*
X122190285Y-48680571D01*
X121904571Y-48966285D01*
X121618857Y-49109142D01*
X121047428Y-49109142D01*
X120761714Y-48966285D01*
X120476000Y-48680571D01*
X120333142Y-48109142D01*
X120333142Y-47109142D01*
X120476000Y-46537714D01*
X120761714Y-46252000D01*
X121047428Y-46109142D01*
X123618857Y-46109142D02*
X123618857Y-48537714D01*
X123761714Y-48823428D01*
X123904571Y-48966285D01*
X124190285Y-49109142D01*
X124761714Y-49109142D01*
X125047428Y-48966285D01*
X125190285Y-48823428D01*
X125333142Y-48537714D01*
X125333142Y-46109142D01*
X126333142Y-46109142D02*
X128047428Y-46109142D01*
X127190285Y-49109142D02*
X127190285Y-46109142D01*
X128904571Y-46394857D02*
X129047428Y-46252000D01*
X129333142Y-46109142D01*
X130047428Y-46109142D01*
X130333142Y-46252000D01*
X130476000Y-46394857D01*
X130618857Y-46680571D01*
X130618857Y-46966285D01*
X130476000Y-47394857D01*
X128761714Y-49109142D01*
X130618857Y-49109142D01*
X101235428Y-46109142D02*
X101806857Y-46109142D01*
X102092571Y-46252000D01*
X102378285Y-46537714D01*
X102521142Y-47109142D01*
X102521142Y-48109142D01*
X102378285Y-48680571D01*
X102092571Y-48966285D01*
X101806857Y-49109142D01*
X101235428Y-49109142D01*
X100949714Y-48966285D01*
X100664000Y-48680571D01*
X100521142Y-48109142D01*
X100521142Y-47109142D01*
X100664000Y-46537714D01*
X100949714Y-46252000D01*
X101235428Y-46109142D01*
X103806857Y-46109142D02*
X103806857Y-48537714D01*
X103949714Y-48823428D01*
X104092571Y-48966285D01*
X104378285Y-49109142D01*
X104949714Y-49109142D01*
X105235428Y-48966285D01*
X105378285Y-48823428D01*
X105521142Y-48537714D01*
X105521142Y-46109142D01*
X106521142Y-46109142D02*
X108235428Y-46109142D01*
X107378285Y-49109142D02*
X107378285Y-46109142D01*
X110806857Y-49109142D02*
X109092571Y-49109142D01*
X109949714Y-49109142D02*
X109949714Y-46109142D01*
X109664000Y-46537714D01*
X109378285Y-46823428D01*
X109092571Y-46966285D01*
D11*
X176212857Y-94853809D02*
X181927142Y-94853809D01*
X179070000Y-104853809D02*
X179070000Y-94853809D01*
X156845000Y-104853809D02*
X156845000Y-94853809D01*
X138985238Y-104853809D02*
X134223333Y-104853809D01*
X134223333Y-94853809D01*
X112950952Y-104853809D02*
X112950952Y-94853809D01*
X116760476Y-94853809D01*
X117712857Y-95330000D01*
X118189047Y-95806190D01*
X118665238Y-96758571D01*
X118665238Y-98187142D01*
X118189047Y-99139523D01*
X117712857Y-99615714D01*
X116760476Y-100091904D01*
X112950952Y-100091904D01*
X91122857Y-104377619D02*
X92551428Y-104853809D01*
X94932380Y-104853809D01*
X95884761Y-104377619D01*
X96360952Y-103901428D01*
X96837142Y-102949047D01*
X96837142Y-101996666D01*
X96360952Y-101044285D01*
X95884761Y-100568095D01*
X94932380Y-100091904D01*
X93027619Y-99615714D01*
X92075238Y-99139523D01*
X91599047Y-98663333D01*
X91122857Y-97710952D01*
X91122857Y-96758571D01*
X91599047Y-95806190D01*
X92075238Y-95330000D01*
X93027619Y-94853809D01*
X95408571Y-94853809D01*
X96837142Y-95330000D01*
D12*
X168338500Y-73406000D02*
X168338500Y-123888500D01*
X168338500Y-123888500D02*
X165608000Y-123888500D01*
X165608000Y-73406000D02*
X168338500Y-73406000D01*
X165608000Y-123888500D02*
X165608000Y-73406000D01*
X147764500Y-73406000D02*
X147764500Y-123888500D01*
X147764500Y-123888500D02*
X145034000Y-123888500D01*
X145034000Y-73406000D02*
X147764500Y-73406000D01*
X145034000Y-123888500D02*
X145034000Y-73406000D01*
X127190500Y-73406000D02*
X127190500Y-123888500D01*
X127190500Y-123888500D02*
X124460000Y-123888500D01*
X124460000Y-73406000D02*
X127190500Y-73406000D01*
X124460000Y-123888500D02*
X124460000Y-73406000D01*
X103886000Y-123888500D02*
X103886000Y-73406000D01*
X106616500Y-123888500D02*
X103886000Y-123888500D01*
X106616500Y-73406000D02*
X106616500Y-123888500D01*
X103886000Y-73406000D02*
X106616500Y-73406000D01*
D13*
X169844806Y-53975000D02*
G75*
G03*
X169844806Y-53975000I-2839806J0D01*
G01*
X149270806Y-54102000D02*
G75*
G03*
X149270806Y-54102000I-2839806J0D01*
G01*
X128696806Y-54102000D02*
G75*
G03*
X128696806Y-54102000I-2839806J0D01*
G01*
X108077000Y-53975000D02*
G75*
G03*
X108077000Y-53975000I-2839806J0D01*
G01*
D14*
X184632761Y-62551904D02*
X184785142Y-62551904D01*
X184861333Y-62513809D01*
X184899428Y-62475714D01*
X184975619Y-62361428D01*
X185013714Y-62209047D01*
X185013714Y-61904285D01*
X184975619Y-61828095D01*
X184937523Y-61790000D01*
X184861333Y-61751904D01*
X184708952Y-61751904D01*
X184632761Y-61790000D01*
X184594666Y-61828095D01*
X184556571Y-61904285D01*
X184556571Y-62094761D01*
X184594666Y-62170952D01*
X184632761Y-62209047D01*
X184708952Y-62247142D01*
X184861333Y-62247142D01*
X184937523Y-62209047D01*
X184975619Y-62170952D01*
X185013714Y-62094761D01*
X185242285Y-61751904D02*
X185508952Y-62551904D01*
X185775619Y-61751904D01*
X186042285Y-62551904D02*
X186042285Y-61751904D01*
X186232761Y-61751904D01*
X186347047Y-61790000D01*
X186423238Y-61866190D01*
X186461333Y-61942380D01*
X186499428Y-62094761D01*
X186499428Y-62209047D01*
X186461333Y-62361428D01*
X186423238Y-62437619D01*
X186347047Y-62513809D01*
X186232761Y-62551904D01*
X186042285Y-62551904D01*
X187299428Y-62475714D02*
X187261333Y-62513809D01*
X187147047Y-62551904D01*
X187070857Y-62551904D01*
X186956571Y-62513809D01*
X186880380Y-62437619D01*
X186842285Y-62361428D01*
X186804190Y-62209047D01*
X186804190Y-62094761D01*
X186842285Y-61942380D01*
X186880380Y-61866190D01*
X186956571Y-61790000D01*
X187070857Y-61751904D01*
X187147047Y-61751904D01*
X187261333Y-61790000D01*
X187299428Y-61828095D01*
X181604190Y-63825714D02*
X181566095Y-63863809D01*
X181451809Y-63901904D01*
X181375619Y-63901904D01*
X181261333Y-63863809D01*
X181185142Y-63787619D01*
X181147047Y-63711428D01*
X181108952Y-63559047D01*
X181108952Y-63444761D01*
X181147047Y-63292380D01*
X181185142Y-63216190D01*
X181261333Y-63140000D01*
X181375619Y-63101904D01*
X181451809Y-63101904D01*
X181566095Y-63140000D01*
X181604190Y-63178095D01*
X182251809Y-63863809D02*
X182175619Y-63901904D01*
X182023238Y-63901904D01*
X181947047Y-63863809D01*
X181908952Y-63787619D01*
X181908952Y-63482857D01*
X181947047Y-63406666D01*
X182023238Y-63368571D01*
X182175619Y-63368571D01*
X182251809Y-63406666D01*
X182289904Y-63482857D01*
X182289904Y-63559047D01*
X181908952Y-63635238D01*
X182632761Y-63368571D02*
X182632761Y-63901904D01*
X182632761Y-63444761D02*
X182670857Y-63406666D01*
X182747047Y-63368571D01*
X182861333Y-63368571D01*
X182937523Y-63406666D01*
X182975619Y-63482857D01*
X182975619Y-63901904D01*
X183242285Y-63368571D02*
X183547047Y-63368571D01*
X183356571Y-63101904D02*
X183356571Y-63787619D01*
X183394666Y-63863809D01*
X183470857Y-63901904D01*
X183547047Y-63901904D01*
X184118476Y-63863809D02*
X184042285Y-63901904D01*
X183889904Y-63901904D01*
X183813714Y-63863809D01*
X183775619Y-63787619D01*
X183775619Y-63482857D01*
X183813714Y-63406666D01*
X183889904Y-63368571D01*
X184042285Y-63368571D01*
X184118476Y-63406666D01*
X184156571Y-63482857D01*
X184156571Y-63559047D01*
X183775619Y-63635238D01*
X184499428Y-63901904D02*
X184499428Y-63368571D01*
X184499428Y-63520952D02*
X184537523Y-63444761D01*
X184575619Y-63406666D01*
X184651809Y-63368571D01*
X184728000Y-63368571D01*
X185604190Y-63901904D02*
X185604190Y-63101904D01*
X186061333Y-63901904D01*
X186061333Y-63101904D01*
X186747047Y-63863809D02*
X186670857Y-63901904D01*
X186518476Y-63901904D01*
X186442285Y-63863809D01*
X186404190Y-63787619D01*
X186404190Y-63482857D01*
X186442285Y-63406666D01*
X186518476Y-63368571D01*
X186670857Y-63368571D01*
X186747047Y-63406666D01*
X186785142Y-63482857D01*
X186785142Y-63559047D01*
X186404190Y-63635238D01*
X187470857Y-63368571D02*
X187470857Y-64016190D01*
X187432761Y-64092380D01*
X187394666Y-64130476D01*
X187318476Y-64168571D01*
X187204190Y-64168571D01*
X187128000Y-64130476D01*
X187470857Y-63863809D02*
X187394666Y-63901904D01*
X187242285Y-63901904D01*
X187166095Y-63863809D01*
X187128000Y-63825714D01*
X187089904Y-63749523D01*
X187089904Y-63520952D01*
X187128000Y-63444761D01*
X187166095Y-63406666D01*
X187242285Y-63368571D01*
X187394666Y-63368571D01*
X187470857Y-63406666D01*
X188194666Y-63901904D02*
X188194666Y-63482857D01*
X188156571Y-63406666D01*
X188080380Y-63368571D01*
X187928000Y-63368571D01*
X187851809Y-63406666D01*
X188194666Y-63863809D02*
X188118476Y-63901904D01*
X187928000Y-63901904D01*
X187851809Y-63863809D01*
X187813714Y-63787619D01*
X187813714Y-63711428D01*
X187851809Y-63635238D01*
X187928000Y-63597142D01*
X188118476Y-63597142D01*
X188194666Y-63559047D01*
X188461333Y-63368571D02*
X188766095Y-63368571D01*
X188575619Y-63101904D02*
X188575619Y-63787619D01*
X188613714Y-63863809D01*
X188689904Y-63901904D01*
X188766095Y-63901904D01*
X189032761Y-63901904D02*
X189032761Y-63368571D01*
X189032761Y-63101904D02*
X188994666Y-63140000D01*
X189032761Y-63178095D01*
X189070857Y-63140000D01*
X189032761Y-63101904D01*
X189032761Y-63178095D01*
X189337523Y-63368571D02*
X189528000Y-63901904D01*
X189718476Y-63368571D01*
X190328000Y-63863809D02*
X190251809Y-63901904D01*
X190099428Y-63901904D01*
X190023238Y-63863809D01*
X189985142Y-63787619D01*
X189985142Y-63482857D01*
X190023238Y-63406666D01*
X190099428Y-63368571D01*
X190251809Y-63368571D01*
X190328000Y-63406666D01*
X190366095Y-63482857D01*
X190366095Y-63559047D01*
X189985142Y-63635238D01*
X190708952Y-63825714D02*
X190747047Y-63863809D01*
X190708952Y-63901904D01*
X190670857Y-63863809D01*
X190708952Y-63825714D01*
X190708952Y-63901904D01*
X190708952Y-63597142D02*
X190670857Y-63140000D01*
X190708952Y-63101904D01*
X190747047Y-63140000D01*
X190708952Y-63597142D01*
X190708952Y-63101904D01*
D10*
X184404000Y-115722400D02*
X185420000Y-116738400D01*
X184404000Y-115722400D02*
X189484000Y-115722400D01*
X184404000Y-115722400D02*
X185420000Y-114706400D01*
X166878000Y-62039500D02*
X167894000Y-63055500D01*
X166878000Y-62039500D02*
X165862000Y-63055500D01*
X166878000Y-62039500D02*
X166878000Y-67119500D01*
D12*
X186309000Y-130429000D02*
X185674000Y-131064000D01*
X186309000Y-125349000D02*
X186309000Y-130429000D01*
X191770000Y-125349000D02*
X186309000Y-125349000D01*
X192405000Y-124714000D02*
X191770000Y-125349000D01*
X192405000Y-51054000D02*
X192405000Y-124714000D01*
X191770000Y-50419000D02*
X192405000Y-51054000D01*
X186309000Y-50419000D02*
X191770000Y-50419000D01*
X186309000Y-45275500D02*
X186309000Y-50419000D01*
X185674000Y-44640500D02*
X186309000Y-45275500D01*
X86614000Y-44640500D02*
X185674000Y-44640500D01*
X85979000Y-45275500D02*
X86614000Y-44640500D01*
X85979000Y-50419000D02*
X85979000Y-45275500D01*
X80518000Y-50419000D02*
X85979000Y-50419000D01*
X79883000Y-51054000D02*
X80518000Y-50419000D01*
X79883000Y-124777500D02*
X79883000Y-51054000D01*
X80518000Y-125412500D02*
X79883000Y-124777500D01*
X85979000Y-125412500D02*
X80518000Y-125412500D01*
X85979000Y-130429000D02*
X85979000Y-125412500D01*
X86614000Y-131064000D02*
X85979000Y-130429000D01*
X185674000Y-131064000D02*
X86614000Y-131064000D01*
M02*
