M48
; DRILL file {KiCad (5.1.6-0-10_14)} date Sunday, October 11, 2020 at 02:19:37 PM
; FORMAT={-:-/ absolute / inch / decimal}
; #@! TF.CreationDate,2020-10-11T14:19:37+01:00
; #@! TF.GenerationSoftware,Kicad,Pcbnew,(5.1.6-0-10_14)
; #@! TF.FileFunction,Plated,1,2,PTH
FMAT,2
INCH
T1C0.0197
T2C0.1181
%
G90
G05
T1
X3.5464Y-4.91
X3.5724Y-4.8474
X3.5724Y-4.9726
X3.635Y-4.8214
X3.635Y-4.9986
X3.6976Y-4.8474
X3.6976Y-4.9726
X3.7236Y-4.91
X3.5464Y-2.0075
X3.5724Y-1.9449
X3.5724Y-2.0701
X3.635Y-1.9189
X3.635Y-2.0961
X3.6976Y-1.9449
X3.6976Y-2.0701
X3.7236Y-2.0075
X6.9964Y-4.91
X7.0224Y-4.8474
X7.0224Y-4.9726
X7.085Y-4.8214
X7.085Y-4.9986
X7.1476Y-4.8474
X7.1476Y-4.9726
X7.1736Y-4.91
X6.9964Y-2.0075
X7.0224Y-1.9449
X7.0224Y-2.0701
X7.085Y-1.9189
X7.085Y-2.0961
X7.1476Y-1.9449
X7.1476Y-2.0701
X7.1736Y-2.0075
T2
X7.085Y-2.0075
X3.635Y-4.91
X3.635Y-2.0075
X7.085Y-4.91
T0
M30
