%TF.GenerationSoftware,KiCad,Pcbnew,(5.1.6-0-10_14)*%
%TF.CreationDate,2020-10-11T14:19:36+01:00*%
%TF.ProjectId,ActiveSplitterPedalWithDigitalPeakDetector,41637469-7665-4537-906c-697474657250,rev?*%
%TF.SameCoordinates,Original*%
%TF.FileFunction,Copper,L2,Bot*%
%TF.FilePolarity,Positive*%
%FSLAX46Y46*%
G04 Gerber Fmt 4.6, Leading zero omitted, Abs format (unit mm)*
G04 Created by KiCad (PCBNEW (5.1.6-0-10_14)) date 2020-10-11 14:19:36*
%MOMM*%
%LPD*%
G01*
G04 APERTURE LIST*
%TA.AperFunction,Profile*%
%ADD10C,0.050000*%
%TD*%
%TA.AperFunction,Profile*%
%ADD11C,0.150000*%
%TD*%
%TA.AperFunction,ComponentPad*%
%ADD12C,6.000000*%
%TD*%
%TA.AperFunction,ComponentPad*%
%ADD13C,0.800000*%
%TD*%
%TA.AperFunction,NonConductor*%
%ADD14C,0.254000*%
%TD*%
G04 APERTURE END LIST*
D10*
X168338500Y-73406000D02*
X168338500Y-123888500D01*
X168338500Y-123888500D02*
X165608000Y-123888500D01*
X165608000Y-73406000D02*
X168338500Y-73406000D01*
X165608000Y-123888500D02*
X165608000Y-73406000D01*
X147764500Y-73406000D02*
X147764500Y-123888500D01*
X147764500Y-123888500D02*
X145034000Y-123888500D01*
X145034000Y-73406000D02*
X147764500Y-73406000D01*
X145034000Y-123888500D02*
X145034000Y-73406000D01*
X127190500Y-73406000D02*
X127190500Y-123888500D01*
X127190500Y-123888500D02*
X124460000Y-123888500D01*
X124460000Y-73406000D02*
X127190500Y-73406000D01*
X124460000Y-123888500D02*
X124460000Y-73406000D01*
X103886000Y-123888500D02*
X103886000Y-73406000D01*
X106616500Y-123888500D02*
X103886000Y-123888500D01*
X106616500Y-73406000D02*
X106616500Y-123888500D01*
X103886000Y-73406000D02*
X106616500Y-73406000D01*
D11*
X169844806Y-53975000D02*
G75*
G03*
X169844806Y-53975000I-2839806J0D01*
G01*
X149270806Y-54102000D02*
G75*
G03*
X149270806Y-54102000I-2839806J0D01*
G01*
X128696806Y-54102000D02*
G75*
G03*
X128696806Y-54102000I-2839806J0D01*
G01*
X108077000Y-53975000D02*
G75*
G03*
X108077000Y-53975000I-2839806J0D01*
G01*
D10*
X186309000Y-130429000D02*
X185674000Y-131064000D01*
X186309000Y-125349000D02*
X186309000Y-130429000D01*
X191770000Y-125349000D02*
X186309000Y-125349000D01*
X192405000Y-124714000D02*
X191770000Y-125349000D01*
X192405000Y-51054000D02*
X192405000Y-124714000D01*
X191770000Y-50419000D02*
X192405000Y-51054000D01*
X186309000Y-50419000D02*
X191770000Y-50419000D01*
X186309000Y-45275500D02*
X186309000Y-50419000D01*
X185674000Y-44640500D02*
X186309000Y-45275500D01*
X86614000Y-44640500D02*
X185674000Y-44640500D01*
X85979000Y-45275500D02*
X86614000Y-44640500D01*
X85979000Y-50419000D02*
X85979000Y-45275500D01*
X80518000Y-50419000D02*
X85979000Y-50419000D01*
X79883000Y-51054000D02*
X80518000Y-50419000D01*
X79883000Y-124777500D02*
X79883000Y-51054000D01*
X80518000Y-125412500D02*
X79883000Y-124777500D01*
X85979000Y-125412500D02*
X80518000Y-125412500D01*
X85979000Y-130429000D02*
X85979000Y-125412500D01*
X86614000Y-131064000D02*
X85979000Y-130429000D01*
X185674000Y-131064000D02*
X86614000Y-131064000D01*
D12*
%TO.P,REF\u002A\u002A,1*%
%TO.N,N/C*%
X92329000Y-124714000D03*
D13*
X94579000Y-124714000D03*
X93919990Y-126304990D03*
X92329000Y-126964000D03*
X90738010Y-126304990D03*
X90079000Y-124714000D03*
X90738010Y-123123010D03*
X92329000Y-122464000D03*
X93919990Y-123123010D03*
%TD*%
D12*
%TO.P,REF\u002A\u002A,1*%
%TO.N,N/C*%
X179959000Y-124714000D03*
D13*
X182209000Y-124714000D03*
X181549990Y-126304990D03*
X179959000Y-126964000D03*
X178368010Y-126304990D03*
X177709000Y-124714000D03*
X178368010Y-123123010D03*
X179959000Y-122464000D03*
X181549990Y-123123010D03*
%TD*%
D12*
%TO.P,REF\u002A\u002A,1*%
%TO.N,N/C*%
X179959000Y-50990500D03*
D13*
X182209000Y-50990500D03*
X181549990Y-52581490D03*
X179959000Y-53240500D03*
X178368010Y-52581490D03*
X177709000Y-50990500D03*
X178368010Y-49399510D03*
X179959000Y-48740500D03*
X181549990Y-49399510D03*
%TD*%
%TO.P,REF\u002A\u002A,1*%
%TO.N,N/C*%
X93919990Y-49399510D03*
X92329000Y-48740500D03*
X90738010Y-49399510D03*
X90079000Y-50990500D03*
X90738010Y-52581490D03*
X92329000Y-53240500D03*
X93919990Y-52581490D03*
X94579000Y-50990500D03*
D12*
X92329000Y-50990500D03*
%TD*%
D14*
G36*
X185649000Y-45548881D02*
G01*
X185649001Y-50386571D01*
X185645807Y-50419000D01*
X185658550Y-50548383D01*
X185696290Y-50672793D01*
X185757575Y-50787450D01*
X185840052Y-50887948D01*
X185940550Y-50970425D01*
X186055207Y-51031710D01*
X186179617Y-51069450D01*
X186276581Y-51079000D01*
X186309000Y-51082193D01*
X186341419Y-51079000D01*
X191496620Y-51079000D01*
X191745000Y-51327381D01*
X191745001Y-124440618D01*
X191496620Y-124689000D01*
X186341419Y-124689000D01*
X186309000Y-124685807D01*
X186276581Y-124689000D01*
X186179617Y-124698550D01*
X186055207Y-124736290D01*
X185940550Y-124797575D01*
X185840052Y-124880052D01*
X185757575Y-124980550D01*
X185696290Y-125095207D01*
X185658550Y-125219617D01*
X185645807Y-125349000D01*
X185649000Y-125381419D01*
X185649001Y-130155618D01*
X185400620Y-130404000D01*
X86887381Y-130404000D01*
X86639000Y-130155620D01*
X86639000Y-125444919D01*
X86642193Y-125412500D01*
X86629450Y-125283117D01*
X86591710Y-125158707D01*
X86530425Y-125044050D01*
X86447948Y-124943552D01*
X86347450Y-124861075D01*
X86232793Y-124799790D01*
X86108383Y-124762050D01*
X86011419Y-124752500D01*
X85979000Y-124749307D01*
X85946581Y-124752500D01*
X80791381Y-124752500D01*
X80543000Y-124504120D01*
X80543000Y-124355984D01*
X88694000Y-124355984D01*
X88694000Y-125072016D01*
X88833691Y-125774290D01*
X89107705Y-126435818D01*
X89505511Y-127031177D01*
X90011823Y-127537489D01*
X90607182Y-127935295D01*
X91268710Y-128209309D01*
X91970984Y-128349000D01*
X92687016Y-128349000D01*
X93389290Y-128209309D01*
X94050818Y-127935295D01*
X94646177Y-127537489D01*
X95152489Y-127031177D01*
X95550295Y-126435818D01*
X95824309Y-125774290D01*
X95964000Y-125072016D01*
X95964000Y-124355984D01*
X95824309Y-123653710D01*
X95550295Y-122992182D01*
X95152489Y-122396823D01*
X94646177Y-121890511D01*
X94050818Y-121492705D01*
X93389290Y-121218691D01*
X92687016Y-121079000D01*
X91970984Y-121079000D01*
X91268710Y-121218691D01*
X90607182Y-121492705D01*
X90011823Y-121890511D01*
X89505511Y-122396823D01*
X89107705Y-122992182D01*
X88833691Y-123653710D01*
X88694000Y-124355984D01*
X80543000Y-124355984D01*
X80543000Y-73406000D01*
X103222807Y-73406000D01*
X103226001Y-73438430D01*
X103226000Y-123856081D01*
X103222807Y-123888500D01*
X103235550Y-124017883D01*
X103273290Y-124142293D01*
X103334575Y-124256950D01*
X103359964Y-124287886D01*
X103417052Y-124357448D01*
X103517550Y-124439925D01*
X103632207Y-124501210D01*
X103756617Y-124538950D01*
X103886000Y-124551693D01*
X103918419Y-124548500D01*
X106584081Y-124548500D01*
X106616500Y-124551693D01*
X106648919Y-124548500D01*
X106745883Y-124538950D01*
X106870293Y-124501210D01*
X106984950Y-124439925D01*
X107085448Y-124357448D01*
X107167925Y-124256950D01*
X107229210Y-124142293D01*
X107266950Y-124017883D01*
X107279693Y-123888500D01*
X107276500Y-123856081D01*
X107276500Y-73438419D01*
X107279693Y-73406000D01*
X123796807Y-73406000D01*
X123800001Y-73438430D01*
X123800000Y-123856081D01*
X123796807Y-123888500D01*
X123809550Y-124017883D01*
X123847290Y-124142293D01*
X123908575Y-124256950D01*
X123933964Y-124287886D01*
X123991052Y-124357448D01*
X124091550Y-124439925D01*
X124206207Y-124501210D01*
X124330617Y-124538950D01*
X124460000Y-124551693D01*
X124492419Y-124548500D01*
X127158081Y-124548500D01*
X127190500Y-124551693D01*
X127222919Y-124548500D01*
X127319883Y-124538950D01*
X127444293Y-124501210D01*
X127558950Y-124439925D01*
X127659448Y-124357448D01*
X127741925Y-124256950D01*
X127803210Y-124142293D01*
X127840950Y-124017883D01*
X127853693Y-123888500D01*
X127850500Y-123856081D01*
X127850500Y-73438419D01*
X127853693Y-73406000D01*
X144370807Y-73406000D01*
X144374001Y-73438430D01*
X144374000Y-123856081D01*
X144370807Y-123888500D01*
X144383550Y-124017883D01*
X144421290Y-124142293D01*
X144482575Y-124256950D01*
X144507964Y-124287886D01*
X144565052Y-124357448D01*
X144665550Y-124439925D01*
X144780207Y-124501210D01*
X144904617Y-124538950D01*
X145034000Y-124551693D01*
X145066419Y-124548500D01*
X147732081Y-124548500D01*
X147764500Y-124551693D01*
X147796919Y-124548500D01*
X147893883Y-124538950D01*
X148018293Y-124501210D01*
X148132950Y-124439925D01*
X148233448Y-124357448D01*
X148315925Y-124256950D01*
X148377210Y-124142293D01*
X148414950Y-124017883D01*
X148427693Y-123888500D01*
X148424500Y-123856081D01*
X148424500Y-73438419D01*
X148427693Y-73406000D01*
X164944807Y-73406000D01*
X164948001Y-73438430D01*
X164948000Y-123856081D01*
X164944807Y-123888500D01*
X164957550Y-124017883D01*
X164995290Y-124142293D01*
X165056575Y-124256950D01*
X165081964Y-124287886D01*
X165139052Y-124357448D01*
X165239550Y-124439925D01*
X165354207Y-124501210D01*
X165478617Y-124538950D01*
X165608000Y-124551693D01*
X165640419Y-124548500D01*
X168306081Y-124548500D01*
X168338500Y-124551693D01*
X168370919Y-124548500D01*
X168467883Y-124538950D01*
X168592293Y-124501210D01*
X168706950Y-124439925D01*
X168807448Y-124357448D01*
X168808649Y-124355984D01*
X176324000Y-124355984D01*
X176324000Y-125072016D01*
X176463691Y-125774290D01*
X176737705Y-126435818D01*
X177135511Y-127031177D01*
X177641823Y-127537489D01*
X178237182Y-127935295D01*
X178898710Y-128209309D01*
X179600984Y-128349000D01*
X180317016Y-128349000D01*
X181019290Y-128209309D01*
X181680818Y-127935295D01*
X182276177Y-127537489D01*
X182782489Y-127031177D01*
X183180295Y-126435818D01*
X183454309Y-125774290D01*
X183594000Y-125072016D01*
X183594000Y-124355984D01*
X183454309Y-123653710D01*
X183180295Y-122992182D01*
X182782489Y-122396823D01*
X182276177Y-121890511D01*
X181680818Y-121492705D01*
X181019290Y-121218691D01*
X180317016Y-121079000D01*
X179600984Y-121079000D01*
X178898710Y-121218691D01*
X178237182Y-121492705D01*
X177641823Y-121890511D01*
X177135511Y-122396823D01*
X176737705Y-122992182D01*
X176463691Y-123653710D01*
X176324000Y-124355984D01*
X168808649Y-124355984D01*
X168889925Y-124256950D01*
X168951210Y-124142293D01*
X168988950Y-124017883D01*
X169001693Y-123888500D01*
X168998500Y-123856081D01*
X168998500Y-73438419D01*
X169001693Y-73406000D01*
X168988950Y-73276617D01*
X168951210Y-73152207D01*
X168889925Y-73037550D01*
X168807448Y-72937052D01*
X168706950Y-72854575D01*
X168592293Y-72793290D01*
X168467883Y-72755550D01*
X168370919Y-72746000D01*
X168338500Y-72742807D01*
X168306081Y-72746000D01*
X165640419Y-72746000D01*
X165608000Y-72742807D01*
X165575581Y-72746000D01*
X165478617Y-72755550D01*
X165354207Y-72793290D01*
X165239550Y-72854575D01*
X165139052Y-72937052D01*
X165056575Y-73037550D01*
X164995290Y-73152207D01*
X164957550Y-73276617D01*
X164944807Y-73406000D01*
X148427693Y-73406000D01*
X148414950Y-73276617D01*
X148377210Y-73152207D01*
X148315925Y-73037550D01*
X148233448Y-72937052D01*
X148132950Y-72854575D01*
X148018293Y-72793290D01*
X147893883Y-72755550D01*
X147796919Y-72746000D01*
X147764500Y-72742807D01*
X147732081Y-72746000D01*
X145066419Y-72746000D01*
X145034000Y-72742807D01*
X145001581Y-72746000D01*
X144904617Y-72755550D01*
X144780207Y-72793290D01*
X144665550Y-72854575D01*
X144565052Y-72937052D01*
X144482575Y-73037550D01*
X144421290Y-73152207D01*
X144383550Y-73276617D01*
X144370807Y-73406000D01*
X127853693Y-73406000D01*
X127840950Y-73276617D01*
X127803210Y-73152207D01*
X127741925Y-73037550D01*
X127659448Y-72937052D01*
X127558950Y-72854575D01*
X127444293Y-72793290D01*
X127319883Y-72755550D01*
X127222919Y-72746000D01*
X127190500Y-72742807D01*
X127158081Y-72746000D01*
X124492419Y-72746000D01*
X124460000Y-72742807D01*
X124427581Y-72746000D01*
X124330617Y-72755550D01*
X124206207Y-72793290D01*
X124091550Y-72854575D01*
X123991052Y-72937052D01*
X123908575Y-73037550D01*
X123847290Y-73152207D01*
X123809550Y-73276617D01*
X123796807Y-73406000D01*
X107279693Y-73406000D01*
X107266950Y-73276617D01*
X107229210Y-73152207D01*
X107167925Y-73037550D01*
X107085448Y-72937052D01*
X106984950Y-72854575D01*
X106870293Y-72793290D01*
X106745883Y-72755550D01*
X106648919Y-72746000D01*
X106616500Y-72742807D01*
X106584081Y-72746000D01*
X103918419Y-72746000D01*
X103886000Y-72742807D01*
X103853581Y-72746000D01*
X103756617Y-72755550D01*
X103632207Y-72793290D01*
X103517550Y-72854575D01*
X103417052Y-72937052D01*
X103334575Y-73037550D01*
X103273290Y-73152207D01*
X103235550Y-73276617D01*
X103222807Y-73406000D01*
X80543000Y-73406000D01*
X80543000Y-51327380D01*
X80791381Y-51079000D01*
X85946581Y-51079000D01*
X85979000Y-51082193D01*
X86011419Y-51079000D01*
X86108383Y-51069450D01*
X86232793Y-51031710D01*
X86347450Y-50970425D01*
X86447948Y-50887948D01*
X86530425Y-50787450D01*
X86591710Y-50672793D01*
X86603937Y-50632484D01*
X88694000Y-50632484D01*
X88694000Y-51348516D01*
X88833691Y-52050790D01*
X89107705Y-52712318D01*
X89505511Y-53307677D01*
X90011823Y-53813989D01*
X90607182Y-54211795D01*
X91268710Y-54485809D01*
X91970984Y-54625500D01*
X92687016Y-54625500D01*
X93389290Y-54485809D01*
X94050818Y-54211795D01*
X94646177Y-53813989D01*
X94835068Y-53625098D01*
X101684578Y-53625098D01*
X101684578Y-54324902D01*
X101821103Y-55011260D01*
X102088906Y-55657795D01*
X102477697Y-56239661D01*
X102972533Y-56734497D01*
X103554399Y-57123288D01*
X104200934Y-57391091D01*
X104887292Y-57527616D01*
X105587096Y-57527616D01*
X106273454Y-57391091D01*
X106919989Y-57123288D01*
X107501855Y-56734497D01*
X107996691Y-56239661D01*
X108385482Y-55657795D01*
X108653285Y-55011260D01*
X108789810Y-54324902D01*
X108789810Y-53752098D01*
X122304384Y-53752098D01*
X122304384Y-54451902D01*
X122440909Y-55138260D01*
X122708712Y-55784795D01*
X123097503Y-56366661D01*
X123592339Y-56861497D01*
X124174205Y-57250288D01*
X124820740Y-57518091D01*
X125507098Y-57654616D01*
X126206902Y-57654616D01*
X126893260Y-57518091D01*
X127539795Y-57250288D01*
X128121661Y-56861497D01*
X128616497Y-56366661D01*
X129005288Y-55784795D01*
X129273091Y-55138260D01*
X129409616Y-54451902D01*
X129409616Y-53752098D01*
X142878384Y-53752098D01*
X142878384Y-54451902D01*
X143014909Y-55138260D01*
X143282712Y-55784795D01*
X143671503Y-56366661D01*
X144166339Y-56861497D01*
X144748205Y-57250288D01*
X145394740Y-57518091D01*
X146081098Y-57654616D01*
X146780902Y-57654616D01*
X147467260Y-57518091D01*
X148113795Y-57250288D01*
X148695661Y-56861497D01*
X149190497Y-56366661D01*
X149579288Y-55784795D01*
X149847091Y-55138260D01*
X149983616Y-54451902D01*
X149983616Y-53752098D01*
X149958355Y-53625098D01*
X163452384Y-53625098D01*
X163452384Y-54324902D01*
X163588909Y-55011260D01*
X163856712Y-55657795D01*
X164245503Y-56239661D01*
X164740339Y-56734497D01*
X165322205Y-57123288D01*
X165968740Y-57391091D01*
X166655098Y-57527616D01*
X167354902Y-57527616D01*
X168041260Y-57391091D01*
X168687795Y-57123288D01*
X169269661Y-56734497D01*
X169764497Y-56239661D01*
X170153288Y-55657795D01*
X170421091Y-55011260D01*
X170557616Y-54324902D01*
X170557616Y-53625098D01*
X170421091Y-52938740D01*
X170153288Y-52292205D01*
X169764497Y-51710339D01*
X169269661Y-51215503D01*
X168687795Y-50826712D01*
X168218887Y-50632484D01*
X176324000Y-50632484D01*
X176324000Y-51348516D01*
X176463691Y-52050790D01*
X176737705Y-52712318D01*
X177135511Y-53307677D01*
X177641823Y-53813989D01*
X178237182Y-54211795D01*
X178898710Y-54485809D01*
X179600984Y-54625500D01*
X180317016Y-54625500D01*
X181019290Y-54485809D01*
X181680818Y-54211795D01*
X182276177Y-53813989D01*
X182782489Y-53307677D01*
X183180295Y-52712318D01*
X183454309Y-52050790D01*
X183594000Y-51348516D01*
X183594000Y-50632484D01*
X183454309Y-49930210D01*
X183180295Y-49268682D01*
X182782489Y-48673323D01*
X182276177Y-48167011D01*
X181680818Y-47769205D01*
X181019290Y-47495191D01*
X180317016Y-47355500D01*
X179600984Y-47355500D01*
X178898710Y-47495191D01*
X178237182Y-47769205D01*
X177641823Y-48167011D01*
X177135511Y-48673323D01*
X176737705Y-49268682D01*
X176463691Y-49930210D01*
X176324000Y-50632484D01*
X168218887Y-50632484D01*
X168041260Y-50558909D01*
X167354902Y-50422384D01*
X166655098Y-50422384D01*
X165968740Y-50558909D01*
X165322205Y-50826712D01*
X164740339Y-51215503D01*
X164245503Y-51710339D01*
X163856712Y-52292205D01*
X163588909Y-52938740D01*
X163452384Y-53625098D01*
X149958355Y-53625098D01*
X149847091Y-53065740D01*
X149579288Y-52419205D01*
X149190497Y-51837339D01*
X148695661Y-51342503D01*
X148113795Y-50953712D01*
X147467260Y-50685909D01*
X146780902Y-50549384D01*
X146081098Y-50549384D01*
X145394740Y-50685909D01*
X144748205Y-50953712D01*
X144166339Y-51342503D01*
X143671503Y-51837339D01*
X143282712Y-52419205D01*
X143014909Y-53065740D01*
X142878384Y-53752098D01*
X129409616Y-53752098D01*
X129273091Y-53065740D01*
X129005288Y-52419205D01*
X128616497Y-51837339D01*
X128121661Y-51342503D01*
X127539795Y-50953712D01*
X126893260Y-50685909D01*
X126206902Y-50549384D01*
X125507098Y-50549384D01*
X124820740Y-50685909D01*
X124174205Y-50953712D01*
X123592339Y-51342503D01*
X123097503Y-51837339D01*
X122708712Y-52419205D01*
X122440909Y-53065740D01*
X122304384Y-53752098D01*
X108789810Y-53752098D01*
X108789810Y-53625098D01*
X108653285Y-52938740D01*
X108385482Y-52292205D01*
X107996691Y-51710339D01*
X107501855Y-51215503D01*
X106919989Y-50826712D01*
X106273454Y-50558909D01*
X105587096Y-50422384D01*
X104887292Y-50422384D01*
X104200934Y-50558909D01*
X103554399Y-50826712D01*
X102972533Y-51215503D01*
X102477697Y-51710339D01*
X102088906Y-52292205D01*
X101821103Y-52938740D01*
X101684578Y-53625098D01*
X94835068Y-53625098D01*
X95152489Y-53307677D01*
X95550295Y-52712318D01*
X95824309Y-52050790D01*
X95964000Y-51348516D01*
X95964000Y-50632484D01*
X95824309Y-49930210D01*
X95550295Y-49268682D01*
X95152489Y-48673323D01*
X94646177Y-48167011D01*
X94050818Y-47769205D01*
X93389290Y-47495191D01*
X92687016Y-47355500D01*
X91970984Y-47355500D01*
X91268710Y-47495191D01*
X90607182Y-47769205D01*
X90011823Y-48167011D01*
X89505511Y-48673323D01*
X89107705Y-49268682D01*
X88833691Y-49930210D01*
X88694000Y-50632484D01*
X86603937Y-50632484D01*
X86629450Y-50548383D01*
X86642193Y-50419000D01*
X86639000Y-50386581D01*
X86639000Y-45548880D01*
X86887381Y-45300500D01*
X185400620Y-45300500D01*
X185649000Y-45548881D01*
G37*
X185649000Y-45548881D02*
X185649001Y-50386571D01*
X185645807Y-50419000D01*
X185658550Y-50548383D01*
X185696290Y-50672793D01*
X185757575Y-50787450D01*
X185840052Y-50887948D01*
X185940550Y-50970425D01*
X186055207Y-51031710D01*
X186179617Y-51069450D01*
X186276581Y-51079000D01*
X186309000Y-51082193D01*
X186341419Y-51079000D01*
X191496620Y-51079000D01*
X191745000Y-51327381D01*
X191745001Y-124440618D01*
X191496620Y-124689000D01*
X186341419Y-124689000D01*
X186309000Y-124685807D01*
X186276581Y-124689000D01*
X186179617Y-124698550D01*
X186055207Y-124736290D01*
X185940550Y-124797575D01*
X185840052Y-124880052D01*
X185757575Y-124980550D01*
X185696290Y-125095207D01*
X185658550Y-125219617D01*
X185645807Y-125349000D01*
X185649000Y-125381419D01*
X185649001Y-130155618D01*
X185400620Y-130404000D01*
X86887381Y-130404000D01*
X86639000Y-130155620D01*
X86639000Y-125444919D01*
X86642193Y-125412500D01*
X86629450Y-125283117D01*
X86591710Y-125158707D01*
X86530425Y-125044050D01*
X86447948Y-124943552D01*
X86347450Y-124861075D01*
X86232793Y-124799790D01*
X86108383Y-124762050D01*
X86011419Y-124752500D01*
X85979000Y-124749307D01*
X85946581Y-124752500D01*
X80791381Y-124752500D01*
X80543000Y-124504120D01*
X80543000Y-124355984D01*
X88694000Y-124355984D01*
X88694000Y-125072016D01*
X88833691Y-125774290D01*
X89107705Y-126435818D01*
X89505511Y-127031177D01*
X90011823Y-127537489D01*
X90607182Y-127935295D01*
X91268710Y-128209309D01*
X91970984Y-128349000D01*
X92687016Y-128349000D01*
X93389290Y-128209309D01*
X94050818Y-127935295D01*
X94646177Y-127537489D01*
X95152489Y-127031177D01*
X95550295Y-126435818D01*
X95824309Y-125774290D01*
X95964000Y-125072016D01*
X95964000Y-124355984D01*
X95824309Y-123653710D01*
X95550295Y-122992182D01*
X95152489Y-122396823D01*
X94646177Y-121890511D01*
X94050818Y-121492705D01*
X93389290Y-121218691D01*
X92687016Y-121079000D01*
X91970984Y-121079000D01*
X91268710Y-121218691D01*
X90607182Y-121492705D01*
X90011823Y-121890511D01*
X89505511Y-122396823D01*
X89107705Y-122992182D01*
X88833691Y-123653710D01*
X88694000Y-124355984D01*
X80543000Y-124355984D01*
X80543000Y-73406000D01*
X103222807Y-73406000D01*
X103226001Y-73438430D01*
X103226000Y-123856081D01*
X103222807Y-123888500D01*
X103235550Y-124017883D01*
X103273290Y-124142293D01*
X103334575Y-124256950D01*
X103359964Y-124287886D01*
X103417052Y-124357448D01*
X103517550Y-124439925D01*
X103632207Y-124501210D01*
X103756617Y-124538950D01*
X103886000Y-124551693D01*
X103918419Y-124548500D01*
X106584081Y-124548500D01*
X106616500Y-124551693D01*
X106648919Y-124548500D01*
X106745883Y-124538950D01*
X106870293Y-124501210D01*
X106984950Y-124439925D01*
X107085448Y-124357448D01*
X107167925Y-124256950D01*
X107229210Y-124142293D01*
X107266950Y-124017883D01*
X107279693Y-123888500D01*
X107276500Y-123856081D01*
X107276500Y-73438419D01*
X107279693Y-73406000D01*
X123796807Y-73406000D01*
X123800001Y-73438430D01*
X123800000Y-123856081D01*
X123796807Y-123888500D01*
X123809550Y-124017883D01*
X123847290Y-124142293D01*
X123908575Y-124256950D01*
X123933964Y-124287886D01*
X123991052Y-124357448D01*
X124091550Y-124439925D01*
X124206207Y-124501210D01*
X124330617Y-124538950D01*
X124460000Y-124551693D01*
X124492419Y-124548500D01*
X127158081Y-124548500D01*
X127190500Y-124551693D01*
X127222919Y-124548500D01*
X127319883Y-124538950D01*
X127444293Y-124501210D01*
X127558950Y-124439925D01*
X127659448Y-124357448D01*
X127741925Y-124256950D01*
X127803210Y-124142293D01*
X127840950Y-124017883D01*
X127853693Y-123888500D01*
X127850500Y-123856081D01*
X127850500Y-73438419D01*
X127853693Y-73406000D01*
X144370807Y-73406000D01*
X144374001Y-73438430D01*
X144374000Y-123856081D01*
X144370807Y-123888500D01*
X144383550Y-124017883D01*
X144421290Y-124142293D01*
X144482575Y-124256950D01*
X144507964Y-124287886D01*
X144565052Y-124357448D01*
X144665550Y-124439925D01*
X144780207Y-124501210D01*
X144904617Y-124538950D01*
X145034000Y-124551693D01*
X145066419Y-124548500D01*
X147732081Y-124548500D01*
X147764500Y-124551693D01*
X147796919Y-124548500D01*
X147893883Y-124538950D01*
X148018293Y-124501210D01*
X148132950Y-124439925D01*
X148233448Y-124357448D01*
X148315925Y-124256950D01*
X148377210Y-124142293D01*
X148414950Y-124017883D01*
X148427693Y-123888500D01*
X148424500Y-123856081D01*
X148424500Y-73438419D01*
X148427693Y-73406000D01*
X164944807Y-73406000D01*
X164948001Y-73438430D01*
X164948000Y-123856081D01*
X164944807Y-123888500D01*
X164957550Y-124017883D01*
X164995290Y-124142293D01*
X165056575Y-124256950D01*
X165081964Y-124287886D01*
X165139052Y-124357448D01*
X165239550Y-124439925D01*
X165354207Y-124501210D01*
X165478617Y-124538950D01*
X165608000Y-124551693D01*
X165640419Y-124548500D01*
X168306081Y-124548500D01*
X168338500Y-124551693D01*
X168370919Y-124548500D01*
X168467883Y-124538950D01*
X168592293Y-124501210D01*
X168706950Y-124439925D01*
X168807448Y-124357448D01*
X168808649Y-124355984D01*
X176324000Y-124355984D01*
X176324000Y-125072016D01*
X176463691Y-125774290D01*
X176737705Y-126435818D01*
X177135511Y-127031177D01*
X177641823Y-127537489D01*
X178237182Y-127935295D01*
X178898710Y-128209309D01*
X179600984Y-128349000D01*
X180317016Y-128349000D01*
X181019290Y-128209309D01*
X181680818Y-127935295D01*
X182276177Y-127537489D01*
X182782489Y-127031177D01*
X183180295Y-126435818D01*
X183454309Y-125774290D01*
X183594000Y-125072016D01*
X183594000Y-124355984D01*
X183454309Y-123653710D01*
X183180295Y-122992182D01*
X182782489Y-122396823D01*
X182276177Y-121890511D01*
X181680818Y-121492705D01*
X181019290Y-121218691D01*
X180317016Y-121079000D01*
X179600984Y-121079000D01*
X178898710Y-121218691D01*
X178237182Y-121492705D01*
X177641823Y-121890511D01*
X177135511Y-122396823D01*
X176737705Y-122992182D01*
X176463691Y-123653710D01*
X176324000Y-124355984D01*
X168808649Y-124355984D01*
X168889925Y-124256950D01*
X168951210Y-124142293D01*
X168988950Y-124017883D01*
X169001693Y-123888500D01*
X168998500Y-123856081D01*
X168998500Y-73438419D01*
X169001693Y-73406000D01*
X168988950Y-73276617D01*
X168951210Y-73152207D01*
X168889925Y-73037550D01*
X168807448Y-72937052D01*
X168706950Y-72854575D01*
X168592293Y-72793290D01*
X168467883Y-72755550D01*
X168370919Y-72746000D01*
X168338500Y-72742807D01*
X168306081Y-72746000D01*
X165640419Y-72746000D01*
X165608000Y-72742807D01*
X165575581Y-72746000D01*
X165478617Y-72755550D01*
X165354207Y-72793290D01*
X165239550Y-72854575D01*
X165139052Y-72937052D01*
X165056575Y-73037550D01*
X164995290Y-73152207D01*
X164957550Y-73276617D01*
X164944807Y-73406000D01*
X148427693Y-73406000D01*
X148414950Y-73276617D01*
X148377210Y-73152207D01*
X148315925Y-73037550D01*
X148233448Y-72937052D01*
X148132950Y-72854575D01*
X148018293Y-72793290D01*
X147893883Y-72755550D01*
X147796919Y-72746000D01*
X147764500Y-72742807D01*
X147732081Y-72746000D01*
X145066419Y-72746000D01*
X145034000Y-72742807D01*
X145001581Y-72746000D01*
X144904617Y-72755550D01*
X144780207Y-72793290D01*
X144665550Y-72854575D01*
X144565052Y-72937052D01*
X144482575Y-73037550D01*
X144421290Y-73152207D01*
X144383550Y-73276617D01*
X144370807Y-73406000D01*
X127853693Y-73406000D01*
X127840950Y-73276617D01*
X127803210Y-73152207D01*
X127741925Y-73037550D01*
X127659448Y-72937052D01*
X127558950Y-72854575D01*
X127444293Y-72793290D01*
X127319883Y-72755550D01*
X127222919Y-72746000D01*
X127190500Y-72742807D01*
X127158081Y-72746000D01*
X124492419Y-72746000D01*
X124460000Y-72742807D01*
X124427581Y-72746000D01*
X124330617Y-72755550D01*
X124206207Y-72793290D01*
X124091550Y-72854575D01*
X123991052Y-72937052D01*
X123908575Y-73037550D01*
X123847290Y-73152207D01*
X123809550Y-73276617D01*
X123796807Y-73406000D01*
X107279693Y-73406000D01*
X107266950Y-73276617D01*
X107229210Y-73152207D01*
X107167925Y-73037550D01*
X107085448Y-72937052D01*
X106984950Y-72854575D01*
X106870293Y-72793290D01*
X106745883Y-72755550D01*
X106648919Y-72746000D01*
X106616500Y-72742807D01*
X106584081Y-72746000D01*
X103918419Y-72746000D01*
X103886000Y-72742807D01*
X103853581Y-72746000D01*
X103756617Y-72755550D01*
X103632207Y-72793290D01*
X103517550Y-72854575D01*
X103417052Y-72937052D01*
X103334575Y-73037550D01*
X103273290Y-73152207D01*
X103235550Y-73276617D01*
X103222807Y-73406000D01*
X80543000Y-73406000D01*
X80543000Y-51327380D01*
X80791381Y-51079000D01*
X85946581Y-51079000D01*
X85979000Y-51082193D01*
X86011419Y-51079000D01*
X86108383Y-51069450D01*
X86232793Y-51031710D01*
X86347450Y-50970425D01*
X86447948Y-50887948D01*
X86530425Y-50787450D01*
X86591710Y-50672793D01*
X86603937Y-50632484D01*
X88694000Y-50632484D01*
X88694000Y-51348516D01*
X88833691Y-52050790D01*
X89107705Y-52712318D01*
X89505511Y-53307677D01*
X90011823Y-53813989D01*
X90607182Y-54211795D01*
X91268710Y-54485809D01*
X91970984Y-54625500D01*
X92687016Y-54625500D01*
X93389290Y-54485809D01*
X94050818Y-54211795D01*
X94646177Y-53813989D01*
X94835068Y-53625098D01*
X101684578Y-53625098D01*
X101684578Y-54324902D01*
X101821103Y-55011260D01*
X102088906Y-55657795D01*
X102477697Y-56239661D01*
X102972533Y-56734497D01*
X103554399Y-57123288D01*
X104200934Y-57391091D01*
X104887292Y-57527616D01*
X105587096Y-57527616D01*
X106273454Y-57391091D01*
X106919989Y-57123288D01*
X107501855Y-56734497D01*
X107996691Y-56239661D01*
X108385482Y-55657795D01*
X108653285Y-55011260D01*
X108789810Y-54324902D01*
X108789810Y-53752098D01*
X122304384Y-53752098D01*
X122304384Y-54451902D01*
X122440909Y-55138260D01*
X122708712Y-55784795D01*
X123097503Y-56366661D01*
X123592339Y-56861497D01*
X124174205Y-57250288D01*
X124820740Y-57518091D01*
X125507098Y-57654616D01*
X126206902Y-57654616D01*
X126893260Y-57518091D01*
X127539795Y-57250288D01*
X128121661Y-56861497D01*
X128616497Y-56366661D01*
X129005288Y-55784795D01*
X129273091Y-55138260D01*
X129409616Y-54451902D01*
X129409616Y-53752098D01*
X142878384Y-53752098D01*
X142878384Y-54451902D01*
X143014909Y-55138260D01*
X143282712Y-55784795D01*
X143671503Y-56366661D01*
X144166339Y-56861497D01*
X144748205Y-57250288D01*
X145394740Y-57518091D01*
X146081098Y-57654616D01*
X146780902Y-57654616D01*
X147467260Y-57518091D01*
X148113795Y-57250288D01*
X148695661Y-56861497D01*
X149190497Y-56366661D01*
X149579288Y-55784795D01*
X149847091Y-55138260D01*
X149983616Y-54451902D01*
X149983616Y-53752098D01*
X149958355Y-53625098D01*
X163452384Y-53625098D01*
X163452384Y-54324902D01*
X163588909Y-55011260D01*
X163856712Y-55657795D01*
X164245503Y-56239661D01*
X164740339Y-56734497D01*
X165322205Y-57123288D01*
X165968740Y-57391091D01*
X166655098Y-57527616D01*
X167354902Y-57527616D01*
X168041260Y-57391091D01*
X168687795Y-57123288D01*
X169269661Y-56734497D01*
X169764497Y-56239661D01*
X170153288Y-55657795D01*
X170421091Y-55011260D01*
X170557616Y-54324902D01*
X170557616Y-53625098D01*
X170421091Y-52938740D01*
X170153288Y-52292205D01*
X169764497Y-51710339D01*
X169269661Y-51215503D01*
X168687795Y-50826712D01*
X168218887Y-50632484D01*
X176324000Y-50632484D01*
X176324000Y-51348516D01*
X176463691Y-52050790D01*
X176737705Y-52712318D01*
X177135511Y-53307677D01*
X177641823Y-53813989D01*
X178237182Y-54211795D01*
X178898710Y-54485809D01*
X179600984Y-54625500D01*
X180317016Y-54625500D01*
X181019290Y-54485809D01*
X181680818Y-54211795D01*
X182276177Y-53813989D01*
X182782489Y-53307677D01*
X183180295Y-52712318D01*
X183454309Y-52050790D01*
X183594000Y-51348516D01*
X183594000Y-50632484D01*
X183454309Y-49930210D01*
X183180295Y-49268682D01*
X182782489Y-48673323D01*
X182276177Y-48167011D01*
X181680818Y-47769205D01*
X181019290Y-47495191D01*
X180317016Y-47355500D01*
X179600984Y-47355500D01*
X178898710Y-47495191D01*
X178237182Y-47769205D01*
X177641823Y-48167011D01*
X177135511Y-48673323D01*
X176737705Y-49268682D01*
X176463691Y-49930210D01*
X176324000Y-50632484D01*
X168218887Y-50632484D01*
X168041260Y-50558909D01*
X167354902Y-50422384D01*
X166655098Y-50422384D01*
X165968740Y-50558909D01*
X165322205Y-50826712D01*
X164740339Y-51215503D01*
X164245503Y-51710339D01*
X163856712Y-52292205D01*
X163588909Y-52938740D01*
X163452384Y-53625098D01*
X149958355Y-53625098D01*
X149847091Y-53065740D01*
X149579288Y-52419205D01*
X149190497Y-51837339D01*
X148695661Y-51342503D01*
X148113795Y-50953712D01*
X147467260Y-50685909D01*
X146780902Y-50549384D01*
X146081098Y-50549384D01*
X145394740Y-50685909D01*
X144748205Y-50953712D01*
X144166339Y-51342503D01*
X143671503Y-51837339D01*
X143282712Y-52419205D01*
X143014909Y-53065740D01*
X142878384Y-53752098D01*
X129409616Y-53752098D01*
X129273091Y-53065740D01*
X129005288Y-52419205D01*
X128616497Y-51837339D01*
X128121661Y-51342503D01*
X127539795Y-50953712D01*
X126893260Y-50685909D01*
X126206902Y-50549384D01*
X125507098Y-50549384D01*
X124820740Y-50685909D01*
X124174205Y-50953712D01*
X123592339Y-51342503D01*
X123097503Y-51837339D01*
X122708712Y-52419205D01*
X122440909Y-53065740D01*
X122304384Y-53752098D01*
X108789810Y-53752098D01*
X108789810Y-53625098D01*
X108653285Y-52938740D01*
X108385482Y-52292205D01*
X107996691Y-51710339D01*
X107501855Y-51215503D01*
X106919989Y-50826712D01*
X106273454Y-50558909D01*
X105587096Y-50422384D01*
X104887292Y-50422384D01*
X104200934Y-50558909D01*
X103554399Y-50826712D01*
X102972533Y-51215503D01*
X102477697Y-51710339D01*
X102088906Y-52292205D01*
X101821103Y-52938740D01*
X101684578Y-53625098D01*
X94835068Y-53625098D01*
X95152489Y-53307677D01*
X95550295Y-52712318D01*
X95824309Y-52050790D01*
X95964000Y-51348516D01*
X95964000Y-50632484D01*
X95824309Y-49930210D01*
X95550295Y-49268682D01*
X95152489Y-48673323D01*
X94646177Y-48167011D01*
X94050818Y-47769205D01*
X93389290Y-47495191D01*
X92687016Y-47355500D01*
X91970984Y-47355500D01*
X91268710Y-47495191D01*
X90607182Y-47769205D01*
X90011823Y-48167011D01*
X89505511Y-48673323D01*
X89107705Y-49268682D01*
X88833691Y-49930210D01*
X88694000Y-50632484D01*
X86603937Y-50632484D01*
X86629450Y-50548383D01*
X86642193Y-50419000D01*
X86639000Y-50386581D01*
X86639000Y-45548880D01*
X86887381Y-45300500D01*
X185400620Y-45300500D01*
X185649000Y-45548881D01*
M02*
